<?xml version="1.0" ?>
<svg height="512" version="1.1" width="512" xmlns="http://www.w3.org/2000/svg">
  <defs/>
  <g>
    <path d="M 58.31684494018555 50.09976577758789 C 58.55766677856445 48.984500885009766 54.52357482910156 53.53465270996094 54.06521987915039 53.863197326660156 C 36.64313507080078 68.48490905761719 31.26862907409668 72.77951049804688 32.54195022583008 72.25100708007812 C 35.37852478027344 71.32258605957031 27.708749771118164 73.99959564208984 37.71422576904297 68.1899642944336 C 31.852914810180664 72.09834289550781 21.969955444335938 81.49383544921875 58.31684494018555 50.09976577758789" fill="rgb(255, 72, 135)" opacity="1.0" stroke-width="2.0"/>
    <path d="M 182.4786834716797 502.6078186035156 C 157.42767333984375 441.2738952636719 76.60227966308594 438.5977783203125 105.74267578125 464.3254089355469 C 156.27207946777344 497.2853698730469 152.2763214111328 487.9009094238281 90.05712890625 467.07403564453125 C 65.50822448730469 465.5908508300781 76.60440826416016 466.27850341796875 90.23931884765625 467.3378601074219 C 88.14187622070312 467.94354248046875 75.35066223144531 459.0213317871094 182.4786834716797 502.6078186035156" fill="rgb(2, 5, 1)" opacity="1.0" stroke-width="2.0"/>
    <path d="M 71.2806625366211 416.02752685546875 C 114.82464599609375 185.70730590820312 163.27569580078125 216.6513214111328 186.83999633789062 168.6783905029297 C 203.53712463378906 181.25279235839844 209.16700744628906 217.15518188476562 500.9925842285156 155.9801025390625 C 496.7672119140625 468.38824462890625 452.3875427246094 392.0489501953125 366.2814636230469 484.8334045410156 C 150.6198272705078 504.9325256347656 153.81553649902344 481.10760498046875 71.2806625366211 416.02752685546875" fill="rgb(251, 219, 110)" opacity="1.0" stroke-width="2.0"/>
    <path d="M 422.0735778808594 180.59043884277344 C 420.51544189453125 216.62344360351562 379.56097412109375 230.89688110351562 357.9600524902344 210.57061767578125 C 359.19915771484375 208.3275909423828 362.6282958984375 220.1637420654297 365.5665588378906 224.9703369140625 C 356.3633117675781 207.5392608642578 347.7814636230469 173.66493225097656 372.8953552246094 198.15040588378906 C 412.64453125 210.4510040283203 395.5204772949219 152.6551513671875 422.0735778808594 180.59043884277344" fill="rgb(2, 1, 3)" opacity="1.0" stroke-width="2.0"/>
    <path d="M 246.48001098632812 201.78887939453125 C 234.93492126464844 226.8619842529297 164.38143920898438 236.9867706298828 172.7313995361328 155.48765563964844 C 209.76107788085938 222.74362182617188 212.2027130126953 198.6104278564453 297.19482421875 176.55503845214844 C 340.8280029296875 178.5083465576172 359.87457275390625 243.19863891601562 358.3498840332031 138.58558654785156 C 173.22682189941406 108.45073699951172 196.36154174804688 116.25328063964844 246.48001098632812 201.78887939453125" fill="rgb(15, 12, 9)" opacity="1.0" stroke-width="2.0"/>
    <path d="M 411.09600830078125 151.65408325195312 C 430.5577697753906 173.7151641845703 417.7174987792969 190.5062255859375 418.118896484375 197.53257751464844 C 401.7523193359375 179.68789672851562 405.76800537109375 143.3231658935547 348.5271301269531 169.2538604736328 C 339.14276123046875 163.57949829101562 372.4379577636719 118.73014068603516 411.09600830078125 151.65408325195312" fill="rgb(3, 2, 2)" opacity="1.0" stroke-width="2.0"/>
    <path d="M 280.059814453125 11.1219482421875 C 388.9936218261719 16.104890823364258 346.06134033203125 120.27681732177734 255.156494140625 167.42340087890625 C 193.68435668945312 111.96148681640625 176.08372497558594 20.829980850219727 233.16064453125 -16.28343963623047 C 382.6033020019531 71.57379913330078 344.4389953613281 103.40448760986328 268.5115966796875 160.72755432128906 C 237.69935607910156 163.44178771972656 243.99581909179688 240.86021423339844 346.5235290527344 238.66140747070312 C 398.5442199707031 68.78373718261719 359.5574035644531 92.04456329345703 280.059814453125 11.1219482421875" fill="rgb(252, 222, 109)" opacity="1.0" stroke-width="2.0"/>
    <path d="M 84.7500228881836 94.95042419433594 C 20.70159912109375 160.46925354003906 48.291316986083984 205.4387664794922 47.346290588378906 105.98856353759766 C 38.74594497680664 121.52796173095703 -4.854859828948975 173.93174743652344 -0.9263965487480164 278.97698974609375 C 60.65464401245117 279.0105895996094 41.41028594970703 156.57981872558594 48.447288513183594 104.53855895996094 C 81.84556579589844 61.7440071105957 143.37228393554688 1.0901674032211304 256.03997802734375 -0.12972775101661682 C 26.97926902770996 92.41606140136719 113.77009582519531 97.87101745605469 84.7500228881836 94.95042419433594" fill="rgb(4, 2, 1)" opacity="1.0" stroke-width="2.0"/>
    <path d="M 350.0521240234375 188.4933319091797 C 372.1435852050781 177.53965759277344 350.3014221191406 176.1829376220703 380.3329772949219 214.35569763183594 C 365.37115478515625 231.0489501953125 314.6135559082031 182.70469665527344 361.5963439941406 144.57269287109375 C 418.8277893066406 135.29666137695312 354.3190002441406 164.91456604003906 362.7578430175781 181.31517028808594 C 412.1898193359375 151.0670166015625 392.95037841796875 166.392333984375 411.0138854980469 208.66189575195312 C 426.3793029785156 141.87518310546875 402.9278259277344 157.2139892578125 350.0521240234375 188.4933319091797" fill="rgb(2, 1, 2)" opacity="1.0" stroke-width="2.0"/>
    <path d="M 307.72625732421875 6.279727935791016 C 295.5158996582031 131.719482421875 292.14263916015625 160.5080108642578 308.0176086425781 4.565943717956543 C 420.8975524902344 34.16405487060547 468.439208984375 91.64470672607422 508.7728576660156 192.52627563476562 C 299.1790466308594 116.24468994140625 350.50677490234375 82.63948822021484 307.72625732421875 6.279727935791016" fill="rgb(179, 158, 81)" opacity="1.0" stroke-width="2.0"/>
    <path d="M 295.1410827636719 174.3904266357422 C 298.5087585449219 187.2467803955078 299.74273681640625 187.93408203125 292.3882751464844 154.3741912841797 C 290.8667297363281 143.36708068847656 277.9251403808594 164.75146484375 290.12103271484375 140.98248291015625 C 298.0638732910156 186.3705291748047 299.1969909667969 186.90223693847656 300.1364440917969 186.221923828125 C 287.81378173828125 169.42666625976562 309.13519287109375 171.96986389160156 293.5888977050781 174.84628295898438 C 303.08447265625 177.06857299804688 310.9606628417969 183.1832275390625 295.1410827636719 174.3904266357422" fill="rgb(254, 190, 109)" opacity="1.0" stroke-width="2.0"/>
    <path d="M 21.540172576904297 284.00274658203125 C 42.26331329345703 404.33392333984375 94.0698013305664 397.0563659667969 63.6818962097168 427.275634765625 C 72.73448181152344 388.1566467285156 61.506717681884766 401.20684814453125 109.38595581054688 441.09564208984375 C 162.5709228515625 479.8354797363281 179.25411987304688 474.19891357421875 112.21652221679688 468.9235534667969 C 80.80020141601562 398.0449523925781 25.58374786376953 422.3760986328125 2.4319145679473877 297.09466552734375 C -6.510279178619385 246.13150024414062 27.63256072998047 231.17221069335938 21.540172576904297 284.00274658203125" fill="rgb(2, 1, 1)" opacity="1.0" stroke-width="2.0"/>
    <path d="M 81.58782196044922 507.40167236328125 C 78.2281494140625 503.989990234375 86.54781341552734 511.2257995605469 91.01747131347656 525.3001708984375 C 94.52173614501953 517.6522216796875 101.72193908691406 508.1290588378906 93.7975845336914 518.1724243164062 C 101.24073028564453 507.472412109375 96.19739532470703 514.019287109375 94.27278137207031 518.0782470703125 C 92.38845825195312 508.1036682128906 90.49079132080078 523.9153442382812 90.92303466796875 516.9072265625 C 83.27680206298828 528.9522094726562 94.8370590209961 524.5902099609375 81.58782196044922 507.40167236328125" fill="rgb(151, 179, 243)" opacity="1.0" stroke-width="2.0"/>
    <path d="M 50.63240432739258 413.2898254394531 C 85.82545471191406 442.0230712890625 50.95216751098633 425.552490234375 19.095056533813477 354.9215393066406 C 44.16094970703125 367.0475769042969 79.64485931396484 402.650390625 110.68158721923828 467.54412841796875 C 52.040008544921875 425.3883056640625 56.91544723510742 402.36968994140625 38.29841232299805 417.7359924316406 C 40.764713287353516 416.8101806640625 39.03016662597656 415.7519226074219 39.23281478881836 413.2503662109375 C 39.30131149291992 421.7118835449219 39.731117248535156 411.56304931640625 50.63240432739258 413.2898254394531" fill="rgb(1, 0, 1)" opacity="1.0" stroke-width="2.0"/>
    <path d="M 244.8610382080078 4.424524307250977 C 47.47264862060547 84.21834564208984 -2.321626663208008 163.28909301757812 234.82847595214844 83.46624755859375 C 247.73483276367188 204.23175048828125 79.01055145263672 209.42233276367188 64.96460723876953 116.86753845214844 C 283.16827392578125 119.07154846191406 295.1544189453125 -22.296276092529297 244.8610382080078 4.424524307250977" fill="rgb(226, 199, 97)" opacity="1.0" stroke-width="2.0"/>
    <path d="M 148.1570587158203 466.3850402832031 C 300.95843505859375 537.3168334960938 377.1845397949219 433.2723083496094 365.7801513671875 488.0016174316406 C 275.8065490722656 529.18017578125 224.14585876464844 500.3721008300781 274.6744689941406 519.4755249023438 C 188.17897033691406 500.92523193359375 175.00794982910156 514.7957763671875 145.9737548828125 463.23052978515625 C 135.0175323486328 487.07354736328125 172.7718048095703 506.192138671875 148.1570587158203 466.3850402832031" fill="rgb(1, 1, 1)" opacity="1.0" stroke-width="2.0"/>
    <path d="M 175.67160034179688 413.2617492675781 C 45.77033233642578 417.2821044921875 61.00044250488281 381.3827819824219 38.900794982910156 347.36273193359375 C 12.038138389587402 291.7793884277344 8.251710891723633 188.30494689941406 67.24478912353516 116.3864974975586 C 179.1475830078125 129.95980834960938 187.8614959716797 134.0796661376953 175.67160034179688 413.2617492675781" fill="rgb(252, 214, 108)" opacity="1.0" stroke-width="2.0"/>
    <path d="M 470.5159606933594 116.064208984375 C 527.5916748046875 203.42205810546875 512.46435546875 286.0658264160156 504.6368713378906 320.4382019042969 C 495.8412780761719 258.82464599609375 492.0489196777344 222.9421844482422 490.3727111816406 288.4544677734375 C 468.1986083984375 399.6361083984375 428.7176513671875 394.540283203125 472.64361572265625 378.08538818359375 C 519.4812622070312 308.5396423339844 508.6369934082031 358.6932373046875 470.5159606933594 116.064208984375" fill="rgb(2, 2, 0)" opacity="1.0" stroke-width="2.0"/>
    <path d="M 65.63890075683594 38.074073791503906 C 77.49691009521484 51.07410430908203 72.66371154785156 44.89617156982422 65.4493637084961 47.13338851928711 C 71.22032165527344 45.296226501464844 76.73503112792969 50.04401397705078 68.36392974853516 41.252647399902344 C 79.67718505859375 53.13819885253906 75.91653442382812 57.98746871948242 75.7776870727539 59.34558868408203 C 74.46139526367188 59.795448303222656 81.06816101074219 54.18659591674805 69.21420288085938 42.15944290161133 C 68.25882720947266 41.05327606201172 79.79610443115234 53.69611740112305 65.63890075683594 38.074073791503906" fill="rgb(255, 138, 104)" opacity="1.0" stroke-width="2.0"/>
    <path d="M 498.20306396484375 341.7084655761719 C 501.2292785644531 329.4069519042969 490.4366455078125 373.0240478515625 459.94512939453125 411.1803283691406 C 432.4484558105469 450.0987854003906 352.0660400390625 513.47412109375 325.0821533203125 485.4945068359375 C 490.42779541015625 412.2803649902344 454.1073303222656 323.5207214355469 498.20306396484375 341.7084655761719" fill="rgb(1, 0, 1)" opacity="1.0" stroke-width="2.0"/>
  </g>
</svg>
