<?xml version="1.0" ?>
<svg height="512" version="1.1" width="512" xmlns="http://www.w3.org/2000/svg">
  <defs/>
  <g>
    <path d="M 58.250064849853516 49.87893295288086 C 59.55024719238281 48.765380859375 54.57835388183594 53.11799240112305 53.94136047363281 53.720455169677734 C 37.00562286376953 68.80316925048828 31.175777435302734 72.95927429199219 32.05832290649414 72.85399627685547 C 35.54457092285156 72.53227233886719 25.951953887939453 73.72061157226562 38.920989990234375 69.56169128417969 C 30.340560913085938 72.0916519165039 22.06133460998535 82.45939636230469 58.250064849853516 49.87893295288086" fill="rgb(255, 67, 128)" opacity="1.0" stroke-width="2.0"/>
    <path d="M 186.93026733398438 508.2593078613281 C 167.79966735839844 432.51214599609375 84.94062042236328 433.9589538574219 97.9734115600586 458.1265869140625 C 139.33914184570312 487.4147644042969 126.0259780883789 475.5504455566406 89.2059097290039 466.9200744628906 C 63.50967025756836 470.6292419433594 73.43976593017578 469.1177673339844 89.0719985961914 467.2236328125 C 78.3144760131836 470.775390625 86.20355987548828 453.6744079589844 186.93026733398438 508.2593078613281" fill="rgb(91, 77, 37)" opacity="1.0" stroke-width="2.0"/>
    <path d="M 168.36831665039062 376.9803161621094 C 166.20433044433594 218.2745819091797 177.7721710205078 224.26821899414062 183.48045349121094 209.79212951660156 C 197.4654541015625 203.40174865722656 209.46005249023438 204.69448852539062 366.13519287109375 219.57400512695312 C 372.5018310546875 371.1587829589844 361.61932373046875 380.092041015625 353.8573913574219 398.24346923828125 C 186.52622985839844 390.62896728515625 177.30111694335938 394.7705993652344 168.36831665039062 376.9803161621094" fill="rgb(251, 221, 109)" opacity="1.0" stroke-width="2.0"/>
    <path d="M 423.2826843261719 185.30921936035156 C 413.048583984375 217.85804748535156 387.6214294433594 228.6201629638672 354.92559814453125 212.3218536376953 C 360.067626953125 211.41433715820312 363.79730224609375 225.07240295410156 366.1166076660156 225.2747802734375 C 355.2710876464844 214.9854278564453 350.64678955078125 195.09068298339844 382.8554382324219 199.3774871826172 C 404.999755859375 198.96820068359375 409.6444091796875 157.62869262695312 423.2826843261719 185.30921936035156" fill="rgb(25, 10, 11)" opacity="1.0" stroke-width="2.0"/>
    <path d="M 235.92791748046875 245.28683471679688 C 225.55540466308594 262.14422607421875 207.5223846435547 246.01455688476562 205.44061279296875 185.51419067382812 C 259.08245849609375 171.1129150390625 233.15875244140625 212.0289306640625 275.73834228515625 270.5567626953125 C 350.77728271484375 271.3427734375 356.6094970703125 298.8988342285156 363.9288635253906 148.62425231933594 C 226.64393615722656 135.6659393310547 239.48226928710938 158.99044799804688 235.92791748046875 245.28683471679688" fill="rgb(235, 204, 99)" opacity="1.0" stroke-width="2.0"/>
    <path d="M 412.0878601074219 152.0801544189453 C 429.19073486328125 180.83956909179688 420.54595947265625 180.1097869873047 419.9706115722656 186.69459533691406 C 417.7631530761719 177.67489624023438 415.1097412109375 150.085693359375 340.2358703613281 165.6459197998047 C 344.97857666015625 163.86758422851562 368.2913513183594 117.748291015625 412.0878601074219 152.0801544189453" fill="rgb(4, 12, 3)" opacity="1.0" stroke-width="2.0"/>
    <path d="M 299.51556396484375 53.24676513671875 C 343.4630126953125 86.75247192382812 329.3707580566406 127.17444610595703 279.2198181152344 156.0994415283203 C 267.62530517578125 171.8965301513672 252.929931640625 92.92311096191406 295.0362243652344 59.916229248046875 C 328.45062255859375 134.68572998046875 307.3781433105469 142.26438903808594 292.99603271484375 143.95730590820312 C 287.02740478515625 156.3892364501953 285.7641906738281 175.27381896972656 319.16510009765625 183.50230407714844 C 339.1216125488281 155.12400817871094 316.5010681152344 162.0610809326172 299.51556396484375 53.24676513671875" fill="rgb(255, 233, 108)" opacity="1.0" stroke-width="2.0"/>
    <path d="M 74.09176635742188 104.81800842285156 C 42.514251708984375 152.97811889648438 45.55918502807617 153.7576446533203 47.338687896728516 106.46231079101562 C 35.45854187011719 123.4166488647461 8.22178840637207 164.60243225097656 1.3963570594787598 224.62559509277344 C 57.877899169921875 211.8473663330078 42.25979232788086 151.7165069580078 48.32350158691406 104.60352325439453 C 89.43467712402344 54.36774444580078 102.55197143554688 48.42595291137695 127.58880615234375 49.00275802612305 C 43.537506103515625 126.8196029663086 85.26750183105469 136.10372924804688 74.09176635742188 104.81800842285156" fill="rgb(39, 44, 21)" opacity="1.0" stroke-width="2.0"/>
    <path d="M 344.100341796875 190.3258514404297 C 360.1418762207031 179.3430633544922 365.7557067871094 183.32130432128906 380.23583984375 217.10340881347656 C 356.9560241699219 209.04489135742188 336.8361511230469 215.32447814941406 345.1431579589844 155.4197998046875 C 396.7112731933594 153.2587432861328 344.78985595703125 186.83631896972656 366.31378173828125 179.1382293701172 C 421.6017761230469 150.93460083007812 384.2969970703125 169.05796813964844 413.3880310058594 203.8776092529297 C 423.741455078125 136.3584442138672 410.16064453125 160.1395263671875 344.100341796875 190.3258514404297" fill="rgb(22, 27, 12)" opacity="1.0" stroke-width="2.0"/>
    <path d="M 314.3271484375 50.378509521484375 C 299.7309265136719 159.04510498046875 313.5654602050781 182.48233032226562 316.7161865234375 54.05844497680664 C 381.02447509765625 71.19549560546875 372.41363525390625 79.49534606933594 370.3741149902344 139.38829040527344 C 288.0555419921875 185.10137939453125 318.55072021484375 166.97125244140625 314.3271484375 50.378509521484375" fill="rgb(253, 234, 108)" opacity="1.0" stroke-width="2.0"/>
    <path d="M 296.4831848144531 174.6700439453125 C 297.40240478515625 190.9317169189453 301.64935302734375 188.64199829101562 294.84881591796875 166.00181579589844 C 297.87176513671875 154.73114013671875 277.0388488769531 170.4707794189453 289.78607177734375 137.41610717773438 C 298.1047668457031 186.8695526123047 298.44390869140625 186.4965362548828 299.43927001953125 189.2729949951172 C 292.7772521972656 169.4957275390625 318.1500549316406 172.41038513183594 297.52642822265625 175.8665771484375 C 303.9681091308594 178.07388305664062 312.87530517578125 183.0259246826172 296.4831848144531 174.6700439453125" fill="rgb(241, 140, 108)" opacity="1.0" stroke-width="2.0"/>
    <path d="M 37.94375991821289 344.42132568359375 C 64.9892349243164 403.9102783203125 67.42610168457031 414.6142272949219 73.29533386230469 410.6408386230469 C 73.14257049560547 392.9388122558594 61.39107131958008 405.1878356933594 99.2886962890625 429.38275146484375 C 132.433349609375 461.7311706542969 132.97996520996094 479.5550231933594 103.47260284423828 462.2638854980469 C 62.24223709106445 413.84130859375 45.704158782958984 427.0044250488281 10.323102951049805 330.6344909667969 C -3.1689298152923584 310.9197082519531 33.26313781738281 301.86077880859375 37.94375991821289 344.42132568359375" fill="rgb(50, 57, 39)" opacity="1.0" stroke-width="2.0"/>
    <path d="M 81.73699188232422 506.4639587402344 C 78.34962463378906 502.80810546875 86.3377456665039 510.8454895019531 90.4276123046875 524.9785766601562 C 94.41316986083984 515.6918334960938 102.53648376464844 505.00262451171875 94.70094299316406 509.53369140625 C 100.77423095703125 505.4063720703125 95.62833404541016 512.7776489257812 93.6423110961914 517.3003540039062 C 92.388427734375 508.1036682128906 90.48917388916016 523.9136962890625 90.86370086669922 516.920166015625 C 82.9332504272461 529.2933349609375 94.59740447998047 524.7833862304688 81.73699188232422 506.4639587402344" fill="rgb(148, 175, 237)" opacity="1.0" stroke-width="2.0"/>
    <path d="M 47.860660552978516 411.3294982910156 C 82.29610443115234 437.62335205078125 56.92564392089844 433.4537048339844 20.367673873901367 358.1621398925781 C 50.033241271972656 366.9030456542969 78.86569213867188 400.7181396484375 106.68890380859375 464.6197204589844 C 49.34804916381836 420.55029296875 53.30743408203125 403.2423400878906 41.23575210571289 414.86077880859375 C 41.8655891418457 423.5892639160156 40.6141471862793 411.2843933105469 42.16705322265625 408.57061767578125 C 40.992488861083984 419.612548828125 39.85615921020508 410.57012939453125 47.860660552978516 411.3294982910156" fill="rgb(2, 3, 0)" opacity="1.0" stroke-width="2.0"/>
    <path d="M 154.32061767578125 4.935328960418701 C 72.43256378173828 59.973365783691406 67.9242935180664 164.13938903808594 205.69581604003906 105.6421127319336 C 216.531005859375 182.9763946533203 95.541748046875 187.02699279785156 110.78408813476562 127.16755676269531 C 223.37538146972656 115.17579650878906 215.15460205078125 81.36016082763672 154.32061767578125 4.935328960418701" fill="rgb(217, 187, 102)" opacity="1.0" stroke-width="2.0"/>
    <path d="M 168.45697021484375 474.3163757324219 C 278.0566711425781 517.093505859375 301.0002746582031 462.5760803222656 312.76776123046875 504.55865478515625 C 256.21588134765625 522.4138793945312 239.06617736816406 523.1666259765625 241.21990966796875 521.4478759765625 C 181.1178436279297 485.24554443359375 175.1986846923828 532.1176147460938 160.21009826660156 455.24383544921875 C 147.6529998779297 488.9837951660156 175.5496063232422 515.62744140625 168.45697021484375 474.3163757324219" fill="rgb(49, 16, 6)" opacity="1.0" stroke-width="2.0"/>
    <path d="M 199.9082794189453 309.6005554199219 C 74.36785125732422 303.9537048339844 74.94994354248047 283.9201965332031 90.74910736083984 276.03167724609375 C 66.30603790283203 284.3231201171875 61.068077087402344 193.57415771484375 92.18601989746094 184.66339111328125 C 171.91099548339844 183.83274841308594 193.65415954589844 157.9853515625 199.9082794189453 309.6005554199219" fill="rgb(255, 222, 106)" opacity="1.0" stroke-width="2.0"/>
    <path d="M 493.9802551269531 221.22410583496094 C 550.1071166992188 242.60787963867188 511.6057434082031 260.28961181640625 501.3070373535156 336.03778076171875 C 485.3537292480469 309.9383850097656 495.1057434082031 269.3924560546875 481.054443359375 326.34039306640625 C 464.9864807128906 379.6501159667969 447.85504150390625 373.4508361816406 480.8866882324219 369.9035339355469 C 523.9019165039062 314.19769287109375 474.3580627441406 354.0455322265625 493.9802551269531 221.22410583496094" fill="rgb(9, 1, 52)" opacity="1.0" stroke-width="2.0"/>
    <path d="M 62.824832916259766 41.064979553222656 C 74.55860900878906 50.831912994384766 71.92948150634766 44.114261627197266 64.25475311279297 47.19904708862305 C 72.31363677978516 43.40892028808594 74.79014587402344 51.74869918823242 65.89530181884766 42.62825012207031 C 79.38445281982422 54.349769592285156 75.85973358154297 57.057518005371094 74.65522766113281 61.08803176879883 C 73.4263687133789 61.55042266845703 81.53903198242188 55.16725540161133 67.24185943603516 44.17271041870117 C 67.57495880126953 44.577396392822266 82.03828430175781 55.28416061401367 62.824832916259766 41.064979553222656" fill="rgb(255, 134, 100)" opacity="1.0" stroke-width="2.0"/>
    <path d="M 488.1304016113281 350.341552734375 C 500.899658203125 345.3437194824219 486.855712890625 371.2772216796875 463.70074462890625 407.4599914550781 C 429.6684875488281 444.6297912597656 421.44659423828125 463.7980041503906 384.4498291015625 463.7427062988281 C 470.4637145996094 365.78338623046875 495.4627990722656 332.91943359375 488.1304016113281 350.341552734375" fill="rgb(11, 11, 7)" opacity="1.0" stroke-width="2.0"/>
  </g>
</svg>
