<?xml version="1.0" ?>
<svg height="512" version="1.1" width="512" xmlns="http://www.w3.org/2000/svg">
  <defs/>
  <g>
    <path d="M 58.15879440307617 49.7872314453125 C 59.34355163574219 48.4589958190918 54.40146255493164 53.00383758544922 53.82129669189453 53.641849517822266 C 36.853084564208984 68.6309814453125 30.807554244995117 72.80394744873047 32.15761947631836 72.72064208984375 C 35.09987258911133 72.56053161621094 26.25083351135254 73.99085235595703 39.64510726928711 70.0949478149414 C 29.656845092773438 71.78466033935547 21.624601364135742 82.28009796142578 58.15879440307617 49.7872314453125" fill="rgb(255, 66, 127)" opacity="1.0" stroke-width="2.0"/>
    <path d="M 184.28900146484375 506.00469970703125 C 167.85177612304688 432.1526184082031 89.12487030029297 434.2132568359375 98.72069549560547 458.7348937988281 C 132.3555145263672 485.2322692871094 118.80120086669922 474.7385559082031 90.19984436035156 468.7513732910156 C 63.44003677368164 472.18634033203125 73.56797790527344 473.05413818359375 85.29708099365234 469.0736389160156 C 73.68213653564453 471.42645263671875 85.40260314941406 455.11871337890625 184.28900146484375 506.00469970703125" fill="rgb(87, 97, 49)" opacity="1.0" stroke-width="2.0"/>
    <path d="M 181.56356811523438 361.14227294921875 C 177.5863494873047 225.519287109375 188.584716796875 233.4502716064453 195.71832275390625 223.83636474609375 C 207.87274169921875 217.73681640625 214.46311950683594 215.71607971191406 351.6128234863281 225.1040802001953 C 358.5882263183594 359.1148376464844 347.8388366699219 368.4654541015625 339.4203186035156 383.5262145996094 C 197.79234313964844 375.6918029785156 188.44068908691406 379.9850769042969 181.56356811523438 361.14227294921875" fill="rgb(253, 222, 111)" opacity="1.0" stroke-width="2.0"/>
    <path d="M 423.3756103515625 187.27157592773438 C 408.0435485839844 217.99232482910156 394.52020263671875 227.43296813964844 352.4704284667969 213.306884765625 C 358.51202392578125 213.57647705078125 363.00201416015625 226.4447784423828 365.4395751953125 224.43008422851562 C 354.4301452636719 217.22637939453125 350.99383544921875 206.490966796875 377.693115234375 200.95376586914062 C 409.442626953125 195.90615844726562 412.5684814453125 160.51953125 423.3756103515625 187.27157592773438" fill="rgb(37, 9, 18)" opacity="1.0" stroke-width="2.0"/>
    <path d="M 242.0399169921875 256.7462463378906 C 232.30755615234375 255.46713256835938 222.9612274169922 232.5625 219.288818359375 195.96817016601562 C 257.7725524902344 184.332275390625 243.7327423095703 219.3815460205078 283.1813049316406 269.44610595703125 C 345.2496643066406 268.7923889160156 347.93988037109375 290.46661376953125 357.0394287109375 158.74009704589844 C 241.2168731689453 149.79762268066406 253.8232879638672 175.06361389160156 242.0399169921875 256.7462463378906" fill="rgb(254, 212, 109)" opacity="1.0" stroke-width="2.0"/>
    <path d="M 412.25286865234375 151.61199951171875 C 428.8701477050781 181.95120239257812 423.42657470703125 177.4768524169922 419.32733154296875 181.69639587402344 C 419.2207946777344 177.65895080566406 416.11065673828125 152.74549865722656 339.7996826171875 166.3367156982422 C 345.5160217285156 163.01211547851562 366.7481384277344 118.21785736083984 412.25286865234375 151.61199951171875" fill="rgb(16, 21, 4)" opacity="1.0" stroke-width="2.0"/>
    <path d="M 303.75146484375 68.44603729248047 C 335.6588134765625 100.72229766845703 325.6156311035156 130.71224975585938 293.17645263671875 147.92483520507812 C 284.8539733886719 160.35284423828125 269.95098876953125 110.06002807617188 304.2363586425781 77.4012680053711 C 322.6996765136719 136.79205322265625 305.1776123046875 147.56759643554688 296.106689453125 143.31358337402344 C 291.5587463378906 156.27215576171875 290.0545654296875 174.50827026367188 316.55938720703125 184.4145965576172 C 333.9512023925781 158.1707305908203 316.55731201171875 162.02023315429688 303.75146484375 68.44603729248047" fill="rgb(241, 223, 111)" opacity="1.0" stroke-width="2.0"/>
    <path d="M 72.49517059326172 108.81600189208984 C 44.40436553955078 144.90634155273438 52.26528549194336 145.99644470214844 48.97926330566406 104.53982543945312 C 35.181488037109375 122.66533660888672 9.489104270935059 165.7496795654297 3.1985397338867188 213.6820526123047 C 72.65536499023438 203.8070831298828 49.9342155456543 156.35630798339844 48.56737518310547 110.13626861572266 C 74.42322540283203 57.16069412231445 99.56219482421875 57.951568603515625 118.72427368164062 59.55216979980469 C 44.9592399597168 126.9479751586914 86.71210479736328 147.88662719726562 72.49517059326172 108.81600189208984" fill="rgb(67, 60, 29)" opacity="1.0" stroke-width="2.0"/>
    <path d="M 341.31329345703125 190.75555419921875 C 357.7834167480469 179.1578826904297 371.76922607421875 183.27540588378906 376.5637512207031 214.18026733398438 C 354.1854248046875 208.4450225830078 339.4670715332031 217.21978759765625 342.66217041015625 154.47300720214844 C 387.40576171875 155.01791381835938 348.25457763671875 185.61337280273438 370.3591003417969 178.3749542236328 C 414.9870300292969 154.80711364746094 385.0339050292969 169.4893341064453 419.4457702636719 203.7435302734375 C 425.1502990722656 137.64198303222656 411.6095275878906 161.8750457763672 341.31329345703125 190.75555419921875" fill="rgb(51, 48, 27)" opacity="1.0" stroke-width="2.0"/>
    <path d="M 315.2247009277344 65.27503967285156 C 305.82879638671875 155.58602905273438 315.1478271484375 175.4183349609375 318.2009582519531 71.61380004882812 C 364.6224670410156 88.83882141113281 355.17376708984375 96.04724884033203 365.69622802734375 150.0775604248047 C 295.7326965332031 175.5764923095703 321.0686340332031 157.28565979003906 315.2247009277344 65.27503967285156" fill="rgb(245, 209, 107)" opacity="1.0" stroke-width="2.0"/>
    <path d="M 299.38580322265625 176.24600219726562 C 296.74884033203125 193.9884033203125 302.4573669433594 189.94264221191406 298.4770202636719 170.15000915527344 C 293.4288330078125 164.34791564941406 278.2619323730469 177.8966064453125 295.2720642089844 141.77015686035156 C 299.3674011230469 185.46290588378906 297.7823486328125 185.7448272705078 300.1893615722656 189.96539306640625 C 294.8228759765625 170.9296417236328 321.338134765625 173.8237762451172 300.622314453125 177.32191467285156 C 305.715576171875 177.14984130859375 314.33050537109375 183.33277893066406 299.38580322265625 176.24600219726562" fill="rgb(228, 117, 110)" opacity="1.0" stroke-width="2.0"/>
    <path d="M 50.79607391357422 354.72894287109375 C 63.73210525512695 405.2234802246094 63.30250549316406 417.1057434082031 76.03736877441406 406.5941467285156 C 73.77532958984375 392.33880615234375 59.65523910522461 405.8460998535156 103.42042541503906 423.2501525878906 C 130.9015350341797 459.2484436035156 131.59274291992188 476.6766052246094 99.30355834960938 460.05120849609375 C 63.46898651123047 412.5379638671875 53.95060729980469 419.8385314941406 11.302091598510742 339.721923828125 C 4.644721508026123 323.8984375 38.59032440185547 315.0961608886719 50.79607391357422 354.72894287109375" fill="rgb(86, 81, 63)" opacity="1.0" stroke-width="2.0"/>
    <path d="M 81.73760986328125 506.3258056640625 C 78.24463653564453 502.701416015625 86.28020477294922 510.8004455566406 90.21000671386719 524.7692260742188 C 93.88933563232422 515.2195434570312 102.1829605102539 504.4837341308594 94.95845794677734 507.57373046875 C 100.94121551513672 504.7434997558594 95.56803131103516 512.3883666992188 93.51048278808594 517.072021484375 C 92.3883285522461 508.1036071777344 90.48622131347656 523.9102783203125 90.87250518798828 516.9122924804688 C 82.95748901367188 529.2772827148438 94.64830780029297 524.7474365234375 81.73760986328125 506.3258056640625" fill="rgb(147, 174, 236)" opacity="1.0" stroke-width="2.0"/>
    <path d="M 46.92528533935547 411.70953369140625 C 80.53755950927734 436.28594970703125 57.91065216064453 433.2934875488281 21.30686378479004 360.6748962402344 C 51.340049743652344 369.6893005371094 77.64248657226562 400.23150634765625 103.59429931640625 462.7616271972656 C 50.93220520019531 418.3229675292969 48.74538803100586 405.2423095703125 40.513553619384766 414.38897705078125 C 41.007171630859375 423.7261657714844 40.35563278198242 410.2054443359375 39.6207160949707 408.1642761230469 C 41.73474884033203 420.39306640625 40.71064758300781 409.456787109375 46.92528533935547 411.70953369140625" fill="rgb(0, 0, 0)" opacity="1.0" stroke-width="2.0"/>
    <path d="M 143.86383056640625 15.892736434936523 C 80.3174819946289 62.61803436279297 79.01200866699219 148.76629638671875 193.02943420410156 103.41384887695312 C 200.79310607910156 165.95623779296875 107.33229064941406 169.92694091796875 125.96065521240234 121.31336975097656 C 205.70643615722656 102.8591079711914 197.80003356933594 98.385009765625 143.86383056640625 15.892736434936523" fill="rgb(214, 216, 90)" opacity="1.0" stroke-width="2.0"/>
    <path d="M 170.07052612304688 477.4991455078125 C 266.2971496582031 504.99017333984375 290.1100769042969 452.23614501953125 301.552001953125 507.2406921386719 C 256.7176513671875 523.4973754882812 239.1522674560547 523.410400390625 236.32208251953125 520.2196044921875 C 183.0496368408203 485.3061218261719 176.6177978515625 536.7999877929688 161.62916564941406 455.1023254394531 C 149.00018310546875 488.1893005371094 177.04869079589844 514.999755859375 170.07052612304688 477.4991455078125" fill="rgb(79, 40, 23)" opacity="1.0" stroke-width="2.0"/>
    <path d="M 189.1391143798828 293.0843811035156 C 89.32853698730469 286.7331848144531 90.87931823730469 266.9730529785156 108.39505004882812 262.46771240234375 C 83.9131088256836 271.3059387207031 78.598388671875 207.31309509277344 109.23280334472656 202.2045440673828 C 154.92300415039062 201.31439208984375 178.5682373046875 174.3473358154297 189.1391143798828 293.0843811035156" fill="rgb(255, 223, 112)" opacity="1.0" stroke-width="2.0"/>
    <path d="M 494.33746337890625 235.1381378173828 C 542.8677368164062 250.0226287841797 511.2874450683594 263.9259948730469 501.7696228027344 335.98065185546875 C 484.4028015136719 314.7521057128906 494.92926025390625 274.50054931640625 480.2529602050781 328.86383056640625 C 465.4957580566406 376.2052307128906 451.7264709472656 370.0611572265625 481.8526916503906 369.4488525390625 C 522.4595947265625 315.1261291503906 473.0391845703125 349.9559020996094 494.33746337890625 235.1381378173828" fill="rgb(9, 2, 76)" opacity="1.0" stroke-width="2.0"/>
    <path d="M 62.57541275024414 41.17628479003906 C 74.17874908447266 50.71308135986328 73.20970153808594 43.41161346435547 64.12150573730469 47.56830596923828 C 72.14835357666016 43.737491607666016 75.269775390625 51.819679260253906 66.04682922363281 42.268768310546875 C 79.51978302001953 54.41056823730469 75.78946685791016 56.53670120239258 75.27806854248047 61.27122116088867 C 73.58309173583984 61.76381301879883 81.80632019042969 55.28038787841797 67.30390930175781 44.16750717163086 C 67.2170639038086 45.20146942138672 81.95902252197266 55.43953323364258 62.57541275024414 41.17628479003906" fill="rgb(255, 133, 100)" opacity="1.0" stroke-width="2.0"/>
    <path d="M 489.01153564453125 351.73638916015625 C 499.61572265625 346.2786560058594 486.60479736328125 371.56109619140625 464.5991516113281 406.6354064941406 C 432.1320495605469 441.82989501953125 432.2030029296875 455.0269470214844 396.8906555175781 454.7030334472656 C 466.0613708496094 363.5794677734375 498.0555725097656 334.3733825683594 489.01153564453125 351.73638916015625" fill="rgb(25, 1, 3)" opacity="1.0" stroke-width="2.0"/>
  </g>
</svg>
