<?xml version="1.0" ?>
<svg height="512" version="1.1" width="512" xmlns="http://www.w3.org/2000/svg">
  <defs/>
  <g>
    <path d="M 59.242218017578125 51.69688034057617 C 56.98017120361328 53.72797775268555 53.800533294677734 56.291297912597656 55.076255798339844 55.305564880371094 C 38.207252502441406 70.0824203491211 34.132144927978516 74.31742858886719 36.55299377441406 71.87576293945312 C 37.479312896728516 70.70994567871094 32.70417404174805 75.392822265625 38.058650970458984 69.84188842773438 C 37.814720153808594 70.77565002441406 24.830259323120117 82.03425598144531 59.242218017578125 51.69688034057617" fill="rgb(255, 104, 170)" opacity="1.0" stroke-width="2.0"/>
    <path d="M 182.8983612060547 502.6319580078125 C 158.69583129882812 440.9639587402344 77.21527099609375 437.7232971191406 109.6119613647461 466.7510070800781 C 156.2021484375 496.59307861328125 164.64111328125 492.85260009765625 90.5444107055664 468.0496826171875 C 68.52088165283203 466.5796203613281 82.1155014038086 467.80926513671875 88.47100830078125 467.92620849609375 C 89.98780059814453 469.2412414550781 74.4513168334961 460.13006591796875 182.8983612060547 502.6319580078125" fill="rgb(1, 1, 1)" opacity="1.0" stroke-width="2.0"/>
    <path d="M 65.9426040649414 409.9729919433594 C 111.93451690673828 167.5321807861328 138.7418975830078 141.63150024414062 232.0137939453125 130.90953063964844 C 171.0511016845703 218.41114807128906 68.88778686523438 210.7379913330078 480.8287658691406 128.4142303466797 C 520.0100708007812 459.4697265625 459.8130187988281 382.48748779296875 365.6922607421875 485.3935546875 C 156.29251098632812 504.8474426269531 157.416015625 479.39923095703125 65.9426040649414 409.9729919433594" fill="rgb(252, 220, 111)" opacity="1.0" stroke-width="2.0"/>
    <path d="M 422.1567687988281 180.85667419433594 C 420.54449462890625 215.41883850097656 380.93487548828125 232.32484436035156 354.8858642578125 209.1856231689453 C 358.3067321777344 204.50439453125 361.4418029785156 216.01744079589844 364.61468505859375 223.2784423828125 C 357.3191223144531 205.97317504882812 343.9575500488281 181.91177368164062 375.7576904296875 199.26992797851562 C 413.18548583984375 206.4783172607422 396.7625427246094 150.01121520996094 422.1567687988281 180.85667419433594" fill="rgb(2, 1, 2)" opacity="1.0" stroke-width="2.0"/>
    <path d="M 253.30331420898438 187.97657775878906 C 222.91392517089844 267.2837219238281 113.14752197265625 181.56832885742188 215.65403747558594 128.7319793701172 C 161.9843292236328 212.36251831054688 220.65042114257812 224.82264709472656 276.6322021484375 149.67620849609375 C 350.8443603515625 153.4385528564453 363.0838317871094 208.81881713867188 359.0293884277344 144.54026794433594 C 159.36183166503906 132.42796325683594 184.73951721191406 138.4187469482422 253.30331420898438 187.97657775878906" fill="rgb(6, 5, 6)" opacity="1.0" stroke-width="2.0"/>
    <path d="M 410.8861083984375 151.8941650390625 C 429.6038818359375 171.67286682128906 421.2273254394531 198.40174865722656 412.3553161621094 200.69375610351562 C 400.1214294433594 179.18972778320312 404.1219177246094 140.05947875976562 351.048828125 171.8053741455078 C 338.5966491699219 164.82614135742188 377.1074523925781 119.23358917236328 410.8861083984375 151.8941650390625" fill="rgb(1, 1, 2)" opacity="1.0" stroke-width="2.0"/>
    <path d="M 299.2718200683594 12.012264251708984 C 411.6922607421875 54.579227447509766 348.1810302734375 100.62342834472656 241.55938720703125 149.91915893554688 C 162.12066650390625 114.21118927001953 164.88455200195312 44.14561462402344 232.75340270996094 -4.678101062774658 C 426.98272705078125 38.977699279785156 370.6291198730469 90.27318572998047 239.26100158691406 150.8776397705078 C 261.7227478027344 154.89794921875 252.494873046875 287.932861328125 365.7372741699219 144.50082397460938 C 541.5064697265625 147.55599975585938 463.47344970703125 97.24175262451172 299.2718200683594 12.012264251708984" fill="rgb(251, 221, 109)" opacity="1.0" stroke-width="2.0"/>
    <path d="M 98.73733520507812 80.21330261230469 C 24.9137020111084 149.07901000976562 52.180362701416016 217.16087341308594 47.42355728149414 106.46333312988281 C 38.76692581176758 120.1683578491211 -6.936652660369873 179.0499267578125 -0.0003233589231967926 279.0395202636719 C 45.35734176635742 279.087890625 50.223289489746094 154.194091796875 47.29985809326172 110.32305908203125 C 74.02275848388672 51.6375846862793 212.5345458984375 -31.1492862701416 278.8977355957031 15.195590019226074 C 40.44247817993164 39.78327178955078 188.9542999267578 104.53768157958984 98.73733520507812 80.21330261230469" fill="rgb(3, 2, 2)" opacity="1.0" stroke-width="2.0"/>
    <path d="M 349.4498596191406 185.229248046875 C 375.80517578125 171.21450805664062 347.677978515625 183.0701904296875 378.1314697265625 202.03030395507812 C 352.3591003417969 240.35206604003906 312.77423095703125 154.8495330810547 377.3671569824219 139.6123504638672 C 434.1880187988281 142.9701385498047 360.0518493652344 154.19300842285156 362.50537109375 178.29298400878906 C 416.782958984375 149.9640350341797 396.56683349609375 162.99945068359375 404.37115478515625 209.52891540527344 C 425.17578125 143.11764526367188 401.35723876953125 157.46524047851562 349.4498596191406 185.229248046875" fill="rgb(1, 1, 2)" opacity="1.0" stroke-width="2.0"/>
    <path d="M 311.635498046875 23.513498306274414 C 290.2961730957031 118.28651428222656 283.959228515625 146.2902374267578 314.771484375 9.479887008666992 C 404.7657775878906 23.000652313232422 484.7812194824219 102.76118469238281 494.48297119140625 189.75656127929688 C 456.1195373535156 152.31678771972656 455.50750732421875 74.49983215332031 311.635498046875 23.513498306274414" fill="rgb(24, 22, 18)" opacity="1.0" stroke-width="2.0"/>
    <path d="M 295.3428039550781 174.41836547851562 C 298.9134826660156 187.22299194335938 299.88494873046875 188.01150512695312 293.2666015625 150.6650848388672 C 265.8210754394531 135.82460021972656 251.845947265625 144.69699096679688 296.6797790527344 120.53343200683594 C 299.3726806640625 185.70233154296875 298.66754150390625 186.96649169921875 300.01495361328125 186.28500366210938 C 288.0085144042969 169.64163208007812 308.6996154785156 172.01046752929688 294.03912353515625 174.7588653564453 C 303.02734375 176.89077758789062 310.9585876464844 183.11318969726562 295.3428039550781 174.41836547851562" fill="rgb(253, 223, 108)" opacity="1.0" stroke-width="2.0"/>
    <path d="M 22.165117263793945 285.148681640625 C 41.11501693725586 401.73089599609375 93.92404174804688 398.91229248046875 64.54776000976562 429.0524597167969 C 73.50931549072266 386.3153076171875 60.95787048339844 402.0281982421875 110.7690658569336 441.777099609375 C 163.88978576660156 482.4669494628906 186.78570556640625 470.4181213378906 112.08946990966797 469.1002197265625 C 81.89646911621094 403.1387634277344 23.991090774536133 417.0299987792969 2.781038522720337 298.01287841796875 C -6.129208087921143 245.27716064453125 19.806394577026367 231.22842407226562 22.165117263793945 285.148681640625" fill="rgb(2, 0, 1)" opacity="1.0" stroke-width="2.0"/>
    <path d="M 83.6501693725586 513.0988159179688 C 80.87354278564453 509.4330139160156 85.81781005859375 514.8899536132812 89.60499572753906 527.988037109375 C 94.52173614501953 517.6522216796875 101.721923828125 508.1291809082031 93.79763793945312 518.1727294921875 C 101.24073028564453 507.472412109375 96.19739532470703 514.019287109375 94.27278137207031 518.0782470703125 C 92.38845825195312 508.1036682128906 90.49079132080078 523.9153442382812 90.88126373291016 516.9232788085938 C 82.63579559326172 529.7105712890625 92.82927703857422 526.75048828125 83.6501693725586 513.0988159179688" fill="rgb(159, 187, 255)" opacity="1.0" stroke-width="2.0"/>
    <path d="M 52.614749908447266 414.83563232421875 C 84.18428039550781 442.74188232421875 46.54715347290039 418.61407470703125 18.767995834350586 354.267822265625 C 43.634307861328125 366.7298889160156 79.42572021484375 403.3146057128906 111.49351501464844 468.0274963378906 C 53.17115020751953 427.41094970703125 57.518436431884766 401.78350830078125 36.91365432739258 418.2226257324219 C 44.31770706176758 412.064208984375 38.2320442199707 419.3623046875 38.152488708496094 415.1689453125 C 38.09471130371094 420.5387878417969 43.128597259521484 409.32275390625 52.614749908447266 414.83563232421875" fill="rgb(0, 0, 1)" opacity="1.0" stroke-width="2.0"/>
    <path d="M 245.55099487304688 19.27712631225586 C 55.95926284790039 38.99478530883789 6.706672191619873 207.685791015625 241.56948852539062 85.66070556640625 C 247.76950073242188 172.0224151611328 53.243560791015625 168.21250915527344 63.932247161865234 138.5618896484375 C 275.2591552734375 119.40716552734375 296.8545227050781 8.236078262329102 245.55099487304688 19.27712631225586" fill="rgb(252, 222, 108)" opacity="1.0" stroke-width="2.0"/>
    <path d="M 146.81686401367188 465.6870422363281 C 299.64593505859375 538.8609008789062 386.6705017089844 430.0953674316406 368.5572814941406 486.5354309082031 C 285.67498779296875 527.59130859375 213.57940673828125 503.3335876464844 282.74725341796875 518.890380859375 C 190.03799438476562 504.0699768066406 170.08456420898438 511.53125 145.8625946044922 464.6196594238281 C 135.05194091796875 487.1107177734375 171.3935089111328 507.60748291015625 146.81686401367188 465.6870422363281" fill="rgb(1, 0, 1)" opacity="1.0" stroke-width="2.0"/>
    <path d="M 155.3909454345703 424.88494873046875 C 69.22234344482422 424.2886047363281 60.64453125 388.8636169433594 42.00809097290039 354.9986572265625 C 9.955238342285156 288.7412414550781 3.8309929370880127 178.0012664794922 88.03429412841797 90.29608917236328 C 184.46737670898438 115.91768646240234 176.1820068359375 127.37366485595703 155.3909454345703 424.88494873046875" fill="rgb(252, 212, 108)" opacity="1.0" stroke-width="2.0"/>
    <path d="M 445.2045593261719 82.44005584716797 C 536.4217529296875 183.34661865234375 509.6329650878906 299.5579528808594 506.0830383300781 312.1592102050781 C 510.8054504394531 269.7624206542969 477.8726501464844 174.63372802734375 490.3749084472656 226.1211700439453 C 503.62933349609375 361.45538330078125 417.69195556640625 403.3341064453125 475.3099365234375 380.94866943359375 C 510.46661376953125 312.9772644042969 532.985107421875 325.69134521484375 445.2045593261719 82.44005584716797" fill="rgb(0, 0, 0)" opacity="1.0" stroke-width="2.0"/>
    <path d="M 66.62469482421875 39.13460922241211 C 76.74684143066406 50.987789154052734 72.62846374511719 42.99045181274414 70.58979797363281 46.916221618652344 C 72.21604919433594 43.97065353393555 74.26187133789062 48.35124206542969 69.83141326904297 41.1436767578125 C 78.27816772460938 53.48943328857422 73.74413299560547 57.93179702758789 72.89879608154297 50.87363052368164 C 73.96348571777344 57.58685302734375 78.07666778564453 54.073997497558594 70.52192687988281 42.125572204589844 C 69.3431396484375 40.551021575927734 77.01622009277344 51.66734313964844 66.62469482421875 39.13460922241211" fill="rgb(255, 149, 114)" opacity="1.0" stroke-width="2.0"/>
    <path d="M 500.4375915527344 336.03497314453125 C 500.6347961425781 330.0957336425781 491.4768371582031 372.3895263671875 458.3940734863281 413.3704833984375 C 429.9300842285156 453.04791259765625 345.3779602050781 517.1054077148438 323.3347473144531 483.23883056640625 C 475.8477783203125 429.3843078613281 465.5602722167969 313.66259765625 500.4375915527344 336.03497314453125" fill="rgb(1, 0, 1)" opacity="1.0" stroke-width="2.0"/>
  </g>
</svg>
