<?xml version="1.0" ?>
<svg height="512" version="1.1" width="512" xmlns="http://www.w3.org/2000/svg">
  <defs/>
  <g>
    <path d="M 58.0898323059082 49.63304138183594 C 59.51287078857422 48.480857849121094 54.45279312133789 53.087974548339844 53.60115051269531 53.51444625854492 C 36.76740264892578 68.54462432861328 30.0624942779541 72.79241943359375 31.516830444335938 72.9459457397461 C 33.76647186279297 71.94652557373047 26.529239654541016 74.26850128173828 40.37370300292969 70.49173736572266 C 29.450950622558594 70.99824523925781 21.441043853759766 82.18147277832031 58.0898323059082 49.63304138183594" fill="rgb(255, 65, 126)" opacity="1.0" stroke-width="2.0"/>
    <path d="M 177.6978759765625 499.9476013183594 C 164.61390686035156 434.918212890625 96.3695297241211 438.7723083496094 104.70806121826172 461.1925048828125 C 121.9074935913086 481.61529541015625 105.38467407226562 478.0335998535156 87.9018783569336 471.9676818847656 C 63.736900329589844 474.6439514160156 73.31279754638672 474.1251220703125 82.47291564941406 472.1646728515625 C 69.34886932373047 474.3927917480469 77.56546783447266 461.88818359375 177.6978759765625 499.9476013183594" fill="rgb(71, 127, 56)" opacity="1.0" stroke-width="2.0"/>
    <path d="M 195.51626586914062 346.0310363769531 C 192.11004638671875 236.06268310546875 203.14401245117188 244.9101104736328 208.9574737548828 235.68295288085938 C 218.38604736328125 230.1951904296875 221.0026397705078 225.91195678710938 337.8803405761719 230.74830627441406 C 345.0198059082031 347.00323486328125 334.3681640625 356.77252197265625 326.0865783691406 369.1065673828125 C 209.49700927734375 361.09051513671875 200.0178680419922 365.5316467285156 195.51626586914062 346.0310363769531" fill="rgb(253, 222, 101)" opacity="1.0" stroke-width="2.0"/>
    <path d="M 428.3486022949219 187.89901733398438 C 399.09429931640625 218.93051147460938 399.18426513671875 230.80670166015625 355.56512451171875 212.4884490966797 C 354.8385925292969 215.97235107421875 362.6841125488281 226.55812072753906 364.9966125488281 224.92373657226562 C 354.4903564453125 219.2499237060547 352.02197265625 212.69992065429688 374.56036376953125 200.7880859375 C 412.0387268066406 193.63926696777344 415.5174560546875 163.44989013671875 428.3486022949219 187.89901733398438" fill="rgb(54, 13, 30)" opacity="1.0" stroke-width="2.0"/>
    <path d="M 249.84872436523438 263.8006591796875 C 240.162353515625 247.94728088378906 237.47120666503906 221.4497833251953 235.16065979003906 211.557373046875 C 264.5026550292969 197.8077392578125 255.2633514404297 222.60452270507812 289.913330078125 267.1898193359375 C 337.1399841308594 263.1016540527344 335.8921203613281 277.96441650390625 345.1687316894531 172.79660034179688 C 254.6256103515625 164.45413208007812 267.2602844238281 190.13052368164062 249.84872436523438 263.8006591796875" fill="rgb(254, 222, 103)" opacity="1.0" stroke-width="2.0"/>
    <path d="M 410.7596130371094 150.45704650878906 C 426.366455078125 183.20884704589844 424.4251403808594 177.00741577148438 419.8663635253906 179.9602813720703 C 419.82147216796875 176.4921875 416.7626647949219 154.75048828125 340.7875061035156 166.1327362060547 C 347.14111328125 163.6372833251953 366.49395751953125 118.3058853149414 410.7596130371094 150.45704650878906" fill="rgb(40, 35, 18)" opacity="1.0" stroke-width="2.0"/>
    <path d="M 308.79730224609375 82.5772933959961 C 324.1125183105469 114.53144836425781 318.7582092285156 137.74832153320312 301.22882080078125 138.35951232910156 C 300.22943115234375 147.22723388671875 285.3797607421875 121.0335922241211 305.0871887207031 93.28897857666016 C 312.2150573730469 134.30001831054688 301.57220458984375 143.76463317871094 304.4112548828125 148.64813232421875 C 302.2376708984375 156.7804718017578 299.9602966308594 173.4457550048828 311.7215881347656 185.44705200195312 C 323.7529296875 161.85289001464844 314.53045654296875 163.8539276123047 308.79730224609375 82.5772933959961" fill="rgb(199, 183, 100)" opacity="1.0" stroke-width="2.0"/>
    <path d="M 69.2088623046875 110.02083587646484 C 55.060691833496094 152.08401489257812 58.01966857910156 145.0476837158203 47.50788879394531 107.37544250488281 C 34.94097137451172 122.41436004638672 10.808086395263672 166.5345458984375 5.742480754852295 202.31040954589844 C 82.8265151977539 194.74569702148438 57.630706787109375 157.17359924316406 48.544036865234375 110.30986022949219 C 61.74467849731445 64.82474517822266 98.92791748046875 70.39722442626953 103.83980560302734 73.32096099853516 C 52.489566802978516 135.50784301757812 85.42396545410156 156.19003295898438 69.2088623046875 110.02083587646484" fill="rgb(83, 77, 42)" opacity="1.0" stroke-width="2.0"/>
    <path d="M 338.93548583984375 191.1798095703125 C 356.6624450683594 179.99522399902344 376.44781494140625 183.88912963867188 372.4620056152344 212.20741271972656 C 350.9886779785156 208.54965209960938 341.1632385253906 218.93789672851562 342.0193176269531 154.36871337890625 C 379.708984375 157.6089630126953 355.41156005859375 185.20086669921875 372.9541320800781 177.1357879638672 C 405.174072265625 161.3142547607422 387.4158630371094 171.2812042236328 425.51263427734375 202.04412841796875 C 426.9287109375 138.84437561035156 412.5429382324219 163.35879516601562 338.93548583984375 191.1798095703125" fill="rgb(77, 70, 46)" opacity="1.0" stroke-width="2.0"/>
    <path d="M 319.4974670410156 78.3429946899414 C 315.0616455078125 147.73435974121094 318.5470886230469 163.96324157714844 322.2569885253906 88.03624725341797 C 349.09698486328125 105.3778305053711 339.1596984863281 112.16250610351562 353.3717041015625 143.10690307617188 C 308.7005310058594 159.7566680908203 324.9158020019531 141.74217224121094 319.4974670410156 78.3429946899414" fill="rgb(255, 167, 110)" opacity="1.0" stroke-width="2.0"/>
    <path d="M 298.8699035644531 179.8324432373047 C 296.656005859375 198.23846435546875 304.8115234375 192.54745483398438 302.1017150878906 172.5404510498047 C 298.46527099609375 168.13278198242188 287.7867736816406 181.59368896484375 298.221923828125 153.8017578125 C 298.2977600097656 184.8909912109375 298.9994201660156 183.9651641845703 300.6154479980469 191.04539489746094 C 297.5828552246094 176.20558166503906 325.34033203125 177.44955444335938 301.72528076171875 177.7775421142578 C 307.627197265625 175.94688415527344 315.61773681640625 183.26734924316406 298.8699035644531 179.8324432373047" fill="rgb(216, 99, 104)" opacity="1.0" stroke-width="2.0"/>
    <path d="M 54.95139694213867 366.3181457519531 C 65.70592498779297 404.4588928222656 63.32114028930664 416.9518127441406 75.9339370727539 405.5605163574219 C 76.31779479980469 391.7841491699219 65.95558166503906 403.2610778808594 101.34796142578125 417.65570068359375 C 125.46981048583984 455.4405212402344 127.2171401977539 470.732421875 91.02149963378906 455.6131591796875 C 63.309600830078125 412.87921142578125 55.93014907836914 417.9266052246094 15.856489181518555 350.1807556152344 C 15.360808372497559 336.930908203125 40.2467155456543 327.9947509765625 54.95139694213867 366.3181457519531" fill="rgb(86, 109, 94)" opacity="1.0" stroke-width="2.0"/>
    <path d="M 81.50746154785156 506.35772705078125 C 78.4241714477539 502.29400634765625 86.58492279052734 510.4165954589844 90.27587127685547 524.1998291015625 C 93.29718017578125 514.6367797851562 101.8691635131836 503.9926452636719 95.6910171508789 507.5911560058594 C 100.93679809570312 504.5568542480469 95.50369262695312 512.1989135742188 93.41088104248047 516.8805541992188 C 92.38804626464844 508.1032409667969 90.47794342041016 523.9009399414062 90.89063262939453 516.8925170898438 C 82.94241333007812 529.3182983398438 94.56110382080078 524.8655395507812 81.50746154785156 506.35772705078125" fill="rgb(146, 174, 234)" opacity="1.0" stroke-width="2.0"/>
    <path d="M 46.68502426147461 412.4602355957031 C 78.49693298339844 433.7815856933594 58.646915435791016 433.0710754394531 22.798171997070312 363.659423828125 C 54.99806594848633 372.16705322265625 78.24066925048828 397.6206970214844 98.79277038574219 459.659912109375 C 52.554744720458984 416.5776062011719 45.37067794799805 406.2329406738281 40.054786682128906 413.6111755371094 C 41.340206146240234 423.94476318359375 40.1934700012207 409.6595764160156 39.893802642822266 406.99407958984375 C 41.107200622558594 418.1513977050781 37.45840072631836 408.28546142578125 46.68502426147461 412.4602355957031" fill="rgb(2, 0, 2)" opacity="1.0" stroke-width="2.0"/>
    <path d="M 153.21612548828125 32.4395751953125 C 96.60205078125 78.54743957519531 95.17264556884766 137.48455810546875 181.79083251953125 98.9739990234375 C 186.32920837402344 149.7686004638672 120.76738739013672 153.6437530517578 140.05352783203125 112.2773666381836 C 189.54391479492188 98.04100799560547 181.23007202148438 113.84429168701172 153.21612548828125 32.4395751953125" fill="rgb(246, 215, 110)" opacity="1.0" stroke-width="2.0"/>
    <path d="M 176.65708923339844 474.0588073730469 C 258.2064514160156 493.5287170410156 280.39947509765625 448.69622802734375 290.2086181640625 508.0382385253906 C 256.13775634765625 522.9202270507812 238.97622680664062 523.2312622070312 230.6565704345703 526.0286865234375 C 192.17144775390625 487.5775146484375 184.03311157226562 528.8551025390625 162.86659240722656 455.30908203125 C 151.26707458496094 495.68829345703125 177.2565155029297 520.4105834960938 176.65708923339844 474.0588073730469" fill="rgb(97, 68, 40)" opacity="1.0" stroke-width="2.0"/>
    <path d="M 172.83639526367188 276.8442077636719 C 104.1268310546875 270.1580505371094 106.14053344726562 252.37124633789062 124.91075134277344 251.6484375 C 100.56137084960938 259.43304443359375 95.22789764404297 220.57131958007812 125.09358978271484 218.56971740722656 C 139.50819396972656 217.67530822753906 162.03753662109375 190.6730194091797 172.83639526367188 276.8442077636719" fill="rgb(222, 223, 99)" opacity="1.0" stroke-width="2.0"/>
    <path d="M 494.306396484375 249.32977294921875 C 537.6912841796875 258.0496826171875 511.40887451171875 268.3837585449219 500.9170837402344 338.1130065917969 C 486.77197265625 317.3998718261719 491.2962951660156 276.1912841796875 479.9367370605469 331.4455261230469 C 464.58416748046875 371.8636169433594 456.1782531738281 366.8069152832031 484.45965576171875 368.6442565917969 C 520.8006591796875 312.1088562011719 471.946044921875 345.88427734375 494.306396484375 249.32977294921875" fill="rgb(1, 14, 102)" opacity="1.0" stroke-width="2.0"/>
    <path d="M 62.457374572753906 40.88699722290039 C 73.82146453857422 50.46622848510742 75.13819122314453 43.3610954284668 63.864784240722656 47.92189025878906 C 71.36975860595703 43.559730529785156 74.86903381347656 52.5924186706543 65.65802764892578 42.91637420654297 C 79.5765609741211 54.57179260253906 75.50141906738281 55.784568786621094 75.81287384033203 61.1825065612793 C 73.87171173095703 62.12302017211914 82.21086120605469 55.54814529418945 67.09747314453125 45.07875061035156 C 67.79781341552734 44.78084945678711 82.09922790527344 55.533111572265625 62.457374572753906 40.88699722290039" fill="rgb(255, 132, 99)" opacity="1.0" stroke-width="2.0"/>
    <path d="M 491.6624450683594 353.76605224609375 C 497.489013671875 347.05413818359375 486.52130126953125 372.6061706542969 465.1506652832031 405.1440734863281 C 435.6895751953125 437.9222106933594 441.42236328125 445.9693908691406 409.4944152832031 444.0787658691406 C 461.5083312988281 362.04742431640625 497.73919677734375 336.1976623535156 491.6624450683594 353.76605224609375" fill="rgb(48, 8, 2)" opacity="1.0" stroke-width="2.0"/>
  </g>
</svg>
