<?xml version="1.0" ?>
<svg height="512" version="1.1" width="512" xmlns="http://www.w3.org/2000/svg">
  <defs/>
  <g>
    <path d="M 58.86859130859375 51.04438018798828 C 58.3521728515625 51.2649040222168 54.56000518798828 54.42560577392578 54.658267974853516 54.6229248046875 C 37.1286506652832 68.97529602050781 31.757078170776367 73.1653060913086 32.906044006347656 71.62303924560547 C 35.80318832397461 68.0728530883789 29.236984252929688 74.98473358154297 35.9318962097168 68.36881256103516 C 33.33425521850586 71.03130340576172 22.605981826782227 81.33558654785156 58.86859130859375 51.04438018798828" fill="rgb(255, 84, 148)" opacity="1.0" stroke-width="2.0"/>
    <path d="M 182.65798950195312 502.75091552734375 C 157.8943634033203 441.1014099121094 77.56434631347656 437.84375 109.6265640258789 467.0433654785156 C 157.09226989746094 496.98590087890625 159.18943786621094 490.8470458984375 89.9717788696289 467.4256591796875 C 66.5951156616211 467.21844482421875 78.69880676269531 467.4602966308594 88.35707092285156 467.352783203125 C 89.7850112915039 468.6322937011719 74.65913391113281 459.843994140625 182.65798950195312 502.75091552734375" fill="rgb(1, 1, 1)" opacity="1.0" stroke-width="2.0"/>
    <path d="M 66.77911376953125 411.1893310546875 C 112.47114562988281 172.8635711669922 142.76307678222656 165.62496948242188 207.71279907226562 126.58277893066406 C 202.63092041015625 182.39903259277344 179.01768493652344 205.5603485107422 491.7355651855469 116.39392852783203 C 499.66650390625 472.75323486328125 453.7063903808594 392.0668640136719 366.29638671875 485.3892822265625 C 154.62509155273438 504.6300964355469 156.1010284423828 479.7408142089844 66.77911376953125 411.1893310546875" fill="rgb(251, 220, 112)" opacity="1.0" stroke-width="2.0"/>
    <path d="M 422.27642822265625 180.3585205078125 C 420.54815673828125 216.17039489746094 380.8339538574219 231.1730194091797 356.3140869140625 210.33689880371094 C 359.2803039550781 207.41761779785156 362.44873046875 219.16085815429688 365.7801818847656 224.29820251464844 C 356.6235046386719 206.7705078125 345.7853698730469 176.3446044921875 373.6635437011719 198.40431213378906 C 413.1644592285156 208.78607177734375 395.8611145019531 151.08053588867188 422.27642822265625 180.3585205078125" fill="rgb(2, 1, 3)" opacity="1.0" stroke-width="2.0"/>
    <path d="M 251.91336059570312 189.71762084960938 C 233.52810668945312 254.8573760986328 117.96710205078125 205.290771484375 206.19915771484375 123.84791564941406 C 179.28028869628906 225.2142791748047 200.09927368164062 211.8341064453125 293.33599853515625 158.10671997070312 C 348.261474609375 158.51002502441406 362.3553466796875 214.5986328125 354.7298889160156 149.10528564453125 C 143.34521484375 137.78692626953125 175.4067840576172 123.75971984863281 251.91336059570312 189.71762084960938" fill="rgb(9, 8, 9)" opacity="1.0" stroke-width="2.0"/>
    <path d="M 410.6368713378906 151.67921447753906 C 429.65673828125 172.96981811523438 419.4127197265625 194.48524475097656 416.3833923339844 198.28407287597656 C 397.7740478515625 178.32313537597656 402.9189147949219 140.23593139648438 351.3241882324219 172.1527099609375 C 338.60498046875 164.78297424316406 376.74920654296875 119.30210876464844 410.6368713378906 151.67921447753906" fill="rgb(1, 1, 2)" opacity="1.0" stroke-width="2.0"/>
    <path d="M 297.0576477050781 10.802803993225098 C 403.2854309082031 52.23981857299805 346.8194274902344 104.52733612060547 248.03236389160156 156.69873046875 C 172.88400268554688 106.96265411376953 169.23013305664062 39.63176727294922 234.97628784179688 -4.508456230163574 C 416.5395202636719 33.67439651489258 365.204833984375 95.41180419921875 248.7798309326172 156.23199462890625 C 245.79739379882812 146.99920654296875 257.1111145019531 260.357666015625 351.3338317871094 166.38963317871094 C 513.0105590820312 108.94319152832031 442.0176696777344 87.64436340332031 297.0576477050781 10.802803993225098" fill="rgb(251, 221, 109)" opacity="1.0" stroke-width="2.0"/>
    <path d="M 88.43384552001953 89.65718841552734 C 26.56717300415039 158.46237182617188 50.41326904296875 213.7807159423828 47.386024475097656 106.40319061279297 C 38.70987319946289 120.60138702392578 -6.186713695526123 176.99072265625 -0.4397459030151367 278.9836120605469 C 52.3004150390625 279.1148376464844 47.05972671508789 158.7720489501953 47.500938415527344 108.21260833740234 C 69.76769256591797 65.42510986328125 183.5413818359375 -26.78152084350586 282.31427001953125 10.268672943115234 C 31.67305564880371 51.4840202331543 169.2533416748047 99.81166076660156 88.43384552001953 89.65718841552734" fill="rgb(4, 3, 3)" opacity="1.0" stroke-width="2.0"/>
    <path d="M 349.7420349121094 186.3377685546875 C 374.3858642578125 173.57656860351562 348.8503112792969 180.6547393798828 378.895263671875 205.0812530517578 C 358.9146423339844 238.23399353027344 311.6855773925781 166.587646484375 371.48681640625 140.4168243408203 C 446.29510498046875 139.9620819091797 353.23553466796875 157.7076416015625 362.8891296386719 178.93124389648438 C 416.091552734375 151.07354736328125 394.5177001953125 163.08596801757812 406.5557861328125 209.22032165527344 C 426.3275146484375 143.96517944335938 401.41436767578125 157.56712341308594 349.7420349121094 186.3377685546875" fill="rgb(1, 1, 2)" opacity="1.0" stroke-width="2.0"/>
    <path d="M 312.74017333984375 19.21894645690918 C 294.4345397949219 125.20763397216797 288.801025390625 153.6300048828125 314.55706787109375 9.919071197509766 C 407.6295166015625 23.143007278442383 476.634765625 102.78825378417969 495.31427001953125 172.98416137695312 C 423.8980407714844 114.3486328125 467.9512634277344 94.94950103759766 312.74017333984375 19.21894645690918" fill="rgb(7, 8, 17)" opacity="1.0" stroke-width="2.0"/>
    <path d="M 295.3409118652344 174.34849548339844 C 298.94970703125 187.27793884277344 300.12945556640625 187.9391326904297 293.8132019042969 150.59812927246094 C 271.7802734375 140.1163787841797 257.35284423828125 154.5605010986328 296.7181701660156 126.92555236816406 C 298.8872375488281 185.78196716308594 298.4256591796875 186.96636962890625 300.1079406738281 186.1519317626953 C 288.11053466796875 169.5821990966797 308.6493835449219 172.01327514648438 294.01806640625 174.83004760742188 C 302.9255065917969 177.050537109375 311.00164794921875 183.07284545898438 295.3409118652344 174.34849548339844" fill="rgb(253, 223, 108)" opacity="1.0" stroke-width="2.0"/>
    <path d="M 21.866849899291992 284.602783203125 C 41.803955078125 403.0310974121094 94.01978302001953 398.1919860839844 63.648651123046875 427.4900207519531 C 73.45774841308594 386.8938903808594 60.6982536315918 401.965087890625 110.74954986572266 441.6387939453125 C 162.00698852539062 481.6168212890625 184.48385620117188 469.74163818359375 112.0477294921875 468.9472961425781 C 81.29680633544922 400.76092529296875 24.53631019592285 418.5699157714844 2.5949246883392334 297.45660400390625 C -6.550090789794922 245.66693115234375 23.149316787719727 231.2290802001953 21.866849899291992 284.602783203125" fill="rgb(2, 0, 1)" opacity="1.0" stroke-width="2.0"/>
    <path d="M 81.14148712158203 508.77874755859375 C 78.32331085205078 505.6242370605469 85.9698486328125 512.6492309570312 90.3330078125 526.4616088867188 C 94.52173614501953 517.6522216796875 101.721923828125 508.1291809082031 93.79763793945312 518.1727294921875 C 101.24073028564453 507.472412109375 96.19739532470703 514.019287109375 94.27278137207031 518.0782470703125 C 92.38845825195312 508.1036682128906 90.49079132080078 523.9153442382812 90.88714599609375 516.9205932617188 C 82.73843383789062 529.59130859375 93.32459259033203 526.26806640625 81.14148712158203 508.77874755859375" fill="rgb(153, 182, 247)" opacity="1.0" stroke-width="2.0"/>
    <path d="M 51.8310432434082 414.3419189453125 C 86.0497817993164 443.8503112792969 48.160247802734375 421.73193359375 18.887432098388672 354.48175048828125 C 43.4496955871582 367.3618469238281 79.86933898925781 402.9201965332031 111.16427612304688 467.70458984375 C 52.96799850463867 426.94915771484375 57.394622802734375 401.80908203125 36.71311950683594 418.38458251953125 C 42.690887451171875 413.2154235839844 38.80567932128906 418.0768737792969 39.713565826416016 413.3514404296875 C 38.78507614135742 420.87957763671875 41.84430694580078 410.09796142578125 51.8310432434082 414.3419189453125" fill="rgb(1, 0, 0)" opacity="1.0" stroke-width="2.0"/>
    <path d="M 249.05972290039062 16.671096801757812 C 48.40337371826172 50.47297668457031 13.6177339553833 189.49842834472656 237.12388610839844 82.39957427978516 C 243.71588134765625 176.29110717773438 57.263999938964844 174.18798828125 61.705535888671875 128.88291931152344 C 277.0650939941406 115.93225860595703 296.90264892578125 -0.13228647410869598 249.05972290039062 16.671096801757812" fill="rgb(250, 220, 108)" opacity="1.0" stroke-width="2.0"/>
    <path d="M 147.04202270507812 465.997802734375 C 301.730224609375 538.3961791992188 382.6155700683594 430.977294921875 367.39483642578125 487.0740051269531 C 282.2486267089844 528.29736328125 217.47439575195312 502.3568115234375 279.69500732421875 518.8888549804688 C 189.8256378173828 502.73638916015625 173.44776916503906 512.7926025390625 145.79476928710938 464.22491455078125 C 135.06910705566406 487.0614013671875 172.2960968017578 506.8888244628906 147.04202270507812 465.997802734375" fill="rgb(1, 0, 1)" opacity="1.0" stroke-width="2.0"/>
    <path d="M 164.37344360351562 418.0205078125 C 59.17896270751953 421.6143798828125 61.51641082763672 386.72930908203125 40.933349609375 352.50787353515625 C 10.834495544433594 287.88140869140625 5.210808753967285 184.40431213378906 80.0091323852539 98.65119171142578 C 188.6090545654297 116.07959747314453 181.85264587402344 127.1068344116211 164.37344360351562 418.0205078125" fill="rgb(252, 213, 108)" opacity="1.0" stroke-width="2.0"/>
    <path d="M 449.80859375 87.76881408691406 C 535.141357421875 187.43780517578125 509.52398681640625 296.91546630859375 506.7992858886719 310.1532287597656 C 501.36541748046875 246.3058319091797 484.94384765625 194.56495666503906 492.7524719238281 259.45269775390625 C 483.2697448730469 389.30743408203125 421.79083251953125 395.5045471191406 472.87347412109375 381.519287109375 C 513.3492431640625 313.51690673828125 527.65625 330.8087463378906 449.80859375 87.76881408691406" fill="rgb(2, 1, 1)" opacity="1.0" stroke-width="2.0"/>
    <path d="M 66.02033233642578 37.919349670410156 C 76.12165069580078 51.045074462890625 72.33016967773438 44.1889762878418 66.03089904785156 46.717899322509766 C 69.70248413085938 44.96853256225586 76.27372741699219 49.465423583984375 68.50169372558594 41.92705535888672 C 80.101806640625 53.26416015625 75.89251708984375 58.585845947265625 76.77323913574219 54.89379119873047 C 75.29920196533203 59.137916564941406 79.78744506835938 53.75307083129883 69.68318939208984 42.113525390625 C 69.63330078125 41.362823486328125 78.36672973632812 54.01945114135742 66.02033233642578 37.919349670410156" fill="rgb(255, 142, 108)" opacity="1.0" stroke-width="2.0"/>
    <path d="M 500.1769104003906 335.33544921875 C 501.2528076171875 329.975341796875 491.1099548339844 372.0831298828125 459.0445251464844 412.3378601074219 C 431.62359619140625 451.29254150390625 348.1345520019531 515.9098510742188 324.129150390625 484.1718444824219 C 482.5 422.010009765625 460.0115966796875 317.9925842285156 500.1769104003906 335.33544921875" fill="rgb(1, 0, 1)" opacity="1.0" stroke-width="2.0"/>
  </g>
</svg>
