<?xml version="1.0" ?>
<svg height="512" version="1.1" width="512" xmlns="http://www.w3.org/2000/svg">
  <defs/>
  <g>
    <path d="M 58.872535705566406 50.976287841796875 C 58.46931076049805 51.05155944824219 54.48279571533203 54.387516021728516 54.591800689697266 54.59596252441406 C 37.244422912597656 69.07799530029297 31.96428680419922 73.25949096679688 32.994415283203125 71.7774658203125 C 35.24067306518555 68.7315673828125 28.6124267578125 74.66841888427734 36.46070861816406 68.30428314208984 C 33.56496047973633 71.52910614013672 22.506866455078125 81.39149475097656 58.872535705566406 50.976287841796875" fill="rgb(255, 83, 147)" opacity="1.0" stroke-width="2.0"/>
    <path d="M 182.82594299316406 502.60302734375 C 157.861083984375 441.11053466796875 77.49700927734375 437.88739013671875 109.3833999633789 466.99462890625 C 157.1483154296875 497.08941650390625 158.695556640625 490.7220764160156 89.87476348876953 467.44342041015625 C 66.5756607055664 467.26470947265625 78.66332244873047 467.37158203125 88.7193374633789 467.4858093261719 C 89.76979064941406 468.5660095214844 74.75410461425781 459.7461242675781 182.82594299316406 502.60302734375" fill="rgb(1, 1, 1)" opacity="1.0" stroke-width="2.0"/>
    <path d="M 66.88713836669922 411.36285400390625 C 112.6316146850586 174.11656188964844 143.9517059326172 169.0087127685547 206.2768096923828 126.20590209960938 C 202.53660583496094 180.03802490234375 194.36355590820312 208.93458557128906 492.9942626953125 134.7836151123047 C 498.00982666015625 470.4239501953125 452.96630859375 391.84063720703125 366.1903381347656 485.4050598144531 C 154.39300537109375 504.70111083984375 155.9478302001953 479.8454895019531 66.88713836669922 411.36285400390625" fill="rgb(251, 220, 112)" opacity="1.0" stroke-width="2.0"/>
    <path d="M 422.1810302734375 180.31167602539062 C 420.4993591308594 216.11630249023438 380.6698303222656 231.1415252685547 356.1662292480469 210.3616943359375 C 359.3500671386719 207.467041015625 362.5690002441406 219.21273803710938 365.64312744140625 224.5079803466797 C 356.5185852050781 206.89688110351562 345.9499816894531 175.92994689941406 373.7660827636719 198.41485595703125 C 413.29766845703125 209.2093963623047 395.61907958984375 151.21485900878906 422.1810302734375 180.31167602539062" fill="rgb(2, 1, 3)" opacity="1.0" stroke-width="2.0"/>
    <path d="M 251.5926513671875 190.9782257080078 C 233.8892364501953 252.17416381835938 119.05924224853516 208.91839599609375 204.94996643066406 122.90650939941406 C 182.316162109375 226.68344116210938 195.69105529785156 209.46682739257812 296.18218994140625 161.90597534179688 C 347.14739990234375 160.93362426757812 362.0140686035156 217.6583709716797 354.73504638671875 150.0950164794922 C 144.63331604003906 138.15020751953125 176.50839233398438 122.63170623779297 251.5926513671875 190.9782257080078" fill="rgb(12, 10, 9)" opacity="1.0" stroke-width="2.0"/>
    <path d="M 410.8222961425781 151.31138610839844 C 429.8216857910156 173.4452362060547 419.7970886230469 194.12167358398438 417.511474609375 198.78573608398438 C 397.6275939941406 178.11109924316406 402.869140625 140.06552124023438 351.3621520996094 172.08934020996094 C 338.6148376464844 164.74220275878906 376.78717041015625 119.19380187988281 410.8222961425781 151.31138610839844" fill="rgb(2, 1, 2)" opacity="1.0" stroke-width="2.0"/>
    <path d="M 295.65716552734375 10.891579627990723 C 403.0447998046875 50.475128173828125 347.0191955566406 105.31884765625 248.71170043945312 157.08709716796875 C 173.75511169433594 108.54546356201172 169.81991577148438 39.35196304321289 235.81752014160156 -4.12800931930542 C 415.8028564453125 33.99366760253906 364.73779296875 95.42256927490234 250.42701721191406 156.09939575195312 C 244.8377227783203 147.20870971679688 256.73931884765625 257.21258544921875 344.92401123046875 175.2403106689453 C 495.01800537109375 96.74394989013672 429.1226806640625 75.30078887939453 295.65716552734375 10.891579627990723" fill="rgb(251, 221, 109)" opacity="1.0" stroke-width="2.0"/>
    <path d="M 87.61859893798828 90.53641510009766 C 26.418010711669922 158.94361877441406 49.97370910644531 213.39784240722656 47.52613067626953 106.04951477050781 C 38.59442138671875 120.47080993652344 -6.152273654937744 176.79074096679688 -0.6526676416397095 278.9808654785156 C 52.89780807495117 279.1191101074219 46.668941497802734 158.8486328125 47.70640563964844 107.99110412597656 C 70.3220443725586 65.7090835571289 180.3579559326172 -25.789974212646484 282.4111328125 9.827116966247559 C 30.228878021240234 53.69244384765625 165.6679229736328 98.3338623046875 87.61859893798828 90.53641510009766" fill="rgb(3, 3, 3)" opacity="1.0" stroke-width="2.0"/>
    <path d="M 350.23309326171875 187.11605834960938 C 373.80633544921875 174.62831115722656 349.1327209472656 180.637939453125 379.15362548828125 205.54412841796875 C 359.5829772949219 238.342529296875 312.9000244140625 168.2390899658203 369.18658447265625 141.12850952148438 C 436.352294921875 134.26739501953125 353.7220458984375 161.55641174316406 362.5123291015625 179.75515747070312 C 415.8482666015625 151.1486358642578 394.2482604980469 163.07383728027344 406.8768615722656 209.15335083007812 C 426.4222106933594 144.03152465820312 401.5899658203125 157.72311401367188 350.23309326171875 187.11605834960938" fill="rgb(1, 1, 2)" opacity="1.0" stroke-width="2.0"/>
    <path d="M 312.0133361816406 23.304428100585938 C 294.1448059082031 125.43692779541016 289.1839599609375 154.47084045410156 314.2413330078125 9.594185829162598 C 407.299072265625 22.389556884765625 475.6496276855469 103.96724700927734 497.8321533203125 171.18548583984375 C 417.5843200683594 113.4402847290039 468.62762451171875 89.54078674316406 312.0133361816406 23.304428100585938" fill="rgb(34, 41, 17)" opacity="1.0" stroke-width="2.0"/>
    <path d="M 295.33984375 174.3466339111328 C 298.9501037597656 187.28131103515625 300.1373596191406 187.9373321533203 293.8316650390625 150.58580017089844 C 272.0987243652344 140.27613830566406 257.6568603515625 155.0347137451172 296.71612548828125 127.26251220703125 C 298.86614990234375 185.78555297851562 298.41705322265625 186.9655303955078 300.11224365234375 186.14620971679688 C 288.1160583496094 169.57997131347656 308.64794921875 172.01358032226562 294.0179748535156 174.831787109375 C 302.92144775390625 177.0565948486328 311.0033874511719 183.07122802734375 295.33984375 174.3466339111328" fill="rgb(253, 223, 109)" opacity="1.0" stroke-width="2.0"/>
    <path d="M 21.561813354492188 284.56878662109375 C 41.87199020385742 402.99139404296875 94.24939727783203 397.8327941894531 63.80463790893555 428.0034484863281 C 73.64320373535156 386.7611083984375 60.66297912597656 402.0104675292969 110.58545684814453 441.7816162109375 C 161.85836791992188 481.5641174316406 184.25914001464844 469.7189025878906 112.36067199707031 469.1082458496094 C 81.33988189697266 400.464599609375 24.575075149536133 418.7554931640625 2.6032602787017822 297.46502685546875 C -6.214850425720215 245.69834899902344 23.72217559814453 231.22097778320312 21.561813354492188 284.56878662109375" fill="rgb(2, 1, 1)" opacity="1.0" stroke-width="2.0"/>
    <path d="M 81.12830352783203 508.5659484863281 C 77.89199829101562 505.62994384765625 85.6698989868164 512.780517578125 90.14910125732422 526.595703125 C 94.52173614501953 517.6522216796875 101.721923828125 508.1291809082031 93.79763793945312 518.1727294921875 C 101.24073028564453 507.472412109375 96.19739532470703 514.019287109375 94.27278137207031 518.0782470703125 C 92.38845825195312 508.1036682128906 90.49079132080078 523.9153442382812 90.90067291259766 516.916015625 C 82.93159484863281 529.3773803710938 93.85675811767578 525.7041015625 81.12830352783203 508.5659484863281" fill="rgb(153, 181, 246)" opacity="1.0" stroke-width="2.0"/>
    <path d="M 51.95180892944336 414.26202392578125 C 86.2626724243164 443.5317077636719 48.31950378417969 421.9103698730469 18.918128967285156 354.503173828125 C 43.43939208984375 367.4172058105469 79.872314453125 402.90234375 111.1141357421875 467.65667724609375 C 52.89933395385742 426.85064697265625 57.19101333618164 401.8451232910156 36.87581253051758 418.2899169921875 C 42.56342697143555 413.5780029296875 38.38908386230469 418.3403015136719 38.59784698486328 413.3418884277344 C 38.68086242675781 420.8046569824219 41.731014251708984 410.2474670410156 51.95180892944336 414.26202392578125" fill="rgb(0, 0, 1)" opacity="1.0" stroke-width="2.0"/>
    <path d="M 249.3622589111328 16.823339462280273 C 47.90338897705078 51.98236083984375 13.454236030578613 187.49497985839844 236.5419921875 81.93450164794922 C 243.38653564453125 176.46334838867188 57.60431671142578 174.20773315429688 61.53098678588867 127.96212005615234 C 277.1737976074219 115.58795166015625 296.8029479980469 -1.6345126628875732 249.3622589111328 16.823339462280273" fill="rgb(250, 220, 108)" opacity="1.0" stroke-width="2.0"/>
    <path d="M 146.94041442871094 466.05377197265625 C 301.541259765625 538.3063354492188 382.23834228515625 431.0109558105469 367.3304138183594 486.9844055175781 C 281.90838623046875 528.35986328125 217.89199829101562 502.18792724609375 279.2551574707031 519.0602416992188 C 189.54762268066406 502.634521484375 173.3876953125 513.052978515625 145.81387329101562 464.3384094238281 C 135.06735229492188 487.0635681152344 172.28524780273438 506.89373779296875 146.94041442871094 466.05377197265625" fill="rgb(1, 0, 1)" opacity="1.0" stroke-width="2.0"/>
    <path d="M 164.88035583496094 417.6766357421875 C 58.244876861572266 421.4991149902344 61.961585998535156 386.4423828125 40.83836364746094 352.39739990234375 C 10.928852081298828 287.5416259765625 5.303506374359131 184.9680938720703 79.36497497558594 99.46834564208984 C 188.3045196533203 116.32698059082031 182.00442504882812 127.26860046386719 164.88035583496094 417.6766357421875" fill="rgb(252, 213, 108)" opacity="1.0" stroke-width="2.0"/>
    <path d="M 450.5231628417969 88.6399154663086 C 534.849609375 187.95677185058594 509.7491760253906 296.9542236328125 506.94354248046875 310.0202331542969 C 501.2845458984375 245.21014404296875 485.5374755859375 196.19761657714844 492.5822448730469 261.58001708984375 C 481.5973815917969 391.41204833984375 422.1018371582031 394.8193359375 472.560302734375 381.4300537109375 C 513.6920776367188 314.3330383300781 527.3863525390625 331.0791320800781 450.5231628417969 88.6399154663086" fill="rgb(1, 1, 1)" opacity="1.0" stroke-width="2.0"/>
    <path d="M 65.96226501464844 37.846736907958984 C 75.37934875488281 51.803855895996094 71.18521118164062 44.53848648071289 65.92095184326172 46.80867004394531 C 70.0241928100586 45.19242477416992 75.74342346191406 49.938026428222656 68.23686218261719 42.00437927246094 C 80.02284240722656 53.0814094543457 75.94036865234375 58.82775115966797 77.37797546386719 56.055660247802734 C 75.30807495117188 59.162353515625 80.08968353271484 53.607601165771484 69.09637451171875 42.726837158203125 C 68.39151000976562 41.97289276123047 78.07318878173828 54.09405517578125 65.96226501464844 37.846736907958984" fill="rgb(255, 141, 107)" opacity="1.0" stroke-width="2.0"/>
    <path d="M 500.1447448730469 335.22479248046875 C 501.12054443359375 329.8930969238281 491.27655029296875 372.3072509765625 459.1888122558594 412.3003845214844 C 431.6134033203125 451.1112060546875 348.3823547363281 515.8565673828125 324.1533203125 484.0497131347656 C 483.065185546875 421.4757385253906 459.49951171875 318.4822692871094 500.1447448730469 335.22479248046875" fill="rgb(1, 0, 1)" opacity="1.0" stroke-width="2.0"/>
  </g>
</svg>
