<?xml version="1.0" ?>
<svg height="512" version="1.1" width="512" xmlns="http://www.w3.org/2000/svg">
  <defs/>
  <g>
    <path d="M 58.2869987487793 50.15876007080078 C 59.01954650878906 49.744991302490234 54.579200744628906 53.68747329711914 54.15501022338867 53.997962951660156 C 36.89504623413086 68.71133422851562 31.622966766357422 73.04957580566406 32.6534538269043 72.11607360839844 C 35.80952835083008 71.67127227783203 29.057764053344727 74.57527160644531 37.278541564941406 67.9775619506836 C 31.405595779418945 71.63485717773438 21.8238468170166 81.29378509521484 58.2869987487793 50.15876007080078" fill="rgb(255, 74, 136)" opacity="1.0" stroke-width="2.0"/>
    <path d="M 182.57522583007812 502.7959289550781 C 157.45773315429688 441.2546081542969 76.71394348144531 438.5074157714844 106.05419158935547 464.5184326171875 C 156.47329711914062 497.26275634765625 153.06976318359375 488.3335266113281 90.04084777832031 467.1385498046875 C 65.69137573242188 465.62847900390625 76.86682891845703 466.48199462890625 89.7508773803711 467.2271423339844 C 88.21471405029297 468.1685485839844 75.01493072509766 459.3479309082031 182.57522583007812 502.7959289550781" fill="rgb(2, 4, 1)" opacity="1.0" stroke-width="2.0"/>
    <path d="M 70.05977630615234 414.864013671875 C 114.53215026855469 185.29071044921875 163.31494140625 216.7250518798828 190.82357788085938 167.3282928466797 C 199.83810424804688 180.35060119628906 210.22637939453125 217.02728271484375 500.79083251953125 157.76312255859375 C 496.9633483886719 468.67864990234375 452.4440002441406 391.8169250488281 365.9154968261719 484.89971923828125 C 151.31214904785156 505.0159606933594 154.30397033691406 480.9346618652344 70.05977630615234 414.864013671875" fill="rgb(252, 219, 110)" opacity="1.0" stroke-width="2.0"/>
    <path d="M 422.2076110839844 180.5638427734375 C 420.8017883300781 216.6598358154297 379.7665710449219 230.6980743408203 357.5882873535156 210.5481719970703 C 359.2411804199219 208.26077270507812 362.6689147949219 220.07830810546875 365.5681457519531 224.9617156982422 C 356.3875427246094 207.43392944335938 347.5409851074219 173.87339782714844 372.593017578125 198.05055236816406 C 412.8936767578125 210.30258178710938 395.1028747558594 152.4834747314453 422.2076110839844 180.5638427734375" fill="rgb(2, 1, 3)" opacity="1.0" stroke-width="2.0"/>
    <path d="M 247.3134307861328 198.86276245117188 C 239.5819549560547 229.5586700439453 154.42755126953125 235.58897399902344 177.1199188232422 149.27015686035156 C 212.23123168945312 227.3513946533203 198.3929901123047 196.67633056640625 292.10272216796875 176.45384216308594 C 340.8271179199219 178.50245666503906 359.8627624511719 243.1907958984375 357.8720397949219 139.03662109375 C 170.0392608642578 110.16280364990234 192.4140167236328 118.89411163330078 247.3134307861328 198.86276245117188" fill="rgb(12, 9, 8)" opacity="1.0" stroke-width="2.0"/>
    <path d="M 410.9495849609375 151.78433227539062 C 430.6094665527344 173.60980224609375 418.03753662109375 190.8187255859375 417.8538513183594 198.06781005859375 C 400.1001892089844 179.35031127929688 405.4128112792969 142.69862365722656 349.07305908203125 169.82582092285156 C 338.96429443359375 163.3589630126953 372.4991455078125 118.57304382324219 410.9495849609375 151.78433227539062" fill="rgb(3, 2, 1)" opacity="1.0" stroke-width="2.0"/>
    <path d="M 280.6056213378906 11.20179557800293 C 391.8887939453125 18.173473358154297 346.735595703125 118.6911849975586 254.05386352539062 165.1023406982422 C 190.654052734375 113.29195404052734 175.0690460205078 23.28247833251953 232.72767639160156 -14.5306396484375 C 386.3641662597656 65.8553237915039 347.0090026855469 102.07759094238281 266.8123474121094 159.77969360351562 C 238.14598083496094 158.8291015625 247.14483642578125 237.5143280029297 344.3176574707031 234.7193145751953 C 402.40472412109375 66.4085922241211 363.6498718261719 87.35614013671875 280.6056213378906 11.20179557800293" fill="rgb(252, 222, 109)" opacity="1.0" stroke-width="2.0"/>
    <path d="M 84.59015655517578 94.7105712890625 C 20.914457321166992 159.9180908203125 48.024993896484375 206.361572265625 47.27641677856445 106.3709487915039 C 38.69428634643555 121.51797485351562 -5.191210746765137 174.0144500732422 -0.824730634689331 279.0409240722656 C 59.5916862487793 279.0507507324219 41.680606842041016 156.99188232421875 48.2596435546875 105.00697326660156 C 80.37671661376953 62.97081756591797 147.6426239013672 -3.9202191829681396 265.54937744140625 0.23578104376792908 C 25.981416702270508 85.58793640136719 122.03510284423828 98.00190734863281 84.59015655517578 94.7105712890625" fill="rgb(2, 1, 1)" opacity="1.0" stroke-width="2.0"/>
    <path d="M 350.1707458496094 188.6391143798828 C 372.1484069824219 177.21493530273438 350.4369201660156 176.6217803955078 380.1253356933594 212.74293518066406 C 364.9066467285156 232.22213745117188 313.88885498046875 179.6123046875 362.9101867675781 144.01133728027344 C 420.209228515625 134.85581970214844 354.09869384765625 165.00282287597656 362.71697998046875 181.38865661621094 C 412.3708801269531 151.56443786621094 392.91241455078125 165.2169647216797 410.7086486816406 208.4196014404297 C 426.8257751464844 143.12188720703125 402.5306701660156 157.638427734375 350.1707458496094 188.6391143798828" fill="rgb(1, 1, 2)" opacity="1.0" stroke-width="2.0"/>
    <path d="M 307.5606994628906 11.386780738830566 C 295.4163818359375 131.36129760742188 292.4234924316406 160.5716094970703 308.0765686035156 5.548659324645996 C 419.0049133300781 32.1182861328125 469.9278564453125 93.28041076660156 508.058837890625 192.4114227294922 C 304.2988586425781 119.7645034790039 355.57208251953125 79.97898864746094 307.5606994628906 11.386780738830566" fill="rgb(178, 158, 81)" opacity="1.0" stroke-width="2.0"/>
    <path d="M 295.27642822265625 174.33480834960938 C 298.4734802246094 187.31199645996094 299.4596252441406 188.10325622558594 292.3841857910156 153.48483276367188 C 290.11981201171875 141.75144958496094 275.9875793457031 162.47804260253906 289.6539611816406 137.7308349609375 C 298.2663879394531 186.17019653320312 299.2892150878906 186.76231384277344 300.07464599609375 186.2602996826172 C 287.7970275878906 169.47219848632812 308.9360046386719 171.943359375 293.5945129394531 174.8812255859375 C 302.9907531738281 177.16009521484375 310.9902648925781 183.13778686523438 295.27642822265625 174.33480834960938" fill="rgb(254, 194, 109)" opacity="1.0" stroke-width="2.0"/>
    <path d="M 21.618165969848633 284.11572265625 C 42.0904655456543 404.0816650390625 94.17183685302734 397.14166259765625 63.58256912231445 427.16607666015625 C 72.59297180175781 388.2766418457031 61.356361389160156 401.2236633300781 109.78152465820312 441.19476318359375 C 162.33079528808594 480.3439636230469 180.00634765625 473.49578857421875 112.12450408935547 469.0008850097656 C 81.0672836303711 398.1878967285156 25.578277587890625 421.6681213378906 2.631376028060913 297.0328369140625 C -6.5859055519104 246.0802764892578 26.940631866455078 231.1888427734375 21.618165969848633 284.11572265625" fill="rgb(2, 0, 1)" opacity="1.0" stroke-width="2.0"/>
    <path d="M 81.48360443115234 507.6577453613281 C 78.17879486083984 504.1120300292969 86.35453796386719 511.4504089355469 90.80786895751953 525.5492553710938 C 94.52173614501953 517.6522216796875 101.721923828125 508.1291809082031 93.79763793945312 518.1727294921875 C 101.24073028564453 507.472412109375 96.19739532470703 514.019287109375 94.27278137207031 518.0782470703125 C 92.38845825195312 508.1036682128906 90.49079132080078 523.9153442382812 90.93803405761719 516.9024047851562 C 83.39909362792969 528.8153076171875 95.00494384765625 524.4156494140625 81.48360443115234 507.6577453613281" fill="rgb(151, 179, 243)" opacity="1.0" stroke-width="2.0"/>
    <path d="M 50.87315368652344 413.4298095703125 C 85.67646789550781 442.56207275390625 50.571380615234375 425.0663146972656 18.88850212097168 354.9459533691406 C 43.90000534057617 367.2829895019531 79.69673919677734 402.71551513671875 110.59603118896484 467.71051025390625 C 52.213104248046875 425.5595397949219 56.78462600708008 402.2924499511719 37.876712799072266 417.63934326171875 C 40.91593551635742 415.482177734375 39.5350456237793 417.5942077636719 39.96099853515625 413.48162841796875 C 39.0707893371582 421.049072265625 39.91893768310547 411.4216003417969 50.87315368652344 413.4298095703125" fill="rgb(1, 0, 1)" opacity="1.0" stroke-width="2.0"/>
    <path d="M 246.43807983398438 7.404865264892578 C 46.44435119628906 78.39710998535156 0.8462090492248535 166.3841094970703 235.54660034179688 82.80731964111328 C 248.6623992919922 201.923828125 78.18502044677734 205.40797424316406 65.35237121582031 116.96822357177734 C 282.89947509765625 119.7283935546875 295.02093505859375 -23.023836135864258 246.43807983398438 7.404865264892578" fill="rgb(230, 201, 99)" opacity="1.0" stroke-width="2.0"/>
    <path d="M 148.1092071533203 466.251708984375 C 300.3902587890625 537.3822021484375 378.1061706542969 433.0284729003906 365.8997497558594 487.93548583984375 C 276.8537902832031 529.0927734375 223.25245666503906 500.6008605957031 275.44622802734375 519.539306640625 C 188.59410095214844 501.4347839355469 175.1444854736328 514.4942016601562 146.07081604003906 463.4501037597656 C 135.04684448242188 487.0249938964844 173.09194946289062 506.0615539550781 148.1092071533203 466.251708984375" fill="rgb(1, 0, 1)" opacity="1.0" stroke-width="2.0"/>
    <path d="M 174.76934814453125 414.04901123046875 C 47.43500900268555 418.29473876953125 61.47822952270508 382.3975524902344 39.12910842895508 348.8484191894531 C 11.55882453918457 288.0998229980469 8.24810791015625 191.61172485351562 68.11289978027344 113.44829559326172 C 180.06483459472656 128.1498565673828 187.55502319335938 133.32522583007812 174.76934814453125 414.04901123046875" fill="rgb(252, 213, 108)" opacity="1.0" stroke-width="2.0"/>
    <path d="M 467.55596923828125 113.00201416015625 C 529.0772094726562 200.76866149902344 511.803955078125 288.6178283691406 505.2068176269531 318.1518249511719 C 497.20703125 256.6692810058594 491.7066345214844 221.68017578125 490.603271484375 286.38714599609375 C 469.35845947265625 399.4858703613281 427.5125427246094 394.1619873046875 471.4691162109375 377.89605712890625 C 518.8521728515625 307.967529296875 511.6094665527344 355.50543212890625 467.55596923828125 113.00201416015625" fill="rgb(1, 1, 0)" opacity="1.0" stroke-width="2.0"/>
    <path d="M 66.16473388671875 37.65639877319336 C 77.80274200439453 50.76831817626953 71.54280853271484 45.10460662841797 65.43525695800781 47.13481903076172 C 71.67418670654297 45.260066986083984 76.6256103515625 49.9487419128418 68.55268859863281 40.8629035949707 C 79.66804504394531 53.17781448364258 76.0321273803711 58.17093276977539 75.95471954345703 59.04530334472656 C 74.58174896240234 60.0181999206543 80.8668441772461 54.362342834472656 69.52324676513672 41.759742736816406 C 68.69448852539062 40.802616119384766 80.2270278930664 53.43743133544922 66.16473388671875 37.65639877319336" fill="rgb(255, 138, 104)" opacity="1.0" stroke-width="2.0"/>
    <path d="M 498.6490478515625 340.8147888183594 C 501.2807312011719 329.55389404296875 490.3661193847656 372.7231750488281 459.91046142578125 411.3863525390625 C 432.46893310546875 450.2570495605469 351.46429443359375 514.0108642578125 324.8913879394531 485.22998046875 C 489.20574951171875 413.5063781738281 454.47320556640625 322.971923828125 498.6490478515625 340.8147888183594" fill="rgb(1, 1, 1)" opacity="1.0" stroke-width="2.0"/>
  </g>
</svg>
