<?xml version="1.0" ?>
<svg height="512" version="1.1" width="512" xmlns="http://www.w3.org/2000/svg">
  <defs/>
  <g>
    <path d="M 59.082855224609375 51.35715103149414 C 58.4036750793457 52.05015563964844 54.92718505859375 54.97762680053711 54.89379119873047 54.89425277709961 C 37.597900390625 69.47138214111328 32.2697639465332 73.67044067382812 33.16107177734375 72.25257110595703 C 35.4381217956543 69.11595916748047 30.198196411132812 75.3106460571289 36.00445556640625 68.42471313476562 C 34.137535095214844 70.80335235595703 23.084741592407227 81.49848175048828 59.082855224609375 51.35715103149414" fill="rgb(255, 87, 151)" opacity="1.0" stroke-width="2.0"/>
    <path d="M 182.87295532226562 502.54620361328125 C 158.084716796875 441.0693664550781 77.46102905273438 437.8239440917969 109.68278503417969 467.0265197753906 C 156.81332397460938 496.9924011230469 160.5914306640625 491.3792724609375 90.10135650634766 467.7854919433594 C 67.08956909179688 467.1119689941406 79.44840240478516 467.3830871582031 88.32514953613281 467.646484375 C 89.47459411621094 468.9261474609375 74.8791732788086 459.6529235839844 182.87295532226562 502.54620361328125" fill="rgb(2, 1, 2)" opacity="1.0" stroke-width="2.0"/>
    <path d="M 66.68565368652344 410.94146728515625 C 112.17940521240234 169.65142822265625 140.5970001220703 156.97116088867188 220.2246551513672 132.99302673339844 C 190.4010467529297 198.01063537597656 117.21739959716797 205.56224060058594 486.3367614746094 121.61532592773438 C 509.1873474121094 472.7904357910156 457.0287780761719 387.3820495605469 365.9783935546875 485.380859375 C 155.06459045410156 504.76171875 156.4609375 479.690185546875 66.68565368652344 410.94146728515625" fill="rgb(251, 220, 111)" opacity="1.0" stroke-width="2.0"/>
    <path d="M 422.1953430175781 180.57122802734375 C 420.3568115234375 215.81556701660156 380.93890380859375 231.49215698242188 356.17218017578125 209.9732666015625 C 358.689208984375 206.960693359375 362.2858581542969 218.1262664794922 365.11016845703125 224.38824462890625 C 356.8656921386719 206.47543334960938 345.24005126953125 177.69007873535156 373.9976806640625 198.67166137695312 C 412.86712646484375 208.4427490234375 396.5394592285156 150.7433624267578 422.1953430175781 180.57122802734375" fill="rgb(2, 1, 2)" opacity="1.0" stroke-width="2.0"/>
    <path d="M 253.00210571289062 187.38705444335938 C 230.73390197753906 260.27508544921875 117.56763458251953 196.37022399902344 207.05152893066406 129.50160217285156 C 171.05165100097656 218.62525939941406 216.79605102539062 220.07423400878906 277.6983337402344 149.543701171875 C 350.2514953613281 154.6251678466797 362.908935546875 210.2149200439453 355.18560791015625 148.37399291992188 C 143.56471252441406 137.3979949951172 175.03269958496094 127.54573822021484 253.00210571289062 187.38705444335938" fill="rgb(6, 5, 6)" opacity="1.0" stroke-width="2.0"/>
    <path d="M 410.6200866699219 151.7766571044922 C 429.9261779785156 172.52496337890625 419.97747802734375 195.1819610595703 414.98095703125 198.45938110351562 C 398.5455322265625 178.6751251220703 403.46905517578125 140.45404052734375 350.99517822265625 171.8827667236328 C 338.6148376464844 164.7708282470703 377.07464599609375 119.11568450927734 410.6200866699219 151.7766571044922" fill="rgb(1, 1, 2)" opacity="1.0" stroke-width="2.0"/>
    <path d="M 298.79852294921875 11.723851203918457 C 404.9784851074219 52.912837982177734 346.94091796875 103.51409912109375 246.4200439453125 154.34353637695312 C 168.57977294921875 108.86736297607422 167.3451385498047 41.40031433105469 232.8671417236328 -4.604518890380859 C 420.48870849609375 34.34808349609375 367.1771545410156 93.6209945678711 243.32923889160156 155.79664611816406 C 251.4214630126953 145.45681762695312 258.7608337402344 271.498779296875 359.94561767578125 153.65530395507812 C 531.9698486328125 124.73473358154297 456.4095153808594 93.6783676147461 298.79852294921875 11.723851203918457" fill="rgb(251, 221, 108)" opacity="1.0" stroke-width="2.0"/>
    <path d="M 92.40083312988281 86.15392303466797 C 26.010839462280273 155.41868591308594 51.31290054321289 214.87437438964844 47.533843994140625 106.34793853759766 C 38.704681396484375 120.46771240234375 -6.525378704071045 177.57273864746094 -0.19273295998573303 278.9979248046875 C 50.081756591796875 279.0962829589844 48.33757781982422 158.09117126464844 47.476661682128906 109.21328735351562 C 68.77073669433594 63.069087982177734 193.75601196289062 -29.99336814880371 281.1745300292969 12.674962043762207 C 35.80744552612305 45.14791488647461 178.66494750976562 103.52088928222656 92.40083312988281 86.15392303466797" fill="rgb(4, 3, 2)" opacity="1.0" stroke-width="2.0"/>
    <path d="M 349.4626770019531 185.1512451171875 C 375.7134704589844 172.06556701660156 347.0317687988281 179.3784942626953 378.34552001953125 203.69786071777344 C 357.0975036621094 241.26657104492188 309.9032897949219 158.54461669921875 376.3699035644531 139.50233459472656 C 440.9829406738281 144.66845703125 357.7093200683594 154.1165313720703 362.754638671875 178.02923583984375 C 416.0696105957031 150.4029541015625 395.2112121582031 163.2713623046875 405.76434326171875 209.20147705078125 C 425.8748474121094 143.3196258544922 401.5684814453125 157.47193908691406 349.4626770019531 185.1512451171875" fill="rgb(1, 1, 2)" opacity="1.0" stroke-width="2.0"/>
    <path d="M 312.3367919921875 20.9234676361084 C 293.7787170410156 122.88639068603516 288.3502197265625 151.70233154296875 314.545654296875 9.180490493774414 C 406.21478271484375 23.23749542236328 479.6900939941406 102.52360534667969 495.5547790527344 178.63864135742188 C 434.46142578125 127.4495849609375 463.2981872558594 86.98097229003906 312.3367919921875 20.9234676361084" fill="rgb(22, 21, 17)" opacity="1.0" stroke-width="2.0"/>
    <path d="M 295.3442077636719 174.3628387451172 C 298.937744140625 187.25987243652344 300.0581359863281 187.95838928222656 293.67486572265625 150.64144897460938 C 270.28094482421875 138.99880981445312 255.82188415527344 151.69143676757812 296.67919921875 124.93148040771484 C 299.02801513671875 185.75912475585938 298.49566650390625 186.96792602539062 300.080078125 186.19033813476562 C 288.0766906738281 169.59706115722656 308.6612243652344 172.01077270507812 294.0197448730469 174.8154296875 C 302.950927734375 177.01156616210938 310.990478515625 183.0830841064453 295.3442077636719 174.3628387451172" fill="rgb(253, 223, 108)" opacity="1.0" stroke-width="2.0"/>
    <path d="M 21.638444900512695 284.9245300292969 C 41.64371871948242 402.79107666015625 94.11102294921875 398.4078369140625 63.612606048583984 427.5311584472656 C 73.78799438476562 386.3035888671875 60.93532943725586 401.92218017578125 110.73316955566406 441.7301025390625 C 162.5936737060547 481.9287109375 185.21966552734375 469.9403991699219 112.02182006835938 469.0847473144531 C 82.01943969726562 400.91845703125 24.319292068481445 417.6658630371094 2.7310800552368164 297.57470703125 C -6.27235221862793 245.52874755859375 20.945526123046875 231.26219177246094 21.638444900512695 284.9245300292969" fill="rgb(2, 0, 1)" opacity="1.0" stroke-width="2.0"/>
    <path d="M 81.7657699584961 509.075439453125 C 79.1081771850586 505.7136535644531 86.015380859375 512.9660034179688 90.09236907958984 526.8988647460938 C 94.52173614501953 517.6522216796875 101.721923828125 508.1291809082031 93.79763793945312 518.1727294921875 C 101.24073028564453 507.472412109375 96.19739532470703 514.019287109375 94.27278137207031 518.0782470703125 C 92.38845825195312 508.1036682128906 90.49079132080078 523.9153442382812 90.8893814086914 516.9204711914062 C 82.75251007080078 529.5989379882812 93.25139617919922 526.3985595703125 81.7657699584961 509.075439453125" fill="rgb(155, 183, 249)" opacity="1.0" stroke-width="2.0"/>
    <path d="M 52.36333084106445 414.64654541015625 C 85.95663452148438 443.9730224609375 47.73618698120117 420.87884521484375 18.80712890625 354.3623046875 C 43.53936767578125 367.0561828613281 79.42359161376953 403.2671813964844 111.25602722167969 467.7758483886719 C 53.08325958251953 427.1886901855469 57.56050491333008 401.7782897949219 36.71636962890625 418.0234069824219 C 43.97849655151367 411.96063232421875 38.509464263916016 419.3950500488281 39.6950798034668 413.5295104980469 C 38.751155853271484 420.78765869140625 42.2791748046875 409.6903991699219 52.36333084106445 414.64654541015625" fill="rgb(0, 0, 0)" opacity="1.0" stroke-width="2.0"/>
    <path d="M 248.2232208251953 17.91791534423828 C 50.20035171508789 45.6085205078125 13.248844146728516 195.4970703125 238.8257293701172 83.21249389648438 C 244.51063537597656 174.66737365722656 55.296817779541016 172.86996459960938 62.266178131103516 131.94305419921875 C 276.54473876953125 116.99137878417969 297.06072998046875 3.9162375926971436 248.2232208251953 17.91791534423828" fill="rgb(251, 221, 108)" opacity="1.0" stroke-width="2.0"/>
    <path d="M 146.99937438964844 465.90399169921875 C 300.8779602050781 538.4921875 384.0572509765625 430.7740478515625 367.5498962402344 487.03369140625 C 283.60040283203125 528.0802001953125 216.1201171875 502.589599609375 280.5779724121094 518.9014892578125 C 189.82699584960938 503.1052551269531 172.52163696289062 512.509765625 145.9877471923828 464.2769775390625 C 135.06967163085938 487.0699157714844 172.12596130371094 507.0361633300781 146.99937438964844 465.90399169921875" fill="rgb(1, 0, 1)" opacity="1.0" stroke-width="2.0"/>
    <path d="M 162.21896362304688 419.6925964355469 C 62.17387008666992 422.2713623046875 61.0651969909668 387.4876403808594 41.20526885986328 353.4491271972656 C 10.561423301696777 288.13153076171875 4.654215335845947 182.4065704345703 82.84835052490234 95.57893371582031 C 188.02818298339844 115.73174285888672 180.64187622070312 127.05231475830078 162.21896362304688 419.6925964355469" fill="rgb(252, 213, 108)" opacity="1.0" stroke-width="2.0"/>
    <path d="M 448.4756164550781 86.16442108154297 C 535.5611572265625 186.7780303955078 509.5407409667969 297.0525207519531 506.627685546875 311.1766357421875 C 503.724609375 251.87744140625 482.9012756347656 189.6138458251953 492.50848388671875 249.7354736328125 C 490.1200866699219 379.7552490234375 419.9248352050781 398.0118713378906 474.625 382.4993896484375 C 511.62237548828125 314.0628356933594 529.3897094726562 328.17108154296875 448.4756164550781 86.16442108154297" fill="rgb(1, 0, 1)" opacity="1.0" stroke-width="2.0"/>
    <path d="M 64.82493591308594 39.36479568481445 C 75.24230194091797 51.27908706665039 72.53892517089844 43.73877716064453 67.30419921875 47.36675262451172 C 71.71527862548828 44.210235595703125 75.44461822509766 49.6168212890625 69.8935317993164 40.5281982421875 C 79.111083984375 52.76130294799805 74.74263000488281 58.87995910644531 78.26770782470703 52.807186126708984 C 74.99110412597656 58.16399383544922 78.94566345214844 54.49418258666992 70.5167465209961 41.21366500854492 C 70.79058837890625 40.87135314941406 78.3753890991211 53.70244598388672 64.82493591308594 39.36479568481445" fill="rgb(255, 144, 109)" opacity="1.0" stroke-width="2.0"/>
    <path d="M 500.1917724609375 335.7524108886719 C 500.7949523925781 329.7527160644531 491.2253723144531 372.45001220703125 458.95654296875 412.69183349609375 C 431.10137939453125 451.60125732421875 347.0604553222656 516.3599853515625 323.8551940917969 483.8847351074219 C 480.69671630859375 424.0248718261719 461.49609375 316.4423828125 500.1917724609375 335.7524108886719" fill="rgb(1, 0, 1)" opacity="1.0" stroke-width="2.0"/>
  </g>
</svg>
