<?xml version="1.0" ?>
<svg height="512" version="1.1" width="512" xmlns="http://www.w3.org/2000/svg">
  <defs/>
  <g>
    <path d="M 58.643218994140625 50.281856536865234 C 59.59150695800781 49.49634552001953 54.83150100708008 53.61865234375 54.15105056762695 53.976776123046875 C 36.835899353027344 68.6999282836914 31.44721031188965 73.23351287841797 32.00875473022461 72.20602416992188 C 35.9954948425293 71.48018646240234 27.952299118041992 73.9450454711914 38.0815315246582 68.47735595703125 C 31.029298782348633 71.6339340209961 22.223485946655273 81.86551666259766 58.643218994140625 50.281856536865234" fill="rgb(255, 70, 132)" opacity="1.0" stroke-width="2.0"/>
    <path d="M 182.96856689453125 503.1776123046875 C 156.95697021484375 441.4065856933594 75.0490951538086 439.2103271484375 103.8346939086914 462.7187194824219 C 156.05165100097656 497.0885925292969 148.03077697753906 486.0611572265625 91.31240844726562 467.1767272949219 C 64.53398132324219 468.006591796875 75.16780090332031 467.0452880859375 91.82684326171875 466.77545166015625 C 86.86827850341797 466.789306640625 75.4854507446289 458.6620178222656 182.96856689453125 503.1776123046875" fill="rgb(0, 13, 2)" opacity="1.0" stroke-width="2.0"/>
    <path d="M 82.78225708007812 428.5160217285156 C 118.85591125488281 190.5502166748047 163.626953125 216.79751586914062 174.8077392578125 178.2085418701172 C 187.95338439941406 182.92636108398438 198.20387268066406 207.07174682617188 481.5376281738281 167.38465881347656 C 478.6853332519531 447.9889831542969 448.4125061035156 411.2980651855469 393.38751220703125 487.98358154296875 C 142.6116943359375 498.28375244140625 143.6175537109375 481.05206298828125 82.78225708007812 428.5160217285156" fill="rgb(252, 219, 110)" opacity="1.0" stroke-width="2.0"/>
    <path d="M 422.2978515625 180.92628479003906 C 420.2154235839844 217.1302490234375 379.9657287597656 230.31015014648438 357.1786804199219 210.70758056640625 C 358.8518981933594 208.75527954101562 362.6923522949219 220.4562225341797 365.7194519042969 225.03033447265625 C 356.3814392089844 208.1616973876953 347.3781433105469 177.1248016357422 373.6772155761719 198.23748779296875 C 410.85772705078125 209.64059448242188 397.8431701660156 153.14828491210938 422.2978515625 180.92628479003906" fill="rgb(2, 1, 2)" opacity="1.0" stroke-width="2.0"/>
    <path d="M 241.46945190429688 209.43455505371094 C 221.77700805664062 223.39439392089844 186.77639770507812 232.68258666992188 163.64990234375 173.88143920898438 C 236.2794189453125 203.42019653320312 229.11553955078125 213.90074157714844 286.3941650390625 181.92977905273438 C 340.89178466796875 179.04664611816406 360.6671447753906 243.81512451171875 367.6946105957031 132.12852478027344 C 183.24996948242188 104.23159790039062 203.46749877929688 116.77694702148438 241.46945190429688 209.43455505371094" fill="rgb(47, 31, 23)" opacity="1.0" stroke-width="2.0"/>
    <path d="M 410.7855529785156 151.33355712890625 C 431.1363220214844 174.5811767578125 417.7444763183594 188.77488708496094 419.06158447265625 195.4822540283203 C 407.44775390625 180.27279663085938 407.7832946777344 145.5068817138672 346.78155517578125 166.98452758789062 C 339.98406982421875 164.02256774902344 372.8593444824219 117.98495483398438 410.7855529785156 151.33355712890625" fill="rgb(1, 1, 1)" opacity="1.0" stroke-width="2.0"/>
    <path d="M 273.7958068847656 10.971665382385254 C 376.6210632324219 5.132680892944336 341.677734375 125.91470336914062 259.3759460449219 176.81776428222656 C 206.1336212158203 118.06507873535156 182.14341735839844 9.979043006896973 238.3479766845703 -25.05672836303711 C 362.9223327636719 100.73397064208984 329.7920837402344 113.76719665527344 270.7032165527344 168.75120544433594 C 233.91087341308594 191.54428100585938 231.67401123046875 240.79129028320312 354.71533203125 251.0270233154297 C 382.76434326171875 101.08863067626953 342.27734375 108.84053802490234 273.7958068847656 10.971665382385254" fill="rgb(252, 222, 108)" opacity="1.0" stroke-width="2.0"/>
    <path d="M 83.57138061523438 95.18412017822266 C 21.020824432373047 163.87030029296875 47.93040084838867 201.77664184570312 47.7269172668457 105.68938446044922 C 38.40578079223633 121.83802795410156 -4.440859794616699 171.95309448242188 -1.2037975788116455 279.2530822753906 C 64.0031967163086 278.6131896972656 39.55107879638672 154.9091033935547 49.263370513916016 102.7067642211914 C 89.6509780883789 56.15922927856445 127.61096954345703 19.155242919921875 216.68458557128906 2.4929630756378174 C 33.334529876708984 113.84992980957031 89.17632293701172 104.45248413085938 83.57138061523438 95.18412017822266" fill="rgb(3, 2, 1)" opacity="1.0" stroke-width="2.0"/>
    <path d="M 350.20599365234375 188.362060546875 C 372.685791015625 177.46633911132812 349.50604248046875 175.45779418945312 381.65618896484375 217.5790557861328 C 366.4900207519531 222.8736572265625 324.8945617675781 199.78053283691406 350.61865234375 152.33834838867188 C 413.5720520019531 142.5380859375 353.22052001953125 166.0927734375 363.0143737792969 181.41233825683594 C 412.5683288574219 148.70114135742188 392.6249694824219 169.34109497070312 410.96917724609375 208.8030242919922 C 424.5692443847656 138.01087951660156 405.3587951660156 157.0120849609375 350.20599365234375 188.362060546875" fill="rgb(2, 2, 2)" opacity="1.0" stroke-width="2.0"/>
    <path d="M 311.9850769042969 -2.9621851444244385 C 294.78436279296875 138.78871154785156 290.39044189453125 162.3415985107422 312.364501953125 -2.7213830947875977 C 422.9403991699219 45.072967529296875 463.8358459472656 86.79875946044922 500.5961608886719 175.44712829589844 C 274.7464599609375 119.95394134521484 337.497314453125 114.14408111572266 311.9850769042969 -2.9621851444244385" fill="rgb(181, 161, 80)" opacity="1.0" stroke-width="2.0"/>
    <path d="M 294.556884765625 174.12461853027344 C 298.26092529296875 187.21182250976562 299.1865234375 188.24740600585938 289.87664794921875 157.12481689453125 C 296.5517578125 145.7217559814453 286.4152526855469 166.9265899658203 288.1756591796875 146.647705078125 C 297.476806640625 186.88265991210938 299.6712646484375 186.79714965820312 299.6611022949219 186.77674865722656 C 287.5272521972656 169.40322875976562 310.0549621582031 171.94699096679688 293.17474365234375 174.9896240234375 C 303.30023193359375 177.16758728027344 311.0070495605469 183.29258728027344 294.556884765625 174.12461853027344" fill="rgb(255, 183, 111)" opacity="1.0" stroke-width="2.0"/>
    <path d="M 20.778615951538086 282.8256530761719 C 43.31507873535156 407.52685546875 93.6036148071289 394.9208679199219 64.009765625 426.9133605957031 C 69.615478515625 391.46417236328125 63.917381286621094 399.7892761230469 106.2467269897461 439.139404296875 C 158.55213928222656 474.190185546875 167.557373046875 478.4905700683594 111.36910247802734 468.2392272949219 C 78.83983612060547 398.41796875 27.169221878051758 425.19012451171875 2.3800625801086426 296.79931640625 C -6.295344352722168 246.66305541992188 30.25096893310547 231.38304138183594 20.778615951538086 282.8256530761719" fill="rgb(2, 1, 1)" opacity="1.0" stroke-width="2.0"/>
    <path d="M 81.60089874267578 507.0354309082031 C 78.46723175048828 503.34027099609375 86.5914306640625 510.96453857421875 90.92068481445312 525.2888793945312 C 94.52307891845703 517.6455078125 101.7246322631836 508.1157531738281 93.79310607910156 518.1438598632812 C 101.23851013183594 507.4783020019531 96.19678497314453 514.022216796875 94.2725601196289 518.0787963867188 C 92.38845825195312 508.1036682128906 90.49079132080078 523.9153442382812 90.8976821899414 516.9140014648438 C 83.19894409179688 529.0094604492188 94.88617706298828 524.5112915039062 81.60089874267578 507.0354309082031" fill="rgb(151, 179, 242)" opacity="1.0" stroke-width="2.0"/>
    <path d="M 49.4232292175293 412.2689208984375 C 84.5890884399414 440.5339050292969 52.5877571105957 428.00146484375 18.942548751831055 355.310546875 C 45.92287826538086 365.1214904785156 77.96944427490234 403.28173828125 110.20280456542969 467.4878845214844 C 51.23415756225586 424.00408935546875 55.72123336791992 402.58099365234375 39.56380081176758 416.717529296875 C 40.33613967895508 417.6903076171875 40.6003532409668 413.50634765625 40.994022369384766 411.79541015625 C 39.64995193481445 420.9780578613281 39.72405242919922 412.0356750488281 49.4232292175293 412.2689208984375" fill="rgb(1, 1, 1)" opacity="1.0" stroke-width="2.0"/>
    <path d="M 234.8921661376953 -8.459918975830078 C 51.838260650634766 102.79405975341797 -11.7303466796875 156.6367950439453 230.71334838867188 90.52487182617188 C 245.8229522705078 211.74172973632812 85.6448974609375 219.89105224609375 63.58546447753906 118.34835052490234 C 280.5655212402344 122.50749969482422 290.9544982910156 -16.208715438842773 234.8921661376953 -8.459918975830078" fill="rgb(215, 189, 94)" opacity="1.0" stroke-width="2.0"/>
    <path d="M 152.5316619873047 469.2677917480469 C 310.1669006347656 534.113525390625 372.237060546875 433.92108154296875 365.0572509765625 488.7535400390625 C 268.6156005859375 529.7100219726562 228.87283325195312 500.59521484375 271.1281433105469 517.7655639648438 C 189.45545959472656 501.9895324707031 177.79920959472656 515.7559204101562 144.95921325683594 459.86407470703125 C 136.41262817382812 489.0602111816406 167.3701934814453 508.1300354003906 152.5316619873047 469.2677917480469" fill="rgb(2, 1, 1)" opacity="1.0" stroke-width="2.0"/>
    <path d="M 180.42832946777344 404.7993469238281 C 34.947967529296875 406.9216613769531 53.82499694824219 375.9072570800781 40.34978485107422 334.8185119628906 C 10.071927070617676 314.37066650390625 10.634190559387207 177.03253173828125 63.5334587097168 124.84281158447266 C 176.32411193847656 138.73516845703125 189.7404022216797 137.45164489746094 180.42832946777344 404.7993469238281" fill="rgb(252, 214, 108)" opacity="1.0" stroke-width="2.0"/>
    <path d="M 474.7813415527344 135.79078674316406 C 530.9165649414062 219.5498809814453 513.2719116210938 263.1612548828125 504.2617492675781 325.9462585449219 C 494.69482421875 269.8035583496094 493.4684753417969 230.70391845703125 487.97412109375 301.77288818359375 C 463.73626708984375 397.90472412109375 429.6601867675781 394.6902160644531 473.8327941894531 378.65289306640625 C 520.4468994140625 306.3763427734375 502.81695556640625 360.6385498046875 474.7813415527344 135.79078674316406" fill="rgb(9, 9, 12)" opacity="1.0" stroke-width="2.0"/>
    <path d="M 64.78421783447266 38.69789123535156 C 75.86402893066406 52.149723052978516 71.24667358398438 44.69515609741211 65.07275390625 46.96589660644531 C 69.8358154296875 45.19559860229492 75.84652709960938 49.6521110534668 67.08451080322266 42.414955139160156 C 79.85848236083984 52.96342849731445 76.1028823852539 57.75769805908203 75.30561828613281 60.476890563964844 C 74.51093292236328 60.25625991821289 81.88118743896484 53.506317138671875 67.86315155029297 43.71599578857422 C 66.4289779663086 42.17441940307617 78.47805786132812 55.18246841430664 64.78421783447266 38.69789123535156" fill="rgb(255, 136, 103)" opacity="1.0" stroke-width="2.0"/>
    <path d="M 497.6708984375 343.3312072753906 C 501.53570556640625 328.77215576171875 489.7538146972656 373.706787109375 460.45172119140625 410.84295654296875 C 432.53314208984375 449.9599609375 355.5439453125 511.28289794921875 325.9688720703125 485.9957580566406 C 495.7104797363281 405.9598388671875 450.70367431640625 325.1949768066406 497.6708984375 343.3312072753906" fill="rgb(0, 0, 2)" opacity="1.0" stroke-width="2.0"/>
  </g>
</svg>
