<?xml version="1.0" ?>
<svg height="512" version="1.1" width="512" xmlns="http://www.w3.org/2000/svg">
  <defs/>
  <g>
    <path d="M 58.760719299316406 50.740901947021484 C 59.17085266113281 50.328033447265625 54.86410903930664 54.12034606933594 54.30775833129883 54.2944221496582 C 37.22260665893555 69.03013610839844 31.55076789855957 72.97623443603516 32.47447967529297 72.43609619140625 C 34.438377380371094 70.53704071044922 29.835494995117188 74.9823226928711 37.360084533691406 68.3211441040039 C 32.988094329833984 72.55731964111328 21.893924713134766 81.22994232177734 58.760719299316406 50.740901947021484" fill="rgb(255, 76, 139)" opacity="1.0" stroke-width="2.0"/>
    <path d="M 182.69557189941406 502.7023010253906 C 157.57485961914062 441.18560791015625 76.70359802246094 438.2906494140625 107.02285766601562 465.111572265625 C 156.7503662109375 497.3386535644531 155.25665283203125 489.3798828125 89.79525756835938 467.1566467285156 C 66.09691619873047 466.5670166015625 77.64124298095703 466.7906188964844 88.824462890625 467.3250427246094 C 89.1263427734375 467.9555358886719 75.05120849609375 459.3333435058594 182.69557189941406 502.7023010253906" fill="rgb(1, 3, 1)" opacity="1.0" stroke-width="2.0"/>
    <path d="M 68.2815170288086 413.088134765625 C 114.12747955322266 184.65203857421875 161.62448120117188 213.5432891845703 197.2252197265625 162.4370574951172 C 189.1721954345703 181.44479370117188 206.10580444335938 216.4748077392578 497.27117919921875 159.21949768066406 C 496.9598388671875 468.8435363769531 452.4813232421875 391.6971435546875 365.8990478515625 485.037353515625 C 152.6084442138672 504.78741455078125 154.95628356933594 480.41168212890625 68.2815170288086 413.088134765625" fill="rgb(252, 220, 110)" opacity="1.0" stroke-width="2.0"/>
    <path d="M 422.2370300292969 180.23443603515625 C 420.673095703125 216.77383422851562 380.5939025878906 230.83154296875 356.7623291015625 210.60635375976562 C 359.5047607421875 207.95254516601562 362.9192810058594 219.68569946289062 365.9484558105469 224.53939819335938 C 356.65533447265625 206.9568634033203 347.1302490234375 174.10093688964844 372.89422607421875 198.3417205810547 C 413.8401184082031 209.69126892089844 394.5983581542969 152.0049285888672 422.2370300292969 180.23443603515625" fill="rgb(2, 1, 3)" opacity="1.0" stroke-width="2.0"/>
    <path d="M 248.5635986328125 197.30523681640625 C 234.6885528564453 236.67808532714844 143.16390991210938 229.0955047607422 183.1808624267578 133.50396728515625 C 208.22132873535156 231.23046875 181.5155792236328 195.13119506835938 291.90631103515625 182.63604736328125 C 340.82672119140625 178.4993438720703 359.8564758300781 243.18661499023438 356.91619873046875 140.51951599121094 C 163.240234375 114.44320678710938 185.7305908203125 121.88426971435547 248.5635986328125 197.30523681640625" fill="rgb(10, 12, 11)" opacity="1.0" stroke-width="2.0"/>
    <path d="M 410.8729553222656 151.79116821289062 C 430.436279296875 173.56991577148438 418.8370361328125 192.0416717529297 416.8233337402344 199.2665557861328 C 396.03460693359375 178.08033752441406 405.2939147949219 141.11473083496094 350.9100646972656 171.77264404296875 C 338.7377014160156 163.55079650878906 373.6567077636719 118.56763458251953 410.8729553222656 151.79116821289062" fill="rgb(3, 2, 1)" opacity="1.0" stroke-width="2.0"/>
    <path d="M 285.5083923339844 10.799670219421387 C 399.1991271972656 27.25598907470703 348.56988525390625 114.68805694580078 251.70571899414062 161.4810333251953 C 185.4043731689453 112.22724151611328 173.96316528320312 30.326217651367188 234.82533264160156 -7.959039688110352 C 401.6811218261719 49.25956344604492 356.46466064453125 98.27058410644531 261.4719543457031 157.61216735839844 C 238.47024536132812 155.05137634277344 250.74716186523438 238.61802673339844 340.10137939453125 224.9238739013672 C 417.7490539550781 67.8128890991211 377.10968017578125 69.20465850830078 285.5083923339844 10.799670219421387" fill="rgb(252, 222, 109)" opacity="1.0" stroke-width="2.0"/>
    <path d="M 84.63059997558594 94.25602722167969 C 23.561847686767578 160.23046875 48.34303665161133 209.5061798095703 47.371246337890625 106.2258529663086 C 38.57540512084961 121.03936767578125 -5.594996452331543 174.91769409179688 -0.739594042301178 279.0240173339844 C 56.70074462890625 279.1063232421875 43.09236145019531 158.10301208496094 47.93941879272461 105.71228790283203 C 76.09468078613281 65.39640808105469 159.90533447265625 -14.379560470581055 280.2767028808594 3.448824167251587 C 25.6533145904541 69.69918060302734 142.19766235351562 97.29761505126953 84.63059997558594 94.25602722167969" fill="rgb(3, 2, 2)" opacity="1.0" stroke-width="2.0"/>
    <path d="M 350.4534912109375 188.58035278320312 C 372.1391906738281 176.88818359375 350.1324157714844 178.66014099121094 379.5019836425781 210.11473083496094 C 362.6552734375 234.7950439453125 312.6755676269531 174.49661254882812 365.9906005859375 142.46543884277344 C 422.12274169921875 131.80389404296875 354.8493957519531 164.08309936523438 362.74615478515625 181.0634307861328 C 414.58892822265625 152.18719482421875 392.6236572265625 162.4248504638672 409.5568542480469 208.5316162109375 C 426.7535400390625 144.36581420898438 401.02801513671875 157.35894775390625 350.4534912109375 188.58035278320312" fill="rgb(1, 1, 1)" opacity="1.0" stroke-width="2.0"/>
    <path d="M 312.77459716796875 24.91029930114746 C 295.1761474609375 129.75888061523438 292.0044250488281 160.21107482910156 314.9565734863281 7.818568229675293 C 411.65118408203125 29.3753604888916 476.4389953613281 97.53575134277344 504.8404846191406 189.8958740234375 C 315.2291564941406 135.13975524902344 381.87646484375 67.66020965576172 312.77459716796875 24.91029930114746" fill="rgb(174, 154, 78)" opacity="1.0" stroke-width="2.0"/>
    <path d="M 295.3082580566406 174.38735961914062 C 298.731689453125 187.29537963867188 299.5751647949219 188.12353515625 293.0400695800781 150.6320343017578 C 284.26397705078125 138.0628662109375 268.1936340332031 158.26388549804688 291.3162841796875 132.97396850585938 C 298.6243591308594 185.92762756347656 298.88580322265625 186.85614013671875 300.1669616699219 186.16903686523438 C 288.0926513671875 169.573486328125 308.7763977050781 171.99945068359375 293.92724609375 174.81716918945312 C 302.9643859863281 177.03379821777344 310.9772644042969 183.10414123535156 295.3082580566406 174.38735961914062" fill="rgb(253, 207, 109)" opacity="1.0" stroke-width="2.0"/>
    <path d="M 21.89812660217285 284.2247009277344 C 42.09941864013672 403.5370178222656 94.1990966796875 397.5046691894531 64.25237274169922 427.987060546875 C 73.59730529785156 387.2873840332031 61.05694580078125 401.43084716796875 110.32211303710938 441.55224609375 C 161.6833953857422 480.4885559082031 182.01565551757812 471.05413818359375 112.27369689941406 468.636962890625 C 80.96662139892578 399.3449401855469 25.01116943359375 420.3382263183594 2.7152271270751953 297.20233154296875 C -6.35526704788208 245.94171142578125 25.90665626525879 231.1991424560547 21.89812660217285 284.2247009277344" fill="rgb(2, 1, 1)" opacity="1.0" stroke-width="2.0"/>
    <path d="M 81.34523010253906 507.7518615722656 C 77.82994842529297 504.7732238769531 86.27175903320312 511.6836853027344 90.8404312133789 525.5698852539062 C 94.52173614501953 517.6522216796875 101.721923828125 508.1291809082031 93.79763793945312 518.1727294921875 C 101.24073028564453 507.472412109375 96.19739532470703 514.019287109375 94.27278137207031 518.0782470703125 C 92.38845825195312 508.1036682128906 90.49079132080078 523.9153442382812 90.91646575927734 516.9099731445312 C 83.14647674560547 529.119384765625 94.39969635009766 525.115966796875 81.34523010253906 507.7518615722656" fill="rgb(152, 180, 244)" opacity="1.0" stroke-width="2.0"/>
    <path d="M 51.086647033691406 413.6667175292969 C 85.92744445800781 443.2021179199219 49.59315490722656 423.6628112792969 18.978885650634766 354.6480407714844 C 43.56570816040039 367.5438232421875 80.03015899658203 402.653076171875 110.92874145507812 467.4947509765625 C 52.50088119506836 426.13690185546875 56.938323974609375 401.989990234375 37.54596710205078 417.7955627441406 C 42.43492889404297 414.843017578125 38.76784133911133 417.3262939453125 39.92143630981445 412.8594055175781 C 38.84218215942383 420.7722473144531 41.191375732421875 410.62103271484375 51.086647033691406 413.6667175292969" fill="rgb(1, 0, 1)" opacity="1.0" stroke-width="2.0"/>
    <path d="M 248.79978942871094 12.635361671447754 C 45.871280670166016 63.433406829833984 9.738502502441406 176.69862365722656 234.6516876220703 82.92927551269531 C 250.28363037109375 195.18328857421875 78.84400939941406 191.87222290039062 64.49381256103516 120.63501739501953 C 281.4374084472656 119.6352310180664 296.0292663574219 -13.147090911865234 248.79978942871094 12.635361671447754" fill="rgb(238, 209, 102)" opacity="1.0" stroke-width="2.0"/>
    <path d="M 147.3218536376953 466.0507507324219 C 300.5439453125 537.9229125976562 380.0140075683594 432.2811584472656 366.9849548339844 487.2650146484375 C 278.79119873046875 528.6222534179688 220.9461212158203 501.365966796875 277.21441650390625 519.0767211914062 C 189.10780334472656 502.1088562011719 175.30445861816406 514.0728149414062 145.81405639648438 464.243896484375 C 135.0428466796875 487.0869140625 172.25442504882812 506.8255920410156 147.3218536376953 466.0507507324219" fill="rgb(1, 0, 1)" opacity="1.0" stroke-width="2.0"/>
    <path d="M 171.8810577392578 415.7508239746094 C 51.139488220214844 420.2799987792969 62.79021453857422 384.4859924316406 39.91877365112305 350.97955322265625 C 11.267252922058105 284.350830078125 6.549178123474121 190.92108154296875 73.64971923828125 105.96707153320312 C 182.0114288330078 122.77626037597656 185.93251037597656 131.62632751464844 171.8810577392578 415.7508239746094" fill="rgb(252, 213, 108)" opacity="1.0" stroke-width="2.0"/>
    <path d="M 460.7728576660156 102.61831665039062 C 531.50244140625 193.98753356933594 510.9844970703125 295.2341003417969 505.7619934082031 313.3434143066406 C 498.3977966308594 250.22772216796875 490.012939453125 213.17379760742188 491.76123046875 277.9968566894531 C 472.6619567871094 398.4045715332031 426.3797912597656 394.09954833984375 471.3009338378906 379.1360168457031 C 517.212158203125 309.1173095703125 518.3157958984375 346.49151611328125 460.7728576660156 102.61831665039062" fill="rgb(2, 1, 1)" opacity="1.0" stroke-width="2.0"/>
    <path d="M 66.31613159179688 37.81206512451172 C 77.62065887451172 51.13947677612305 71.69566345214844 45.062583923339844 65.54662322998047 46.90448760986328 C 71.51592254638672 45.277618408203125 76.12894439697266 50.219818115234375 67.69436645507812 41.97319793701172 C 79.66085052490234 52.697906494140625 75.77938842773438 59.5804557800293 78.27853393554688 59.5013427734375 C 75.29621887207031 59.34600067138672 80.40833282470703 54.800376892089844 68.73405456542969 42.26936721801758 C 67.98389434814453 41.7220344543457 79.46151733398438 53.94131851196289 66.31613159179688 37.81206512451172" fill="rgb(255, 139, 105)" opacity="1.0" stroke-width="2.0"/>
    <path d="M 499.4102478027344 337.5984191894531 C 501.07501220703125 329.76788330078125 490.967041015625 372.44964599609375 459.6771545410156 411.7912292480469 C 432.3369140625 450.5986328125 349.8846435546875 515.0248413085938 324.5513000488281 484.8179016113281 C 486.4747314453125 416.8288269042969 456.5766906738281 321.5348205566406 499.4102478027344 337.5984191894531" fill="rgb(1, 1, 1)" opacity="1.0" stroke-width="2.0"/>
  </g>
</svg>
