<?xml version="1.0" ?>
<svg height="512" version="1.1" width="512" xmlns="http://www.w3.org/2000/svg">
  <defs/>
  <g>
    <path d="M 58.47919845581055 49.23318099975586 C 59.266483306884766 47.34955596923828 53.491851806640625 52.71384048461914 53.67933654785156 53.93996810913086 C 35.83149337768555 67.77671813964844 27.19438362121582 74.63146209716797 34.04833221435547 75.81595611572266 C 31.62568473815918 68.22348022460938 25.134580612182617 72.61365509033203 41.70654296875 70.90950775146484 C 29.93342399597168 70.44029998779297 21.326581954956055 81.83574676513672 58.47919845581055 49.23318099975586" fill="rgb(254, 58, 119)" opacity="1.0" stroke-width="2.0"/>
    <path d="M 157.75515747070312 481.28399658203125 C 151.8837432861328 453.3662109375 118.35287475585938 462.17681884765625 99.07994842529297 478.0281066894531 C 108.34957122802734 475.79205322265625 93.96818542480469 475.66754150390625 85.4383316040039 475.25286865234375 C 63.85427474975586 477.9819641113281 72.89505004882812 478.73004150390625 80.01030731201172 474.6793518066406 C 65.86670684814453 480.257568359375 72.02413940429688 469.64764404296875 157.75515747070312 481.28399658203125" fill="rgb(74, 199, 51)" opacity="1.0" stroke-width="2.0"/>
    <path d="M 221.58445739746094 319.1322326660156 C 219.87086486816406 257.9855041503906 230.93295288085938 267.44049072265625 234.56268310546875 257.0933532714844 C 241.5045928955078 255.2132110595703 240.15919494628906 249.2701416015625 311.21331787109375 247.72201538085938 C 318.60748291015625 323.45599365234375 308.4620361328125 333.1470642089844 301.17987060546875 342.1033020019531 C 232.9545135498047 333.9390869140625 223.3050079345703 338.7621765136719 221.58445739746094 319.1322326660156" fill="rgb(253, 221, 130)" opacity="1.0" stroke-width="2.0"/>
    <path d="M 433.26239013671875 198.22291564941406 C 397.869140625 217.03793334960938 389.6490173339844 225.23223876953125 359.64031982421875 216.99435424804688 C 351.8951110839844 224.37908935546875 364.6200256347656 223.99676513671875 363.5145263671875 228.84771728515625 C 353.20977783203125 220.22340393066406 350.4256591796875 210.31686401367188 366.79180908203125 203.4285430908203 C 405.4916687011719 190.38232421875 413.1907958984375 170.74156188964844 433.26239013671875 198.22291564941406" fill="rgb(98, 62, 68)" opacity="1.0" stroke-width="2.0"/>
    <path d="M 266.0478820800781 266.76202392578125 C 261.57415771484375 238.62405395507812 262.67205810546875 223.12648010253906 258.71575927734375 237.08642578125 C 270.6318359375 222.3935089111328 270.222412109375 231.14349365234375 298.017333984375 259.89813232421875 C 317.1579895019531 250.7292022705078 309.8894348144531 251.2216339111328 317.2997741699219 199.51165771484375 C 280.8779296875 192.49720764160156 292.9732971191406 217.34185791015625 266.0478820800781 266.76202392578125" fill="rgb(189, 228, 135)" opacity="1.0" stroke-width="2.0"/>
    <path d="M 419.3549499511719 147.8029327392578 C 421.7214660644531 175.3709716796875 416.1143493652344 169.5217742919922 414.1390380859375 170.61898803710938 C 416.6617736816406 171.73313903808594 414.72467041015625 164.75234985351562 349.49237060546875 166.7263641357422 C 349.3528747558594 147.55377197265625 355.9548034667969 128.3989715576172 419.3549499511719 147.8029327392578" fill="rgb(37, 75, 32)" opacity="1.0" stroke-width="2.0"/>
    <path d="M 308.2813415527344 100.39230346679688 C 312.82391357421875 120.7358169555664 309.6561584472656 130.0860595703125 307.35699462890625 134.60540771484375 C 315.5683288574219 137.9925537109375 301.0616760253906 118.63499450683594 308.8097839355469 105.90467071533203 C 311.73187255859375 138.81912231445312 307.75811767578125 149.11502075195312 307.4425048828125 153.78567504882812 C 307.59942626953125 156.67547607421875 308.0765380859375 170.59315490722656 304.0387268066406 172.86172485351562 C 310.9466552734375 157.93016052246094 308.77545166015625 163.74876403808594 308.2813415527344 100.39230346679688" fill="rgb(140, 125, 136)" opacity="1.0" stroke-width="2.0"/>
    <path d="M 71.5125503540039 108.49176025390625 C 67.11700439453125 152.49380493164062 58.80869674682617 144.38150024414062 44.74543762207031 118.40798950195312 C 32.20132064819336 122.37934875488281 14.45128059387207 165.4821319580078 12.091962814331055 179.27874755859375 C 79.7911605834961 172.63929748535156 65.3923568725586 149.000732421875 37.786277770996094 108.27110290527344 C 51.663265228271484 87.22638702392578 93.2154312133789 95.69074249267578 80.47954559326172 97.3949203491211 C 62.04144287109375 141.01443481445312 85.15958404541016 153.76739501953125 71.5125503540039 108.49176025390625" fill="rgb(79, 129, 91)" opacity="1.0" stroke-width="2.0"/>
    <path d="M 338.40765380859375 192.9895782470703 C 361.4624328613281 181.44146728515625 385.0990295410156 180.50872802734375 365.3766784667969 211.74215698242188 C 346.0987548828125 211.70721435546875 340.516845703125 221.36964416503906 338.99774169921875 164.01890563964844 C 382.6514892578125 167.6672821044922 374.9762878417969 184.29566955566406 375.7124938964844 178.05577087402344 C 382.3823547363281 170.9665985107422 377.793212890625 178.693603515625 430.4444580078125 196.63919067382812 C 424.8976135253906 145.0990753173828 409.1842956542969 166.5465087890625 338.40765380859375 192.9895782470703" fill="rgb(56, 122, 96)" opacity="1.0" stroke-width="2.0"/>
    <path d="M 321.0091552734375 95.10360717773438 C 319.87701416015625 133.77578735351562 320.8512268066406 145.17076110839844 322.37982177734375 109.78404235839844 C 329.1334228515625 121.9576416015625 319.2847900390625 129.9011993408203 330.8711853027344 130.55181884765625 C 319.8735046386719 138.9904022216797 322.1407775878906 125.05795288085938 321.0091552734375 95.10360717773438" fill="rgb(255, 97, 91)" opacity="1.0" stroke-width="2.0"/>
    <path d="M 301.25323486328125 181.00778198242188 C 298.3823547363281 194.2246856689453 306.31591796875 190.17852783203125 301.3464660644531 175.46983337402344 C 301.8077087402344 171.04652404785156 294.26226806640625 182.71519470214844 298.39056396484375 167.70706176757812 C 299.28533935546875 184.47674560546875 298.1832580566406 182.39483642578125 298.5788269042969 192.06346130371094 C 300.251953125 181.39297485351562 321.0227355957031 182.04237365722656 303.3689270019531 180.7391357421875 C 309.5037536621094 176.5100860595703 314.7358703613281 180.64022827148438 301.25323486328125 181.00778198242188" fill="rgb(194, 74, 94)" opacity="1.0" stroke-width="2.0"/>
    <path d="M 64.39695739746094 385.3965148925781 C 66.33931732177734 404.2599182128906 63.101295471191406 416.9122619628906 73.11398315429688 404.7874755859375 C 76.03683471679688 390.7052917480469 72.42540740966797 400.9761657714844 84.8919677734375 406.5050964355469 C 102.20785522460938 437.5582580566406 104.51670837402344 450.0163269042969 70.7957534790039 438.3091735839844 C 67.44176483154297 409.57550048828125 53.81022262573242 419.61871337890625 26.627962112426758 373.3539123535156 C 36.525657653808594 362.1523742675781 39.85892868041992 352.8030700683594 64.39695739746094 385.3965148925781" fill="rgb(46, 168, 155)" opacity="1.0" stroke-width="2.0"/>
    <path d="M 81.40613555908203 505.8644714355469 C 78.23110961914062 501.6021728515625 86.57742309570312 510.0514831542969 90.12351989746094 523.4081420898438 C 92.39095306396484 513.7202758789062 101.50166320800781 503.40814208984375 99.17744445800781 506.367431640625 C 100.96621704101562 503.3896179199219 95.16383361816406 511.38720703125 92.90260314941406 516.1420288085938 C 92.3848648071289 508.0992736816406 90.39127349853516 523.8035888671875 91.06932067871094 516.7001953125 C 83.12721252441406 529.2037963867188 94.79334259033203 524.67724609375 81.40613555908203 505.8644714355469" fill="rgb(144, 171, 231)" opacity="1.0" stroke-width="2.0"/>
    <path d="M 41.25421142578125 414.4963684082031 C 67.78076934814453 423.8244323730469 59.63761901855469 427.14794921875 28.616884231567383 375.4523620605469 C 66.58333587646484 379.3996276855469 83.33642578125 389.187255859375 89.901123046875 441.56292724609375 C 54.17408752441406 418.1559753417969 36.99859619140625 412.34478759765625 38.58456039428711 411.52984619140625 C 38.832550048828125 424.21820068359375 39.289615631103516 408.7702331542969 39.75822067260742 406.8583984375 C 38.57839584350586 418.7685852050781 35.398494720458984 412.5038146972656 41.25421142578125 414.4963684082031" fill="rgb(42, 38, 47)" opacity="1.0" stroke-width="2.0"/>
    <path d="M 143.78919982910156 61.58893585205078 C 124.5230484008789 100.24240112304688 122.82701873779297 117.91561889648438 159.10926818847656 89.87051391601562 C 159.75840759277344 121.28575134277344 136.6129608154297 125.47066497802734 142.04898071289062 94.4924545288086 C 167.36767578125 111.9599609375 155.30938720703125 130.98025512695312 143.78919982910156 61.58893585205078" fill="rgb(255, 144, 114)" opacity="1.0" stroke-width="2.0"/>
    <path d="M 189.2118377685547 465.0899353027344 C 246.21763610839844 480.1757507324219 259.53594970703125 459.2132263183594 266.97808837890625 509.54388427734375 C 252.38787841796875 518.94287109375 237.1880340576172 521.240234375 225.85787963867188 530.2837524414062 C 200.7513427734375 512.6928100585938 191.91433715820312 524.517333984375 176.7600860595703 469.6470642089844 C 168.89193725585938 509.08819580078125 180.94386291503906 520.8870239257812 189.2118377685547 465.0899353027344" fill="rgb(111, 90, 54)" opacity="1.0" stroke-width="2.0"/>
    <path d="M 147.82119750976562 257.36968994140625 C 128.58370971679688 244.3434600830078 129.85891723632812 243.0828857421875 146.4056854248047 240.99537658691406 C 125.32829284667969 241.79998779296875 118.48677062988281 231.40081787109375 139.69192504882812 237.5995635986328 C 127.94703674316406 237.99229431152344 136.4388885498047 216.58370971679688 147.82119750976562 257.36968994140625" fill="rgb(148, 227, 165)" opacity="1.0" stroke-width="2.0"/>
    <path d="M 486.7018127441406 276.3721008300781 C 525.3175659179688 277.3043518066406 508.8149719238281 281.55194091796875 502.5224914550781 333.0600891113281 C 494.3041076660156 325.4878234863281 491.6318054199219 289.9635314941406 476.941650390625 335.9709167480469 C 468.6970520019531 361.2626037597656 467.3262939453125 355.3716735839844 490.4996337890625 359.91473388671875 C 513.7200927734375 310.882080078125 484.0479431152344 335.5899353027344 486.7018127441406 276.3721008300781" fill="rgb(30, 65, 161)" opacity="1.0" stroke-width="2.0"/>
    <path d="M 61.57377243041992 40.46477127075195 C 71.02742767333984 50.976951599121094 77.97257995605469 41.08393478393555 62.653255462646484 47.694183349609375 C 68.98464965820312 43.679195404052734 75.0214614868164 51.738121032714844 66.22535705566406 41.061012268066406 C 80.59172058105469 54.98616027832031 76.47722625732422 54.81491470336914 75.19096374511719 61.11750030517578 C 73.07659149169922 63.42506408691406 82.1697006225586 54.41626739501953 69.81085205078125 44.8073616027832 C 69.00524139404297 47.676979064941406 83.03247833251953 56.08454132080078 61.57377243041992 40.46477127075195" fill="rgb(255, 128, 94)" opacity="1.0" stroke-width="2.0"/>
    <path d="M 496.3194274902344 364.73992919921875 C 486.80169677734375 355.1965637207031 486.6032409667969 379.0360107421875 466.4776916503906 401.62261962890625 C 453.32586669921875 426.2330627441406 444.2133483886719 426.9330749511719 429.75506591796875 423.1654968261719 C 445.3274841308594 361.4763488769531 480.7171936035156 344.7499084472656 496.3194274902344 364.73992919921875" fill="rgb(104, 46, 16)" opacity="1.0" stroke-width="2.0"/>
  </g>
</svg>
