<?xml version="1.0" ?>
<svg height="512" version="1.1" width="512" xmlns="http://www.w3.org/2000/svg">
  <defs/>
  <g>
    <path d="M 59.288150787353516 51.723995208740234 C 57.17973327636719 53.46165084838867 53.9770393371582 56.14860916137695 55.0009651184082 55.27230453491211 C 38.01713180541992 69.8970947265625 33.79806900024414 74.16058349609375 35.86590576171875 72.01609802246094 C 37.33243179321289 70.53841400146484 32.0589485168457 75.25523376464844 38.666831970214844 69.95176696777344 C 37.307838439941406 70.75393676757812 23.97617530822754 81.38076782226562 59.288150787353516 51.723995208740234" fill="rgb(255, 101, 167)" opacity="1.0" stroke-width="2.0"/>
    <path d="M 182.73951721191406 502.5867004394531 C 158.46754455566406 440.99517822265625 77.24484252929688 437.7378234863281 109.52928161621094 466.8572082519531 C 156.38272094726562 496.9432067871094 163.1947479248047 492.3055725097656 90.5578384399414 467.7794189453125 C 68.13182830810547 467.1175231933594 81.36776733398438 467.5861511230469 89.70277404785156 467.81231689453125 C 90.21037292480469 468.9456481933594 74.69344329833984 459.8828125 182.73951721191406 502.5867004394531" fill="rgb(1, 1, 1)" opacity="1.0" stroke-width="2.0"/>
    <path d="M 65.90474700927734 410.01849365234375 C 111.92960357666016 167.5334930419922 138.74862670898438 141.72056579589844 232.81985473632812 131.26849365234375 C 178.24462890625 214.0650634765625 74.34502410888672 207.34071350097656 482.2813720703125 129.70033264160156 C 517.794677734375 461.90576171875 459.1186828613281 382.7019348144531 365.6512451171875 485.4103088378906 C 156.07199096679688 504.8230895996094 157.21327209472656 479.4434814453125 65.90474700927734 410.01849365234375" fill="rgb(251, 220, 111)" opacity="1.0" stroke-width="2.0"/>
    <path d="M 422.3213195800781 180.76170349121094 C 420.48699951171875 215.57546997070312 380.9598693847656 232.16964721679688 355.12744140625 209.255859375 C 358.545166015625 204.8943634033203 361.4021911621094 216.6009521484375 364.8458251953125 223.40872192382812 C 357.395263671875 205.9064178466797 344.3888854980469 180.4736328125 375.4922790527344 199.17172241210938 C 413.13092041015625 207.29025268554688 396.8344421386719 150.2728271484375 422.3213195800781 180.76170349121094" fill="rgb(2, 1, 2)" opacity="1.0" stroke-width="2.0"/>
    <path d="M 253.40591430664062 186.6459503173828 C 225.50482177734375 266.9130859375 115.48387908935547 184.5015869140625 211.87940979003906 130.0741729736328 C 165.5797576904297 215.00491333007812 219.3925018310547 222.26710510253906 276.3804016113281 148.99620056152344 C 350.8395080566406 153.4482879638672 363.08245849609375 208.83038330078125 358.5821838378906 146.12075805664062 C 158.58624267578125 132.22891235351562 183.35842895507812 137.47305297851562 253.40591430664062 186.6459503173828" fill="rgb(6, 5, 6)" opacity="1.0" stroke-width="2.0"/>
    <path d="M 410.94146728515625 151.90142822265625 C 429.5486755371094 171.23406982421875 420.4960021972656 197.81997680664062 412.9293212890625 200.2419891357422 C 399.272705078125 179.00340270996094 404.3423767089844 140.308349609375 351.0101318359375 171.85166931152344 C 338.6061706542969 164.793212890625 376.9295349121094 119.24319458007812 410.94146728515625 151.90142822265625" fill="rgb(1, 1, 2)" opacity="1.0" stroke-width="2.0"/>
    <path d="M 299.7455139160156 11.991592407226562 C 409.5389099121094 54.96380615234375 347.74566650390625 101.35100555419922 242.7063751220703 150.87181091308594 C 164.44619750976562 111.59478759765625 165.82972717285156 43.696815490722656 232.87985229492188 -4.988734245300293 C 424.7837829589844 37.84767532348633 369.56597900390625 91.63518524169922 240.20767211914062 151.9995880126953 C 258.2580261230469 151.06565856933594 255.46951293945312 282.90240478515625 366.05810546875 144.87466430664062 C 541.0730590820312 145.96900939941406 463.5191345214844 95.85983276367188 299.7455139160156 11.991592407226562" fill="rgb(251, 222, 109)" opacity="1.0" stroke-width="2.0"/>
    <path d="M 96.1137466430664 82.78739166259766 C 25.02940559387207 150.53781127929688 52.47379684448242 216.4580841064453 47.41245651245117 106.37919616699219 C 38.723175048828125 120.2177505493164 -6.986662864685059 178.66754150390625 -0.12622934579849243 278.9772644042969 C 47.20891571044922 279.0871276855469 50.22373580932617 155.88914489746094 47.33181381225586 110.49716186523438 C 71.05744171142578 55.70220184326172 207.18019104003906 -31.15410614013672 279.6303405761719 14.36580753326416 C 39.856361389160156 40.601219177246094 186.79159545898438 105.64876556396484 96.1137466430664 82.78739166259766" fill="rgb(3, 2, 2)" opacity="1.0" stroke-width="2.0"/>
    <path d="M 349.4058837890625 185.18527221679688 C 375.580810546875 171.256591796875 347.3814392089844 182.61077880859375 377.7841796875 201.9080047607422 C 353.6766052246094 240.7202606201172 312.13818359375 155.68458557128906 377.2741394042969 139.52316284179688 C 435.0365905761719 143.28549194335938 360.3533630371094 153.5357208251953 362.40728759765625 178.30918884277344 C 416.6716003417969 150.16818237304688 396.0378112792969 162.9530487060547 404.5826110839844 209.4907684326172 C 425.3824157714844 143.22372436523438 401.3629455566406 157.46844482421875 349.4058837890625 185.18527221679688" fill="rgb(1, 1, 2)" opacity="1.0" stroke-width="2.0"/>
    <path d="M 311.7722473144531 23.161165237426758 C 290.9493408203125 119.33493041992188 285.136962890625 147.88409423828125 314.8506774902344 9.491536140441895 C 405.0218811035156 22.916927337646484 483.0653381347656 102.86700439453125 495.5153503417969 187.02442932128906 C 450.76025390625 146.85231018066406 456.6722106933594 76.4124755859375 311.7722473144531 23.161165237426758" fill="rgb(24, 22, 18)" opacity="1.0" stroke-width="2.0"/>
    <path d="M 295.34423828125 174.39894104003906 C 298.92041015625 187.23321533203125 299.93841552734375 187.994140625 293.3972473144531 150.65882873535156 C 267.22705078125 136.81564331054688 253.04910278320312 146.7937774658203 296.7575378417969 121.79350280761719 C 299.2715148925781 185.7189483642578 298.6126708984375 186.9678497314453 300.0335388183594 186.25636291503906 C 288.0276184082031 169.6271209716797 308.6865539550781 172.0100555419922 294.0313415527344 174.77874755859375 C 303.0018615722656 176.93084716796875 310.9677734375 183.10377502441406 295.34423828125 174.39894104003906" fill="rgb(253, 223, 108)" opacity="1.0" stroke-width="2.0"/>
    <path d="M 22.12053108215332 285.2171325683594 C 41.12548828125 402.0740966796875 94.23517608642578 398.3833312988281 64.67975616455078 428.6579284667969 C 73.6839370727539 386.22552490234375 60.71588134765625 402.2899475097656 110.68693542480469 441.8113098144531 C 163.21617126464844 482.2124328613281 186.06344604492188 470.02294921875 112.22463989257812 468.9988708496094 C 82.00267028808594 402.3169250488281 24.085355758666992 417.20263671875 2.7205939292907715 297.8888854980469 C -6.229646682739258 245.3777618408203 19.788650512695312 231.25306701660156 22.12053108215332 285.2171325683594" fill="rgb(2, 0, 1)" opacity="1.0" stroke-width="2.0"/>
    <path d="M 83.68653869628906 512.9169921875 C 80.82670593261719 509.3323059082031 85.78755950927734 514.8803100585938 89.59783935546875 527.9855346679688 C 94.52173614501953 517.6522216796875 101.721923828125 508.1291809082031 93.79763793945312 518.1727294921875 C 101.24073028564453 507.472412109375 96.19739532470703 514.019287109375 94.27278137207031 518.0782470703125 C 92.38845825195312 508.1036682128906 90.49079132080078 523.9153442382812 90.88126373291016 516.9232788085938 C 82.63572692871094 529.7105712890625 92.83011627197266 526.75 83.68653869628906 512.9169921875" fill="rgb(159, 187, 255)" opacity="1.0" stroke-width="2.0"/>
    <path d="M 52.90439987182617 414.623291015625 C 85.02769470214844 443.1348571777344 46.798423767089844 419.4004821777344 18.845703125 354.2747497558594 C 43.71208190917969 366.6228332519531 79.04988098144531 403.55230712890625 111.41282653808594 467.9622497558594 C 53.16252899169922 427.2742614746094 57.27006912231445 401.8912048339844 37.0428466796875 418.282470703125 C 44.540401458740234 412.14312744140625 38.52871322631836 418.6537780761719 39.66263198852539 411.94305419921875 C 38.60209274291992 420.6278991699219 42.74886703491211 409.8263854980469 52.90439987182617 414.623291015625" fill="rgb(1, 0, 1)" opacity="1.0" stroke-width="2.0"/>
    <path d="M 246.57493591308594 18.787288665771484 C 53.85673904418945 41.45217514038086 9.112744331359863 203.92613220214844 239.60455322265625 84.49732971191406 C 245.22000122070312 173.1448974609375 53.63845443725586 171.35792541503906 63.25385665893555 136.86119079589844 C 275.2613525390625 117.83771514892578 296.8266296386719 6.147514820098877 246.57493591308594 18.787288665771484" fill="rgb(251, 222, 108)" opacity="1.0" stroke-width="2.0"/>
    <path d="M 146.76162719726562 465.8285827636719 C 300.506103515625 538.685302734375 386.0108337402344 430.2988586425781 367.8880615234375 486.87200927734375 C 285.2461242675781 527.5971069335938 214.03607177734375 503.0022277832031 282.1653137207031 518.8004150390625 C 190.05609130859375 503.63226318359375 170.8070526123047 511.78387451171875 145.8901824951172 464.06671142578125 C 135.0560302734375 487.08709716796875 171.70745849609375 507.3672180175781 146.76162719726562 465.8285827636719" fill="rgb(1, 0, 1)" opacity="1.0" stroke-width="2.0"/>
    <path d="M 157.680419921875 423.09686279296875 C 66.86875915527344 423.63787841796875 60.761051177978516 388.49725341796875 41.73550033569336 354.5767822265625 C 10.116764068603516 288.51788330078125 3.889864683151245 179.0484161376953 86.66552734375 91.63761138916016 C 185.9180145263672 115.70866394042969 177.8528594970703 127.23054504394531 157.680419921875 423.09686279296875" fill="rgb(252, 213, 108)" opacity="1.0" stroke-width="2.0"/>
    <path d="M 446.127197265625 83.47284698486328 C 536.294921875 184.39247131347656 509.6948547363281 298.6026306152344 506.14923095703125 311.9518127441406 C 508.67742919921875 264.8533020019531 479.2846984863281 178.66900634765625 491.3740234375 232.6785888671875 C 499.9117431640625 366.66619873046875 418.6195983886719 402.0752258300781 475.21807861328125 381.4579772949219 C 510.52752685546875 313.9058837890625 531.983154296875 326.4423522949219 446.127197265625 83.47284698486328" fill="rgb(1, 0, 0)" opacity="1.0" stroke-width="2.0"/>
    <path d="M 66.32579803466797 39.65508270263672 C 76.66716766357422 51.11375427246094 72.85161590576172 43.22923278808594 70.08168029785156 46.902584075927734 C 71.74137115478516 44.10891342163086 74.88512420654297 48.67070388793945 69.8149185180664 41.306968688964844 C 78.88211059570312 53.468971252441406 74.60930633544922 58.434417724609375 76.2108154296875 52.14970016479492 C 74.50001525878906 58.171852111816406 78.47924041748047 54.283348083496094 70.49543762207031 42.1665153503418 C 69.79930877685547 41.11083221435547 77.94355010986328 52.214569091796875 66.32579803466797 39.65508270263672" fill="rgb(255, 148, 113)" opacity="1.0" stroke-width="2.0"/>
    <path d="M 500.27545166015625 336.1119079589844 C 500.555908203125 329.9075927734375 491.2842712402344 372.322265625 458.4365234375 413.1209411621094 C 430.3573303222656 452.63232421875 345.9354248046875 516.9588012695312 323.4541015625 483.37884521484375 C 477.142822265625 427.69970703125 464.3528137207031 314.4530029296875 500.27545166015625 336.1119079589844" fill="rgb(1, 0, 1)" opacity="1.0" stroke-width="2.0"/>
  </g>
</svg>
