<?xml version="1.0" ?>
<svg height="512" version="1.1" width="512" xmlns="http://www.w3.org/2000/svg">
  <defs/>
  <g>
    <path d="M 59.39508056640625 51.76728439331055 C 57.47250747680664 52.695579528808594 54.506919860839844 55.92496109008789 54.956939697265625 55.228111267089844 C 37.510009765625 69.3716812133789 33.00379180908203 73.69330596923828 34.97102737426758 71.36995697021484 C 36.72303009033203 67.92498779296875 31.94207763671875 74.70388793945312 39.066246032714844 69.59469604492188 C 36.3482551574707 70.69252014160156 23.395261764526367 81.14666748046875 59.39508056640625 51.76728439331055" fill="rgb(255, 96, 162)" opacity="1.0" stroke-width="2.0"/>
    <path d="M 182.75 502.6912536621094 C 158.24307250976562 441.0226745605469 77.09662628173828 437.7825622558594 109.32853698730469 466.9148864746094 C 156.59710693359375 497.05859375 161.8540802001953 491.7942810058594 90.39063262939453 467.9388427734375 C 67.58097839355469 467.6279602050781 80.3790283203125 467.5007629394531 89.35974884033203 467.8407287597656 C 89.8662109375 468.9544372558594 74.7442398071289 459.8173828125 182.75 502.6912536621094" fill="rgb(0, 1, 1)" opacity="1.0" stroke-width="2.0"/>
    <path d="M 66.16131591796875 410.3736877441406 C 111.98670959472656 167.902587890625 139.0093536376953 144.87542724609375 230.9741973876953 130.95278930664062 C 183.46063232421875 208.1989288330078 83.53093719482422 204.30078125 483.4259948730469 127.59465026855469 C 514.9662475585938 465.03729248046875 458.3638916015625 383.177001953125 365.61572265625 485.3951110839844 C 155.59446716308594 504.82025146484375 156.8260040283203 479.57366943359375 66.16131591796875 410.3736877441406" fill="rgb(251, 220, 111)" opacity="1.0" stroke-width="2.0"/>
    <path d="M 422.1928405761719 180.68324279785156 C 420.3740234375 215.77023315429688 380.9684753417969 231.96340942382812 355.3314208984375 209.59780883789062 C 358.9020080566406 205.52886962890625 361.7884521484375 217.19187927246094 365.25250244140625 223.55673217773438 C 357.3202819824219 206.00820922851562 344.7204895019531 179.4224395751953 374.4742126464844 198.7049102783203 C 412.9132995605469 207.65716552734375 396.7366027832031 150.4531707763672 422.1928405761719 180.68324279785156" fill="rgb(2, 1, 2)" opacity="1.0" stroke-width="2.0"/>
    <path d="M 253.20465087890625 186.8841552734375 C 227.8608856201172 263.7294921875 117.30194854736328 190.31198120117188 208.1370391845703 131.01519775390625 C 168.54348754882812 216.26815795898438 219.91616821289062 221.61648559570312 275.73968505859375 148.9300537109375 C 350.61236572265625 153.90524291992188 363.0149841308594 209.37095642089844 356.5603332519531 148.5429229736328 C 149.94004821777344 135.80430603027344 178.77713012695312 131.08029174804688 253.20465087890625 186.8841552734375" fill="rgb(5, 4, 5)" opacity="1.0" stroke-width="2.0"/>
    <path d="M 410.8017272949219 151.8099822998047 C 429.8612365722656 171.85911560058594 420.29425048828125 196.2549591064453 413.79345703125 199.27264404296875 C 398.6783142089844 178.79275512695312 403.9554443359375 140.3558349609375 350.94610595703125 171.76173400878906 C 338.61773681640625 164.7593536376953 376.9641418457031 119.14237976074219 410.8017272949219 151.8099822998047" fill="rgb(1, 1, 2)" opacity="1.0" stroke-width="2.0"/>
    <path d="M 299.6686706542969 11.957222938537598 C 407.2574768066406 53.51517105102539 347.2384033203125 102.3426284790039 243.60760498046875 151.9866180419922 C 166.6769561767578 107.92163848876953 166.59225463867188 43.023780822753906 232.3727569580078 -4.762685298919678 C 422.5964050292969 36.6284065246582 368.4999694824219 92.92647552490234 240.96377563476562 153.1427459716797 C 255.51333618164062 148.29586791992188 257.4198303222656 277.904296875 364.3916320800781 146.8067626953125 C 538.6210327148438 140.40773010253906 461.21075439453125 96.80685424804688 299.6686706542969 11.957222938537598" fill="rgb(251, 222, 109)" opacity="1.0" stroke-width="2.0"/>
    <path d="M 94.58277893066406 84.08431243896484 C 25.250530242919922 152.36004638671875 52.5273323059082 215.66188049316406 47.33882141113281 106.30636596679688 C 38.708274841308594 120.25550079345703 -6.777763366699219 178.32371520996094 -0.08964075148105621 278.9803771972656 C 48.838287353515625 279.08447265625 49.756507873535156 157.2645721435547 47.340457916259766 110.0804672241211 C 69.09779357910156 59.579200744628906 201.03408813476562 -30.82724380493164 280.7637939453125 13.674006462097168 C 37.91161346435547 42.4091911315918 183.1460723876953 104.6197738647461 94.58277893066406 84.08431243896484" fill="rgb(3, 3, 2)" opacity="1.0" stroke-width="2.0"/>
    <path d="M 349.34539794921875 184.96412658691406 C 376.1083679199219 171.27841186523438 347.27508544921875 181.8248748779297 377.97052001953125 202.08421325683594 C 355.24554443359375 241.36695861816406 311.0489807128906 156.26426696777344 377.2320251464844 139.6013641357422 C 437.74981689453125 144.2770233154297 360.0758056640625 152.67868041992188 362.6329345703125 178.2417449951172 C 416.851318359375 150.41693115234375 395.8135070800781 162.8446044921875 405.12847900390625 209.31210327148438 C 425.4300537109375 143.09442138671875 401.2757568359375 157.2798614501953 349.34539794921875 184.96412658691406" fill="rgb(2, 1, 3)" opacity="1.0" stroke-width="2.0"/>
    <path d="M 312.079833984375 22.331785202026367 C 292.12176513671875 120.93251037597656 286.3180236816406 149.408203125 314.7773742675781 9.534765243530273 C 405.55535888671875 23.176183700561523 481.5009460449219 102.64353942871094 495.9624328613281 183.34800720214844 C 443.877197265625 138.4534454345703 459.26251220703125 80.6173324584961 312.079833984375 22.331785202026367" fill="rgb(24, 22, 17)" opacity="1.0" stroke-width="2.0"/>
    <path d="M 295.34539794921875 174.38009643554688 C 298.9281005859375 187.24472045898438 299.99432373046875 187.97674560546875 293.5167236328125 150.60467529296875 C 268.2067565917969 137.4337158203125 253.84991455078125 148.10372924804688 296.68939208984375 122.60521697998047 C 299.1639099121094 185.73634338378906 298.55853271484375 186.9683837890625 300.0548400878906 186.22596740722656 C 288.0494689941406 169.61224365234375 308.674072265625 172.01004028320312 294.0248718261719 174.79779052734375 C 302.97650146484375 176.97116088867188 310.97869873046875 183.09364318847656 295.34539794921875 174.38009643554688" fill="rgb(253, 223, 108)" opacity="1.0" stroke-width="2.0"/>
    <path d="M 21.740053176879883 285.1121826171875 C 41.55939865112305 402.3725891113281 94.169189453125 398.55560302734375 65.4942626953125 428.3634948730469 C 73.58306121826172 386.3398132324219 60.71749496459961 402.2023620605469 110.71990966796875 441.7286376953125 C 162.95086669921875 481.9788513183594 185.51040649414062 470.11383056640625 112.21183013916016 468.9764099121094 C 81.83877563476562 401.9600830078125 24.138635635375977 417.2740783691406 2.7348556518554688 297.7214050292969 C -6.267636299133301 245.457275390625 19.94109535217285 231.27108764648438 21.740053176879883 285.1121826171875" fill="rgb(2, 0, 1)" opacity="1.0" stroke-width="2.0"/>
    <path d="M 82.7223129272461 511.2388610839844 C 80.25845336914062 507.5212097167969 86.02621459960938 513.937255859375 89.8411636352539 527.5120849609375 C 94.52173614501953 517.6522216796875 101.721923828125 508.1291809082031 93.79763793945312 518.1727294921875 C 101.24073028564453 507.472412109375 96.19739532470703 514.019287109375 94.27278137207031 518.0782470703125 C 92.38845825195312 508.1036682128906 90.49079132080078 523.9153442382812 90.88085174560547 516.9232788085938 C 82.62769317626953 529.7193603515625 92.8407211303711 526.752685546875 82.7223129272461 511.2388610839844" fill="rgb(157, 186, 253)" opacity="1.0" stroke-width="2.0"/>
    <path d="M 52.34772491455078 414.6932678222656 C 85.85655975341797 443.5576477050781 47.28984451293945 420.001708984375 18.931055068969727 354.2140197753906 C 43.479732513427734 366.98419189453125 79.34468078613281 403.3923645019531 111.51785278320312 467.8583679199219 C 53.207061767578125 427.263671875 57.29924774169922 402.1936950683594 36.67880630493164 418.41058349609375 C 44.433380126953125 412.55804443359375 38.17146682739258 418.9894104003906 39.85628890991211 412.7317810058594 C 38.55728530883789 420.8105163574219 42.823150634765625 409.5417175292969 52.34772491455078 414.6932678222656" fill="rgb(1, 0, 0)" opacity="1.0" stroke-width="2.0"/>
    <path d="M 247.43690490722656 18.362070083618164 C 52.07347106933594 43.42063903808594 11.357036590576172 199.99301147460938 239.4733428955078 83.78311920166016 C 244.95860290527344 173.6228485107422 54.164669036865234 171.8507843017578 62.7083625793457 134.51068115234375 C 275.8482360839844 117.39527130126953 296.9637145996094 5.395640850067139 247.43690490722656 18.362070083618164" fill="rgb(251, 221, 108)" opacity="1.0" stroke-width="2.0"/>
    <path d="M 146.72897338867188 465.84002685546875 C 300.6493835449219 538.5850830078125 384.9721374511719 430.3040771484375 367.7604675292969 486.9223937988281 C 284.2195129394531 527.7000122070312 215.00396728515625 502.8647155761719 281.32501220703125 519.0078125 C 189.85806274414062 503.4844970703125 171.61680603027344 512.2034912109375 146.1204833984375 464.4593505859375 C 135.06231689453125 487.0924987792969 171.77005004882812 507.3215026855469 146.72897338867188 465.84002685546875" fill="rgb(1, 0, 1)" opacity="1.0" stroke-width="2.0"/>
    <path d="M 159.9817352294922 421.3620910644531 C 64.55284118652344 422.94378662109375 60.77804183959961 388.0738220214844 41.46553039550781 354.0041198730469 C 10.297558784484863 288.483154296875 4.171327114105225 180.45790100097656 85.1957778930664 93.05140686035156 C 187.08250427246094 115.62098693847656 179.31454467773438 127.12483978271484 159.9817352294922 421.3620910644531" fill="rgb(252, 213, 108)" opacity="1.0" stroke-width="2.0"/>
    <path d="M 447.1833801269531 84.71971130371094 C 536.0315551757812 185.43289184570312 509.7212829589844 297.9634704589844 506.4090881347656 311.9706115722656 C 506.4015808105469 258.4526672363281 480.8892517089844 183.8935546875 491.96820068359375 239.70191955566406 C 495.99334716796875 372.1924133300781 418.9477233886719 400.137451171875 474.951416015625 382.0176696777344 C 510.828125 313.8834533691406 530.865478515625 327.021484375 447.1833801269531 84.71971130371094" fill="rgb(1, 0, 0)" opacity="1.0" stroke-width="2.0"/>
    <path d="M 65.24571990966797 40.0383415222168 C 76.16377258300781 51.13187026977539 72.66183471679688 43.385047912597656 67.78002166748047 46.64393997192383 C 72.5140609741211 43.90364456176758 75.00421142578125 49.66801834106445 69.3590087890625 41.848388671875 C 78.83625793457031 53.03956985473633 74.67220306396484 58.83381271362305 78.19254302978516 53.00032043457031 C 74.8929214477539 58.33256149291992 78.50715637207031 54.88697052001953 69.99490356445312 42.281524658203125 C 69.54925537109375 41.51179885864258 77.92073822021484 52.950645446777344 65.24571990966797 40.0383415222168" fill="rgb(255, 146, 111)" opacity="1.0" stroke-width="2.0"/>
    <path d="M 500.10601806640625 336.104248046875 C 500.7181701660156 329.8863525390625 491.25860595703125 372.371826171875 458.7641296386719 413.0178527832031 C 430.718994140625 452.09918212890625 346.4327087402344 516.8244018554688 323.6639099121094 483.660400390625 C 478.7890930175781 426.03253173828125 463.1672668457031 315.39654541015625 500.10601806640625 336.104248046875" fill="rgb(1, 0, 1)" opacity="1.0" stroke-width="2.0"/>
  </g>
</svg>
