<?xml version="1.0" ?>
<svg height="512" version="1.1" width="512" xmlns="http://www.w3.org/2000/svg">
  <defs/>
  <g>
    <path d="M 59.25022506713867 51.75139617919922 C 56.72328186035156 53.761844635009766 54.06513595581055 56.48970413208008 55.05772018432617 55.23573684692383 C 38.28230285644531 70.14986419677734 34.1021842956543 74.18998718261719 36.00740051269531 72.51133728027344 C 37.20138931274414 70.35475158691406 33.76945495605469 74.59034729003906 39.47718048095703 70.3346939086914 C 38.3013801574707 71.19607543945312 24.804101943969727 81.96511840820312 59.25022506713867 51.75139617919922" fill="rgb(255, 106, 172)" opacity="1.0" stroke-width="2.0"/>
    <path d="M 182.66773986816406 502.7362976074219 C 158.92127990722656 440.9372863769531 77.3457260131836 437.68609619140625 109.6341323852539 466.7872619628906 C 155.430419921875 496.4760437011719 165.5702667236328 493.4293518066406 90.66104125976562 468.2292175292969 C 69.46560668945312 466.84722900390625 83.9774398803711 467.52764892578125 88.84761047363281 468.1621398925781 C 89.78156280517578 469.0655822753906 74.49984741210938 460.02093505859375 182.66773986816406 502.7362976074219" fill="rgb(1, 1, 1)" opacity="1.0" stroke-width="2.0"/>
    <path d="M 65.93182373046875 409.7524108886719 C 111.92857360839844 167.52365112304688 138.7415771484375 141.63003540039062 233.31080627441406 130.77110290527344 C 168.853515625 219.07781982421875 68.59125518798828 209.18345642089844 479.61053466796875 127.33455657958984 C 522.192626953125 456.055908203125 460.4693603515625 381.706787109375 365.6593017578125 485.3820495605469 C 156.78709411621094 504.90533447265625 157.9823760986328 479.2934265136719 65.93182373046875 409.7524108886719" fill="rgb(251, 220, 111)" opacity="1.0" stroke-width="2.0"/>
    <path d="M 421.8968200683594 181.0292510986328 C 421.1786193847656 215.43569946289062 380.9275817871094 232.2155303955078 355.0579833984375 208.9992218017578 C 357.7209167480469 204.18421936035156 361.3246154785156 215.22357177734375 364.3566589355469 222.85386657714844 C 357.65631103515625 205.60601806640625 343.7763366699219 183.23805236816406 376.58868408203125 199.31153869628906 C 413.34222412109375 206.0513153076172 396.5369873046875 149.81265258789062 421.8968200683594 181.0292510986328" fill="rgb(2, 1, 2)" opacity="1.0" stroke-width="2.0"/>
    <path d="M 253.71632385253906 187.33602905273438 C 223.30250549316406 267.9891662597656 111.58433532714844 180.2670440673828 217.04806518554688 128.47988891601562 C 160.4453125 210.45928955078125 220.0341796875 226.45245361328125 275.8458557128906 149.03668212890625 C 350.81402587890625 153.50747680664062 363.0746765136719 208.9009552001953 359.40533447265625 141.742919921875 C 159.24563598632812 132.99432373046875 186.20123291015625 138.55703735351562 253.71632385253906 187.33602905273438" fill="rgb(5, 5, 6)" opacity="1.0" stroke-width="2.0"/>
    <path d="M 410.8363342285156 152.05006408691406 C 429.7523498535156 170.9210662841797 421.70623779296875 200.00587463378906 412.85357666015625 202.26028442382812 C 400.6610412597656 179.37718200683594 403.97235107421875 139.86679077148438 351.1468811035156 171.83526611328125 C 338.5662841796875 164.9371795654297 377.3533935546875 119.37591552734375 410.8363342285156 152.05006408691406" fill="rgb(1, 1, 2)" opacity="1.0" stroke-width="2.0"/>
    <path d="M 299.04718017578125 11.97229290008545 C 413.84710693359375 55.397762298583984 348.63580322265625 99.64522552490234 241.594970703125 149.73715209960938 C 160.89947509765625 112.80260467529297 164.38137817382812 45.05314254760742 232.80389404296875 -5.153482913970947 C 428.8382873535156 39.80595397949219 371.6315002441406 89.25967407226562 239.3818359375 150.85316467285156 C 263.9349060058594 158.0545654296875 249.51507568359375 291.5425109863281 365.12164306640625 143.73313903808594 C 541.7606201171875 146.78028869628906 464.1063232421875 95.63141632080078 299.04718017578125 11.97229290008545" fill="rgb(251, 222, 109)" opacity="1.0" stroke-width="2.0"/>
    <path d="M 102.0998764038086 77.45718383789062 C 24.149070739746094 146.50267028808594 52.872413635253906 217.59625244140625 47.372222900390625 106.45079803466797 C 38.71212387084961 120.12130737304688 -6.999118804931641 179.2027587890625 0.03359843045473099 279.0054626464844 C 44.489280700683594 279.1473693847656 51.228179931640625 152.79122924804688 47.343685150146484 110.3633804321289 C 77.17483520507812 47.1607666015625 218.3726043701172 -30.858108520507812 278.71343994140625 15.024794578552246 C 40.32461166381836 44.66826629638672 188.8109130859375 101.7431411743164 102.0998764038086 77.45718383789062" fill="rgb(3, 2, 2)" opacity="1.0" stroke-width="2.0"/>
    <path d="M 349.5959167480469 185.26560974121094 C 375.9862976074219 171.04087829589844 347.1017150878906 183.26124572753906 378.9080810546875 202.27174377441406 C 351.6328430175781 240.22409057617188 313.26422119140625 154.78057861328125 377.2549133300781 139.6372833251953 C 433.289794921875 142.49606323242188 360.0968933105469 154.40655517578125 362.49755859375 178.19622802734375 C 416.4132995605469 149.67428588867188 396.4672546386719 162.91270446777344 404.3951721191406 209.5964813232422 C 425.0015563964844 143.0770263671875 401.2017517089844 157.3654327392578 349.5959167480469 185.26560974121094" fill="rgb(1, 1, 2)" opacity="1.0" stroke-width="2.0"/>
    <path d="M 311.5526123046875 23.426973342895508 C 289.4649963378906 117.17964935302734 282.95697021484375 145.01646423339844 315.04144287109375 9.296809196472168 C 404.5048522949219 22.93360710144043 486.0647277832031 102.92524719238281 493.4490051269531 191.6542205810547 C 459.6906433105469 156.03713989257812 454.7105712890625 73.40461730957031 311.5526123046875 23.426973342895508" fill="rgb(24, 22, 18)" opacity="1.0" stroke-width="2.0"/>
    <path d="M 295.3427734375 174.43702697753906 C 298.9059143066406 187.2134552001953 299.829833984375 188.0299835205078 293.136962890625 150.7378692626953 C 264.8115234375 135.4407958984375 251.18255615234375 143.97372436523438 296.7753601074219 120.07178497314453 C 299.4801940917969 185.68421936035156 298.7276611328125 186.9641571044922 299.99749755859375 186.31460571289062 C 287.98907470703125 169.65676879882812 308.71234130859375 172.01055908203125 294.0456237792969 174.73826599121094 C 303.0520324707031 176.85281372070312 310.9501037597656 183.12294006347656 295.3427734375 174.43702697753906" fill="rgb(253, 223, 108)" opacity="1.0" stroke-width="2.0"/>
    <path d="M 21.571136474609375 285.11346435546875 C 41.4007453918457 401.0521240234375 93.28965759277344 399.5638732910156 65.1517333984375 426.063232421875 C 73.4227294921875 386.47296142578125 60.74250030517578 402.1274108886719 110.79761505126953 441.91876220703125 C 163.90611267089844 483.1156921386719 187.4637908935547 470.2958679199219 112.2527084350586 468.9096984863281 C 82.24930572509766 403.47344970703125 24.040992736816406 416.81036376953125 2.7254743576049805 298.1054382324219 C -6.503984451293945 245.18971252441406 20.165922164916992 231.19688415527344 21.571136474609375 285.11346435546875" fill="rgb(2, 0, 1)" opacity="1.0" stroke-width="2.0"/>
    <path d="M 83.64962768554688 513.1015014648438 C 80.87425994873047 509.4344787597656 85.81826782226562 514.8899536132812 89.6050796508789 527.988037109375 C 94.52173614501953 517.6522216796875 101.721923828125 508.1291809082031 93.79763793945312 518.1727294921875 C 101.24073028564453 507.472412109375 96.19739532470703 514.019287109375 94.27278137207031 518.0782470703125 C 92.38845825195312 508.1036682128906 90.49079132080078 523.9153442382812 90.88126373291016 516.9232788085938 C 82.63579559326172 529.7105712890625 92.82927703857422 526.75048828125 83.64962768554688 513.1015014648438" fill="rgb(159, 187, 255)" opacity="1.0" stroke-width="2.0"/>
    <path d="M 53.11320114135742 414.9573974609375 C 84.05281066894531 442.69488525390625 46.403648376464844 417.9686279296875 18.81182861328125 354.2537841796875 C 43.715736389160156 366.5534973144531 79.21703338623047 403.44879150390625 111.5541000366211 467.99560546875 C 53.14973068237305 427.3092956542969 57.282859802246094 401.7245788574219 36.850128173828125 418.00054931640625 C 44.75082015991211 411.7382507324219 39.16923904418945 417.950439453125 41.26982498168945 412.9577941894531 C 38.455448150634766 419.6596374511719 43.55537796020508 409.10906982421875 53.11320114135742 414.9573974609375" fill="rgb(1, 0, 0)" opacity="1.0" stroke-width="2.0"/>
    <path d="M 243.90977478027344 19.849443435668945 C 60.073543548583984 35.43317413330078 2.157972812652588 213.41993713378906 243.1656494140625 86.57659912109375 C 250.87710571289062 171.203125 53.382625579833984 164.89585876464844 64.79190826416016 140.43577575683594 C 275.34808349609375 121.36319732666016 296.915283203125 11.538527488708496 243.90977478027344 19.849443435668945" fill="rgb(252, 222, 109)" opacity="1.0" stroke-width="2.0"/>
    <path d="M 146.70755004882812 465.6855163574219 C 299.5255126953125 538.9619750976562 387.56005859375 430.4385070800781 369.05706787109375 486.31097412109375 C 286.1955871582031 527.7232666015625 213.4013214111328 503.4473571777344 283.34661865234375 518.7675170898438 C 190.2200469970703 504.0478820800781 169.31495666503906 511.0473937988281 146.02125549316406 464.7335510253906 C 135.0525665283203 487.12005615234375 171.25685119628906 507.71307373046875 146.70755004882812 465.6855163574219" fill="rgb(1, 0, 1)" opacity="1.0" stroke-width="2.0"/>
    <path d="M 153.2158660888672 426.6512451171875 C 72.61441802978516 424.6916809082031 59.808528900146484 389.2756652832031 42.3740234375 355.4148254394531 C 9.66592025756836 288.47149658203125 3.622044563293457 177.02236938476562 89.8717269897461 88.60874938964844 C 182.923583984375 116.0713882446289 174.36715698242188 127.50227355957031 153.2158660888672 426.6512451171875" fill="rgb(252, 212, 108)" opacity="1.0" stroke-width="2.0"/>
    <path d="M 444.5814208984375 81.71450805664062 C 536.5198974609375 183.0150146484375 509.7079772949219 299.9433898925781 505.92193603515625 312.79150390625 C 512.3674926757812 272.72540283203125 477.0010681152344 172.3919677734375 489.7421569824219 221.50936889648438 C 506.246826171875 357.8691101074219 417.58184814453125 404.7174072265625 475.6824645996094 380.7018737792969 C 510.5157470703125 312.03009033203125 533.6953735351562 325.2233581542969 444.5814208984375 81.71450805664062" fill="rgb(0, 0, 0)" opacity="1.0" stroke-width="2.0"/>
    <path d="M 66.70317840576172 39.21217346191406 C 76.26787567138672 51.351417541503906 71.57756042480469 43.15593719482422 70.41861724853516 47.162132263183594 C 71.74588012695312 44.631256103515625 73.9988021850586 48.69681167602539 69.8985366821289 41.14627456665039 C 78.04347229003906 53.72852325439453 73.82622528076172 57.46919631958008 73.12250518798828 51.37284851074219 C 73.62091064453125 57.5582275390625 77.73157501220703 53.627220153808594 70.84403228759766 43.04548645019531 C 69.22261047363281 41.271080017089844 76.63578033447266 51.06280517578125 66.70317840576172 39.21217346191406" fill="rgb(255, 150, 116)" opacity="1.0" stroke-width="2.0"/>
    <path d="M 500.4218444824219 335.5916748046875 C 500.65283203125 330.1725158691406 491.3337707519531 372.1979675292969 458.20465087890625 413.38311767578125 C 429.41741943359375 453.4250183105469 345.0850830078125 517.0460205078125 323.2090148925781 483.0412292480469 C 474.63037109375 430.6412048339844 466.2009582519531 312.7842712402344 500.4218444824219 335.5916748046875" fill="rgb(1, 0, 1)" opacity="1.0" stroke-width="2.0"/>
  </g>
</svg>
