<?xml version="1.0" ?>
<svg height="512" version="1.1" width="512" xmlns="http://www.w3.org/2000/svg">
  <defs/>
  <g>
    <path d="M 58.416378021240234 50.15068817138672 C 59.074466705322266 49.27912521362305 54.54674530029297 53.52505111694336 54.165287017822266 53.99059295654297 C 37.26753616333008 69.10948181152344 31.557512283325195 73.08695983886719 32.16556167602539 72.19036102294922 C 36.52342224121094 71.25719451904297 28.6345157623291 74.01350402832031 37.99396896362305 68.28546905517578 C 31.778743743896484 72.09525299072266 22.282135009765625 81.8729248046875 58.416378021240234 50.15068817138672" fill="rgb(255, 72, 134)" opacity="1.0" stroke-width="2.0"/>
    <path d="M 182.33712768554688 502.69622802734375 C 157.3933868408203 441.2911376953125 76.33272552490234 438.718994140625 105.29547882080078 463.9238586425781 C 156.35897827148438 497.0375061035156 151.37380981445312 487.45294189453125 90.14440155029297 467.0135498046875 C 65.3271484375 465.9774169921875 76.35762786865234 466.0650329589844 90.82534790039062 466.9051513671875 C 87.8336410522461 467.8689270019531 75.34479522705078 459.0002136230469 182.33712768554688 502.69622802734375" fill="rgb(2, 7, 2)" opacity="1.0" stroke-width="2.0"/>
    <path d="M 73.01448059082031 417.69464111328125 C 115.27772521972656 186.32257080078125 163.3028106689453 216.66416931152344 183.25819396972656 170.69708251953125 C 204.00563049316406 182.12315368652344 206.79803466796875 216.3302764892578 500.9907531738281 153.1287078857422 C 496.0657043457031 467.37835693359375 452.1934814453125 392.68133544921875 367.4518127441406 485.0059509277344 C 149.68099975585938 504.8140869140625 152.9950714111328 481.3630065917969 73.01448059082031 417.69464111328125" fill="rgb(251, 219, 110)" opacity="1.0" stroke-width="2.0"/>
    <path d="M 422.3509216308594 180.63526916503906 C 420.5970458984375 216.8491973876953 379.92218017578125 230.73011779785156 357.75531005859375 210.50418090820312 C 358.99078369140625 208.50347900390625 362.7503967285156 220.12100219726562 365.55596923828125 225.0211181640625 C 356.35198974609375 207.6763458251953 347.8682556152344 173.9165802001953 372.7306823730469 198.1005096435547 C 412.3170166015625 210.15093994140625 395.9774475097656 152.77127075195312 422.3509216308594 180.63526916503906" fill="rgb(2, 1, 3)" opacity="1.0" stroke-width="2.0"/>
    <path d="M 245.19784545898438 204.25401306152344 C 229.22373962402344 225.06558227539062 173.89698791503906 236.5419158935547 168.3654327392578 161.29376220703125 C 212.00485229492188 218.0868682861328 222.9868621826172 200.4208526611328 299.5758972167969 177.9942626953125 C 340.8304443359375 178.5247344970703 359.90753173828125 243.2205047607422 359.0013427734375 138.06979370117188 C 175.8775634765625 107.25939178466797 198.78271484375 115.55799102783203 245.19784545898438 204.25401306152344" fill="rgb(18, 12, 12)" opacity="1.0" stroke-width="2.0"/>
    <path d="M 410.82867431640625 151.7388916015625 C 430.4868469238281 174.47891235351562 418.0927429199219 190.31777954101562 418.8164978027344 196.9954833984375 C 403.3398132324219 179.89971923828125 406.1282958984375 143.84104919433594 347.9805908203125 168.55601501464844 C 339.2645263671875 163.5430145263672 372.0615539550781 118.7019271850586 410.82867431640625 151.7388916015625" fill="rgb(3, 1, 2)" opacity="1.0" stroke-width="2.0"/>
    <path d="M 279.9320373535156 11.219293594360352 C 385.7413330078125 14.544713973999023 345.1667785644531 121.806640625 256.6335144042969 169.93653869628906 C 196.43557739257812 112.45587158203125 177.09368896484375 18.01026153564453 234.2995147705078 -18.954864501953125 C 379.54595947265625 77.00230407714844 341.8307800292969 104.42294311523438 270.0911560058594 162.71624755859375 C 237.18861389160156 168.8963623046875 241.23690795898438 242.75477600097656 347.17218017578125 241.33685302734375 C 394.6759338378906 71.50507354736328 355.93115234375 95.0180435180664 279.9320373535156 11.219293594360352" fill="rgb(252, 222, 109)" opacity="1.0" stroke-width="2.0"/>
    <path d="M 84.65879821777344 95.1265869140625 C 20.21776008605957 160.50521850585938 48.88511657714844 204.4884490966797 47.37010192871094 106.25584411621094 C 38.667057037353516 121.59571075439453 -4.81220006942749 173.4593505859375 -1.0252726078033447 278.9891357421875 C 61.662986755371094 278.9743347167969 41.184879302978516 156.20785522460938 48.61344528198242 104.11723327636719 C 83.93748474121094 60.639617919921875 139.19244384765625 5.617304801940918 246.72494506835938 -0.13615664839744568 C 28.95330047607422 99.6547622680664 106.16090393066406 98.50053405761719 84.65879821777344 95.1265869140625" fill="rgb(2, 3, 2)" opacity="1.0" stroke-width="2.0"/>
    <path d="M 349.9792175292969 188.41403198242188 C 371.62933349609375 177.35816955566406 350.3288269042969 175.54034423828125 381.7810363769531 217.19186401367188 C 366.1844482421875 228.108642578125 314.51153564453125 185.99851989746094 360.3570251464844 145.10459899902344 C 417.4150695800781 135.69944763183594 354.4684143066406 165.1380157470703 362.20849609375 181.16981506347656 C 412.1475830078125 150.1955108642578 393.0389404296875 167.04188537597656 411.10809326171875 208.67640686035156 C 425.8415222167969 140.62619018554688 403.4185485839844 156.8916015625 349.9792175292969 188.41403198242188" fill="rgb(2, 2, 2)" opacity="1.0" stroke-width="2.0"/>
    <path d="M 307.60992431640625 3.3161680698394775 C 295.25115966796875 131.9442901611328 292.1307373046875 160.76153564453125 307.7104187011719 4.370971202850342 C 423.1331481933594 36.650177001953125 467.4035339355469 89.22698974609375 508.0194091796875 192.19451904296875 C 295.43084716796875 111.4852294921875 345.116455078125 85.6563491821289 307.60992431640625 3.3161680698394775" fill="rgb(179, 159, 80)" opacity="1.0" stroke-width="2.0"/>
    <path d="M 295.14129638671875 174.31756591796875 C 298.5430908203125 187.08387756347656 299.6929626464844 187.9073944091797 291.9205322265625 155.3064422607422 C 291.871337890625 144.69064331054688 279.5277099609375 166.37228393554688 289.94683837890625 143.3057403564453 C 298.11199951171875 186.30946350097656 299.3265686035156 186.89341735839844 299.9547424316406 186.41427612304688 C 287.6502685546875 169.48385620117188 309.3148193359375 172.013427734375 293.48565673828125 174.84593200683594 C 303.1480407714844 177.0550079345703 310.9536437988281 183.21865844726562 295.14129638671875 174.31756591796875" fill="rgb(255, 188, 109)" opacity="1.0" stroke-width="2.0"/>
    <path d="M 21.518709182739258 283.90264892578125 C 42.330406188964844 404.908447265625 93.97673034667969 396.75732421875 63.5621223449707 427.4136657714844 C 73.1965560913086 387.744873046875 61.60501480102539 401.3506164550781 108.94766998291016 440.74761962890625 C 162.59371948242188 479.41876220703125 177.9700927734375 475.2814636230469 112.1280517578125 468.833740234375 C 80.5689697265625 397.92364501953125 25.99327278137207 422.88330078125 2.551394462585449 296.9246520996094 C -6.562739372253418 246.1946563720703 28.26388168334961 231.1629638671875 21.518709182739258 283.90264892578125" fill="rgb(2, 0, 1)" opacity="1.0" stroke-width="2.0"/>
    <path d="M 81.60577392578125 507.2391052246094 C 78.49400329589844 503.4763488769531 86.70182037353516 510.950439453125 91.0681381225586 525.184814453125 C 94.52177429199219 517.6521606445312 101.7220230102539 508.128662109375 93.79745483398438 518.1715698242188 C 101.24065399169922 507.47259521484375 96.19739532470703 514.019287109375 94.27278137207031 518.0782470703125 C 92.38845825195312 508.1036682128906 90.49079132080078 523.9153442382812 90.91940307617188 516.908203125 C 83.2885513305664 528.9337158203125 94.93695831298828 524.4783325195312 81.60577392578125 507.2391052246094" fill="rgb(151, 179, 242)" opacity="1.0" stroke-width="2.0"/>
    <path d="M 50.314613342285156 413.1409912109375 C 85.5688247680664 441.71380615234375 51.155616760253906 426.1985168457031 19.001440048217773 355.1388854980469 C 44.321571350097656 366.8462829589844 79.23464965820312 402.87713623046875 110.68354034423828 467.52935791015625 C 51.90437316894531 425.072021484375 56.46596145629883 402.5599670410156 38.188602447509766 417.4680480957031 C 40.174259185791016 417.1310119628906 38.884822845458984 414.61395263671875 39.39318084716797 412.45361328125 C 39.367393493652344 421.59295654296875 39.78435516357422 411.5683898925781 50.314613342285156 413.1409912109375" fill="rgb(1, 0, 1)" opacity="1.0" stroke-width="2.0"/>
    <path d="M 243.42718505859375 1.2683210372924805 C 48.3879280090332 90.80278015136719 -6.946952819824219 159.60455322265625 234.30661010742188 84.86550903320312 C 247.71575927734375 206.61978149414062 81.05208587646484 212.7626190185547 64.10391235351562 116.45445251464844 C 283.3542175292969 118.61907958984375 295.5741271972656 -22.031017303466797 243.42718505859375 1.2683210372924805" fill="rgb(223, 195, 96)" opacity="1.0" stroke-width="2.0"/>
    <path d="M 148.30821228027344 466.534912109375 C 301.587890625 537.435302734375 375.8125915527344 433.1455078125 365.6585998535156 488.1640319824219 C 274.6881103515625 529.3707885742188 225.09844970703125 500.1828308105469 273.5677490234375 519.7597045898438 C 187.6896514892578 500.721435546875 175.57278442382812 515.0216064453125 145.81129455566406 463.44403076171875 C 134.98431396484375 487.2929382324219 171.65017700195312 506.82220458984375 148.30821228027344 466.534912109375" fill="rgb(1, 0, 1)" opacity="1.0" stroke-width="2.0"/>
    <path d="M 176.72174072265625 412.21234130859375 C 43.35923385620117 415.9988708496094 59.94780349731445 380.51031494140625 38.653160095214844 345.7141418457031 C 12.19150447845459 296.0361328125 8.280916213989258 184.99111938476562 67.02912139892578 119.04080200195312 C 178.45433044433594 131.84619140625 188.43301391601562 134.879638671875 176.72174072265625 412.21234130859375" fill="rgb(252, 214, 108)" opacity="1.0" stroke-width="2.0"/>
    <path d="M 472.8628234863281 119.3399658203125 C 526.290283203125 206.5067596435547 513.4573974609375 282.67633056640625 504.1024169921875 322.7176513671875 C 495.01220703125 260.3789978027344 492.7325439453125 222.99746704101562 490.1296081542969 291.06671142578125 C 467.19793701171875 399.5378112792969 429.3240966796875 394.7376708984375 472.96685791015625 377.8390808105469 C 519.7496337890625 307.15679931640625 505.354248046875 361.2394714355469 472.8628234863281 119.3399658203125" fill="rgb(2, 0, 1)" opacity="1.0" stroke-width="2.0"/>
    <path d="M 65.29257202148438 38.2673225402832 C 76.59314727783203 51.38270950317383 73.08210754394531 45.03679656982422 65.4417724609375 47.30619430541992 C 70.57646942138672 44.89912033081055 76.82312774658203 50.2885627746582 68.0895004272461 41.78107833862305 C 79.84760284423828 53.12275695800781 75.9935302734375 57.536930084228516 75.71883392333984 59.400943756103516 C 74.52999114990234 59.94846725463867 81.22947692871094 54.01426315307617 68.82328796386719 42.58548355102539 C 68.13941955566406 40.95717239379883 79.34030151367188 53.9967041015625 65.29257202148438 38.2673225402832" fill="rgb(255, 137, 104)" opacity="1.0" stroke-width="2.0"/>
    <path d="M 498.1277160644531 342.4459533691406 C 501.50830078125 329.33209228515625 490.2657775878906 373.1181640625 460.1542053222656 411.1636657714844 C 432.44183349609375 450.03961181640625 352.94293212890625 513.02734375 325.2500305175781 485.7401123046875 C 491.4489440917969 410.6288146972656 453.7277526855469 323.9681701660156 498.1277160644531 342.4459533691406" fill="rgb(1, 1, 1)" opacity="1.0" stroke-width="2.0"/>
  </g>
</svg>
