<?xml version="1.0" ?>
<svg height="512" version="1.1" width="512" xmlns="http://www.w3.org/2000/svg">
  <defs/>
  <g>
    <path d="M 60.058650970458984 48.53071975708008 C 62.41286849975586 46.42360305786133 51.51388931274414 51.6887321472168 51.780601501464844 54.280517578125 C 40.33662796020508 71.50159454345703 26.610502243041992 73.73877716064453 28.043498992919922 72.40995025634766 C 21.73708724975586 73.91557312011719 23.287734985351562 75.95117950439453 40.17035675048828 70.96331787109375 C 31.54990577697754 72.79056549072266 20.154579162597656 79.87531280517578 60.058650970458984 48.53071975708008" fill="rgb(233, 38, 99)" opacity="1.0" stroke-width="2.0"/>
    <path d="M 136.807861328125 474.92962646484375 C 129.72824096679688 471.8421325683594 111.3512954711914 473.92230224609375 94.97846221923828 472.4142150878906 C 100.75812530517578 474.6190490722656 96.23450469970703 476.0749206542969 85.3304672241211 476.0042419433594 C 62.8726921081543 474.9638977050781 70.48206329345703 483.2423095703125 77.75916290283203 480.5602722167969 C 66.27926635742188 483.5127868652344 73.8632583618164 471.5908203125 136.807861328125 474.92962646484375" fill="rgb(61, 233, 32)" opacity="1.0" stroke-width="2.0"/>
    <path d="M 243.5287322998047 298.99755859375 C 242.66574096679688 276.8899841308594 253.62135314941406 286.2453308105469 255.92874145507812 276.93585205078125 C 262.55615234375 277.5880126953125 260.68682861328125 271.94195556640625 288.8714294433594 269.8551025390625 C 296.06683349609375 301.7457580566406 285.86175537109375 311.22979736328125 280.8587341308594 319.3420104980469 C 254.85400390625 311.10345458984375 245.0798797607422 316.1476135253906 243.5287322998047 298.99755859375" fill="rgb(255, 220, 187)" opacity="1.0" stroke-width="2.0"/>
    <path d="M 417.3725891113281 217.6857147216797 C 403.9971008300781 220.34146118164062 389.03680419921875 220.61697387695312 371.0278625488281 220.71714782714844 C 363.9556884765625 232.25997924804688 365.2654113769531 224.73118591308594 367.859619140625 226.03302001953125 C 360.8509826660156 215.50225830078125 359.35443115234375 204.28640747070312 365.7193603515625 196.21676635742188 C 387.6679992675781 193.7086181640625 396.1349792480469 188.50392150878906 417.3725891113281 217.6857147216797" fill="rgb(150, 48, 120)" opacity="1.0" stroke-width="2.0"/>
    <path d="M 272.09423828125 255.2401580810547 C 275.3873291015625 249.69378662109375 274.6206359863281 239.5091552734375 272.6958312988281 250.27244567871094 C 282.90576171875 238.26296997070312 283.09912109375 233.66848754882812 295.4005126953125 241.54891967773438 C 302.8427734375 234.60769653320312 294.96173095703125 235.43019104003906 300.9824523925781 214.40882873535156 C 297.5080871582031 210.9479217529297 307.7830505371094 227.3908233642578 272.09423828125 255.2401580810547" fill="rgb(131, 198, 192)" opacity="1.0" stroke-width="2.0"/>
    <path d="M 401.97900390625 143.92230224609375 C 399.5736389160156 154.82351684570312 396.70001220703125 150.8712615966797 394.4524841308594 149.64688110351562 C 399.2742004394531 152.11959838867188 399.32000732421875 161.13433837890625 370.6357727050781 160.8765869140625 C 367.5635986328125 141.9146728515625 367.4753723144531 133.2718963623047 401.97900390625 143.92230224609375" fill="rgb(28, 132, 11)" opacity="1.0" stroke-width="2.0"/>
    <path d="M 308.4461364746094 112.04975128173828 C 312.0026550292969 122.99844360351562 309.0841979980469 126.81201171875 308.9108581542969 132.97154235839844 C 312.9984130859375 136.05813598632812 299.8460388183594 121.70159149169922 310.5124206542969 112.87802124023438 C 307.9276123046875 135.50209045410156 307.2154846191406 147.5470733642578 307.6192932128906 152.67236328125 C 307.0735168457031 154.9270782470703 304.10736083984375 166.9835205078125 302.9648132324219 165.9806365966797 C 309.3264465332031 158.52406311035156 308.0927734375 162.4713592529297 308.4461364746094 112.04975128173828" fill="rgb(106, 92, 169)" opacity="1.0" stroke-width="2.0"/>
    <path d="M 68.23841094970703 116.156494140625 C 61.82088851928711 144.68922424316406 55.74507522583008 143.35963439941406 44.20366668701172 122.13782501220703 C 24.730016708374023 116.96009063720703 20.26053237915039 145.10313415527344 30.416149139404297 157.34115600585938 C 63.858558654785156 150.8941650390625 61.34980773925781 142.53736877441406 40.02785873413086 120.78997039794922 C 49.270362854003906 108.20665740966797 72.16588592529297 118.161865234375 64.61051177978516 118.92478942871094 C 65.06287384033203 131.26242065429688 80.089599609375 144.1148681640625 68.23841094970703 116.156494140625" fill="rgb(107, 185, 147)" opacity="1.0" stroke-width="2.0"/>
    <path d="M 346.2796936035156 198.0146942138672 C 354.0798034667969 182.46067810058594 373.9560852050781 187.9207305908203 370.0001220703125 210.43798828125 C 355.7905578613281 201.9775390625 352.0528869628906 211.0472412109375 350.2021789550781 185.15162658691406 C 368.6535339355469 186.30259704589844 374.8355712890625 182.83998107910156 382.8506774902344 181.84169006347656 C 386.13360595703125 181.66326904296875 394.13818359375 172.10293579101562 413.0326232910156 181.38412475585938 C 404.7779235839844 163.8717498779297 399.03021240234375 172.9903564453125 346.2796936035156 198.0146942138672" fill="rgb(29, 180, 152)" opacity="1.0" stroke-width="2.0"/>
    <path d="M 321.72674560546875 107.32593536376953 C 320.0330810546875 125.56307983398438 322.0898742675781 133.2355499267578 321.18487548828125 118.56703186035156 C 330.14495849609375 119.54991912841797 318.512451171875 128.6806182861328 324.333251953125 129.8378143310547 C 319.9449157714844 136.2522430419922 323.2236022949219 127.07551574707031 321.72674560546875 107.32593536376953" fill="rgb(255, 55, 127)" opacity="1.0" stroke-width="2.0"/>
    <path d="M 300.052490234375 183.08934020996094 C 293.5272216796875 192.7982940673828 302.37481689453125 187.59823608398438 303.548828125 175.8182373046875 C 308.9540710449219 165.85694885253906 295.9029235839844 175.76828002929688 299.4890441894531 171.49832153320312 C 297.01373291015625 182.12478637695312 300.1581115722656 179.0466766357422 303.8241882324219 187.85057067871094 C 304.027099609375 182.77525329589844 316.8531494140625 181.7865447998047 306.627197265625 182.00265502929688 C 312.1602783203125 178.80621337890625 314.35205078125 180.57398986816406 300.052490234375 183.08934020996094" fill="rgb(171, 50, 99)" opacity="1.0" stroke-width="2.0"/>
    <path d="M 69.80178833007812 398.2594299316406 C 66.39734649658203 404.6112365722656 62.164276123046875 416.3075256347656 68.39366149902344 403.4375 C 71.34175109863281 392.1086730957031 70.24797058105469 402.2957763671875 78.43843078613281 398.8624572753906 C 81.53653717041016 417.0711364746094 82.6803207397461 429.74713134765625 54.29518508911133 421.8451843261719 C 57.51274108886719 415.1104431152344 51.800750732421875 421.52154541015625 43.40134048461914 394.30078125 C 56.61543655395508 384.5770263671875 47.27486801147461 374.0037536621094 69.80178833007812 398.2594299316406" fill="rgb(59, 221, 208)" opacity="1.0" stroke-width="2.0"/>
    <path d="M 81.85539245605469 503.3031005859375 C 76.9775390625 499.7593688964844 86.6498794555664 508.7698669433594 91.02015686035156 520.92724609375 C 91.524658203125 512.9061889648438 101.35721588134766 503.8407287597656 99.23042297363281 503.2027282714844 C 101.17713928222656 501.4850769042969 95.14303588867188 510.4774475097656 92.57567596435547 515.0834350585938 C 92.35399627685547 508.0614013671875 89.68804931640625 523.029541015625 92.43917846679688 515.3660278320312 C 84.75274658203125 527.9088745117188 96.11475372314453 523.6317138671875 81.85539245605469 503.3031005859375" fill="rgb(133, 160, 219)" opacity="1.0" stroke-width="2.0"/>
    <path d="M 38.415557861328125 418.2325744628906 C 48.73497772216797 420.22723388671875 47.93938446044922 419.0883483886719 46.826290130615234 394.22454833984375 C 63.57794952392578 394.31695556640625 75.7237548828125 394.8937072753906 74.34281921386719 420.49560546875 C 58.10560607910156 416.9705810546875 31.61200714111328 420.9131774902344 33.894432067871094 413.8660583496094 C 34.33128356933594 421.9723815917969 38.55195617675781 406.75665283203125 41.053016662597656 404.59747314453125 C 34.769981384277344 415.0955505371094 37.734798431396484 410.3420104980469 38.415557861328125 418.2325744628906" fill="rgb(81, 37, 103)" opacity="1.0" stroke-width="2.0"/>
    <path d="M 136.11553955078125 79.85613250732422 C 135.8134765625 89.02068328857422 131.8679656982422 102.19559478759766 148.3405303955078 92.98715209960938 C 145.84402465820312 105.8350830078125 140.9521026611328 112.42504119873047 144.6254119873047 103.91846466064453 C 154.54092407226562 114.26189422607422 152.53591918945312 123.65396881103516 136.11553955078125 79.85613250732422" fill="rgb(234, 86, 168)" opacity="1.0" stroke-width="2.0"/>
    <path d="M 205.88946533203125 474.21673583984375 C 225.73008728027344 481.6452331542969 237.02328491210938 479.6181335449219 244.6566925048828 502.7574157714844 C 239.50714111328125 505.2634582519531 226.9844207763672 510.1650085449219 217.02146911621094 521.80224609375 C 209.71629333496094 517.5551147460938 203.498779296875 513.81298828125 196.83718872070312 490.2843322753906 C 190.7273712158203 507.44482421875 195.09893798828125 516.1444702148438 205.88946533203125 474.21673583984375" fill="rgb(162, 52, 42)" opacity="1.0" stroke-width="2.0"/>
    <path d="M 142.90582275390625 253.70376586914062 C 137.9980010986328 241.697021484375 134.7836151123047 244.72430419921875 143.06588745117188 242.48793029785156 C 134.10951232910156 242.885009765625 127.16828155517578 235.2046661376953 138.4683074951172 241.28948974609375 C 127.56432342529297 238.41314697265625 132.65611267089844 223.0566864013672 142.90582275390625 253.70376586914062" fill="rgb(102, 247, 209)" opacity="1.0" stroke-width="2.0"/>
    <path d="M 479.69342041015625 297.38720703125 C 509.8634338378906 298.483642578125 512.5750122070312 301.9718017578125 505.4039001464844 318.0526428222656 C 493.709228515625 327.10858154296875 489.3542785644531 306.6417236328125 478.6093444824219 322.29364013671875 C 487.2552795410156 342.4041748046875 489.6597900390625 334.8621520996094 497.9643859863281 337.6198425292969 C 512.2255859375 324.57623291015625 495.0577697753906 327.44830322265625 479.69342041015625 297.38720703125" fill="rgb(55, 121, 219)" opacity="1.0" stroke-width="2.0"/>
    <path d="M 60.13481521606445 37.79573059082031 C 65.55268096923828 46.159332275390625 72.71784973144531 34.494876861572266 60.1797981262207 45.523319244384766 C 68.7936782836914 45.38155746459961 77.62971496582031 52.00105667114258 68.8291015625 40.74143600463867 C 81.02008819580078 58.473663330078125 79.421142578125 57.74319076538086 71.57994079589844 63.465091705322266 C 70.93396759033203 66.75312042236328 80.0418701171875 52.83221435546875 74.18868255615234 50.978118896484375 C 75.34194946289062 53.54304885864258 89.01546478271484 54.377357482910156 60.13481521606445 37.79573059082031" fill="rgb(243, 110, 76)" opacity="1.0" stroke-width="2.0"/>
    <path d="M 489.7821350097656 386.1448974609375 C 474.7872314453125 376.261962890625 481.7513122558594 386.2525634765625 470.1490478515625 396.6250915527344 C 468.8878479003906 406.1116943359375 456.5843811035156 405.40155029296875 448.9243469238281 401.3885192871094 C 445.2452392578125 376.5849304199219 464.4180908203125 364.5462646484375 489.7821350097656 386.1448974609375" fill="rgb(161, 0, 39)" opacity="1.0" stroke-width="2.0"/>
  </g>
</svg>
