<?xml version="1.0" ?>
<svg height="512" version="1.1" width="512" xmlns="http://www.w3.org/2000/svg">
  <defs/>
  <g>
    <path d="M 58.478755950927734 50.05483627319336 C 59.64212417602539 49.16325759887695 54.85471725463867 53.4931640625 54.07735061645508 53.894447326660156 C 37.172119140625 69.02641296386719 31.40418243408203 73.17974090576172 31.790769577026367 72.23545837402344 C 36.92235565185547 71.50442504882812 27.184144973754883 73.67083740234375 38.115413665771484 68.86237335205078 C 30.591472625732422 71.56832885742188 22.319562911987305 82.16612243652344 58.478755950927734 50.05483627319336" fill="rgb(255, 69, 131)" opacity="1.0" stroke-width="2.0"/>
    <path d="M 185.35047912597656 504.1299133300781 C 151.34176635742188 441.5366516113281 71.33885955810547 440.0888671875 100.04070281982422 459.8616027832031 C 152.35064697265625 495.4627685546875 140.1101531982422 482.68914794921875 91.25362396240234 466.8048400878906 C 63.980125427246094 469.8060302734375 74.09903717041016 468.0890808105469 91.77662658691406 466.8169860839844 C 84.6902084350586 466.34613037109375 75.82411193847656 458.3128356933594 185.35047912597656 504.1299133300781" fill="rgb(15, 40, 6)" opacity="1.0" stroke-width="2.0"/>
    <path d="M 119.607421875 439.2038879394531 C 138.83441162109375 207.62278747558594 166.84613037109375 217.8531494140625 172.2707061767578 191.1746063232422 C 182.3769073486328 186.6858673095703 202.49366760253906 193.75961303710938 423.8676452636719 208.5814208984375 C 428.8869934082031 416.2271728515625 418.478515625 421.3049011230469 413.9744873046875 458.78082275390625 C 144.40696716308594 453.0806884765625 135.0800323486328 457.2318115234375 119.607421875 439.2038879394531" fill="rgb(252, 221, 108)" opacity="1.0" stroke-width="2.0"/>
    <path d="M 422.602294921875 181.68016052246094 C 419.4501037597656 217.42819213867188 380.1687927246094 230.0363006591797 357.02001953125 210.91725158691406 C 359.6073303222656 209.33802795410156 362.8266296386719 221.65284729003906 365.9297790527344 225.1981964111328 C 356.1613464355469 209.75193786621094 347.6866149902344 181.3114013671875 376.4776916503906 199.30593872070312 C 407.31793212890625 206.74908447265625 403.54742431640625 154.1537322998047 422.602294921875 181.68016052246094" fill="rgb(4, 2, 2)" opacity="1.0" stroke-width="2.0"/>
    <path d="M 231.9652862548828 211.25439453125 C 217.63754272460938 231.14642333984375 185.03892517089844 250.13507080078125 184.79966735839844 198.8245849609375 C 240.083740234375 177.19155883789062 212.19041442871094 220.07594299316406 271.2938232421875 227.49729919433594 C 345.0945129394531 208.716796875 359.25537109375 267.16180419921875 365.3804016113281 132.38919067382812 C 190.15850830078125 103.78504943847656 208.89566040039062 118.14881134033203 231.9652862548828 211.25439453125" fill="rgb(193, 158, 85)" opacity="1.0" stroke-width="2.0"/>
    <path d="M 411.3793640136719 151.39297485351562 C 430.3260803222656 176.9202423095703 418.003173828125 186.00514221191406 420.53375244140625 195.73056030273438 C 411.27471923828125 180.6835479736328 409.596435546875 147.5306396484375 346.21441650390625 165.4371795654297 C 342.450927734375 164.40948486328125 369.4604187011719 117.91548156738281 411.3793640136719 151.39297485351562" fill="rgb(4, 1, 2)" opacity="1.0" stroke-width="2.0"/>
    <path d="M 271.3455810546875 3.92741060256958 C 368.7670593261719 28.933420181274414 340.2142639160156 128.92898559570312 259.16485595703125 168.19984436035156 C 214.94454956054688 131.94338989257812 193.07469177246094 19.925334930419922 251.69578552246094 -14.106758117675781 C 338.8750305175781 106.48094177246094 307.1708068847656 143.5286102294922 287.2696838378906 147.3614959716797 C 273.7699279785156 168.03469848632812 269.23876953125 207.2989959716797 334.12646484375 227.748291015625 C 355.2986145019531 143.18470764160156 321.69207763671875 140.43821716308594 271.3455810546875 3.92741060256958" fill="rgb(239, 212, 105)" opacity="1.0" stroke-width="2.0"/>
    <path d="M 73.72203826904297 105.35533142089844 C 24.314496994018555 174.19708251953125 41.55426788330078 193.48240661621094 47.442840576171875 104.6513442993164 C 38.246829986572266 124.53746795654297 -1.395713210105896 167.6436004638672 -0.7666783928871155 264.89892578125 C 54.02120590209961 261.1959228515625 33.82833480834961 145.25990295410156 50.343544006347656 102.63740539550781 C 91.72860717773438 50.403778076171875 123.52227783203125 33.2677116394043 170.45387268066406 14.336320877075195 C 47.42920684814453 136.48809814453125 67.53401184082031 98.1181640625 73.72203826904297 105.35533142089844" fill="rgb(2, 0, 1)" opacity="1.0" stroke-width="2.0"/>
    <path d="M 349.2138977050781 188.69093322753906 C 369.2537536621094 178.6350860595703 354.17120361328125 177.4832763671875 382.6455078125 219.69039916992188 C 366.6415100097656 220.24774169921875 331.6499328613281 204.25662231445312 345.6776428222656 162.25631713867188 C 406.9374694824219 144.2314910888672 348.72564697265625 172.50523376464844 363.7937316894531 181.3896484375 C 415.4454650878906 148.3252410888672 390.5963439941406 170.8157501220703 411.3605651855469 206.74737548828125 C 423.1918029785156 135.67648315429688 408.07525634765625 158.11129760742188 349.2138977050781 188.69093322753906" fill="rgb(1, 0, 1)" opacity="1.0" stroke-width="2.0"/>
    <path d="M 309.8558349609375 -0.9999724626541138 C 287.604248046875 144.79896545410156 297.8095397949219 180.7779998779297 301.3154602050781 8.338394165039062 C 436.2578125 27.216670989990234 440.3475341796875 37.36962890625 435.903564453125 130.9741668701172 C 265.274658203125 161.8300323486328 317.40185546875 155.23947143554688 309.8558349609375 -0.9999724626541138" fill="rgb(207, 192, 101)" opacity="1.0" stroke-width="2.0"/>
    <path d="M 294.2208251953125 173.9720458984375 C 297.7544860839844 187.87171936035156 300.0028076171875 187.71820068359375 289.18841552734375 157.499755859375 C 299.447265625 145.421875 288.6002197265625 165.40924072265625 287.5393371582031 145.72946166992188 C 296.2088317871094 188.2462615966797 299.66015625 186.48648071289062 299.41302490234375 187.37960815429688 C 288.6135559082031 168.61846923828125 311.8791198730469 171.43804931640625 293.4375915527344 175.23770141601562 C 303.6138000488281 177.143310546875 311.1567077636719 183.370849609375 294.2208251953125 173.9720458984375" fill="rgb(255, 177, 110)" opacity="1.0" stroke-width="2.0"/>
    <path d="M 21.568620681762695 293.4190673828125 C 52.93037033081055 411.9034423828125 87.78714752197266 398.39910888671875 67.3742904663086 421.530029296875 C 68.95687866210938 392.7003173828125 66.00862121582031 399.0934753417969 99.97714233398438 433.18743896484375 C 140.8612060546875 459.01910400390625 139.16607666015625 482.32293701171875 109.59971618652344 465.35955810546875 C 76.18016815185547 398.6853332519531 32.0864372253418 428.8669128417969 3.737786054611206 304.0272216796875 C -10.427417755126953 261.72430419921875 26.21559715270996 247.28704833984375 21.568620681762695 293.4190673828125" fill="rgb(6, 0, 0)" opacity="1.0" stroke-width="2.0"/>
    <path d="M 81.67964935302734 506.8659973144531 C 78.43548583984375 503.22845458984375 86.5351791381836 510.95556640625 90.92646789550781 525.2117309570312 C 94.60124969482422 517.2485961914062 101.88108825683594 507.33673095703125 93.5313491821289 516.4793701171875 C 101.10945129394531 507.8236999511719 96.16027069091797 514.2052001953125 94.25875091552734 518.1204223632812 C 92.38845825195312 508.1036682128906 90.49079132080078 523.9153442382812 90.8578872680664 516.924560546875 C 82.97740173339844 529.2212524414062 94.72309112548828 524.6212768554688 81.67964935302734 506.8659973144531" fill="rgb(150, 178, 241)" opacity="1.0" stroke-width="2.0"/>
    <path d="M 49.12361145019531 411.8631591796875 C 82.83875274658203 439.083984375 55.01191711425781 430.8971862792969 18.86250114440918 355.5388488769531 C 48.06839370727539 363.3766784667969 76.39920043945312 403.7554931640625 108.69696807861328 466.3888854980469 C 50.2185173034668 422.0980529785156 54.21796417236328 403.4400329589844 41.86435317993164 415.9587097167969 C 40.43366241455078 420.3995666503906 42.302303314208984 414.0711669921875 42.410343170166016 409.8327331542969 C 40.943172454833984 419.8492431640625 41.73569107055664 413.1153564453125 49.12361145019531 411.8631591796875" fill="rgb(1, 0, 1)" opacity="1.0" stroke-width="2.0"/>
    <path d="M 212.2616424560547 -16.587060928344727 C 63.47968673706055 92.53313446044922 25.374483108520508 190.86476135253906 238.5426025390625 95.65214538574219 C 250.63351440429688 212.66184997558594 95.00570678710938 217.36117553710938 68.44400024414062 126.2613754272461 C 279.81268310546875 146.81922912597656 276.0049133300781 16.99506187438965 212.2616424560547 -16.587060928344727" fill="rgb(210, 186, 95)" opacity="1.0" stroke-width="2.0"/>
    <path d="M 160.6237335205078 472.83575439453125 C 314.3270263671875 527.6585083007812 352.360595703125 440.78466796875 354.48504638671875 494.3509521484375 C 257.2702331542969 523.9722900390625 235.5952911376953 513.3059692382812 265.108642578125 519.3067626953125 C 193.31553649902344 500.04766845703125 178.2266387939453 516.3812255859375 152.162109375 467.8702392578125 C 144.7718505859375 491.0986022949219 169.5767059326172 509.3527526855469 160.6237335205078 472.83575439453125" fill="rgb(2, 4, 2)" opacity="1.0" stroke-width="2.0"/>
    <path d="M 192.97610473632812 369.0284423828125 C 26.163341522216797 369.17828369140625 27.158512115478516 353.08355712890625 38.73691177368164 325.41485595703125 C 10.12717342376709 325.2620849609375 13.630073547363281 171.0093231201172 56.23519515991211 136.5338897705078 C 183.53131103515625 149.10414123535156 200.4673309326172 136.9649200439453 192.97610473632812 369.0284423828125" fill="rgb(251, 213, 107)" opacity="1.0" stroke-width="2.0"/>
    <path d="M 486.7701416015625 175.36244201660156 C 559.2890014648438 226.76754760742188 511.49664306640625 252.2430877685547 502.1150817871094 334.7438659667969 C 490.3071594238281 288.90643310546875 495.5584716796875 246.80442810058594 484.586181640625 315.3467712402344 C 461.9183654785156 391.7449951171875 435.4155578613281 388.7381896972656 477.34967041015625 375.7425842285156 C 522.72509765625 308.5992431640625 487.6556701660156 364.312255859375 486.7701416015625 175.36244201660156" fill="rgb(14, 14, 8)" opacity="1.0" stroke-width="2.0"/>
    <path d="M 63.07963180541992 41.03205871582031 C 74.3831787109375 51.259033203125 70.10272216796875 43.48967361450195 64.41967010498047 46.52226257324219 C 69.81648254394531 44.41344451904297 74.76213836669922 50.832786560058594 65.98455810546875 43.5221061706543 C 79.33763122558594 53.20931625366211 75.57933807373047 58.07083511352539 74.27326965332031 61.13885498046875 C 73.9985122680664 61.3370361328125 81.21659851074219 55.44926452636719 67.16140747070312 44.13546371459961 C 67.532470703125 44.1988525390625 80.692138671875 56.13257598876953 63.07963180541992 41.03205871582031" fill="rgb(255, 134, 101)" opacity="1.0" stroke-width="2.0"/>
    <path d="M 486.4827575683594 346.1404724121094 C 503.506591796875 338.3160095214844 488.0848388671875 371.30841064453125 461.1830139160156 410.6368408203125 C 428.7379150390625 449.1321716308594 376.0240478515625 499.1441955566406 337.4151916503906 486.0068054199219 C 491.6629943847656 386.0799255371094 472.2021179199219 329.0865478515625 486.4827575683594 346.1404724121094" fill="rgb(10, 6, 4)" opacity="1.0" stroke-width="2.0"/>
  </g>
</svg>
