<?xml version="1.0" ?>
<svg height="512" version="1.1" width="512" xmlns="http://www.w3.org/2000/svg">
  <defs/>
  <g>
    <path d="M 59.135066986083984 51.58382034301758 C 56.92510223388672 53.39788055419922 53.689090728759766 56.02939224243164 55.05759811401367 55.31031036376953 C 37.92002487182617 69.81878662109375 33.61712646484375 73.9689712524414 35.97527313232422 71.92030334472656 C 38.277706146240234 71.29609680175781 32.62370681762695 75.5253677368164 38.54963684082031 69.91914367675781 C 37.49861526489258 70.7115707397461 24.31086540222168 81.634765625 59.135066986083984 51.58382034301758" fill="rgb(255, 102, 168)" opacity="1.0" stroke-width="2.0"/>
    <path d="M 182.7517547607422 502.5461730957031 C 158.5193634033203 440.9891662597656 77.24347686767578 437.7384338378906 109.44256591796875 466.9335021972656 C 156.48387145996094 496.7730712890625 163.33106994628906 492.6894226074219 90.46321868896484 467.8749694824219 C 68.22909545898438 467.0604248046875 81.63240051269531 467.4216003417969 89.29872131347656 467.72149658203125 C 90.21867370605469 469.0412902832031 74.53499603271484 460.04412841796875 182.7517547607422 502.5461730957031" fill="rgb(0, 1, 0)" opacity="1.0" stroke-width="2.0"/>
    <path d="M 65.90324401855469 410.0077209472656 C 111.92898559570312 167.5271759033203 138.74407958984375 141.6622772216797 232.53611755371094 131.10997009277344 C 176.17120361328125 215.14926147460938 72.59313201904297 208.2502899169922 481.9561462402344 129.1695098876953 C 518.3220825195312 461.2453918457031 459.2555236816406 382.6515197753906 365.6589050292969 485.4180908203125 C 156.1173858642578 504.8374938964844 157.2410430908203 479.43963623046875 65.90324401855469 410.0077209472656" fill="rgb(252, 220, 111)" opacity="1.0" stroke-width="2.0"/>
    <path d="M 422.3158874511719 180.86839294433594 C 420.54571533203125 215.51637268066406 380.683349609375 232.44496154785156 354.98370361328125 209.25498962402344 C 358.4181823730469 204.782470703125 361.2706604003906 216.5339813232422 364.77154541015625 223.3852081298828 C 357.4672546386719 205.83251953125 344.2295227050781 181.0991973876953 375.4649963378906 199.0386962890625 C 413.01544189453125 206.95083618164062 396.82275390625 150.17724609375 422.3158874511719 180.86839294433594" fill="rgb(2, 1, 2)" opacity="1.0" stroke-width="2.0"/>
    <path d="M 253.26490783691406 187.686279296875 C 224.58001708984375 266.21728515625 114.33927917480469 183.0591583251953 213.10824584960938 130.16444396972656 C 164.41485595703125 214.5372772216797 219.37664794921875 222.78184509277344 276.37841796875 149.1243896484375 C 350.84271240234375 153.44189453125 363.0834045410156 208.8227996826172 358.68646240234375 145.55677795410156 C 158.85438537597656 131.78823852539062 183.443115234375 137.96424865722656 253.26490783691406 187.686279296875" fill="rgb(6, 5, 6)" opacity="1.0" stroke-width="2.0"/>
    <path d="M 410.796630859375 151.7422332763672 C 429.5333251953125 171.74905395507812 420.97113037109375 198.0486297607422 412.97216796875 200.3575439453125 C 399.5743713378906 179.1591339111328 404.1911315917969 140.33840942382812 350.9635314941406 171.83120727539062 C 338.61920166015625 164.7659149169922 377.3834533691406 118.96269989013672 410.796630859375 151.7422332763672" fill="rgb(1, 1, 2)" opacity="1.0" stroke-width="2.0"/>
    <path d="M 299.5143127441406 12.48278522491455 C 409.9920959472656 54.86798858642578 347.71270751953125 100.91493225097656 242.52122497558594 150.47650146484375 C 163.71864318847656 112.99518585205078 165.58154296875 43.82822799682617 232.7547607421875 -4.869857311248779 C 425.3243408203125 38.07765197753906 369.87396240234375 91.43486785888672 239.70335388183594 151.7761688232422 C 259.2344970703125 152.08213806152344 255.01846313476562 283.9044494628906 366.05224609375 144.1324462890625 C 541.3359985351562 146.29161071777344 463.90716552734375 95.22706604003906 299.5143127441406 12.48278522491455" fill="rgb(251, 222, 109)" opacity="1.0" stroke-width="2.0"/>
    <path d="M 96.94486236572266 82.39130401611328 C 24.97242546081543 150.0955047607422 52.45212173461914 216.6403045654297 47.55718231201172 106.55313873291016 C 38.74427032470703 120.17828369140625 -6.940796852111816 178.79696655273438 -0.14329001307487488 278.99615478515625 C 46.675537109375 279.08538818359375 50.08145523071289 155.45896911621094 47.2567024230957 110.3078384399414 C 71.57246398925781 54.575904846191406 208.46762084960938 -31.187265396118164 279.36322021484375 14.46715259552002 C 40.159812927246094 40.41910171508789 187.4630584716797 105.59159088134766 96.94486236572266 82.39130401611328" fill="rgb(3, 2, 2)" opacity="1.0" stroke-width="2.0"/>
    <path d="M 349.4206848144531 185.2050323486328 C 375.73602294921875 171.2815399169922 347.63330078125 182.62535095214844 378.029541015625 201.55419921875 C 353.2048034667969 240.6867218017578 312.33343505859375 155.70765686035156 377.295166015625 139.61517333984375 C 435.1394958496094 143.40863037109375 360.380615234375 153.35562133789062 362.43780517578125 178.23916625976562 C 416.7227478027344 150.09835815429688 396.3009948730469 162.96864318847656 404.5784912109375 209.4894561767578 C 425.321533203125 143.17245483398438 401.3644104003906 157.46141052246094 349.4206848144531 185.2050323486328" fill="rgb(1, 1, 1)" opacity="1.0" stroke-width="2.0"/>
    <path d="M 311.861328125 23.245685577392578 C 291.11212158203125 119.42558288574219 284.6159973144531 147.19351196289062 314.93389892578125 9.528804779052734 C 404.94952392578125 23.044466018676758 483.6568908691406 102.74159240722656 495.38360595703125 187.6376953125 C 452.4182434082031 148.4270477294922 456.1463928222656 75.98907470703125 311.861328125 23.245685577392578" fill="rgb(24, 22, 17)" opacity="1.0" stroke-width="2.0"/>
    <path d="M 295.34381103515625 174.4036865234375 C 298.9187316894531 187.2306671142578 299.9253234863281 187.9983367919922 293.3649597167969 150.6569366455078 C 266.85797119140625 136.5422821044922 252.72262573242188 146.2050018310547 296.72296142578125 121.43883514404297 C 299.29547119140625 185.71510314941406 298.6256408691406 186.96763610839844 300.0286865234375 186.2635955810547 C 288.02301025390625 169.63079833984375 308.68994140625 172.01011657714844 294.0329895019531 174.77381896972656 C 303.0081481933594 176.92091369628906 310.9654235839844 183.1060791015625 295.34381103515625 174.4036865234375" fill="rgb(253, 223, 108)" opacity="1.0" stroke-width="2.0"/>
    <path d="M 21.981435775756836 285.3073425292969 C 41.050106048583984 401.9833679199219 94.33370208740234 398.2577819824219 64.72491455078125 427.9622497558594 C 73.87628173828125 386.03021240234375 61.00810623168945 401.9783020019531 110.7295913696289 441.8576354980469 C 163.17613220214844 482.5679931640625 186.2347412109375 470.0812683105469 112.16016387939453 469.1485900878906 C 82.1367416381836 402.32122802734375 24.186920166015625 417.0894470214844 2.7248706817626953 297.90478515625 C -6.125814437866211 245.347900390625 19.64146614074707 231.25062561035156 21.981435775756836 285.3073425292969" fill="rgb(2, 0, 1)" opacity="1.0" stroke-width="2.0"/>
    <path d="M 83.66265869140625 513.036376953125 C 80.85746002197266 509.3984069824219 85.80741119384766 514.8866577148438 89.60253143310547 527.9873046875 C 94.52173614501953 517.6522216796875 101.721923828125 508.1291809082031 93.79763793945312 518.1727294921875 C 101.24073028564453 507.472412109375 96.19739532470703 514.019287109375 94.27278137207031 518.0782470703125 C 92.38845825195312 508.1036682128906 90.49079132080078 523.9153442382812 90.88126373291016 516.9232788085938 C 82.63579559326172 529.7105712890625 92.8295669555664 526.75048828125 83.66265869140625 513.036376953125" fill="rgb(159, 187, 255)" opacity="1.0" stroke-width="2.0"/>
    <path d="M 52.47384262084961 414.7596130371094 C 84.74166107177734 443.01263427734375 46.829429626464844 419.04705810546875 18.838584899902344 354.2568054199219 C 43.81139373779297 366.5165100097656 79.08941650390625 403.4980773925781 111.44001770019531 467.9628601074219 C 53.440975189208984 427.1436462402344 57.62199020385742 401.9114074707031 36.82500457763672 418.4183349609375 C 45.145145416259766 412.45916748046875 39.06232452392578 418.9259338378906 40.05997848510742 413.12286376953125 C 38.67674255371094 420.686279296875 42.86344909667969 409.34185791015625 52.47384262084961 414.7596130371094" fill="rgb(0, 0, 1)" opacity="1.0" stroke-width="2.0"/>
    <path d="M 246.37689208984375 18.872129440307617 C 54.1450080871582 41.05063247680664 8.247800827026367 204.67103576660156 239.91757202148438 84.74473571777344 C 245.65701293945312 172.87696838378906 53.48802185058594 170.7470703125 63.34144973754883 137.24716186523438 C 275.16912841796875 117.98410034179688 296.8117370605469 6.436336517333984 246.37689208984375 18.872129440307617" fill="rgb(252, 222, 108)" opacity="1.0" stroke-width="2.0"/>
    <path d="M 146.76976013183594 465.8807067871094 C 300.323974609375 538.8132934570312 386.18121337890625 430.2899169921875 367.97125244140625 486.9244079589844 C 285.3228759765625 527.5604248046875 213.8241729736328 503.22601318359375 282.35504150390625 518.7938232421875 C 190.023681640625 503.76861572265625 170.58457946777344 511.79498291015625 145.76055908203125 464.0675354003906 C 135.0529327392578 487.0864562988281 171.66282653808594 507.40032958984375 146.76976013183594 465.8807067871094" fill="rgb(1, 0, 1)" opacity="1.0" stroke-width="2.0"/>
    <path d="M 157.09060668945312 423.54913330078125 C 67.31198120117188 423.8430480957031 60.78559112548828 388.630859375 41.864219665527344 354.6256408691406 C 10.149627685546875 288.7166748046875 3.9885497093200684 178.85826110839844 87.12211608886719 91.19442749023438 C 185.60887145996094 115.73731231689453 177.469482421875 127.25729370117188 157.09060668945312 423.54913330078125" fill="rgb(252, 213, 108)" opacity="1.0" stroke-width="2.0"/>
    <path d="M 445.78839111328125 83.39478302001953 C 536.2510986328125 184.21334838867188 509.61505126953125 298.8399963378906 506.1333923339844 312.15277099609375 C 509.40972900390625 266.05078125 478.8689880371094 177.73342895507812 491.1721496582031 231.3316650390625 C 500.99920654296875 365.1435241699219 418.16595458984375 402.2861022949219 475.22113037109375 381.2493591308594 C 510.5813293457031 313.68438720703125 532.3598022460938 326.1600341796875 445.78839111328125 83.39478302001953" fill="rgb(0, 0, 0)" opacity="1.0" stroke-width="2.0"/>
    <path d="M 66.28474426269531 39.80007553100586 C 76.6944351196289 50.98841094970703 73.01277923583984 42.824668884277344 70.3323745727539 46.89105987548828 C 71.61885070800781 44.22389602661133 74.6502685546875 48.38727569580078 69.80762481689453 41.25080108642578 C 78.85326385498047 53.64104080200195 74.64198303222656 58.281856536865234 74.69868469238281 51.560604095458984 C 74.18099975585938 57.9857177734375 78.40162658691406 54.06036376953125 70.57803344726562 42.1182861328125 C 69.93746948242188 41.164772033691406 77.90767669677734 52.34606170654297 66.28474426269531 39.80007553100586" fill="rgb(255, 148, 113)" opacity="1.0" stroke-width="2.0"/>
    <path d="M 500.1028747558594 336.1506042480469 C 500.5246887207031 329.94891357421875 491.26092529296875 372.29412841796875 458.4468688964844 413.20367431640625 C 430.1473083496094 452.64764404296875 345.7370300292969 516.9880981445312 323.438720703125 483.29638671875 C 476.8945007324219 428.2601318359375 464.51458740234375 314.25543212890625 500.1028747558594 336.1506042480469" fill="rgb(1, 0, 1)" opacity="1.0" stroke-width="2.0"/>
  </g>
</svg>
