<?xml version="1.0" ?>
<svg height="512" version="1.1" width="512" xmlns="http://www.w3.org/2000/svg">
  <defs/>
  <g>
    <path d="M 59.29787826538086 51.59220504760742 C 58.14127731323242 52.438297271728516 54.86287307739258 55.48103332519531 55.188419342041016 55.32491683959961 C 37.77556228637695 69.60139465332031 32.5454216003418 73.35465240478516 35.02012252807617 71.74658203125 C 36.55731201171875 70.73260498046875 31.115394592285156 75.63691711425781 36.73090744018555 68.68721008300781 C 35.274349212646484 70.67440795898438 23.33926010131836 81.36729431152344 59.29787826538086 51.59220504760742" fill="rgb(255, 92, 157)" opacity="1.0" stroke-width="2.0"/>
    <path d="M 182.74041748046875 502.59234619140625 C 158.12327575683594 441.0423889160156 77.17887878417969 437.7878112792969 109.4906997680664 466.87542724609375 C 156.7440185546875 497.0135803222656 161.1501007080078 491.61236572265625 90.29780578613281 467.94268798828125 C 67.43148040771484 467.2793273925781 80.03314971923828 467.76702880859375 88.84720611572266 467.9322509765625 C 89.55328369140625 468.96649169921875 74.72509002685547 459.80767822265625 182.74041748046875 502.59234619140625" fill="rgb(1, 1, 1)" opacity="1.0" stroke-width="2.0"/>
    <path d="M 66.40768432617188 410.61962890625 C 112.04995727539062 168.38291931152344 139.48681640625 149.3167724609375 228.13206481933594 131.7013702392578 C 185.27310180664062 203.87864685058594 94.71562957763672 204.82110595703125 484.6170654296875 125.50139617919922 C 512.620361328125 469.1010437011719 457.90740966796875 385.1493225097656 365.7988586425781 485.34197998046875 C 155.36459350585938 504.7366638183594 156.6809539794922 479.59259033203125 66.40768432617188 410.61962890625" fill="rgb(251, 220, 111)" opacity="1.0" stroke-width="2.0"/>
    <path d="M 422.25299072265625 180.72840881347656 C 420.5638427734375 215.81558227539062 381.0414733886719 231.7735137939453 355.4764099121094 210.04885864257812 C 359.0242004394531 205.94015502929688 362.0351867675781 217.41104125976562 365.2756042480469 223.7430877685547 C 357.28582763671875 206.06622314453125 344.9481506347656 178.81744384765625 374.61834716796875 198.81088256835938 C 413.1368713378906 208.4988250732422 396.6872253417969 150.6712646484375 422.25299072265625 180.72840881347656" fill="rgb(2, 1, 2)" opacity="1.0" stroke-width="2.0"/>
    <path d="M 253.34967041015625 186.644287109375 C 229.3504638671875 262.94586181640625 117.39729309082031 192.63446044921875 207.69383239746094 130.17984008789062 C 169.6162872314453 217.3844757080078 218.7923126220703 221.04718017578125 275.4783630371094 148.866943359375 C 350.3791198730469 154.37387084960938 362.9456481933594 209.92575073242188 355.7399597167969 147.7155303955078 C 145.6203155517578 136.6395721435547 175.8153533935547 130.1083984375 253.34967041015625 186.644287109375" fill="rgb(5, 4, 5)" opacity="1.0" stroke-width="2.0"/>
    <path d="M 410.7494812011719 151.7108917236328 C 429.9567565917969 172.48716735839844 420.5475769042969 195.76268005371094 414.591796875 198.81471252441406 C 398.6866149902344 178.7205352783203 403.76983642578125 140.4175567626953 350.9358215332031 171.78199768066406 C 338.6167907714844 164.76388549804688 377.0168151855469 119.12737274169922 410.7494812011719 151.7108917236328" fill="rgb(1, 1, 2)" opacity="1.0" stroke-width="2.0"/>
    <path d="M 299.241455078125 11.861696243286133 C 406.0790100097656 54.07474136352539 346.8057861328125 102.23271942138672 245.031005859375 152.92562866210938 C 167.19834899902344 109.15733337402344 166.83558654785156 42.377803802490234 232.47201538085938 -4.86971378326416 C 421.50048828125 35.127323150634766 368.0206604003906 93.81338500976562 241.9646759033203 154.41200256347656 C 254.19578552246094 146.75851440429688 258.40557861328125 274.76385498046875 362.6188659667969 149.2857666015625 C 536.2620849609375 134.914306640625 459.4344482421875 96.01630401611328 299.241455078125 11.861696243286133" fill="rgb(251, 221, 109)" opacity="1.0" stroke-width="2.0"/>
    <path d="M 93.45833587646484 85.34565734863281 C 25.508609771728516 153.68551635742188 51.93326187133789 215.26876831054688 47.51827621459961 106.21073913574219 C 38.82664108276367 120.48197937011719 -6.625640392303467 178.08160400390625 -0.24311774969100952 278.9505615234375 C 49.36039352416992 279.0848388671875 49.17774963378906 157.67520141601562 47.621849060058594 109.66790008544922 C 68.5328369140625 61.25901412963867 197.81439208984375 -30.68889617919922 281.4579162597656 13.317447662353516 C 36.875587463378906 43.23601150512695 181.20274353027344 104.06997680664062 93.45833587646484 85.34565734863281" fill="rgb(4, 3, 2)" opacity="1.0" stroke-width="2.0"/>
    <path d="M 349.5640869140625 185.10108947753906 C 376.35882568359375 171.37339782714844 346.9886474609375 181.16761779785156 377.8072814941406 202.6962890625 C 356.062744140625 241.35140991210938 310.4586181640625 157.34759521484375 377.0022888183594 139.43785095214844 C 438.4344177246094 143.90420532226562 359.8275451660156 153.45606994628906 362.50537109375 178.1053009033203 C 416.4266357421875 150.26678466796875 395.36639404296875 162.797607421875 405.4211730957031 209.22674560546875 C 425.61334228515625 143.16744995117188 401.4585876464844 157.3922119140625 349.5640869140625 185.10108947753906" fill="rgb(1, 1, 2)" opacity="1.0" stroke-width="2.0"/>
    <path d="M 312.1463623046875 21.7453670501709 C 293.1037902832031 122.0737533569336 287.448974609375 150.6813507080078 314.6326599121094 9.379239082336426 C 405.855224609375 22.99463653564453 480.4717712402344 102.71224975585938 495.9543151855469 181.0785369873047 C 439.3486633300781 133.35787963867188 460.86322021484375 83.302978515625 312.1463623046875 21.7453670501709" fill="rgb(24, 22, 17)" opacity="1.0" stroke-width="2.0"/>
    <path d="M 295.34552001953125 174.37124633789062 C 298.9326477050781 187.2515411376953 300.0243835449219 187.96792602539062 293.5904846191406 150.60926818847656 C 269.0486145019531 138.0021514892578 254.56614685058594 149.29071044921875 296.5879211425781 123.33582305908203 C 299.0980224609375 185.74757385253906 298.5290222167969 186.96852111816406 300.0660400390625 186.20960998535156 C 288.06121826171875 169.60501098632812 308.66754150390625 172.01019287109375 294.0218505859375 174.80661010742188 C 302.9640197753906 176.99102783203125 310.9844665527344 183.08851623535156 295.34552001953125 174.37124633789062" fill="rgb(253, 223, 109)" opacity="1.0" stroke-width="2.0"/>
    <path d="M 22.001798629760742 285.1492919921875 C 41.366363525390625 402.7232971191406 94.38390350341797 398.1160583496094 64.89909362792969 428.49749755859375 C 73.79694366455078 386.2243347167969 60.91297912597656 402.0129699707031 110.68938446044922 441.771728515625 C 162.78732299804688 482.0040588378906 185.33920288085938 470.0829162597656 112.24137115478516 469.0833435058594 C 81.73387908935547 401.6909484863281 24.165912628173828 417.43756103515625 2.6968376636505127 297.68646240234375 C -6.168653964996338 245.49110412597656 20.258506774902344 231.2727508544922 22.001798629760742 285.1492919921875" fill="rgb(2, 0, 1)" opacity="1.0" stroke-width="2.0"/>
    <path d="M 81.98896026611328 509.71044921875 C 79.6585922241211 506.0486145019531 86.18548583984375 513.1246948242188 90.08506774902344 527.0423583984375 C 94.52173614501953 517.6522216796875 101.721923828125 508.1291809082031 93.79763793945312 518.1727294921875 C 101.24073028564453 507.472412109375 96.19739532470703 514.019287109375 94.27278137207031 518.0782470703125 C 92.38845825195312 508.1036682128906 90.49079132080078 523.9153442382812 90.87989807128906 516.9234619140625 C 82.60028839111328 529.7493286132812 92.83613586425781 526.7805786132812 81.98896026611328 509.71044921875" fill="rgb(155, 184, 250)" opacity="1.0" stroke-width="2.0"/>
    <path d="M 52.46944046020508 414.6188659667969 C 85.99085998535156 443.7374572753906 47.47990036010742 420.51678466796875 18.80072784423828 354.3674011230469 C 43.52749252319336 366.9834899902344 79.41291046142578 403.31640625 111.32279205322266 468.0010070800781 C 53.0925407409668 427.2783508300781 57.33476638793945 402.1649169921875 36.664283752441406 418.2096862792969 C 44.32748794555664 411.9209289550781 38.09176254272461 419.2827453613281 39.72254180908203 412.98699951171875 C 38.58995819091797 420.6375427246094 42.585243225097656 409.28179931640625 52.46944046020508 414.6188659667969" fill="rgb(1, 0, 1)" opacity="1.0" stroke-width="2.0"/>
    <path d="M 247.88003540039062 18.348718643188477 C 51.097713470458984 44.39668273925781 12.298407554626465 197.67445373535156 239.4925079345703 83.63067626953125 C 244.99057006835938 174.04293823242188 54.68171691894531 172.10833740234375 62.5346565246582 133.40036010742188 C 276.1898193359375 117.32797241210938 297.0123596191406 4.643910884857178 247.88003540039062 18.348718643188477" fill="rgb(251, 221, 108)" opacity="1.0" stroke-width="2.0"/>
    <path d="M 146.90145874023438 465.9055480957031 C 300.9117736816406 538.5422973632812 384.59259033203125 430.62628173828125 367.6531982421875 486.9505310058594 C 283.95404052734375 527.8573608398438 215.50341796875 502.6977233886719 280.92144775390625 518.9967651367188 C 189.77337646484375 503.4215393066406 172.0352325439453 512.4534301757812 146.00376892089844 464.4815368652344 C 135.06930541992188 487.0779113769531 172.0328369140625 507.1146240234375 146.90145874023438 465.9055480957031" fill="rgb(1, 0, 1)" opacity="1.0" stroke-width="2.0"/>
    <path d="M 161.14498901367188 420.51220703125 C 63.66565704345703 422.55023193359375 61.12488555908203 387.6200256347656 41.35903549194336 353.769775390625 C 10.319061279296875 287.972412109375 4.27577543258667 181.51568603515625 84.13323211669922 94.14917755126953 C 187.63633728027344 115.63866424560547 180.01976013183594 127.06684112548828 161.14498901367188 420.51220703125" fill="rgb(252, 213, 108)" opacity="1.0" stroke-width="2.0"/>
    <path d="M 447.83770751953125 85.2859115600586 C 535.7263793945312 186.1307373046875 509.4683532714844 297.4822998046875 506.4206848144531 311.4657287597656 C 505.0199279785156 254.7207794189453 481.5122985839844 185.80921936035156 492.2637939453125 243.79092407226562 C 493.22955322265625 375.3547668457031 418.87615966796875 398.9367370605469 474.84979248046875 382.1675720214844 C 511.3824157714844 313.5107727050781 530.1129760742188 327.9242248535156 447.83770751953125 85.2859115600586" fill="rgb(1, 0, 0)" opacity="1.0" stroke-width="2.0"/>
    <path d="M 65.02452850341797 39.70307540893555 C 75.9256362915039 51.06980895996094 73.8412094116211 43.44131851196289 67.59221649169922 47.356937408447266 C 70.8451919555664 44.115169525146484 75.56588745117188 49.1590690612793 70.33279418945312 40.46559524536133 C 78.87543487548828 53.1319694519043 74.8163833618164 58.694984436035156 78.25297546386719 52.760982513427734 C 74.86947631835938 58.380977630615234 78.750244140625 54.583160400390625 70.89908599853516 41.41217041015625 C 70.59979248046875 41.09174728393555 78.59541320800781 53.00784683227539 65.02452850341797 39.70307540893555" fill="rgb(255, 145, 110)" opacity="1.0" stroke-width="2.0"/>
    <path d="M 500.1726989746094 335.89483642578125 C 500.7122497558594 329.7892761230469 491.1649169921875 372.3775939941406 458.8729248046875 412.8599548339844 C 430.8393249511719 451.7928771972656 346.7361145019531 516.6113891601562 323.78765869140625 483.72027587890625 C 479.8597106933594 425.24749755859375 462.24871826171875 315.9156188964844 500.1726989746094 335.89483642578125" fill="rgb(1, 0, 1)" opacity="1.0" stroke-width="2.0"/>
  </g>
</svg>
