<?xml version="1.0" ?>
<svg height="512" version="1.1" width="512" xmlns="http://www.w3.org/2000/svg">
  <defs/>
  <g>
    <path d="M 58.26762771606445 49.89722442626953 C 59.516807556152344 48.8372917175293 54.805686950683594 53.29779815673828 54.07756042480469 53.8559684753418 C 37.63711166381836 69.44007110595703 31.418127059936523 73.04205322265625 31.47170066833496 72.53156280517578 C 36.56332778930664 72.65550231933594 26.62957000732422 73.80137634277344 38.010040283203125 69.02581787109375 C 30.534074783325195 71.83013916015625 22.390567779541016 82.5506362915039 58.26762771606445 49.89722442626953" fill="rgb(255, 67, 129)" opacity="1.0" stroke-width="2.0"/>
    <path d="M 186.29978942871094 504.7659912109375 C 154.36492919921875 438.26873779296875 76.06796264648438 437.5945129394531 98.44379425048828 458.6026611328125 C 145.92262268066406 491.8432312011719 132.25929260253906 479.74530029296875 88.58600616455078 466.7104187011719 C 63.72285461425781 469.6785583496094 73.79423522949219 468.2420959472656 92.88972473144531 466.7400207519531 C 81.29059600830078 468.75628662109375 78.20284271240234 457.4150390625 186.29978942871094 504.7659912109375" fill="rgb(66, 60, 33)" opacity="1.0" stroke-width="2.0"/>
    <path d="M 144.045166015625 408.21173095703125 C 151.2648162841797 213.28292846679688 169.90017700195312 218.9391326904297 173.90823364257812 192.8618621826172 C 186.97227478027344 185.6669921875 206.97085571289062 191.01170349121094 394.9287414550781 210.56924438476562 C 400.5538330078125 395.06072998046875 389.8858642578125 402.4261779785156 384.51300048828125 428.5201721191406 C 165.34901428222656 421.3005065917969 156.50050354003906 425.1256408691406 144.045166015625 408.21173095703125" fill="rgb(252, 222, 110)" opacity="1.0" stroke-width="2.0"/>
    <path d="M 422.0533447265625 182.94996643066406 C 419.2356262207031 217.06622314453125 379.4325256347656 230.11134338378906 357.5933837890625 211.09683227539062 C 358.5005798339844 210.9656219482422 363.5116271972656 222.26071166992188 366.2890625 225.43751525878906 C 356.46832275390625 211.47283935546875 349.0019836425781 186.80078125 379.0907897949219 199.8227081298828 C 406.12799072265625 202.98468017578125 407.6697692871094 155.48526000976562 422.0533447265625 182.94996643066406" fill="rgb(10, 3, 3)" opacity="1.0" stroke-width="2.0"/>
    <path d="M 226.03286743164062 214.64547729492188 C 217.9451446533203 253.12759399414062 188.68194580078125 257.1846923828125 187.8282928466797 195.55145263671875 C 236.1427001953125 175.02598571777344 207.6104278564453 226.4852294921875 260.8272399902344 260.3959045410156 C 351.2125244140625 247.2759246826172 360.33148193359375 292.9737548828125 362.9250183105469 136.2621612548828 C 196.45077514648438 110.71765899658203 211.21469116210938 127.72984313964844 226.03286743164062 214.64547729492188" fill="rgb(215, 192, 97)" opacity="1.0" stroke-width="2.0"/>
    <path d="M 411.9801330566406 152.0673370361328 C 430.24896240234375 178.2883758544922 418.8915100097656 184.24282836914062 420.798583984375 193.9832305908203 C 413.8487243652344 180.1671142578125 411.3346252441406 148.77188110351562 343.37567138671875 165.1059112548828 C 344.44268798828125 165.31036376953125 369.1517639160156 117.79301452636719 411.9801330566406 152.0673370361328" fill="rgb(4, 3, 3)" opacity="1.0" stroke-width="2.0"/>
    <path d="M 287.29949951171875 19.80459976196289 C 356.3804626464844 55.216575622558594 335.5844421386719 128.8948211669922 252.92788696289062 169.81785583496094 C 233.9384307861328 160.46456909179688 218.69790649414062 56.07221603393555 274.3115234375 23.58873748779297 C 334.3537902832031 120.63871002197266 306.4647521972656 131.92657470703125 290.90606689453125 146.98883056640625 C 283.1818542480469 159.65838623046875 280.8833923339844 183.7000274658203 322.43853759765625 196.44589233398438 C 343.9283752441406 152.8505859375 315.4089050292969 161.1171875 287.29949951171875 19.80459976196289" fill="rgb(252, 225, 108)" opacity="1.0" stroke-width="2.0"/>
    <path d="M 74.213623046875 103.51123046875 C 28.172517776489258 171.48443603515625 38.29826736450195 178.58888244628906 46.79695129394531 106.63945007324219 C 36.737056732177734 124.76714324951172 4.149141311645508 164.1899871826172 -0.25615155696868896 245.2836456298828 C 39.856895446777344 232.6979522705078 36.92367935180664 141.31578063964844 49.80601119995117 101.01993560791016 C 97.27313232421875 51.41886520385742 110.26502990722656 37.76523208618164 143.73025512695312 31.987712860107422 C 46.78239822387695 140.40338134765625 68.74826049804688 106.86573028564453 74.213623046875 103.51123046875" fill="rgb(10, 14, 7)" opacity="1.0" stroke-width="2.0"/>
    <path d="M 348.3648376464844 189.4673614501953 C 367.6766357421875 178.8328857421875 357.5584411621094 180.43104553222656 381.8242492675781 220.78912353515625 C 363.9571838378906 212.46531677246094 331.650146484375 207.9972381591797 346.18231201171875 160.2998504638672 C 401.8673095703125 147.4552001953125 345.2699279785156 178.60267639160156 366.2688293457031 180.6109161376953 C 414.6228942871094 150.13182067871094 390.0399475097656 172.27304077148438 413.7407531738281 204.9512176513672 C 423.2052307128906 135.5966796875 409.55218505859375 159.2315216064453 348.3648376464844 189.4673614501953" fill="rgb(0, 2, 0)" opacity="1.0" stroke-width="2.0"/>
    <path d="M 312.2218017578125 19.065166473388672 C 290.4338073730469 153.90036010742188 309.3968505859375 188.04336547851562 320.623779296875 16.543155670166016 C 414.7080383300781 33.80514907836914 406.4662780761719 45.44587707519531 399.23101806640625 129.2325439453125 C 277.1229553222656 183.46392822265625 316.5680847167969 170.13424682617188 312.2218017578125 19.065166473388672" fill="rgb(229, 210, 96)" opacity="1.0" stroke-width="2.0"/>
    <path d="M 294.4649353027344 174.1742401123047 C 298.2063903808594 188.39266967773438 301.1250915527344 187.3672332763672 290.2602233886719 161.16299438476562 C 302.5506286621094 145.5811767578125 286.21112060546875 163.80014038085938 287.56378173828125 143.35202026367188 C 296.3139953613281 188.24374389648438 299.5487060546875 186.30738830566406 298.6853942871094 188.09585571289062 C 289.17120361328125 168.4973602294922 313.60833740234375 171.42466735839844 294.0140075683594 175.42578125 C 303.57867431640625 177.54940795898438 311.5019226074219 183.2700958251953 294.4649353027344 174.1742401123047" fill="rgb(253, 169, 110)" opacity="1.0" stroke-width="2.0"/>
    <path d="M 27.311864852905273 317.63006591796875 C 61.91246795654297 408.6146240234375 78.55817413330078 406.0865478515625 72.78028869628906 412.54290771484375 C 69.2117691040039 393.76995849609375 65.88565063476562 399.97027587890625 98.67533111572266 431.9797668457031 C 137.6419219970703 458.2613220214844 135.92079162597656 481.6290283203125 106.22383117675781 464.8467712402344 C 70.41682434082031 404.2132873535156 38.106788635253906 428.5774230957031 6.46144437789917 316.0951843261719 C -8.68411636352539 285.22906494140625 26.896093368530273 273.9757995605469 27.311864852905273 317.63006591796875" fill="rgb(0, 12, 6)" opacity="1.0" stroke-width="2.0"/>
    <path d="M 81.576171875 506.8185729980469 C 78.4292984008789 503.05743408203125 86.49193572998047 510.8876037597656 90.70804595947266 525.0308837890625 C 94.4084701538086 516.1984252929688 102.17025756835938 505.94073486328125 92.83418273925781 512.296630859375 C 100.79412841796875 507.38983154296875 96.25391387939453 514.270751953125 94.326416015625 518.1296997070312 C 92.38845825195312 508.1036682128906 90.49060821533203 523.9153442382812 90.86373901367188 516.9227294921875 C 82.97207641601562 529.2381591796875 94.62162017822266 524.74853515625 81.576171875 506.8185729980469" fill="rgb(150, 177, 240)" opacity="1.0" stroke-width="2.0"/>
    <path d="M 49.465816497802734 410.6781005859375 C 82.54051971435547 439.6088562011719 56.75072479248047 432.09539794921875 19.49554443359375 355.6853942871094 C 47.04189682006836 365.4245300292969 77.00988006591797 403.5083923339844 108.25118255615234 466.3677062988281 C 49.468406677246094 421.93292236328125 55.3824577331543 402.4525451660156 41.90066146850586 414.6850891113281 C 41.0069465637207 422.1085205078125 41.96156311035156 413.5859375 43.44310760498047 408.9951171875 C 41.122379302978516 418.8044128417969 41.00359344482422 412.3384704589844 49.465816497802734 410.6781005859375" fill="rgb(2, 1, 2)" opacity="1.0" stroke-width="2.0"/>
    <path d="M 186.1124267578125 -5.036491870880127 C 72.54594421386719 79.76732635498047 48.931427001953125 184.78819274902344 237.45274353027344 110.06568145751953 C 248.44464111328125 212.3401641845703 106.64019775390625 215.29649353027344 88.07966613769531 139.8492431640625 C 258.8616638183594 147.6405792236328 249.34686279296875 50.63847732543945 186.1124267578125 -5.036491870880127" fill="rgb(211, 188, 98)" opacity="1.0" stroke-width="2.0"/>
    <path d="M 164.69015502929688 474.48565673828125 C 300.0680236816406 520.8685913085938 326.8337707519531 453.92315673828125 334.4773254394531 501.2269287109375 C 253.82858276367188 517.5350341796875 237.7471466064453 519.7742309570312 255.08079528808594 521.9161376953125 C 186.3804473876953 492.0690612792969 174.79393005371094 522.5025634765625 155.08836364746094 463.11114501953125 C 146.48533630371094 492.1663818359375 172.12689208984375 513.6038208007812 164.69015502929688 474.48565673828125" fill="rgb(0, 6, 0)" opacity="1.0" stroke-width="2.0"/>
    <path d="M 204.8889923095703 339.8115234375 C 46.085697174072266 337.9962463378906 43.77210235595703 320.1990051269531 53.562923431396484 308.4646911621094 C 29.44465446472168 310.88165283203125 24.495521545410156 166.19219970703125 56.266971588134766 151.86082458496094 C 196.8209991455078 156.21617126464844 213.3509521484375 133.57801818847656 204.8889923095703 339.8115234375" fill="rgb(245, 211, 104)" opacity="1.0" stroke-width="2.0"/>
    <path d="M 491.051025390625 195.77615356445312 C 561.1180419921875 231.49447631835938 510.39459228515625 254.59054565429688 501.8074645996094 335.34674072265625 C 487.8934631347656 299.7979431152344 495.41876220703125 259.22900390625 482.9972229003906 321.02239990234375 C 462.5489501953125 385.40521240234375 443.9496765136719 381.17120361328125 479.13128662109375 372.2215881347656 C 523.6239013671875 310.55010986328125 480.7738037109375 360.1365051269531 491.051025390625 195.77615356445312" fill="rgb(14, 11, 20)" opacity="1.0" stroke-width="2.0"/>
    <path d="M 62.79115295410156 41.37902069091797 C 74.9693374633789 50.8241081237793 70.78712463378906 44.36074447631836 64.32275390625 47.10721969604492 C 71.23794555664062 43.844146728515625 74.22840118408203 51.726810455322266 65.7545394897461 43.21620178222656 C 79.33163452148438 53.555259704589844 75.64633178710938 57.62156677246094 74.4100341796875 61.3419075012207 C 73.68888854980469 61.28443908691406 81.37401580810547 55.588836669921875 67.12825775146484 44.144039154052734 C 67.44095611572266 44.721214294433594 81.4848861694336 55.714656829833984 62.79115295410156 41.37902069091797" fill="rgb(255, 134, 101)" opacity="1.0" stroke-width="2.0"/>
    <path d="M 488.014892578125 348.33123779296875 C 502.28997802734375 342.3790588378906 487.1529541015625 370.8702087402344 462.2563171386719 409.3445129394531 C 427.52362060546875 448.0682067871094 400.12884521484375 481.5862731933594 360.02813720703125 477.30633544921875 C 480.6746520996094 373.3362731933594 488.7996520996094 331.28289794921875 488.014892578125 348.33123779296875" fill="rgb(5, 7, 6)" opacity="1.0" stroke-width="2.0"/>
  </g>
</svg>
