<?xml version="1.0" ?>
<svg height="512" version="1.1" width="512" xmlns="http://www.w3.org/2000/svg">
  <defs/>
  <g>
    <path d="M 59.224300384521484 51.682960510253906 C 57.02804946899414 53.821556091308594 53.987064361572266 56.44491958618164 55.17219161987305 55.38783264160156 C 38.348289489746094 70.22364044189453 34.098052978515625 74.30342864990234 36.13658142089844 71.84054565429688 C 37.85646438598633 70.51361083984375 33.379051208496094 75.22442626953125 38.32784652709961 69.87214660644531 C 37.719932556152344 70.76315307617188 24.950489044189453 82.14588928222656 59.224300384521484 51.682960510253906" fill="rgb(255, 105, 171)" opacity="1.0" stroke-width="2.0"/>
    <path d="M 182.85833740234375 502.49432373046875 C 158.74752807617188 440.9575500488281 77.25132751464844 437.71185302734375 109.54962158203125 466.8427429199219 C 156.05145263671875 496.5367736816406 164.854248046875 493.078125 90.65802001953125 468.07318115234375 C 68.61994934082031 466.55267333984375 82.48229217529297 467.1335754394531 88.69281768798828 467.9919738769531 C 90.0557861328125 469.0437927246094 74.68012237548828 459.88818359375 182.85833740234375 502.49432373046875" fill="rgb(1, 1, 1)" opacity="1.0" stroke-width="2.0"/>
    <path d="M 65.96773529052734 409.9150695800781 C 111.93731689453125 167.5360870361328 138.74191284179688 141.63063049316406 232.23318481445312 130.92041015625 C 169.93324279785156 218.50927734375 66.84459686279297 209.4801025390625 480.4502868652344 127.13856506347656 C 520.6258544921875 458.8727722167969 460.0386047363281 382.425048828125 365.7151794433594 485.4236755371094 C 156.4987030029297 504.88287353515625 157.62313842773438 479.3601989746094 65.96773529052734 409.9150695800781" fill="rgb(251, 220, 111)" opacity="1.0" stroke-width="2.0"/>
    <path d="M 422.21112060546875 180.84408569335938 C 420.6842956542969 215.45057678222656 381.0206604003906 232.2322540283203 354.6961975097656 209.27508544921875 C 357.88287353515625 204.68861389160156 361.4292297363281 215.8250274658203 364.7326965332031 223.01974487304688 C 357.56939697265625 205.699951171875 344.02752685546875 182.03819274902344 375.9847717285156 199.1813507080078 C 413.2426452636719 206.2627410888672 396.7455139160156 149.95770263671875 422.21112060546875 180.84408569335938" fill="rgb(2, 1, 2)" opacity="1.0" stroke-width="2.0"/>
    <path d="M 253.34046936035156 187.6826171875 C 222.88172912597656 267.38970947265625 113.13819122314453 181.38699340820312 216.0420379638672 128.39820861816406 C 161.45550537109375 212.19630432128906 220.11618041992188 225.33303833007812 275.57623291015625 149.2230224609375 C 350.8504638671875 153.4251251220703 363.08563232421875 208.80313110351562 359.15460205078125 143.8433837890625 C 159.4091796875 132.58978271484375 185.01138305664062 138.82810974121094 253.34046936035156 187.6826171875" fill="rgb(6, 5, 6)" opacity="1.0" stroke-width="2.0"/>
    <path d="M 410.88616943359375 151.86566162109375 C 429.6363525390625 171.7493896484375 421.2790222167969 198.35781860351562 412.5824890136719 200.64089965820312 C 400.62811279296875 179.30682373046875 403.7826843261719 139.9866943359375 350.9719543457031 171.6865997314453 C 338.5946960449219 164.83282470703125 377.1726379394531 119.21883392333984 410.88616943359375 151.86566162109375" fill="rgb(1, 1, 2)" opacity="1.0" stroke-width="2.0"/>
    <path d="M 299.39508056640625 12.285560607910156 C 412.6963195800781 54.895164489746094 348.2785949707031 99.94588470458984 241.7360382080078 149.98719787597656 C 161.9283905029297 113.15454864501953 164.7659912109375 44.39008712768555 233.0628662109375 -5.0406670570373535 C 427.2989501953125 39.29438018798828 370.92291259765625 90.32760620117188 239.36859130859375 150.8157501220703 C 262.16204833984375 155.8578338623047 251.2149200439453 289.4256286621094 365.4886474609375 143.34527587890625 C 541.6583251953125 146.42922973632812 464.12109375 95.32133483886719 299.39508056640625 12.285560607910156" fill="rgb(251, 221, 109)" opacity="1.0" stroke-width="2.0"/>
    <path d="M 99.64712524414062 79.41802215576172 C 25.003402709960938 148.74896240234375 52.49319839477539 217.35789489746094 47.47243118286133 106.38990783691406 C 38.74541473388672 120.10885620117188 -6.941355228424072 179.1395263671875 -0.08913812041282654 278.9577331542969 C 45.027984619140625 279.0745849609375 50.54277420043945 153.75511169433594 47.396636962890625 110.12039947509766 C 74.80970001220703 50.59086227416992 214.23582458496094 -31.38210105895996 278.7740783691406 15.187399864196777 C 40.558231353759766 39.960357666015625 189.40908813476562 104.1043472290039 99.64712524414062 79.41802215576172" fill="rgb(3, 2, 2)" opacity="1.0" stroke-width="2.0"/>
    <path d="M 349.4077453613281 185.20590209960938 C 375.642822265625 171.380126953125 347.5124816894531 183.0629425048828 378.3778076171875 201.93296813964844 C 352.0801086425781 240.52835083007812 312.9712829589844 154.85430908203125 377.2808532714844 139.66404724121094 C 433.9076843261719 142.9858856201172 359.933349609375 154.42755126953125 362.50982666015625 178.2334747314453 C 416.751220703125 149.8814697265625 396.58062744140625 162.86767578125 404.4194030761719 209.54351806640625 C 425.1277160644531 143.1309356689453 401.28515625 157.4244842529297 349.4077453613281 185.20590209960938" fill="rgb(1, 1, 2)" opacity="1.0" stroke-width="2.0"/>
    <path d="M 311.71978759765625 23.49454689025879 C 290.2757263183594 118.24589538574219 283.690185546875 145.9571533203125 314.93359375 9.398395538330078 C 404.5377197265625 23.124624252319336 484.98760986328125 102.96385955810547 494.2071838378906 190.34190368652344 C 457.2913513183594 153.36471557617188 455.22271728515625 74.3160400390625 311.71978759765625 23.49454689025879" fill="rgb(24, 22, 18)" opacity="1.0" stroke-width="2.0"/>
    <path d="M 295.3429260253906 174.42320251464844 C 298.91162109375 187.220458984375 299.870849609375 188.0161895751953 293.23980712890625 150.69151306152344 C 265.68304443359375 135.76116943359375 251.74282836914062 144.5440216064453 296.7161560058594 120.41797637939453 C 299.4001770019531 185.6976776123047 298.6828308105469 186.9658966064453 300.0102233886719 186.29258728027344 C 288.00311279296875 169.64556884765625 308.70281982421875 172.0106201171875 294.0411071777344 174.7535400390625 C 303.0339050292969 176.8806915283203 310.9563903808594 183.11566162109375 295.3429260253906 174.42320251464844" fill="rgb(253, 223, 109)" opacity="1.0" stroke-width="2.0"/>
    <path d="M 22.0313777923584 285.2351379394531 C 41.12178421020508 401.51324462890625 94.2974624633789 398.42059326171875 65.03134155273438 427.53839111328125 C 73.33106994628906 386.4862976074219 60.833473205566406 402.09454345703125 110.7121353149414 441.8836975097656 C 163.7938995361328 482.7934265136719 186.8509979248047 470.5370178222656 112.14683532714844 468.90509033203125 C 82.30242156982422 402.9199523925781 24.08370018005371 416.73773193359375 2.791818618774414 298.01312255859375 C -6.1358747482299805 245.24713134765625 19.64848518371582 231.225830078125 22.0313777923584 285.2351379394531" fill="rgb(2, 0, 1)" opacity="1.0" stroke-width="2.0"/>
    <path d="M 83.6498031616211 513.1007080078125 C 80.87403106689453 509.43402099609375 85.81812286376953 514.8899536132812 89.60507202148438 527.988037109375 C 94.52173614501953 517.6522216796875 101.721923828125 508.1291809082031 93.79763793945312 518.1727294921875 C 101.24073028564453 507.472412109375 96.19739532470703 514.019287109375 94.27278137207031 518.0782470703125 C 92.38845825195312 508.1036682128906 90.49079132080078 523.9153442382812 90.88126373291016 516.9232788085938 C 82.63579559326172 529.7105712890625 92.82927703857422 526.75048828125 83.6498031616211 513.1007080078125" fill="rgb(159, 187, 255)" opacity="1.0" stroke-width="2.0"/>
    <path d="M 52.92365646362305 414.8666076660156 C 84.16566467285156 442.6644287109375 46.644126892089844 418.3509826660156 18.801895141601562 354.1975402832031 C 43.667381286621094 366.6950988769531 79.48545837402344 403.2636413574219 111.57398986816406 467.9853820800781 C 53.169124603271484 427.3208923339844 57.34553146362305 401.7755126953125 36.92521667480469 418.1867980957031 C 44.27943420410156 412.4563903808594 37.73609161376953 419.0467834472656 39.22307205200195 415.2110290527344 C 38.62177658081055 420.3462829589844 42.66560745239258 409.2757263183594 52.92365646362305 414.8666076660156" fill="rgb(0, 0, 0)" opacity="1.0" stroke-width="2.0"/>
    <path d="M 245.04774475097656 19.491525650024414 C 57.145843505859375 37.51424026489258 6.371639251708984 209.4337615966797 242.05844116210938 85.87969970703125 C 248.54371643066406 171.78443908691406 53.23234939575195 167.36322021484375 64.1805419921875 139.00979614257812 C 275.3533935546875 120.02924346923828 296.8905944824219 9.175050735473633 245.04774475097656 19.491525650024414" fill="rgb(252, 222, 108)" opacity="1.0" stroke-width="2.0"/>
    <path d="M 146.59500122070312 465.7319030761719 C 299.9396667480469 538.8880004882812 386.97540283203125 430.2945251464844 368.8204040527344 486.52227783203125 C 285.8236999511719 527.6782836914062 213.57467651367188 503.4241943359375 282.9285583496094 518.8618774414062 C 190.15199279785156 504.1007385253906 170.12445068359375 511.34423828125 146.1666717529297 464.40069580078125 C 135.0510711669922 487.1182556152344 171.28990173339844 507.6866455078125 146.59500122070312 465.7319030761719" fill="rgb(1, 0, 1)" opacity="1.0" stroke-width="2.0"/>
    <path d="M 154.8140411376953 425.3355712890625 C 69.83538818359375 424.43621826171875 60.5071907043457 388.9696350097656 41.926422119140625 355.2475280761719 C 9.753965377807617 288.70263671875 3.693697690963745 177.71597290039062 88.49018859863281 89.69212341308594 C 184.07313537597656 115.95635986328125 175.72654724121094 127.41171264648438 154.8140411376953 425.3355712890625" fill="rgb(252, 213, 108)" opacity="1.0" stroke-width="2.0"/>
    <path d="M 444.9963073730469 82.27481079101562 C 536.5197143554688 183.23641967773438 509.9316711425781 299.81463623046875 506.00958251953125 312.3088073730469 C 511.2174987792969 270.7315979003906 477.8852233886719 174.01943969726562 490.3406677246094 224.87957763671875 C 504.3956298828125 360.3305358886719 417.63592529296875 403.7336120605469 475.3243103027344 380.71221923828125 C 510.57763671875 312.2681884765625 533.2807006835938 325.5475158691406 444.9963073730469 82.27481079101562" fill="rgb(0, 0, 0)" opacity="1.0" stroke-width="2.0"/>
    <path d="M 66.52567291259766 39.3396110534668 C 76.61096954345703 51.118324279785156 73.0103988647461 42.971187591552734 70.55581665039062 46.82939147949219 C 71.6136245727539 44.092994689941406 74.1881103515625 48.58403396606445 69.46627044677734 41.42681884765625 C 78.00469970703125 53.83153533935547 73.71758270263672 57.96437072753906 72.80772399902344 50.88219451904297 C 73.70686340332031 57.5776481628418 77.85360717773438 54.021385192871094 70.4308090209961 42.174198150634766 C 69.94808197021484 40.12067413330078 77.16393280029297 51.54595184326172 66.52567291259766 39.3396110534668" fill="rgb(255, 149, 114)" opacity="1.0" stroke-width="2.0"/>
    <path d="M 500.4895324707031 335.7412109375 C 500.60595703125 330.04400634765625 491.3067321777344 372.1385498046875 458.3238830566406 413.4021911621094 C 429.9270324707031 453.2313232421875 345.2724304199219 517.0519409179688 323.26837158203125 483.23614501953125 C 475.4175720214844 429.5668640136719 465.9210510253906 313.4395751953125 500.4895324707031 335.7412109375" fill="rgb(1, 0, 1)" opacity="1.0" stroke-width="2.0"/>
  </g>
</svg>
