<?xml version="1.0" ?>
<svg height="512" version="1.1" width="512" xmlns="http://www.w3.org/2000/svg">
  <defs/>
  <g>
    <path d="M 58.740562438964844 50.71259689331055 C 58.92561721801758 50.20503234863281 54.5689697265625 53.98153305053711 54.245155334472656 54.27642059326172 C 37.00057601928711 68.84909057617188 31.8761043548584 73.31380462646484 32.67180633544922 72.21094512939453 C 34.9385871887207 69.94834899902344 29.485689163208008 74.85668182373047 37.596405029296875 68.64869689941406 C 33.41717529296875 72.42423248291016 22.06852149963379 81.24407196044922 58.740562438964844 50.71259689331055" fill="rgb(255, 77, 140)" opacity="1.0" stroke-width="2.0"/>
    <path d="M 182.7965545654297 502.6612854003906 C 157.67816162109375 441.1553039550781 76.9167709350586 438.154052734375 107.97041320800781 465.7489013671875 C 156.78602600097656 497.07562255859375 156.53883361816406 489.66925048828125 89.84101867675781 467.3189392089844 C 66.41757202148438 467.41827392578125 78.1997299194336 467.1712341308594 87.96199798583984 467.4342041015625 C 89.02154541015625 468.5561828613281 74.8656997680664 459.5810241699219 182.7965545654297 502.6612854003906" fill="rgb(1, 2, 1)" opacity="1.0" stroke-width="2.0"/>
    <path d="M 67.56546020507812 412.3046569824219 C 113.93952178955078 184.22549438476562 157.9200439453125 205.91104125976562 203.6332550048828 149.21551513671875 C 195.90338134765625 182.89634704589844 201.764892578125 215.66348266601562 495.39483642578125 159.16714477539062 C 496.9324035644531 468.8668212890625 452.4871520996094 391.69342041015625 366.011474609375 485.174560546875 C 153.3549041748047 504.69329833984375 155.32614135742188 480.1404724121094 67.56546020507812 412.3046569824219" fill="rgb(252, 220, 110)" opacity="1.0" stroke-width="2.0"/>
    <path d="M 422.2726745605469 180.209228515625 C 420.7477111816406 216.45787048339844 380.2983093261719 231.01785278320312 356.97283935546875 210.5795135498047 C 359.69830322265625 207.61289978027344 362.72998046875 219.54092407226562 365.9737243652344 224.34609985351562 C 356.66436767578125 206.80836486816406 346.935546875 174.05088806152344 373.125244140625 198.27212524414062 C 413.6852722167969 209.32447814941406 394.7798767089844 151.67242431640625 422.2726745605469 180.209228515625" fill="rgb(2, 1, 3)" opacity="1.0" stroke-width="2.0"/>
    <path d="M 249.820068359375 195.01211547851562 C 234.32315063476562 241.6100311279297 133.13438415527344 223.88002014160156 191.631591796875 126.87362670898438 C 201.87362670898438 231.16259765625 180.55178833007812 197.12193298339844 293.8357849121094 180.70726013183594 C 340.82672119140625 178.49923706054688 359.85626220703125 243.18646240234375 355.78680419921875 142.86367797851562 C 155.1099090576172 120.98566436767578 179.00601196289062 125.86204528808594 249.820068359375 195.01211547851562" fill="rgb(14, 16, 14)" opacity="1.0" stroke-width="2.0"/>
    <path d="M 410.89593505859375 151.66697692871094 C 430.43634033203125 173.0482177734375 418.7298583984375 192.47369384765625 417.2106018066406 198.82388305664062 C 396.8642578125 178.08859252929688 404.0577087402344 140.74513244628906 351.2210693359375 172.15025329589844 C 338.66497802734375 163.88661193847656 374.80645751953125 118.64795684814453 410.89593505859375 151.66697692871094" fill="rgb(3, 2, 1)" opacity="1.0" stroke-width="2.0"/>
    <path d="M 290.1650695800781 10.089738845825195 C 401.4646911621094 37.16389083862305 348.4936828613281 110.79701232910156 251.7843475341797 159.35411071777344 C 180.07437133789062 117.55797576904297 172.5897216796875 34.223575592041016 236.47970581054688 -4.593636989593506 C 413.2147521972656 34.839019775390625 361.8173522949219 93.88286590576172 258.5982666015625 156.3735809326172 C 240.2622833251953 152.1490936279297 251.74635314941406 247.21446228027344 338.208740234375 217.61778259277344 C 432.78021240234375 74.1623764038086 387.9277648925781 53.85523986816406 290.1650695800781 10.089738845825195" fill="rgb(252, 222, 109)" opacity="1.0" stroke-width="2.0"/>
    <path d="M 84.52503967285156 94.26297760009766 C 24.575029373168945 159.5131378173828 48.76121139526367 211.16796875 47.463165283203125 106.22972106933594 C 38.65278625488281 120.92744445800781 -5.7029194831848145 175.5720672607422 -0.5492293238639832 278.9811706542969 C 54.98455047607422 279.1133117675781 43.967552185058594 158.52674865722656 48.12001037597656 106.37654113769531 C 73.85366821289062 66.21682739257812 167.27871704101562 -19.18146514892578 281.4947814941406 6.068073749542236 C 27.187641143798828 62.77916717529297 152.35345458984375 97.99488830566406 84.52503967285156 94.26297760009766" fill="rgb(3, 2, 2)" opacity="1.0" stroke-width="2.0"/>
    <path d="M 350.5149230957031 188.37960815429688 C 372.5909729003906 176.98300170898438 350.1726379394531 179.62997436523438 379.4297790527344 208.58102416992188 C 361.3651428222656 236.73953247070312 312.9527587890625 171.73123168945312 366.6464538574219 142.547607421875 C 422.2200622558594 129.2762451171875 355.46868896484375 163.3614959716797 362.4302062988281 181.13406372070312 C 415.48687744140625 151.90113830566406 393.39398193359375 162.8539276123047 408.1513671875 208.86875915527344 C 426.6591796875 144.31385803222656 401.35723876953125 157.6306610107422 350.5149230957031 188.37960815429688" fill="rgb(1, 1, 1)" opacity="1.0" stroke-width="2.0"/>
    <path d="M 311.8127746582031 27.019319534301758 C 294.8218078613281 128.48202514648438 290.7215270996094 158.38880920410156 314.58074951171875 8.20931339263916 C 408.97027587890625 26.025163650512695 478.04632568359375 100.3286361694336 502.9793701171875 188.5199737548828 C 327.1728820800781 145.53981018066406 413.0932312011719 49.75082015991211 311.8127746582031 27.019319534301758" fill="rgb(163, 145, 73)" opacity="1.0" stroke-width="2.0"/>
    <path d="M 295.33099365234375 174.3546905517578 C 298.8685302734375 187.2887725830078 299.9236755371094 188.0079345703125 293.5716552734375 149.35726928710938 C 276.930908203125 137.19705200195312 262.54144287109375 157.18544006347656 294.6337890625 131.2195587158203 C 298.78656005859375 185.81845092773438 298.5811767578125 186.92840576171875 300.13189697265625 186.1537628173828 C 288.1123046875 169.583251953125 308.6806335449219 172.0128631591797 293.99810791015625 174.8284454345703 C 302.9310607910156 177.05116271972656 310.99615478515625 183.079345703125 295.33099365234375 174.3546905517578" fill="rgb(253, 216, 108)" opacity="1.0" stroke-width="2.0"/>
    <path d="M 22.043073654174805 284.3675537109375 C 41.744102478027344 403.6606750488281 94.14522552490234 397.5685729980469 63.43536376953125 427.74420166015625 C 73.76004791259766 386.9581298828125 60.764686584472656 401.6992492675781 110.55146789550781 441.7395935058594 C 161.1630859375 480.91351318359375 183.26834106445312 469.3664855957031 112.21016693115234 468.96954345703125 C 81.5687026977539 399.325439453125 25.051889419555664 419.3404541015625 2.725705146789551 297.254150390625 C -6.099348545074463 245.8666229248047 25.285247802734375 231.20753479003906 22.043073654174805 284.3675537109375" fill="rgb(2, 1, 1)" opacity="1.0" stroke-width="2.0"/>
    <path d="M 80.93866729736328 508.4096984863281 C 77.68302154541016 505.16705322265625 85.75691223144531 512.313720703125 90.2777099609375 526.2561645507812 C 94.52173614501953 517.6522216796875 101.721923828125 508.1291809082031 93.79763793945312 518.1727294921875 C 101.24073028564453 507.472412109375 96.19739532470703 514.019287109375 94.27278137207031 518.0782470703125 C 92.38845825195312 508.1036682128906 90.49079132080078 523.9153442382812 90.93062591552734 516.9056396484375 C 83.25987243652344 529.0096435546875 94.40868377685547 525.1746215820312 80.93866729736328 508.4096984863281" fill="rgb(152, 180, 245)" opacity="1.0" stroke-width="2.0"/>
    <path d="M 51.18729019165039 413.9184265136719 C 86.00439453125 443.26165771484375 48.75988006591797 423.1272277832031 18.876630783081055 354.65362548828125 C 43.41654586791992 367.62249755859375 80.0366439819336 402.7314147949219 110.91094207763672 467.6788330078125 C 52.66303253173828 426.27947998046875 56.70991134643555 401.96966552734375 37.529014587402344 417.8653564453125 C 41.92497253417969 413.4538269042969 38.86060333251953 419.36468505859375 38.93613815307617 413.0635986328125 C 38.8629035949707 420.878173828125 41.67517852783203 410.52789306640625 51.18729019165039 413.9184265136719" fill="rgb(1, 0, 1)" opacity="1.0" stroke-width="2.0"/>
    <path d="M 249.4205780029297 14.36087417602539 C 46.87419891357422 58.31796646118164 13.051466941833496 180.950439453125 233.9287109375 81.20956420898438 C 245.9407958984375 183.83815002441406 67.70454406738281 179.17649841308594 62.39067077636719 122.46522521972656 C 279.29742431640625 116.80381774902344 296.3249206542969 -9.378120422363281 249.4205780029297 14.36087417602539" fill="rgb(246, 216, 106)" opacity="1.0" stroke-width="2.0"/>
    <path d="M 147.0296630859375 466.1004333496094 C 301.50006103515625 538.076171875 380.95367431640625 431.8989562988281 367.2783508300781 487.28375244140625 C 280.1899108886719 528.7445068359375 219.88723754882812 501.707763671875 277.9851989746094 519.0379638671875 C 189.4042510986328 502.313720703125 174.8939666748047 513.6170654296875 145.8304901123047 464.3248291015625 C 135.0533905029297 487.08319091796875 172.23829650878906 506.8829345703125 147.0296630859375 466.1004333496094" fill="rgb(1, 0, 1)" opacity="1.0" stroke-width="2.0"/>
    <path d="M 169.8054656982422 416.5401916503906 C 52.933326721191406 421.0633850097656 62.73540115356445 385.57763671875 40.14384078979492 351.3010559082031 C 11.122952461242676 286.5048522949219 5.940950870513916 187.70529174804688 76.02412414550781 103.34727478027344 C 183.8902587890625 120.1467056274414 184.92001342773438 130.32518005371094 169.8054656982422 416.5401916503906" fill="rgb(252, 213, 108)" opacity="1.0" stroke-width="2.0"/>
    <path d="M 456.3994140625 95.94808197021484 C 532.60791015625 190.7821807861328 510.6857604980469 297.5345153808594 506.1728820800781 311.9678955078125 C 498.9536437988281 248.3494873046875 489.0215148925781 209.10421752929688 492.2044372558594 273.2760009765625 C 475.3470764160156 396.8667907714844 425.0216064453125 394.0596923828125 471.5679626464844 380.4878845214844 C 515.490478515625 312.2853698730469 521.6685180664062 340.4877014160156 456.3994140625 95.94808197021484" fill="rgb(2, 1, 1)" opacity="1.0" stroke-width="2.0"/>
    <path d="M 66.49242401123047 37.582969665527344 C 76.33511352539062 51.72380065917969 71.30712127685547 44.979949951171875 65.65674591064453 46.84883117675781 C 70.56178283691406 45.202735900878906 75.71852111816406 49.80453872680664 67.43257904052734 42.8751106262207 C 80.42010498046875 52.399925231933594 76.16887664794922 58.901405334472656 78.69267272949219 57.44563293457031 C 76.28629302978516 58.69036102294922 80.51126098632812 54.50519943237305 68.5235824584961 42.90547180175781 C 67.66754913330078 42.01643371582031 78.50853729248047 54.14016342163086 66.49242401123047 37.582969665527344" fill="rgb(255, 140, 106)" opacity="1.0" stroke-width="2.0"/>
    <path d="M 500.08160400390625 336.4151306152344 C 501.14044189453125 329.7177734375 491.1247863769531 372.25714111328125 459.461181640625 411.94915771484375 C 432.204345703125 450.8298034667969 349.3144226074219 515.2625122070312 324.41241455078125 484.4169921875 C 485.199462890625 418.81768798828125 457.4696350097656 320.4873962402344 500.08160400390625 336.4151306152344" fill="rgb(1, 0, 1)" opacity="1.0" stroke-width="2.0"/>
  </g>
</svg>
