<?xml version="1.0" ?>
<svg height="512" version="1.1" width="512" xmlns="http://www.w3.org/2000/svg">
  <defs/>
  <g>
    <path d="M 59.35496520996094 51.64215850830078 C 58.31969451904297 52.24606704711914 54.938720703125 55.222015380859375 55.120540618896484 55.17387390136719 C 37.55801773071289 69.41419982910156 32.55027770996094 73.65399932861328 34.000370025634766 72.01263427734375 C 35.59305953979492 70.01710510253906 30.66170883178711 75.55075073242188 36.42333221435547 68.59418487548828 C 34.52531814575195 70.72093963623047 23.261213302612305 81.53160858154297 59.35496520996094 51.64215850830078" fill="rgb(255, 89, 153)" opacity="1.0" stroke-width="2.0"/>
    <path d="M 182.89852905273438 502.6546936035156 C 158.11831665039062 441.05462646484375 77.3021011352539 437.8125915527344 109.51354217529297 466.9812316894531 C 156.74472045898438 497.0144958496094 160.94662475585938 491.403564453125 90.26551055908203 467.86004638671875 C 67.27513885498047 467.2668151855469 79.77058410644531 467.35369873046875 88.54259490966797 467.9088134765625 C 89.39226531982422 469.0442810058594 74.76448822021484 459.7708435058594 182.89852905273438 502.6546936035156" fill="rgb(1, 1, 1)" opacity="1.0" stroke-width="2.0"/>
    <path d="M 66.564208984375 410.7886962890625 C 112.1048583984375 168.90878295898438 140.0266571044922 153.71405029296875 225.55992126464844 133.90005493164062 C 187.54319763183594 201.19232177734375 104.04676818847656 204.9617156982422 484.95550537109375 123.85283660888672 C 510.677490234375 471.6938781738281 457.4580383300781 386.547119140625 365.9183349609375 485.3885192871094 C 155.22103881835938 504.7806701660156 156.5876922607422 479.65655517578125 66.564208984375 410.7886962890625" fill="rgb(251, 220, 111)" opacity="1.0" stroke-width="2.0"/>
    <path d="M 422.305908203125 180.65235900878906 C 420.50079345703125 215.9678497314453 381.3803405761719 231.66969299316406 355.7253723144531 210.10604858398438 C 358.8382263183594 206.46705627441406 361.94403076171875 217.86366271972656 365.12384033203125 224.12130737304688 C 357.19012451171875 206.1531524658203 345.142333984375 178.1749267578125 374.5336608886719 198.72120666503906 C 412.99896240234375 208.65390014648438 396.5544128417969 150.71685791015625 422.305908203125 180.65235900878906" fill="rgb(2, 1, 2)" opacity="1.0" stroke-width="2.0"/>
    <path d="M 253.34652709960938 186.74899291992188 C 230.1038818359375 261.7416687011719 117.57642364501953 194.20938110351562 207.50221252441406 129.92916870117188 C 170.46392822265625 218.18150329589844 218.0625 220.92578125 276.29296875 149.1948699951172 C 350.2884826660156 154.55459594726562 362.91900634765625 210.1374053955078 355.47857666015625 147.9481964111328 C 144.64154052734375 137.06260681152344 175.65455627441406 128.5279998779297 253.34652709960938 186.74899291992188" fill="rgb(5, 4, 5)" opacity="1.0" stroke-width="2.0"/>
    <path d="M 410.7312316894531 151.76864624023438 C 429.9224548339844 172.5236053466797 420.2848205566406 195.51806640625 414.8906555175781 198.64056396484375 C 398.62445068359375 178.73779296875 403.4607238769531 140.4210968017578 350.921142578125 171.7701873779297 C 338.61163330078125 164.77626037597656 376.92230224609375 119.20146179199219 410.7312316894531 151.76864624023438" fill="rgb(1, 1, 2)" opacity="1.0" stroke-width="2.0"/>
    <path d="M 299.0808410644531 11.624909400939941 C 405.5563659667969 53.38176345825195 346.9583740234375 103.05946350097656 245.66586303710938 153.72142028808594 C 167.7733917236328 109.18587493896484 167.03408813476562 41.88856506347656 232.5523223876953 -4.523443698883057 C 420.98736572265625 34.91962432861328 367.52569580078125 93.51634216308594 242.56640625 155.04827880859375 C 253.06869506835938 145.9488067626953 258.7095031738281 273.1512756347656 361.2464904785156 151.4455108642578 C 534.1817626953125 129.98245239257812 457.8077392578125 95.50826263427734 299.0808410644531 11.624909400939941" fill="rgb(251, 221, 108)" opacity="1.0" stroke-width="2.0"/>
    <path d="M 92.60942077636719 85.82408142089844 C 25.702180862426758 154.43862915039062 51.65482711791992 215.07838439941406 47.67436981201172 105.95491790771484 C 38.63169479370117 120.27002716064453 -6.57667350769043 177.7928466796875 -0.29854264855384827 278.9679260253906 C 49.658294677734375 279.0886535644531 48.750755310058594 157.8651885986328 47.563377380371094 109.4737777709961 C 68.60417938232422 62.210609436035156 195.87744140625 -30.321474075317383 281.3119812011719 13.13292121887207 C 36.17023468017578 43.9200325012207 179.888916015625 103.56118774414062 92.60942077636719 85.82408142089844" fill="rgb(4, 3, 2)" opacity="1.0" stroke-width="2.0"/>
    <path d="M 349.5237121582031 185.0811004638672 C 376.0717468261719 171.5850067138672 347.013427734375 180.0902862548828 378.26031494140625 202.78244018554688 C 356.50567626953125 241.3212432861328 310.1482238769531 158.06051635742188 376.67266845703125 139.41065979003906 C 438.74151611328125 144.5111541748047 359.05767822265625 153.9832305908203 362.73193359375 178.0601043701172 C 416.1397399902344 150.25038146972656 395.3396911621094 163.08465576171875 405.6342468261719 209.17788696289062 C 425.6718444824219 143.10922241210938 401.48638916015625 157.356201171875 349.5237121582031 185.0811004638672" fill="rgb(1, 1, 2)" opacity="1.0" stroke-width="2.0"/>
    <path d="M 312.48187255859375 21.54228401184082 C 293.40185546875 122.4240493774414 287.99853515625 151.28761291503906 314.63592529296875 9.39992618560791 C 405.9209289550781 23.198593139648438 480.0796203613281 102.69688415527344 495.7950134277344 179.892578125 C 436.8775634765625 130.4859619140625 462.1156005859375 84.80757141113281 312.48187255859375 21.54228401184082" fill="rgb(24, 20, 17)" opacity="1.0" stroke-width="2.0"/>
    <path d="M 295.3450012207031 174.36700439453125 C 298.9350280761719 187.25550842285156 300.04046630859375 187.96334838867188 293.6327209472656 150.62770080566406 C 269.6634826660156 138.4852294921875 255.16571044921875 150.40550231933594 296.5833740234375 124.05795288085938 C 299.0619201660156 185.753662109375 298.5130310058594 186.9683380126953 300.0726623535156 186.200439453125 C 288.0684509277344 169.60121154785156 308.6645202636719 172.01048278808594 294.0207824707031 174.81100463867188 C 302.9576110839844 177.00108337402344 310.9874267578125 183.0858612060547 295.3450012207031 174.36700439453125" fill="rgb(253, 223, 109)" opacity="1.0" stroke-width="2.0"/>
    <path d="M 22.027996063232422 284.94464111328125 C 41.66594314575195 402.6127624511719 94.44353485107422 398.0871887207031 63.76008224487305 427.46209716796875 C 73.65776062011719 386.38018798828125 60.74213409423828 402.1656494140625 110.67525482177734 441.7619323730469 C 162.7292938232422 481.96136474609375 185.29580688476562 470.0195007324219 112.45270538330078 468.7656555175781 C 81.83009338378906 401.3898010253906 24.29981231689453 417.4983825683594 2.7177846431732178 297.61383056640625 C -6.200164318084717 245.51040649414062 20.528772354125977 231.2693634033203 22.027996063232422 284.94464111328125" fill="rgb(2, 0, 1)" opacity="1.0" stroke-width="2.0"/>
    <path d="M 82.19633483886719 509.08209228515625 C 79.21349334716797 505.957275390625 85.91577911376953 513.1846313476562 89.96157836914062 527.0875854492188 C 94.52173614501953 517.6522216796875 101.721923828125 508.1291809082031 93.79763793945312 518.1727294921875 C 101.24073028564453 507.472412109375 96.19739532470703 514.019287109375 94.27278137207031 518.0782470703125 C 92.38845825195312 508.1036682128906 90.49079132080078 523.9153442382812 90.8868637084961 516.9213256835938 C 82.7223892211914 529.6314697265625 93.22994995117188 526.417724609375 82.19633483886719 509.08209228515625" fill="rgb(155, 183, 250)" opacity="1.0" stroke-width="2.0"/>
    <path d="M 52.476322174072266 414.627197265625 C 86.13775634765625 443.62249755859375 47.518619537353516 420.743408203125 18.810440063476562 354.3974304199219 C 43.597591400146484 366.9544677734375 79.4711685180664 403.23638916015625 111.26373291015625 467.9617614746094 C 53.210697174072266 427.1119079589844 57.747703552246094 401.8730773925781 36.86729049682617 418.0953063964844 C 44.10191345214844 411.61077880859375 38.29484558105469 419.3185119628906 39.74352264404297 413.47308349609375 C 38.67028045654297 420.6387023925781 42.257843017578125 409.2380065917969 52.476322174072266 414.627197265625" fill="rgb(1, 0, 0)" opacity="1.0" stroke-width="2.0"/>
    <path d="M 248.07034301757812 18.295154571533203 C 50.60554122924805 44.884521484375 12.762748718261719 196.5006561279297 239.2224884033203 83.54325103759766 C 244.91856384277344 174.6666717529297 55.32399368286133 172.7439422607422 62.47985076904297 132.8087615966797 C 276.3869934082031 117.27701568603516 297.0409851074219 4.315535068511963 248.07034301757812 18.295154571533203" fill="rgb(251, 221, 108)" opacity="1.0" stroke-width="2.0"/>
    <path d="M 146.8988037109375 465.8990173339844 C 300.74224853515625 538.473876953125 384.31402587890625 430.62152099609375 367.6220703125 486.9395446777344 C 283.53759765625 527.8278198242188 215.7454071044922 502.7390441894531 280.7998962402344 518.8986206054688 C 189.79820251464844 503.18035888671875 172.2202606201172 512.4784545898438 146.0692901611328 464.4289245605469 C 135.06936645507812 487.0763854980469 172.05056762695312 507.0990295410156 146.8988037109375 465.8990173339844" fill="rgb(1, 0, 1)" opacity="1.0" stroke-width="2.0"/>
    <path d="M 161.68666076660156 420.103515625 C 62.939659118652344 422.42230224609375 61.1400146484375 387.55328369140625 41.33267593383789 353.57818603515625 C 10.504959106445312 288.02252197265625 4.438676834106445 181.8251190185547 83.58645629882812 94.92766571044922 C 187.88555908203125 115.66119384765625 180.36166381835938 127.04732513427734 161.68666076660156 420.103515625" fill="rgb(252, 213, 108)" opacity="1.0" stroke-width="2.0"/>
    <path d="M 448.0606384277344 85.77820587158203 C 535.6903686523438 186.35914611816406 509.4187927246094 297.21942138671875 506.6007080078125 311.12542724609375 C 504.3624267578125 253.2352294921875 482.4776916503906 187.6195526123047 492.2021484375 246.6317901611328 C 491.9405822753906 377.7041931152344 419.5862121582031 398.5323181152344 474.6614685058594 382.2154235839844 C 511.5772399902344 313.40875244140625 529.8334350585938 328.0076599121094 448.0606384277344 85.77820587158203" fill="rgb(1, 0, 0)" opacity="1.0" stroke-width="2.0"/>
    <path d="M 65.0657958984375 39.461395263671875 C 75.82167053222656 50.85493850708008 73.29808044433594 43.33112716674805 67.55912017822266 47.52080535888672 C 71.551025390625 44.36656951904297 76.93358612060547 48.7606201171875 69.93987274169922 40.510684967041016 C 78.52706146240234 53.430110931396484 74.82951354980469 58.83610534667969 78.39500427246094 52.72685623168945 C 74.86065673828125 58.18349075317383 78.87725830078125 54.50138473510742 70.61439514160156 41.43010711669922 C 70.82207489013672 41.238040924072266 78.63755798339844 53.55756378173828 65.0657958984375 39.461395263671875" fill="rgb(255, 144, 110)" opacity="1.0" stroke-width="2.0"/>
    <path d="M 500.2595520019531 335.8556213378906 C 500.96466064453125 329.94183349609375 491.2252197265625 372.37115478515625 458.76885986328125 412.6834411621094 C 431.1864013671875 451.8804626464844 346.99090576171875 516.5128784179688 323.8147888183594 483.79132080078125 C 480.2385559082031 424.6293029785156 461.8979797363281 316.15673828125 500.2595520019531 335.8556213378906" fill="rgb(1, 0, 1)" opacity="1.0" stroke-width="2.0"/>
  </g>
</svg>
