<?xml version="1.0" ?>
<svg height="512" version="1.1" width="512" xmlns="http://www.w3.org/2000/svg">
  <defs/>
  <g>
    <path d="M 58.61318588256836 50.276268005371094 C 59.43971252441406 49.43323516845703 54.95187759399414 53.72223663330078 54.34550094604492 54.16135025024414 C 37.069705963134766 68.92739868164062 31.728151321411133 73.41539764404297 32.162593841552734 72.37242126464844 C 36.189876556396484 71.15906524658203 28.409202575683594 74.00357818603516 38.50287628173828 68.73818969726562 C 31.459842681884766 71.94606018066406 22.254154205322266 81.88580322265625 58.61318588256836 50.276268005371094" fill="rgb(255, 71, 133)" opacity="1.0" stroke-width="2.0"/>
    <path d="M 183.0250244140625 502.9266052246094 C 157.2304229736328 441.3434143066406 75.69473266601562 438.9864501953125 104.29939270019531 463.09930419921875 C 156.32566833496094 496.8653564453125 148.9921112060547 486.7139587402344 90.65615844726562 466.7941589355469 C 64.96053314208984 467.32611083984375 75.8207015991211 466.9146423339844 91.80702209472656 466.97943115234375 C 87.42202758789062 467.0068359375 75.42447662353516 458.78680419921875 183.0250244140625 502.9266052246094" fill="rgb(1, 10, 3)" opacity="1.0" stroke-width="2.0"/>
    <path d="M 78.5530776977539 423.61566162109375 C 117.08463287353516 188.56056213378906 163.44528198242188 216.7254638671875 177.61341857910156 175.11917114257812 C 196.10968017578125 183.12648010253906 201.38092041015625 212.1721649169922 493.1924133300781 157.12033081054688 C 488.09832763671875 456.6219787597656 450.1637878417969 399.279541015625 379.2798767089844 486.82183837890625 C 145.39512634277344 502.5577087402344 148.33297729492188 481.7965087890625 78.5530776977539 423.61566162109375" fill="rgb(251, 219, 110)" opacity="1.0" stroke-width="2.0"/>
    <path d="M 422.29510498046875 180.61285400390625 C 420.1541748046875 217.18247985839844 380.0154724121094 230.63011169433594 357.0649719238281 210.87582397460938 C 358.90130615234375 208.6203155517578 362.73907470703125 220.258544921875 365.60009765625 225.05224609375 C 356.3074951171875 208.05667114257812 347.56610107421875 175.87347412109375 373.38079833984375 198.45008850097656 C 411.2518615722656 209.93157958984375 396.9610290527344 152.9862823486328 422.29510498046875 180.61285400390625" fill="rgb(2, 1, 3)" opacity="1.0" stroke-width="2.0"/>
    <path d="M 242.7725372314453 206.905517578125 C 223.8742218017578 225.36019897460938 186.55247497558594 233.81988525390625 163.84539794921875 170.92933654785156 C 227.5802459716797 209.3301544189453 231.92724609375 209.29525756835938 294.3871765136719 181.224365234375 C 340.8562927246094 178.69691467285156 360.2536926269531 243.45057678222656 363.0977783203125 135.11566162109375 C 180.99874877929688 105.13374328613281 202.75650024414062 115.48435974121094 242.7725372314453 206.905517578125" fill="rgb(32, 30, 23)" opacity="1.0" stroke-width="2.0"/>
    <path d="M 410.8095397949219 151.71778869628906 C 430.8074645996094 174.3011474609375 417.4255065917969 189.32875061035156 418.772216796875 195.86204528808594 C 406.187744140625 180.12266540527344 407.1819152832031 144.83424377441406 347.1102294921875 167.33486938476562 C 339.6477355957031 163.76760864257812 372.1974792480469 118.43619537353516 410.8095397949219 151.71778869628906" fill="rgb(2, 1, 1)" opacity="1.0" stroke-width="2.0"/>
    <path d="M 277.02239990234375 11.618134498596191 C 380.055419921875 9.79751205444336 343.0046081542969 124.0070571899414 259.2106628417969 174.9681854248047 C 202.46083068847656 116.59497833251953 180.17420959472656 12.582584381103516 236.75367736816406 -23.047386169433594 C 370.6777648925781 90.59527587890625 335.0755920410156 108.74636840820312 271.90155029296875 167.51296997070312 C 235.61434936523438 180.03378295898438 236.4483184814453 241.8697052001953 355.7223205566406 247.20840454101562 C 389.8970031738281 86.07379150390625 348.34820556640625 103.19751739501953 277.02239990234375 11.618134498596191" fill="rgb(252, 223, 109)" opacity="1.0" stroke-width="2.0"/>
    <path d="M 84.26548767089844 95.20318603515625 C 19.829233169555664 161.86170959472656 48.51634979248047 202.34591674804688 47.58522033691406 106.07827758789062 C 38.81794357299805 122.20790100097656 -4.679609298706055 172.55726623535156 -1.1072523593902588 279.35491943359375 C 63.38445281982422 278.8580017089844 40.05705261230469 155.26498413085938 48.799537658691406 103.3326187133789 C 87.90165710449219 57.81605911254883 131.1605224609375 14.72756290435791 228.1901397705078 0.6764930486679077 C 32.284400939941406 110.63866424560547 93.27123260498047 100.48968505859375 84.26548767089844 95.20318603515625" fill="rgb(2, 1, 1)" opacity="1.0" stroke-width="2.0"/>
    <path d="M 350.1731872558594 188.3389892578125 C 372.4421691894531 177.27224731445312 349.518798828125 175.46292114257812 382.3951110839844 218.42762756347656 C 366.1125183105469 223.01956176757812 320.2557067871094 196.75674438476562 354.8384704589844 147.8264923095703 C 414.68353271484375 139.7564239501953 354.3343200683594 165.89695739746094 362.7880554199219 181.3517303466797 C 412.39178466796875 149.04100036621094 393.3588562011719 168.6391143798828 410.9042053222656 208.38929748535156 C 424.90740966796875 138.72714233398438 404.6094970703125 156.80120849609375 350.1731872558594 188.3389892578125" fill="rgb(2, 2, 2)" opacity="1.0" stroke-width="2.0"/>
    <path d="M 309.3121337890625 -1.1049392223358154 C 294.95758056640625 135.3854217529297 290.9160461425781 161.0161590576172 309.5110778808594 0.25993847846984863 C 423.562744140625 42.571128845214844 464.91375732421875 87.72294616699219 505.1515808105469 184.62986755371094 C 284.0653076171875 109.20094299316406 336.4318542480469 100.16858673095703 309.3121337890625 -1.1049392223358154" fill="rgb(180, 160, 80)" opacity="1.0" stroke-width="2.0"/>
    <path d="M 294.7857666015625 174.18199157714844 C 298.5197448730469 187.0315399169922 299.65667724609375 187.9169464111328 290.9401550292969 156.50169372558594 C 295.2085266113281 145.9547882080078 284.3803405761719 168.03030395507812 289.1792907714844 146.4151611328125 C 297.58538818359375 186.86724853515625 299.31195068359375 187.08946228027344 299.854736328125 186.56166076660156 C 287.5593566894531 169.4366455078125 309.76318359375 171.99591064453125 293.2221374511719 174.9458465576172 C 303.2376708984375 177.1527557373047 310.9803161621094 183.2742156982422 294.7857666015625 174.18199157714844" fill="rgb(255, 184, 110)" opacity="1.0" stroke-width="2.0"/>
    <path d="M 21.053260803222656 283.31353759765625 C 42.77439880371094 406.52569580078125 94.01283264160156 395.292236328125 63.78621292114258 427.8188781738281 C 71.40766906738281 389.5564270019531 62.71992492675781 400.7353515625 107.40096282958984 439.8318786621094 C 160.99143981933594 477.0270690917969 172.45899963378906 477.7768249511719 112.65644836425781 469.1645202636719 C 79.42314147949219 398.330322265625 26.83115577697754 424.2366027832031 2.5166327953338623 296.7958068847656 C -6.055328845977783 246.39625549316406 29.692825317382812 231.208984375 21.053260803222656 283.31353759765625" fill="rgb(2, 0, 1)" opacity="1.0" stroke-width="2.0"/>
    <path d="M 81.70894622802734 506.9718322753906 C 78.46536254882812 503.3940124511719 86.67857360839844 510.9139709472656 91.02698516845703 525.1953125 C 94.52220153808594 517.64990234375 101.72288513183594 508.1244201660156 93.7960205078125 518.1624755859375 C 101.23995208740234 507.4744567871094 96.19718933105469 514.0202026367188 94.27272033691406 518.0782470703125 C 92.38845825195312 508.1036682128906 90.49079132080078 523.9153442382812 90.90351867675781 516.9124145507812 C 83.22438049316406 528.9862060546875 94.92293548583984 524.4706420898438 81.70894622802734 506.9718322753906" fill="rgb(151, 179, 242)" opacity="1.0" stroke-width="2.0"/>
    <path d="M 49.85027313232422 412.5943908691406 C 84.9522476196289 440.94757080078125 52.16279220581055 427.2847595214844 19.10140037536621 355.14990234375 C 45.39055633544922 365.72576904296875 78.71479797363281 402.9131164550781 110.6563949584961 467.560302734375 C 51.44495391845703 424.40667724609375 55.930686950683594 402.55108642578125 39.34010314941406 417.0961608886719 C 40.39977264404297 415.8750305175781 40.436073303222656 413.4715576171875 40.26315689086914 412.0648498535156 C 39.470272064208984 421.48577880859375 39.76295852661133 411.92779541015625 49.85027313232422 412.5943908691406" fill="rgb(1, 0, 1)" opacity="1.0" stroke-width="2.0"/>
    <path d="M 238.50352478027344 -5.4599199295043945 C 50.3231315612793 102.78218841552734 -14.679153442382812 156.1074676513672 231.77000427246094 88.23165130615234 C 246.77365112304688 209.9932098388672 83.96025085449219 217.53321838378906 62.962371826171875 117.77583312988281 C 282.1648254394531 120.29690551757812 293.8458557128906 -19.689559936523438 238.50352478027344 -5.4599199295043945" fill="rgb(217, 190, 94)" opacity="1.0" stroke-width="2.0"/>
    <path d="M 150.49122619628906 467.8113098144531 C 305.7987365722656 536.2434692382812 373.1909484863281 433.32183837890625 365.1142272949219 488.3924560546875 C 271.2382507324219 529.8463745117188 227.53414916992188 499.8478698730469 271.7917175292969 518.6832885742188 C 187.7905731201172 501.197509765625 177.47024536132812 515.5242309570312 145.27279663085938 462.6341247558594 C 135.26913452148438 488.6348876953125 168.6082305908203 508.1828918457031 150.49122619628906 467.8113098144531" fill="rgb(2, 0, 1)" opacity="1.0" stroke-width="2.0"/>
    <path d="M 178.93032836914062 408.3162841796875 C 38.52281951904297 411.0399169921875 56.95820236206055 377.58123779296875 39.40493392944336 339.3821716308594 C 11.398083686828613 307.92547607421875 9.499151229858398 178.85565185546875 65.0103530883789 123.25187683105469 C 176.71449279785156 136.28419494628906 189.01832580566406 136.6400909423828 178.93032836914062 408.3162841796875" fill="rgb(252, 214, 108)" opacity="1.0" stroke-width="2.0"/>
    <path d="M 475.8645935058594 128.94667053222656 C 526.2159423828125 215.23512268066406 514.3056640625 270.27679443359375 503.8692626953125 325.88494873046875 C 495.2832946777344 265.5608215332031 493.95013427734375 226.84896850585938 488.3941650390625 297.97064208984375 C 466.08013916015625 399.1226806640625 429.9090576171875 394.8514099121094 473.5863342285156 378.9084167480469 C 519.166015625 308.3194580078125 503.5116882324219 361.1327209472656 475.8645935058594 128.94667053222656" fill="rgb(3, 3, 9)" opacity="1.0" stroke-width="2.0"/>
    <path d="M 64.9962158203125 38.51385498046875 C 75.96217346191406 52.00169372558594 71.97991180419922 44.794551849365234 65.2877197265625 47.120635986328125 C 69.79588317871094 45.14488983154297 75.89024353027344 50.22529220581055 67.54293823242188 42.09469223022461 C 80.24735260009766 52.6580924987793 76.06803894042969 56.81736755371094 75.43599700927734 59.92186737060547 C 74.86882781982422 60.836814880371094 81.52251434326172 53.94050598144531 68.32740783691406 42.97212600708008 C 67.49701690673828 41.01067352294922 78.43705749511719 54.80698776245117 64.9962158203125 38.51385498046875" fill="rgb(255, 137, 103)" opacity="1.0" stroke-width="2.0"/>
    <path d="M 497.58538818359375 342.78466796875 C 501.44659423828125 328.737060546875 489.9841613769531 373.6188049316406 460.2654113769531 410.881591796875 C 432.7820129394531 450.07244873046875 354.3311462402344 511.8512268066406 325.6707458496094 486.1371765136719 C 494.1160583496094 407.46429443359375 452.14471435546875 324.8253173828125 497.58538818359375 342.78466796875" fill="rgb(1, 1, 1)" opacity="1.0" stroke-width="2.0"/>
  </g>
</svg>
