<?xml version="1.0" ?>
<svg height="512" version="1.1" width="512" xmlns="http://www.w3.org/2000/svg">
  <defs/>
  <g>
    <path d="M 59.184783935546875 51.641876220703125 C 56.83347702026367 53.5156135559082 53.80186080932617 56.25498580932617 54.99454879760742 55.23991775512695 C 38.161476135253906 70.04150390625 33.812522888183594 74.05353546142578 36.167030334472656 71.83771514892578 C 37.33101272583008 70.96513366699219 32.68693542480469 75.48405456542969 38.16738510131836 69.86721801757812 C 37.519317626953125 70.53385162353516 24.49629783630371 81.72522735595703 59.184783935546875 51.641876220703125" fill="rgb(255, 104, 170)" opacity="1.0" stroke-width="2.0"/>
    <path d="M 182.73724365234375 502.6066589355469 C 158.6151580810547 440.9743347167969 77.19764709472656 437.7326965332031 109.48435974121094 466.86700439453125 C 156.1450653076172 496.8508605957031 164.30577087402344 492.75115966796875 90.57302856445312 467.8751525878906 C 68.3931884765625 466.7611083984375 82.00769805908203 467.4708251953125 88.65962219238281 467.7850341796875 C 90.24837493896484 469.0478820800781 74.63668060302734 459.95062255859375 182.73724365234375 502.6066589355469" fill="rgb(1, 1, 1)" opacity="1.0" stroke-width="2.0"/>
    <path d="M 65.92524719238281 409.9741516113281 C 111.93183898925781 167.52862548828125 138.7419891357422 141.6340789794922 232.61659240722656 131.4682159423828 C 173.14085388183594 217.6714630126953 70.2109146118164 210.101318359375 481.1179504394531 128.30172729492188 C 519.1572265625 460.367431640625 459.523681640625 382.5711669921875 365.6697082519531 485.3625183105469 C 156.23846435546875 504.8009033203125 157.36529541015625 479.3885498046875 65.92524719238281 409.9741516113281" fill="rgb(251, 220, 111)" opacity="1.0" stroke-width="2.0"/>
    <path d="M 422.1499328613281 180.9708251953125 C 420.7545471191406 215.4183349609375 380.5599365234375 232.39642333984375 354.8278503417969 209.29946899414062 C 358.1531982421875 204.7285614013672 361.29638671875 216.24720764160156 364.789306640625 223.1799774169922 C 357.4234313964844 205.86395263671875 344.0641784667969 181.63258361816406 375.9056396484375 199.26071166992188 C 413.1849060058594 206.77053833007812 396.8206481933594 150.08326721191406 422.1499328613281 180.9708251953125" fill="rgb(2, 1, 2)" opacity="1.0" stroke-width="2.0"/>
    <path d="M 253.10772705078125 187.9125213623047 C 223.66900634765625 266.9736022949219 113.68975067138672 181.97760009765625 214.72520446777344 129.30006408691406 C 162.1391143798828 212.8482666015625 220.11483764648438 224.0306396484375 277.0433654785156 149.67559814453125 C 350.84423828125 153.4388427734375 363.0838317871094 208.8191375732422 359.1158447265625 144.98667907714844 C 160.31568908691406 132.17198181152344 185.48460388183594 137.9244842529297 253.10772705078125 187.9125213623047" fill="rgb(6, 5, 6)" opacity="1.0" stroke-width="2.0"/>
    <path d="M 410.8517150878906 151.8277587890625 C 429.6205749511719 171.75318908691406 421.2720642089844 198.3352508544922 412.7003173828125 200.63595581054688 C 399.9366455078125 179.27764892578125 403.9608154296875 140.18978881835938 350.9553527832031 171.75901794433594 C 338.60614013671875 164.80075073242188 377.22412109375 119.11874389648438 410.8517150878906 151.8277587890625" fill="rgb(1, 1, 2)" opacity="1.0" stroke-width="2.0"/>
    <path d="M 299.2271728515625 12.329806327819824 C 411.3753662109375 54.190879821777344 347.9983215332031 100.56105041503906 241.57650756835938 149.8038787841797 C 162.45352172851562 114.68907928466797 165.05223083496094 43.951820373535156 232.6879119873047 -4.8309831619262695 C 426.5887451171875 37.54037857055664 370.3832702636719 90.70892333984375 239.2420654296875 150.97061157226562 C 260.89801025390625 154.00003051757812 253.48037719726562 286.5704040527344 365.9111022949219 144.37606811523438 C 541.4791870117188 147.2724609375 463.7201843261719 96.30463409423828 299.2271728515625 12.329806327819824" fill="rgb(251, 221, 109)" opacity="1.0" stroke-width="2.0"/>
    <path d="M 98.02462768554688 80.97483825683594 C 24.947769165039062 149.4779815673828 52.216827392578125 216.98118591308594 47.54371643066406 106.19184112548828 C 38.674476623535156 120.07042694091797 -6.99735689163208 178.91978454589844 0.002647027373313904 278.98992919921875 C 45.73561096191406 279.08062744140625 50.12978744506836 154.5880126953125 47.382320404052734 110.33010864257812 C 73.12445068359375 52.603797912597656 211.10943603515625 -31.07542610168457 279.0666809082031 14.665471076965332 C 40.44694519042969 39.97562789916992 188.52499389648438 105.05899810791016 98.02462768554688 80.97483825683594" fill="rgb(3, 2, 2)" opacity="1.0" stroke-width="2.0"/>
    <path d="M 349.4599609375 185.29957580566406 C 375.43524169921875 171.34007263183594 347.69464111328125 182.93011474609375 378.08856201171875 201.91700744628906 C 352.5344543457031 240.3915557861328 312.5688781738281 155.18336486816406 377.35650634765625 139.55210876464844 C 434.77117919921875 143.52267456054688 360.1582946777344 153.8745880126953 362.4904479980469 178.1856689453125 C 416.70721435546875 149.97947692871094 396.4654235839844 163.031494140625 404.4234619140625 209.5069122314453 C 425.23675537109375 143.1184844970703 401.4223327636719 157.50437927246094 349.4599609375 185.29957580566406" fill="rgb(1, 1, 2)" opacity="1.0" stroke-width="2.0"/>
    <path d="M 311.765625 23.12876319885254 C 290.2476501464844 118.26051330566406 284.1591491699219 146.55809020996094 314.9127502441406 9.450591087341309 C 404.8713684082031 22.91780662536621 484.3788146972656 102.7435302734375 494.8240051269531 189.09564208984375 C 455.05010986328125 151.28602600097656 455.4768371582031 74.98131561279297 311.765625 23.12876319885254" fill="rgb(24, 22, 17)" opacity="1.0" stroke-width="2.0"/>
    <path d="M 295.3430480957031 174.41339111328125 C 298.9151916503906 187.2256317138672 299.89862060546875 188.00701904296875 293.2982482910156 150.65489196777344 C 266.1048889160156 135.99835205078125 252.0687713623047 145.04782104492188 296.66790771484375 120.74372863769531 C 299.3463134765625 185.70677185058594 298.6533203125 186.9669647216797 300.0196228027344 186.2777862548828 C 288.0135498046875 169.63796997070312 308.6963806152344 172.01026916503906 294.0367736816406 174.76397705078125 C 303.020751953125 176.9010467529297 310.9609069824219 183.11074829101562 295.3430480957031 174.41339111328125" fill="rgb(253, 223, 108)" opacity="1.0" stroke-width="2.0"/>
    <path d="M 21.867368698120117 285.2825622558594 C 41.12320327758789 401.71636962890625 94.27139282226562 398.4437561035156 65.30072784423828 427.942626953125 C 73.66841888427734 386.22943115234375 60.96623992919922 402.033935546875 110.7879638671875 441.7913818359375 C 163.56837463378906 482.77716064453125 186.58200073242188 470.4053649902344 112.30693054199219 469.0018310546875 C 81.9200439453125 402.9552001953125 24.22455596923828 416.97076416015625 2.772221803665161 297.9063720703125 C -6.342092990875244 245.3073272705078 19.59992027282715 231.2398223876953 21.867368698120117 285.2825622558594" fill="rgb(2, 0, 1)" opacity="1.0" stroke-width="2.0"/>
    <path d="M 83.65121459960938 513.093505859375 C 80.87217712402344 509.4300537109375 85.81693267822266 514.8897094726562 89.60478973388672 527.988037109375 C 94.52173614501953 517.6522216796875 101.721923828125 508.1291809082031 93.79763793945312 518.1727294921875 C 101.24073028564453 507.472412109375 96.19739532470703 514.019287109375 94.27278137207031 518.0782470703125 C 92.38845825195312 508.1036682128906 90.49079132080078 523.9153442382812 90.88126373291016 516.9232788085938 C 82.63579559326172 529.7105712890625 92.82928466796875 526.75048828125 83.65121459960938 513.093505859375" fill="rgb(159, 187, 255)" opacity="1.0" stroke-width="2.0"/>
    <path d="M 52.580535888671875 414.8666687011719 C 84.31552124023438 442.8023986816406 46.56649398803711 418.7940979003906 18.84079933166504 354.2919616699219 C 43.55018997192383 366.78411865234375 79.1858901977539 403.51348876953125 111.564453125 467.8821105957031 C 53.20310974121094 427.3668212890625 57.5514030456543 401.7020568847656 36.95000457763672 418.1566162109375 C 44.78208923339844 412.4201354980469 37.69775390625 418.3192443847656 38.119876861572266 413.9329528808594 C 38.422119140625 420.2685852050781 42.94968795776367 409.3747253417969 52.580535888671875 414.8666687011719" fill="rgb(0, 0, 0)" opacity="1.0" stroke-width="2.0"/>
    <path d="M 245.91334533691406 19.130390167236328 C 55.05915069580078 39.882789611816406 7.038909912109375 206.32164001464844 240.9559326171875 85.33553314208984 C 246.99740600585938 172.3750457763672 53.360294342041016 169.20167541503906 63.728736877441406 138.1519012451172 C 275.19903564453125 118.86811065673828 296.82659912109375 7.375234127044678 245.91334533691406 19.130390167236328" fill="rgb(252, 222, 108)" opacity="1.0" stroke-width="2.0"/>
    <path d="M 146.68919372558594 465.7323303222656 C 300.1986389160156 538.8139038085938 386.6286926269531 430.3277282714844 368.29644775390625 486.6932067871094 C 285.4627990722656 527.4391479492188 213.5404815673828 503.23553466796875 282.6173400878906 518.9049682617188 C 190.1261749267578 503.92529296875 170.40487670898438 511.4963684082031 145.88218688964844 464.1420593261719 C 135.0493621826172 487.10284423828125 171.43519592285156 507.5751953125 146.68919372558594 465.7323303222656" fill="rgb(1, 0, 1)" opacity="1.0" stroke-width="2.0"/>
    <path d="M 155.9488525390625 424.44073486328125 C 68.4511489868164 424.173095703125 60.684635162353516 388.8408508300781 41.822689056396484 355.0182800292969 C 9.916033744812012 288.78546142578125 3.8606626987457275 178.35043334960938 87.72492218017578 90.62960815429688 C 184.8696746826172 115.85112762451172 176.6282196044922 127.33196258544922 155.9488525390625 424.44073486328125" fill="rgb(252, 213, 108)" opacity="1.0" stroke-width="2.0"/>
    <path d="M 445.41778564453125 82.81752014160156 C 536.4193725585938 183.65293884277344 509.7530822753906 299.3055419921875 506.129150390625 312.2384948730469 C 510.3502502441406 268.6335754394531 478.177490234375 175.47731018066406 490.7948303222656 227.6449432373047 C 502.87933349609375 362.69049072265625 417.9454345703125 403.04766845703125 475.34735107421875 381.06591796875 C 510.526123046875 313.3286437988281 532.8225708007812 325.8222351074219 445.41778564453125 82.81752014160156" fill="rgb(1, 0, 0)" opacity="1.0" stroke-width="2.0"/>
    <path d="M 66.49048614501953 39.3400764465332 C 76.60279846191406 51.114322662353516 72.4749755859375 43.0645637512207 70.59271240234375 46.989070892333984 C 72.3586654663086 43.84315872192383 73.96511840820312 48.37175369262695 69.61146545410156 41.294925689697266 C 78.3097915649414 53.57127380371094 73.98869323730469 57.85065460205078 73.09197998046875 50.867122650146484 C 73.92268371582031 57.72346115112305 78.24128723144531 53.962684631347656 70.39318084716797 42.331634521484375 C 69.24015045166016 40.91447830200195 77.3434066772461 51.74641799926758 66.49048614501953 39.3400764465332" fill="rgb(255, 148, 114)" opacity="1.0" stroke-width="2.0"/>
    <path d="M 500.0749816894531 336.3266906738281 C 500.7233581542969 330.18084716796875 491.3363037109375 372.2046813964844 458.4764709472656 413.3978576660156 C 430.01611328125 452.8985290527344 345.4393310546875 517.0350341796875 323.40234375 483.3811950683594 C 476.22503662109375 429.0537109375 465.32244873046875 313.9004821777344 500.0749816894531 336.3266906738281" fill="rgb(1, 0, 1)" opacity="1.0" stroke-width="2.0"/>
  </g>
</svg>
