<?xml version="1.0" ?>
<svg height="512" version="1.1" width="512" xmlns="http://www.w3.org/2000/svg">
  <defs/>
  <g>
    <path d="M 58.57639694213867 50.56827163696289 C 58.846012115478516 50.284210205078125 54.62849426269531 54.060569763183594 54.523292541503906 54.56163787841797 C 37.04851150512695 68.8978271484375 31.744186401367188 73.15642547607422 32.796504974365234 72.24654388427734 C 35.73992919921875 70.53038787841797 29.57286262512207 75.03961944580078 36.94456100463867 68.42814636230469 C 32.88224792480469 71.80384826660156 22.035844802856445 81.1296157836914 58.57639694213867 50.56827163696289" fill="rgb(255, 78, 141)" opacity="1.0" stroke-width="2.0"/>
    <path d="M 182.61846923828125 502.6409606933594 C 157.7196044921875 441.14666748046875 77.1000747680664 438.08648681640625 108.42533874511719 466.1142578125 C 156.80743408203125 497.1698913574219 157.03079223632812 489.971435546875 89.92559051513672 467.3856506347656 C 66.5045394897461 467.4264221191406 78.43155670166016 467.307861328125 88.04315185546875 467.40570068359375 C 89.23515319824219 468.4051513671875 74.85308837890625 459.5821228027344 182.61846923828125 502.6409606933594" fill="rgb(1, 2, 1)" opacity="1.0" stroke-width="2.0"/>
    <path d="M 67.4333724975586 412.1573791503906 C 113.80433654785156 183.37844848632812 154.39976501464844 197.67593383789062 204.6844940185547 138.25205993652344 C 199.1637420654297 182.4225311279297 200.1801300048828 214.36265563964844 494.6831970214844 158.0072784423828 C 496.916015625 468.8633728027344 452.486083984375 391.69268798828125 366.0487976074219 485.2955322265625 C 153.55747985839844 504.7598571777344 155.400146484375 480.1171875 67.4333724975586 412.1573791503906" fill="rgb(252, 220, 111)" opacity="1.0" stroke-width="2.0"/>
    <path d="M 422.2364501953125 180.1985626220703 C 420.79852294921875 216.4059600830078 380.544921875 230.92503356933594 356.6419677734375 210.5084686279297 C 359.5459289550781 207.6434783935547 362.8639221191406 219.30520629882812 365.8387756347656 224.42787170410156 C 356.6382141113281 206.8236083984375 346.7105712890625 174.44229125976562 373.1953430175781 198.35940551757812 C 413.6897888183594 209.35572814941406 395.0230407714844 151.56533813476562 422.2364501953125 180.1985626220703" fill="rgb(2, 1, 3)" opacity="1.0" stroke-width="2.0"/>
    <path d="M 251.0126495361328 192.26661682128906 C 236.03622436523438 245.51425170898438 124.74652099609375 219.03231811523438 198.76942443847656 123.70941162109375 C 195.86541748046875 231.31712341308594 177.64622497558594 198.86117553710938 292.9338073730469 177.9222412109375 C 340.83074951171875 178.4599151611328 359.8580017089844 243.1140899658203 354.83209228515625 144.6949462890625 C 147.91836547851562 127.99768829345703 172.81959533691406 131.00535583496094 251.0126495361328 192.26661682128906" fill="rgb(19, 22, 19)" opacity="1.0" stroke-width="2.0"/>
    <path d="M 410.7912292480469 151.5751190185547 C 430.1969299316406 173.30557250976562 418.7253112792969 192.67442321777344 417.4030456542969 198.7381591796875 C 397.1815490722656 178.002197265625 403.630615234375 140.47976684570312 351.3575134277344 172.2480926513672 C 338.630126953125 164.4657745361328 375.7893371582031 119.19386291503906 410.7912292480469 151.5751190185547" fill="rgb(3, 2, 1)" opacity="1.0" stroke-width="2.0"/>
    <path d="M 291.82586669921875 10.088461875915527 C 403.2452392578125 44.2835693359375 347.6421813964844 107.18571472167969 251.94322204589844 158.5248565673828 C 176.3815155029297 121.5593490600586 171.57461547851562 36.51846694946289 236.14349365234375 -2.9693665504455566 C 414.4521484375 29.78166389465332 363.21087646484375 95.10368347167969 257.0271911621094 156.02749633789062 C 241.488525390625 149.51097106933594 252.9574737548828 250.6770477294922 336.6012268066406 209.9979705810547 C 442.5506896972656 79.72779846191406 393.97442626953125 50.436546325683594 291.82586669921875 10.088461875915527" fill="rgb(251, 222, 108)" opacity="1.0" stroke-width="2.0"/>
    <path d="M 84.80435943603516 93.82048797607422 C 25.099193572998047 159.44381713867188 48.54560852050781 211.79945373535156 47.61612319946289 105.86286926269531 C 38.63935852050781 120.78608703613281 -5.751948356628418 175.90980529785156 -0.4908912479877472 279.0083312988281 C 54.48860549926758 279.1213073730469 45.06771469116211 158.71315002441406 48.08857727050781 106.65239715576172 C 72.67171478271484 66.29042053222656 170.9099884033203 -21.270273208618164 282.0416259765625 7.073048114776611 C 27.712783813476562 60.589332580566406 155.717529296875 97.4615478515625 84.80435943603516 93.82048797607422" fill="rgb(3, 2, 3)" opacity="1.0" stroke-width="2.0"/>
    <path d="M 350.75494384765625 188.35833740234375 C 372.6170959472656 176.4075469970703 349.8519287109375 180.0443878173828 379.3494873046875 207.34707641601562 C 360.7308044433594 237.16012573242188 313.4321594238281 171.6270294189453 366.7127990722656 142.5452117919922 C 421.936279296875 129.91136169433594 355.4856262207031 163.54495239257812 362.38031005859375 181.19244384765625 C 415.5209045410156 151.78614807128906 393.76300048828125 163.29864501953125 407.794677734375 208.97250366210938 C 426.6117248535156 144.1857147216797 401.69415283203125 157.84060668945312 350.75494384765625 188.35833740234375" fill="rgb(1, 1, 1)" opacity="1.0" stroke-width="2.0"/>
    <path d="M 311.60211181640625 31.778583526611328 C 294.2294006347656 127.04405212402344 291.99658203125 159.5446014404297 314.52166748046875 8.517422676086426 C 408.0804138183594 24.947973251342773 478.20831298828125 101.401123046875 503.2019958496094 185.69857788085938 C 340.0400695800781 146.78085327148438 435.0994873046875 33.700286865234375 311.60211181640625 31.778583526611328" fill="rgb(143, 130, 64)" opacity="1.0" stroke-width="2.0"/>
    <path d="M 295.3365783691406 174.3483123779297 C 298.9186706542969 187.2852020263672 300.056884765625 187.96405029296875 293.7757873535156 150.2435760498047 C 274.98687744140625 139.94412231445312 260.3506164550781 157.3065643310547 295.9211730957031 129.47433471679688 C 298.8208312988281 185.80068969726562 298.4775695800781 186.95159912109375 300.1212463378906 186.14718627929688 C 288.1161804199219 169.58090209960938 308.6593017578125 172.013916015625 294.0101318359375 174.8317413330078 C 302.92315673828125 177.0575408935547 311.0014343261719 183.07359313964844 295.3365783691406 174.3483123779297" fill="rgb(253, 220, 108)" opacity="1.0" stroke-width="2.0"/>
    <path d="M 21.909666061401367 284.4148864746094 C 41.80267333984375 403.4281311035156 94.39164733886719 397.35284423828125 63.859249114990234 427.4905700683594 C 74.06892395019531 386.62310791015625 60.68364334106445 401.85015869140625 110.62020874023438 441.72882080078125 C 161.25167846679688 481.2887878417969 183.6801300048828 469.22711181640625 112.24517059326172 469.05194091796875 C 81.60254669189453 399.3912658691406 24.696245193481445 419.37640380859375 2.8023295402526855 297.2666015625 C -6.601630687713623 245.8324737548828 24.869230270385742 231.2096405029297 21.909666061401367 284.4148864746094" fill="rgb(2, 1, 1)" opacity="1.0" stroke-width="2.0"/>
    <path d="M 80.9853286743164 508.4291076660156 C 77.95179748535156 505.0212097167969 85.9333267211914 512.2059326171875 90.38004302978516 526.1820068359375 C 94.52173614501953 517.6522216796875 101.721923828125 508.1291809082031 93.79763793945312 518.1727294921875 C 101.24073028564453 507.472412109375 96.19739532470703 514.019287109375 94.27278137207031 518.0782470703125 C 92.38845825195312 508.1036682128906 90.49079132080078 523.9153442382812 90.9195556640625 516.9094848632812 C 83.14592742919922 529.1431884765625 94.2309341430664 525.3565673828125 80.9853286743164 508.4291076660156" fill="rgb(152, 180, 245)" opacity="1.0" stroke-width="2.0"/>
    <path d="M 51.520164489746094 413.8377990722656 C 86.04373168945312 443.407470703125 48.91886520385742 422.56268310546875 18.925453186035156 354.4580993652344 C 43.42501449584961 367.5574951171875 79.88031005859375 402.8498229980469 110.90513610839844 467.65728759765625 C 52.845481872558594 426.3078308105469 56.8306999206543 401.8659973144531 37.21412658691406 417.76336669921875 C 42.359153747558594 413.4835510253906 38.781375885009766 418.8138427734375 38.44132995605469 413.5379333496094 C 38.77593994140625 420.84967041015625 41.47632598876953 410.0783996582031 51.520164489746094 413.8377990722656" fill="rgb(1, 0, 0)" opacity="1.0" stroke-width="2.0"/>
    <path d="M 249.47422790527344 14.853960990905762 C 47.15803527832031 56.6085205078125 13.408870697021484 182.39141845703125 234.83529663085938 80.21012115478516 C 243.74200439453125 177.64047241210938 60.44533920288086 173.6035919189453 61.40127182006836 123.73580932617188 C 278.2272033691406 115.51236724853516 296.38232421875 -7.840672016143799 249.47422790527344 14.853960990905762" fill="rgb(249, 219, 107)" opacity="1.0" stroke-width="2.0"/>
    <path d="M 147.12075805664062 466.0627136230469 C 301.55078125 538.20654296875 381.22320556640625 431.5658874511719 367.2983703613281 487.0337829589844 C 280.3493347167969 528.3399658203125 219.21209716796875 501.7813720703125 278.1455383300781 519.3706665039062 C 189.48464965820312 502.4872131347656 174.68411254882812 513.3583374023438 145.83555603027344 464.2744140625 C 135.0587615966797 487.076171875 172.2845458984375 506.8626403808594 147.12075805664062 466.0627136230469" fill="rgb(1, 0, 1)" opacity="1.0" stroke-width="2.0"/>
    <path d="M 168.27798461914062 416.82794189453125 C 54.21257781982422 421.245849609375 62.478782653808594 385.9369201660156 40.35334777832031 351.6601867675781 C 11.127007484436035 286.6949157714844 5.863858222961426 187.24142456054688 77.04296112060547 102.13189697265625 C 184.9606170654297 118.8706283569336 183.85189819335938 129.43223571777344 168.27798461914062 416.82794189453125" fill="rgb(252, 213, 108)" opacity="1.0" stroke-width="2.0"/>
    <path d="M 454.42620849609375 93.43854522705078 C 533.6411743164062 189.69175720214844 509.74713134765625 296.6184997558594 506.6910705566406 311.0978698730469 C 500.2379150390625 247.07806396484375 487.8880920410156 206.86997985839844 492.4488830566406 270.4133605957031 C 476.5900573730469 395.8626403808594 424.62152099609375 394.28277587890625 471.62994384765625 380.5949401855469 C 515.374267578125 312.0279846191406 524.328125 336.3695068359375 454.42620849609375 93.43854522705078" fill="rgb(1, 1, 1)" opacity="1.0" stroke-width="2.0"/>
    <path d="M 66.49967193603516 37.611328125 C 76.19154357910156 51.74264144897461 71.52113342285156 45.00823211669922 65.7158432006836 46.89164352416992 C 70.43791961669922 45.09144973754883 75.8713607788086 49.59256362915039 67.41035461425781 42.866798400878906 C 80.22006225585938 52.642330169677734 76.40311431884766 58.620731353759766 78.58784484863281 56.62937927246094 C 75.91397857666016 58.686466217041016 80.66504669189453 54.04179763793945 68.55323028564453 43.16355514526367 C 67.8685073852539 42.096031188964844 78.21883392333984 54.382301330566406 66.49967193603516 37.611328125" fill="rgb(255, 140, 106)" opacity="1.0" stroke-width="2.0"/>
    <path d="M 500.1509094238281 335.993896484375 C 500.9352111816406 329.5220031738281 491.0996398925781 372.1534729003906 459.3063049316406 411.9566650390625 C 431.9471130371094 450.8100280761719 349.0321044921875 515.4448852539062 324.35565185546875 484.39068603515625 C 484.58905029296875 419.5401611328125 458.3112487792969 320.0402526855469 500.1509094238281 335.993896484375" fill="rgb(1, 1, 1)" opacity="1.0" stroke-width="2.0"/>
  </g>
</svg>
