<?xml version="1.0" ?>
<svg height="512" version="1.1" width="512" xmlns="http://www.w3.org/2000/svg">
  <defs/>
  <g>
    <path d="M 59.406490325927734 51.73196029663086 C 58.06494903564453 52.81773376464844 54.37012481689453 55.45003128051758 54.779170989990234 54.991310119628906 C 37.87294387817383 69.69913482666016 32.44076156616211 73.17041015625 34.38754653930664 70.99571990966797 C 35.8286247253418 68.54185485839844 31.471437454223633 75.13748168945312 37.38505554199219 68.88178253173828 C 36.0268669128418 70.84532165527344 23.268373489379883 81.13825988769531 59.406490325927734 51.73196029663086" fill="rgb(255, 95, 160)" opacity="1.0" stroke-width="2.0"/>
    <path d="M 182.6778106689453 502.58056640625 C 158.16920471191406 441.03277587890625 77.13738250732422 437.7784729003906 109.48960876464844 466.8284606933594 C 156.78323364257812 496.9682922363281 161.4687957763672 491.75732421875 90.3890151977539 467.8475036621094 C 67.51300811767578 467.3664855957031 80.21455383300781 467.6289367675781 89.07576751708984 467.8992919921875 C 89.73031616210938 468.9938049316406 74.86920928955078 459.6946716308594 182.6778106689453 502.58056640625" fill="rgb(0, 1, 0)" opacity="1.0" stroke-width="2.0"/>
    <path d="M 66.29547882080078 410.507080078125 C 112.01652526855469 168.06581115722656 139.1553955078125 146.2735595703125 229.61451721191406 130.41729736328125 C 183.95497131347656 206.05020141601562 88.28739166259766 204.54100036621094 483.8635559082031 126.77928161621094 C 513.8333740234375 466.41650390625 458.0724792480469 383.7226257324219 365.64208984375 485.3525085449219 C 155.46511840820312 504.7770690917969 156.7482147216797 479.5865173339844 66.29547882080078 410.507080078125" fill="rgb(251, 220, 111)" opacity="1.0" stroke-width="2.0"/>
    <path d="M 422.139404296875 180.71604919433594 C 420.4754333496094 215.61309814453125 380.6140441894531 231.79647827148438 355.6626281738281 209.75143432617188 C 358.8539733886719 205.82083129882812 361.93896484375 217.27313232421875 365.2740783691406 223.62986755371094 C 357.3475646972656 205.9913330078125 344.9091491699219 178.94358825683594 374.7398986816406 198.74484252929688 C 412.77880859375 208.08718872070312 396.6007995605469 150.51808166503906 422.139404296875 180.71604919433594" fill="rgb(2, 1, 2)" opacity="1.0" stroke-width="2.0"/>
    <path d="M 253.35906982421875 186.88783264160156 C 228.76119995117188 263.5743408203125 117.43403625488281 191.48275756835938 207.9895782470703 130.66986083984375 C 169.06829833984375 217.08456420898438 219.0668182373047 221.41539001464844 274.4291076660156 148.560791015625 C 350.5132141113281 154.10488891601562 362.9853820800781 209.60804748535156 356.1114196777344 148.0684814453125 C 147.53912353515625 136.25833129882812 177.11753845214844 130.57908630371094 253.35906982421875 186.88783264160156" fill="rgb(5, 4, 5)" opacity="1.0" stroke-width="2.0"/>
    <path d="M 410.7503662109375 151.73590087890625 C 429.90447998046875 172.29269409179688 420.5401306152344 196.0382843017578 414.3919982910156 199.02142333984375 C 398.80029296875 178.80380249023438 403.7613525390625 140.40737915039062 350.8776550292969 171.70684814453125 C 338.6183166503906 164.75946044921875 377.02679443359375 119.11245727539062 410.7503662109375 151.73590087890625" fill="rgb(1, 1, 2)" opacity="1.0" stroke-width="2.0"/>
    <path d="M 299.4832763671875 11.884693145751953 C 406.56695556640625 54.11625671386719 347.0860595703125 102.43363952636719 244.24691772460938 152.4691162109375 C 166.90420532226562 108.43685913085938 166.7255401611328 42.863059997558594 232.80027770996094 -4.873608112335205 C 422.14801025390625 35.62937927246094 368.2203063964844 93.18245697021484 241.58787536621094 153.7015838623047 C 254.9734344482422 147.4083709716797 257.8099670410156 276.5114440917969 363.7170715332031 148.03489685058594 C 537.725830078125 138.4590606689453 460.6124267578125 96.24036407470703 299.4832763671875 11.884693145751953" fill="rgb(251, 221, 109)" opacity="1.0" stroke-width="2.0"/>
    <path d="M 93.9574203491211 84.61564636230469 C 25.345420837402344 153.0122528076172 52.178340911865234 215.4519500732422 47.34413146972656 106.4465560913086 C 38.81272888183594 120.39314270019531 -6.652960777282715 178.26959228515625 -0.14923690259456635 279.0213317871094 C 49.18046951293945 279.0885009765625 49.62520217895508 157.4998016357422 47.507083892822266 110.04517364501953 C 68.74920654296875 60.33720016479492 199.32916259765625 -30.856586456298828 281.1448974609375 13.563751220703125 C 37.470054626464844 42.763641357421875 182.29034423828125 104.4361343383789 93.9574203491211 84.61564636230469" fill="rgb(4, 3, 2)" opacity="1.0" stroke-width="2.0"/>
    <path d="M 349.26898193359375 184.87416076660156 C 376.17425537109375 171.50714111328125 347.2760314941406 181.3371124267578 378.1027526855469 202.19049072265625 C 355.59527587890625 241.5871124267578 310.8045349121094 156.78358459472656 377.026611328125 139.56918334960938 C 437.85162353515625 144.40765380859375 360.04229736328125 153.15863037109375 362.62042236328125 178.36436462402344 C 416.91510009765625 150.49844360351562 395.7752685546875 162.8301239013672 405.28521728515625 209.26226806640625 C 425.4537353515625 143.0592041015625 401.208251953125 157.17442321777344 349.26898193359375 184.87416076660156" fill="rgb(1, 1, 2)" opacity="1.0" stroke-width="2.0"/>
    <path d="M 312.09576416015625 22.373802185058594 C 292.63726806640625 121.5396957397461 286.9203186035156 150.09632873535156 314.8168029785156 9.471837043762207 C 405.7583923339844 23.122940063476562 481.10345458984375 102.56511688232422 495.99249267578125 182.2159423828125 C 441.72552490234375 135.9189453125 460.11151123046875 81.9075698852539 312.09576416015625 22.373802185058594" fill="rgb(23, 22, 17)" opacity="1.0" stroke-width="2.0"/>
    <path d="M 295.34552001953125 174.37567138671875 C 298.9302978515625 187.24803161621094 300.0091247558594 187.97235107421875 293.55169677734375 150.60227966308594 C 268.5742492675781 137.6743927001953 254.15476989746094 148.5984344482422 296.60797119140625 122.9117431640625 C 299.13043212890625 185.74203491210938 298.54412841796875 186.96852111816406 300.06048583984375 186.2178497314453 C 288.0552062988281 169.6085205078125 308.67071533203125 172.01004028320312 294.0232849121094 174.80226135253906 C 302.97027587890625 176.98104858398438 310.98150634765625 183.09112548828125 295.34552001953125 174.37567138671875" fill="rgb(253, 223, 108)" opacity="1.0" stroke-width="2.0"/>
    <path d="M 21.898727416992188 285.1684875488281 C 41.457550048828125 402.49957275390625 94.44792938232422 398.1231994628906 64.48503112792969 428.3883361816406 C 73.50077056884766 386.4105224609375 60.88013458251953 402.00653076171875 110.723388671875 441.7782897949219 C 162.80682373046875 482.0563659667969 185.47434997558594 470.0169982910156 112.38298034667969 469.0462341308594 C 81.83515930175781 401.7742004394531 24.06102752685547 417.3583679199219 2.673142433166504 297.786376953125 C -5.910378456115723 245.47073364257812 20.109939575195312 231.2742156982422 21.898727416992188 285.1684875488281" fill="rgb(2, 0, 1)" opacity="1.0" stroke-width="2.0"/>
    <path d="M 82.75675964355469 509.70904541015625 C 79.26695251464844 507.1240234375 85.7733154296875 513.7760009765625 89.84899139404297 527.3798217773438 C 94.52173614501953 517.6522216796875 101.721923828125 508.1291809082031 93.79763793945312 518.1727294921875 C 101.24073028564453 507.472412109375 96.19739532470703 514.019287109375 94.27278137207031 518.0782470703125 C 92.38845825195312 508.1036682128906 90.49079132080078 523.9153442382812 90.87985229492188 516.9234619140625 C 82.61336517333984 529.7330322265625 92.90113067626953 526.6986083984375 82.75675964355469 509.70904541015625" fill="rgb(156, 185, 251)" opacity="1.0" stroke-width="2.0"/>
    <path d="M 52.481727600097656 414.73095703125 C 85.67672729492188 443.9723205566406 47.39116668701172 420.3036193847656 18.758892059326172 354.37060546875 C 43.55276107788086 366.9420166015625 79.43309020996094 403.3018493652344 111.5438232421875 467.80291748046875 C 53.236419677734375 427.17742919921875 57.37530517578125 402.0356750488281 36.79262161254883 418.22357177734375 C 44.32928466796875 412.20867919921875 38.18271255493164 419.4461975097656 39.675048828125 412.66796875 C 38.31143569946289 420.62127685546875 42.566673278808594 409.691650390625 52.481727600097656 414.73095703125" fill="rgb(0, 0, 0)" opacity="1.0" stroke-width="2.0"/>
    <path d="M 247.66246032714844 18.277498245239258 C 51.54473876953125 43.99159240722656 11.6944580078125 198.80621337890625 239.4857940673828 83.53453826904297 C 244.91078186035156 173.52845764160156 54.11264419555664 171.68399047851562 62.630306243896484 133.9889373779297 C 276.034912109375 117.44718933105469 296.991455078125 5.031304359436035 247.66246032714844 18.277498245239258" fill="rgb(251, 221, 108)" opacity="1.0" stroke-width="2.0"/>
    <path d="M 146.88755798339844 465.88433837890625 C 300.8496398925781 538.6624755859375 384.7955017089844 430.5490417480469 367.7358703613281 487.0194091796875 C 284.10784912109375 527.8328857421875 215.2835693359375 502.854248046875 281.12115478515625 519.042236328125 C 189.84201049804688 503.4890441894531 171.8950958251953 512.3097534179688 146.0380859375 464.4463806152344 C 135.0662841796875 487.0843505859375 171.91836547851562 507.2051086425781 146.88755798339844 465.88433837890625" fill="rgb(1, 0, 1)" opacity="1.0" stroke-width="2.0"/>
    <path d="M 160.57858276367188 420.9282531738281 C 64.15234375 422.7250061035156 60.891754150390625 387.8399658203125 41.503135681152344 353.9181213378906 C 10.51317024230957 288.1048278808594 4.231770038604736 180.8270721435547 84.7633056640625 93.7155990600586 C 187.36123657226562 115.62284851074219 179.66748046875 127.09586334228516 160.57858276367188 420.9282531738281" fill="rgb(252, 213, 108)" opacity="1.0" stroke-width="2.0"/>
    <path d="M 447.53515625 84.9880142211914 C 535.9451293945312 185.76075744628906 509.52099609375 297.548828125 506.5021667480469 311.7724304199219 C 506.0724182128906 256.3289794921875 481.0992431640625 184.75607299804688 492.11810302734375 241.5689239501953 C 494.5616760253906 373.6297607421875 418.9752502441406 399.64410400390625 475.12646484375 382.31829833984375 C 510.99822998046875 314.1639709472656 530.4486083984375 327.4179992675781 447.53515625 84.9880142211914" fill="rgb(0, 0, 0)" opacity="1.0" stroke-width="2.0"/>
    <path d="M 64.89599609375 40.17030715942383 C 75.81851196289062 51.49421310424805 73.36701202392578 43.5640869140625 67.64418029785156 46.83660125732422 C 72.1626205444336 43.815425872802734 75.7259292602539 49.28024673461914 70.1052474975586 41.00715637207031 C 78.85317993164062 53.098182678222656 74.6161880493164 59.02350997924805 78.17713165283203 53.03268814086914 C 74.9527587890625 58.27470779418945 78.53609466552734 54.82133865356445 70.50092315673828 41.7626838684082 C 70.32109069824219 40.863624572753906 78.13606262207031 52.818389892578125 64.89599609375 40.17030715942383" fill="rgb(255, 145, 111)" opacity="1.0" stroke-width="2.0"/>
    <path d="M 500.1521911621094 336.00018310546875 C 501.0103454589844 330.1046447753906 491.3485412597656 372.4214172363281 458.5986328125 412.7719421386719 C 431.0091552734375 452.0727844238281 346.5079345703125 516.5853271484375 323.7491455078125 483.7255554199219 C 479.3304748535156 425.7410888671875 462.59698486328125 315.6229553222656 500.1521911621094 336.00018310546875" fill="rgb(1, 0, 1)" opacity="1.0" stroke-width="2.0"/>
  </g>
</svg>
