<?xml version="1.0" ?>
<svg height="512" version="1.1" width="512" xmlns="http://www.w3.org/2000/svg">
  <defs/>
  <g>
    <path d="M 59.0796012878418 51.3490104675293 C 58.346405029296875 51.861114501953125 54.77042770385742 54.748600006103516 54.806427001953125 54.768951416015625 C 37.4239501953125 69.28655242919922 31.80778694152832 73.29674530029297 33.00094985961914 72.13040161132812 C 35.702598571777344 68.58704376220703 30.098222732543945 75.22118377685547 35.71942138671875 68.30817413330078 C 33.90902328491211 70.83086395263672 23.176965713500977 81.65528106689453 59.0796012878418 51.3490104675293" fill="rgb(255, 86, 150)" opacity="1.0" stroke-width="2.0"/>
    <path d="M 182.76690673828125 502.5310363769531 C 158.037353515625 441.07806396484375 77.54264068603516 437.81793212890625 109.73531341552734 467.08935546875 C 156.97718811035156 496.8359375 160.25384521484375 491.3349304199219 89.80463409423828 467.8257751464844 C 66.83921813964844 467.3487854003906 79.13699340820312 467.1387634277344 88.09672546386719 467.531982421875 C 89.64871215820312 468.71441650390625 74.71045684814453 459.7930908203125 182.76690673828125 502.5310363769531" fill="rgb(2, 1, 2)" opacity="1.0" stroke-width="2.0"/>
    <path d="M 66.7459716796875 411.0700378417969 C 112.32429504394531 171.38565063476562 141.66329956054688 161.82308959960938 218.213623046875 134.84158325195312 C 199.69151306152344 196.8413848876953 137.32810974121094 208.23851013183594 487.2409973144531 118.12336730957031 C 506.975830078125 475.8400573730469 456.5860290527344 389.7039794921875 366.2361755371094 485.3652038574219 C 154.8837890625 504.6828308105469 156.29611206054688 479.6983642578125 66.7459716796875 411.0700378417969" fill="rgb(251, 220, 111)" opacity="1.0" stroke-width="2.0"/>
    <path d="M 422.2823791503906 180.65179443359375 C 420.6407775878906 215.913330078125 380.7028503417969 231.38253784179688 356.3175354003906 210.09902954101562 C 358.96435546875 206.99313354492188 361.9647521972656 218.79476928710938 365.471435546875 224.2279052734375 C 356.6513671875 206.65054321289062 345.2952575683594 177.28619384765625 374.2330017089844 198.50192260742188 C 412.990234375 208.54620361328125 396.4980773925781 150.8360595703125 422.2823791503906 180.65179443359375" fill="rgb(2, 1, 2)" opacity="1.0" stroke-width="2.0"/>
    <path d="M 253.19744873046875 187.0625 C 231.59317016601562 259.7641906738281 117.87423706054688 198.7882537841797 206.56382751464844 128.0547637939453 C 172.3516387939453 219.86949157714844 214.6108856201172 219.2406005859375 280.2652893066406 150.5930633544922 C 350.14422607421875 154.83006286621094 362.87957763671875 210.44076538085938 354.965576171875 148.49417114257812 C 142.70535278320312 137.55984497070312 174.4921417236328 126.89041137695312 253.19744873046875 187.0625" fill="rgb(6, 6, 7)" opacity="1.0" stroke-width="2.0"/>
    <path d="M 410.6155700683594 151.65701293945312 C 430.0591735839844 172.5774688720703 419.98028564453125 194.8776397705078 415.469482421875 198.17324829101562 C 398.6409912109375 178.55252075195312 403.2026672363281 140.32666015625 350.99114990234375 171.80796813964844 C 338.6204528808594 164.75987243652344 377.2966613769531 118.98454284667969 410.6155700683594 151.65701293945312" fill="rgb(1, 1, 2)" opacity="1.0" stroke-width="2.0"/>
    <path d="M 298.6534118652344 11.657612800598145 C 404.51031494140625 52.86962127685547 346.770263671875 103.5079345703125 247.21630859375 155.15966796875 C 169.58001708984375 108.23680114746094 167.71177673339844 40.7858772277832 232.9422149658203 -4.53527307510376 C 419.72076416015625 33.64916229248047 366.8435974121094 94.2095947265625 244.37814331054688 156.50311279296875 C 250.4090118408203 145.04855346679688 259.1835632324219 268.9361877441406 359.2367248535156 155.0638885498047 C 530.47705078125 122.23883819580078 455.4648742675781 92.46289825439453 298.6534118652344 11.657612800598145" fill="rgb(251, 221, 108)" opacity="1.0" stroke-width="2.0"/>
    <path d="M 91.73220825195312 86.84403991699219 C 26.342376708984375 156.41497802734375 51.16596984863281 214.643798828125 47.46609115600586 106.32452392578125 C 38.804988861083984 120.65276336669922 -6.4779863357543945 177.46310424804688 -0.2946701645851135 278.9808654785156 C 50.61891174316406 279.1007385253906 48.08893966674805 158.30831909179688 47.51731491088867 108.98214721679688 C 68.80047607421875 63.6388053894043 191.27333068847656 -29.62807846069336 281.2378234863281 12.511015892028809 C 34.704322814941406 46.24150085449219 176.65267944335938 102.44400787353516 91.73220825195312 86.84403991699219" fill="rgb(3, 3, 2)" opacity="1.0" stroke-width="2.0"/>
    <path d="M 349.4098815917969 185.25425720214844 C 375.40576171875 172.22732543945312 347.1451110839844 179.4302978515625 378.2213439941406 204.48973083496094 C 357.6124572753906 240.45945739746094 309.75225830078125 159.99945068359375 376.01104736328125 139.49676513671875 C 443.9545593261719 145.25927734375 356.2037658691406 154.36724853515625 363.0318298339844 178.04286193847656 C 416.00640869140625 150.6419677734375 395.045654296875 163.53550720214844 405.8603210449219 209.25640869140625 C 426.0451354980469 143.51951599121094 401.5973815917969 157.5524444580078 349.4098815917969 185.25425720214844" fill="rgb(1, 1, 2)" opacity="1.0" stroke-width="2.0"/>
    <path d="M 312.61065673828125 21.085609436035156 C 293.8305969238281 123.08930206298828 288.5742492675781 152.06396484375 314.68212890625 9.49365520477295 C 406.34918212890625 23.526256561279297 479.1170654296875 102.53822326660156 494.989013671875 177.7106170654297 C 431.3206481933594 124.2489242553711 465.3098449707031 88.72061920166016 312.61065673828125 21.085609436035156" fill="rgb(22, 26, 17)" opacity="1.0" stroke-width="2.0"/>
    <path d="M 295.3434753417969 174.358642578125 C 298.9408874511719 187.26449584960938 300.0770263671875 187.95315551757812 293.71380615234375 150.63648986816406 C 270.71856689453125 139.33984375 256.263916015625 152.5314483642578 296.7047119140625 125.49994659423828 C 298.9910583496094 185.76507568359375 298.47705078125 186.967529296875 300.087158203125 186.18023681640625 C 288.0849304199219 169.59303283691406 308.6577453613281 172.01138305664062 294.0188293457031 174.81991577148438 C 302.9438781738281 177.0226287841797 310.99346923828125 183.08035278320312 295.3434753417969 174.358642578125" fill="rgb(253, 223, 109)" opacity="1.0" stroke-width="2.0"/>
    <path d="M 21.616716384887695 284.76593017578125 C 41.831886291503906 402.6591491699219 94.31893157958984 398.1175537109375 63.758907318115234 427.35870361328125 C 73.48082733154297 386.6763916015625 60.695255279541016 402.11962890625 110.74018859863281 441.6762390136719 C 162.50057983398438 481.7868347167969 185.03846740722656 469.94464111328125 112.10456848144531 469.0798645019531 C 81.96112060546875 400.695068359375 24.263986587524414 417.9653015136719 2.678849935531616 297.5837097167969 C -6.411829948425293 245.55245971679688 21.572471618652344 231.25030517578125 21.616716384887695 284.76593017578125" fill="rgb(2, 0, 1)" opacity="1.0" stroke-width="2.0"/>
    <path d="M 81.52117919921875 509.1875 C 78.95069122314453 505.59442138671875 85.76419830322266 513.0762939453125 89.87762451171875 527.0620727539062 C 94.52173614501953 517.6522216796875 101.721923828125 508.1291809082031 93.79763793945312 518.1727294921875 C 101.24073028564453 507.472412109375 96.19739532470703 514.019287109375 94.27278137207031 518.0782470703125 C 92.38845825195312 508.1036682128906 90.49079132080078 523.9153442382812 90.89720153808594 516.91748046875 C 82.89043426513672 529.4378051757812 93.67766571044922 525.9227905273438 81.52117919921875 509.1875" fill="rgb(154, 183, 249)" opacity="1.0" stroke-width="2.0"/>
    <path d="M 52.13853454589844 414.6122131347656 C 86.11814880371094 443.80072021484375 47.92470932006836 420.9241638183594 18.84016227722168 354.3561706542969 C 43.61382293701172 367.0527648925781 79.6002197265625 403.0981140136719 111.14490509033203 467.8272399902344 C 53.13397979736328 427.1133117675781 57.57635498046875 401.8553161621094 36.60190200805664 418.447021484375 C 43.26704025268555 411.8713073730469 38.623844146728516 418.1302185058594 39.83759307861328 412.4586181640625 C 38.96864318847656 420.695556640625 42.408172607421875 409.74859619140625 52.13853454589844 414.6122131347656" fill="rgb(0, 0, 0)" opacity="1.0" stroke-width="2.0"/>
    <path d="M 248.47531127929688 17.857563018798828 C 49.68867874145508 46.614295959472656 13.372773170471191 194.06735229492188 238.5367431640625 83.09639739990234 C 244.4607696533203 175.14308166503906 55.88370895385742 173.205322265625 62.13438034057617 131.21621704101562 C 276.68365478515625 116.76861572265625 297.0573425292969 3.287776231765747 248.47531127929688 17.857563018798828" fill="rgb(251, 221, 108)" opacity="1.0" stroke-width="2.0"/>
    <path d="M 146.9999237060547 465.9727478027344 C 301.0600280761719 538.4567260742188 383.790771484375 430.8983459472656 367.4797058105469 486.9222412109375 C 283.1537170410156 528.015380859375 216.40719604492188 502.4629211425781 280.2657775878906 519.02587890625 C 189.68710327148438 503.1975402832031 172.638427734375 512.7393188476562 145.81080627441406 464.3384704589844 C 135.0709991455078 487.0626220703125 172.22305297851562 506.9560852050781 146.9999237060547 465.9727478027344" fill="rgb(1, 0, 1)" opacity="1.0" stroke-width="2.0"/>
    <path d="M 162.7232666015625 419.273681640625 C 61.54288864135742 422.0999450683594 61.25498580932617 387.271240234375 41.171504974365234 353.28790283203125 C 10.742725372314453 287.92755126953125 4.78734016418457 182.8592071533203 82.32642364501953 96.30602264404297 C 188.03366088867188 115.80467224121094 180.8311309814453 127.08209228515625 162.7232666015625 419.273681640625" fill="rgb(252, 213, 108)" opacity="1.0" stroke-width="2.0"/>
    <path d="M 448.80328369140625 86.53609466552734 C 535.44580078125 186.91810607910156 509.37237548828125 296.9140625 506.70062255859375 311.2425537109375 C 503.2137756347656 250.08615112304688 483.67620849609375 190.5863494873047 492.3946228027344 252.39205932617188 C 488.4736022949219 382.1234130859375 420.07672119140625 397.2629699707031 474.28887939453125 382.2425537109375 C 512.205078125 313.689453125 529.1292114257812 328.6583557128906 448.80328369140625 86.53609466552734" fill="rgb(1, 0, 1)" opacity="1.0" stroke-width="2.0"/>
    <path d="M 65.1130142211914 38.92117691040039 C 75.66657257080078 50.85028076171875 73.20256042480469 43.777557373046875 66.94798278808594 46.82948303222656 C 72.04875183105469 43.79575729370117 76.09867858886719 49.369384765625 69.38549041748047 41.092525482177734 C 79.1772232055664 52.73533630371094 74.74943542480469 58.88668441772461 78.09170532226562 52.9488525390625 C 75.00484466552734 58.35355758666992 79.02633666992188 54.481258392333984 70.13983917236328 41.39834976196289 C 69.65048217773438 41.74354553222656 78.18482208251953 54.157840728759766 65.1130142211914 38.92117691040039" fill="rgb(255, 143, 109)" opacity="1.0" stroke-width="2.0"/>
    <path d="M 500.3040771484375 335.6906433105469 C 500.9971618652344 329.843505859375 491.1622009277344 372.3514709472656 458.84332275390625 412.5162658691406 C 431.4297180175781 451.6931457519531 347.40777587890625 516.2271728515625 323.936279296875 483.8995361328125 C 481.3461608886719 423.6830749511719 461.151611328125 316.8453063964844 500.3040771484375 335.6906433105469" fill="rgb(1, 0, 1)" opacity="1.0" stroke-width="2.0"/>
  </g>
</svg>
