<?xml version="1.0" ?>
<svg height="512" version="1.1" width="512" xmlns="http://www.w3.org/2000/svg">
  <defs/>
  <g>
    <path d="M 58.688194274902344 50.371192932128906 C 59.50298309326172 49.57072830200195 54.714942932128906 53.58124923706055 54.201026916503906 54.01908874511719 C 37.10038375854492 68.9516372680664 31.605947494506836 73.2027359008789 32.18101119995117 72.35013580322266 C 36.211421966552734 71.0081558227539 28.541696548461914 74.02105712890625 38.33485412597656 68.60400390625 C 31.50747299194336 71.90457153320312 22.372650146484375 81.98606872558594 58.688194274902344 50.371192932128906" fill="rgb(255, 71, 133)" opacity="1.0" stroke-width="2.0"/>
    <path d="M 182.5540008544922 502.7607727050781 C 157.33544921875 441.3100280761719 76.01874542236328 438.8430480957031 104.75428771972656 463.4829406738281 C 156.1731719970703 497.058349609375 150.16949462890625 487.0762634277344 90.21581268310547 466.95025634765625 C 65.2092056274414 466.7766418457031 76.14155578613281 466.2870788574219 91.23657989501953 467.1104431152344 C 87.72904968261719 467.33343505859375 75.27226257324219 458.97686767578125 182.5540008544922 502.7607727050781" fill="rgb(2, 8, 2)" opacity="1.0" stroke-width="2.0"/>
    <path d="M 75.40091705322266 420.09307861328125 C 115.98017883300781 187.22727966308594 163.35189819335938 216.68612670898438 181.28819274902344 172.16128540039062 C 203.55349731445312 182.8498077392578 204.10906982421875 215.115234375 499.6603088378906 152.1920928955078 C 493.9624328613281 464.4769287109375 451.6445617675781 394.43914794921875 370.80181884765625 485.2286682128906 C 147.99383544921875 503.93731689453125 151.3619384765625 481.4904479980469 75.40091705322266 420.09307861328125" fill="rgb(251, 219, 110)" opacity="1.0" stroke-width="2.0"/>
    <path d="M 422.3373718261719 180.5118408203125 C 420.2598571777344 217.1759796142578 380.4080505371094 230.67324829101562 357.6470947265625 210.48548889160156 C 358.92901611328125 208.55288696289062 362.727294921875 220.1718292236328 365.5671691894531 225.03900146484375 C 356.328125 207.8616180419922 347.6952209472656 174.90707397460938 372.87261962890625 198.1267852783203 C 412.16741943359375 210.04705810546875 396.5492248535156 152.93551635742188 422.3373718261719 180.5118408203125" fill="rgb(2, 1, 3)" opacity="1.0" stroke-width="2.0"/>
    <path d="M 244.5223846435547 205.53469848632812 C 225.87832641601562 224.74501037597656 181.86788940429688 234.95114135742188 165.3463897705078 166.60455322265625 C 218.47323608398438 213.6216583251953 229.75741577148438 203.5488739013672 298.55548095703125 179.53111267089844 C 340.8373107910156 178.57029724121094 359.9991455078125 243.28138732910156 360.2509765625 137.05674743652344 C 178.55076599121094 106.10464477539062 201.31668090820312 114.91024017333984 244.5223846435547 205.53469848632812" fill="rgb(24, 19, 18)" opacity="1.0" stroke-width="2.0"/>
    <path d="M 410.9768981933594 151.7770233154297 C 430.6296081542969 174.58596801757812 417.9858703613281 189.91607666015625 418.91424560546875 196.27162170410156 C 405.0302734375 179.82437133789062 407.08990478515625 144.33346557617188 347.565185546875 168.00921630859375 C 339.244384765625 163.3035888671875 371.259521484375 118.79685974121094 410.9768981933594 151.7770233154297" fill="rgb(3, 1, 2)" opacity="1.0" stroke-width="2.0"/>
    <path d="M 279.6023864746094 11.243160247802734 C 383.0708923339844 13.660414695739746 344.2939453125 122.82251739501953 257.7033996582031 172.72190856933594 C 198.90235900878906 115.52129364013672 178.4213409423828 15.383453369140625 235.19491577148438 -20.8384952545166 C 375.8166809082031 82.98049926757812 338.6007995605469 105.38432312011719 271.6522521972656 165.59205627441406 C 236.08425903320312 172.14451599121094 239.0308837890625 242.35496520996094 348.9788513183594 243.99554443359375 C 390.9056091308594 77.13770294189453 352.0346984863281 98.56050109863281 279.6023864746094 11.243160247802734" fill="rgb(252, 222, 109)" opacity="1.0" stroke-width="2.0"/>
    <path d="M 84.59932708740234 95.27809143066406 C 19.766786575317383 160.83065795898438 49.04473114013672 203.38674926757812 47.2784309387207 105.84596252441406 C 38.60276412963867 121.73949432373047 -4.88783073425293 172.9726104736328 -1.247435450553894 279.1320495605469 C 62.58952713012695 278.9364929199219 40.75305938720703 155.75982666015625 48.72677993774414 103.6401596069336 C 85.68594360351562 59.17012405395508 135.12640380859375 10.383482933044434 237.44984436035156 -0.03066004067659378 C 30.442338943481445 105.33531951904297 99.00179290771484 98.37548828125 84.59932708740234 95.27809143066406" fill="rgb(5, 2, 2)" opacity="1.0" stroke-width="2.0"/>
    <path d="M 350.1144714355469 188.46844482421875 C 371.922119140625 177.47964477539062 349.95904541015625 175.5201873779297 382.8659973144531 219.09523010253906 C 366.2608642578125 224.51864624023438 316.0195007324219 191.49659729003906 358.77581787109375 145.8313446044922 C 415.95538330078125 136.87399291992188 354.6926574707031 165.33436584472656 362.7256164550781 181.34164428710938 C 412.2520446777344 149.720947265625 392.96490478515625 167.92689514160156 410.74700927734375 208.47415161132812 C 425.3980712890625 139.6897735595703 404.05224609375 156.87242126464844 350.1144714355469 188.46844482421875" fill="rgb(3, 2, 3)" opacity="1.0" stroke-width="2.0"/>
    <path d="M 308.28021240234375 -1.271198034286499 C 294.3489990234375 132.0801544189453 292.6371154785156 161.562744140625 307.3968200683594 3.5624196529388428 C 425.04595947265625 39.06416320800781 466.7466125488281 86.7738037109375 506.3445739746094 190.31991577148438 C 290.8688659667969 107.58871459960938 338.7118225097656 90.88541412353516 308.28021240234375 -1.271198034286499" fill="rgb(179, 159, 80)" opacity="1.0" stroke-width="2.0"/>
    <path d="M 294.9308776855469 174.28634643554688 C 298.39398193359375 187.14871215820312 299.5144348144531 187.99752807617188 291.37005615234375 156.0445098876953 C 293.44842529296875 145.60801696777344 281.55145263671875 167.5601043701172 289.4761962890625 145.00193786621094 C 298.0363464355469 186.3824462890625 299.4258117675781 186.9188690185547 299.9970397949219 186.4475860595703 C 287.6913757324219 169.4589080810547 309.5603332519531 172.00372314453125 293.33349609375 174.8399200439453 C 303.1940612792969 177.08702087402344 310.95599365234375 183.24945068359375 294.9308776855469 174.28634643554688" fill="rgb(255, 186, 109)" opacity="1.0" stroke-width="2.0"/>
    <path d="M 21.554935455322266 283.69903564453125 C 42.314910888671875 405.76702880859375 94.0621109008789 395.9813537597656 63.375431060791016 427.7709655761719 C 73.1431884765625 387.78509521484375 62.100669860839844 401.1493835449219 108.29783630371094 440.29461669921875 C 162.24502563476562 478.579345703125 175.8125457763672 476.6659240722656 112.23493194580078 468.9587097167969 C 79.91777801513672 398.2583312988281 26.433340072631836 423.4927978515625 2.517102003097534 296.8067321777344 C -6.623647689819336 246.27548217773438 28.8875789642334 231.16770935058594 21.554935455322266 283.69903564453125" fill="rgb(2, 0, 1)" opacity="1.0" stroke-width="2.0"/>
    <path d="M 81.77783966064453 507.01153564453125 C 78.43971252441406 503.4266357421875 86.5799331665039 511.0174865722656 90.93494415283203 525.3020629882812 C 94.52188110351562 517.6515502929688 101.72225189208984 508.1275329589844 93.79706573486328 518.169189453125 C 101.24047088623047 507.4730529785156 96.19733428955078 514.0194702148438 94.27278137207031 518.0782470703125 C 92.38845825195312 508.1036682128906 90.49079132080078 523.9153442382812 90.91680145263672 516.9086303710938 C 83.31643676757812 528.8900146484375 95.08814239501953 524.2941284179688 81.77783966064453 507.01153564453125" fill="rgb(151, 179, 242)" opacity="1.0" stroke-width="2.0"/>
    <path d="M 50.172706604003906 412.9504699707031 C 85.16394805908203 441.52911376953125 51.83940887451172 426.5374755859375 19.010845184326172 355.17572021484375 C 44.791419982910156 366.3685302734375 79.12276458740234 402.8061218261719 110.73748016357422 467.648193359375 C 51.67643356323242 424.7666320800781 56.02092361450195 402.65020751953125 38.76505661010742 417.36480712890625 C 40.55683135986328 416.37152099609375 39.371150970458984 413.7199401855469 40.00003433227539 412.31268310546875 C 39.08076477050781 421.5381774902344 39.73361587524414 411.8526611328125 50.172706604003906 412.9504699707031" fill="rgb(1, 0, 1)" opacity="1.0" stroke-width="2.0"/>
    <path d="M 241.57518005371094 -1.905815601348877 C 48.52837371826172 97.05718994140625 -12.877750396728516 156.22869873046875 233.07994079589844 86.1888656616211 C 247.4789581298828 208.37637329101562 82.57928466796875 215.22642517089844 63.5392951965332 116.404052734375 C 283.2398376464844 119.15045928955078 295.5281677246094 -21.744686126708984 241.57518005371094 -1.905815601348877" fill="rgb(220, 194, 95)" opacity="1.0" stroke-width="2.0"/>
    <path d="M 148.54994201660156 466.84967041015625 C 303.81341552734375 536.8535766601562 374.6186218261719 433.36273193359375 365.3869934082031 488.21881103515625 C 273.09564208984375 529.4584350585938 226.16812133789062 499.8467102050781 272.587890625 519.51220703125 C 187.61326599121094 500.54522705078125 176.60133361816406 514.9738159179688 145.67123413085938 464.1999206542969 C 135.0091552734375 487.8455505371094 170.14895629882812 507.6313171386719 148.54994201660156 466.84967041015625" fill="rgb(1, 1, 1)" opacity="1.0" stroke-width="2.0"/>
    <path d="M 177.8270263671875 410.6384582519531 C 41.198402404785156 413.9518737792969 58.7171745300293 379.12847900390625 38.69965362548828 343.283203125 C 12.238283157348633 301.45440673828125 8.645791053771973 181.4386444091797 66.10618591308594 121.24984741210938 C 177.68528747558594 133.94691467285156 188.83351135253906 135.71351623535156 177.8270263671875 410.6384582519531" fill="rgb(252, 214, 108)" opacity="1.0" stroke-width="2.0"/>
    <path d="M 475.1766052246094 123.53758239746094 C 525.8141479492188 210.4549560546875 514.0462036132812 277.2309875488281 503.87335205078125 324.81842041015625 C 494.2325744628906 262.7133483886719 493.34393310546875 224.125732421875 489.73553466796875 293.697509765625 C 465.6345520019531 398.9642028808594 429.3601379394531 394.7680969238281 473.6855163574219 378.55755615234375 C 519.4747314453125 308.44989013671875 503.7978820800781 361.98486328125 475.1766052246094 123.53758239746094" fill="rgb(0, 0, 4)" opacity="1.0" stroke-width="2.0"/>
    <path d="M 65.03034973144531 38.49210739135742 C 75.92179107666016 51.83676528930664 72.65515899658203 44.8173713684082 65.3954086303711 47.25004577636719 C 69.92228698730469 45.13731384277344 76.49324798583984 50.356510162353516 67.86730194091797 41.88290786743164 C 79.92313385009766 52.98579025268555 75.98783874511719 57.256996154785156 75.92731475830078 59.83652114868164 C 74.61927795410156 60.098968505859375 81.51962280273438 53.80604934692383 68.47978973388672 43.03890609741211 C 67.56351470947266 41.223365783691406 78.62542724609375 54.51576614379883 65.03034973144531 38.49210739135742" fill="rgb(255, 137, 103)" opacity="1.0" stroke-width="2.0"/>
    <path d="M 497.9986877441406 342.5022277832031 C 501.3876647949219 329.00286865234375 490.2790222167969 373.53350830078125 460.1550598144531 410.9747314453125 C 432.7818908691406 450.14093017578125 353.56524658203125 512.3116455078125 325.4306335449219 485.950439453125 C 492.5763244628906 408.9465637207031 452.9634704589844 324.34661865234375 497.9986877441406 342.5022277832031" fill="rgb(2, 0, 1)" opacity="1.0" stroke-width="2.0"/>
  </g>
</svg>
