<?xml version="1.0" ?>
<svg height="512" version="1.1" width="512" xmlns="http://www.w3.org/2000/svg">
  <defs/>
  <g>
    <path d="M 58.52598190307617 50.07210159301758 C 59.727455139160156 49.2972412109375 54.81507873535156 53.51819610595703 54.200191497802734 54.0340690612793 C 37.0388069152832 68.89701843261719 31.34259796142578 73.13436889648438 32.109622955322266 72.23847198486328 C 36.98515701293945 71.50562286376953 27.335182189941406 73.64704895019531 38.084014892578125 68.68521881103516 C 30.627765655517578 71.49213409423828 22.164932250976562 81.88468170166016 58.52598190307617 50.07210159301758" fill="rgb(255, 69, 131)" opacity="1.0" stroke-width="2.0"/>
    <path d="M 184.66021728515625 503.6864013671875 C 152.30885314941406 442.2674865722656 70.94413757324219 440.47515869140625 100.96796417236328 460.771240234375 C 154.2723388671875 496.454345703125 143.01797485351562 483.8111572265625 91.8156967163086 466.7451477050781 C 63.98530960083008 468.92193603515625 74.36521911621094 468.3160705566406 92.25917053222656 466.50048828125 C 85.74874114990234 465.9775695800781 75.7022476196289 458.3438415527344 184.66021728515625 503.6864013671875" fill="rgb(4, 30, 2)" opacity="1.0" stroke-width="2.0"/>
    <path d="M 107.05813598632812 449.78350830078125 C 132.43104553222656 203.133056640625 165.66831970214844 217.4999542236328 172.64735412597656 185.94422912597656 C 183.6488800048828 182.4779052734375 201.8385467529297 193.18136596679688 438.6449279785156 200.85777282714844 C 442.7252502441406 425.2646179199219 430.71881103515625 427.33001708984375 420.33648681640625 472.03155517578125 C 135.7847900390625 468.8575439453125 127.00057983398438 472.20318603515625 107.05813598632812 449.78350830078125" fill="rgb(251, 219, 109)" opacity="1.0" stroke-width="2.0"/>
    <path d="M 422.50872802734375 181.36434936523438 C 419.48724365234375 217.2901153564453 380.049072265625 230.24844360351562 357.21807861328125 210.80477905273438 C 359.1708679199219 209.1902313232422 363.01385498046875 221.04653930664062 365.8558349609375 225.16940307617188 C 356.19793701171875 209.16317749023438 347.2586669921875 180.36856079101562 374.9875183105469 199.02122497558594 C 407.7942199707031 208.1385955810547 401.43621826171875 153.6845703125 422.50872802734375 181.36434936523438" fill="rgb(3, 2, 2)" opacity="1.0" stroke-width="2.0"/>
    <path d="M 241.09495544433594 214.6244659423828 C 219.6349639892578 216.4620819091797 184.42881774902344 234.5508270263672 179.54049682617188 191.2930908203125 C 244.50701904296875 177.50010681152344 217.5906524658203 211.21823120117188 275.7168273925781 206.33087158203125 C 342.0603332519531 190.53297424316406 359.4861145019531 252.0404510498047 367.45233154296875 131.5374298095703 C 190.2891387939453 102.8299789428711 211.68116760253906 115.87583923339844 241.09495544433594 214.6244659423828" fill="rgb(156, 105, 65)" opacity="1.0" stroke-width="2.0"/>
    <path d="M 410.9991455078125 151.28463745117188 C 430.86431884765625 176.37452697753906 418.2552490234375 186.5810546875 420.5294494628906 195.52981567382812 C 410.4187316894531 180.48794555664062 409.3290710449219 146.9863739013672 346.3888244628906 165.84849548339844 C 341.4985046386719 164.56105041503906 371.2204895019531 118.14302062988281 410.9991455078125 151.28463745117188" fill="rgb(3, 2, 2)" opacity="1.0" stroke-width="2.0"/>
    <path d="M 268.89373779296875 8.200329780578613 C 371.23834228515625 23.34593963623047 340.2673034667969 127.21287536621094 262.83441162109375 177.4467010498047 C 212.0921630859375 126.90093994140625 188.11367797851562 11.342120170593262 245.8267364501953 -23.411191940307617 C 341.4699401855469 107.53897094726562 312.5780334472656 148.14993286132812 284.5218811035156 157.02215576171875 C 259.864013671875 179.73284912109375 254.05552673339844 226.3453369140625 348.0799255371094 244.62637329101562 C 366.5572814941406 133.46365356445312 329.8709411621094 124.95790100097656 268.89373779296875 8.200329780578613" fill="rgb(251, 221, 107)" opacity="1.0" stroke-width="2.0"/>
    <path d="M 76.95072937011719 102.18966674804688 C 22.255582809448242 168.95919799804688 44.164825439453125 197.02732849121094 47.315799713134766 105.3087387084961 C 38.5576286315918 123.53240966796875 -3.1547205448150635 169.51031494140625 -0.7788137197494507 272.8638000488281 C 61.50584411621094 271.9612731933594 35.27153778076172 150.36302185058594 49.79543685913086 102.22352600097656 C 93.09224700927734 52.08123016357422 122.3427734375 29.38328742980957 182.27072143554688 10.890974044799805 C 42.25514221191406 130.65731811523438 72.052001953125 104.02204895019531 76.95072937011719 102.18966674804688" fill="rgb(4, 0, 1)" opacity="1.0" stroke-width="2.0"/>
    <path d="M 349.4716796875 188.70680236816406 C 369.197509765625 178.98684692382812 352.87115478515625 176.82406616210938 383.2987365722656 219.65792846679688 C 367.4620056152344 221.99195861816406 331.01654052734375 202.50669860839844 345.723876953125 162.9478302001953 C 408.9781494140625 143.78652954101562 350.69659423828125 169.35739135742188 363.38848876953125 181.38064575195312 C 414.79071044921875 148.32083129882812 391.68017578125 170.71986389160156 411.20379638671875 207.73184204101562 C 423.4356384277344 136.0598907470703 407.5052490234375 157.8244171142578 349.4716796875 188.70680236816406" fill="rgb(2, 0, 2)" opacity="1.0" stroke-width="2.0"/>
    <path d="M 309.5045471191406 -0.7433115243911743 C 287.7118225097656 142.72802734375 297.8050537109375 178.8170166015625 298.552978515625 10.962056159973145 C 435.6444396972656 35.854331970214844 451.42926025390625 48.200809478759766 452.62109375 138.2435760498047 C 261.26708984375 148.7024688720703 317.51708984375 143.5609893798828 309.5045471191406 -0.7433115243911743" fill="rgb(207, 181, 95)" opacity="1.0" stroke-width="2.0"/>
    <path d="M 294.4139099121094 173.8789825439453 C 297.7877197265625 187.68533325195312 299.54290771484375 188.003173828125 289.32098388671875 156.72802734375 C 298.3800048828125 145.5833740234375 287.82293701171875 166.32659912109375 287.5469665527344 146.119384765625 C 296.5719299316406 187.8040771484375 299.7717590332031 186.44029235839844 299.296630859375 187.27267456054688 C 288.0365905761719 168.82679748535156 311.1687316894531 171.58660888671875 293.41839599609375 175.16156005859375 C 303.5419921875 177.12461853027344 311.1042175292969 183.36050415039062 294.4139099121094 173.8789825439453" fill="rgb(255, 179, 110)" opacity="1.0" stroke-width="2.0"/>
    <path d="M 20.925827026367188 285.6340026855469 C 46.42598342895508 413.0430603027344 91.99202728271484 393.44732666015625 67.67054748535156 421.52301025390625 C 69.17338562011719 392.1398010253906 64.75006866455078 399.9920654296875 100.56031036376953 433.88916015625 C 141.9451904296875 460.6101989746094 140.93617248535156 482.01513671875 108.64906311035156 466.3387145996094 C 78.43891906738281 396.7740478515625 29.321361541748047 428.4491882324219 3.0555858612060547 299.6620178222656 C -10.008369445800781 252.82350158691406 30.597000122070312 237.32208251953125 20.925827026367188 285.6340026855469" fill="rgb(4, 1, 1)" opacity="1.0" stroke-width="2.0"/>
    <path d="M 81.72554016113281 506.8505859375 C 78.49742889404297 503.19342041015625 86.56156921386719 510.9370422363281 90.9051284790039 525.2679443359375 C 94.55062103271484 517.5056762695312 101.77977752685547 507.8412170410156 93.70094299316406 517.55810546875 C 101.19302368164062 507.6000061035156 96.18391418457031 514.086669921875 94.26769256591797 518.093505859375 C 92.38845825195312 508.1036682128906 90.49079132080078 523.9153442382812 90.8762435913086 516.9197387695312 C 83.09225463867188 529.10693359375 94.84286499023438 524.5211791992188 81.72554016113281 506.8505859375" fill="rgb(150, 178, 241)" opacity="1.0" stroke-width="2.0"/>
    <path d="M 49.226776123046875 412.037841796875 C 83.23466491699219 439.2514953613281 54.39586639404297 430.2195129394531 18.802175521850586 355.389892578125 C 48.10786437988281 363.16845703125 76.55377197265625 403.6551208496094 108.94694519042969 466.4696350097656 C 50.419654846191406 422.6229248046875 54.71035385131836 403.2358093261719 41.12218475341797 415.9149475097656 C 40.57958984375 419.7085876464844 42.16883850097656 413.994140625 42.77939224243164 411.32318115234375 C 40.92055130004883 420.8171081542969 41.01268768310547 412.70672607421875 49.226776123046875 412.037841796875" fill="rgb(1, 1, 1)" opacity="1.0" stroke-width="2.0"/>
    <path d="M 220.5677032470703 -16.73749542236328 C 62.165863037109375 97.14510345458984 17.078445434570312 180.89974975585938 235.68630981445312 94.03504180908203 C 248.01426696777344 213.3643341064453 90.77839660644531 220.07821655273438 56.613346099853516 126.82325744628906 C 280.2920227050781 141.310791015625 281.3489074707031 4.606196880340576 220.5677032470703 -16.73749542236328" fill="rgb(211, 186, 94)" opacity="1.0" stroke-width="2.0"/>
    <path d="M 159.53244018554688 472.1450500488281 C 315.96136474609375 530.591796875 360.77398681640625 435.7060546875 360.6949157714844 491.20477294921875 C 260.8247985839844 526.9898681640625 234.03726196289062 507.3360900878906 267.06866455078125 517.66064453125 C 194.95806884765625 502.35162353515625 179.38656616210938 515.0090942382812 151.60147094726562 467.76971435546875 C 143.74053955078125 491.6379089355469 168.8443603515625 508.79541015625 159.53244018554688 472.1450500488281" fill="rgb(5, 2, 3)" opacity="1.0" stroke-width="2.0"/>
    <path d="M 186.92066955566406 381.786865234375 C 25.145301818847656 382.12322998046875 35.12306594848633 362.90655517578125 42.83493423461914 323.3193359375 C 6.171348571777344 322.87811279296875 12.740299224853516 175.72434997558594 60.67300796508789 133.0321502685547 C 175.4830322265625 147.10482788085938 192.545654296875 139.52427673339844 186.92066955566406 381.786865234375" fill="rgb(253, 214, 108)" opacity="1.0" stroke-width="2.0"/>
    <path d="M 482.4967041015625 165.33595275878906 C 554.5896606445312 225.46551513671875 510.7602233886719 251.88584899902344 503.4722900390625 330.3089599609375 C 490.48724365234375 285.0721130371094 495.6224365234375 244.36993408203125 485.6457824707031 312.1072082519531 C 461.4034423828125 394.2613830566406 433.19342041015625 392.17578125 475.9997863769531 377.533935546875 C 522.0695190429688 307.8456726074219 492.9241943359375 363.36456298828125 482.4967041015625 165.33595275878906" fill="rgb(31, 20, 10)" opacity="1.0" stroke-width="2.0"/>
    <path d="M 63.4482421875 40.5859260559082 C 74.73745727539062 51.20228958129883 69.84821319580078 44.09987258911133 64.4909439086914 46.392459869384766 C 69.35689544677734 44.32266616821289 74.77371978759766 50.732295989990234 66.33980560302734 43.038272857666016 C 79.2215576171875 52.8150749206543 75.44671630859375 58.694541931152344 74.71674346923828 61.226165771484375 C 73.92939758300781 60.68960189819336 81.21652221679688 55.41440200805664 67.32660675048828 43.88666915893555 C 68.0177230834961 43.30351257324219 80.48394775390625 56.16518020629883 63.4482421875 40.5859260559082" fill="rgb(255, 135, 101)" opacity="1.0" stroke-width="2.0"/>
    <path d="M 484.8221740722656 344.8895568847656 C 505.1407470703125 336.4938659667969 488.34716796875 371.0617370605469 460.5556945800781 410.8125915527344 C 430.7559509277344 449.4872131347656 365.5089416503906 504.8289489746094 331.2690124511719 487.8048400878906 C 495.60198974609375 394.5740051269531 458.52154541015625 327.2059020996094 484.8221740722656 344.8895568847656" fill="rgb(7, 2, 2)" opacity="1.0" stroke-width="2.0"/>
  </g>
</svg>
