<?xml version="1.0" ?>
<svg height="512" version="1.1" width="512" xmlns="http://www.w3.org/2000/svg">
  <defs/>
  <g>
    <path d="M 58.93623733520508 48.70228576660156 C 61.749305725097656 48.6077766418457 54.145286560058594 53.22126388549805 52.44823455810547 53.28670120239258 C 37.0410270690918 68.73303985595703 25.666332244873047 74.57294464111328 32.24968338012695 75.71060180664062 C 27.908361434936523 69.27851867675781 24.453933715820312 73.78468322753906 41.666168212890625 71.02241516113281 C 30.700578689575195 69.84429168701172 21.253849029541016 81.32079315185547 58.93623733520508 48.70228576660156" fill="rgb(246, 51, 112)" opacity="1.0" stroke-width="2.0"/>
    <path d="M 145.6942901611328 476.00225830078125 C 139.72508239746094 464.38214111328125 114.55210876464844 470.919677734375 95.99602508544922 475.84368896484375 C 105.98978424072266 473.5672912597656 94.4990005493164 473.41094970703125 85.91851043701172 476.0335998535156 C 63.684356689453125 478.7159423828125 71.68157196044922 478.8535461425781 79.1091079711914 475.8439025878906 C 65.85309600830078 482.2699279785156 73.1679916381836 471.1361083984375 145.6942901611328 476.00225830078125" fill="rgb(73, 228, 45)" opacity="1.0" stroke-width="2.0"/>
    <path d="M 233.1581268310547 307.9209289550781 C 232.0646514892578 267.7763977050781 242.925048828125 277.1051940917969 245.72946166992188 266.8544006347656 C 252.36447143554688 266.8201599121094 250.65951538085938 261.1586608886719 299.4162292480469 259.161865234375 C 306.8080139160156 312.1939697265625 296.6761169433594 321.8180236816406 290.298583984375 330.15570068359375 C 244.17520141601562 321.9473876953125 234.53089904785156 326.9140625 233.1581268310547 307.9209289550781" fill="rgb(253, 224, 159)" opacity="1.0" stroke-width="2.0"/>
    <path d="M 427.2441101074219 207.48658752441406 C 401.5102233886719 217.94776916503906 386.4468688964844 222.6693878173828 364.47418212890625 219.7170867919922 C 357.58349609375 228.54891967773438 365.1967468261719 224.81455993652344 363.85662841796875 229.18931579589844 C 354.3928527832031 219.7989044189453 352.0248107910156 209.15785217285156 362.69647216796875 200.5577850341797 C 396.89410400390625 191.7357635498047 405.8033447265625 179.4370574951172 427.2441101074219 207.48658752441406" fill="rgb(124, 68, 94)" opacity="1.0" stroke-width="2.0"/>
    <path d="M 269.2693176269531 259.36822509765625 C 270.536865234375 243.4036102294922 270.9051208496094 231.18760681152344 266.4837646484375 245.0366973876953 C 276.3121337890625 232.1116180419922 278.76141357421875 232.92332458496094 299.2166442871094 248.85336303710938 C 308.567138671875 240.8681640625 300.5796203613281 240.7146759033203 306.3891296386719 208.64437866210938 C 291.2826232910156 203.76063537597656 302.5423583984375 224.68148803710938 269.2693176269531 259.36822509765625" fill="rgb(157, 220, 166)" opacity="1.0" stroke-width="2.0"/>
    <path d="M 411.8448486328125 147.13714599609375 C 410.4308776855469 165.18026733398438 404.71728515625 159.88784790039062 404.8639221191406 159.4936065673828 C 409.1591491699219 162.07916259765625 408.59808349609375 167.03073120117188 359.7755432128906 165.5511932373047 C 357.2391662597656 140.9876251220703 358.3492736816406 131.24635314941406 411.8448486328125 147.13714599609375" fill="rgb(15, 104, 9)" opacity="1.0" stroke-width="2.0"/>
    <path d="M 308.3016357421875 106.59236907958984 C 312.57000732421875 121.96981811523438 309.0711975097656 127.46636962890625 308.9516296386719 134.5603790283203 C 315.5828857421875 135.8382110595703 299.9040832519531 118.34363555908203 309.4204406738281 108.44588470458984 C 310.4854736328125 137.313720703125 307.5625305175781 148.8569793701172 307.0544128417969 155.01397705078125 C 309.111328125 156.2663116455078 307.8305969238281 169.2024688720703 304.4956970214844 169.2607879638672 C 310.51776123046875 158.0984649658203 308.1983642578125 162.96261596679688 308.3016357421875 106.59236907958984" fill="rgb(123, 109, 152)" opacity="1.0" stroke-width="2.0"/>
    <path d="M 73.15727996826172 111.09536743164062 C 67.75733947753906 149.25949096679688 58.84305191040039 142.9895782470703 43.09453201293945 120.54342651367188 C 24.794370651245117 117.17074584960938 14.144564628601074 155.29583740234375 20.631980895996094 168.11135864257812 C 71.93769073486328 161.35182189941406 63.998313903808594 145.296875 35.61249542236328 112.18672943115234 C 45.04391098022461 97.60370635986328 82.52931213378906 107.33370208740234 71.75138854980469 108.7232666015625 C 62.67919921875 137.68997192382812 83.44828796386719 150.32057189941406 73.15727996826172 111.09536743164062" fill="rgb(84, 157, 119)" opacity="1.0" stroke-width="2.0"/>
    <path d="M 338.6060485839844 194.1358642578125 C 358.82989501953125 184.92665100097656 381.63482666015625 185.74679565429688 365.0459899902344 213.4635467529297 C 347.13507080078125 209.9181365966797 342.1689758300781 219.3811798095703 340.4005432128906 175.55575561523438 C 373.42559814453125 178.7563934326172 377.4058532714844 184.94752502441406 378.53753662109375 179.56130981445312 C 380.5839538574219 176.52842712402344 384.9191589355469 173.86160278320312 423.6055908203125 188.6619415283203 C 414.7701110839844 156.19622802734375 402.3743896484375 171.37892150878906 338.6060485839844 194.1358642578125" fill="rgb(38, 152, 126)" opacity="1.0" stroke-width="2.0"/>
    <path d="M 321.2506103515625 102.09439086914062 C 318.57720947265625 128.50991821289062 321.6763916015625 138.18548583984375 323.5321044921875 114.7297592163086 C 327.9406433105469 119.48753356933594 316.6828918457031 129.3372344970703 324.366943359375 131.11785888671875 C 319.8112487792969 137.16163635253906 321.93792724609375 125.48624420166016 321.2506103515625 102.09439086914062" fill="rgb(255, 76, 108)" opacity="1.0" stroke-width="2.0"/>
    <path d="M 300.9492492675781 181.5182342529297 C 296.31134033203125 194.29603576660156 304.4142150878906 189.3103790283203 302.41094970703125 175.4751739501953 C 303.85260009765625 169.5084686279297 294.2969055175781 180.74813842773438 299.1520690917969 170.77447509765625 C 297.9696044921875 183.5235595703125 299.4073486328125 180.92628479003906 301.2383728027344 189.70790100097656 C 299.6492919921875 179.39466857910156 317.2515563964844 179.9617156982422 303.91217041015625 181.10105895996094 C 310.0311279296875 177.30718994140625 313.5860900878906 179.67735290527344 300.9492492675781 181.5182342529297" fill="rgb(184, 64, 94)" opacity="1.0" stroke-width="2.0"/>
    <path d="M 68.42035675048828 392.1472473144531 C 66.35546112060547 404.3575744628906 62.8409309387207 416.7444763183594 71.7972412109375 404.4323425292969 C 74.74520111083984 391.0773010253906 71.94995880126953 401.190185546875 80.56584167480469 401.65032958984375 C 91.28556823730469 427.6224670410156 93.14688873291016 440.1544494628906 61.257938385009766 430.5840148925781 C 64.3663101196289 412.1155090332031 51.59723663330078 421.2633056640625 34.02770233154297 384.3397216796875 C 46.970420837402344 373.74267578125 44.8011589050293 363.787353515625 68.42035675048828 392.1472473144531" fill="rgb(50, 195, 182)" opacity="1.0" stroke-width="2.0"/>
    <path d="M 81.61821746826172 505.028564453125 C 77.73389434814453 501.1819763183594 86.56497192382812 509.70111083984375 90.50699615478516 522.72216796875 C 92.2491455078125 513.5475463867188 101.3093032836914 503.3748779296875 99.07608032226562 504.41802978515625 C 101.27933502197266 502.905517578125 94.98823547363281 510.87884521484375 92.3141098022461 515.2857055664062 C 92.37773895263672 508.09051513671875 90.21331024169922 523.6057739257812 91.43429565429688 516.335205078125 C 83.57247924804688 528.8584594726562 95.23197174072266 524.3123168945312 81.61821746826172 505.028564453125" fill="rgb(140, 167, 227)" opacity="1.0" stroke-width="2.0"/>
    <path d="M 39.36912536621094 415.5485534667969 C 57.960548400878906 420.13983154296875 54.89177322387695 422.3094482421875 38.068809509277344 384.2235107421875 C 70.16374969482422 384.9895324707031 83.73595428466797 387.90155029296875 83.91593933105469 430.51141357421875 C 56.88474655151367 418.66302490234375 32.974609375 416.8714904785156 36.73075485229492 412.0233459472656 C 36.98060607910156 423.9996032714844 38.19813919067383 407.5464172363281 40.066226959228516 406.05487060546875 C 36.741119384765625 417.9447021484375 35.39805221557617 415.5063781738281 39.36912536621094 415.5485534667969" fill="rgb(57, 37, 76)" opacity="1.0" stroke-width="2.0"/>
    <path d="M 139.2996063232422 72.54375457763672 C 133.60006713867188 94.67601013183594 131.1107940673828 108.41309356689453 151.91452026367188 90.21063995361328 C 150.01878356933594 110.80559539794922 140.43234252929688 116.30772399902344 145.0222625732422 100.43417358398438 C 160.60719299316406 113.65536499023438 152.02569580078125 127.29371643066406 139.2996063232422 72.54375457763672" fill="rgb(255, 112, 143)" opacity="1.0" stroke-width="2.0"/>
    <path d="M 197.2503204345703 468.3041687011719 C 235.34486389160156 481.0486145019531 247.93588256835938 469.37786865234375 255.5499267578125 511.2436218261719 C 248.1135711669922 514.2861938476562 234.0844268798828 517.7954711914062 223.07737731933594 527.9503784179688 C 204.7352294921875 518.1061401367188 196.2126007080078 520.8707885742188 186.99636840820312 480.0876770019531 C 180.31040954589844 511.2141418457031 187.43197631835938 518.78369140625 197.2503204345703 468.3041687011719" fill="rgb(134, 76, 48)" opacity="1.0" stroke-width="2.0"/>
    <path d="M 144.2117156982422 254.9869842529297 C 135.09979248046875 240.86927795410156 134.59262084960938 241.30149841308594 145.95819091796875 241.7115936279297 C 131.18223571777344 240.582763671875 123.37653350830078 231.060546875 138.41812133789062 239.6935272216797 C 126.7707748413086 239.1968994140625 132.71546936035156 220.7358856201172 144.2117156982422 254.9869842529297" fill="rgb(122, 245, 190)" opacity="1.0" stroke-width="2.0"/>
    <path d="M 478.9228820800781 287.2299499511719 C 518.2999267578125 288.013916015625 514.2704467773438 291.7096252441406 502.1284484863281 325.25823974609375 C 495.32647705078125 327.3802795410156 490.0841979980469 297.4555358886719 473.61474609375 327.7331848144531 C 476.978271484375 351.95599365234375 478.83123779296875 344.2908020019531 494.972900390625 348.1006774902344 C 514.9202270507812 316.3331298828125 488.81976318359375 331.7970275878906 478.9228820800781 287.2299499511719" fill="rgb(35, 93, 191)" opacity="1.0" stroke-width="2.0"/>
    <path d="M 60.283485412597656 40.303287506103516 C 69.9184341430664 48.53650665283203 78.3912124633789 39.37833786010742 61.702266693115234 47.32544708251953 C 68.02143859863281 43.04304504394531 76.58560943603516 47.77132034301758 67.30448150634766 39.12998962402344 C 81.03144073486328 56.28779602050781 78.11801147460938 55.89885711669922 74.18403625488281 62.32595443725586 C 71.75193786621094 64.63381958007812 81.51981353759766 52.818912506103516 72.93878936767578 47.45719909667969 C 69.45844268798828 52.751708984375 83.53703308105469 56.894317626953125 60.283485412597656 40.303287506103516" fill="rgb(254, 121, 88)" opacity="1.0" stroke-width="2.0"/>
    <path d="M 496.6657409667969 375.648193359375 C 481.0516357421875 365.8368225097656 482.819091796875 381.962646484375 468.2575988769531 399.2248229980469 C 463.16290283203125 416.6356506347656 449.2151794433594 416.1244812011719 438.6921081542969 412.046142578125 C 441.2254638671875 368.18939208984375 471.325927734375 354.6199645996094 496.6657409667969 375.648193359375" fill="rgb(133, 21, 15)" opacity="1.0" stroke-width="2.0"/>
  </g>
</svg>
