<?xml version="1.0" ?>
<svg height="512" version="1.1" width="512" xmlns="http://www.w3.org/2000/svg">
  <defs/>
  <g>
    <path d="M 58.6583366394043 50.63653564453125 C 58.91594314575195 50.100345611572266 54.7626838684082 54.089027404785156 54.32465744018555 54.3454475402832 C 37.0223503112793 68.8405990600586 32.03030776977539 73.45089721679688 33.25617980957031 72.74981689453125 C 34.65880584716797 70.34524536132812 30.093523025512695 75.0894546508789 38.08781814575195 68.89762878417969 C 33.03651428222656 72.55603790283203 21.76528549194336 81.07916259765625 58.6583366394043 50.63653564453125" fill="rgb(255, 76, 139)" opacity="1.0" stroke-width="2.0"/>
    <path d="M 182.6479949951172 502.8048095703125 C 157.616455078125 441.16766357421875 76.76677703857422 438.2176818847656 107.54310607910156 465.3810729980469 C 156.81259155273438 497.0760192871094 156.01890563964844 489.4242858886719 89.70368957519531 467.3700866699219 C 66.31050872802734 467.0994567871094 78.00402069091797 467.2744140625 88.39958190917969 467.16796875 C 89.14482879638672 468.1793212890625 74.9527359008789 459.4558410644531 182.6479949951172 502.8048095703125" fill="rgb(1, 2, 1)" opacity="1.0" stroke-width="2.0"/>
    <path d="M 67.830810546875 412.616455078125 C 114.02119445800781 184.45799255371094 160.04864501953125 210.43453979492188 196.69735717773438 156.79913330078125 C 189.023193359375 182.38800048828125 203.08616638183594 216.31442260742188 496.22906494140625 159.6597442626953 C 496.9524230957031 468.86541748046875 452.4871826171875 391.6946716308594 365.9648132324219 485.2086486816406 C 153.03863525390625 504.84295654296875 155.16978454589844 480.3153381347656 67.830810546875 412.616455078125" fill="rgb(252, 220, 110)" opacity="1.0" stroke-width="2.0"/>
    <path d="M 422.2333679199219 180.22976684570312 C 420.8111572265625 216.62197875976562 380.38421630859375 230.93515014648438 356.8319396972656 210.63743591308594 C 359.5926818847656 207.80433654785156 362.9872741699219 219.50955200195312 365.91754150390625 224.49249267578125 C 356.60394287109375 206.93844604492188 347.051513671875 173.98043823242188 372.9993591308594 198.24520874023438 C 413.98187255859375 209.4761199951172 394.6439514160156 151.8548126220703 422.2333679199219 180.22976684570312" fill="rgb(2, 1, 3)" opacity="1.0" stroke-width="2.0"/>
    <path d="M 248.91567993164062 196.77743530273438 C 233.4825897216797 238.6920623779297 139.81361389160156 227.0921173095703 186.74868774414062 130.1324920654297 C 205.39697265625 231.0467529296875 181.82589721679688 195.81375122070312 293.31494140625 181.83705139160156 C 340.82672119140625 178.49923706054688 359.85626220703125 243.18646240234375 356.47161865234375 141.56130981445312 C 160.19044494628906 116.83417510986328 183.4344482421875 122.76242065429688 248.91567993164062 196.77743530273438" fill="rgb(12, 13, 12)" opacity="1.0" stroke-width="2.0"/>
    <path d="M 410.90228271484375 151.73428344726562 C 430.51959228515625 172.95684814453125 418.6236877441406 192.2582550048828 417.26220703125 199.0484619140625 C 396.6336364746094 178.23008728027344 404.3320007324219 140.9820556640625 350.9412536621094 171.8458251953125 C 338.70257568359375 163.51470947265625 374.1161804199219 118.31548309326172 410.90228271484375 151.73428344726562" fill="rgb(3, 2, 1)" opacity="1.0" stroke-width="2.0"/>
    <path d="M 288.3067321777344 10.515605926513672 C 401.9686279296875 31.22740364074707 348.73126220703125 112.3635025024414 251.7810821533203 160.4845428466797 C 183.30557250976562 113.6370620727539 173.53225708007812 32.51739501953125 236.3931427001953 -6.449958801269531 C 407.2488708496094 42.71733856201172 359.4440002441406 96.74604034423828 260.02349853515625 156.82020568847656 C 239.4616241455078 154.02206420898438 251.2818145751953 242.83493041992188 340.54840087890625 223.18157958984375 C 425.1114501953125 71.09790802001953 382.6282043457031 60.10671615600586 288.3067321777344 10.515605926513672" fill="rgb(252, 222, 109)" opacity="1.0" stroke-width="2.0"/>
    <path d="M 84.71466827392578 94.34618377685547 C 24.021976470947266 159.8338165283203 48.42280197143555 210.33877563476562 47.448089599609375 106.1427230834961 C 38.602474212646484 120.93177795410156 -5.672830581665039 175.3018341064453 -0.7934221029281616 279.0302429199219 C 55.92375183105469 279.1163635253906 43.73967361450195 158.35427856445312 48.05786895751953 106.17131042480469 C 75.0069808959961 65.79427337646484 163.3521270751953 -17.084440231323242 281.2158203125 5.145383358001709 C 26.065031051635742 65.74364471435547 147.30484008789062 97.1517562866211 84.71466827392578 94.34618377685547" fill="rgb(3, 2, 2)" opacity="1.0" stroke-width="2.0"/>
    <path d="M 350.425537109375 188.4541015625 C 372.2688903808594 176.58236694335938 350.4917297363281 178.822509765625 379.60498046875 209.4645233154297 C 361.90301513671875 236.00596618652344 312.74798583984375 173.11380004882812 366.5398864746094 142.4296875 C 422.2937316894531 130.36500549316406 355.0559387207031 163.5819549560547 362.4779357910156 180.95323181152344 C 415.0127868652344 151.8017578125 392.8280334472656 162.33181762695312 408.6866149902344 208.7341766357422 C 426.78070068359375 144.5078582763672 401.2264709472656 157.61155700683594 350.425537109375 188.4541015625" fill="rgb(1, 1, 1)" opacity="1.0" stroke-width="2.0"/>
    <path d="M 312.1126403808594 25.953977584838867 C 294.7330627441406 128.61952209472656 291.2912902832031 159.1976318359375 314.3957824707031 7.724160194396973 C 410.06036376953125 27.717721939086914 477.759033203125 98.89371490478516 503.3467102050781 189.53565979003906 C 319.618896484375 140.7591552734375 395.4873962402344 60.66658020019531 312.1126403808594 25.953977584838867" fill="rgb(171, 152, 77)" opacity="1.0" stroke-width="2.0"/>
    <path d="M 295.31927490234375 174.36849975585938 C 298.7931823730469 187.29669189453125 299.7256164550781 188.0753173828125 293.3262634277344 149.86605834960938 C 280.57257080078125 137.53115844726562 265.3380432128906 158.055419921875 292.5962829589844 132.6042938232422 C 298.70538330078125 185.8633270263672 298.7402648925781 186.88743591308594 300.15106201171875 186.16012573242188 C 288.10577392578125 169.5809783935547 308.7196044921875 172.0090789794922 293.97723388671875 174.82461547851562 C 302.9453125 177.0406494140625 310.9867858886719 183.0900115966797 295.31927490234375 174.36849975585938" fill="rgb(253, 212, 109)" opacity="1.0" stroke-width="2.0"/>
    <path d="M 21.99917984008789 284.3797302246094 C 41.67262268066406 403.8200378417969 94.03260803222656 397.6048583984375 64.0179443359375 426.6335144042969 C 73.64788055419922 387.16778564453125 60.89482498168945 401.547119140625 110.52771759033203 441.6102600097656 C 161.33441162109375 480.7482604980469 182.73521423339844 470.04437255859375 112.3940658569336 469.0686340332031 C 81.094970703125 399.595947265625 25.148944854736328 419.7525634765625 2.7371466159820557 297.1690979003906 C -6.368277549743652 245.9037628173828 25.627901077270508 231.20008850097656 21.99917984008789 284.3797302246094" fill="rgb(2, 1, 1)" opacity="1.0" stroke-width="2.0"/>
    <path d="M 81.18392944335938 508.0811462402344 C 77.73252868652344 504.9150390625 85.8076171875 512.1642456054688 90.33381652832031 526.1466674804688 C 94.52173614501953 517.6522216796875 101.721923828125 508.1291809082031 93.79763793945312 518.1727294921875 C 101.24073028564453 507.472412109375 96.19739532470703 514.019287109375 94.27278137207031 518.0782470703125 C 92.38845825195312 508.1036682128906 90.49079132080078 523.9153442382812 90.93435668945312 516.9039306640625 C 83.33406829833984 528.9061279296875 94.70246124267578 524.7979736328125 81.18392944335938 508.0811462402344" fill="rgb(152, 180, 244)" opacity="1.0" stroke-width="2.0"/>
    <path d="M 50.98469924926758 413.8106994628906 C 86.05806732177734 443.1978454589844 49.142398834228516 423.3712158203125 19.001197814941406 354.61151123046875 C 43.35823059082031 367.71142578125 80.02326965332031 402.7486572265625 110.88811492919922 467.69244384765625 C 52.4665641784668 426.2935485839844 56.68402099609375 402.0021667480469 37.52772521972656 417.76885986328125 C 42.208003997802734 414.24224853515625 38.601993560791016 418.31317138671875 39.4581298828125 412.9680480957031 C 38.98741149902344 420.9123229980469 41.52727127075195 410.40667724609375 50.98469924926758 413.8106994628906" fill="rgb(1, 0, 1)" opacity="1.0" stroke-width="2.0"/>
    <path d="M 249.21151733398438 13.842473983764648 C 46.02146530151367 60.276939392089844 11.381874084472656 178.74761962890625 233.87054443359375 82.29749298095703 C 248.39561462402344 190.16534423828125 74.47016906738281 185.72225952148438 63.55342102050781 121.59925079345703 C 280.4306335449219 118.38645935058594 296.21710205078125 -11.031466484069824 249.21151733398438 13.842473983764648" fill="rgb(243, 212, 104)" opacity="1.0" stroke-width="2.0"/>
    <path d="M 147.2306671142578 466.1006164550781 C 300.8324890136719 537.9989013671875 380.53277587890625 432.0796813964844 367.1888427734375 487.3217468261719 C 279.6811828613281 528.7845458984375 220.435546875 501.4603271484375 277.5986022949219 519.1198120117188 C 189.43194580078125 502.18182373046875 175.2439727783203 513.6499633789062 145.71795654296875 464.3477478027344 C 135.05152893066406 487.0816955566406 172.31504821777344 506.8044738769531 147.2306671142578 466.1006164550781" fill="rgb(1, 0, 1)" opacity="1.0" stroke-width="2.0"/>
    <path d="M 170.9099884033203 416.1800537109375 C 51.92006301879883 420.7431640625 62.915489196777344 385.07110595703125 40.115013122558594 350.876953125 C 11.177095413208008 285.9949951171875 6.34812068939209 189.118408203125 74.9374008178711 104.53401184082031 C 182.8301544189453 121.4649658203125 185.4805145263672 131.05206298828125 170.9099884033203 416.1800537109375" fill="rgb(252, 214, 108)" opacity="1.0" stroke-width="2.0"/>
    <path d="M 458.64105224609375 99.2213363647461 C 531.8663330078125 192.09249877929688 510.416259765625 296.7683410644531 505.8924560546875 312.9165954589844 C 498.5031433105469 249.07861328125 489.3136901855469 210.8445281982422 492.006103515625 275.7901306152344 C 474.1297302246094 397.7457275390625 425.5488586425781 393.9811706542969 471.49163818359375 379.811767578125 C 516.5330810546875 310.5719299316406 520.19677734375 343.37420654296875 458.64105224609375 99.2213363647461" fill="rgb(1, 1, 1)" opacity="1.0" stroke-width="2.0"/>
    <path d="M 66.50602722167969 37.64392852783203 C 77.10299682617188 51.37492752075195 71.3076171875 44.94960021972656 65.58643341064453 46.85770034790039 C 71.04204559326172 45.284446716308594 76.17212677001953 49.56542205810547 67.75782012939453 42.253173828125 C 80.40475463867188 52.35789108276367 76.01881408691406 59.49565505981445 78.90880584716797 58.3821907043457 C 76.26708221435547 58.54723358154297 80.49945068359375 54.5515251159668 68.76463317871094 42.43025588989258 C 68.15269470214844 41.67048645019531 78.81698608398438 54.21166229248047 66.50602722167969 37.64392852783203" fill="rgb(255, 139, 105)" opacity="1.0" stroke-width="2.0"/>
    <path d="M 499.76287841796875 337.1776123046875 C 500.9552917480469 329.7096252441406 491.05157470703125 372.4315185546875 459.65032958984375 411.9429626464844 C 432.34490966796875 450.776123046875 349.6070861816406 515.1251831054688 324.48455810546875 484.6389465332031 C 485.79388427734375 417.8598327636719 457.1466064453125 321.04095458984375 499.76287841796875 337.1776123046875" fill="rgb(1, 0, 1)" opacity="1.0" stroke-width="2.0"/>
  </g>
</svg>
