<?xml version="1.0" ?>
<svg height="512" version="1.1" width="512" xmlns="http://www.w3.org/2000/svg">
  <defs/>
  <g>
    <path d="M 58.579811096191406 50.1785888671875 C 59.65602111816406 49.46004104614258 54.913787841796875 53.663787841796875 54.187442779541016 54.03010177612305 C 36.85084533691406 68.71116638183594 31.265731811523438 73.05846405029297 31.925060272216797 72.23632049560547 C 36.18818664550781 71.70207977294922 27.545047760009766 73.77169799804688 38.135009765625 68.54084777832031 C 31.052812576293945 71.73941802978516 22.07063865661621 81.71809387207031 58.579811096191406 50.1785888671875" fill="rgb(255, 70, 132)" opacity="1.0" stroke-width="2.0"/>
    <path d="M 183.40310668945312 502.82379150390625 C 156.4241485595703 441.5374450683594 73.78766632080078 439.6500549316406 103.13580322265625 462.0815124511719 C 155.9664306640625 497.00921630859375 146.47494506835938 485.77899169921875 91.42547607421875 466.8610534667969 C 64.1961669921875 467.2845153808594 74.7144546508789 467.2646789550781 91.92423248291016 467.31402587890625 C 86.45088958740234 466.2985534667969 75.55645751953125 458.481201171875 183.40310668945312 502.82379150390625" fill="rgb(0, 16, 1)" opacity="1.0" stroke-width="2.0"/>
    <path d="M 88.60307312011719 435.28179931640625 C 121.7651596069336 193.5760498046875 163.98751831054688 216.9326629638672 173.43914794921875 180.28643798828125 C 183.96046447753906 181.71730041503906 197.49774169921875 200.4878387451172 467.7152404785156 179.42527770996094 C 467.9092102050781 442.214599609375 445.7912292480469 424.37200927734375 407.9897766113281 486.1698913574219 C 140.14503479003906 490.44134521484375 137.50558471679688 479.0838623046875 88.60307312011719 435.28179931640625" fill="rgb(252, 219, 111)" opacity="1.0" stroke-width="2.0"/>
    <path d="M 422.4352722167969 181.1212921142578 C 419.56512451171875 217.07164001464844 379.7500915527344 230.64495849609375 357.68157958984375 210.7190704345703 C 358.95294189453125 208.8216094970703 363.08880615234375 220.38560485839844 365.7322082519531 225.12606811523438 C 356.2971496582031 208.46859741210938 347.1534729003906 178.4797821044922 373.9654541015625 198.60140991210938 C 410.0520935058594 209.57623291015625 398.73895263671875 153.29400634765625 422.4352722167969 181.1212921142578" fill="rgb(2, 1, 2)" opacity="1.0" stroke-width="2.0"/>
    <path d="M 239.83189392089844 208.03514099121094 C 225.08892822265625 227.01351928710938 190.25013732910156 230.48924255371094 165.37159729003906 178.60028076171875 C 240.15777587890625 200.1263885498047 222.78530883789062 222.0335693359375 276.85418701171875 184.5310516357422 C 340.9017639160156 180.00552368164062 360.4922790527344 244.32449340820312 367.9821472167969 131.71334838867188 C 185.84286499023438 103.59117126464844 205.5034942626953 117.27291107177734 239.83189392089844 208.03514099121094" fill="rgb(74, 35, 28)" opacity="1.0" stroke-width="2.0"/>
    <path d="M 410.5852966308594 151.49497985839844 C 431.06793212890625 175.2509002685547 417.8186950683594 188.06103515625 419.48931884765625 195.3402557373047 C 408.5523986816406 180.34593200683594 408.4102478027344 146.0870819091797 346.5130310058594 166.6376190185547 C 340.1460876464844 164.2501678466797 372.7829284667969 118.2428207397461 410.5852966308594 151.49497985839844" fill="rgb(1, 1, 1)" opacity="1.0" stroke-width="2.0"/>
    <path d="M 272.4065246582031 10.350553512573242 C 375.0190734863281 7.352107524871826 341.43365478515625 126.70550537109375 259.7203369140625 178.57359313964844 C 209.6229705810547 118.85053253173828 184.19415283203125 8.338178634643555 239.29713439941406 -25.527667999267578 C 355.9761657714844 105.47512817382812 324.6009521484375 119.84329986572266 270.9541015625 172.51608276367188 C 230.1974334716797 191.65713500976562 227.8684539794922 237.1375732421875 351.6440734863281 252.53953552246094 C 376.4569091796875 115.45349884033203 336.9855651855469 115.7423095703125 272.4065246582031 10.350553512573242" fill="rgb(250, 220, 108)" opacity="1.0" stroke-width="2.0"/>
    <path d="M 82.18278503417969 96.3777084350586 C 21.740325927734375 165.14822387695312 47.40958023071289 201.10350036621094 47.53728103637695 105.80985260009766 C 38.346778869628906 121.5976791381836 -3.6966378688812256 171.8360137939453 -1.6340622901916504 278.2783508300781 C 63.966636657714844 277.9024658203125 38.057884216308594 154.33657836914062 49.63007354736328 102.18900299072266 C 91.04817962646484 54.707305908203125 125.43244171142578 23.251577377319336 205.01429748535156 4.7039995193481445 C 35.51393127441406 119.5069580078125 83.55217742919922 107.17719268798828 82.18278503417969 96.3777084350586" fill="rgb(3, 2, 1)" opacity="1.0" stroke-width="2.0"/>
    <path d="M 349.8758850097656 188.27239990234375 C 371.5937194824219 177.5765838623047 350.41925048828125 175.49520874023438 381.962646484375 217.37286376953125 C 366.75579833984375 223.09788513183594 328.3155822753906 201.3756103515625 347.6956481933594 157.27713012695312 C 412.5347900390625 143.8536834716797 352.5336608886719 166.60044860839844 362.84222412109375 181.36253356933594 C 413.85693359375 148.4063262939453 392.48028564453125 169.42063903808594 410.9587707519531 208.9297332763672 C 424.093017578125 137.1897735595703 405.8674011230469 157.0327606201172 349.8758850097656 188.27239990234375" fill="rgb(2, 1, 2)" opacity="1.0" stroke-width="2.0"/>
    <path d="M 311.91595458984375 0.6678605079650879 C 287.5447082519531 134.1072540283203 300.1368713378906 172.75375366210938 307.396484375 1.9722905158996582 C 426.1580810546875 47.86848068237305 466.2925720214844 73.88285827636719 489.0821228027344 159.51133728027344 C 263.96173095703125 132.02511596679688 328.0120544433594 128.7733612060547 311.91595458984375 0.6678605079650879" fill="rgb(187, 165, 86)" opacity="1.0" stroke-width="2.0"/>
    <path d="M 294.6496276855469 174.0186767578125 C 298.2577819824219 187.2210693359375 299.2503967285156 188.20223999023438 289.5047302246094 156.98135375976562 C 297.6054382324219 145.40965270996094 287.53997802734375 165.89573669433594 287.52191162109375 146.44189453125 C 296.8544616699219 187.62149047851562 299.5366516113281 186.87442016601562 299.5097351074219 186.93814086914062 C 287.6349792480469 169.2748260498047 310.4031677246094 171.85086059570312 293.30462646484375 174.97607421875 C 303.41455078125 177.0721893310547 311.00311279296875 183.33721923828125 294.6496276855469 174.0186767578125" fill="rgb(255, 182, 111)" opacity="1.0" stroke-width="2.0"/>
    <path d="M 20.9411678314209 282.83477783203125 C 43.22735595703125 408.92034912109375 94.05060577392578 393.2287292480469 63.556339263916016 427.8115539550781 C 69.32755279541016 391.6275329589844 64.73506164550781 399.3141784667969 104.37257385253906 437.5081787109375 C 152.91563415527344 468.7784423828125 157.88571166992188 479.467041015625 110.34955596923828 467.1284484863281 C 79.2235107421875 397.2092590332031 27.257360458374023 426.4088439941406 2.4982292652130127 297.0185546875 C -6.77941370010376 247.28985595703125 30.759483337402344 231.90396118164062 20.9411678314209 282.83477783203125" fill="rgb(3, 2, 2)" opacity="1.0" stroke-width="2.0"/>
    <path d="M 81.73450469970703 506.87542724609375 C 78.48753356933594 503.2763671875 86.5518569946289 510.9738464355469 90.85824584960938 525.3362426757812 C 94.5254898071289 517.6331787109375 101.72948455810547 508.09161376953125 93.78501892089844 518.0924072265625 C 101.23450469970703 507.4889831542969 96.1956558227539 514.02783203125 94.27213287353516 518.080078125 C 92.38845825195312 508.1036682128906 90.49079132080078 523.9153442382812 90.89663696289062 516.9142456054688 C 83.20040130615234 529.0057983398438 94.91910552978516 524.470703125 81.73450469970703 506.87542724609375" fill="rgb(151, 178, 242)" opacity="1.0" stroke-width="2.0"/>
    <path d="M 49.43632888793945 412.0511779785156 C 84.15193939208984 440.1129150390625 53.29588317871094 428.604248046875 18.962308883666992 355.2306823730469 C 46.68500900268555 364.35955810546875 77.18009185791016 403.6087341308594 109.75938415527344 466.96295166015625 C 50.92423629760742 423.64599609375 55.297698974609375 402.7835998535156 40.07101058959961 416.3787536621094 C 40.121543884277344 418.0860900878906 40.958335876464844 413.54510498046875 41.344390869140625 411.3426513671875 C 39.80365753173828 420.8646545410156 40.21158981323242 412.7308654785156 49.43632888793945 412.0511779785156" fill="rgb(1, 0, 1)" opacity="1.0" stroke-width="2.0"/>
    <path d="M 230.7904815673828 -11.88948917388916 C 55.30459213256836 101.87242889404297 -2.8366472721099854 163.6703338623047 229.711669921875 90.36742401123047 C 244.61436462402344 212.63441467285156 86.06830596923828 221.22445678710938 60.01304626464844 119.91806030273438 C 280.2554931640625 129.34573364257812 287.9705505371094 -10.553410530090332 230.7904815673828 -11.88948917388916" fill="rgb(213, 188, 93)" opacity="1.0" stroke-width="2.0"/>
    <path d="M 155.32742309570312 470.9488830566406 C 314.2834777832031 531.936767578125 370.6194763183594 434.5311584472656 364.6413269042969 488.7588195800781 C 267.795166015625 530.390869140625 231.0668487548828 499.644287109375 269.0694885253906 517.0250854492188 C 191.75747680664062 502.9312744140625 177.23825073242188 515.8480834960938 148.01864624023438 460.6824035644531 C 139.6328582763672 491.1254577636719 167.6095428466797 508.3782653808594 155.32742309570312 470.9488830566406" fill="rgb(3, 1, 2)" opacity="1.0" stroke-width="2.0"/>
    <path d="M 182.32652282714844 399.6045227050781 C 31.04987335205078 401.13311767578125 49.33308410644531 373.50604248046875 41.777767181396484 330.0272216796875 C 9.09245777130127 319.6034851074219 12.069601058959961 176.01087951660156 61.95576858520508 125.95560455322266 C 176.2076416015625 141.3356475830078 190.8185272216797 138.2126007080078 182.32652282714844 399.6045227050781" fill="rgb(252, 214, 108)" opacity="1.0" stroke-width="2.0"/>
    <path d="M 476.916748046875 144.51544189453125 C 536.5787353515625 223.06980895996094 512.14111328125 257.3711853027344 504.3825988769531 326.6175231933594 C 494.3427429199219 274.6224060058594 494.97772216796875 235.3785858154297 486.8269348144531 305.8896179199219 C 463.56085205078125 397.4469909667969 429.98321533203125 394.339111328125 473.749755859375 378.1380920410156 C 521.2987060546875 304.6804504394531 501.3227233886719 360.534912109375 476.916748046875 144.51544189453125" fill="rgb(18, 17, 14)" opacity="1.0" stroke-width="2.0"/>
    <path d="M 65.03457641601562 38.61650466918945 C 76.2225341796875 51.25581359863281 70.52030181884766 44.92792892456055 64.77434539794922 46.85177993774414 C 69.47205352783203 44.6099853515625 75.222412109375 50.07524108886719 66.61105346679688 42.954986572265625 C 79.56705474853516 53.4373664855957 76.01544189453125 57.984928131103516 74.35098266601562 59.99454879760742 C 74.30368041992188 60.939109802246094 81.64022064208984 53.66048812866211 67.65593719482422 43.836509704589844 C 66.67426300048828 43.067718505859375 79.56183624267578 55.40365219116211 65.03457641601562 38.61650466918945" fill="rgb(255, 135, 102)" opacity="1.0" stroke-width="2.0"/>
    <path d="M 496.4016418457031 344.19696044921875 C 501.8040771484375 329.90716552734375 489.4674377441406 373.35919189453125 460.5561828613281 410.82647705078125 C 432.12322998046875 449.76580810546875 357.2121887207031 510.22271728515625 326.65985107421875 486.5038146972656 C 496.4162292480469 403.4901428222656 450.82684326171875 325.58154296875 496.4016418457031 344.19696044921875" fill="rgb(0, 1, 1)" opacity="1.0" stroke-width="2.0"/>
  </g>
</svg>
