<?xml version="1.0" ?>
<svg height="512" version="1.1" width="512" xmlns="http://www.w3.org/2000/svg">
  <defs/>
  <g>
    <path d="M 59.305667877197266 51.77762222290039 C 56.60800552368164 53.532752990722656 53.8096809387207 56.317989349365234 55.155399322509766 55.34340286254883 C 38.303401947021484 70.17446899414062 33.841880798339844 73.9975357055664 35.93196487426758 72.51303100585938 C 37.494449615478516 70.45853424072266 33.53966522216797 74.61641693115234 38.52719497680664 69.7631607055664 C 37.93034362792969 70.91653442382812 24.800922393798828 81.99112701416016 59.305667877197266 51.77762222290039" fill="rgb(255, 105, 172)" opacity="1.0" stroke-width="2.0"/>
    <path d="M 182.57432556152344 502.6291809082031 C 158.85130310058594 440.9453430175781 77.31192779541016 437.6950378417969 109.677490234375 466.72796630859375 C 155.74119567871094 496.45465087890625 165.2559051513672 493.44891357421875 90.82036590576172 467.94744873046875 C 69.09616088867188 466.44171142578125 83.12071990966797 467.6038513183594 88.83866882324219 468.142822265625 C 89.90306854248047 468.99200439453125 74.63259887695312 459.9007263183594 182.57432556152344 502.6291809082031" fill="rgb(1, 1, 1)" opacity="1.0" stroke-width="2.0"/>
    <path d="M 65.96067810058594 409.79937744140625 C 111.93413543701172 167.53155517578125 138.7417755126953 141.6301727294922 233.58889770507812 131.46035766601562 C 169.99952697753906 219.20106506347656 68.70714569091797 209.5117950439453 479.7913513183594 128.10569763183594 C 521.7823486328125 456.7174377441406 460.34539794921875 381.85028076171875 365.66949462890625 485.3629455566406 C 156.73182678222656 504.85797119140625 157.904541015625 479.2827453613281 65.96067810058594 409.79937744140625" fill="rgb(252, 220, 111)" opacity="1.0" stroke-width="2.0"/>
    <path d="M 421.9281921386719 180.7506561279297 C 420.569580078125 215.26638793945312 380.7335510253906 232.29319763183594 355.0509033203125 209.11293029785156 C 357.955078125 204.0987548828125 360.9929504394531 215.5687713623047 364.51031494140625 222.79779052734375 C 357.6434326171875 205.61920166015625 343.7919006347656 182.92897033691406 376.2877502441406 199.1593780517578 C 413.3919677734375 206.01014709472656 396.66925048828125 149.86830139160156 421.9281921386719 180.7506561279297" fill="rgb(2, 1, 2)" opacity="1.0" stroke-width="2.0"/>
    <path d="M 253.4073944091797 187.40025329589844 C 223.82395935058594 268.01812744140625 112.01752471923828 180.5205841064453 216.53614807128906 128.36903381347656 C 161.25039672851562 211.22341918945312 220.27041625976562 226.46795654296875 274.6795959472656 148.79867553710938 C 350.8556213378906 153.41465759277344 363.0870361328125 208.7917022705078 359.2802734375 142.74807739257812 C 158.93138122558594 133.30650329589844 185.4483642578125 139.01483154296875 253.4073944091797 187.40025329589844" fill="rgb(6, 5, 6)" opacity="1.0" stroke-width="2.0"/>
    <path d="M 410.91949462890625 151.71348571777344 C 429.4738464355469 171.52572631835938 421.4760437011719 199.31051635742188 412.2076416015625 201.53211975097656 C 400.4036560058594 179.59422302246094 403.7537536621094 140.12916564941406 351.08245849609375 171.92234802246094 C 338.587646484375 164.86875915527344 377.47186279296875 119.16034698486328 410.91949462890625 151.71348571777344" fill="rgb(1, 1, 2)" opacity="1.0" stroke-width="2.0"/>
    <path d="M 299.0177917480469 12.429375648498535 C 413.7196960449219 55.18108367919922 348.57684326171875 99.67607879638672 241.4241180419922 149.8290252685547 C 161.20956420898438 112.92240905761719 164.48153686523438 44.789276123046875 232.7390594482422 -5.160150051116943 C 428.17822265625 39.712432861328125 371.31390380859375 89.62390899658203 239.2659912109375 150.72525024414062 C 263.431396484375 157.44180297851562 250.09027099609375 290.9180603027344 365.3759765625 143.33233642578125 C 541.7433471679688 146.29119873046875 464.1872863769531 95.29158782958984 299.0177917480469 12.429375648498535" fill="rgb(251, 222, 109)" opacity="1.0" stroke-width="2.0"/>
    <path d="M 101.43555450439453 77.91309356689453 C 24.466981887817383 147.1584930419922 53.00829315185547 217.5485076904297 47.53127670288086 106.25167083740234 C 38.7707405090332 120.18289184570312 -6.941183567047119 179.20970153808594 0.052703313529491425 278.9683532714844 C 44.60408401489258 279.13714599609375 50.92951583862305 153.07574462890625 47.466983795166016 110.32110595703125 C 76.25814819335938 48.11568069458008 217.13888549804688 -31.139436721801758 278.8128356933594 15.268237113952637 C 39.91124725341797 42.16810989379883 188.90350341796875 101.88639068603516 101.43555450439453 77.91309356689453" fill="rgb(3, 2, 2)" opacity="1.0" stroke-width="2.0"/>
    <path d="M 349.6222839355469 185.32545471191406 C 375.8376770019531 171.1726837158203 347.310546875 182.89183044433594 378.7941589355469 202.25881958007812 C 351.61962890625 240.40609741210938 312.9732971191406 154.7783660888672 377.2594299316406 139.58071899414062 C 433.2998352050781 142.62252807617188 359.8548889160156 154.51815795898438 362.3921203613281 178.11334228515625 C 416.54010009765625 149.80706787109375 396.45892333984375 162.97842407226562 404.38720703125 209.56982421875 C 425.0190734863281 143.05137634277344 401.24395751953125 157.3836669921875 349.6222839355469 185.32545471191406" fill="rgb(1, 1, 2)" opacity="1.0" stroke-width="2.0"/>
    <path d="M 311.6244812011719 23.339679718017578 C 289.5661926269531 117.33269500732422 283.20367431640625 145.3408203125 314.9536437988281 9.271015167236328 C 404.5826110839844 23.0073299407959 485.83978271484375 102.82732391357422 493.6496276855469 191.3057098388672 C 458.8704833984375 155.3837127685547 454.80145263671875 73.67818450927734 311.6244812011719 23.339679718017578" fill="rgb(24, 22, 18)" opacity="1.0" stroke-width="2.0"/>
    <path d="M 295.3428039550781 174.43304443359375 C 298.90789794921875 187.2154083251953 299.8423767089844 188.0257110595703 293.1751403808594 150.73385620117188 C 265.2114562988281 135.59031677246094 251.4356231689453 144.21572875976562 296.7486267089844 120.20330047607422 C 299.4547119140625 185.68853759765625 298.7138671875 186.96470642089844 300.0013732910156 186.30783081054688 C 287.993408203125 169.6534423828125 308.7095947265625 172.01060485839844 294.04449462890625 174.74285888671875 C 303.0467224121094 176.8608856201172 310.9518737792969 183.12083435058594 295.3428039550781 174.43304443359375" fill="rgb(253, 223, 108)" opacity="1.0" stroke-width="2.0"/>
    <path d="M 22.12151336669922 284.8030090332031 C 41.72335433959961 400.9229431152344 93.51634979248047 399.54730224609375 64.86410522460938 428.9699401855469 C 73.53120422363281 386.3074035644531 60.860721588134766 402.0110778808594 110.86502838134766 441.8283996582031 C 163.8085174560547 483.0362548828125 187.2829132080078 470.3001403808594 112.32987976074219 469.0047912597656 C 82.2815170288086 403.3348083496094 24.17034339904785 416.72625732421875 2.8431191444396973 298.0183410644531 C -6.107722282409668 245.2086944580078 20.602258682250977 231.19256591796875 22.12151336669922 284.8030090332031" fill="rgb(2, 0, 1)" opacity="1.0" stroke-width="2.0"/>
    <path d="M 83.64962768554688 513.1015014648438 C 80.87425994873047 509.4344787597656 85.81826782226562 514.8899536132812 89.6050796508789 527.988037109375 C 94.52173614501953 517.6522216796875 101.721923828125 508.1291809082031 93.79763793945312 518.1727294921875 C 101.24073028564453 507.472412109375 96.19739532470703 514.019287109375 94.27278137207031 518.0782470703125 C 92.38845825195312 508.1036682128906 90.49079132080078 523.9153442382812 90.88126373291016 516.9232788085938 C 82.63579559326172 529.7105712890625 92.82927703857422 526.75048828125 83.64962768554688 513.1015014648438" fill="rgb(159, 187, 255)" opacity="1.0" stroke-width="2.0"/>
    <path d="M 53.02064514160156 414.95770263671875 C 84.13751220703125 442.59893798828125 46.44646453857422 418.1025695800781 18.78836441040039 354.21966552734375 C 43.84476089477539 366.4972229003906 79.5509262084961 403.164794921875 111.5633544921875 468.0386047363281 C 53.325889587402344 427.16937255859375 57.5056037902832 401.6234130859375 37.024070739746094 418.1432189941406 C 44.3538703918457 411.9148254394531 38.17873001098633 418.0091857910156 40.67658233642578 413.3297119140625 C 38.80050277709961 420.1553039550781 43.65113830566406 409.2345275878906 53.02064514160156 414.95770263671875" fill="rgb(0, 0, 1)" opacity="1.0" stroke-width="2.0"/>
    <path d="M 244.2525634765625 19.752275466918945 C 59.19824981689453 35.882240295410156 3.7071990966796875 212.31947326660156 242.80084228515625 86.31840515136719 C 250.23854064941406 171.5460205078125 53.49452590942383 165.7890167236328 64.64543914794922 139.95584106445312 C 275.4298095703125 121.07434844970703 296.9209289550781 10.609308242797852 244.2525634765625 19.752275466918945" fill="rgb(252, 222, 109)" opacity="1.0" stroke-width="2.0"/>
    <path d="M 146.56866455078125 465.7286682128906 C 299.61602783203125 538.8196411132812 387.4588623046875 430.38330078125 369.0486145019531 486.2888488769531 C 286.09014892578125 527.648193359375 213.40939331054688 503.3065185546875 283.2232360839844 518.8080444335938 C 190.3102264404297 504.0563049316406 169.739013671875 511.01910400390625 146.06365966796875 464.5297546386719 C 135.05308532714844 487.1185607910156 171.29571533203125 507.6828308105469 146.56866455078125 465.7286682128906" fill="rgb(1, 0, 1)" opacity="1.0" stroke-width="2.0"/>
    <path d="M 153.71725463867188 426.23516845703125 C 71.65301513671875 424.6165466308594 59.7780647277832 389.305908203125 42.1583366394043 355.59716796875 C 9.749039649963379 288.1824951171875 3.532869815826416 177.1636199951172 89.36053466796875 89.00505828857422 C 183.2808074951172 116.0428466796875 174.7941131591797 127.47505187988281 153.71725463867188 426.23516845703125" fill="rgb(252, 212, 108)" opacity="1.0" stroke-width="2.0"/>
    <path d="M 444.4999694824219 81.99683380126953 C 536.4263916015625 183.22994995117188 509.5856628417969 299.74859619140625 506.01141357421875 312.54705810546875 C 512.0114135742188 272.4314270019531 477.3145751953125 172.97996520996094 490.00091552734375 222.61810302734375 C 505.6871032714844 358.4407653808594 417.5533447265625 404.4842834472656 475.6177062988281 380.73260498046875 C 510.52056884765625 312.218505859375 533.4617919921875 325.57159423828125 444.4999694824219 81.99683380126953" fill="rgb(0, 0, 0)" opacity="1.0" stroke-width="2.0"/>
    <path d="M 66.59416961669922 39.284793853759766 C 76.47383117675781 51.32346725463867 72.68055725097656 43.38154602050781 70.56380462646484 47.32781219482422 C 72.21721649169922 44.335811614990234 74.52976989746094 48.29405975341797 69.93975830078125 40.89712905883789 C 77.71417999267578 53.8409423828125 73.68769836425781 58.02085494995117 73.14013671875 51.175601959228516 C 73.73995208740234 57.429100036621094 77.97750091552734 53.94227600097656 70.21995544433594 43.12565231323242 C 69.33539581298828 40.73183059692383 76.64110565185547 51.2703742980957 66.59416961669922 39.284793853759766" fill="rgb(255, 150, 115)" opacity="1.0" stroke-width="2.0"/>
    <path d="M 500.4933166503906 335.48565673828125 C 500.6083984375 330.14019775390625 491.48486328125 372.39044189453125 458.2724304199219 413.3984069824219 C 429.6123352050781 453.42596435546875 345.2206115722656 517.103759765625 323.2764587402344 483.15411376953125 C 474.9699401855469 430.4629211425781 466.17388916015625 313.0341796875 500.4933166503906 335.48565673828125" fill="rgb(1, 0, 1)" opacity="1.0" stroke-width="2.0"/>
  </g>
</svg>
