<?xml version="1.0" ?>
<svg height="512" version="1.1" width="512" xmlns="http://www.w3.org/2000/svg">
  <defs/>
  <g>
    <path d="M 59.01617431640625 51.24974822998047 C 58.36871337890625 51.743953704833984 54.80448913574219 54.7144889831543 54.80085754394531 54.76197814941406 C 37.34550476074219 69.21778106689453 31.873037338256836 73.42164611816406 32.51970672607422 71.865234375 C 36.39139938354492 68.67608642578125 29.706140518188477 75.1861801147461 35.737754821777344 68.2977523803711 C 34.09568786621094 70.72532653808594 23.00074005126953 81.41090393066406 59.01617431640625 51.24974822998047" fill="rgb(255, 85, 150)" opacity="1.0" stroke-width="2.0"/>
    <path d="M 182.84588623046875 502.46014404296875 C 157.9918975830078 441.0843505859375 77.58120727539062 437.81182861328125 109.83618927001953 467.0305480957031 C 156.85275268554688 497.0269775390625 159.68338012695312 491.423828125 89.67857360839844 467.7070007324219 C 66.74333190917969 467.0905456542969 78.93500518798828 467.3983154296875 88.11106872558594 467.61236572265625 C 89.82327270507812 468.5611877441406 74.59370422363281 459.8920593261719 182.84588623046875 502.46014404296875" fill="rgb(1, 1, 1)" opacity="1.0" stroke-width="2.0"/>
    <path d="M 66.7913589477539 411.140625 C 112.40422821044922 172.27517700195312 142.19088745117188 163.99545288085938 213.50439453125 132.17893981933594 C 203.08804321289062 193.15306091308594 153.03515625 207.95883178710938 488.8606872558594 111.01174926757812 C 505.0444030761719 478.8045959472656 456.20587158203125 392.44122314453125 366.56268310546875 485.3948669433594 C 154.81101989746094 504.6214294433594 156.22134399414062 479.6846923828125 66.7913589477539 411.140625" fill="rgb(251, 220, 112)" opacity="1.0" stroke-width="2.0"/>
    <path d="M 422.0885925292969 180.42031860351562 C 420.46044921875 216.08226013183594 380.99102783203125 231.26785278320312 355.99871826171875 210.2313995361328 C 359.2601318359375 206.9941864013672 362.1458435058594 218.95428466796875 365.47454833984375 224.36993408203125 C 356.5162048339844 206.82164001464844 345.3853454589844 177.0541534423828 373.9403381347656 198.7614288330078 C 412.9802551269531 208.7697296142578 396.24493408203125 150.9078369140625 422.0885925292969 180.42031860351562" fill="rgb(2, 1, 2)" opacity="1.0" stroke-width="2.0"/>
    <path d="M 252.86219787597656 187.4800262451172 C 232.00335693359375 258.373779296875 117.72937774658203 200.7476348876953 206.77439880371094 126.92042541503906 C 173.62635803222656 221.62684631347656 209.7675018310547 216.88296508789062 284.50079345703125 152.2865447998047 C 349.8418884277344 155.4075469970703 362.7968444824219 211.07730102539062 354.82391357421875 148.1558380126953 C 142.15145874023438 137.40594482421875 173.8517608642578 126.75770568847656 252.86219787597656 187.4800262451172" fill="rgb(7, 6, 6)" opacity="1.0" stroke-width="2.0"/>
    <path d="M 410.6054992675781 151.58364868164062 C 429.9164123535156 172.691650390625 419.70135498046875 194.69491577148438 415.73687744140625 198.08245849609375 C 398.442138671875 178.61962890625 402.9080810546875 140.4020233154297 351.0413818359375 171.9197998046875 C 338.6214599609375 164.75701904296875 377.3212890625 118.96637725830078 410.6054992675781 151.58364868164062" fill="rgb(1, 0, 2)" opacity="1.0" stroke-width="2.0"/>
    <path d="M 298.22637939453125 11.29963207244873 C 403.2841796875 52.903011322021484 346.7284851074219 104.23503875732422 247.55580139160156 155.8165740966797 C 170.50791931152344 107.91409301757812 167.98635864257812 39.868595123291016 232.5630645751953 -4.880728244781494 C 419.2403869628906 33.71881103515625 366.5020751953125 94.19922637939453 245.58860778808594 156.71609497070312 C 249.0275421142578 145.4299774169922 259.072021484375 266.1733703613281 358.4991149902344 156.51123046875 C 528.8826293945312 121.91548156738281 453.9295349121094 93.19364166259766 298.22637939453125 11.29963207244873" fill="rgb(250, 221, 108)" opacity="1.0" stroke-width="2.0"/>
    <path d="M 90.74723052978516 87.62541198730469 C 26.527774810791016 157.22509765625 50.98051834106445 214.38143920898438 47.288368225097656 106.25121307373047 C 38.691532135009766 120.56658172607422 -6.4365105628967285 177.21978759765625 -0.22547107934951782 279.0071716308594 C 51.151180267333984 279.10821533203125 47.74143981933594 158.492919921875 47.56752395629883 108.82906341552734 C 68.97996520996094 64.26473236083984 188.8269500732422 -28.86159324645996 281.5972595214844 11.95272445678711 C 33.587345123291016 47.85633087158203 174.3112030029297 101.33442687988281 90.74723052978516 87.62541198730469" fill="rgb(4, 3, 2)" opacity="1.0" stroke-width="2.0"/>
    <path d="M 349.4122009277344 185.45480346679688 C 375.316650390625 172.43106079101562 347.8863525390625 179.68145751953125 378.68804931640625 204.4562530517578 C 357.9468994140625 239.31629943847656 309.9779968261719 162.56752014160156 375.045654296875 139.45343017578125 C 446.9350891113281 146.37496948242188 354.5729675292969 154.5230712890625 363.4761657714844 178.07862854003906 C 416.0873718261719 150.79335021972656 395.0137023925781 163.49041748046875 406.0393371582031 209.26898193359375 C 426.13092041015625 143.65553283691406 401.4653015136719 157.4904022216797 349.4122009277344 185.45480346679688" fill="rgb(2, 1, 2)" opacity="1.0" stroke-width="2.0"/>
    <path d="M 312.5149841308594 20.0095272064209 C 293.7172546386719 123.27266693115234 288.82672119140625 152.5962371826172 314.7703857421875 9.265874862670898 C 406.84490966796875 23.75752830505371 478.7561340332031 102.15728759765625 494.8373718261719 176.07533264160156 C 429.2701416015625 120.76860809326172 466.35205078125 91.66847229003906 312.5149841308594 20.0095272064209" fill="rgb(30, 25, 18)" opacity="1.0" stroke-width="2.0"/>
    <path d="M 295.3427429199219 174.3548583984375 C 298.9443054199219 187.26910400390625 300.09613037109375 187.94796752929688 293.7495422363281 150.62005615234375 C 271.0444641113281 139.57418823242188 256.5791931152344 153.10897827148438 296.6622619628906 125.89834594726562 C 298.951416015625 185.7715606689453 298.4582214355469 186.96725463867188 300.0942687988281 186.17022705078125 C 288.09356689453125 169.5891876220703 308.6545104980469 172.01223754882812 294.0182800292969 174.8240203857422 C 302.9371643066406 177.03294372558594 310.9963073730469 183.07774353027344 295.3427429199219 174.3548583984375" fill="rgb(253, 222, 108)" opacity="1.0" stroke-width="2.0"/>
    <path d="M 21.69118309020996 284.7608947753906 C 41.723388671875 402.82745361328125 94.33214569091797 397.970703125 63.6804084777832 427.8545837402344 C 73.54508972167969 386.6672058105469 60.754276275634766 402.0358581542969 110.70037841796875 441.73681640625 C 162.25132751464844 481.97845458984375 184.84771728515625 469.9432067871094 112.1484603881836 469.0368347167969 C 81.74034881591797 400.7013854980469 24.31658363342285 418.173828125 2.7179319858551025 297.53515625 C -6.348394393920898 245.5858917236328 22.104618072509766 231.24391174316406 21.69118309020996 284.7608947753906" fill="rgb(2, 0, 1)" opacity="1.0" stroke-width="2.0"/>
    <path d="M 81.62652587890625 508.968017578125 C 78.7901611328125 505.5675964355469 85.57872772216797 513.1557006835938 89.73648071289062 527.1538696289062 C 94.52173614501953 517.6522216796875 101.721923828125 508.1291809082031 93.79763793945312 518.1727294921875 C 101.24073028564453 507.472412109375 96.19739532470703 514.019287109375 94.27278137207031 518.0782470703125 C 92.38845825195312 508.1036682128906 90.49079132080078 523.9153442382812 90.90478515625 516.9146728515625 C 83.01979064941406 529.2848510742188 94.07620239257812 525.4689331054688 81.62652587890625 508.968017578125" fill="rgb(154, 182, 248)" opacity="1.0" stroke-width="2.0"/>
    <path d="M 52.0839729309082 414.6239318847656 C 86.06936645507812 443.75482177734375 47.91227340698242 421.2271423339844 18.88593292236328 354.39544677734375 C 43.60851287841797 367.1148376464844 79.7580337524414 402.9749755859375 111.1561279296875 467.8094177246094 C 52.97357940673828 427.09783935546875 57.08096694946289 401.95831298828125 36.323509216308594 418.37298583984375 C 42.73005294799805 412.58184814453125 38.6324348449707 418.3350830078125 39.82120895385742 412.83489990234375 C 38.8615837097168 420.8446350097656 42.3013801574707 410.19873046875 52.0839729309082 414.6239318847656" fill="rgb(1, 0, 1)" opacity="1.0" stroke-width="2.0"/>
    <path d="M 248.7493133544922 17.663307189941406 C 49.19707107543945 48.025962829589844 13.276588439941406 192.53570556640625 238.16041564941406 82.81915283203125 C 244.38844299316406 175.53628540039062 56.39182662963867 173.44766235351562 62.03954315185547 130.50547790527344 C 276.859130859375 116.64877319335938 297.0313415527344 2.311379909515381 248.7493133544922 17.663307189941406" fill="rgb(250, 221, 108)" opacity="1.0" stroke-width="2.0"/>
    <path d="M 146.95022583007812 465.9908447265625 C 301.187255859375 538.4429321289062 383.4039306640625 430.8945007324219 367.4682922363281 486.9537353515625 C 282.6606750488281 527.9701538085938 216.67210388183594 502.51025390625 280.021240234375 519.1049194335938 C 189.60975646972656 503.1512451171875 172.80426025390625 512.8670043945312 145.926025390625 464.10693359375 C 135.06797790527344 487.0623474121094 172.2003631591797 506.9710998535156 146.95022583007812 465.9908447265625" fill="rgb(1, 0, 1)" opacity="1.0" stroke-width="2.0"/>
    <path d="M 163.26171875 418.858154296875 C 60.829071044921875 421.9450988769531 61.42464065551758 387.07647705078125 41.09383010864258 353.0044250488281 C 10.610578536987305 287.66943359375 4.798583507537842 183.47410583496094 81.60877990722656 96.89945983886719 C 188.2225799560547 115.854248046875 181.14695739746094 127.08027648925781 163.26171875 418.858154296875" fill="rgb(252, 213, 108)" opacity="1.0" stroke-width="2.0"/>
    <path d="M 449.12628173828125 86.81696319580078 C 535.3046264648438 187.11289978027344 509.5739440917969 297.10015869140625 506.61614990234375 310.4731140136719 C 502.4855651855469 248.70054626464844 483.9460144042969 191.78146362304688 492.7235107421875 254.44911193847656 C 486.5048828125 384.54742431640625 420.669921875 396.75189208984375 473.99786376953125 382.0788269042969 C 512.6427612304688 313.69830322265625 528.54541015625 329.63604736328125 449.12628173828125 86.81696319580078" fill="rgb(1, 0, 1)" opacity="1.0" stroke-width="2.0"/>
    <path d="M 65.37464141845703 38.73386764526367 C 75.59406280517578 51.24550247192383 72.94440460205078 44.00184631347656 66.54116821289062 46.63336181640625 C 71.4262924194336 44.137290954589844 75.64485931396484 49.45819091796875 68.98057556152344 41.438323974609375 C 79.39228057861328 52.78461837768555 74.93242645263672 58.98515701293945 77.56694030761719 53.10337829589844 C 74.88983917236328 58.52644729614258 79.03662109375 54.46644592285156 69.92133331298828 41.6259880065918 C 70.16445922851562 41.49983596801758 78.50774383544922 54.20281982421875 65.37464141845703 38.73386764526367" fill="rgb(255, 143, 108)" opacity="1.0" stroke-width="2.0"/>
    <path d="M 500.16888427734375 335.5374755859375 C 500.89190673828125 329.7015075683594 491.08441162109375 372.288818359375 458.9718933105469 412.4989929199219 C 431.3523254394531 451.51226806640625 347.7655029296875 516.2137451171875 323.9768371582031 483.851318359375 C 481.7906188964844 423.168701171875 460.72369384765625 317.2094421386719 500.16888427734375 335.5374755859375" fill="rgb(1, 0, 1)" opacity="1.0" stroke-width="2.0"/>
  </g>
</svg>
