<?xml version="1.0" ?>
<svg height="512" version="1.1" width="512" xmlns="http://www.w3.org/2000/svg">
  <defs/>
  <g>
    <path d="M 58.97118377685547 51.02711868286133 C 58.714080810546875 50.8851203918457 54.79185485839844 54.58029556274414 54.40861129760742 54.487953186035156 C 37.04403305053711 68.86723327636719 32.05326461791992 73.39409637451172 33.43349838256836 72.36632537841797 C 35.895572662353516 69.97715759277344 29.66999053955078 75.21122741699219 37.65146255493164 68.94371032714844 C 32.725364685058594 70.99356079101562 22.45155906677246 81.39079284667969 58.97118377685547 51.02711868286133" fill="rgb(255, 81, 145)" opacity="1.0" stroke-width="2.0"/>
    <path d="M 182.71243286132812 502.68658447265625 C 157.81591796875 441.1204528808594 77.385009765625 437.9395751953125 109.13571166992188 466.7952575683594 C 157.03887939453125 497.21490478515625 158.21377563476562 490.4696044921875 89.85145568847656 467.39544677734375 C 66.56371307373047 467.3096618652344 78.62830352783203 467.3523254394531 88.7819595336914 467.54193115234375 C 89.6684799194336 468.5008544921875 74.75395202636719 459.7267150878906 182.71243286132812 502.68658447265625" fill="rgb(1, 1, 1)" opacity="1.0" stroke-width="2.0"/>
    <path d="M 67.08319091796875 411.6694641113281 C 113.04847717285156 177.49732971191406 147.2007293701172 178.2506561279297 206.54893493652344 128.3776397705078 C 202.7400665283203 179.4968719482422 200.4177703857422 210.27867126464844 492.8450012207031 147.03196716308594 C 496.5945739746094 468.5939025878906 452.40460205078125 391.67303466796875 366.1006774902344 485.35357666015625 C 154.0404510498047 504.70623779296875 155.68809509277344 479.9489440917969 67.08319091796875 411.6694641113281" fill="rgb(251, 220, 111)" opacity="1.0" stroke-width="2.0"/>
    <path d="M 422.3677062988281 180.33251953125 C 420.6105041503906 216.24942016601562 380.7623596191406 231.1129913330078 356.362060546875 210.3349609375 C 359.2147521972656 207.71597290039062 362.4975280761719 219.39736938476562 365.6156005859375 224.56851196289062 C 356.48907470703125 206.95767211914062 345.9686279296875 175.986572265625 373.33734130859375 198.33596801757812 C 413.6294250488281 209.37733459472656 395.40740966796875 151.3647003173828 422.3677062988281 180.33251953125" fill="rgb(2, 1, 3)" opacity="1.0" stroke-width="2.0"/>
    <path d="M 251.6990203857422 190.7349853515625 C 234.21157836914062 250.60284423828125 120.41878509521484 212.44676208496094 204.0328369140625 121.99586486816406 C 186.80392456054688 229.04302978515625 189.01528930664062 206.2728271484375 294.7607421875 166.0109100341797 C 344.4136962890625 167.01625061035156 361.1593933105469 225.49668884277344 354.6695556640625 150.32640075683594 C 145.34852600097656 137.9317169189453 175.99855041503906 124.07423400878906 251.6990203857422 190.7349853515625" fill="rgb(18, 9, 10)" opacity="1.0" stroke-width="2.0"/>
    <path d="M 410.9122314453125 151.4628143310547 C 429.96337890625 172.90426635742188 418.65936279296875 193.2986297607422 417.4119873046875 198.8340606689453 C 397.6424255371094 178.3209991455078 402.84674072265625 140.42674255371094 351.3046569824219 172.22828674316406 C 338.60650634765625 164.74740600585938 376.41558837890625 119.39595794677734 410.9122314453125 151.4628143310547" fill="rgb(2, 1, 1)" opacity="1.0" stroke-width="2.0"/>
    <path d="M 294.2542419433594 10.503835678100586 C 403.32489013671875 49.857120513916016 347.24066162109375 105.66695404052734 250.11114501953125 157.160400390625 C 174.1753387451172 112.78199768066406 170.31398010253906 38.86194610595703 236.1911163330078 -3.5434248447418213 C 415.2543640136719 32.420230865478516 364.344482421875 95.59706115722656 252.36622619628906 156.0956573486328 C 243.87457275390625 147.24171447753906 256.0635986328125 254.59413146972656 340.25994873046875 185.17697143554688 C 475.9566345214844 92.28389739990234 415.3124694824219 63.702754974365234 294.2542419433594 10.503835678100586" fill="rgb(251, 222, 108)" opacity="1.0" stroke-width="2.0"/>
    <path d="M 87.0008773803711 91.44133758544922 C 26.274499893188477 159.38137817382812 49.64394760131836 213.0094451904297 47.64080810546875 106.02349853515625 C 38.67460250854492 120.66246032714844 -5.971245288848877 176.53199768066406 -0.4184970557689667 278.9945373535156 C 53.42154312133789 279.1219787597656 46.25254440307617 158.867431640625 47.942325592041016 107.25029754638672 C 70.96913146972656 66.13697052001953 177.59231567382812 -24.419841766357422 282.56243896484375 8.679952621459961 C 29.43267822265625 56.18741989135742 162.51893615722656 97.90885925292969 87.0008773803711 91.44133758544922" fill="rgb(4, 3, 3)" opacity="1.0" stroke-width="2.0"/>
    <path d="M 350.6000061035156 187.67335510253906 C 373.502685546875 175.25440979003906 349.4432678222656 180.7234649658203 379.275634765625 205.93826293945312 C 360.1032409667969 237.62344360351562 313.3240966796875 169.70106506347656 367.8505554199219 141.83572387695312 C 427.3304138183594 130.9045867919922 354.27032470703125 163.69900512695312 362.3170471191406 180.5264129638672 C 415.64825439453125 151.38816833496094 393.99267578125 163.32691955566406 407.0772399902344 209.0813751220703 C 426.4224853515625 143.92987060546875 401.6711120605469 157.7232666015625 350.6000061035156 187.67335510253906" fill="rgb(1, 1, 2)" opacity="1.0" stroke-width="2.0"/>
    <path d="M 311.11907958984375 28.914596557617188 C 294.86248779296875 126.98939514160156 289.9058837890625 155.84315490722656 314.56658935546875 9.122252464294434 C 407.08258056640625 23.250049591064453 477.2496337890625 103.14961242675781 499.7942810058594 175.8453826904297 C 388.15545654296875 129.85032653808594 464.73834228515625 64.38497161865234 311.11907958984375 28.914596557617188" fill="rgb(88, 85, 41)" opacity="1.0" stroke-width="2.0"/>
    <path d="M 295.3395080566406 174.34593200683594 C 298.94769287109375 187.28280639648438 300.13311767578125 187.9390411376953 293.8385925292969 150.57435607910156 C 272.57366943359375 140.4053497314453 258.06719970703125 155.51473999023438 296.6558837890625 127.59701538085938 C 298.8554992675781 185.78799438476562 298.4190979003906 186.96420288085938 300.1145324707031 186.1441192626953 C 288.1177978515625 169.57933044433594 308.64813232421875 172.01393127441406 294.0171813964844 174.83273315429688 C 302.92010498046875 177.0589599609375 311.0037841796875 183.0708770751953 295.3395080566406 174.34593200683594" fill="rgb(253, 223, 108)" opacity="1.0" stroke-width="2.0"/>
    <path d="M 21.8092041015625 284.48883056640625 C 41.78394317626953 403.23492431640625 94.046142578125 397.9595947265625 63.842735290527344 427.8994140625 C 74.04607391357422 386.4961242675781 60.764549255371094 401.8919372558594 110.65469360351562 441.7003479003906 C 161.72991943359375 481.4372253417969 184.1357879638672 469.54248046875 112.02554321289062 469.0884094238281 C 81.4853286743164 399.9814147949219 24.479598999023438 419.0149230957031 2.723886251449585 297.3909912109375 C -6.454159736633301 245.7484588623047 24.0954647064209 231.21841430664062 21.8092041015625 284.48883056640625" fill="rgb(2, 1, 1)" opacity="1.0" stroke-width="2.0"/>
    <path d="M 81.02185821533203 508.53594970703125 C 77.85586547851562 505.445556640625 85.70696258544922 512.6292114257812 90.1878433227539 526.4960327148438 C 94.52173614501953 517.6522216796875 101.721923828125 508.1291809082031 93.79763793945312 518.1727294921875 C 101.24073028564453 507.472412109375 96.19739532470703 514.019287109375 94.27278137207031 518.0782470703125 C 92.38845825195312 508.1036682128906 90.49079132080078 523.9153442382812 90.90943908691406 516.9129638671875 C 83.0401840209961 529.2562866210938 94.07032012939453 525.4894409179688 81.02185821533203 508.53594970703125" fill="rgb(153, 181, 246)" opacity="1.0" stroke-width="2.0"/>
    <path d="M 51.855079650878906 414.15277099609375 C 86.15008544921875 443.6549987792969 48.696327209472656 421.9732360839844 18.884687423706055 354.47869873046875 C 43.43742752075195 367.4670715332031 79.86078643798828 402.8887939453125 110.98562622070312 467.6659851074219 C 52.90484619140625 426.7146911621094 57.200557708740234 401.8383483886719 37.055965423583984 418.21490478515625 C 42.40077590942383 413.6519775390625 38.46256637573242 419.07659912109375 38.53418731689453 413.7154235839844 C 38.70317077636719 420.7751159667969 41.61195373535156 410.2460021972656 51.855079650878906 414.15277099609375" fill="rgb(1, 0, 1)" opacity="1.0" stroke-width="2.0"/>
    <path d="M 249.33070373535156 15.731913566589355 C 47.77096176147461 53.479679107666016 13.548036575317383 185.71653747558594 236.40530395507812 81.7841796875 C 243.74171447753906 176.93360900878906 58.62887954711914 173.96401977539062 61.478389739990234 127.00367736816406 C 277.379638671875 115.54345703125 296.6869201660156 -3.224226236343384 249.33070373535156 15.731913566589355" fill="rgb(249, 220, 107)" opacity="1.0" stroke-width="2.0"/>
    <path d="M 146.98789978027344 466.0999755859375 C 301.83740234375 538.3889770507812 381.87969970703125 431.2263488769531 367.3617248535156 487.1300354003906 C 281.48028564453125 528.3980102539062 218.33563232421875 502.028564453125 278.7962341308594 519.3255004882812 C 189.4970245361328 502.56805419921875 173.70468139648438 513.1044921875 145.8058319091797 464.3660583496094 C 135.06683349609375 487.0640563964844 172.31405639648438 506.86663818359375 146.98789978027344 466.0999755859375" fill="rgb(1, 0, 1)" opacity="1.0" stroke-width="2.0"/>
    <path d="M 165.7164764404297 417.3681945800781 C 57.12702178955078 421.40716552734375 62.334068298339844 386.2060852050781 40.65549087524414 352.23345947265625 C 10.798694610595703 287.14178466796875 5.42626428604126 185.94712829589844 78.7001953125 100.2047348022461 C 187.6020050048828 116.86190032958984 182.41664123535156 127.71639251708984 165.7164764404297 417.3681945800781" fill="rgb(252, 213, 108)" opacity="1.0" stroke-width="2.0"/>
    <path d="M 451.36334228515625 89.62913513183594 C 534.583251953125 188.03939819335938 509.39141845703125 296.93499755859375 506.7398376464844 310.2673645019531 C 501.4352111816406 244.8554229736328 486.0431823730469 199.35008239746094 492.6264953613281 264.3804016113281 C 479.88616943359375 393.34136962890625 423.27642822265625 394.6417236328125 471.9683837890625 380.9828186035156 C 514.2584838867188 313.04425048828125 526.71044921875 332.2382507324219 451.36334228515625 89.62913513183594" fill="rgb(1, 0, 1)" opacity="1.0" stroke-width="2.0"/>
    <path d="M 66.15318298339844 37.75482177734375 C 75.95247650146484 51.74811553955078 71.20404815673828 44.984500885009766 65.78984069824219 46.81365203857422 C 70.49749755859375 44.94213104248047 75.60803985595703 50.063514709472656 68.1353988647461 41.960514068603516 C 80.16921997070312 52.5578498840332 76.06986999511719 58.7639274597168 78.0989990234375 56.8713264465332 C 75.55937194824219 59.27569580078125 80.28302001953125 53.92023849487305 68.7984848022461 42.98149871826172 C 68.00471496582031 41.98762893676758 77.73700714111328 54.30732727050781 66.15318298339844 37.75482177734375" fill="rgb(255, 141, 107)" opacity="1.0" stroke-width="2.0"/>
    <path d="M 500.5649719238281 335.213623046875 C 500.9514465332031 329.62799072265625 491.1737365722656 372.26629638671875 459.26025390625 412.2361755371094 C 431.74176025390625 451.04833984375 348.6820068359375 515.7246704101562 324.2501220703125 484.1533508300781 C 483.5592041015625 420.9971008300781 458.9433288574219 318.9534606933594 500.5649719238281 335.213623046875" fill="rgb(1, 0, 1)" opacity="1.0" stroke-width="2.0"/>
  </g>
</svg>
