<?xml version="1.0" ?>
<svg height="512" version="1.1" width="512" xmlns="http://www.w3.org/2000/svg">
  <defs/>
  <g>
    <path d="M 58.74608612060547 50.72233200073242 C 59.363525390625 50.48453140258789 54.7342643737793 53.98502731323242 54.35010528564453 54.316612243652344 C 37.1585693359375 68.95866394042969 31.514188766479492 72.92664337158203 32.427677154541016 72.40467071533203 C 34.597965240478516 70.69544982910156 29.647811889648438 74.80355072021484 37.49699783325195 68.27782440185547 C 32.76103591918945 72.43514251708984 21.875324249267578 81.2445068359375 58.74608612060547 50.72233200073242" fill="rgb(255, 75, 138)" opacity="1.0" stroke-width="2.0"/>
    <path d="M 182.65252685546875 502.7060241699219 C 157.53076171875 441.2098693847656 76.73161315917969 438.36090087890625 106.5728988647461 464.9241943359375 C 156.7901611328125 497.3586120605469 154.5731201171875 489.13739013671875 89.76837158203125 467.1748962402344 C 65.85645294189453 466.0392150878906 77.25146484375 466.1438293457031 89.5274429321289 466.887451171875 C 89.08216094970703 467.8550720214844 75.03445434570312 459.34033203125 182.65252685546875 502.7060241699219" fill="rgb(1, 3, 1)" opacity="1.0" stroke-width="2.0"/>
    <path d="M 68.66857147216797 413.5005798339844 C 114.21814727783203 184.80996704101562 162.69927978515625 215.61378479003906 194.03675842285156 166.01893615722656 C 186.06021118164062 180.94699096679688 206.81167602539062 216.79901123046875 498.4905700683594 158.57647705078125 C 496.9885559082031 468.8328857421875 452.47802734375 391.70733642578125 365.85968017578125 485.07415771484375 C 152.27371215820312 504.9603576660156 154.80352783203125 480.6084899902344 68.66857147216797 413.5005798339844" fill="rgb(252, 220, 110)" opacity="1.0" stroke-width="2.0"/>
    <path d="M 422.43896484375 180.26571655273438 C 420.53753662109375 216.85885620117188 380.618408203125 230.7572479248047 357.0574951171875 210.50213623046875 C 359.6392822265625 207.90328979492188 362.8957824707031 219.79736328125 365.8180847167969 224.68759155273438 C 356.5411682128906 207.1290740966797 347.2893981933594 173.9260711669922 372.95361328125 198.03428649902344 C 413.50830078125 209.74087524414062 394.6857604980469 152.1464385986328 422.43896484375 180.26571655273438" fill="rgb(2, 1, 3)" opacity="1.0" stroke-width="2.0"/>
    <path d="M 248.6378631591797 196.7713165283203 C 237.52687072753906 235.0327606201172 145.6182403564453 231.0683135986328 181.31163024902344 137.43997192382812 C 210.94131469726562 230.812744140625 181.96170043945312 194.7563934326172 291.0439758300781 183.2412872314453 C 340.82672119140625 178.49960327148438 359.85699462890625 243.18698120117188 357.2164611816406 139.77871704101562 C 165.01397705078125 113.19165802001953 186.49713134765625 122.75170135498047 248.6378631591797 196.7713165283203" fill="rgb(10, 10, 9)" opacity="1.0" stroke-width="2.0"/>
    <path d="M 410.85107421875 151.84552001953125 C 430.6587219238281 173.4477996826172 418.64068603515625 191.5902099609375 416.4884033203125 199.05990600585938 C 396.4351806640625 178.11460876464844 405.88671875 141.35899353027344 350.62127685546875 171.40223693847656 C 338.76470947265625 163.09324645996094 372.8775939941406 118.18085479736328 410.85107421875 151.84552001953125" fill="rgb(3, 1, 2)" opacity="1.0" stroke-width="2.0"/>
    <path d="M 282.95391845703125 10.63759708404541 C 396.5060119628906 23.166397094726562 348.09197998046875 116.53607940673828 252.43154907226562 162.5235137939453 C 186.81161499023438 113.03639221191406 174.2894744873047 28.382524490356445 234.0504150390625 -10.22519302368164 C 395.5858459472656 55.49279022216797 353.07635498046875 100.11251068115234 262.8885498046875 158.0331573486328 C 237.70040893554688 156.2340087890625 249.6796417236328 236.34474182128906 342.5327453613281 228.8535614013672 C 412.23651123046875 67.476806640625 371.9662780761719 78.07244873046875 282.95391845703125 10.63759708404541" fill="rgb(252, 222, 109)" opacity="1.0" stroke-width="2.0"/>
    <path d="M 84.498779296875 94.208740234375 C 22.776363372802734 160.2753143310547 48.042327880859375 208.5287322998047 47.31245803833008 106.14289855957031 C 38.7520866394043 121.30207061767578 -5.3263630867004395 174.78497314453125 -0.7425947189331055 278.95391845703125 C 57.66318893432617 279.0834045410156 42.59215545654297 157.7622833251953 48.00970458984375 105.716064453125 C 77.17770385742188 64.81402587890625 156.35186767578125 -11.204331398010254 277.6774597167969 1.985673189163208 C 25.352750778198242 73.63118743896484 136.7332305908203 97.75885009765625 84.498779296875 94.208740234375" fill="rgb(2, 2, 2)" opacity="1.0" stroke-width="2.0"/>
    <path d="M 350.4490661621094 188.66690063476562 C 372.2371826171875 176.85633850097656 350.4281005859375 177.9698028564453 379.5358581542969 211.10321044921875 C 363.3251953125 234.29525756835938 313.1155090332031 176.17779541015625 365.10107421875 142.95285034179688 C 421.785400390625 133.39657592773438 354.131591796875 164.3035888671875 362.6537780761719 181.0206298828125 C 413.6170959472656 152.18392944335938 392.5641784667969 162.9069366455078 410.41400146484375 208.42579650878906 C 426.77923583984375 144.1212921142578 401.1851501464844 157.3007354736328 350.4490661621094 188.66690063476562" fill="rgb(1, 1, 1)" opacity="1.0" stroke-width="2.0"/>
    <path d="M 310.94781494140625 23.312986373901367 C 296.6199645996094 132.6725616455078 291.5118408203125 159.7546844482422 313.88079833984375 7.420502662658691 C 413.7723693847656 30.444231033325195 474.29681396484375 96.34561920166016 506.3650207519531 190.8322296142578 C 312.4822082519531 129.72406005859375 372.9194030761719 71.3604507446289 310.94781494140625 23.312986373901367" fill="rgb(176, 156, 79)" opacity="1.0" stroke-width="2.0"/>
    <path d="M 295.3057861328125 174.39932250976562 C 298.7138366699219 187.2685546875 299.59027099609375 188.10047912597656 292.8830871582031 151.3710174560547 C 286.89947509765625 138.27606201171875 270.5137939453125 157.66152954101562 290.0003967285156 133.0956573486328 C 298.3390197753906 186.13096618652344 298.94720458984375 186.85838317871094 300.1442565917969 186.1930389404297 C 288.03582763671875 169.55392456054688 308.8254089355469 171.98208618164062 293.8563232421875 174.81285095214844 C 302.9854431152344 177.03427124023438 310.9691162109375 183.11936950683594 295.3057861328125 174.39932250976562" fill="rgb(254, 202, 109)" opacity="1.0" stroke-width="2.0"/>
    <path d="M 21.655818939208984 284.311279296875 C 41.985572814941406 403.82745361328125 93.94078826904297 397.7012634277344 63.66138458251953 427.9095764160156 C 73.45784759521484 387.4400939941406 61.15763854980469 401.3980712890625 110.0662612915039 441.4599304199219 C 162.11709594726562 480.0456237792969 181.27305603027344 472.059326171875 112.04388427734375 469.09930419921875 C 80.92832946777344 398.976318359375 24.891408920288086 420.954833984375 2.5092296600341797 297.27874755859375 C -6.538529872894287 245.98585510253906 26.15138816833496 231.1992645263672 21.655818939208984 284.311279296875" fill="rgb(2, 0, 1)" opacity="1.0" stroke-width="2.0"/>
    <path d="M 81.4217758178711 507.750244140625 C 78.17424011230469 504.25103759765625 86.3872299194336 511.47894287109375 90.83553314208984 525.5430297851562 C 94.52173614501953 517.6522216796875 101.721923828125 508.1291809082031 93.79763793945312 518.1727294921875 C 101.24073028564453 507.472412109375 96.19739532470703 514.019287109375 94.27278137207031 518.0782470703125 C 92.38845825195312 508.1036682128906 90.49079132080078 523.9153442382812 90.93179321289062 516.9046630859375 C 83.3228530883789 528.911376953125 94.79291534423828 524.6715087890625 81.4217758178711 507.750244140625" fill="rgb(152, 180, 243)" opacity="1.0" stroke-width="2.0"/>
    <path d="M 51.220882415771484 413.6546630859375 C 85.79910278320312 443.0194091796875 49.81021499633789 424.1844787597656 18.882143020629883 354.7887878417969 C 43.633827209472656 367.50286865234375 79.89635467529297 402.7019958496094 110.735107421875 467.62860107421875 C 52.37348556518555 426.0092468261719 56.82533645629883 402.1578369140625 37.579036712646484 417.7962646484375 C 41.83352279663086 413.56427001953125 39.47083282470703 417.2469482421875 40.621849060058594 413.3448486328125 C 38.7027702331543 420.381591796875 40.35081100463867 410.62591552734375 51.220882415771484 413.6546630859375" fill="rgb(1, 0, 0)" opacity="1.0" stroke-width="2.0"/>
    <path d="M 248.20753479003906 11.03164005279541 C 45.921329498291016 67.7350082397461 7.356608867645264 173.84445190429688 235.66343688964844 83.01981353759766 C 250.86703491210938 198.1259002685547 79.86808013916016 196.7351531982422 64.96208953857422 119.67695617675781 C 282.0361328125 119.98236083984375 295.66619873046875 -16.794574737548828 248.20753479003906 11.03164005279541" fill="rgb(234, 206, 101)" opacity="1.0" stroke-width="2.0"/>
    <path d="M 147.5100860595703 466.06988525390625 C 300.3256530761719 537.7911376953125 379.4903869628906 432.5632019042969 366.6020812988281 487.6585998535156 C 278.2370300292969 528.8562622070312 221.59988403320312 501.44915771484375 276.82879638671875 519.1604614257812 C 189.09481811523438 501.9168701171875 175.52511596679688 514.1455078125 145.70721435546875 464.04083251953125 C 135.04144287109375 487.0696716308594 172.43594360351562 506.6607666015625 147.5100860595703 466.06988525390625" fill="rgb(1, 0, 1)" opacity="1.0" stroke-width="2.0"/>
    <path d="M 172.74111938476562 415.2759094238281 C 50.29452896118164 419.7213439941406 62.52417755126953 383.83038330078125 39.65864944458008 350.849853515625 C 11.23802375793457 283.419189453125 6.954655170440674 192.72796630859375 72.07501220703125 107.79303741455078 C 181.10806274414062 124.33887481689453 186.2350616455078 132.21070861816406 172.74111938476562 415.2759094238281" fill="rgb(252, 213, 108)" opacity="1.0" stroke-width="2.0"/>
    <path d="M 462.7508239746094 106.1441421508789 C 530.6871948242188 196.04385375976562 510.770751953125 293.2949523925781 505.8768005371094 314.2713317871094 C 497.79254150390625 252.41700744628906 490.3594055175781 216.2966766357422 491.43560791015625 280.940673828125 C 471.3083801269531 398.8235168457031 426.77923583984375 394.13006591796875 471.2634582519531 378.5231628417969 C 518.1365966796875 307.978271484375 516.4296264648438 349.4815368652344 462.7508239746094 106.1441421508789" fill="rgb(1, 1, 1)" opacity="1.0" stroke-width="2.0"/>
    <path d="M 65.98352813720703 37.98381042480469 C 77.32530975341797 51.383880615234375 71.91255950927734 45.170867919921875 65.54702758789062 47.017459869384766 C 71.77651977539062 45.299861907958984 76.47075653076172 50.270084381103516 68.24833679199219 41.11640548706055 C 79.35066986083984 52.6056022644043 75.60014343261719 59.1563606262207 77.66729736328125 59.798954010009766 C 74.94331359863281 59.646446228027344 80.82635498046875 54.68662643432617 69.1539077758789 41.88826370239258 C 68.75081634521484 40.8203239440918 79.95138549804688 53.584556579589844 65.98352813720703 37.98381042480469" fill="rgb(255, 138, 105)" opacity="1.0" stroke-width="2.0"/>
    <path d="M 499.251953125 338.6400451660156 C 501.3416442871094 329.8280334472656 490.85858154296875 372.4965515136719 459.7020263671875 411.6280517578125 C 432.3906555175781 450.3782653808594 350.0399475097656 514.6416015625 324.6501159667969 484.93035888671875 C 487.4871520996094 415.9320983886719 455.802734375 322.05584716796875 499.251953125 338.6400451660156" fill="rgb(1, 0, 1)" opacity="1.0" stroke-width="2.0"/>
  </g>
</svg>
