<?xml version="1.0" ?>
<svg height="512" version="1.1" width="512" xmlns="http://www.w3.org/2000/svg">
  <defs/>
  <g>
    <path d="M 58.16535568237305 49.43989562988281 C 59.61775207519531 48.24442672729492 54.484004974365234 53.20732879638672 53.445106506347656 53.52421569824219 C 36.3067512512207 68.10693359375 29.371471405029297 73.7624282836914 31.974416732788086 74.3208999633789 C 31.340269088745117 70.22492218017578 25.658727645874023 73.12869262695312 41.15300369262695 70.74381256103516 C 29.7960262298584 71.1496810913086 21.350399017333984 82.07463073730469 58.16535568237305 49.43989562988281" fill="rgb(255, 62, 124)" opacity="1.0" stroke-width="2.0"/>
    <path d="M 170.73948669433594 492.3644714355469 C 163.63661193847656 442.0016174316406 110.01350402832031 449.7277526855469 102.77227783203125 472.2702941894531 C 108.949462890625 477.63726806640625 94.84850311279297 478.0891418457031 85.15400695800781 475.53472900390625 C 63.73485565185547 476.1345520019531 73.22113800048828 476.6983947753906 81.1608657836914 475.3856506347656 C 66.81282806396484 477.03668212890625 70.30038452148438 468.4505310058594 170.73948669433594 492.3644714355469" fill="rgb(60, 164, 48)" opacity="1.0" stroke-width="2.0"/>
    <path d="M 208.9115447998047 331.8594970703125 C 206.3589324951172 247.15548706054688 217.4325408935547 256.4741516113281 221.95938110351562 246.7119140625 C 229.86468505859375 242.9942169189453 229.93267822265625 237.58169555664062 324.27764892578125 238.32545471191406 C 331.4926452636719 335.1900329589844 321.179443359375 345.03082275390625 313.41412353515625 355.15924072265625 C 221.37791442871094 347.0295104980469 211.70005798339844 351.6184387207031 208.9115447998047 331.8594970703125" fill="rgb(253, 222, 105)" opacity="1.0" stroke-width="2.0"/>
    <path d="M 432.158447265625 191.97683715820312 C 393.90240478515625 218.05404663085938 395.6995544433594 230.25425720214844 358.119384765625 212.7571563720703 C 350.9109191894531 218.54965209960938 364.58868408203125 223.83999633789062 364.2361755371094 227.11050415039062 C 354.1195373535156 220.18582153320312 351.6820983886719 212.01222229003906 370.4249267578125 202.1348876953125 C 411.52008056640625 192.6219482421875 416.193115234375 166.73831176757812 432.158447265625 191.97683715820312" fill="rgb(76, 36, 47)" opacity="1.0" stroke-width="2.0"/>
    <path d="M 257.0633850097656 267.28497314453125 C 250.43997192382812 241.2169647216797 250.83871459960938 218.04403686523438 248.94229125976562 225.92625427246094 C 271.4656982421875 210.30612182617188 265.7664794921875 225.3992919921875 295.1795654296875 264.8348388671875 C 327.60589599609375 257.8365173339844 322.6510009765625 264.4585876464844 330.8603210449219 186.78500366210938 C 268.0487060546875 178.9882049560547 280.10992431640625 204.59815979003906 257.0633850097656 267.28497314453125" fill="rgb(223, 222, 105)" opacity="1.0" stroke-width="2.0"/>
    <path d="M 416.1221618652344 149.3296356201172 C 425.490478515625 181.11517333984375 422.1786193847656 174.94139099121094 418.5453186035156 176.1757049560547 C 419.78070068359375 173.21630859375 417.4658203125 157.11892700195312 342.8440856933594 165.90353393554688 C 346.3191833496094 156.81646728515625 360.5969543457031 123.37091827392578 416.1221618652344 149.3296356201172" fill="rgb(58, 53, 40)" opacity="1.0" stroke-width="2.0"/>
    <path d="M 308.0466003417969 93.01129913330078 C 314.3422546386719 118.6294174194336 310.494384765625 131.0238800048828 303.2457580566406 133.50440979003906 C 310.2633361816406 141.80361938476562 296.49139404296875 121.97533416748047 307.1389465332031 103.34585571289062 C 310.9360656738281 138.70091247558594 305.7850036621094 147.36434936523438 307.5620422363281 151.2993621826172 C 307.04217529296875 156.7900848388672 307.3937072753906 172.0783233642578 308.073486328125 179.1270751953125 C 315.0462646484375 160.36953735351562 310.016845703125 166.46266174316406 308.0466003417969 93.01129913330078" fill="rgb(163, 147, 118)" opacity="1.0" stroke-width="2.0"/>
    <path d="M 69.13328552246094 111.21157836914062 C 63.504295349121094 154.71217346191406 58.68693923950195 145.21473693847656 44.02630615234375 111.82704162597656 C 33.64377975463867 121.55145263671875 12.846861839294434 167.2691650390625 7.4101057052612305 190.76536560058594 C 84.32228088378906 184.25193786621094 62.7442741394043 154.11508178710938 42.5593376159668 108.48149871826172 C 58.438228607177734 76.33541107177734 100.43595886230469 83.44550323486328 91.0249252319336 85.9484634399414 C 58.98512268066406 141.31427001953125 84.11917877197266 156.61874389648438 69.13328552246094 111.21157836914062" fill="rgb(82, 101, 63)" opacity="1.0" stroke-width="2.0"/>
    <path d="M 338.1268615722656 191.88356018066406 C 359.1956481933594 180.96023559570312 381.7601318359375 182.36810302734375 368.81494140625 212.7275848388672 C 348.7114562988281 210.98114013671875 343.30206298828125 220.61537170410156 342.0545959472656 156.81768798828125 C 378.6997985839844 161.39381408691406 364.7571716308594 186.5300750732422 375.3321228027344 177.77503967285156 C 392.73419189453125 163.670654296875 383.001708984375 173.61575317382812 430.4832763671875 198.70700073242188 C 428.69464111328125 140.62229919433594 413.3431701660156 165.08314514160156 338.1268615722656 191.88356018066406" fill="rgb(81, 95, 69)" opacity="1.0" stroke-width="2.0"/>
    <path d="M 320.8955078125 87.07915496826172 C 319.5879821777344 141.09608459472656 320.0115966796875 154.60475158691406 322.8374328613281 101.86310577392578 C 336.0461120605469 118.61190795898438 326.127685546875 125.35970306396484 339.710205078125 134.89410400390625 C 316.95947265625 146.39796447753906 323.19952392578125 129.2574462890625 320.8955078125 87.07915496826172" fill="rgb(255, 128, 95)" opacity="1.0" stroke-width="2.0"/>
    <path d="M 300.5115051269531 180.5598602294922 C 298.2837829589844 197.0201416015625 305.5659484863281 192.26116943359375 301.3324890136719 174.62100219726562 C 302.22412109375 169.9167022705078 294.7229919433594 182.10891723632812 298.49273681640625 160.70135498046875 C 299.0181884765625 184.76246643066406 298.1527404785156 183.4034423828125 298.9563293457031 194.63633728027344 C 301.84259033203125 182.59742736816406 326.05743408203125 183.9262237548828 302.7168273925781 180.98590087890625 C 309.11346435546875 174.79273986816406 315.5802917480469 181.18814086914062 300.5115051269531 180.5598602294922" fill="rgb(204, 85, 96)" opacity="1.0" stroke-width="2.0"/>
    <path d="M 58.608192443847656 377.112548828125 C 66.24214935302734 404.25274658203125 63.199703216552734 416.97955322265625 74.10496520996094 405.3354797363281 C 76.02070617675781 391.32525634765625 69.12767028808594 401.9839172363281 91.58136749267578 413.04681396484375 C 114.04326629638672 447.3498229980469 116.34249114990234 460.6712646484375 79.408935546875 447.8238220214844 C 64.02426147460938 412.1666259765625 54.99356460571289 418.7263488769531 21.126012802124023 361.59661865234375 C 25.99318504333496 349.76153564453125 38.718017578125 340.7259826660156 58.608192443847656 377.112548828125" fill="rgb(63, 140, 127)" opacity="1.0" stroke-width="2.0"/>
    <path d="M 81.64738464355469 506.0382080078125 C 78.21060943603516 502.0970764160156 86.27978515625 510.5106201171875 89.86752319335938 524.1884765625 C 92.8897476196289 514.246826171875 101.64493560791016 503.6451416015625 97.34515380859375 507.0526123046875 C 101.03711700439453 504.05718994140625 95.24864959716797 511.6966552734375 92.9848861694336 516.3662719726562 C 92.3872299194336 508.10223388671875 90.4549560546875 523.875 90.95677185058594 516.8349609375 C 83.13097381591797 529.1358032226562 94.92204284667969 524.5106811523438 81.64738464355469 506.0382080078125" fill="rgb(145, 173, 233)" opacity="1.0" stroke-width="2.0"/>
    <path d="M 44.20078659057617 413.2110595703125 C 73.7242660522461 430.58404541015625 59.49501037597656 431.1019287109375 24.81700325012207 368.19244384765625 C 57.63224792480469 377.0658874511719 77.87638092041016 395.681396484375 93.68041229248047 452.0776062011719 C 53.24324035644531 416.837158203125 41.225101470947266 408.8739013671875 40.03811264038086 413.5470886230469 C 40.99373245239258 424.12762451171875 40.03139877319336 409.3589782714844 40.272743225097656 407.2134094238281 C 40.131656646728516 418.3130187988281 36.29291915893555 407.66717529296875 44.20078659057617 413.2110595703125" fill="rgb(28, 17, 21)" opacity="1.0" stroke-width="2.0"/>
    <path d="M 150.54676818847656 47.811729431152344 C 111.32489013671875 92.6493911743164 109.95276641845703 128.0116729736328 170.14109802246094 93.09858703613281 C 172.6341094970703 134.677978515625 131.61614990234375 138.57908630371094 144.9232177734375 98.92557525634766 C 176.89390563964844 103.63777923583984 166.33908081054688 126.79315185546875 150.54676818847656 47.811729431152344" fill="rgb(255, 179, 100)" opacity="1.0" stroke-width="2.0"/>
    <path d="M 182.4233856201172 466.9629821777344 C 253.49539184570312 487.6968994140625 270.21246337890625 453.1316833496094 278.7045593261719 510.3677673339844 C 254.82066345214844 521.5198974609375 238.45999145507812 522.6548461914062 227.60189819335938 530.4891357421875 C 197.78225708007812 502.1034240722656 189.1014862060547 525.2907104492188 167.05767822265625 460.952392578125 C 157.46823120117188 504.8959655761719 176.25453186035156 523.0892333984375 182.4233856201172 466.9629821777344" fill="rgb(101, 85, 51)" opacity="1.0" stroke-width="2.0"/>
    <path d="M 158.3414306640625 263.2193603515625 C 117.86946105957031 255.15794372558594 119.83433532714844 243.86988830566406 138.8974609375 244.2342529296875 C 115.26527404785156 249.31588745117188 109.76181030273438 230.57833862304688 137.2827606201172 231.93099975585938 C 131.55918884277344 230.8723907470703 147.34451293945312 205.26177978515625 158.3414306640625 263.2193603515625" fill="rgb(182, 224, 131)" opacity="1.0" stroke-width="2.0"/>
    <path d="M 492.6813659667969 263.4197082519531 C 532.5858764648438 267.00579833984375 510.2521057128906 273.9381103515625 501.21697998046875 337.932861328125 C 490.33984375 320.2966003417969 487.73260498046875 280.31005859375 479.3382568359375 334.9193115234375 C 463.78277587890625 367.53094482421875 459.1910705566406 362.9641418457031 487.23590087890625 366.70208740234375 C 517.3977661132812 309.92926025390625 474.88348388671875 341.8381652832031 492.6813659667969 263.4197082519531" fill="rgb(9, 37, 131)" opacity="1.0" stroke-width="2.0"/>
    <path d="M 62.10108184814453 40.76266860961914 C 72.61112213134766 50.84587860107422 76.69335174560547 42.500606536865234 63.37325668334961 47.92623519897461 C 70.458740234375 43.4095573425293 75.73480224609375 51.5306396484375 65.97516632080078 41.94707107543945 C 79.75651550292969 54.84345245361328 75.5674819946289 55.17558288574219 76.17144775390625 60.937801361083984 C 73.47486114501953 62.37150192260742 82.34910583496094 55.35680389404297 67.75586700439453 45.128807067871094 C 68.11045837402344 45.843955993652344 82.16474914550781 55.954891204833984 62.10108184814453 40.76266860961914" fill="rgb(255, 131, 97)" opacity="1.0" stroke-width="2.0"/>
    <path d="M 493.84771728515625 357.1961669921875 C 492.5054016113281 348.85113525390625 487.15625 375.6456604003906 465.6405334472656 403.679931640625 C 443.4445495605469 433.5631103515625 444.7098693847656 436.79248046875 420.9068908691406 433.8768310546875 C 454.0741271972656 359.9525146484375 490.4999084472656 338.5252380371094 493.84771728515625 357.1961669921875" fill="rgb(75, 36, 19)" opacity="1.0" stroke-width="2.0"/>
  </g>
</svg>
