<?xml version="1.0" ?>
<svg height="512" version="1.1" width="512" xmlns="http://www.w3.org/2000/svg">
  <defs/>
  <g>
    <path d="M 58.62763214111328 50.1796760559082 C 59.63584518432617 49.303016662597656 54.87442398071289 53.6055793762207 54.213905334472656 54.06002426147461 C 36.937782287597656 68.799072265625 31.320402145385742 73.1111831665039 32.1279411315918 72.17704772949219 C 36.723880767822266 71.80754089355469 27.390575408935547 73.72117614746094 38.10612106323242 68.58538818359375 C 30.865543365478516 71.6336898803711 22.07369613647461 81.73455047607422 58.62763214111328 50.1796760559082" fill="rgb(255, 70, 132)" opacity="1.0" stroke-width="2.0"/>
    <path d="M 183.916748046875 503.1857604980469 C 155.18801879882812 441.79571533203125 72.27484130859375 440.1570739746094 101.89264678955078 461.5398254394531 C 155.06332397460938 497.1171569824219 144.8234405517578 484.9629211425781 91.28598022460938 466.8539123535156 C 64.10017395019531 468.47216796875 74.44539642333984 467.4537048339844 93.07587432861328 466.9395751953125 C 86.3120346069336 465.9379577636719 75.2790298461914 458.69708251953125 183.916748046875 503.1857604980469" fill="rgb(0, 22, 1)" opacity="1.0" stroke-width="2.0"/>
    <path d="M 96.52037048339844 444.807861328125 C 126.37572479248047 197.99647521972656 164.66436767578125 217.17234802246094 173.1881866455078 181.38294982910156 C 184.78317260742188 179.71990966796875 200.45333862304688 194.509765625 453.4006042480469 190.59288024902344 C 455.8505554199219 434.0773620605469 439.98101806640625 429.3644104003906 417.9347839355469 481.31292724609375 C 135.48854064941406 481.1631164550781 129.49163818359375 478.04931640625 96.52037048339844 444.807861328125" fill="rgb(251, 219, 110)" opacity="1.0" stroke-width="2.0"/>
    <path d="M 422.62127685546875 181.2760772705078 C 419.5359191894531 217.1037139892578 379.807373046875 230.5379180908203 357.5654602050781 210.69493103027344 C 358.6102294921875 209.29515075683594 362.7509460449219 220.90504455566406 366.0078430175781 224.9259796142578 C 356.4020080566406 208.56094360351562 347.199951171875 179.23451232910156 374.8164367675781 198.51580810546875 C 408.90936279296875 209.0782928466797 399.9327087402344 153.45217895507812 422.62127685546875 181.2760772705078" fill="rgb(2, 2, 2)" opacity="1.0" stroke-width="2.0"/>
    <path d="M 242.11570739746094 214.00503540039062 C 224.68389892578125 221.44854736328125 184.83900451660156 228.8848114013672 167.99520874023438 183.71568298339844 C 244.13540649414062 188.46142578125 219.74644470214844 216.1822052001953 274.9549865722656 190.7469024658203 C 341.0528259277344 182.7225799560547 360.17510986328125 246.0474853515625 368.2169189453125 131.40086364746094 C 188.50735473632812 102.96016693115234 209.16221618652344 116.41387176513672 242.11570739746094 214.00503540039062" fill="rgb(112, 56, 43)" opacity="1.0" stroke-width="2.0"/>
    <path d="M 410.86181640625 151.2428741455078 C 431.0203857421875 175.85488891601562 418.2493896484375 187.29574584960938 420.5628356933594 195.8305206298828 C 409.4598388671875 180.44224548339844 408.8265075683594 146.50845336914062 346.3577880859375 166.16567993164062 C 340.6427917480469 164.54425048828125 372.4197692871094 118.3702163696289 410.86181640625 151.2428741455078" fill="rgb(2, 1, 1)" opacity="1.0" stroke-width="2.0"/>
    <path d="M 270.4945373535156 8.96237564086914 C 374.3974914550781 14.22356128692627 341.94793701171875 125.99235534667969 263.9898376464844 183.489013671875 C 210.888671875 123.05726623535156 185.89015197753906 8.535679817199707 241.35104370117188 -25.350008010864258 C 348.39019775390625 104.637939453125 318.87725830078125 133.62010192871094 279.14300537109375 172.54135131835938 C 242.06715393066406 191.13995361328125 237.5875701904297 236.69882202148438 350.96307373046875 251.77639770507812 C 371.5328674316406 127.55900573730469 332.5292053222656 122.88587188720703 270.4945373535156 8.96237564086914" fill="rgb(248, 220, 108)" opacity="1.0" stroke-width="2.0"/>
    <path d="M 80.11305236816406 98.97595977783203 C 21.20064926147461 165.7677764892578 46.133155822753906 199.31907653808594 47.807518005371094 105.71622467041016 C 38.194602966308594 121.7737045288086 -3.2204298973083496 171.0871124267578 -1.4988377094268799 276.50244140625 C 63.77902603149414 276.2254638671875 37.00629425048828 153.07916259765625 50.19192123413086 102.11064910888672 C 91.60356140136719 53.1515007019043 124.32320404052734 27.02962303161621 194.11053466796875 6.83186674118042 C 38.91151809692383 126.27979278564453 75.85356140136719 106.00284576416016 80.11305236816406 98.97595977783203" fill="rgb(2, 2, 2)" opacity="1.0" stroke-width="2.0"/>
    <path d="M 349.5690612792969 188.4285430908203 C 370.1016540527344 178.2790985107422 351.8696594238281 175.88746643066406 382.85589599609375 218.28228759765625 C 367.07086181640625 223.54049682617188 330.7066650390625 202.11264038085938 345.9453430175781 160.733642578125 C 411.0711364746094 144.0153350830078 351.9819641113281 167.7114715576172 362.95758056640625 181.61769104003906 C 413.8670959472656 148.3077392578125 391.8963928222656 170.28822326660156 411.0807800292969 208.60977172851562 C 423.80841064453125 136.64329528808594 406.8117370605469 157.51516723632812 349.5690612792969 188.4285430908203" fill="rgb(2, 1, 2)" opacity="1.0" stroke-width="2.0"/>
    <path d="M 310.457763671875 3.6671104431152344 C 286.3585510253906 138.26901245117188 301.13714599609375 177.34609985351562 302.5791015625 4.467761993408203 C 432.9022216796875 41.06821823120117 461.2643127441406 59.73550796508789 471.0843505859375 146.45619201660156 C 259.708251953125 139.56846618652344 319.0584411621094 135.74942016601562 310.457763671875 3.6671104431152344" fill="rgb(194, 176, 93)" opacity="1.0" stroke-width="2.0"/>
    <path d="M 294.5211486816406 173.9534149169922 C 297.94757080078125 187.4864959716797 299.1907958984375 188.2486114501953 289.26177978515625 156.60523986816406 C 297.80072021484375 145.5775909423828 287.2925109863281 166.45542907714844 287.51611328125 146.37060546875 C 296.82513427734375 187.58070373535156 299.68450927734375 186.64202880859375 299.4247741699219 187.0970458984375 C 287.8433532714844 169.0623016357422 310.7500915527344 171.71572875976562 293.4361572265625 174.96524047851562 C 303.5283508300781 176.98768615722656 311.0188293457031 183.37371826171875 294.5211486816406 173.9534149169922" fill="rgb(255, 180, 111)" opacity="1.0" stroke-width="2.0"/>
    <path d="M 20.951213836669922 283.05963134765625 C 44.5196418762207 410.55816650390625 93.43944549560547 393.1269836425781 63.3978385925293 428.1195068359375 C 71.1269760131836 390.0044250488281 65.57675170898438 398.99371337890625 101.90663146972656 435.6576232910156 C 147.236328125 461.0468444824219 147.58441162109375 480.354736328125 109.10161590576172 466.9518737792969 C 80.04591369628906 395.6934814453125 27.85563850402832 427.347412109375 2.6233341693878174 297.8852233886719 C -6.883706092834473 248.85879516601562 31.3472843170166 233.35760498046875 20.951213836669922 283.05963134765625" fill="rgb(3, 2, 2)" opacity="1.0" stroke-width="2.0"/>
    <path d="M 81.74519348144531 506.8450927734375 C 78.5384292602539 503.19879150390625 86.6121597290039 510.9036560058594 90.91671752929688 525.267333984375 C 94.53218078613281 517.5992431640625 101.74288940429688 508.02490234375 93.76264190673828 517.9502563476562 C 101.22345733642578 507.5185546875 96.1925277709961 514.0435180664062 94.27095794677734 518.0836791992188 C 92.38845825195312 508.1036682128906 90.49079132080078 523.9153442382812 90.8887939453125 516.91650390625 C 83.15091705322266 529.0557861328125 94.85934448242188 524.5266723632812 81.74519348144531 506.8450927734375" fill="rgb(151, 178, 241)" opacity="1.0" stroke-width="2.0"/>
    <path d="M 49.26235580444336 411.9534912109375 C 83.45034790039062 439.9496765136719 54.069068908691406 429.3070373535156 18.88526725769043 355.2716064453125 C 47.14509582519531 363.9210510253906 76.3210220336914 404.06890869140625 109.27741241455078 466.500732421875 C 50.60106658935547 423.24505615234375 55.19330978393555 402.9794006347656 40.77927017211914 416.0277404785156 C 40.11713790893555 418.420166015625 41.77381896972656 413.7912292480469 41.70075988769531 411.21295166015625 C 40.33279800415039 420.94781494140625 40.599708557128906 412.5549621582031 49.26235580444336 411.9534912109375" fill="rgb(2, 1, 1)" opacity="1.0" stroke-width="2.0"/>
    <path d="M 226.27049255371094 -14.636576652526855 C 58.73633575439453 99.36463928222656 7.051175117492676 171.0731658935547 232.3291778564453 93.00564575195312 C 246.48629760742188 214.8950653076172 90.09040832519531 222.9774169921875 53.86642837524414 124.09098815917969 C 280.1117858886719 135.88671875 284.8385925292969 -3.9125497341156006 226.27049255371094 -14.636576652526855" fill="rgb(211, 186, 93)" opacity="1.0" stroke-width="2.0"/>
    <path d="M 157.8905487060547 471.80023193359375 C 316.1210632324219 531.370361328125 366.7574768066406 434.3444519042969 363.4300537109375 489.5370788574219 C 265.9555969238281 529.9157104492188 232.80271911621094 500.2969970703125 267.0243835449219 517.1836547851562 C 194.3559112548828 503.39892578125 178.66978454589844 514.9271850585938 150.77931213378906 464.7924499511719 C 142.28057861328125 492.07135009765625 167.75552368164062 508.0884094238281 157.8905487060547 471.80023193359375" fill="rgb(5, 2, 1)" opacity="1.0" stroke-width="2.0"/>
    <path d="M 183.12635803222656 392.23284912109375 C 27.17232322692871 392.9958190917969 43.01996612548828 369.6515808105469 43.642459869384766 325.54833984375 C 7.880311012268066 321.3738098144531 12.460539817810059 175.43836975097656 60.82060241699219 128.38510131835938 C 172.33233642578125 144.7202911376953 188.75689697265625 140.10585021972656 183.12635803222656 392.23284912109375" fill="rgb(252, 214, 108)" opacity="1.0" stroke-width="2.0"/>
    <path d="M 478.1899108886719 155.1439971923828 C 545.6392211914062 224.73590087890625 511.2643127441406 253.42063903808594 504.2810974121094 328.9966125488281 C 492.1187438964844 280.2290954589844 495.23394775390625 240.25901794433594 486.21124267578125 309.33477783203125 C 462.2457275390625 395.878662109375 430.1782531738281 393.2891540527344 474.48565673828125 377.89080810546875 C 521.8671264648438 305.6192626953125 497.5616149902344 361.90301513671875 478.1899108886719 155.1439971923828" fill="rgb(16, 23, 12)" opacity="1.0" stroke-width="2.0"/>
    <path d="M 64.73263549804688 39.20258712768555 C 75.98220825195312 50.590396881103516 70.05796813964844 44.514068603515625 64.55601501464844 46.44395065307617 C 69.16328430175781 44.15363693237305 74.82857513427734 50.22770309448242 66.48953247070312 42.72206115722656 C 79.16841125488281 53.39640808105469 75.70748138427734 58.69831848144531 74.58830261230469 60.70346450805664 C 74.02230834960938 60.74459457397461 81.40308380126953 54.477962493896484 67.2616195678711 44.24834442138672 C 67.01637268066406 44.44578170776367 80.75789642333984 55.78974914550781 64.73263549804688 39.20258712768555" fill="rgb(255, 135, 102)" opacity="1.0" stroke-width="2.0"/>
    <path d="M 491.76385498046875 344.6077575683594 C 503.59124755859375 332.859375 488.6761779785156 371.8697814941406 460.5898742675781 410.90606689453125 C 431.4265441894531 449.55633544921875 360.26947021484375 508.4796447753906 328.04144287109375 487.1060791015625 C 496.63629150390625 399.59759521484375 454.3311767578125 326.3776550292969 491.76385498046875 344.6077575683594" fill="rgb(2, 1, 2)" opacity="1.0" stroke-width="2.0"/>
  </g>
</svg>
