<?xml version="1.0" ?>
<svg height="512" version="1.1" width="512" xmlns="http://www.w3.org/2000/svg">
  <defs/>
  <g>
    <path d="M 58.86404800415039 51.06378936767578 C 58.2570915222168 51.38559341430664 54.89463806152344 54.679744720458984 54.74196243286133 54.69184875488281 C 37.27241897583008 69.14949798583984 31.86263084411621 73.45867919921875 32.70811080932617 71.94698333740234 C 36.07918167114258 68.23759460449219 29.777816772460938 75.2663803100586 36.40755081176758 68.64451599121094 C 33.90039825439453 70.74777221679688 22.754423141479492 81.2324447631836 58.86404800415039 51.06378936767578" fill="rgb(255, 85, 149)" opacity="1.0" stroke-width="2.0"/>
    <path d="M 182.77464294433594 502.74920654296875 C 157.95252990722656 441.0911560058594 77.60520935058594 437.81591796875 109.77254486083984 467.0735778808594 C 157.13217163085938 496.8487243652344 159.39332580566406 491.251953125 89.8092269897461 467.546630859375 C 66.65302276611328 467.09991455078125 78.7982406616211 467.42474365234375 88.00318145751953 467.4989013671875 C 89.79023742675781 468.6468811035156 74.64836883544922 459.8563232421875 182.77464294433594 502.74920654296875" fill="rgb(1, 1, 1)" opacity="1.0" stroke-width="2.0"/>
    <path d="M 66.7890396118164 411.1636047363281 C 112.42237854003906 172.43026733398438 142.3408966064453 164.4225616455078 210.16561889648438 128.78575134277344 C 203.24749755859375 187.25335693359375 163.88710021972656 204.87779235839844 490.414794921875 106.71991729736328 C 502.4701843261719 476.2047424316406 454.99609375 392.4078674316406 366.455078125 485.42608642578125 C 154.74449157714844 504.6490173339844 156.171142578125 479.71728515625 66.7890396118164 411.1636047363281" fill="rgb(251, 220, 112)" opacity="1.0" stroke-width="2.0"/>
    <path d="M 422.3472900390625 180.47882080078125 C 420.6040344238281 216.2416229248047 381.1011047363281 231.2436981201172 356.17510986328125 210.2593994140625 C 359.1369323730469 207.3432159423828 362.487548828125 218.9017791748047 365.58819580078125 224.3629150390625 C 356.57965087890625 206.7969970703125 345.6745300292969 176.4934539794922 373.9097595214844 198.6571502685547 C 413.33544921875 208.7331085205078 396.2016296386719 151.0328826904297 422.3472900390625 180.47882080078125" fill="rgb(2, 1, 2)" opacity="1.0" stroke-width="2.0"/>
    <path d="M 252.4889373779297 187.38568115234375 C 233.27426147460938 257.6072082519531 117.85692596435547 202.53076171875 206.56520080566406 125.0923843383789 C 175.88587951660156 224.29559326171875 203.86935424804688 214.68418884277344 288.1559753417969 154.70843505859375 C 349.0540771484375 156.9150848388672 362.5810852050781 212.74136352539062 354.72265625 148.9033660888672 C 142.45303344726562 137.956298828125 174.65216064453125 125.11537170410156 252.4889373779297 187.38568115234375" fill="rgb(7, 7, 8)" opacity="1.0" stroke-width="2.0"/>
    <path d="M 410.7360534667969 151.69151306152344 C 429.9715270996094 172.3035125732422 419.2412109375 194.4143829345703 415.8507995605469 198.0167236328125 C 398.22894287109375 178.36859130859375 403.0272521972656 140.24835205078125 351.1973876953125 172.01303100585938 C 338.6117858886719 164.77450561523438 376.9836120605469 119.16879272460938 410.7360534667969 151.69151306152344" fill="rgb(1, 1, 2)" opacity="1.0" stroke-width="2.0"/>
    <path d="M 297.848876953125 11.052983283996582 C 403.490966796875 52.32191848754883 346.8016662597656 104.35140228271484 247.56126403808594 156.3424530029297 C 171.8460235595703 106.69489288330078 168.61158752441406 39.74222183227539 233.88169860839844 -4.791954517364502 C 417.7394714355469 33.75857162475586 365.761962890625 94.8260726928711 247.1660614013672 156.42666625976562 C 247.2919921875 146.19285583496094 258.1047668457031 263.30902099609375 356.158447265625 159.23289489746094 C 524.4923095703125 119.1863021850586 450.22979736328125 93.34452056884766 297.848876953125 11.052983283996582" fill="rgb(250, 221, 108)" opacity="1.0" stroke-width="2.0"/>
    <path d="M 89.60366821289062 88.64177703857422 C 26.558631896972656 157.88417053222656 50.66689682006836 214.07493591308594 47.476871490478516 106.19976043701172 C 38.686859130859375 120.58789825439453 -6.316097736358643 177.0725860595703 -0.20139029622077942 278.993896484375 C 51.78638458251953 279.11212158203125 47.497528076171875 158.65846252441406 47.51941680908203 108.73613739013672 C 69.13384246826172 64.69547271728516 186.0189208984375 -27.770532608032227 282.0234375 11.210941314697266 C 32.53986740112305 49.444541931152344 171.87022399902344 100.4310531616211 89.60366821289062 88.64177703857422" fill="rgb(4, 3, 3)" opacity="1.0" stroke-width="2.0"/>
    <path d="M 349.5127258300781 185.82000732421875 C 374.6136779785156 172.54290771484375 348.2450866699219 180.42640686035156 378.4626159667969 205.142578125 C 358.5668029785156 238.68557739257812 310.91290283203125 164.58578491210938 373.513671875 139.5777587890625 C 449.8995056152344 144.8372802734375 353.42095947265625 154.85987854003906 363.39764404296875 178.2622833251953 C 416.1532287597656 150.94903564453125 394.775146484375 163.24676513671875 406.2529602050781 209.25521850585938 C 426.19635009765625 143.7937774658203 401.3624572753906 157.46658325195312 349.5127258300781 185.82000732421875" fill="rgb(2, 1, 2)" opacity="1.0" stroke-width="2.0"/>
    <path d="M 312.80718994140625 20.264440536499023 C 294.060791015625 124.10575866699219 288.4868469238281 152.6779022216797 314.3232116699219 9.859894752502441 C 407.3270263671875 23.474287033081055 477.60595703125 102.38569641113281 494.18682861328125 175.45635986328125 C 425.6380920410156 117.59112548828125 468.9645690917969 92.17680358886719 312.80718994140625 20.264440536499023" fill="rgb(24, 12, 17)" opacity="1.0" stroke-width="2.0"/>
    <path d="M 295.34173583984375 174.35157775878906 C 298.94732666015625 187.27369689941406 300.11431884765625 187.9430694580078 293.7850341796875 150.61228942871094 C 271.45263671875 139.8889617919922 257.0077209472656 153.92593383789062 296.7073059082031 126.46463775634766 C 298.9176940917969 185.7770233154297 298.4405822753906 186.96688842773438 300.1017761230469 186.16021728515625 C 288.10272216796875 169.58544921875 308.65185546875 172.01280212402344 294.0181884765625 174.82725524902344 C 302.9310607910156 177.04214477539062 310.9989929199219 183.07528686523438 295.34173583984375 174.35157775878906" fill="rgb(253, 222, 108)" opacity="1.0" stroke-width="2.0"/>
    <path d="M 21.809812545776367 284.7513122558594 C 41.7064323425293 402.9716796875 94.15483093261719 398.0873107910156 63.57057189941406 427.78350830078125 C 73.50950622558594 386.7543029785156 60.812156677246094 401.9038391113281 110.85672760009766 441.5562744140625 C 162.166748046875 481.70294189453125 184.72506713867188 469.77130126953125 112.21835327148438 469.1097412109375 C 81.54920959472656 400.7164001464844 24.46681785583496 418.30914306640625 2.618168830871582 297.53997802734375 C -6.095693111419678 245.6207733154297 22.638025283813477 231.23867797851562 21.809812545776367 284.7513122558594" fill="rgb(2, 0, 1)" opacity="1.0" stroke-width="2.0"/>
    <path d="M 81.3271255493164 508.9169006347656 C 78.5746078491211 505.62579345703125 85.82556915283203 512.8765258789062 90.08379364013672 526.7678833007812 C 94.52173614501953 517.6522216796875 101.721923828125 508.1291809082031 93.79763793945312 518.1727294921875 C 101.24073028564453 507.472412109375 96.19739532470703 514.019287109375 94.27278137207031 518.0782470703125 C 92.38845825195312 508.1036682128906 90.49079132080078 523.9153442382812 90.89476013183594 516.9181518554688 C 82.85261535644531 529.4702758789062 93.58267974853516 526.0043334960938 81.3271255493164 508.9169006347656" fill="rgb(154, 182, 248)" opacity="1.0" stroke-width="2.0"/>
    <path d="M 51.898902893066406 414.5335693359375 C 86.09132385253906 443.771484375 48.09933090209961 421.42047119140625 18.962732315063477 354.3946228027344 C 43.39875030517578 367.3643493652344 79.74642181396484 403.0382995605469 111.16468048095703 467.741943359375 C 52.882877349853516 427.08331298828125 57.2435417175293 401.77825927734375 36.59358215332031 418.27874755859375 C 42.44892120361328 413.02008056640625 38.61188507080078 418.48101806640625 40.31095504760742 412.93402099609375 C 38.811500549316406 420.4611511230469 41.79764175415039 410.05419921875 51.898902893066406 414.5335693359375" fill="rgb(1, 0, 0)" opacity="1.0" stroke-width="2.0"/>
    <path d="M 248.85784912109375 17.148681640625 C 48.591251373291016 49.0537223815918 13.304179191589355 190.98895263671875 237.6958465576172 82.71646881103516 C 243.98651123046875 175.71104431152344 56.59606170654297 173.65286254882812 61.74779510498047 129.547607421875 C 276.89727783203125 116.0352783203125 296.9615783691406 1.0437920093536377 248.85784912109375 17.148681640625" fill="rgb(251, 220, 108)" opacity="1.0" stroke-width="2.0"/>
    <path d="M 147.02069091796875 466.06707763671875 C 301.5975341796875 538.52099609375 382.9803466796875 430.94390869140625 367.4337463378906 487.09521484375 C 282.60205078125 528.1983642578125 217.06195068359375 502.4043273925781 279.8044738769531 519.1309814453125 C 189.7415008544922 503.03509521484375 173.16880798339844 512.7880249023438 145.75286865234375 464.2479248046875 C 135.0697479248047 487.05963134765625 172.2860870361328 506.9001770019531 147.02069091796875 466.06707763671875" fill="rgb(1, 0, 1)" opacity="1.0" stroke-width="2.0"/>
    <path d="M 163.86802673339844 418.4207763671875 C 60.182159423828125 421.7355041503906 61.58328628540039 386.795166015625 41.02346420288086 352.8292236328125 C 10.794304847717285 287.5248107910156 4.995107650756836 184.0428466796875 80.85792541503906 97.81339263916016 C 188.5260009765625 115.94781494140625 181.57098388671875 127.07117462158203 163.86802673339844 418.4207763671875" fill="rgb(252, 213, 108)" opacity="1.0" stroke-width="2.0"/>
    <path d="M 449.52008056640625 87.4057388305664 C 535.2180786132812 187.30076599121094 509.5412292480469 296.9877014160156 506.85247802734375 309.8293762207031 C 502.1763916015625 247.3935546875 484.6476745605469 193.43275451660156 492.37628173828125 257.15289306640625 C 485.1399230957031 387.12750244140625 421.254638671875 396.069091796875 473.20599365234375 381.6726379394531 C 513.0030517578125 313.1399841308594 528.379150390625 329.6438903808594 449.52008056640625 87.4057388305664" fill="rgb(1, 1, 1)" opacity="1.0" stroke-width="2.0"/>
    <path d="M 66.15227508544922 38.00678634643555 C 76.15076446533203 50.99375915527344 73.12164306640625 44.10478973388672 66.2994155883789 46.59783935546875 C 70.66465759277344 44.342987060546875 76.44617462158203 49.031578063964844 68.840087890625 41.648494720458984 C 79.74385070800781 52.83673095703125 74.92608642578125 58.62806701660156 76.59049224853516 53.77276611328125 C 75.6722640991211 59.09031677246094 79.45629119873047 54.44759750366211 69.83733367919922 41.805789947509766 C 69.60250091552734 41.77197265625 78.83609771728516 53.92974090576172 66.15227508544922 38.00678634643555" fill="rgb(255, 142, 108)" opacity="1.0" stroke-width="2.0"/>
    <path d="M 500.16363525390625 335.3233337402344 C 500.82720947265625 329.633056640625 491.0759582519531 372.2376403808594 459.0967712402344 412.4811096191406 C 431.4419250488281 451.3584899902344 347.9100341796875 516.0127563476562 324.0580749511719 483.9738464355469 C 482.0999755859375 422.6750183105469 460.11492919921875 317.5133972167969 500.16363525390625 335.3233337402344" fill="rgb(1, 0, 1)" opacity="1.0" stroke-width="2.0"/>
  </g>
</svg>
