<?xml version="1.0" ?>
<svg height="512" version="1.1" width="512" xmlns="http://www.w3.org/2000/svg">
  <defs/>
  <g>
    <path d="M 58.505008697509766 50.110084533691406 C 59.394100189208984 48.83768081665039 54.87397003173828 53.43183517456055 53.95647430419922 53.75487518310547 C 37.14433288574219 68.99620056152344 31.368486404418945 73.10930633544922 31.610193252563477 72.5307388305664 C 36.861995697021484 71.711181640625 27.05584144592285 73.68293762207031 38.07893753051758 68.98213195800781 C 30.39780044555664 71.53544616699219 22.4962215423584 82.50094604492188 58.505008697509766 50.110084533691406" fill="rgb(255, 68, 130)" opacity="1.0" stroke-width="2.0"/>
    <path d="M 185.39718627929688 503.8283386230469 C 149.45960998535156 440.9916687011719 72.39139556884766 439.3746032714844 98.92964935302734 459.2063293457031 C 149.4623260498047 493.7906188964844 136.19674682617188 481.47845458984375 90.03284454345703 466.7704162597656 C 63.8803825378418 469.9339904785156 73.94975280761719 468.28326416015625 93.0695571899414 466.4323425292969 C 82.87950134277344 467.2844543457031 76.41119384765625 458.1884765625 185.39718627929688 503.8283386230469" fill="rgb(39, 51, 18)" opacity="1.0" stroke-width="2.0"/>
    <path d="M 132.04348754882812 423.7185974121094 C 145.03224182128906 210.9294891357422 168.18658447265625 218.26693725585938 172.73568725585938 191.9648895263672 C 184.26638793945312 186.0279998779297 204.86181640625 191.89268493652344 409.1772155761719 210.16128540039062 C 414.779296875 406.1781311035156 404.372802734375 412.59124755859375 400.50360107421875 443.91973876953125 C 154.89463806152344 437.09844970703125 146.02735900878906 440.96112060546875 132.04348754882812 423.7185974121094" fill="rgb(252, 222, 108)" opacity="1.0" stroke-width="2.0"/>
    <path d="M 422.22216796875 182.22589111328125 C 419.5108337402344 217.33743286132812 379.7436828613281 230.13856506347656 357.3500671386719 210.963623046875 C 359.1759033203125 210.07650756835938 363.1800842285156 221.85867309570312 366.0054016113281 225.40011596679688 C 356.2970886230469 210.4466552734375 348.53704833984375 182.23690795898438 378.0044250488281 199.7720184326172 C 405.6885986328125 204.73072814941406 405.3380126953125 154.55833435058594 422.22216796875 182.22589111328125" fill="rgb(6, 2, 2)" opacity="1.0" stroke-width="2.0"/>
    <path d="M 224.9434814453125 209.22154235839844 C 216.24853515625 242.4065704345703 186.18858337402344 255.81564331054688 185.99415588378906 200.10870361328125 C 237.26100158691406 177.84742736816406 209.39303588867188 225.1251220703125 266.5360107421875 245.46026611328125 C 348.4515686035156 228.66650390625 360.40325927734375 281.8268737792969 364.8309326171875 133.90953063964844 C 191.4927215576172 105.82383728027344 207.95501708984375 121.31367492675781 224.9434814453125 209.22154235839844" fill="rgb(212, 180, 97)" opacity="1.0" stroke-width="2.0"/>
    <path d="M 411.56182861328125 151.7457733154297 C 430.1065979003906 177.89645385742188 418.6307678222656 185.3851776123047 420.21710205078125 195.49888610839844 C 412.33380126953125 180.8101806640625 409.9825744628906 148.21774291992188 345.2220153808594 165.0419921875 C 343.4877624511719 164.756103515625 368.72235107421875 117.79236602783203 411.56182861328125 151.7457733154297" fill="rgb(5, 2, 1)" opacity="1.0" stroke-width="2.0"/>
    <path d="M 280.51141357421875 2.9868831634521484 C 364.5027160644531 37.156097412109375 338.65472412109375 128.7938690185547 256.8592834472656 164.19146728515625 C 221.6580047607422 142.38861083984375 203.54769897460938 37.46072769165039 264.9493713378906 4.481165885925293 C 336.81988525390625 111.84355926513672 305.64556884765625 134.54103088378906 288.7474365234375 144.74632263183594 C 280.0093688964844 162.67601013183594 276.88330078125 192.88381958007812 326.01837158203125 209.87290954589844 C 347.8455505371094 149.94529724121094 317.0138854980469 153.959228515625 280.51141357421875 2.9868831634521484" fill="rgb(252, 220, 108)" opacity="1.0" stroke-width="2.0"/>
    <path d="M 73.10121154785156 106.92147064208984 C 22.545087814331055 173.4717559814453 36.94243240356445 186.32777404785156 47.774723052978516 105.60009002685547 C 37.283390045166016 124.6252212524414 1.4615676403045654 165.3738555908203 -0.40249720215797424 255.10484313964844 C 44.21317672729492 246.65518188476562 35.60078430175781 141.12222290039062 49.9525032043457 101.52256774902344 C 94.62198638916016 50.77927017211914 119.34577178955078 34.904117584228516 157.3035888671875 19.664913177490234 C 49.451316833496094 140.47491455078125 65.06859588623047 96.33526611328125 73.10121154785156 106.92147064208984" fill="rgb(6, 4, 2)" opacity="1.0" stroke-width="2.0"/>
    <path d="M 348.9184265136719 188.95143127441406 C 368.8355407714844 178.95419311523438 355.042724609375 179.1318817138672 381.74505615234375 219.48927307128906 C 365.5025634765625 216.9892578125 331.8264465332031 206.1602325439453 345.86993408203125 161.39028930664062 C 404.552734375 145.42495727539062 347.0740051269531 175.53213500976562 365.1290588378906 180.94932556152344 C 414.9344177246094 148.5743865966797 390.1181945800781 171.32958984375 412.2904968261719 205.80221557617188 C 423.2647399902344 135.67855834960938 409.0891418457031 158.86767578125 348.9184265136719 188.95143127441406" fill="rgb(0, 0, 0)" opacity="1.0" stroke-width="2.0"/>
    <path d="M 312.5216369628906 5.865592956542969 C 287.3511962890625 147.7242889404297 302.17510986328125 184.68548583984375 310.4226379394531 3.851162910461426 C 430.75567626953125 22.543136596679688 425.5069274902344 33.20878982543945 417.7889099121094 127.8299789428711 C 271.63165283203125 174.8812255859375 317.86358642578125 165.57785034179688 312.5216369628906 5.865592956542969" fill="rgb(215, 184, 105)" opacity="1.0" stroke-width="2.0"/>
    <path d="M 294.2688293457031 174.07028198242188 C 298.01397705078125 187.9988555908203 300.5614013671875 187.4700164794922 289.36041259765625 159.20550537109375 C 300.78704833984375 145.2732391357422 287.8511962890625 164.3385009765625 287.58905029296875 144.808837890625 C 296.2132873535156 188.31503295898438 299.593505859375 186.4488983154297 299.0994873046875 187.70907592773438 C 288.9335021972656 168.5025177001953 312.65582275390625 171.32720947265625 293.54736328125 175.27334594726562 C 303.64019775390625 177.24464416503906 311.2554016113281 183.3557586669922 294.2688293457031 174.07028198242188" fill="rgb(254, 174, 110)" opacity="1.0" stroke-width="2.0"/>
    <path d="M 24.901092529296875 305.4111328125 C 55.67497253417969 411.97906494140625 86.01727294921875 398.1250915527344 71.40536499023438 414.4862060546875 C 68.13524627685547 393.99835205078125 66.6043472290039 398.87640380859375 99.38601684570312 432.48114013671875 C 139.58197021484375 457.88372802734375 137.5107421875 482.2308044433594 108.51061248779297 465.0184631347656 C 73.03130340576172 401.7442932128906 34.9763298034668 429.0965881347656 4.906375408172607 309.784423828125 C -9.891783714294434 273.22039794921875 25.809795379638672 260.3737487792969 24.901092529296875 305.4111328125" fill="rgb(4, 1, 0)" opacity="1.0" stroke-width="2.0"/>
    <path d="M 81.65852355957031 506.8561096191406 C 78.33940887451172 503.2475280761719 86.39276885986328 511.05010986328125 90.79791259765625 525.2378540039062 C 94.74658966064453 516.6537475585938 102.199951171875 506.2474365234375 93.16724395751953 513.9852905273438 C 100.82406616210938 508.198486328125 96.0749740600586 514.4506225585938 94.22882843017578 518.1783447265625 C 92.38845825195312 508.1036682128906 90.49073791503906 523.9153442382812 90.86160278320312 516.9234008789062 C 83.00366973876953 529.1914672851562 94.77128601074219 524.5697021484375 81.65852355957031 506.8561096191406" fill="rgb(150, 178, 240)" opacity="1.0" stroke-width="2.0"/>
    <path d="M 48.75746154785156 411.0458984375 C 82.874267578125 438.9900817871094 55.84828186035156 431.5375671386719 19.06746482849121 355.6663818359375 C 47.613826751708984 364.0926208496094 76.3568344116211 403.8699645996094 108.64141082763672 466.0710144042969 C 49.41915512084961 422.305419921875 55.037723541259766 402.97906494140625 41.92572784423828 415.1391906738281 C 40.7232666015625 421.27618408203125 42.35191345214844 414.1405029296875 43.27033615112305 409.47186279296875 C 41.57847595214844 419.2267761230469 41.39946746826172 412.1961975097656 48.75746154785156 411.0458984375" fill="rgb(1, 1, 2)" opacity="1.0" stroke-width="2.0"/>
    <path d="M 199.38099670410156 -12.28700065612793 C 65.390625 85.02566528320312 34.74775314331055 193.062744140625 239.3365936279297 98.95037841796875 C 251.6820831298828 213.7506103515625 101.9865493774414 217.27806091308594 80.81878662109375 128.67266845703125 C 274.0584411621094 151.87106323242188 265.1417541503906 34.9580192565918 199.38099670410156 -12.28700065612793" fill="rgb(210, 188, 97)" opacity="1.0" stroke-width="2.0"/>
    <path d="M 163.389404296875 473.64508056640625 C 308.1751708984375 524.395263671875 339.9169921875 447.16485595703125 344.7299499511719 497.5315246582031 C 255.76441955566406 522.2847290039062 237.1126708984375 517.9721069335938 261.0670471191406 521.0429077148438 C 190.46656799316406 496.2054748535156 176.42117309570312 518.4503173828125 153.06719970703125 466.7714538574219 C 145.66001892089844 491.765625 170.4287567138672 511.0799560546875 163.389404296875 473.64508056640625" fill="rgb(0, 1, 4)" opacity="1.0" stroke-width="2.0"/>
    <path d="M 199.28465270996094 354.759521484375 C 33.27759552001953 354.1794738769531 28.723142623901367 338.3531799316406 34.97004699707031 325.76141357421875 C 12.70484447479248 325.54071044921875 12.54879379272461 164.03506469726562 49.174400329589844 141.13194274902344 C 191.37713623046875 152.01853942871094 208.0283203125 134.3629150390625 199.28465270996094 354.759521484375" fill="rgb(243, 210, 104)" opacity="1.0" stroke-width="2.0"/>
    <path d="M 489.4547119140625 184.69210815429688 C 562.22900390625 228.24937438964844 509.8232116699219 252.74681091308594 502.4963073730469 334.6369934082031 C 489.2872619628906 294.6763916015625 496.2645263671875 254.02354431152344 483.6413269042969 318.284423828125 C 462.0927429199219 388.70849609375 439.9123840332031 385.0918884277344 477.7728271484375 374.1086730957031 C 522.7351684570312 310.30218505859375 485.07379150390625 362.4349670410156 489.4547119140625 184.69210815429688" fill="rgb(14, 14, 11)" opacity="1.0" stroke-width="2.0"/>
    <path d="M 63.03944396972656 41.080894470214844 C 74.49968719482422 51.14529037475586 70.55111694335938 43.93544387817383 64.33638763427734 46.80478286743164 C 70.38856506347656 44.01374435424805 74.4462890625 51.1440315246582 66.0253677368164 42.99851989746094 C 79.31501007080078 53.139469146728516 75.60556030273438 58.169212341308594 74.53410339355469 61.493492126464844 C 73.71379852294922 60.97331237792969 81.42597961425781 55.34052276611328 67.10445404052734 44.29754638671875 C 67.47509002685547 44.56679153442383 81.27021026611328 55.80245590209961 63.03944396972656 41.080894470214844" fill="rgb(255, 134, 101)" opacity="1.0" stroke-width="2.0"/>
    <path d="M 487.8664855957031 347.26104736328125 C 502.9996032714844 340.32269287109375 487.4781188964844 370.86602783203125 461.69580078125 410.1572265625 C 427.7890625 448.78912353515625 388.05145263671875 490.50579833984375 348.1287536621094 482.25726318359375 C 486.0343322753906 378.84881591796875 481.5838928222656 330.2284240722656 487.8664855957031 347.26104736328125" fill="rgb(8, 9, 4)" opacity="1.0" stroke-width="2.0"/>
  </g>
</svg>
