<?xml version="1.0" ?>
<svg height="512" version="1.1" width="512" xmlns="http://www.w3.org/2000/svg">
  <defs/>
  <g>
    <path d="M 59.37021255493164 51.81572723388672 C 57.19783020019531 53.33092498779297 54.1028938293457 56.10771942138672 54.917076110839844 55.18894958496094 C 37.63710403442383 69.54644012451172 33.15010070800781 73.69075012207031 35.749725341796875 72.03109741210938 C 37.641944885253906 70.06197357177734 31.646259307861328 74.89482879638672 38.51403045654297 69.67100524902344 C 37.1896858215332 70.86383819580078 23.775054931640625 81.26374053955078 59.37021255493164 51.81572723388672" fill="rgb(255, 100, 166)" opacity="1.0" stroke-width="2.0"/>
    <path d="M 182.55410766601562 502.6459655761719 C 158.39877319335938 441.0033264160156 77.21155548095703 437.7469177246094 109.51031494140625 466.86041259765625 C 156.74118041992188 496.7724609375 162.86473083496094 492.2630310058594 90.61949157714844 467.7701416015625 C 67.97785949707031 467.473876953125 81.10482788085938 467.6578369140625 89.23397064208984 468.1076354980469 C 90.0357666015625 469.1459655761719 74.89399719238281 459.7201843261719 182.55410766601562 502.6459655761719" fill="rgb(1, 1, 1)" opacity="1.0" stroke-width="2.0"/>
    <path d="M 65.95114135742188 410.061279296875 C 111.93843841552734 167.55990600585938 138.76075744628906 141.87051391601562 231.50726318359375 129.78604125976562 C 178.54270935058594 212.0402069091797 75.20758056640625 205.8350830078125 482.4447326660156 129.3695831298828 C 517.26171875 462.5628356933594 458.9843444824219 382.75604248046875 365.64593505859375 485.361083984375 C 156.0284423828125 504.75604248046875 157.17904663085938 479.4188232421875 65.95114135742188 410.061279296875" fill="rgb(251, 220, 111)" opacity="1.0" stroke-width="2.0"/>
    <path d="M 422.0364990234375 180.86761474609375 C 420.81939697265625 215.6669464111328 380.6003723144531 232.10586547851562 355.4146423339844 209.5199737548828 C 358.3987731933594 205.2801971435547 361.5148010253906 216.7466583251953 364.90478515625 223.4829559326172 C 357.3159484863281 205.99615478515625 344.53765869140625 179.965576171875 375.0791320800781 199.05738830566406 C 412.9661560058594 207.252685546875 396.7744445800781 150.28639221191406 422.0364990234375 180.86761474609375" fill="rgb(2, 1, 2)" opacity="1.0" stroke-width="2.0"/>
    <path d="M 253.06484985351562 187.60159301757812 C 226.19850158691406 265.5592956542969 116.17288970947266 185.58030700683594 210.7109375 130.58421325683594 C 166.50918579101562 215.58343505859375 219.514404296875 222.18284606933594 276.8798828125 149.2203369140625 C 350.8304443359375 153.4663848876953 363.0798034667969 208.8517608642578 358.2574768066406 146.5204620361328 C 157.34571838378906 132.44509887695312 182.24375915527344 136.88133239746094 253.06484985351562 187.60159301757812" fill="rgb(5, 5, 6)" opacity="1.0" stroke-width="2.0"/>
    <path d="M 410.7730407714844 151.65277099609375 C 429.48516845703125 172.3153533935547 421.38519287109375 197.78829956054688 413.7765197753906 199.97967529296875 C 399.2606201171875 178.931884765625 404.17181396484375 140.2705078125 350.939453125 171.73081970214844 C 338.6165466308594 164.76873779296875 377.2051086425781 119.05428314208984 410.7730407714844 151.65277099609375" fill="rgb(1, 1, 2)" opacity="1.0" stroke-width="2.0"/>
    <path d="M 299.72039794921875 12.09711742401123 C 409.2169189453125 54.53084182739258 347.7571105957031 101.72097778320312 243.2067413330078 151.406982421875 C 165.2594757080078 109.80862426757812 166.07635498046875 43.48588943481445 232.76300048828125 -5.231925964355469 C 424.3196105957031 37.48292922973633 369.32635498046875 91.923583984375 240.7173309326172 152.40914916992188 C 256.9923095703125 150.29075622558594 255.71829223632812 281.9435119628906 365.82733154296875 144.90953063964844 C 540.6231079101562 144.96267700195312 462.9385986328125 96.61492919921875 299.72039794921875 12.09711742401123" fill="rgb(251, 222, 109)" opacity="1.0" stroke-width="2.0"/>
    <path d="M 95.63844299316406 83.11680603027344 C 25.11045265197754 150.89706420898438 52.80147171020508 216.28163146972656 47.41060256958008 106.23063659667969 C 38.779747009277344 120.25883483886719 -6.860380172729492 178.7018280029297 -0.04173235967755318 279.00634765625 C 47.5613899230957 279.08685302734375 50.00203323364258 156.2562255859375 47.32109451293945 110.29524230957031 C 70.46737670898438 56.797462463378906 205.97230529785156 -31.26963996887207 279.9305725097656 14.190868377685547 C 39.318084716796875 40.95577621459961 185.86395263671875 105.33883666992188 95.63844299316406 83.11680603027344" fill="rgb(3, 2, 2)" opacity="1.0" stroke-width="2.0"/>
    <path d="M 349.4398193359375 185.20310974121094 C 375.9646911621094 171.5764617919922 347.5619812011719 182.27127075195312 377.8020324707031 201.93890380859375 C 353.8445129394531 241.1087188720703 311.83056640625 155.78468322753906 377.2496643066406 139.5092010498047 C 435.2716979980469 143.67984008789062 360.44061279296875 153.55538940429688 362.634765625 178.29107666015625 C 416.74114990234375 150.25091552734375 395.8765869140625 162.90631103515625 404.5479431152344 209.49388122558594 C 425.4547119140625 143.30723571777344 401.3736572265625 157.49502563476562 349.4398193359375 185.20310974121094" fill="rgb(1, 1, 2)" opacity="1.0" stroke-width="2.0"/>
    <path d="M 311.94970703125 23.161895751953125 C 291.3005065917969 119.86766815185547 285.00860595703125 147.82943725585938 314.75 9.346637725830078 C 405.1843566894531 23.01785659790039 482.89581298828125 102.67035675048828 495.77764892578125 186.04478454589844 C 449.35247802734375 145.0237579345703 457.08673095703125 77.4678726196289 311.94970703125 23.161895751953125" fill="rgb(24, 22, 17)" opacity="1.0" stroke-width="2.0"/>
    <path d="M 295.34478759765625 174.3942413330078 C 298.9222412109375 187.23574829101562 299.9514465332031 187.99000549316406 293.42706298828125 150.65097045898438 C 267.5037841796875 136.9928741455078 253.27171325683594 147.15371704101562 296.7716979980469 122.0029525756836 C 299.2476501464844 185.7227325439453 298.599853515625 186.96800231933594 300.0383605957031 186.24925231933594 C 288.032470703125 169.62350463867188 308.68341064453125 172.0099639892578 294.02978515625 174.7834930419922 C 302.9957580566406 176.9405517578125 310.97021484375 183.10142517089844 295.34478759765625 174.3942413330078" fill="rgb(253, 223, 108)" opacity="1.0" stroke-width="2.0"/>
    <path d="M 22.24660873413086 284.9465026855469 C 41.51279830932617 401.9944763183594 93.87926483154297 398.9571533203125 65.06417846679688 427.7972717285156 C 73.5999755859375 386.2914123535156 61.091094970703125 401.81591796875 110.85880279541016 441.69427490234375 C 162.99786376953125 482.31219482421875 185.83900451660156 470.0447082519531 112.11846923828125 469.02105712890625 C 81.97262573242188 402.203369140625 24.039161682128906 417.231201171875 2.6865992546081543 297.8885803222656 C -6.187026023864746 245.40170288085938 19.76014518737793 231.26010131835938 22.24660873413086 284.9465026855469" fill="rgb(2, 0, 1)" opacity="1.0" stroke-width="2.0"/>
    <path d="M 83.71543884277344 512.6263427734375 C 80.71516418457031 509.1761169433594 85.7285385131836 514.8659057617188 89.58436584472656 527.9808959960938 C 94.52173614501953 517.6522216796875 101.721923828125 508.1291809082031 93.79763793945312 518.1727294921875 C 101.24073028564453 507.472412109375 96.19739532470703 514.019287109375 94.27278137207031 518.0782470703125 C 92.38845825195312 508.1036682128906 90.49079132080078 523.9153442382812 90.88126373291016 516.9232788085938 C 82.63556671142578 529.7105712890625 92.83171081542969 526.7487182617188 83.71543884277344 512.6263427734375" fill="rgb(159, 187, 255)" opacity="1.0" stroke-width="2.0"/>
    <path d="M 52.40800476074219 414.71661376953125 C 85.19293975830078 443.49908447265625 47.09297180175781 419.447265625 18.88365364074707 354.2004699707031 C 43.82259750366211 366.5784912109375 79.3524169921875 403.29254150390625 111.3991928100586 467.9613037109375 C 53.118011474609375 427.3546447753906 57.6020393371582 401.863037109375 37.035118103027344 418.232177734375 C 44.491634368896484 412.3946533203125 38.288387298583984 418.60870361328125 40.10500717163086 412.6472473144531 C 38.858917236328125 420.623291015625 42.61830139160156 409.10540771484375 52.40800476074219 414.71661376953125" fill="rgb(0, 0, 0)" opacity="1.0" stroke-width="2.0"/>
    <path d="M 246.76596069335938 18.77488136291504 C 53.36743927001953 41.79168701171875 9.70140266418457 203.00233459472656 239.44837951660156 84.37602233886719 C 244.99649047851562 173.4058837890625 53.847469329833984 171.79319763183594 63.03959655761719 136.25086975097656 C 275.3114318847656 117.46661376953125 296.84539794921875 5.931500434875488 246.76596069335938 18.77488136291504" fill="rgb(251, 222, 108)" opacity="1.0" stroke-width="2.0"/>
    <path d="M 147.0283660888672 465.73699951171875 C 300.20623779296875 538.7044067382812 385.70037841796875 430.2073059082031 367.89141845703125 486.9425354003906 C 284.9330139160156 527.5960693359375 214.2633056640625 503.0112609863281 281.8972473144531 518.96923828125 C 190.00938415527344 503.5458679199219 170.92465209960938 511.8397521972656 146.02371215820312 464.23358154296875 C 135.060546875 487.0879211425781 171.77926635742188 507.3125305175781 147.0283660888672 465.73699951171875" fill="rgb(1, 0, 1)" opacity="1.0" stroke-width="2.0"/>
    <path d="M 158.26495361328125 422.65643310546875 C 66.33596801757812 423.4540100097656 60.72417449951172 388.4014892578125 41.642818450927734 354.45281982421875 C 10.100313186645508 288.4345397949219 3.9915976524353027 179.65594482421875 86.36904907226562 91.87716674804688 C 186.21841430664062 115.67840576171875 178.2326202392578 127.20740509033203 158.26495361328125 422.65643310546875" fill="rgb(252, 213, 108)" opacity="1.0" stroke-width="2.0"/>
    <path d="M 446.4304504394531 83.85466003417969 C 536.1879272460938 184.73814392089844 509.6667785644531 298.39959716796875 506.31427001953125 312.2096252441406 C 508.1417541503906 263.3415222167969 479.6438903808594 179.65475463867188 491.50732421875 234.34649658203125 C 498.9130859375 367.8653564453125 418.269287109375 401.2898864746094 474.97650146484375 381.48773193359375 C 510.53125 314.12322998046875 531.783935546875 326.42547607421875 446.4304504394531 83.85466003417969" fill="rgb(0, 0, 0)" opacity="1.0" stroke-width="2.0"/>
    <path d="M 66.29803466796875 39.586612701416016 C 76.49082946777344 51.26262283325195 72.29391479492188 43.51887130737305 69.56378936767578 46.8735466003418 C 72.13612365722656 44.11676788330078 75.14623260498047 49.109886169433594 69.7357177734375 41.25503158569336 C 78.59376525878906 53.48314666748047 74.84467315673828 58.11931228637695 77.5179214477539 52.45014953613281 C 74.43791198730469 58.596343994140625 78.7160415649414 54.2700080871582 70.14740753173828 42.49146270751953 C 69.39216613769531 41.33018493652344 77.77327728271484 52.391475677490234 66.29803466796875 39.586612701416016" fill="rgb(255, 147, 113)" opacity="1.0" stroke-width="2.0"/>
    <path d="M 500.4178161621094 336.1364440917969 C 500.6204528808594 329.88800048828125 491.36236572265625 372.4366455078125 458.5984191894531 413.17767333984375 C 430.46234130859375 452.45611572265625 345.90142822265625 516.7735595703125 323.5544738769531 483.5067443847656 C 477.5607604980469 427.4954833984375 463.90985107421875 314.6329345703125 500.4178161621094 336.1364440917969" fill="rgb(1, 0, 1)" opacity="1.0" stroke-width="2.0"/>
  </g>
</svg>
