<?xml version="1.0" ?>
<svg height="512" version="1.1" width="512" xmlns="http://www.w3.org/2000/svg">
  <defs/>
  <g>
    <path d="M 58.317935943603516 49.94800567626953 C 59.47160720825195 48.747196197509766 54.61233901977539 53.15087127685547 54.11040115356445 53.86589050292969 C 37.184452056884766 68.98817443847656 31.52127456665039 73.16193389892578 32.25661849975586 72.97142028808594 C 36.229026794433594 73.0859146118164 26.39396858215332 73.86963653564453 38.159423828125 69.09525299072266 C 30.265426635742188 71.71857452392578 22.404129028320312 82.63855743408203 58.317935943603516 49.94800567626953" fill="rgb(255, 67, 129)" opacity="1.0" stroke-width="2.0"/>
    <path d="M 187.47528076171875 506.6220397949219 C 161.89443969726562 435.0556335449219 80.54913330078125 435.608154296875 98.02156066894531 458.49658203125 C 142.19602966308594 490.121826171875 130.21337890625 476.7912902832031 88.1126708984375 466.9225769042969 C 63.51823043823242 469.3485412597656 73.69865417480469 468.9109191894531 91.77540588378906 466.02001953125 C 80.43607330322266 469.4335021972656 82.21839141845703 455.2767639160156 187.47528076171875 506.6220397949219" fill="rgb(85, 67, 37)" opacity="1.0" stroke-width="2.0"/>
    <path d="M 155.9108123779297 392.8218688964844 C 157.90704345703125 215.22085571289062 172.56544494628906 220.43153381347656 176.5987548828125 197.7354278564453 C 190.1442108154297 190.6505584716797 207.84986877441406 194.7659454345703 380.8207702636719 213.1927490234375 C 386.5186462402344 383.294189453125 375.6974182128906 391.5959167480469 369.0552978515625 413.3232421875 C 175.74913024902344 405.818359375 166.69053649902344 409.8191833496094 155.9108123779297 392.8218688964844" fill="rgb(252, 223, 107)" opacity="1.0" stroke-width="2.0"/>
    <path d="M 422.7726135253906 183.63092041015625 C 417.1177062988281 217.3784942626953 382.0190124511719 229.6771240234375 357.15814208984375 211.29994201660156 C 359.78350830078125 210.59849548339844 364.25616455078125 223.02101135253906 366.3220520019531 225.44680786132812 C 355.9521789550781 212.8563995361328 350.1098937988281 186.1446075439453 383.3670349121094 200.61009216308594 C 402.3885803222656 200.5199432373047 407.8283386230469 155.74851989746094 422.7726135253906 183.63092041015625" fill="rgb(16, 6, 6)" opacity="1.0" stroke-width="2.0"/>
    <path d="M 232.08909606933594 229.590576171875 C 220.75148010253906 262.2756042480469 194.89686584472656 255.2108154296875 194.02699279785156 187.90887451171875 C 245.51776123046875 169.5603790283203 216.859619140625 218.91200256347656 264.393310546875 269.5028381347656 C 352.47967529296875 263.48345947265625 359.7906799316406 299.6938171386719 363.9842224121094 141.23309326171875 C 209.96194458007812 121.90049743652344 223.80543518066406 141.94944763183594 232.08909606933594 229.590576171875" fill="rgb(218, 193, 102)" opacity="1.0" stroke-width="2.0"/>
    <path d="M 412.3390197753906 152.09719848632812 C 430.3355407714844 178.62545776367188 418.8538513183594 182.49832153320312 420.212646484375 191.2442169189453 C 415.7422790527344 178.7451934814453 413.52838134765625 149.18211364746094 341.73046875 165.59803771972656 C 345.1734313964844 164.90029907226562 369.1731872558594 117.26071166992188 412.3390197753906 152.09719848632812" fill="rgb(2, 6, 5)" opacity="1.0" stroke-width="2.0"/>
    <path d="M 293.7259216308594 37.20256423950195 C 349.7701110839844 72.29346466064453 333.3675231933594 129.60577392578125 265.5953369140625 163.1122283935547 C 250.42041015625 171.66673278808594 235.72119140625 74.72581481933594 284.52093505859375 42.094818115234375 C 331.7381286621094 128.11480712890625 306.9956359863281 133.47958374023438 291.939697265625 146.23912048339844 C 285.22381591796875 157.55267333984375 283.528076171875 177.70103454589844 320.47705078125 186.7518768310547 C 341.52056884765625 153.85745239257812 315.656005859375 162.74266052246094 293.7259216308594 37.20256423950195" fill="rgb(255, 218, 108)" opacity="1.0" stroke-width="2.0"/>
    <path d="M 74.30183410644531 105.10614776611328 C 34.4383430480957 162.69534301757812 40.253273010253906 165.95144653320312 47.03213119506836 106.9681625366211 C 35.845882415771484 123.8607177734375 6.896878242492676 164.2469482421875 0.5370875597000122 235.13255310058594 C 44.70172119140625 220.63015747070312 38.08887481689453 144.54623413085938 48.442832946777344 102.35538482666016 C 97.47781372070312 52.734046936035156 100.7192611694336 41.369930267333984 133.30453491210938 41.12723922729492 C 46.11109161376953 134.1718292236328 79.09634399414062 123.84867858886719 74.30183410644531 105.10614776611328" fill="rgb(16, 28, 13)" opacity="1.0" stroke-width="2.0"/>
    <path d="M 346.26416015625 189.43133544921875 C 363.93115234375 178.8304443359375 360.98822021484375 181.94125366210938 382.02349853515625 220.48719787597656 C 360.62261962890625 209.74354553222656 333.426025390625 211.5804901123047 346.49725341796875 158.28997802734375 C 399.9499816894531 150.5635223388672 343.1346435546875 183.5608367919922 365.4348449707031 180.654052734375 C 418.0317077636719 149.53128051757812 387.8448486328125 170.61953735351562 413.1874084472656 204.35342407226562 C 423.49432373046875 135.98500061035156 409.99072265625 159.73719787597656 346.26416015625 189.43133544921875" fill="rgb(3, 11, 3)" opacity="1.0" stroke-width="2.0"/>
    <path d="M 312.65582275390625 34.946571350097656 C 294.7488098144531 157.77685546875 311.97808837890625 186.22268676757812 316.7562255859375 35.9505729675293 C 396.7984924316406 53.274635314941406 388.7843017578125 63.7463493347168 383.7199401855469 133.98696899414062 C 282.8258361816406 187.0321044921875 316.6450500488281 170.03448486328125 312.65582275390625 34.946571350097656" fill="rgb(252, 222, 108)" opacity="1.0" stroke-width="2.0"/>
    <path d="M 295.1610107421875 174.31959533691406 C 298.0404357910156 189.13946533203125 301.04541015625 187.9527130126953 291.5570373535156 163.62034606933594 C 302.7085876464844 147.9649658203125 282.4195251464844 165.62258911132812 288.12408447265625 140.649169921875 C 297.0122375488281 187.68231201171875 299.1389465332031 186.41351318359375 299.0592956542969 188.6629180908203 C 290.9493408203125 168.9059600830078 315.5634460449219 171.72886657714844 295.0983581542969 175.34690856933594 C 303.562744140625 177.91741943359375 311.96966552734375 183.14727783203125 295.1610107421875 174.31959533691406" fill="rgb(249, 158, 109)" opacity="1.0" stroke-width="2.0"/>
    <path d="M 31.109302520751953 330.64703369140625 C 66.21702575683594 404.2269592285156 71.32909393310547 412.6296691894531 72.16401672363281 412.95404052734375 C 70.70927429199219 393.7315368652344 63.943634033203125 402.43048095703125 98.65115356445312 430.6163635253906 C 134.52430725097656 461.07611083984375 134.2613983154297 480.8666687011719 105.18370056152344 463.78302001953125 C 67.08513641357422 407.6469421386719 41.03593063354492 428.13525390625 8.025553703308105 323.19305419921875 C -6.603759288787842 297.9495849609375 33.778934478759766 287.78692626953125 31.109302520751953 330.64703369140625" fill="rgb(9, 32, 19)" opacity="1.0" stroke-width="2.0"/>
    <path d="M 81.52881622314453 506.7893371582031 C 78.50920104980469 502.8218688964844 86.46642303466797 510.81219482421875 90.44841766357422 524.9268188476562 C 94.01216125488281 515.69775390625 102.00080108642578 505.4472351074219 93.33380126953125 510.8731994628906 C 100.9899673461914 506.16583251953125 96.23384094238281 513.660400390625 94.22286224365234 517.8904418945312 C 92.38845825195312 508.1036682128906 90.49022674560547 523.9148559570312 90.87134552001953 516.9201049804688 C 82.99918365478516 529.2177734375 94.62322998046875 524.7657470703125 81.52881622314453 506.7893371582031" fill="rgb(149, 176, 238)" opacity="1.0" stroke-width="2.0"/>
    <path d="M 48.864952087402344 410.8462219238281 C 81.63569641113281 440.2765197753906 57.32612228393555 432.5394287109375 19.723918914794922 356.3499755859375 C 47.43596267700195 366.49273681640625 77.96460723876953 402.5616760253906 108.1579818725586 465.5669250488281 C 49.054988861083984 421.8480529785156 55.035255432128906 402.69244384765625 41.58000564575195 414.39501953125 C 41.017822265625 423.0890808105469 40.900577545166016 412.6287536621094 42.45999526977539 408.788330078125 C 40.43216323852539 419.6618347167969 40.78616714477539 412.62017822265625 48.864952087402344 410.8462219238281" fill="rgb(4, 1, 1)" opacity="1.0" stroke-width="2.0"/>
    <path d="M 171.1605987548828 0.019442498683929443 C 75.0263442993164 70.863037109375 61.43511962890625 177.05508422851562 223.32737731933594 115.7774887084961 C 235.22157287597656 201.73707580566406 101.93563842773438 205.24868774414062 97.28079986572266 138.22813415527344 C 241.36294555664062 132.28846740722656 232.5412139892578 65.02899169921875 171.1605987548828 0.019442498683929443" fill="rgb(208, 185, 93)" opacity="1.0" stroke-width="2.0"/>
    <path d="M 165.56198120117188 474.9103698730469 C 288.7959899902344 518.0106201171875 313.6291198730469 458.39508056640625 323.83233642578125 503.3883056640625 C 254.8842315673828 519.5829467773438 238.5582275390625 521.9453735351562 247.6925811767578 522.641845703125 C 182.86856079101562 488.03863525390625 174.9139862060547 526.3941040039062 157.70660400390625 458.1611328125 C 147.05426025390625 491.0210876464844 173.8504180908203 515.6378784179688 165.56198120117188 474.9103698730469" fill="rgb(18, 2, 8)" opacity="1.0" stroke-width="2.0"/>
    <path d="M 205.49012756347656 324.8083801269531 C 59.85107421875 321.2648620605469 59.34300994873047 301.9395446777344 72.4338150024414 291.7242431640625 C 48.098411560058594 297.702880859375 43.03824996948242 180.06431579589844 74.98196411132812 167.1008758544922 C 190.2511749267578 166.13351440429688 208.43238830566406 141.14596557617188 205.49012756347656 324.8083801269531" fill="rgb(244, 214, 104)" opacity="1.0" stroke-width="2.0"/>
    <path d="M 492.6763916015625 208.02212524414062 C 556.7515869140625 236.34988403320312 511.500732421875 257.2240905761719 501.58233642578125 335.8098449707031 C 486.70452880859375 304.7738952636719 495.051025390625 264.08868408203125 482.1128845214844 323.5975646972656 C 463.4734802246094 382.4422302246094 446.6061096191406 377.44976806640625 479.9587097167969 370.8563537597656 C 524.1762084960938 312.0230712890625 477.83428955078125 357.2926330566406 492.6763916015625 208.02212524414062" fill="rgb(9, 6, 33)" opacity="1.0" stroke-width="2.0"/>
    <path d="M 62.94340133666992 41.09138870239258 C 74.94086456298828 50.8183708190918 70.77167510986328 44.20724105834961 64.25557708740234 47.234230041503906 C 71.87004089355469 43.855796813964844 74.97366333007812 51.00071334838867 65.85648345947266 42.62271499633789 C 79.14940643310547 54.29475021362305 75.80286407470703 57.58888626098633 74.56930541992188 61.39665222167969 C 73.30140686035156 61.14493179321289 81.39812469482422 55.34321594238281 67.06378936767578 44.349082946777344 C 67.50923156738281 44.647315979003906 81.87207794189453 55.401519775390625 62.94340133666992 41.09138870239258" fill="rgb(255, 134, 101)" opacity="1.0" stroke-width="2.0"/>
    <path d="M 487.4065856933594 349.2329406738281 C 501.27874755859375 343.89642333984375 486.89178466796875 371.0208740234375 463.088134765625 408.59100341796875 C 427.94647216796875 446.67596435546875 411.23095703125 472.71539306640625 372.2549743652344 471.3775329589844 C 475.02777099609375 368.76611328125 491.90826416015625 331.85498046875 487.4065856933594 349.2329406738281" fill="rgb(5, 9, 3)" opacity="1.0" stroke-width="2.0"/>
  </g>
</svg>
