<?xml version="1.0" ?>
<svg height="512" version="1.1" width="512" xmlns="http://www.w3.org/2000/svg">
  <defs/>
  <g>
    <path d="M 59.23356246948242 51.691097259521484 C 56.83935546875 53.43400192260742 53.812408447265625 56.19865417480469 54.867767333984375 55.12822341918945 C 38.00200653076172 69.89781188964844 33.7719841003418 74.08384704589844 36.00760269165039 71.76107788085938 C 37.476070404052734 70.76991271972656 32.434627532958984 75.42069244384766 38.5061149597168 70.01304626464844 C 37.70296096801758 70.76163482666016 24.4195499420166 81.69232177734375 59.23356246948242 51.691097259521484" fill="rgb(255, 103, 169)" opacity="1.0" stroke-width="2.0"/>
    <path d="M 182.5511474609375 502.6388244628906 C 158.563720703125 440.9830627441406 77.21387481689453 437.7419128417969 109.49503326416016 466.858642578125 C 156.3345489501953 496.856689453125 163.79794311523438 492.77276611328125 90.46482849121094 467.8898010253906 C 68.31761169433594 466.8708190917969 81.83610534667969 467.4519348144531 89.0404281616211 467.8789367675781 C 90.33318328857422 468.96917724609375 74.52758026123047 460.04803466796875 182.5511474609375 502.6388244628906" fill="rgb(0, 1, 0)" opacity="1.0" stroke-width="2.0"/>
    <path d="M 65.90567016601562 409.9778747558594 C 111.92881774902344 167.52500915527344 138.74246215820312 141.6414031982422 232.51763916015625 131.26705932617188 C 174.7529754638672 216.70083618164062 72.2125473022461 209.9239501953125 481.45965576171875 128.99859619140625 C 518.6473999023438 460.8644104003906 459.3479919433594 382.6199035644531 365.6603088378906 485.369873046875 C 156.18849182128906 504.7933349609375 157.3125 479.3972473144531 65.90567016601562 409.9778747558594" fill="rgb(251, 220, 111)" opacity="1.0" stroke-width="2.0"/>
    <path d="M 422.1230773925781 180.94483947753906 C 420.74444580078125 215.42718505859375 380.6146545410156 232.3113250732422 354.9732666015625 209.14804077148438 C 358.2471923828125 204.7848358154297 361.39166259765625 216.3109130859375 364.7626037597656 223.2960968017578 C 357.44171142578125 205.857177734375 344.1586608886719 181.36557006835938 375.86376953125 199.1761932373047 C 413.0859680175781 206.9123992919922 396.8355407714844 150.131103515625 422.1230773925781 180.94483947753906" fill="rgb(2, 1, 2)" opacity="1.0" stroke-width="2.0"/>
    <path d="M 253.26864624023438 187.63119506835938 C 223.8661346435547 266.9278564453125 114.428466796875 182.8042755126953 213.8156280517578 129.14675903320312 C 163.42539978027344 213.8726043701172 219.95840454101562 223.79238891601562 276.0981140136719 149.33258056640625 C 350.8438415527344 153.43963623046875 363.0837707519531 208.82009887695312 358.8714294433594 145.38189697265625 C 159.40179443359375 132.1273193359375 184.24208068847656 138.15284729003906 253.26864624023438 187.63119506835938" fill="rgb(6, 5, 6)" opacity="1.0" stroke-width="2.0"/>
    <path d="M 410.80267333984375 151.89329528808594 C 429.6117858886719 171.66404724121094 421.0440368652344 198.13380432128906 412.95867919921875 200.38055419921875 C 400.0365295410156 179.11607360839844 404.23565673828125 140.21473693847656 350.9471435546875 171.74986267089844 C 338.6073913574219 164.79649353027344 377.18988037109375 119.12493133544922 410.80267333984375 151.89329528808594" fill="rgb(1, 1, 2)" opacity="1.0" stroke-width="2.0"/>
    <path d="M 299.61480712890625 11.918033599853516 C 410.74957275390625 54.14485549926758 347.8531188964844 100.75269317626953 242.12136840820312 150.1631622314453 C 163.0244903564453 114.09005737304688 165.27493286132812 43.781368255615234 232.49798583984375 -5.066874027252197 C 425.9643859863281 37.60723114013672 370.10888671875 91.06765747070312 239.96771240234375 151.0664520263672 C 259.5812683105469 152.8699493408203 253.7559051513672 285.7039489746094 365.9677429199219 144.43527221679688 C 541.444091796875 146.9502410888672 463.8934326171875 95.59146118164062 299.61480712890625 11.918033599853516" fill="rgb(251, 222, 109)" opacity="1.0" stroke-width="2.0"/>
    <path d="M 97.21296691894531 81.78105926513672 C 24.8530330657959 149.703369140625 52.08732986450195 216.7926025390625 47.452396392822266 106.46521759033203 C 38.74565887451172 120.12982940673828 -6.8806986808776855 178.9110565185547 0.03021620213985443 279.00408935546875 C 46.12205123901367 279.0792236328125 49.93912887573242 154.9971466064453 47.37413024902344 110.4815902709961 C 72.56957244873047 53.80698776245117 209.9847412109375 -31.056827545166016 279.1947021484375 14.559908866882324 C 40.285213470458984 40.13687515258789 187.98695373535156 105.32098388671875 97.21296691894531 81.78105926513672" fill="rgb(4, 2, 2)" opacity="1.0" stroke-width="2.0"/>
    <path d="M 349.43426513671875 185.23062133789062 C 375.7117614746094 171.0724639892578 347.8077087402344 182.75048828125 378.0107727050781 201.78208923339844 C 352.7713317871094 240.61166381835938 312.4289245605469 155.4591064453125 377.2480773925781 139.51388549804688 C 435.3328552246094 143.40768432617188 360.42205810546875 153.65652465820312 362.51153564453125 178.29534912109375 C 416.79718017578125 150.038330078125 396.47589111328125 162.92886352539062 404.5013427734375 209.50729370117188 C 425.2928771972656 143.1779022216797 401.3794250488281 157.4841766357422 349.43426513671875 185.23062133789062" fill="rgb(1, 1, 2)" opacity="1.0" stroke-width="2.0"/>
    <path d="M 311.74871826171875 23.265226364135742 C 290.6759033203125 118.8318862915039 284.35357666015625 146.8263702392578 314.9198913574219 9.441536903381348 C 404.8697204589844 23.061567306518555 484.04949951171875 102.74231719970703 495.00750732421875 188.52731323242188 C 453.5180969238281 150.02529907226562 455.8903503417969 75.33387756347656 311.74871826171875 23.265226364135742" fill="rgb(24, 22, 18)" opacity="1.0" stroke-width="2.0"/>
    <path d="M 295.3434143066406 174.40855407714844 C 298.9168395996094 187.22817993164062 299.9119873046875 188.0026397705078 293.3298034667969 150.64788818359375 C 266.4110412597656 136.20140075683594 252.32223510742188 145.47332763671875 296.67333984375 121.00133514404297 C 299.32037353515625 185.7110595703125 298.63934326171875 186.9673309326172 300.0241394042969 186.2707061767578 C 288.018310546875 169.63438415527344 308.6931457519531 172.01016235351562 294.0348205566406 174.76895141601562 C 303.0143737792969 176.91110229492188 310.96307373046875 183.1084442138672 295.3434143066406 174.40855407714844" fill="rgb(253, 223, 108)" opacity="1.0" stroke-width="2.0"/>
    <path d="M 22.125028610229492 285.1322021484375 C 41.288414001464844 401.7032165527344 94.2613525390625 398.50054931640625 64.7142562866211 428.97076416015625 C 73.20836639404297 386.6302185058594 60.83238220214844 402.10382080078125 110.77616119384766 441.79803466796875 C 163.4969482421875 482.2799987792969 186.58055114746094 469.94354248046875 112.5889892578125 468.8482666015625 C 82.0016098022461 402.5945739746094 24.134429931640625 417.1555480957031 2.7457833290100098 297.9219055175781 C -6.338764190673828 245.3288116455078 19.58596420288086 231.24557495117188 22.125028610229492 285.1322021484375" fill="rgb(2, 0, 1)" opacity="1.0" stroke-width="2.0"/>
    <path d="M 83.65420532226562 513.07861328125 C 80.86833190917969 509.42181396484375 85.81443786621094 514.888916015625 89.60418701171875 527.9879760742188 C 94.52173614501953 517.6522216796875 101.721923828125 508.1291809082031 93.79763793945312 518.1727294921875 C 101.24073028564453 507.472412109375 96.19739532470703 514.019287109375 94.27278137207031 518.0782470703125 C 92.38845825195312 508.1036682128906 90.49079132080078 523.9153442382812 90.88126373291016 516.9232788085938 C 82.63579559326172 529.7105712890625 92.82936096191406 526.75048828125 83.65420532226562 513.07861328125" fill="rgb(159, 187, 255)" opacity="1.0" stroke-width="2.0"/>
    <path d="M 52.83181381225586 414.7073669433594 C 84.46053314208984 442.9529724121094 46.759395599365234 418.8800048828125 18.77775001525879 354.31048583984375 C 43.637962341308594 366.69110107421875 79.0682144165039 403.5678405761719 111.46708679199219 467.8981018066406 C 53.20134353637695 427.37261962890625 57.588470458984375 401.7880859375 36.85910415649414 418.1706237792969 C 44.51156234741211 411.9903564453125 38.00148391723633 419.7525939941406 39.112735748291016 414.24371337890625 C 38.65022277832031 420.32080078125 42.664306640625 409.5115051269531 52.83181381225586 414.7073669433594" fill="rgb(0, 0, 0)" opacity="1.0" stroke-width="2.0"/>
    <path d="M 246.16058349609375 18.83560562133789 C 54.53632736206055 40.620262145996094 7.547031879425049 205.413330078125 240.4112091064453 85.05711364746094 C 246.31495666503906 172.67840576171875 53.46712875366211 170.04733276367188 63.52237319946289 137.69691467285156 C 275.16363525390625 118.37351989746094 296.80963134765625 6.75693416595459 246.16058349609375 18.83560562133789" fill="rgb(252, 222, 108)" opacity="1.0" stroke-width="2.0"/>
    <path d="M 146.62733459472656 465.89862060546875 C 300.1706848144531 538.8020629882812 386.4139404296875 430.28521728515625 368.072021484375 486.81268310546875 C 285.36761474609375 527.4517211914062 213.6326904296875 503.2179260253906 282.44384765625 518.94677734375 C 190.10047912597656 503.8617858886719 170.54812622070312 511.59698486328125 145.8132781982422 464.0552673339844 C 135.05120849609375 487.0933837890625 171.56480407714844 507.4751892089844 146.62733459472656 465.89862060546875" fill="rgb(1, 0, 1)" opacity="1.0" stroke-width="2.0"/>
    <path d="M 156.50782775878906 423.9984436035156 C 67.78551483154297 424.03057861328125 60.76924514770508 388.7537841796875 41.83088302612305 354.9101257324219 C 10.13989543914795 288.6814270019531 3.9307801723480225 178.52447509765625 87.53156280517578 90.7774887084961 C 185.25454711914062 115.77623748779297 177.05316162109375 127.29154205322266 156.50782775878906 423.9984436035156" fill="rgb(252, 213, 108)" opacity="1.0" stroke-width="2.0"/>
    <path d="M 445.71697998046875 82.91259765625 C 536.2626342773438 183.919677734375 509.7171630859375 299.2879638671875 506.0062561035156 312.50537109375 C 509.6858215332031 267.49041748046875 478.45733642578125 176.467529296875 490.7437744140625 229.37869262695312 C 501.8280334472656 363.9532165527344 418.2477722167969 402.8395690917969 475.2843017578125 381.12109375 C 510.57696533203125 313.22442626953125 532.5194702148438 326.1954345703125 445.71697998046875 82.91259765625" fill="rgb(0, 0, 0)" opacity="1.0" stroke-width="2.0"/>
    <path d="M 66.37479400634766 39.62599563598633 C 76.55290985107422 51.08972930908203 72.92820739746094 42.76323699951172 70.55892181396484 46.89311981201172 C 72.09164428710938 44.09209442138672 74.5134048461914 48.32106018066406 69.8901138305664 41.046669006347656 C 78.42633819580078 53.68980407714844 74.21966552734375 58.07567596435547 73.61909484863281 51.18082809448242 C 74.11380767822266 57.83245086669922 78.43354034423828 53.97184753417969 70.41607666015625 42.28078079223633 C 69.79830169677734 40.91220474243164 77.90533447265625 51.940887451171875 66.37479400634766 39.62599563598633" fill="rgb(255, 148, 114)" opacity="1.0" stroke-width="2.0"/>
    <path d="M 500.02630615234375 336.26153564453125 C 500.841796875 330.29119873046875 491.3857421875 372.2689514160156 458.3548278808594 413.2227478027344 C 430.1824645996094 452.86541748046875 345.6468505859375 517.052490234375 323.36810302734375 483.17474365234375 C 476.44708251953125 428.59869384765625 464.6605224609375 313.97509765625 500.02630615234375 336.26153564453125" fill="rgb(1, 0, 1)" opacity="1.0" stroke-width="2.0"/>
  </g>
</svg>
