<?xml version="1.0" ?>
<svg height="512" version="1.1" width="512" xmlns="http://www.w3.org/2000/svg">
  <defs/>
  <g>
    <path d="M 59.240196228027344 51.70124053955078 C 56.81436538696289 53.66275405883789 53.81035614013672 56.32002639770508 55.10237503051758 55.306114196777344 C 38.37025451660156 70.2373046875 33.815773010253906 74.00065612792969 36.042213439941406 72.30695343017578 C 38.38313674926758 71.15864562988281 33.37327575683594 74.86956787109375 38.492801666259766 69.84008026123047 C 37.75296401977539 70.76921081542969 24.793636322021484 81.98711395263672 59.240196228027344 51.70124053955078" fill="rgb(255, 105, 171)" opacity="1.0" stroke-width="2.0"/>
    <path d="M 182.5345458984375 502.6134948730469 C 158.7929229736328 440.9521179199219 77.28705596923828 437.70184326171875 109.62728881835938 466.7794189453125 C 155.76593017578125 496.6208801269531 165.11338806152344 493.19818115234375 90.86260223388672 468.0421447753906 C 68.69140625 466.4891357421875 82.51445007324219 467.3738708496094 88.99923706054688 467.5868835449219 C 90.03612518310547 468.87664794921875 74.616455078125 459.9166259765625 182.5345458984375 502.6134948730469" fill="rgb(1, 1, 1)" opacity="1.0" stroke-width="2.0"/>
    <path d="M 65.98076629638672 409.850830078125 C 111.9382553100586 167.5373992919922 138.741943359375 141.6303253173828 233.3028106689453 131.7086639404297 C 170.15707397460938 219.16725158691406 67.56163787841797 209.71951293945312 480.0491638183594 127.87824249267578 C 521.0928955078125 458.118896484375 460.1796875 382.2191162109375 365.6995849609375 485.3415832519531 C 156.6390838623047 504.8087463378906 157.79823303222656 479.2815856933594 65.98076629638672 409.850830078125" fill="rgb(251, 220, 111)" opacity="1.0" stroke-width="2.0"/>
    <path d="M 422.2669677734375 180.87615966796875 C 420.7955017089844 215.44866943359375 380.9045104980469 232.3157501220703 354.7981262207031 209.2785186767578 C 357.9205322265625 204.3544921875 361.40435791015625 215.51104736328125 364.5583190917969 222.94107055664062 C 357.58587646484375 205.6830596923828 343.94610595703125 182.39663696289062 376.25518798828125 199.24273681640625 C 413.2691345214844 206.22116088867188 396.6603698730469 149.90672302246094 422.2669677734375 180.87615966796875" fill="rgb(2, 1, 2)" opacity="1.0" stroke-width="2.0"/>
    <path d="M 253.46664428710938 187.4650115966797 C 223.27618408203125 267.8126220703125 112.64136505126953 181.24014282226562 216.05697631835938 128.35903930664062 C 161.12535095214844 211.5959930419922 220.06565856933594 225.77804565429688 275.3112487792969 149.0251007080078 C 350.8611145019531 153.4021759033203 363.0887145996094 208.77674865722656 359.26959228515625 143.25277709960938 C 159.4427032470703 132.8816375732422 185.5596466064453 138.74546813964844 253.46664428710938 187.4650115966797" fill="rgb(6, 5, 6)" opacity="1.0" stroke-width="2.0"/>
    <path d="M 410.8738708496094 151.87469482421875 C 429.7404479980469 171.676025390625 421.52069091796875 198.53944396972656 412.4171447753906 200.88287353515625 C 400.66107177734375 179.48300170898438 403.67828369140625 140.0615692138672 350.9833679199219 171.75494384765625 C 338.590576171875 164.85006713867188 377.25201416015625 119.22196960449219 410.8738708496094 151.87469482421875" fill="rgb(1, 1, 2)" opacity="1.0" stroke-width="2.0"/>
    <path d="M 299.1910400390625 12.325289726257324 C 413.16998291015625 55.13309860229492 348.4432373046875 99.86483001708984 241.56948852539062 149.83721923828125 C 161.56680297851562 113.01847076416016 164.59048461914062 44.47235107421875 232.7121124267578 -5.27175235748291 C 427.7947692871094 39.547935485839844 371.13323974609375 89.90934753417969 239.34169006347656 150.86273193359375 C 263.1658020019531 156.44647216796875 250.8328094482422 290.06549072265625 365.5908203125 144.1107635498047 C 541.7223510742188 146.52748107910156 464.24603271484375 95.04366302490234 299.1910400390625 12.325289726257324" fill="rgb(251, 222, 109)" opacity="1.0" stroke-width="2.0"/>
    <path d="M 100.75626373291016 78.85502624511719 C 24.854265213012695 148.11322021484375 52.76620101928711 217.4885711669922 47.511619567871094 106.2127685546875 C 38.61147689819336 119.99671173095703 -7.016124248504639 179.04263305664062 -0.02918737381696701 279.0089416503906 C 44.863311767578125 279.10662841796875 50.936241149902344 153.40301513671875 47.42845916748047 110.0864486694336 C 75.47449493408203 49.44000244140625 215.86868286132812 -31.19487953186035 278.7583923339844 15.35038948059082 C 40.17076110839844 40.601715087890625 189.2494659423828 102.9476089477539 100.75626373291016 78.85502624511719" fill="rgb(3, 2, 2)" opacity="1.0" stroke-width="2.0"/>
    <path d="M 349.4927978515625 185.2281951904297 C 375.8359375 171.03587341308594 347.4381408691406 183.12741088867188 378.6084289550781 202.08682250976562 C 351.9525146484375 239.9490966796875 312.8774108886719 154.89541625976562 377.4619140625 139.50840759277344 C 433.4554443359375 142.63070678710938 359.72113037109375 154.56454467773438 362.3564758300781 178.16726684570312 C 416.6613464355469 149.85972595214844 396.417236328125 162.84719848632812 404.39593505859375 209.567626953125 C 425.0903625488281 143.14093017578125 401.2654113769531 157.4240264892578 349.4927978515625 185.2281951904297" fill="rgb(1, 1, 2)" opacity="1.0" stroke-width="2.0"/>
    <path d="M 311.7543029785156 23.38140296936035 C 289.9467468261719 117.82884216308594 283.395751953125 145.59072875976562 315.03302001953125 9.266308784484863 C 404.6089782714844 23.03131866455078 485.4368896484375 102.8486328125 493.9134521484375 190.859130859375 C 458.12939453125 154.43006896972656 455.00653076171875 73.96778869628906 311.7543029785156 23.38140296936035" fill="rgb(24, 23, 18)" opacity="1.0" stroke-width="2.0"/>
    <path d="M 295.3428649902344 174.42819213867188 C 298.9097900390625 187.21788024902344 299.85650634765625 188.02096557617188 293.2079162597656 150.71336364746094 C 265.4563293457031 135.67718505859375 251.59327697753906 144.3787841796875 296.7252197265625 120.30941772460938 C 299.42742919921875 185.69313049316406 298.69854736328125 186.96531677246094 300.0058288574219 186.30023193359375 C 287.998291015625 169.64956665039062 308.7063293457031 172.0106201171875 294.0427551269531 174.74813842773438 C 303.0403137207031 176.87075805664062 310.95404052734375 183.11827087402344 295.3428649902344 174.42819213867188" fill="rgb(253, 223, 108)" opacity="1.0" stroke-width="2.0"/>
    <path d="M 21.897563934326172 285.0913391113281 C 41.4550895690918 401.12042236328125 94.30628967285156 398.5560607910156 64.83788299560547 428.92156982421875 C 73.3470230102539 386.42437744140625 60.83245849609375 402.0474853515625 110.83568572998047 441.81475830078125 C 163.77003479003906 482.95025634765625 187.06300354003906 470.4285583496094 112.18531036376953 468.9154357910156 C 82.31909942626953 403.0867004394531 24.089447021484375 416.7294921875 2.781852960586548 298.01947021484375 C -6.376275539398193 245.22792053222656 19.988441467285156 231.21047973632812 21.897563934326172 285.0913391113281" fill="rgb(2, 0, 1)" opacity="1.0" stroke-width="2.0"/>
    <path d="M 83.64967346191406 513.1013793945312 C 80.87419128417969 509.43438720703125 85.81822967529297 514.8899536132812 89.6050796508789 527.988037109375 C 94.52173614501953 517.6522216796875 101.721923828125 508.1291809082031 93.79763793945312 518.1727294921875 C 101.24073028564453 507.472412109375 96.19739532470703 514.019287109375 94.27278137207031 518.0782470703125 C 92.38845825195312 508.1036682128906 90.49079132080078 523.9153442382812 90.88126373291016 516.9232788085938 C 82.63579559326172 529.7105712890625 92.82927703857422 526.75048828125 83.64967346191406 513.1013793945312" fill="rgb(159, 187, 255)" opacity="1.0" stroke-width="2.0"/>
    <path d="M 52.78232192993164 414.9870910644531 C 84.0887680053711 442.657470703125 46.37886047363281 418.37298583984375 18.725427627563477 354.2853088378906 C 43.677467346191406 366.65673828125 79.4082260131836 403.320068359375 111.4872055053711 468.105224609375 C 53.226078033447266 427.2666931152344 57.381534576416016 401.79339599609375 36.90858840942383 418.22320556640625 C 44.51938247680664 412.1946105957031 38.41756820678711 418.6975402832031 39.89369201660156 414.4451599121094 C 38.368865966796875 420.1858825683594 43.07408905029297 409.03265380859375 52.78232192993164 414.9870910644531" fill="rgb(0, 0, 0)" opacity="1.0" stroke-width="2.0"/>
    <path d="M 244.64862060546875 19.73688507080078 C 58.417171478271484 36.54055404663086 5.473448276519775 211.16917419433594 242.414306640625 85.97174072265625 C 249.372802734375 171.60897827148438 53.30672073364258 166.52923583984375 64.44340515136719 139.4622802734375 C 275.4543151855469 120.6701889038086 296.9228210449219 9.99941635131836 244.64862060546875 19.73688507080078" fill="rgb(252, 222, 108)" opacity="1.0" stroke-width="2.0"/>
    <path d="M 146.6820831298828 465.74725341796875 C 299.4812927246094 538.9195556640625 387.1070251464844 430.2082214355469 368.9433288574219 486.30706787109375 C 286.0230407714844 527.6217041015625 213.488037109375 503.115966796875 283.0780029296875 518.7477416992188 C 190.23165893554688 504.10589599609375 169.94859313964844 511.20269775390625 146.0935516357422 464.5036315917969 C 135.05279541015625 487.1181335449219 171.30955505371094 507.6717529296875 146.6820831298828 465.74725341796875" fill="rgb(1, 0, 1)" opacity="1.0" stroke-width="2.0"/>
    <path d="M 154.23770141601562 425.798095703125 C 70.40925598144531 424.5975036621094 60.45210266113281 389.05975341796875 42.00856018066406 355.4952392578125 C 9.9374418258667 288.7054443359375 3.768463373184204 177.38404846191406 88.71892547607422 89.51122283935547 C 183.68409729003906 116.0129623413086 175.27288818359375 127.4424819946289 154.23770141601562 425.798095703125" fill="rgb(252, 213, 108)" opacity="1.0" stroke-width="2.0"/>
    <path d="M 444.7881164550781 82.1322021484375 C 536.4296875 183.28590393066406 509.6187744140625 299.6628723144531 506.0148620605469 312.2740783691406 C 511.60906982421875 271.72406005859375 477.58740234375 173.6240692138672 490.1441955566406 223.903076171875 C 505.1451416015625 359.4303894042969 417.8443908691406 404.324462890625 475.47119140625 380.756591796875 C 510.5118408203125 312.0376281738281 533.4552001953125 325.31512451171875 444.7881164550781 82.1322021484375" fill="rgb(1, 0, 0)" opacity="1.0" stroke-width="2.0"/>
    <path d="M 66.40086364746094 39.45661926269531 C 76.3696517944336 51.37501525878906 72.73160552978516 43.126766204833984 70.48410034179688 46.99359893798828 C 71.50409698486328 44.34503173828125 73.32817840576172 48.987762451171875 69.82711791992188 41.0368766784668 C 78.11360931396484 53.44160461425781 73.6510238647461 57.72846603393555 73.2873764038086 50.73393630981445 C 73.8215103149414 57.58599853515625 77.82162475585938 54.16225051879883 70.66094207763672 42.269893646240234 C 68.84917449951172 40.98160171508789 76.57638549804688 51.548152923583984 66.40086364746094 39.45661926269531" fill="rgb(255, 149, 115)" opacity="1.0" stroke-width="2.0"/>
    <path d="M 500.3818664550781 335.6045227050781 C 500.700439453125 330.1687927246094 491.4316711425781 372.2501220703125 458.3200988769531 413.40673828125 C 429.6542663574219 453.1972961425781 345.09906005859375 516.9653930664062 323.2625427246094 483.23004150390625 C 475.2059020996094 429.98760986328125 466.2707214355469 313.3007507324219 500.3818664550781 335.6045227050781" fill="rgb(1, 0, 1)" opacity="1.0" stroke-width="2.0"/>
  </g>
</svg>
