<?xml version="1.0" ?>
<svg height="512" version="1.1" width="512" xmlns="http://www.w3.org/2000/svg">
  <defs/>
  <g>
    <path d="M 58.82888412475586 45.411476135253906 C 70.15946197509766 53.270816802978516 58.25468444824219 58.2128791809082 49.9691162109375 56.489192962646484 C 37.61500930786133 68.94894409179688 25.219650268554688 72.74561309814453 24.816865921020508 71.81258392333984 C 14.348876953125 75.28275299072266 21.20233154296875 75.35714721679688 32.93253707885742 68.95201873779297 C 35.223453521728516 79.50843048095703 24.17436408996582 83.99078369140625 58.82888412475586 45.411476135253906" fill="rgb(212, 18, 79)" opacity="1.0" stroke-width="2.0"/>
    <path d="M 128.42652893066406 476.96044921875 C 125.38130950927734 477.76165771484375 113.06912231445312 479.938232421875 100.41568756103516 470.8194885253906 C 101.08328247070312 467.67913818359375 90.29812622070312 469.9200134277344 81.70329284667969 471.3879089355469 C 70.59906768798828 480.6032409667969 77.53575134277344 492.2837219238281 70.34819030761719 487.2998962402344 C 58.561424255371094 481.6859130859375 66.40570068359375 473.32568359375 128.42652893066406 476.96044921875" fill="rgb(41, 215, 13)" opacity="1.0" stroke-width="2.0"/>
    <path d="M 252.8802490234375 297.44244384765625 C 252.07005310058594 285.7904968261719 263.1679382324219 295.2671203613281 265.5858154296875 286.8153381347656 C 271.5743713378906 287.3134460449219 269.9792175292969 281.5584411621094 279.067626953125 279.40985107421875 C 285.9552917480469 292.5766296386719 275.7934265136719 301.34771728515625 272.62872314453125 309.4695739746094 C 264.4050598144531 301.5612487792969 254.3930206298828 306.6716003417969 252.8802490234375 297.44244384765625" fill="rgb(243, 245, 213)" opacity="1.0" stroke-width="2.0"/>
    <path d="M 407.3031921386719 227.69595336914062 C 396.3021545410156 225.01763916015625 384.71844482421875 219.54342651367188 372.8954772949219 219.7137451171875 C 362.33966064453125 232.7766571044922 365.5445556640625 226.24574279785156 376.8528137207031 216.99786376953125 C 370.6435852050781 206.0675811767578 368.75921630859375 196.4556884765625 368.0791015625 201.6837615966797 C 378.0252685546875 201.6965789794922 386.18011474609375 198.1446533203125 407.3031921386719 227.69595336914062" fill="rgb(176, 47, 146)" opacity="1.0" stroke-width="2.0"/>
    <path d="M 272.589111328125 254.79525756835938 C 279.6022033691406 256.0615234375 275.34375 246.6595916748047 278.5160217285156 257.5011901855469 C 289.2581787109375 246.6099853515625 284.7952575683594 235.67811584472656 289.2659606933594 239.17623901367188 C 295.8724060058594 230.15322875976562 288.62860107421875 228.46556091308594 294.6854248046875 219.03741455078125 C 300.96575927734375 216.00192260742188 310.5458984375 227.77993774414062 272.589111328125 254.79525756835938" fill="rgb(110, 177, 213)" opacity="1.0" stroke-width="2.0"/>
    <path d="M 392.3429260253906 141.3522491455078 C 389.783447265625 145.0033721923828 390.44342041015625 148.17556762695312 384.6636047363281 142.9946746826172 C 391.30499267578125 142.38165283203125 389.4409484863281 150.9457550048828 380.59735107421875 150.7032470703125 C 377.5396728515625 137.95530700683594 377.03570556640625 130.82215881347656 392.3429260253906 141.3522491455078" fill="rgb(44, 157, 37)" opacity="1.0" stroke-width="2.0"/>
    <path d="M 308.4520263671875 106.47086334228516 C 308.9308166503906 117.33690643310547 305.864990234375 121.77369689941406 311.8892822265625 127.56507873535156 C 315.74884033203125 133.5704345703125 305.57537841796875 128.26869201660156 313.09783935546875 117.1067886352539 C 303.8835144042969 129.4446563720703 306.1346740722656 141.75816345214844 312.6249694824219 152.4681396484375 C 307.47210693359375 157.22396850585938 303.13775634765625 168.64129638671875 299.8503112792969 162.81381225585938 C 307.89666748046875 157.15711975097656 308.7685852050781 159.76841735839844 308.4520263671875 106.47086334228516" fill="rgb(84, 70, 191)" opacity="1.0" stroke-width="2.0"/>
    <path d="M 62.23982620239258 124.57704162597656 C 58.95115661621094 136.0439910888672 56.25847625732422 138.27774047851562 44.590023040771484 130.8143310546875 C 33.75728988647461 126.02801513671875 30.055408477783203 138.4744873046875 40.48846435546875 147.2982635498047 C 54.19478988647461 141.1885986328125 53.82139205932617 143.2176055908203 47.932029724121094 130.55731201171875 C 58.44501495361328 118.22342681884766 62.611412048339844 127.56314086914062 55.692623138427734 126.94120788574219 C 60.416603088378906 131.4511260986328 73.0053482055664 141.13473510742188 62.23982620239258 124.57704162597656" fill="rgb(132, 211, 173)" opacity="1.0" stroke-width="2.0"/>
    <path d="M 352.97137451171875 200.29736328125 C 361.6459045410156 190.79661560058594 374.4445495605469 194.4792938232422 377.2613220214844 203.30125427246094 C 365.5082092285156 192.25941467285156 362.1573486328125 200.9764862060547 359.8112487792969 189.3172149658203 C 364.6644287109375 184.558349609375 367.828857421875 176.83477783203125 379.0871887207031 177.3800811767578 C 385.975341796875 179.6779022216797 398.1923522949219 167.64149475097656 406.0277099609375 176.04302978515625 C 402.1499328613281 169.96298217773438 401.7923278808594 176.4916534423828 352.97137451171875 200.29736328125" fill="rgb(10, 190, 153)" opacity="1.0" stroke-width="2.0"/>
    <path d="M 326.398681640625 109.20503234863281 C 320.5965270996094 122.19566345214844 323.6711730957031 128.06301879882812 322.7531433105469 118.67097473144531 C 332.2637634277344 120.63456726074219 320.7239074707031 131.2120819091797 321.88818359375 133.71749877929688 C 318.6070556640625 133.02243041992188 325.7297668457031 126.22067260742188 326.398681640625 109.20503234863281" fill="rgb(253, 33, 150)" opacity="1.0" stroke-width="2.0"/>
    <path d="M 293.38946533203125 188.14239501953125 C 285.30133056640625 184.8163299560547 293.9606628417969 179.01316833496094 298.95013427734375 170.73153686523438 C 310.6205139160156 162.15956115722656 296.8465270996094 172.46432495117188 301.8382263183594 167.5717010498047 C 300.39984130859375 176.22811889648438 306.2102355957031 172.4884033203125 312.400390625 180.51519775390625 C 310.1181640625 180.1090850830078 312.6705017089844 179.5885772705078 312.0992431640625 178.24880981445312 C 317.9970703125 182.33645629882812 321.0255126953125 187.79238891601562 293.38946533203125 188.14239501953125" fill="rgb(150, 29, 117)" opacity="1.0" stroke-width="2.0"/>
    <path d="M 68.4956283569336 395.0535888671875 C 61.81635665893555 400.1382751464844 57.59834289550781 411.82440185546875 63.015323638916016 406.12896728515625 C 64.24151611328125 398.1434631347656 63.54865646362305 409.1795349121094 74.53254699707031 404.5595703125 C 73.03833770751953 407.1927185058594 74.03812408447266 419.7279968261719 61.44483947753906 411.9834899902344 C 64.77710723876953 407.742431640625 61.076499938964844 412.7663879394531 53.38159942626953 400.7169494628906 C 65.45649719238281 394.0342102050781 55.24020004272461 382.7027893066406 68.4956283569336 395.0535888671875" fill="rgb(84, 247, 234)" opacity="1.0" stroke-width="2.0"/>
    <path d="M 84.12886047363281 498.881591796875 C 73.54945373535156 499.4677734375 84.33882141113281 509.861328125 89.54534912109375 520.7682495117188 C 90.36883544921875 511.95953369140625 101.13761138916016 504.1305236816406 99.94569396972656 502.73162841796875 C 101.96685028076172 500.51873779296875 96.04901123046875 510.4761657714844 93.27674102783203 515.2227783203125 C 92.20641326904297 507.8813781738281 87.4573745727539 520.65380859375 96.04093933105469 512.0291137695312 C 89.1549301147461 523.7631225585938 99.93397521972656 520.0501708984375 84.12886047363281 498.881591796875" fill="rgb(115, 142, 201)" opacity="1.0" stroke-width="2.0"/>
    <path d="M 31.306659698486328 418.9938049316406 C 41.65134811401367 415.95123291015625 49.551780700683594 412.8683776855469 56.75727844238281 404.1532287597656 C 53.693634033203125 404.4913024902344 65.60478210449219 404.9862060546875 64.37725067138672 411.0655822753906 C 53.21780014038086 416.94091796875 39.2556266784668 425.74798583984375 32.91287612915039 416.7077331542969 C 31.072246551513672 419.40576171875 39.97953414916992 407.01788330078125 43.009681701660156 404.8070373535156 C 33.631492614746094 414.2271728515625 38.81142807006836 410.47210693359375 31.306659698486328 418.9938049316406" fill="rgb(82, 19, 114)" opacity="1.0" stroke-width="2.0"/>
    <path d="M 135.5290069580078 80.94903564453125 C 138.8467559814453 91.2402572631836 133.06906127929688 104.06702423095703 147.3944091796875 95.7832260131836 C 147.9747772216797 108.44233703613281 143.91058349609375 113.00540924072266 141.68719482421875 100.28451538085938 C 153.3544921875 110.05309295654297 155.00779724121094 118.8693618774414 135.5290069580078 80.94903564453125" fill="rgb(210, 62, 192)" opacity="1.0" stroke-width="2.0"/>
    <path d="M 214.92115783691406 481.8393249511719 C 220.69244384765625 482.32763671875 227.2932891845703 489.2721862792969 234.47946166992188 492.895751953125 C 229.4995880126953 495.2210998535156 217.21661376953125 500.2951354980469 207.57513427734375 512.3135986328125 C 209.41534423828125 516.9676513671875 206.73587036132812 509.5174560546875 204.97427368164062 499.5677795410156 C 200.7433624267578 508.7013244628906 203.54762268066406 519.2603149414062 214.92115783691406 481.8393249511719" fill="rgb(188, 55, 18)" opacity="1.0" stroke-width="2.0"/>
    <path d="M 138.33087158203125 255.93711853027344 C 134.3629150390625 244.67581176757812 128.59425354003906 245.19412231445312 139.16014099121094 242.859619140625 C 138.67323303222656 248.18161010742188 133.26174926757812 240.05679321289062 142.29629516601562 239.7822723388672 C 130.9888153076172 234.5460662841797 129.67575073242188 226.22805786132812 138.33087158203125 255.93711853027344" fill="rgb(82, 230, 229)" opacity="1.0" stroke-width="2.0"/>
    <path d="M 487.80169677734375 305.50390625 C 500.36688232421875 308.6465759277344 504.2715148925781 311.9476623535156 506.9872131347656 322.7135925292969 C 503.0694885253906 322.99658203125 498.94537353515625 315.5855712890625 488.5509338378906 325.5357666015625 C 497.090576171875 333.4535217285156 498.9165954589844 327.31658935546875 501.5707702636719 330.1385803222656 C 505.6259460449219 329.5126647949219 502.1526184082031 321.4400329589844 487.80169677734375 305.50390625" fill="rgb(81, 147, 245)" opacity="1.0" stroke-width="2.0"/>
    <path d="M 52.31780242919922 44.96929931640625 C 57.32639694213867 37.37638854980469 66.42399597167969 26.431564331054688 68.12676239013672 38.249271392822266 C 76.67894744873047 37.78526306152344 85.58882904052734 44.690486907958984 74.41895294189453 45.3557243347168 C 81.59676361083984 57.09989929199219 79.81790924072266 59.47231674194336 72.55799102783203 67.3028335571289 C 69.1930160522461 66.63958740234375 79.97312927246094 54.898014068603516 80.03094482421875 59.33716583251953 C 82.12730407714844 56.78216552734375 86.05474853515625 59.875465393066406 52.31780242919922 44.96929931640625" fill="rgb(223, 89, 56)" opacity="1.0" stroke-width="2.0"/>
    <path d="M 480.07440185546875 396.2945861816406 C 465.91595458984375 385.6640930175781 476.4629211425781 389.07574462890625 472.5127868652344 393.73876953125 C 478.609375 396.5508117675781 466.2683410644531 395.41790771484375 459.0497741699219 391.5378112792969 C 454.8192138671875 386.6785888671875 461.8176574707031 374.677978515625 480.07440185546875 396.2945861816406" fill="rgb(187, 22, 65)" opacity="1.0" stroke-width="2.0"/>
  </g>
</svg>
