<?xml version="1.0" ?>
<svg height="512" version="1.1" width="512" xmlns="http://www.w3.org/2000/svg">
  <defs/>
  <g>
    <path d="M 58.6668701171875 50.61579132080078 C 59.20276641845703 50.19926834106445 54.695926666259766 53.898250579833984 54.263004302978516 54.19222640991211 C 36.86318588256836 68.65992736816406 31.767776489257812 73.15320587158203 32.54342269897461 72.3763198852539 C 34.268245697021484 70.40089416503906 29.11395835876465 74.48338317871094 37.75693130493164 68.41886138916016 C 31.965625762939453 71.94709777832031 21.967744827270508 81.38428497314453 58.6668701171875 50.61579132080078" fill="rgb(255, 75, 138)" opacity="1.0" stroke-width="2.0"/>
    <path d="M 182.7731475830078 502.8343505859375 C 157.49874877929688 441.23162841796875 76.7354965209961 438.4311828613281 106.34564208984375 464.6529846191406 C 156.74879455566406 497.2795715332031 153.9110565185547 488.7268981933594 90.03389739990234 466.9701232910156 C 65.7808837890625 465.879150390625 77.11774444580078 466.0768127441406 89.63130950927734 467.01031494140625 C 88.61392211914062 468.04278564453125 74.98453521728516 459.37921142578125 182.7731475830078 502.8343505859375" fill="rgb(1, 4, 2)" opacity="1.0" stroke-width="2.0"/>
    <path d="M 69.29761505126953 414.12060546875 C 114.35884094238281 185.03997802734375 163.2547607421875 216.61875915527344 193.37493896484375 167.2867431640625 C 191.2266082763672 180.02024841308594 209.25665283203125 216.50466918945312 499.7750244140625 157.9534454345703 C 497.012451171875 468.8062744140625 452.4709777832031 391.73675537109375 365.8323669433594 484.907958984375 C 151.79371643066406 504.9166564941406 154.56959533691406 480.7287292480469 69.29761505126953 414.12060546875" fill="rgb(252, 220, 110)" opacity="1.0" stroke-width="2.0"/>
    <path d="M 422.2600402832031 180.42005920410156 C 420.6891784667969 216.78379821777344 380.09368896484375 230.77273559570312 357.21893310546875 210.62831115722656 C 359.28448486328125 208.19430541992188 362.69036865234375 220.00453186035156 365.702880859375 224.8273162841797 C 356.4922790527344 207.2298126220703 347.5180358886719 173.6026153564453 372.6549377441406 198.40870666503906 C 413.13238525390625 210.20736694335938 394.9267883300781 152.32684326171875 422.2600402832031 180.42005920410156" fill="rgb(2, 1, 3)" opacity="1.0" stroke-width="2.0"/>
    <path d="M 248.4595184326172 195.81884765625 C 240.88217163085938 233.4674530029297 148.72816467285156 233.29086303710938 179.4328155517578 142.47265625 C 211.8345489501953 229.1215362548828 186.91830444335938 195.1283721923828 292.36151123046875 182.275146484375 C 340.8267822265625 178.5003662109375 359.8585510253906 243.18797302246094 357.488525390625 139.4406280517578 C 166.9856719970703 111.98853302001953 188.42327880859375 121.94123840332031 248.4595184326172 195.81884765625" fill="rgb(10, 8, 7)" opacity="1.0" stroke-width="2.0"/>
    <path d="M 410.84381103515625 151.71287536621094 C 430.5246887207031 173.822265625 418.5032653808594 191.2972412109375 417.3446350097656 198.6144561767578 C 398.2223815917969 178.8765106201172 405.26910400390625 142.0409698486328 349.76336669921875 170.5439910888672 C 338.91217041015625 163.3666534423828 373.064453125 118.3399658203125 410.84381103515625 151.71287536621094" fill="rgb(3, 2, 1)" opacity="1.0" stroke-width="2.0"/>
    <path d="M 281.701904296875 11.03701400756836 C 393.837890625 20.452634811401367 347.4136657714844 117.9197006225586 253.68319702148438 163.6690673828125 C 188.248779296875 113.92709350585938 174.48426818847656 25.968467712402344 233.1287078857422 -12.49606990814209 C 390.1969299316406 61.894203186035156 349.7713928222656 101.26903533935547 264.66845703125 158.57875061035156 C 238.33663940429688 157.73721313476562 248.9759063720703 236.10385131835938 344.24517822265625 231.96121215820312 C 407.3898010253906 66.26200866699219 368.07635498046875 81.64478302001953 281.701904296875 11.03701400756836" fill="rgb(252, 222, 109)" opacity="1.0" stroke-width="2.0"/>
    <path d="M 84.72196960449219 94.58920288085938 C 21.94135284423828 160.18988037109375 48.009727478027344 207.53273010253906 47.07836151123047 106.07115936279297 C 38.76951599121094 121.4695053100586 -5.244505882263184 174.43991088867188 -0.8019838929176331 278.9812316894531 C 58.67247772216797 279.06915283203125 42.33920669555664 157.4249725341797 48.09791946411133 105.16732788085938 C 78.72388458251953 64.03650665283203 152.23663330078125 -8.171412467956543 273.13189697265625 1.0918582677841187 C 24.9796142578125 78.72197723388672 129.4418182373047 97.20024108886719 84.72196960449219 94.58920288085938" fill="rgb(3, 1, 1)" opacity="1.0" stroke-width="2.0"/>
    <path d="M 350.0814208984375 188.46475219726562 C 372.1499938964844 177.1294403076172 350.6478576660156 177.30682373046875 380.10467529296875 211.5923614501953 C 364.08587646484375 233.2360076904297 313.5108947753906 177.95172119140625 364.15869140625 143.28196716308594 C 421.10546875 134.2432098388672 353.92852783203125 164.5609588623047 362.82354736328125 181.1457061767578 C 412.6061096191406 152.00738525390625 392.9461975097656 164.0983428955078 410.9916076660156 208.41845703125 C 426.7614440917969 143.60516357421875 401.58355712890625 157.25318908691406 350.0814208984375 188.46475219726562" fill="rgb(1, 1, 1)" opacity="1.0" stroke-width="2.0"/>
    <path d="M 308.3761291503906 18.775300979614258 C 295.8338317871094 131.7380828857422 292.14886474609375 160.30401611328125 310.0754699707031 6.4635090827941895 C 416.8407897949219 30.681556701660156 472.0395812988281 94.59050750732422 507.17584228515625 191.81796264648438 C 309.0162353515625 124.55765533447266 363.9736022949219 75.91207885742188 308.3761291503906 18.775300979614258" fill="rgb(177, 157, 80)" opacity="1.0" stroke-width="2.0"/>
    <path d="M 295.3023681640625 174.38600158691406 C 298.5810852050781 187.28761291503906 299.4251403808594 188.14785766601562 292.5022888183594 152.49237060546875 C 289.0418395996094 139.94044494628906 273.3182373046875 159.60455322265625 289.7243347167969 134.38623046875 C 298.448974609375 186.0220489501953 299.2076110839844 186.75442504882812 300.0815734863281 186.25408935546875 C 287.88409423828125 169.5211639404297 308.8573303222656 171.96353149414062 293.75732421875 174.84043884277344 C 302.9978942871094 177.06814575195312 310.9718017578125 183.1306610107422 295.3023681640625 174.38600158691406" fill="rgb(254, 198, 109)" opacity="1.0" stroke-width="2.0"/>
    <path d="M 21.696226119995117 284.2218017578125 C 42.029991149902344 403.9217224121094 94.05937194824219 397.4432067871094 64.28971862792969 427.0654296875 C 72.94354248046875 387.9607238769531 61.21853256225586 401.33758544921875 109.94247436523438 441.2861633300781 C 162.3720245361328 479.9070129394531 180.63189697265625 472.8494873046875 112.02445220947266 468.95166015625 C 81.15770721435547 398.4246520996094 25.28511619567871 421.2159423828125 2.580794095993042 297.1812744140625 C -6.270742893218994 246.03086853027344 26.55592918395996 231.1969451904297 21.696226119995117 284.2218017578125" fill="rgb(2, 0, 1)" opacity="1.0" stroke-width="2.0"/>
    <path d="M 81.41765594482422 507.7218322753906 C 78.03460693359375 504.3599853515625 86.30351257324219 511.55328369140625 90.8074951171875 525.5721435546875 C 94.52173614501953 517.6522216796875 101.721923828125 508.1291809082031 93.79763793945312 518.1727294921875 C 101.24073028564453 507.472412109375 96.19739532470703 514.019287109375 94.27278137207031 518.0782470703125 C 92.38845825195312 508.1036682128906 90.49079132080078 523.9153442382812 90.93242645263672 516.9044799804688 C 83.33695220947266 528.8927001953125 94.84439086914062 524.60888671875 81.41765594482422 507.7218322753906" fill="rgb(152, 179, 243)" opacity="1.0" stroke-width="2.0"/>
    <path d="M 51.066497802734375 413.4866027832031 C 85.9637680053711 442.53436279296875 50.14716339111328 424.5626220703125 19.012744903564453 354.7513122558594 C 43.71870803833008 367.4337463378906 79.74388885498047 402.76226806640625 110.74756622314453 467.6170654296875 C 52.41142654418945 425.656494140625 56.608707427978516 402.31134033203125 37.42372512817383 417.6212463378906 C 41.22956848144531 413.46368408203125 39.914703369140625 417.972900390625 41.11233139038086 414.3067932128906 C 38.83578872680664 420.4129333496094 39.89402389526367 410.71160888671875 51.066497802734375 413.4866027832031" fill="rgb(1, 0, 1)" opacity="1.0" stroke-width="2.0"/>
    <path d="M 247.4665985107422 9.333532333374023 C 45.97240447998047 72.95242309570312 3.976897716522217 169.5813751220703 236.37078857421875 83.10308837890625 C 250.68910217285156 200.61314392089844 79.99007415771484 201.4517364501953 65.34634399414062 118.87234497070312 C 282.4356384277344 120.08584594726562 295.2412109375 -21.14743423461914 247.4665985107422 9.333532333374023" fill="rgb(231, 204, 99)" opacity="1.0" stroke-width="2.0"/>
    <path d="M 147.80584716796875 466.16534423828125 C 300.0975646972656 537.5925903320312 378.8240051269531 432.7391662597656 366.10980224609375 487.78936767578125 C 277.585205078125 528.9226684570312 222.34373474121094 501.033935546875 276.41656494140625 518.9618530273438 C 188.95909118652344 501.530029296875 175.3670196533203 514.308837890625 145.90798950195312 463.6321105957031 C 135.0437469482422 487.0381774902344 172.79547119140625 506.3483581542969 147.80584716796875 466.16534423828125" fill="rgb(1, 0, 1)" opacity="1.0" stroke-width="2.0"/>
    <path d="M 173.64907836914062 414.7115173339844 C 49.06833267211914 419.0575256347656 61.9596061706543 383.1778564453125 39.50988006591797 350.1268005371094 C 11.366084098815918 284.4552917480469 7.603626251220703 193.25953674316406 70.17686462402344 110.3187484741211 C 180.38299560546875 126.13375854492188 186.67771911621094 132.77606201171875 173.64907836914062 414.7115173339844" fill="rgb(252, 213, 108)" opacity="1.0" stroke-width="2.0"/>
    <path d="M 465.5752258300781 109.45893859863281 C 529.7254638671875 198.2247772216797 511.3323059082031 291.4259338378906 505.40655517578125 316.42169189453125 C 497.5112609863281 254.6678466796875 491.3040771484375 219.3865203857422 490.90380859375 284.0387268066406 C 470.4415283203125 399.2392272949219 426.8648681640625 394.0376281738281 471.2188720703125 378.2185363769531 C 518.4788818359375 308.1524963378906 514.2879028320312 352.31072998046875 465.5752258300781 109.45893859863281" fill="rgb(2, 1, 1)" opacity="1.0" stroke-width="2.0"/>
    <path d="M 66.27429962158203 37.68129348754883 C 77.87432098388672 51.00132369995117 72.0806655883789 44.98273849487305 65.51724243164062 47.07388687133789 C 72.02764892578125 45.26447296142578 76.94935607910156 49.656558990478516 68.46824645996094 41.12018585205078 C 79.99429321289062 52.30073547363281 75.61644744873047 57.83849334716797 76.32177734375 59.10746383666992 C 75.09056091308594 60.51148223876953 80.50354766845703 55.146522521972656 69.73677825927734 41.24655532836914 C 68.61174011230469 40.9099006652832 80.14776611328125 53.47686767578125 66.27429962158203 37.68129348754883" fill="rgb(255, 138, 104)" opacity="1.0" stroke-width="2.0"/>
    <path d="M 499.2126159667969 339.9019470214844 C 500.9393310546875 329.423095703125 490.76470947265625 372.8969421386719 459.80926513671875 411.4754638671875 C 432.46014404296875 450.3665466308594 350.7915344238281 514.4267578125 324.7685241699219 485.07611083984375 C 488.2386474609375 414.7950134277344 454.79217529296875 322.4425354003906 499.2126159667969 339.9019470214844" fill="rgb(1, 0, 1)" opacity="1.0" stroke-width="2.0"/>
  </g>
</svg>
