<?xml version="1.0" ?>
<svg height="512" version="1.1" width="512" xmlns="http://www.w3.org/2000/svg">
  <defs/>
  <g>
    <path d="M 58.89126968383789 50.91337203979492 C 58.82700729370117 50.549957275390625 54.522857666015625 54.15886306762695 54.25709533691406 54.32377243041992 C 37.152225494384766 68.96717071533203 32.084014892578125 73.4227523803711 33.25995635986328 72.43441009521484 C 35.64591979980469 70.2699203491211 29.053646087646484 74.9495849609375 37.973751068115234 69.21825408935547 C 33.098628997802734 71.74771118164062 21.937374114990234 80.95828247070312 58.89126968383789 50.91337203979492" fill="rgb(255, 80, 143)" opacity="1.0" stroke-width="2.0"/>
    <path d="M 182.65859985351562 502.6846923828125 C 157.76544189453125 441.1312561035156 77.22964477539062 438.0041809082031 108.88275146484375 466.3937072753906 C 157.0585479736328 497.08001708984375 157.6376495361328 490.2364501953125 89.82270812988281 467.3945617675781 C 66.54519653320312 467.2837219238281 78.56684112548828 467.4801025390625 88.51069641113281 467.41546630859375 C 89.46353149414062 468.497802734375 74.80219268798828 459.66400146484375 182.65859985351562 502.6846923828125" fill="rgb(1, 1, 1)" opacity="1.0" stroke-width="2.0"/>
    <path d="M 67.29077911376953 411.9812927246094 C 113.52732849121094 181.30270385742188 151.16842651367188 189.31253051757812 207.4765167236328 132.184814453125 C 203.84939575195312 180.77769470214844 202.3476104736328 212.28257751464844 493.8142395019531 154.50840759277344 C 496.7150573730469 468.7119140625 452.43768310546875 391.68267822265625 366.0708312988281 485.2948913574219 C 153.70755004882812 504.7035217285156 155.4571990966797 480.04266357421875 67.29077911376953 411.9812927246094" fill="rgb(252, 220, 111)" opacity="1.0" stroke-width="2.0"/>
    <path d="M 422.381103515625 180.23670959472656 C 420.6403503417969 216.38931274414062 380.8844909667969 230.9887237548828 356.3414306640625 210.43698120117188 C 359.2284240722656 207.81015014648438 362.67437744140625 219.3509521484375 365.7099304199219 224.51300048828125 C 356.5575866699219 206.8910369873047 346.334228515625 175.1765899658203 373.2991943359375 198.4756317138672 C 413.5028076171875 209.57301330566406 395.03485107421875 151.44508361816406 422.381103515625 180.23670959472656" fill="rgb(2, 1, 3)" opacity="1.0" stroke-width="2.0"/>
    <path d="M 251.96058654785156 188.47232055664062 C 237.88291931152344 251.08517456054688 120.86344909667969 214.97018432617188 201.74978637695312 121.28543853759766 C 191.3359375 230.56227111816406 181.25430297851562 201.8656463623047 293.11358642578125 172.09298706054688 C 341.55584716796875 174.8109893798828 360.1536865234375 236.85092163085938 354.6013488769531 149.5901641845703 C 145.72265625 137.0038299560547 174.05239868164062 128.71084594726562 251.96058654785156 188.47232055664062" fill="rgb(21, 18, 18)" opacity="1.0" stroke-width="2.0"/>
    <path d="M 410.6925964355469 151.44241333007812 C 430.2274475097656 172.97120666503906 418.6712951660156 192.86672973632812 417.44195556640625 198.76548767089844 C 397.4404296875 178.04856872558594 403.1924743652344 140.31715393066406 351.3681640625 172.21258544921875 C 338.64276123046875 164.5427703857422 376.48504638671875 118.9537582397461 410.6925964355469 151.44241333007812" fill="rgb(2, 2, 1)" opacity="1.0" stroke-width="2.0"/>
    <path d="M 293.2360534667969 9.423481941223145 C 403.3478698730469 49.15298843383789 346.9774169921875 105.28557586669922 251.7790069580078 157.4047393798828 C 174.58840942382812 118.38294982910156 170.80709838867188 38.0919189453125 236.1247100830078 -2.927440643310547 C 414.89923095703125 29.98145866394043 364.2701416015625 96.34132385253906 254.88499450683594 155.6339111328125 C 242.85194396972656 148.74266052246094 254.03872680664062 253.87832641601562 337.77838134765625 199.29135131835938 C 457.60003662109375 87.4975814819336 403.1615295410156 53.26264190673828 293.2360534667969 9.423481941223145" fill="rgb(252, 222, 109)" opacity="1.0" stroke-width="2.0"/>
    <path d="M 86.08467102050781 92.32067108154297 C 25.908910751342773 159.5343475341797 49.39508819580078 212.54843139648438 47.5183219909668 105.83631134033203 C 38.73503494262695 120.79791259765625 -5.844417095184326 176.3046875 -0.548511266708374 279.0044250488281 C 53.85842514038086 279.1222229003906 45.610328674316406 158.81947326660156 48.12558364868164 106.6348876953125 C 71.47078704833984 66.24343872070312 174.5846710205078 -22.873865127563477 282.45965576171875 7.907258033752441 C 28.417776107788086 58.376548767089844 159.0252685546875 97.35940551757812 86.08467102050781 92.32067108154297" fill="rgb(3, 3, 3)" opacity="1.0" stroke-width="2.0"/>
    <path d="M 350.6059265136719 187.98902893066406 C 372.7581481933594 176.16650390625 349.550537109375 180.50408935546875 379.48443603515625 206.13284301757812 C 360.0647888183594 237.35821533203125 313.4063720703125 171.3562469482422 367.0892333984375 142.26113891601562 C 423.15057373046875 130.5758819580078 355.5951232910156 164.8849639892578 362.01580810546875 181.23406982421875 C 415.70306396484375 151.68768310546875 394.0779113769531 163.45213317871094 407.47430419921875 209.0248260498047 C 426.4984436035156 144.00540161132812 401.68511962890625 157.7532958984375 350.6059265136719 187.98902893066406" fill="rgb(1, 1, 2)" opacity="1.0" stroke-width="2.0"/>
    <path d="M 309.3327331542969 34.45207214355469 C 296.5937194824219 130.47235107421875 289.86529541015625 156.62451171875 314.6213684082031 8.621932029724121 C 407.39398193359375 24.339214324951172 478.37347412109375 102.04248809814453 501.6161804199219 181.6771240234375 C 360.21337890625 142.49864196777344 452.80462646484375 41.332191467285156 309.3327331542969 34.45207214355469" fill="rgb(125, 111, 57)" opacity="1.0" stroke-width="2.0"/>
    <path d="M 295.338623046875 174.34617614746094 C 298.9402770996094 187.2840118408203 300.1145324707031 187.9452667236328 293.8365783691406 150.5203399658203 C 273.55816650390625 140.54534912109375 258.9595642089844 156.47833251953125 296.4981994628906 128.34536743164062 C 298.8419494628906 185.79212951660156 298.43280029296875 186.96084594726562 300.1170349121094 186.14385986328125 C 288.1181640625 169.57940673828125 308.6507263183594 172.01409912109375 294.0153503417969 174.83290100097656 C 302.9201965332031 177.05963134765625 311.0034484863281 183.0713348388672 295.338623046875 174.34617614746094" fill="rgb(253, 223, 108)" opacity="1.0" stroke-width="2.0"/>
    <path d="M 21.527793884277344 284.5423278808594 C 41.73125076293945 403.333740234375 94.38040924072266 397.4254150390625 63.660797119140625 427.7065124511719 C 74.12879943847656 386.4642639160156 60.730743408203125 401.8787841796875 110.68694305419922 441.65484619140625 C 161.61090087890625 481.1953430175781 184.03810119628906 469.3079833984375 112.12663269042969 468.95428466796875 C 81.65042877197266 399.5572204589844 24.549907684326172 419.1718444824219 2.8272862434387207 297.34674072265625 C -6.259830951690674 245.78884887695312 24.573041915893555 231.2133026123047 21.527793884277344 284.5423278808594" fill="rgb(2, 0, 1)" opacity="1.0" stroke-width="2.0"/>
    <path d="M 80.9466323852539 508.5343322753906 C 78.03173065185547 505.0698547363281 85.98479461669922 512.2338256835938 90.41608428955078 526.1842041015625 C 94.52173614501953 517.6522216796875 101.721923828125 508.1291809082031 93.79763793945312 518.1727294921875 C 101.24073028564453 507.472412109375 96.19739532470703 514.019287109375 94.27278137207031 518.0782470703125 C 92.38845825195312 508.1036682128906 90.49079132080078 523.9153442382812 90.9140396118164 516.9114379882812 C 83.09003448486328 529.2051391601562 94.16202545166016 525.4115600585938 80.9466323852539 508.5343322753906" fill="rgb(153, 181, 245)" opacity="1.0" stroke-width="2.0"/>
    <path d="M 51.71492004394531 414.00372314453125 C 85.9010009765625 443.7357482910156 48.7558479309082 422.36309814453125 18.689634323120117 354.62152099609375 C 43.34296417236328 367.5858459472656 79.75028991699219 402.9830322265625 110.85758972167969 467.6949157714844 C 52.713226318359375 426.6560363769531 57.03561782836914 401.80206298828125 37.330848693847656 417.961669921875 C 42.50265884399414 413.4731750488281 38.38569641113281 418.6072692871094 38.70073318481445 413.9571838378906 C 39.053741455078125 420.8134765625 41.33436965942383 410.0127258300781 51.71492004394531 414.00372314453125" fill="rgb(0, 0, 0)" opacity="1.0" stroke-width="2.0"/>
    <path d="M 249.4305419921875 15.243475914001465 C 47.5449104309082 55.08790588378906 13.434996604919434 183.64137268066406 236.4197998046875 81.84172058105469 C 244.6388702392578 177.95448303222656 60.51585006713867 173.8921356201172 61.628883361816406 126.03646850585938 C 277.73828125 115.88856506347656 296.5550537109375 -5.112739562988281 249.4305419921875 15.243475914001465" fill="rgb(249, 219, 107)" opacity="1.0" stroke-width="2.0"/>
    <path d="M 146.85690307617188 466.1448669433594 C 302.00775146484375 538.27490234375 381.6489562988281 431.54742431640625 367.33453369140625 487.12060546875 C 280.93011474609375 528.37744140625 218.7696075439453 501.909423828125 278.5896911621094 519.070556640625 C 189.39111328125 502.4559631347656 174.05560302734375 513.3995361328125 145.94796752929688 464.3335876464844 C 135.0624237060547 487.07196044921875 172.26475524902344 506.8951110839844 146.85690307617188 466.1448669433594" fill="rgb(1, 0, 1)" opacity="1.0" stroke-width="2.0"/>
    <path d="M 166.8263397216797 417.0965881347656 C 55.57122802734375 421.3684997558594 62.31952667236328 386.1728515625 40.464962005615234 352.19976806640625 C 11.05336856842041 286.64312744140625 5.611385822296143 186.63223266601562 77.91145324707031 101.12762451171875 C 186.39039611816406 117.7108383178711 182.9958038330078 128.46646118164062 166.8263397216797 417.0965881347656" fill="rgb(252, 213, 108)" opacity="1.0" stroke-width="2.0"/>
    <path d="M 452.3164367675781 91.33929443359375 C 534.3602905273438 188.6075897216797 509.3363952636719 296.5241394042969 506.822021484375 310.62835693359375 C 501.0213317871094 245.58038330078125 486.9902648925781 203.10824584960938 492.6069030761719 267.263427734375 C 478.10498046875 394.7953186035156 424.29974365234375 394.55322265625 471.4812316894531 380.3882751464844 C 515.1200561523438 310.9991760253906 525.7531127929688 334.1946105957031 452.3164367675781 91.33929443359375" fill="rgb(0, 0, 1)" opacity="1.0" stroke-width="2.0"/>
    <path d="M 66.41215515136719 37.599082946777344 C 76.09917449951172 51.45319747924805 71.3495864868164 44.77491760253906 65.7506103515625 46.89311981201172 C 70.64722442626953 45.1706657409668 76.2971420288086 49.846927642822266 67.58193969726562 42.61583709716797 C 79.87963104248047 53.039669036865234 76.40020751953125 58.76114273071289 78.29175567626953 56.560916900634766 C 75.43029022216797 58.92593765258789 80.60549926757812 53.74369430541992 68.69481658935547 43.195858001708984 C 68.0277328491211 42.074031829833984 78.1440200805664 54.318748474121094 66.41215515136719 37.599082946777344" fill="rgb(255, 140, 106)" opacity="1.0" stroke-width="2.0"/>
    <path d="M 500.31317138671875 335.5993347167969 C 500.99273681640625 329.5792541503906 491.0552062988281 372.04736328125 459.2381591796875 412.1013488769531 C 431.9555969238281 450.94842529296875 348.6993713378906 515.4107055664062 324.24664306640625 484.2596435546875 C 483.8086853027344 420.0439147949219 458.73583984375 319.4412841796875 500.31317138671875 335.5993347167969" fill="rgb(1, 0, 1)" opacity="1.0" stroke-width="2.0"/>
  </g>
</svg>
