<?xml version="1.0" ?>
<svg height="512" version="1.1" width="512" xmlns="http://www.w3.org/2000/svg">
  <defs/>
  <g>
    <path d="M 59.29926300048828 51.73816680908203 C 57.58588409423828 53.55149459838867 53.959476470947266 55.855247497558594 55.002628326416016 55.27790069580078 C 37.65739822387695 69.56183624267578 33.02146530151367 73.5966567993164 35.66483688354492 71.91619110107422 C 38.442481994628906 70.05777740478516 31.989463806152344 74.90619659423828 38.800838470458984 69.675537109375 C 36.93379592895508 70.76787567138672 23.649534225463867 81.2014389038086 59.29926300048828 51.73816680908203" fill="rgb(255, 99, 165)" opacity="1.0" stroke-width="2.0"/>
    <path d="M 182.58624267578125 502.6405944824219 C 158.34376525878906 441.0099792480469 77.15771484375 437.7623291015625 109.45772552490234 466.8602600097656 C 156.65968322753906 496.92156982421875 162.5272216796875 492.0828857421875 90.60774993896484 468.00091552734375 C 67.82353973388672 467.948974609375 80.87303924560547 468.34527587890625 89.08362579345703 467.8681945800781 C 90.00552368164062 468.8840637207031 74.76547241210938 459.7978515625 182.58624267578125 502.6405944824219" fill="rgb(1, 1, 1)" opacity="1.0" stroke-width="2.0"/>
    <path d="M 65.98928833007812 410.13330078125 C 111.94692993164062 167.6111602783203 138.79444885253906 142.293701171875 231.56289672851562 129.951171875 C 180.580322265625 211.06532287597656 78.16828918457031 205.66099548339844 482.83758544921875 129.18267822265625 C 516.716064453125 463.20635986328125 458.8460388183594 382.8230895996094 365.637451171875 485.46795654296875 C 155.93284606933594 504.8877868652344 157.10702514648438 479.5152282714844 65.98928833007812 410.13330078125" fill="rgb(251, 220, 111)" opacity="1.0" stroke-width="2.0"/>
    <path d="M 422.1456604003906 180.89193725585938 C 420.8377990722656 215.79058837890625 380.6344299316406 232.10968017578125 355.1185607910156 209.6411590576172 C 358.17822265625 205.74147033691406 361.7904052734375 216.8518524169922 365.11126708984375 223.4781494140625 C 357.333740234375 205.9865264892578 344.6872253417969 179.58282470703125 375.044677734375 199.00885009765625 C 413.0044860839844 207.35903930664062 396.9283142089844 150.35093688964844 422.1456604003906 180.89193725585938" fill="rgb(2, 1, 2)" opacity="1.0" stroke-width="2.0"/>
    <path d="M 253.1396942138672 187.51910400390625 C 226.5057830810547 264.8863525390625 116.79997253417969 187.6215362548828 209.70848083496094 131.2037353515625 C 167.63925170898438 216.03041076660156 219.77561950683594 222.1678924560547 275.9449462890625 148.98719787597656 C 350.8050537109375 153.51751708984375 363.072265625 208.9122314453125 357.8367004394531 147.50498962402344 C 155.62779235839844 133.73704528808594 181.55738830566406 135.3295135498047 253.1396942138672 187.51910400390625" fill="rgb(4, 4, 5)" opacity="1.0" stroke-width="2.0"/>
    <path d="M 410.6600036621094 151.8998260498047 C 429.81414794921875 171.97128295898438 420.849365234375 196.82357788085938 413.4299621582031 199.5695343017578 C 399.0772705078125 178.859619140625 404.1675720214844 140.29721069335938 350.9486083984375 171.74679565429688 C 338.61505126953125 164.768798828125 377.0707702636719 119.11711883544922 410.6600036621094 151.8998260498047" fill="rgb(1, 1, 2)" opacity="1.0" stroke-width="2.0"/>
    <path d="M 299.71051025390625 12.140360832214355 C 408.646240234375 53.909202575683594 347.54107666015625 101.83169555664062 243.3428192138672 151.6516876220703 C 165.82139587402344 109.0270767211914 166.3112335205078 43.40781021118164 232.7550811767578 -5.162064075469971 C 423.9695739746094 37.08761978149414 369.2474670410156 92.41488647460938 240.67747497558594 152.74046325683594 C 256.7998352050781 149.4664764404297 256.6725158691406 280.3092041015625 365.46575927734375 145.95196533203125 C 539.979736328125 143.38070678710938 462.4473876953125 96.4140625 299.71051025390625 12.140360832214355" fill="rgb(251, 221, 109)" opacity="1.0" stroke-width="2.0"/>
    <path d="M 94.97199249267578 83.78689575195312 C 25.03521728515625 151.12179565429688 52.8681755065918 216.0750274658203 47.52650833129883 106.44319915771484 C 38.80012893676758 120.38713073730469 -6.941831111907959 178.529052734375 -0.1273411065340042 278.986083984375 C 47.99300765991211 279.08050537109375 50.026519775390625 156.5859375 47.495548248291016 110.2210464477539 C 69.9775619506836 57.720455169677734 204.17733764648438 -31.30195426940918 279.973876953125 14.162400245666504 C 38.57017135620117 41.40800094604492 184.69273376464844 104.7419204711914 94.97199249267578 83.78689575195312" fill="rgb(4, 3, 2)" opacity="1.0" stroke-width="2.0"/>
    <path d="M 349.3736572265625 185.08351135253906 C 375.9241027832031 171.13844299316406 347.5107727050781 182.041259765625 377.7417907714844 201.974365234375 C 354.1367492675781 241.26434326171875 311.47503662109375 156.0772247314453 377.4079895019531 139.53826904296875 C 435.8255615234375 143.83193969726562 360.37005615234375 153.44656372070312 362.6082763671875 178.2318115234375 C 416.768310546875 150.2803192138672 395.89605712890625 162.8739776611328 404.72564697265625 209.45191955566406 C 425.4580078125 143.26904296875 401.3482360839844 157.44764709472656 349.3736572265625 185.08351135253906" fill="rgb(1, 1, 2)" opacity="1.0" stroke-width="2.0"/>
    <path d="M 311.9882507324219 22.87925910949707 C 291.40399169921875 120.05919647216797 285.27734375 148.1942138671875 314.85443115234375 9.349761962890625 C 405.2489013671875 23.129039764404297 482.47467041015625 102.67715454101562 495.81878662109375 185.29086303710938 C 447.5645751953125 143.0164337158203 457.88958740234375 78.31632995605469 311.9882507324219 22.87925910949707" fill="rgb(24, 22, 17)" opacity="1.0" stroke-width="2.0"/>
    <path d="M 295.34503173828125 174.3894805908203 C 298.9241638183594 187.23851013183594 299.96539306640625 187.9856414794922 293.45819091796875 150.6414794921875 C 267.7832336425781 137.17337036132812 253.49850463867188 147.5237579345703 296.76776123046875 122.22250366210938 C 299.2214050292969 185.72694396972656 298.5863342285156 186.9681396484375 300.04351806640625 186.24159240722656 C 288.0376281738281 169.6197052001953 308.6801452636719 172.00994873046875 294.02813720703125 174.7883758544922 C 302.98944091796875 176.95069885253906 310.97283935546875 183.0989532470703 295.34503173828125 174.3894805908203" fill="rgb(253, 223, 108)" opacity="1.0" stroke-width="2.0"/>
    <path d="M 21.708505630493164 285.0450744628906 C 41.67211151123047 401.9744873046875 94.06909942626953 398.7563781738281 65.44267272949219 427.3332824707031 C 73.20628356933594 386.66705322265625 60.76018524169922 402.09759521484375 110.68877410888672 441.8188781738281 C 162.9786834716797 482.0119934082031 185.72213745117188 469.9551086425781 112.5179443359375 469.0015563964844 C 81.95531463623047 402.07379150390625 23.94253158569336 417.2821350097656 2.7026612758636475 297.8821716308594 C -6.002376556396484 245.41978454589844 19.60780906677246 231.27053833007812 21.708505630493164 285.0450744628906" fill="rgb(2, 0, 1)" opacity="1.0" stroke-width="2.0"/>
    <path d="M 83.4779052734375 512.3900146484375 C 80.51300811767578 508.9215393066406 85.7025375366211 514.7603759765625 89.5932388305664 527.9341430664062 C 94.52173614501953 517.6522216796875 101.721923828125 508.1291809082031 93.79763793945312 518.1727294921875 C 101.24073028564453 507.472412109375 96.19739532470703 514.019287109375 94.27278137207031 518.0782470703125 C 92.38845825195312 508.1036682128906 90.49079132080078 523.9153442382812 90.88124084472656 516.9232788085938 C 82.63509368896484 529.711181640625 92.83625030517578 526.7451171875 83.4779052734375 512.3900146484375" fill="rgb(158, 187, 255)" opacity="1.0" stroke-width="2.0"/>
    <path d="M 52.49435806274414 414.7544250488281 C 85.35177612304688 443.6605529785156 47.025840759277344 419.7519226074219 18.7216854095459 354.3619079589844 C 43.67575454711914 366.74420166015625 79.33241271972656 403.34637451171875 111.51741790771484 467.850830078125 C 53.2228889465332 427.25103759765625 57.49757385253906 401.8576354980469 36.59589385986328 417.99603271484375 C 44.3137092590332 412.30157470703125 38.525367736816406 419.0608215332031 40.23705291748047 412.5342712402344 C 38.67131805419922 420.7213134765625 42.6714973449707 409.5632629394531 52.49435806274414 414.7544250488281" fill="rgb(1, 0, 0)" opacity="1.0" stroke-width="2.0"/>
    <path d="M 246.9830780029297 18.70506477355957 C 52.8896598815918 42.23068618774414 10.302891731262207 202.05435180664062 239.31968688964844 84.04907989501953 C 244.7165069580078 173.2675323486328 53.66750717163086 171.7881317138672 62.80345153808594 135.5460968017578 C 275.4081726074219 117.169921875 296.87628173828125 5.779685020446777 246.9830780029297 18.70506477355957" fill="rgb(252, 222, 108)" opacity="1.0" stroke-width="2.0"/>
    <path d="M 146.69110107421875 465.93499755859375 C 300.6352844238281 538.7274780273438 385.61492919921875 430.48583984375 367.82635498046875 486.85662841796875 C 284.62115478515625 527.5742797851562 214.4995574951172 502.9315490722656 281.756103515625 518.8683471679688 C 189.93008422851562 503.4507751464844 171.015869140625 512.003173828125 146.06446838378906 464.3890380859375 C 135.06092834472656 487.0908508300781 171.75816345214844 507.3299255371094 146.69110107421875 465.93499755859375" fill="rgb(1, 0, 1)" opacity="1.0" stroke-width="2.0"/>
    <path d="M 158.851806640625 422.2140808105469 C 65.87973022460938 423.2567443847656 60.83818817138672 388.21734619140625 41.68058776855469 354.28277587890625 C 10.298340797424316 288.2115478515625 4.038015842437744 179.8900604248047 85.95378875732422 92.39250183105469 C 186.5111846923828 115.6635971069336 178.6014404296875 127.17967224121094 158.851806640625 422.2140808105469" fill="rgb(252, 213, 108)" opacity="1.0" stroke-width="2.0"/>
    <path d="M 446.6438293457031 84.12905883789062 C 535.9893188476562 184.98577880859375 509.6343078613281 298.49957275390625 506.2703552246094 312.3683166503906 C 507.66558837890625 261.6700439453125 479.96697998046875 180.9407501220703 491.63739013671875 236.02781677246094 C 497.88421630859375 369.2768859863281 418.5563659667969 400.9560241699219 475.0732421875 381.6369934082031 C 510.6865234375 314.2192687988281 531.3963623046875 326.9800720214844 446.6438293457031 84.12905883789062" fill="rgb(1, 0, 0)" opacity="1.0" stroke-width="2.0"/>
    <path d="M 66.43556213378906 39.301841735839844 C 76.32342529296875 51.117828369140625 73.5883560180664 43.58181381225586 68.8508529663086 46.748531341552734 C 71.45974731445312 43.340457916259766 74.71705627441406 49.376522064208984 69.6491470336914 41.28142166137695 C 78.44761657714844 53.39915466308594 74.97466278076172 58.26446533203125 77.9090576171875 52.43286895751953 C 74.3458251953125 58.43209457397461 78.99578857421875 54.12286376953125 70.26103973388672 42.33802032470703 C 69.65795135498047 41.27617645263672 78.19597625732422 52.39894485473633 66.43556213378906 39.301841735839844" fill="rgb(255, 147, 112)" opacity="1.0" stroke-width="2.0"/>
    <path d="M 500.4440002441406 336.2451171875 C 500.8269958496094 330.02569580078125 491.31170654296875 372.3244934082031 458.6526184082031 413.15838623046875 C 430.59539794921875 452.403076171875 346.1366882324219 516.8695678710938 323.609130859375 483.5161437988281 C 478.0904541015625 427.1709289550781 463.6980895996094 314.9410400390625 500.4440002441406 336.2451171875" fill="rgb(1, 0, 1)" opacity="1.0" stroke-width="2.0"/>
  </g>
</svg>
