<?xml version="1.0" ?>
<svg height="512" version="1.1" width="512" xmlns="http://www.w3.org/2000/svg">
  <defs/>
  <g>
    <path d="M 59.21577453613281 51.63969421386719 C 57.53968811035156 53.25426483154297 54.2632942199707 55.96533966064453 55.102176666259766 55.38726806640625 C 37.57039260864258 69.44593048095703 33.324188232421875 73.91400146484375 35.0379638671875 71.52469635009766 C 38.18390655517578 68.91146087646484 31.607818603515625 74.3741455078125 38.92112731933594 69.51860809326172 C 36.843048095703125 71.00584411621094 23.46766471862793 81.1329574584961 59.21577453613281 51.63969421386719" fill="rgb(255, 98, 163)" opacity="1.0" stroke-width="2.0"/>
    <path d="M 182.7425537109375 502.5785827636719 C 158.2966766357422 441.0157775878906 77.11396026611328 437.775390625 109.3124008178711 466.93853759765625 C 156.60430908203125 496.9751281738281 162.18643188476562 491.9010925292969 90.53884887695312 468.04876708984375 C 67.70225524902344 468.2641906738281 80.59693145751953 468.0132751464844 89.2160415649414 468.1042785644531 C 89.79344177246094 469.0427551269531 74.61286163330078 459.9469299316406 182.7425537109375 502.5785827636719" fill="rgb(1, 1, 1)" opacity="1.0" stroke-width="2.0"/>
    <path d="M 66.07845306396484 410.24615478515625 C 111.96676635742188 167.74647521972656 138.88681030273438 143.45164489746094 231.78460693359375 130.8338623046875 C 182.45118713378906 209.61477661132812 79.85120391845703 204.16656494140625 483.13299560546875 128.20985412597656 C 515.9598999023438 464.023681640625 458.6432800292969 382.9404296875 365.62103271484375 485.3528747558594 C 155.7610321044922 504.7652893066406 156.96926879882812 479.4978332519531 66.07845306396484 410.24615478515625" fill="rgb(251, 220, 111)" opacity="1.0" stroke-width="2.0"/>
    <path d="M 422.2710876464844 180.7274932861328 C 420.469970703125 215.81944274902344 380.8449401855469 232.09498596191406 355.1041564941406 209.65818786621094 C 358.8039245605469 205.3993377685547 361.7877502441406 217.03146362304688 365.1246337890625 223.6055908203125 C 357.2345275878906 206.09417724609375 344.6431579589844 179.5696258544922 375.16815185546875 198.96554565429688 C 413.00848388671875 207.748046875 396.88336181640625 150.42807006835938 422.2710876464844 180.7274932861328" fill="rgb(2, 1, 2)" opacity="1.0" stroke-width="2.0"/>
    <path d="M 253.4429931640625 186.83135986328125 C 226.9299774169922 264.3247375488281 117.10830688476562 189.0700225830078 208.8364715576172 131.0222625732422 C 168.6512451171875 216.57281494140625 219.80125427246094 222.1632537841797 274.8694152832031 148.7108612060547 C 350.7332458496094 153.66200256347656 363.0509033203125 209.08309936523438 357.08660888671875 148.45864868164062 C 152.47613525390625 134.9340362548828 180.23643493652344 132.29327392578125 253.4429931640625 186.83135986328125" fill="rgb(5, 4, 5)" opacity="1.0" stroke-width="2.0"/>
    <path d="M 410.6636962890625 151.82772827148438 C 429.84228515625 172.1441192626953 420.8388366699219 196.61631774902344 413.6933898925781 199.41030883789062 C 398.8619384765625 178.7371063232422 404.2020568847656 140.28082275390625 350.9955139160156 171.7838134765625 C 338.621337890625 164.75155639648438 377.1054992675781 119.05827331542969 410.6636962890625 151.82772827148438" fill="rgb(1, 1, 2)" opacity="1.0" stroke-width="2.0"/>
    <path d="M 299.6972351074219 12.080832481384277 C 408.0080261230469 53.80677032470703 347.3793640136719 102.01089477539062 243.37948608398438 151.661376953125 C 166.2706298828125 108.32583618164062 166.46005249023438 43.26524353027344 232.94357299804688 -5.27593469619751 C 423.4149475097656 36.1264762878418 368.89306640625 92.68058013916016 240.72682189941406 152.88851928710938 C 256.3725891113281 148.82357788085938 257.1856689453125 279.0569152832031 364.9058837890625 146.12661743164062 C 539.2989501953125 141.36094665527344 461.9676818847656 96.07159423828125 299.6972351074219 12.080832481384277" fill="rgb(251, 222, 109)" opacity="1.0" stroke-width="2.0"/>
    <path d="M 94.83267211914062 84.28382873535156 C 25.04275894165039 151.61581420898438 52.564857482910156 215.86544799804688 47.451541900634766 106.28888702392578 C 38.74740219116211 120.33185577392578 -6.911067485809326 178.41319274902344 -0.17915675044059753 278.980224609375 C 48.48907470703125 279.0848083496094 50.062808990478516 156.94033813476562 47.4411735534668 110.12785339355469 C 69.41444396972656 58.631046295166016 202.57998657226562 -30.98377227783203 280.3822021484375 13.818355560302734 C 38.156005859375 41.943233489990234 183.8198699951172 104.56929016113281 94.83267211914062 84.28382873535156" fill="rgb(4, 3, 2)" opacity="1.0" stroke-width="2.0"/>
    <path d="M 349.457763671875 185.08819580078125 C 376.3515319824219 171.03744506835938 347.46429443359375 182.1226806640625 377.8366394042969 201.8637237548828 C 354.6599426269531 240.9721221923828 311.1549987792969 156.3490753173828 377.36346435546875 139.5930938720703 C 436.69403076171875 144.53872680664062 360.2862854003906 153.23471069335938 362.34014892578125 177.95436096191406 C 416.5782165527344 150.10238647460938 395.86297607421875 162.77581787109375 404.9715576171875 209.40272521972656 C 425.5282897949219 143.2897186279297 401.4397277832031 157.50462341308594 349.457763671875 185.08819580078125" fill="rgb(2, 1, 2)" opacity="1.0" stroke-width="2.0"/>
    <path d="M 312.109130859375 22.495521545410156 C 291.65966796875 120.3734130859375 285.7799072265625 148.7833251953125 314.7946472167969 9.619766235351562 C 405.43157958984375 23.125375747680664 481.9815368652344 102.63945770263672 495.8499755859375 184.43797302246094 C 445.82427978515625 140.78237915039062 458.66619873046875 79.36181640625 312.109130859375 22.495521545410156" fill="rgb(24, 22, 18)" opacity="1.0" stroke-width="2.0"/>
    <path d="M 295.3452453613281 174.38473510742188 C 298.92596435546875 187.24160766601562 299.97979736328125 187.9811553955078 293.4854736328125 150.6171112060547 C 267.9366455078125 137.2598114013672 253.62484741210938 147.7315216064453 296.74072265625 122.3685073852539 C 299.19384765625 185.73138427734375 298.5726013183594 186.96823120117188 300.0491943359375 186.23387145996094 C 288.0435485839844 169.615966796875 308.67718505859375 172.0099639892578 294.02642822265625 174.7931671142578 C 302.9829406738281 176.96102905273438 310.97589111328125 183.09622192382812 295.3452453613281 174.38473510742188" fill="rgb(253, 223, 108)" opacity="1.0" stroke-width="2.0"/>
    <path d="M 21.933021545410156 285.0277099609375 C 41.505828857421875 402.3794250488281 93.71682739257812 399.1410827636719 65.3514175415039 427.6866760253906 C 73.59458923339844 386.3310546875 60.87279510498047 402.0479431152344 110.71620178222656 441.7601623535156 C 162.98158264160156 481.9599304199219 185.58859252929688 470.07598876953125 112.11412811279297 468.970947265625 C 81.9375228881836 402.02044677734375 24.20193099975586 417.1756286621094 2.808558225631714 297.72491455078125 C -5.934145927429199 245.4380645751953 19.87047004699707 231.26968383789062 21.933021545410156 285.0277099609375" fill="rgb(2, 0, 1)" opacity="1.0" stroke-width="2.0"/>
    <path d="M 83.03844451904297 512.06005859375 C 80.41276550292969 508.35333251953125 85.84042358398438 514.4234008789062 89.67475128173828 527.7850952148438 C 94.52173614501953 517.6522216796875 101.721923828125 508.1291809082031 93.79763793945312 518.1727294921875 C 101.24073028564453 507.472412109375 96.19739532470703 514.019287109375 94.27278137207031 518.0782470703125 C 92.38845825195312 508.1036682128906 90.49079132080078 523.9153442382812 90.88114166259766 516.9232788085938 C 82.63375854492188 529.712646484375 92.84902954101562 526.7349243164062 83.03844451904297 512.06005859375" fill="rgb(158, 187, 254)" opacity="1.0" stroke-width="2.0"/>
    <path d="M 52.38627243041992 414.8646240234375 C 85.66323852539062 443.5176086425781 47.09361267089844 419.9063720703125 18.871620178222656 354.2755126953125 C 43.63211441040039 366.8384704589844 79.48875427246094 403.24188232421875 111.46045684814453 467.9461364746094 C 53.14498519897461 427.2914123535156 57.28035354614258 402.0741271972656 36.76911544799805 418.282958984375 C 44.1517219543457 412.1692199707031 38.281768798828125 419.1667175292969 40.23341369628906 412.35528564453125 C 38.538917541503906 420.483642578125 42.43364715576172 409.6021728515625 52.38627243041992 414.8646240234375" fill="rgb(0, 0, 0)" opacity="1.0" stroke-width="2.0"/>
    <path d="M 247.21214294433594 18.60999298095703 C 52.51414489746094 42.73944854736328 10.948147773742676 201.1116180419922 239.30264282226562 83.71846771240234 C 244.63287353515625 173.15675354003906 53.58171081542969 171.64178466796875 62.698829650878906 134.95755004882812 C 275.61090087890625 117.20661163330078 296.9215393066406 5.648804187774658 247.21214294433594 18.60999298095703" fill="rgb(252, 222, 108)" opacity="1.0" stroke-width="2.0"/>
    <path d="M 146.82106018066406 465.8253173828125 C 300.74664306640625 538.7322998046875 385.314453125 430.47705078125 367.7836608886719 486.9370422363281 C 284.57293701171875 527.7349853515625 214.7914581298828 502.8751525878906 281.5137634277344 518.9744262695312 C 189.9068603515625 503.4607849121094 171.3259735107422 512.0745849609375 146.05911254882812 464.46417236328125 C 135.06146240234375 487.0922546386719 171.7550048828125 507.3331298828125 146.82106018066406 465.8253173828125" fill="rgb(1, 0, 1)" opacity="1.0" stroke-width="2.0"/>
    <path d="M 159.41517639160156 421.7869873046875 C 65.25402069091797 423.0912170410156 60.85194778442383 388.1175537109375 41.518890380859375 354.1840515136719 C 10.324705123901367 288.455078125 4.0746235847473145 179.96054077148438 85.6583023071289 92.70641326904297 C 186.79336547851562 115.63218688964844 178.9532470703125 127.15377044677734 159.41517639160156 421.7869873046875" fill="rgb(252, 213, 108)" opacity="1.0" stroke-width="2.0"/>
    <path d="M 446.90899658203125 84.39610290527344 C 535.9754638671875 185.29086303710938 509.7336730957031 298.2630920410156 506.2547912597656 311.63360595703125 C 507.0194396972656 260.16766357421875 480.5377197265625 182.58815002441406 491.9356384277344 237.6824188232422 C 496.8811340332031 370.798095703125 419.00885009765625 400.7339172363281 475.07647705078125 381.7925109863281 C 510.84912109375 313.8657531738281 531.2015991210938 327.02313232421875 446.90899658203125 84.39610290527344" fill="rgb(0, 0, 0)" opacity="1.0" stroke-width="2.0"/>
    <path d="M 66.17961120605469 39.37916564941406 C 76.21803283691406 51.174564361572266 72.88198852539062 43.53547286987305 68.32403564453125 46.7137565612793 C 72.47196960449219 43.630863189697266 75.2260971069336 49.474403381347656 69.20128631591797 42.01673889160156 C 78.64073944091797 53.17881393432617 74.84436798095703 58.397193908691406 78.03668212890625 52.42626953125 C 74.60749816894531 58.271995544433594 78.64690399169922 54.64622497558594 69.97003173828125 42.33211135864258 C 68.77642059326172 42.001304626464844 78.00353240966797 52.66204833984375 66.17961120605469 39.37916564941406" fill="rgb(255, 146, 112)" opacity="1.0" stroke-width="2.0"/>
    <path d="M 500.25390625 336.19647216796875 C 500.7811279296875 329.9757385253906 491.2449951171875 372.2959289550781 458.7278137207031 413.12982177734375 C 430.75927734375 452.33917236328125 346.3205261230469 516.8357543945312 323.6295471191406 483.5299072265625 C 478.4033508300781 426.6494140625 463.2949523925781 315.12042236328125 500.25390625 336.19647216796875" fill="rgb(1, 0, 1)" opacity="1.0" stroke-width="2.0"/>
  </g>
</svg>
