<?xml version="1.0" ?>
<svg height="512" version="1.1" width="512" xmlns="http://www.w3.org/2000/svg">
  <defs/>
  <g>
    <path d="M 55.2692756652832 54.6485710144043 C 55.74820327758789 54.4498405456543 55.19862365722656 54.4783935546875 54.26911163330078 55.64509963989258 C 37.5330810546875 69.31633758544922 31.638797760009766 74.84229278564453 35.73666763305664 73.1068344116211 C 36.25181198120117 73.0071029663086 32.923851013183594 74.60177612304688 37.42504119873047 72.08361053466797 C 37.591373443603516 72.44365692138672 23.87174415588379 80.20344543457031 55.2692756652832 54.6485710144043" fill="rgb(255, 91, 157)" opacity="1.0" stroke-width="2.0"/>
    <path d="M 480.9890441894531 379.8579406738281 C 406.7658386230469 508.6294250488281 260.9288024902344 539.5595703125 151.39732360839844 490.275146484375 C 15.912134170532227 430.0408935546875 7.342401027679443 284.8252868652344 29.580472946166992 404.2374267578125 C 44.5096435546875 473.3742370605469 43.491939544677734 470.85760498046875 21.85664939880371 366.466796875 C -50.962947845458984 121.35274505615234 -39.22306442260742 186.1658935546875 480.9890441894531 379.8579406738281" fill="rgb(3, 2, 3)" opacity="1.0" stroke-width="2.0"/>
    <path d="M 26.387178421020508 315.0364074707031 C 14.701592445373535 145.9302215576172 -18.75156593322754 218.4949188232422 46.012664794921875 108.69725799560547 C 133.6666259765625 -16.64942741394043 324.6377258300781 -46.101993560791016 446.06402587890625 83.81829071044922 C 560.4948120117188 209.85081481933594 504.6209411621094 394.8753356933594 444.6645812988281 397.4390869140625 C 327.1823425292969 550.9126586914062 86.50666809082031 513.5270385742188 26.387178421020508 315.0364074707031" fill="rgb(225, 196, 98)" opacity="1.0" stroke-width="2.0"/>
    <path d="M 414.135498046875 155.0252227783203 C 444.30853271484375 200.19581604003906 384.09771728515625 246.27243041992188 347.8283996582031 202.079345703125 C 361.82830810546875 218.95706176757812 379.6819152832031 215.2465362548828 375.38555908203125 215.8118438720703 C 327.6241149902344 213.7561492919922 330.66815185546875 135.64389038085938 389.03887939453125 139.92669677734375 C 403.9978332519531 145.84048461914062 398.7948303222656 141.05271911621094 414.135498046875 155.0252227783203" fill="rgb(66, 65, 65)" opacity="1.0" stroke-width="2.0"/>
  </g>
</svg>
