<?xml version="1.0" ?>
<svg height="512" version="1.1" width="512" xmlns="http://www.w3.org/2000/svg">
  <defs/>
  <g>
    <path d="M 56.0994758605957 54.28493881225586 C 58.979209899902344 52.275367736816406 56.16221237182617 53.935489654541016 54.573387145996094 55.69752502441406 C 37.2993049621582 69.0746841430664 29.883546829223633 74.13139343261719 31.606630325317383 73.10176849365234 C 34.093841552734375 73.26619720458984 27.602941513061523 73.84418487548828 36.43121337890625 70.24372100830078 C 30.037025451660156 72.7430191040039 21.84334373474121 81.22988891601562 56.0994758605957 54.28493881225586" fill="rgb(255, 66, 128)" opacity="1.0" stroke-width="2.0"/>
    <path d="M 299.5026550292969 409.0564270019531 C 316.7480163574219 577.2244873046875 259.4153137207031 534.4500732421875 116.29183959960938 473.966796875 C 25.139619827270508 397.83135986328125 51.0217170715332 397.33392333984375 67.58802032470703 441.8197021484375 C 87.25496673583984 463.6265563964844 73.8199234008789 455.4400329589844 60.16180419921875 426.32080078125 C 14.173890113830566 340.7255554199219 -50.695796966552734 332.5095520019531 299.5026550292969 409.0564270019531" fill="rgb(16, 14, 12)" opacity="1.0" stroke-width="2.0"/>
    <path d="M 60.196956634521484 410.8581848144531 C 37.837074279785156 213.93247985839844 41.74466323852539 168.90853881835938 44.43717575073242 90.44071960449219 C 93.0179214477539 81.24893951416016 108.37672424316406 72.34603118896484 488.36346435546875 70.29412078857422 C 499.6791076660156 393.7198791503906 485.19537353515625 423.8469543457031 440.59466552734375 502.9786376953125 C 137.3378448486328 497.80523681640625 167.5977783203125 471.7842102050781 60.196956634521484 410.8581848144531" fill="rgb(232, 203, 107)" opacity="1.0" stroke-width="2.0"/>
    <path d="M 421.1742248535156 167.4983673095703 C 430.5275573730469 208.9607391357422 385.1537170410156 238.2644500732422 351.986083984375 206.8560333251953 C 367.2147521972656 230.92823791503906 377.2514953613281 230.0076141357422 367.89801025390625 226.55731201171875 C 341.1127624511719 200.34832763671875 320.92291259765625 157.56015014648438 380.46490478515625 137.48336791992188 C 416.3470458984375 152.59947204589844 395.0924072265625 128.27491760253906 421.1742248535156 167.4983673095703" fill="rgb(68, 66, 66)" opacity="1.0" stroke-width="2.0"/>
  </g>
</svg>
