<?xml version="1.0" ?>
<svg height="512" version="1.1" width="512" xmlns="http://www.w3.org/2000/svg">
  <defs/>
  <g>
    <path d="M 55.21467208862305 54.63140106201172 C 55.6790771484375 54.818668365478516 55.365535736083984 54.73305892944336 54.1867561340332 55.5761833190918 C 37.504112243652344 69.27688598632812 31.750490188598633 74.88544464111328 36.10203170776367 73.40275573730469 C 36.4393196105957 72.95133972167969 33.08493423461914 74.47498321533203 37.597930908203125 72.33719635009766 C 37.447147369384766 72.23685455322266 23.967784881591797 80.26815032958984 55.21467208862305 54.63140106201172" fill="rgb(255, 92, 158)" opacity="1.0" stroke-width="2.0"/>
    <path d="M 483.0740966796875 376.20208740234375 C 408.6849670410156 509.3898010253906 260.54718017578125 539.53857421875 151.36866760253906 490.32562255859375 C 14.963150024414062 429.7918395996094 6.9040045738220215 282.844482421875 28.69753074645996 402.3616638183594 C 43.64323806762695 473.5531005859375 43.08116149902344 471.19378662109375 21.44593620300293 365.7569580078125 C -51.700111389160156 117.02115631103516 -37.24767303466797 182.9717254638672 483.0740966796875 376.20208740234375" fill="rgb(3, 2, 3)" opacity="1.0" stroke-width="2.0"/>
    <path d="M 25.018678665161133 310.6822509765625 C 16.628067016601562 143.6569061279297 -17.44505500793457 216.1397705078125 45.22612762451172 109.67431640625 C 132.77105712890625 -17.284053802490234 324.92266845703125 -45.66525650024414 446.18670654296875 83.5906753540039 C 559.7949829101562 209.27220153808594 504.69207763671875 392.8755798339844 448.5647277832031 392.567626953125 C 331.9732971191406 552.3590087890625 83.41831970214844 515.3809204101562 25.018678665161133 310.6822509765625" fill="rgb(225, 196, 98)" opacity="1.0" stroke-width="2.0"/>
    <path d="M 414.0006103515625 155.02777099609375 C 444.3097229003906 200.16305541992188 384.2620849609375 246.3125 347.87158203125 202.00576782226562 C 361.87017822265625 218.81405639648438 379.77392578125 215.1762237548828 375.3546142578125 215.9528350830078 C 327.29852294921875 213.8782196044922 330.908447265625 135.69248962402344 389.0858154296875 139.96701049804688 C 403.8625183105469 145.6285400390625 399.25079345703125 141.08836364746094 414.0006103515625 155.02777099609375" fill="rgb(66, 65, 65)" opacity="1.0" stroke-width="2.0"/>
  </g>
</svg>
