<?xml version="1.0" ?>
<svg height="512" version="1.1" width="512" xmlns="http://www.w3.org/2000/svg">
  <defs/>
  <g>
    <path d="M 55.88614273071289 54.1917610168457 C 58.26824188232422 52.679718017578125 56.07981491088867 54.1789436340332 54.28704833984375 55.45268630981445 C 37.46268844604492 69.28101348876953 30.328088760375977 74.65176391601562 32.69348907470703 72.86612701416016 C 35.02664566040039 70.9805908203125 30.22359848022461 74.6631088256836 35.460689544677734 70.47008514404297 C 33.49309539794922 71.84915161132812 22.871749877929688 80.7319564819336 55.88614273071289 54.1917610168457" fill="rgb(255, 73, 136)" opacity="1.0" stroke-width="2.0"/>
    <path d="M 379.2543029785156 394.83880615234375 C 375.27685546875 538.16796875 259.124267578125 529.134521484375 149.93759155273438 490.7325744628906 C 24.58492660522461 425.88946533203125 36.63538360595703 344.4999694824219 46.695003509521484 441.0591125488281 C 51.14655303955078 474.8538818359375 49.73528289794922 467.52197265625 41.80720520019531 402.8836669921875 C -30.703350067138672 239.89134216308594 -42.2592658996582 258.82574462890625 379.2543029785156 394.83880615234375" fill="rgb(6, 5, 6)" opacity="1.0" stroke-width="2.0"/>
    <path d="M 47.933231353759766 367.8677978515625 C -15.14604663848877 219.01614379882812 -31.91313934326172 263.42242431640625 50.71849060058594 92.34564971923828 C 178.72486877441406 -8.409543991088867 184.99050903320312 -38.70302963256836 484.1136169433594 61.087345123291016 C 543.1804809570312 343.4701843261719 506.4410705566406 383.6555480957031 381.2378234863281 483.9615478515625 C 207.5223846435547 508.4456481933594 116.94974517822266 481.32183837890625 47.933231353759766 367.8677978515625" fill="rgb(220, 192, 100)" opacity="1.0" stroke-width="2.0"/>
    <path d="M 415.5685119628906 156.54794311523438 C 442.6548767089844 205.87417602539062 379.733642578125 243.80624389648438 348.99737548828125 202.45420837402344 C 361.8879699707031 221.23825073242188 381.0265197753906 214.7872772216797 373.24591064453125 216.34799194335938 C 333.4884033203125 214.95797729492188 326.15386962890625 141.41090393066406 386.0385437011719 139.27066040039062 C 410.64898681640625 148.29019165039062 393.4527893066406 137.00338745117188 415.5685119628906 156.54794311523438" fill="rgb(66, 65, 65)" opacity="1.0" stroke-width="2.0"/>
  </g>
</svg>
