<?xml version="1.0" ?>
<svg height="512" version="1.1" width="512" xmlns="http://www.w3.org/2000/svg">
  <defs/>
  <g>
    <path d="M 56.06187057495117 54.12028884887695 C 59.28909683227539 52.2587776184082 56.13853454589844 53.92646789550781 54.395751953125 55.56489181518555 C 37.43696212768555 69.1739730834961 29.97517967224121 74.2090835571289 30.270097732543945 73.35315704345703 C 34.03427505493164 74.48338317871094 26.4893741607666 73.87015533447266 36.750675201416016 70.43226623535156 C 29.558073043823242 71.97383117675781 22.024465560913086 81.67771911621094 56.06187057495117 54.12028884887695" fill="rgb(255, 63, 125)" opacity="1.0" stroke-width="2.0"/>
    <path d="M 204.89431762695312 428.7880859375 C 223.2109832763672 539.6887817382812 181.94468688964844 510.3629150390625 91.26746368408203 455.7122802734375 C 66.7530746459961 420.13262939453125 52.63456726074219 442.0243835449219 67.57493591308594 458.6739501953125 C 74.59785461425781 474.9644775390625 77.92449951171875 465.87579345703125 72.9460678100586 467.5500793457031 C 61.256324768066406 449.1773986816406 23.411418914794922 409.91058349609375 204.89431762695312 428.7880859375" fill="rgb(148, 107, 66)" opacity="1.0" stroke-width="2.0"/>
    <path d="M 153.4748077392578 394.42236328125 C 147.62828063964844 209.85215759277344 157.22702026367188 214.93829345703125 161.02076721191406 192.26414489746094 C 169.24266052246094 180.7068328857422 173.99732971191406 174.30630493164062 379.31134033203125 177.9031219482422 C 387.5511779785156 382.6786193847656 376.77960205078125 391.59918212890625 369.8625183105469 413.2337341308594 C 176.857421875 405.3860778808594 168.1210174560547 409.2864990234375 153.4748077392578 394.42236328125" fill="rgb(243, 215, 106)" opacity="1.0" stroke-width="2.0"/>
    <path d="M 424.4980773925781 169.55531311035156 C 419.2837829589844 214.7854461669922 402.7340087890625 237.0814971923828 352.8917236328125 209.480224609375 C 368.8892822265625 232.09654235839844 377.5574951171875 231.51730346679688 366.46331787109375 225.53761291503906 C 343.67047119140625 200.55911254882812 324.8040466308594 177.70230102539062 368.4208679199219 121.15602111816406 C 433.0025329589844 152.84091186523438 416.3360290527344 124.59159088134766 424.4980773925781 169.55531311035156" fill="rgb(94, 99, 69)" opacity="1.0" stroke-width="2.0"/>
  </g>
</svg>
