<?xml version="1.0" ?>
<svg height="512" version="1.1" width="512" xmlns="http://www.w3.org/2000/svg">
  <defs/>
  <g>
    <path d="M 58.828392028808594 47.40703201293945 C 70.15808868408203 53.27194595336914 58.25395202636719 58.21291732788086 49.969120025634766 56.48920440673828 C 37.615020751953125 68.9489517211914 25.219680786132812 72.7456283569336 24.816858291625977 71.81258392333984 C 14.34874153137207 75.28245544433594 21.202159881591797 75.35711669921875 32.9326171875 68.95201873779297 C 35.2235221862793 79.50843811035156 24.17436981201172 83.99079132080078 58.828392028808594 47.40703201293945" fill="rgb(212, 18, 79)" opacity="1.0" stroke-width="2.0"/>
    <path d="M 128.46270751953125 476.96044921875 C 125.38102722167969 477.76519775390625 113.06902313232422 479.93829345703125 100.41563415527344 470.81951904296875 C 99.94487762451172 467.67913818359375 90.29798889160156 469.9200134277344 81.70323944091797 471.3879089355469 C 70.59903717041016 480.6020812988281 77.5357437133789 492.28369140625 70.34818267822266 487.2998962402344 C 58.56141662597656 481.6698913574219 66.40567779541016 473.32568359375 128.46270751953125 476.96044921875" fill="rgb(41, 215, 13)" opacity="1.0" stroke-width="2.0"/>
    <path d="M 252.8802490234375 297.44329833984375 C 252.07005310058594 285.7906799316406 263.1687927246094 295.2672424316406 265.58660888671875 286.81536865234375 C 271.5743103027344 287.3135070800781 269.9792175292969 281.55859375 279.0680236816406 279.40997314453125 C 285.95562744140625 292.577392578125 275.7934875488281 301.3473815917969 272.6319274902344 309.46929931640625 C 264.4071350097656 301.5594787597656 254.39402770996094 306.66912841796875 252.8802490234375 297.44329833984375" fill="rgb(243, 245, 213)" opacity="1.0" stroke-width="2.0"/>
    <path d="M 407.3031921386719 227.69593811035156 C 396.3016357421875 225.01779174804688 384.7174377441406 219.5436248779297 372.8980407714844 219.71392822265625 C 362.340087890625 232.7770538330078 365.59576416015625 226.49710083007812 376.85284423828125 216.99790954589844 C 370.6435852050781 206.0675811767578 368.7591552734375 196.45733642578125 368.07684326171875 201.68374633789062 C 378.0252685546875 201.6965789794922 386.18011474609375 198.1446533203125 407.3031921386719 227.69593811035156" fill="rgb(176, 47, 146)" opacity="1.0" stroke-width="2.0"/>
  </g>
</svg>
