<?xml version="1.0" ?>
<svg height="512" version="1.1" width="512" xmlns="http://www.w3.org/2000/svg">
  <defs/>
  <g>
    <path d="M 55.71115493774414 54.91508102416992 C 56.88500213623047 54.52830505371094 55.79695510864258 54.63925552368164 54.54510498046875 55.95590591430664 C 37.622562408447266 69.33924102783203 31.59914779663086 74.96746063232422 34.323020935058594 72.54472351074219 C 34.568756103515625 72.15737915039062 31.415189743041992 74.73628234863281 37.5588493347168 71.33252716064453 C 36.16613006591797 71.8272705078125 24.095369338989258 80.77808380126953 55.71115493774414 54.91508102416992" fill="rgb(255, 86, 151)" opacity="1.0" stroke-width="2.0"/>
    <path d="M 464.9133605957031 406.2016296386719 C 391.6018371582031 503.2121276855469 269.34527587890625 540.97607421875 150.2576904296875 489.9632263183594 C 23.872848510742188 432.2690734863281 12.002386093139648 301.7515869140625 35.2214469909668 420.64080810546875 C 45.77318572998047 474.4838562011719 45.02003860473633 469.7595520019531 25.603954315185547 373.5860595703125 C -46.929988861083984 159.99632263183594 -38.86509704589844 210.01312255859375 464.9133605957031 406.2016296386719" fill="rgb(4, 3, 3)" opacity="1.0" stroke-width="2.0"/>
    <path d="M 38.968135833740234 358.14788818359375 C 5.132779121398926 165.2255401611328 -36.29243087768555 249.04635620117188 50.194496154785156 101.5682601928711 C 136.15713500976562 -12.612911224365234 321.4217834472656 -47.993736267089844 446.9383850097656 84.00834655761719 C 564.2780151367188 218.038330078125 505.38067626953125 412.15966796875 416.2939147949219 429.3328857421875 C 287.0185241699219 541.773193359375 117.08905792236328 494.9097595214844 38.968135833740234 358.14788818359375" fill="rgb(223, 194, 98)" opacity="1.0" stroke-width="2.0"/>
    <path d="M 414.26959228515625 155.185791015625 C 444.08050537109375 201.70223999023438 382.9378356933594 245.5620880126953 348.1379089355469 202.17271423339844 C 361.8260192871094 219.43157958984375 379.89300537109375 215.09593200683594 374.4264221191406 216.00045776367188 C 329.65093994140625 214.50340270996094 328.92242431640625 136.7781524658203 388.6568603515625 139.74374389648438 C 406.0317687988281 146.83763122558594 396.9603576660156 139.7129669189453 414.26959228515625 155.185791015625" fill="rgb(66, 65, 65)" opacity="1.0" stroke-width="2.0"/>
  </g>
</svg>
