<?xml version="1.0" ?>
<svg height="512" version="1.1" width="512" xmlns="http://www.w3.org/2000/svg">
  <defs/>
  <g>
    <path d="M 56.098907470703125 54.14459228515625 C 59.20720672607422 52.0434684753418 55.9066162109375 53.74904251098633 54.24918746948242 55.412940979003906 C 37.24201583862305 68.9880142211914 29.972518920898438 74.25260925292969 30.068248748779297 73.399658203125 C 33.973976135253906 74.6021499633789 26.28006362915039 73.89563751220703 37.18400573730469 70.73800659179688 C 29.771560668945312 72.08479309082031 21.915355682373047 81.6226806640625 56.098907470703125 54.14459228515625" fill="rgb(255, 63, 125)" opacity="1.0" stroke-width="2.0"/>
    <path d="M 191.96678161621094 434.1609191894531 C 208.4212646484375 532.8516845703125 170.18234252929688 505.6623840332031 92.93366241455078 455.22943115234375 C 74.6898422241211 431.83380126953125 62.155879974365234 451.799560546875 67.2861099243164 460.8919677734375 C 74.1543960571289 476.3548889160156 78.6176528930664 466.9873352050781 73.6529541015625 470.3943786621094 C 65.82672119140625 462.7662353515625 35.23978805541992 422.6393737792969 191.96678161621094 434.1609191894531" fill="rgb(141, 89, 61)" opacity="1.0" stroke-width="2.0"/>
    <path d="M 168.3615264892578 377.9686584472656 C 163.1422576904297 218.0032501220703 173.0926513671875 224.82977294921875 177.30874633789062 207.06985473632812 C 185.08242797851562 196.13613891601562 187.602783203125 189.6455841064453 366.0540466308594 191.33497619628906 C 373.0814514160156 371.18994140625 362.3258056640625 380.33642578125 354.93804931640625 398.1916198730469 C 187.6009979248047 390.11749267578125 178.62318420410156 394.05682373046875 168.3615264892578 377.9686584472656" fill="rgb(245, 216, 105)" opacity="1.0" stroke-width="2.0"/>
    <path d="M 426.15985107421875 170.23886108398438 C 414.3070373535156 216.1527099609375 410.05072021484375 235.27706909179688 349.8741149902344 210.2074432373047 C 365.4648742675781 234.536865234375 375.9361877441406 229.6079559326172 364.3385009765625 227.4598846435547 C 343.61444091796875 207.1912078857422 327.1947021484375 179.68638610839844 362.98992919921875 126.22032928466797 C 427.4284362792969 160.00387573242188 417.4397888183594 129.2348175048828 426.15985107421875 170.23886108398438" fill="rgb(90, 78, 79)" opacity="1.0" stroke-width="2.0"/>
  </g>
</svg>
