<?xml version="1.0" ?>
<svg height="512" version="1.1" width="512" xmlns="http://www.w3.org/2000/svg">
  <defs/>
  <g>
    <path d="M 56.25056076049805 54.372066497802734 C 59.1297607421875 52.321868896484375 56.14118957519531 53.95292282104492 54.56675338745117 55.73341751098633 C 37.192047119140625 68.94591522216797 29.942991256713867 74.1051254272461 30.937034606933594 72.96233367919922 C 34.142452239990234 73.72962188720703 27.709487915039062 73.78092956542969 36.96529769897461 70.38807678222656 C 29.767841339111328 72.59620666503906 21.805662155151367 81.23796844482422 56.25056076049805 54.372066497802734" fill="rgb(255, 65, 127)" opacity="1.0" stroke-width="2.0"/>
    <path d="M 275.4863586425781 407.1585998535156 C 292.62603759765625 569.3583984375 237.71751403808594 533.0914306640625 106.4406967163086 466.713623046875 C 27.337940216064453 396.9580078125 52.7602653503418 399.2187805175781 73.61061096191406 440.40191650390625 C 75.68766784667969 468.5237731933594 80.57113647460938 458.4236145019531 68.2091064453125 429.8371887207031 C 22.7431640625 369.343994140625 -37.012413024902344 350.4980773925781 275.4863586425781 407.1585998535156" fill="rgb(68, 63, 31)" opacity="1.0" stroke-width="2.0"/>
    <path d="M 86.7764892578125 427.313232421875 C 69.63900756835938 189.66668701171875 75.64315032958984 175.95870971679688 81.73072052001953 124.46266174316406 C 115.46980285644531 109.23377227783203 129.3765411376953 100.66038513183594 451.0290222167969 104.20000457763672 C 464.810302734375 396.9742736816406 457.7410583496094 430.70953369140625 445.8421630859375 493.2692565917969 C 129.40347290039062 484.6900329589844 152.32666015625 473.7990417480469 86.7764892578125 427.313232421875" fill="rgb(239, 209, 107)" opacity="1.0" stroke-width="2.0"/>
    <path d="M 422.1648254394531 169.1591339111328 C 426.7156982421875 208.96737670898438 389.9864196777344 235.8360137939453 353.6112976074219 209.31002807617188 C 367.80126953125 232.40545654296875 374.9537048339844 234.03257751464844 366.8187255859375 228.04074096679688 C 342.4915771484375 196.53656005859375 321.9693298339844 164.59719848632812 375.43060302734375 137.49301147460938 C 414.9045715332031 158.0533905029297 396.7237243652344 128.5148162841797 422.1648254394531 169.1591339111328" fill="rgb(66, 65, 65)" opacity="1.0" stroke-width="2.0"/>
  </g>
</svg>
