<?xml version="1.0" ?>
<svg height="512" version="1.1" width="512" xmlns="http://www.w3.org/2000/svg">
  <defs/>
  <g>
    <path d="M 55.592803955078125 54.810916900634766 C 56.37718200683594 54.5432014465332 55.64799499511719 54.73734664916992 54.35648727416992 55.760154724121094 C 37.82818603515625 69.55946350097656 31.741727828979492 74.91081237792969 36.54762268066406 72.97187042236328 C 36.7606315612793 73.40033721923828 32.99435043334961 75.35086059570312 37.952842712402344 72.0752944946289 C 37.863311767578125 72.39678955078125 24.330766677856445 80.6053237915039 55.592803955078125 54.810916900634766" fill="rgb(255, 89, 155)" opacity="1.0" stroke-width="2.0"/>
    <path d="M 474.4053039550781 391.0368957519531 C 400.5552978515625 506.3370056152344 263.4789733886719 540.0639038085938 151.1326904296875 490.1529541015625 C 18.826868057250977 431.1677551269531 9.095808982849121 291.4455261230469 32.09212875366211 410.42645263671875 C 45.77912139892578 473.2467346191406 44.55429458618164 469.9254150390625 23.426279067993164 369.55487060546875 C -49.535587310791016 137.0226287841797 -41.90229415893555 196.60162353515625 474.4053039550781 391.0368957519531" fill="rgb(3, 3, 2)" opacity="1.0" stroke-width="2.0"/>
    <path d="M 31.053804397583008 331.6077575683594 C 9.591755867004395 154.1492156982422 -23.66373634338379 232.07485961914062 47.39842987060547 104.9917984008789 C 135.8389892578125 -14.713407516479492 323.37664794921875 -47.08699417114258 446.3791198730469 83.90232849121094 C 562.2584838867188 213.197998046875 504.7268981933594 402.0075988769531 433.3599853515625 411.7585754394531 C 311.05859375 546.5702514648438 96.9649887084961 506.2408752441406 31.053804397583008 331.6077575683594" fill="rgb(224, 195, 98)" opacity="1.0" stroke-width="2.0"/>
    <path d="M 414.15802001953125 155.1029510498047 C 444.1285400390625 200.673828125 384.11627197265625 246.0952911376953 347.9504089355469 202.01339721679688 C 361.7466125488281 219.0673828125 379.7665100097656 215.33082580566406 374.8743591308594 215.9561767578125 C 328.4027404785156 214.0680389404297 329.82940673828125 136.1071319580078 388.9004211425781 139.8665771484375 C 404.8834228515625 146.31703186035156 398.2079772949219 140.37442016601562 414.15802001953125 155.1029510498047" fill="rgb(66, 65, 65)" opacity="1.0" stroke-width="2.0"/>
  </g>
</svg>
