<?xml version="1.0" ?>
<svg height="512" version="1.1" width="512" xmlns="http://www.w3.org/2000/svg">
  <defs/>
  <g>
    <path d="M 56.0271110534668 54.41083908081055 C 58.19133377075195 53.24833297729492 55.69515609741211 54.224937438964844 54.17155456542969 55.44050598144531 C 37.48270034790039 69.24755096435547 30.372604370117188 74.55422973632812 32.89524459838867 72.85501098632812 C 34.027854919433594 71.14579772949219 30.468950271606445 74.86528778076172 36.40553283691406 70.94029235839844 C 34.11100769042969 72.0614013671875 23.149654388427734 80.88990783691406 56.0271110534668 54.41083908081055" fill="rgb(255, 75, 138)" opacity="1.0" stroke-width="2.0"/>
    <path d="M 392.50042724609375 400.1691589355469 C 387.06591796875 530.633056640625 251.69497680664062 529.3905029296875 152.1920928955078 491.4911193847656 C 24.006078720092773 428.35028076171875 32.96154022216797 337.0555725097656 43.96071243286133 438.5832824707031 C 49.21195602416992 474.9538269042969 47.90708541870117 468.41705322265625 38.98176574707031 399.05548095703125 C -34.175662994384766 226.12330627441406 -38.42123794555664 249.45513916015625 392.50042724609375 400.1691589355469" fill="rgb(5, 4, 5)" opacity="1.0" stroke-width="2.0"/>
    <path d="M 47.52439498901367 368.72784423828125 C -11.423033714294434 208.74899291992188 -33.5245361328125 269.01678466796875 50.550079345703125 91.34505462646484 C 177.5522003173828 -9.581040382385254 214.23451232910156 -41.53602600097656 473.67828369140625 68.54389190673828 C 550.003662109375 321.5447998046875 507.6197814941406 381.9664306640625 386.5943908691406 480.9389343261719 C 206.2727508544922 509.19769287109375 121.85942077636719 483.68609619140625 47.52439498901367 368.72784423828125" fill="rgb(220, 192, 99)" opacity="1.0" stroke-width="2.0"/>
    <path d="M 415.1728515625 156.01318359375 C 443.2959289550781 204.99952697753906 380.4385070800781 244.20278930664062 349.0127258300781 202.433837890625 C 361.2780456542969 221.32374572753906 380.2748107910156 214.64053344726562 373.5035705566406 216.08192443847656 C 332.6801452636719 215.26412963867188 326.7468566894531 139.97251892089844 386.6231994628906 139.42823791503906 C 409.8108215332031 147.92837524414062 393.83770751953125 137.55511474609375 415.1728515625 156.01318359375" fill="rgb(66, 65, 65)" opacity="1.0" stroke-width="2.0"/>
  </g>
</svg>
