<?xml version="1.0" ?>
<svg height="512" version="1.1" width="512" xmlns="http://www.w3.org/2000/svg">
  <defs/>
  <g>
    <path d="M 55.54932403564453 54.82491683959961 C 56.18228530883789 54.45979309082031 55.57871627807617 54.63572692871094 54.299747467041016 55.672645568847656 C 37.60432815551758 69.33621978759766 32.03773880004883 75.25907897949219 36.21259307861328 73.3007583618164 C 35.9566764831543 72.82276153564453 33.68144989013672 75.46192932128906 37.98118209838867 72.15669250488281 C 37.796234130859375 72.3806381225586 24.157459259033203 80.43844604492188 55.54932403564453 54.82491683959961" fill="rgb(255, 90, 155)" opacity="1.0" stroke-width="2.0"/>
    <path d="M 476.7877197265625 387.2352294921875 C 402.5506286621094 507.1898193359375 262.7314758300781 539.9300537109375 151.2090606689453 490.216552734375 C 17.91066551208496 430.78228759765625 8.485649108886719 289.07989501953125 31.119630813598633 408.4369201660156 C 45.36790084838867 473.2637939453125 44.16615295410156 470.26190185546875 22.798870086669922 368.775146484375 C -49.397037506103516 131.78208923339844 -41.054832458496094 193.231201171875 476.7877197265625 387.2352294921875" fill="rgb(3, 2, 2)" opacity="1.0" stroke-width="2.0"/>
    <path d="M 29.049325942993164 325.4065246582031 C 11.052016258239746 151.29232788085938 -21.58127212524414 227.17575073242188 46.93947219848633 106.09207916259766 C 135.3187255859375 -15.381494522094727 323.9560852050781 -46.86591720581055 446.1885681152344 83.88330078125 C 561.5547485351562 211.77857971191406 504.34405517578125 399.4245910644531 437.2641296386719 407.09027099609375 C 316.09893798828125 547.877197265625 93.66411590576172 508.87445068359375 29.049325942993164 325.4065246582031" fill="rgb(225, 195, 98)" opacity="1.0" stroke-width="2.0"/>
    <path d="M 414.3077392578125 155.0371551513672 C 444.2159423828125 200.39950561523438 384.0733642578125 246.35719299316406 348.057373046875 202.11880493164062 C 361.4696960449219 219.14431762695312 379.62322998046875 215.2020263671875 375.02301025390625 215.97267150878906 C 328.16595458984375 214.0523681640625 330.1997985839844 136.01849365234375 388.92431640625 139.8940887451172 C 404.5943908691406 146.1700897216797 398.4377746582031 140.58746337890625 414.3077392578125 155.0371551513672" fill="rgb(66, 65, 65)" opacity="1.0" stroke-width="2.0"/>
  </g>
</svg>
