<?xml version="1.0" ?>
<svg height="512" version="1.1" width="512" xmlns="http://www.w3.org/2000/svg">
  <defs/>
  <g>
    <path d="M 55.88241195678711 54.177978515625 C 58.21656799316406 52.57038116455078 55.980587005615234 54.121341705322266 54.284793853759766 55.45196533203125 C 37.22240447998047 69.04375457763672 30.279998779296875 74.59362030029297 32.40866470336914 72.82730865478516 C 35.11431121826172 71.45413970947266 29.831951141357422 74.5035171508789 35.80087661743164 70.69886016845703 C 33.44828414916992 71.94515991210938 22.7482967376709 80.65180969238281 55.88241195678711 54.177978515625" fill="rgb(255, 72, 136)" opacity="1.0" stroke-width="2.0"/>
    <path d="M 367.8097229003906 392.61907958984375 C 365.4666748046875 545.8768310546875 264.2698059082031 529.9378662109375 146.8697967529297 489.6374206542969 C 24.67469596862793 422.7437744140625 40.18130111694336 352.3379821777344 48.942665100097656 442.8117370605469 C 53.648704528808594 474.6518249511719 52.31986999511719 466.3808898925781 44.41481399536133 406.84039306640625 C -26.987058639526367 252.81919860839844 -45.01554489135742 267.6109619140625 367.8097229003906 392.61907958984375" fill="rgb(7, 6, 6)" opacity="1.0" stroke-width="2.0"/>
    <path d="M 47.771331787109375 366.6160583496094 C -18.947437286376953 231.59043884277344 -30.56317138671875 255.25205993652344 50.627864837646484 93.94254302978516 C 172.12977600097656 -2.903015613555908 147.84190368652344 -31.461917877197266 496.1317138671875 53.44758224487305 C 534.4243774414062 354.5084228515625 502.17108154296875 388.30877685546875 379.6884460449219 485.1971130371094 C 205.14117431640625 507.9109802246094 114.88359069824219 480.2698974609375 47.771331787109375 366.6160583496094" fill="rgb(220, 193, 101)" opacity="1.0" stroke-width="2.0"/>
    <path d="M 416.15972900390625 157.37171936035156 C 441.9049072265625 206.7350311279297 379.4546203613281 243.12033081054688 348.9408874511719 202.50759887695312 C 362.07879638671875 222.05743408203125 380.5803527832031 215.13487243652344 372.69464111328125 216.958984375 C 334.43572998046875 214.7476043701172 325.5260009765625 142.656494140625 385.37799072265625 139.13253784179688 C 411.5719299316406 148.65708923339844 393.1273193359375 136.2790985107422 416.15972900390625 157.37171936035156" fill="rgb(66, 65, 65)" opacity="1.0" stroke-width="2.0"/>
  </g>
</svg>
