<?xml version="1.0" ?>
<svg height="512" version="1.1" width="512" xmlns="http://www.w3.org/2000/svg">
  <defs/>
  <g>
    <path d="M 56.03204345703125 54.32147979736328 C 58.3298225402832 52.599937438964844 56.32868957519531 54.3209228515625 54.528385162353516 55.71504211425781 C 37.050724029541016 68.85623931884766 30.30801773071289 74.62531280517578 31.803518295288086 72.85162353515625 C 35.24064254760742 71.67489624023438 29.35409164428711 74.14786529541016 36.29216766357422 71.04154205322266 C 32.8625602722168 72.1090087890625 22.366878509521484 80.46151733398438 56.03204345703125 54.32147979736328" fill="rgb(255, 71, 134)" opacity="1.0" stroke-width="2.0"/>
    <path d="M 353.71649169921875 394.40362548828125 C 355.72418212890625 559.6340942382812 271.7984313964844 532.18701171875 141.4203338623047 487.2465515136719 C 24.443513870239258 417.7309265136719 44.63938522338867 362.753662109375 52.523223876953125 444.0464782714844 C 57.54911422729492 474.3738708496094 55.79187774658203 464.80841064453125 48.37016296386719 411.8534851074219 C -21.4346981048584 270.2181396484375 -48.054115295410156 279.4427795410156 353.71649169921875 394.40362548828125" fill="rgb(11, 10, 10)" opacity="1.0" stroke-width="2.0"/>
    <path d="M 47.745174407958984 367.0003967285156 C -23.785507202148438 250.73573303222656 -31.03491973876953 239.4338836669922 50.00544357299805 96.91752624511719 C 159.430419921875 4.491471290588379 122.0600814819336 -25.595014572143555 510.37896728515625 33.53459930419922 C 529.8143310546875 363.2986145019531 499.4826965332031 385.34307861328125 381.1081237792969 486.32916259765625 C 190.0336151123047 504.53387451171875 119.06494140625 479.5990905761719 47.745174407958984 367.0003967285156" fill="rgb(221, 193, 104)" opacity="1.0" stroke-width="2.0"/>
    <path d="M 416.9588623046875 158.62681579589844 C 440.381591796875 208.25979614257812 379.05511474609375 242.1507568359375 349.2090148925781 202.53175354003906 C 362.528564453125 223.41590881347656 381.74627685546875 217.06015014648438 371.7208251953125 218.75726318359375 C 336.0732421875 213.31698608398438 324.2162780761719 144.99667358398438 384.6088562011719 138.8083038330078 C 412.5090637207031 149.45606994628906 392.8468933105469 134.97055053710938 416.9588623046875 158.62681579589844" fill="rgb(66, 65, 65)" opacity="1.0" stroke-width="2.0"/>
  </g>
</svg>
