<?xml version="1.0" ?>
<svg height="512" version="1.1" width="512" xmlns="http://www.w3.org/2000/svg">
  <defs/>
  <g>
    <path d="M 55.94660949707031 54.24219512939453 C 58.22661590576172 52.506797790527344 56.079986572265625 54.15889358520508 54.345909118652344 55.51695251464844 C 37.173404693603516 68.98342895507812 30.134912490844727 74.46160125732422 32.081119537353516 72.98418426513672 C 35.36210250854492 71.93450164794922 29.471614837646484 74.2358169555664 36.15436935424805 70.86473083496094 C 33.12281036376953 71.94696807861328 22.391006469726562 80.3751449584961 55.94660949707031 54.24219512939453" fill="rgb(255, 71, 135)" opacity="1.0" stroke-width="2.0"/>
    <path d="M 357.8968811035156 393.2729797363281 C 358.26617431640625 554.9155883789062 269.24322509765625 531.4366455078125 143.33648681640625 488.1764831542969 C 24.361791610717773 419.5741271972656 42.978572845458984 359.26416015625 51.484596252441406 443.6390075683594 C 56.32129669189453 474.4562072753906 54.27750778198242 465.4961242675781 46.924652099609375 410.50775146484375 C -23.46267318725586 264.8758544921875 -46.93563461303711 275.72882080078125 357.8968811035156 393.2729797363281" fill="rgb(10, 9, 9)" opacity="1.0" stroke-width="2.0"/>
    <path d="M 47.54990005493164 366.52825927734375 C -22.264877319335938 245.0446319580078 -29.52876091003418 247.77883911132812 51.135982513427734 95.36155700683594 C 161.26083374023438 1.4672162532806396 126.61876678466797 -27.192718505859375 507.59161376953125 40.66289138793945 C 530.338623046875 360.0974426269531 499.8277893066406 388.18341064453125 380.8150634765625 485.6318664550781 C 196.13108825683594 505.9757080078125 117.26284790039062 479.85577392578125 47.54990005493164 366.52825927734375" fill="rgb(221, 193, 103)" opacity="1.0" stroke-width="2.0"/>
    <path d="M 416.63897705078125 158.27586364746094 C 441.0186462402344 207.68028259277344 378.9169921875 242.5572052001953 349.0539855957031 202.5561065673828 C 362.5751953125 222.60940551757812 381.6362609863281 216.08639526367188 372.3199462890625 217.4284210205078 C 335.48504638671875 213.462646484375 324.5715637207031 144.37745666503906 384.7957763671875 138.9444580078125 C 412.1687316894531 149.25021362304688 392.93359375 135.44094848632812 416.63897705078125 158.27586364746094" fill="rgb(66, 65, 65)" opacity="1.0" stroke-width="2.0"/>
  </g>
</svg>
