<?xml version="1.0" ?>
<svg height="512" version="1.1" width="512" xmlns="http://www.w3.org/2000/svg">
  <defs/>
  <g>
    <path d="M 55.922908782958984 54.2244873046875 C 58.20097351074219 52.57916259765625 55.94121170043945 54.09160614013672 54.3013916015625 55.468143463134766 C 37.29256057739258 69.11616516113281 30.372203826904297 74.68540954589844 32.65610885620117 72.8808364868164 C 34.89320755004883 71.05575561523438 29.959407806396484 74.56706237792969 35.527103424072266 70.51651000976562 C 33.42318344116211 71.82861328125 22.92191505432129 80.79513549804688 55.922908782958984 54.2244873046875" fill="rgb(255, 73, 136)" opacity="1.0" stroke-width="2.0"/>
    <path d="M 373.1771240234375 393.1269836425781 C 369.8648681640625 541.5738525390625 261.35040283203125 529.8787231445312 148.60671997070312 490.0392150878906 C 24.520578384399414 424.5789794921875 38.640167236328125 348.3498840332031 47.77545166015625 441.9746398925781 C 52.363590240478516 474.74542236328125 50.90227127075195 467.001953125 43.12405776977539 404.845458984375 C -28.969465255737305 246.4069061279297 -43.90324020385742 263.271484375 373.1771240234375 393.1269836425781" fill="rgb(6, 5, 6)" opacity="1.0" stroke-width="2.0"/>
    <path d="M 47.78376007080078 367.1342468261719 C -17.227270126342773 225.46005249023438 -31.289552688598633 259.4761657714844 50.378658294677734 93.11549377441406 C 175.21168518066406 -4.372109413146973 164.2677459716797 -33.64506912231445 489.87774658203125 58.61137390136719 C 539.1103515625 351.02398681640625 504.9187316894531 386.0754089355469 379.4679260253906 484.68475341796875 C 207.3313751220703 508.6356506347656 115.85568237304688 480.5742492675781 47.78376007080078 367.1342468261719" fill="rgb(220, 192, 100)" opacity="1.0" stroke-width="2.0"/>
    <path d="M 415.8769836425781 156.94290161132812 C 442.368896484375 206.33837890625 379.77862548828125 243.37936401367188 348.8763122558594 202.41867065429688 C 362.0677795410156 221.61727905273438 380.9356384277344 215.27017211914062 372.97503662109375 216.59385681152344 C 333.8870544433594 214.74398803710938 325.72650146484375 141.99758911132812 385.70135498046875 139.21005249023438 C 411.1033630371094 148.4558868408203 393.2442321777344 136.68185424804688 415.8769836425781 156.94290161132812" fill="rgb(66, 65, 65)" opacity="1.0" stroke-width="2.0"/>
  </g>
</svg>
