<?xml version="1.0" ?>
<svg height="512" version="1.1" width="512" xmlns="http://www.w3.org/2000/svg">
  <defs/>
  <g>
    <path d="M 55.634212493896484 54.25432586669922 C 57.515602111816406 53.57856369018555 55.46025848388672 54.64044189453125 54.02384567260742 55.6015625 C 37.566650390625 69.28177642822266 31.218660354614258 74.98594665527344 34.02671432495117 72.8829345703125 C 34.459476470947266 71.58860778808594 30.85776138305664 74.81710052490234 38.25346755981445 71.59580993652344 C 35.295738220214844 71.76700592041016 23.638858795166016 80.83283233642578 55.634212493896484 54.25432586669922" fill="rgb(255, 80, 144)" opacity="1.0" stroke-width="2.0"/>
    <path d="M 419.7479553222656 417.4453125 C 407.02093505859375 516.627685546875 233.71206665039062 530.9668579101562 154.68466186523438 491.7233581542969 C 23.131925582885742 431.9731140136719 27.693313598632812 324.82940673828125 40.387962341308594 433.4346923828125 C 46.59916687011719 474.8844299316406 45.58940887451172 469.4783935546875 34.938907623291016 393.1426086425781 C -37.797210693359375 207.0157470703125 -30.59556007385254 236.4851531982422 419.7479553222656 417.4453125" fill="rgb(5, 3, 3)" opacity="1.0" stroke-width="2.0"/>
    <path d="M 45.5659065246582 368.2755126953125 C -7.073600769042969 197.8935089111328 -36.02116012573242 273.1336364746094 51.202754974365234 92.11324310302734 C 164.00221252441406 -8.332977294921875 262.1332092285156 -43.812015533447266 463.3711853027344 75.00752258300781 C 557.428466796875 281.6234436035156 506.935546875 388.1407775878906 397.7666320800781 470.3190002441406 C 211.86410522460938 514.938720703125 129.62228393554688 488.2809753417969 45.5659065246582 368.2755126953125" fill="rgb(221, 192, 98)" opacity="1.0" stroke-width="2.0"/>
    <path d="M 414.7164306640625 155.6746368408203 C 443.715087890625 203.4314422607422 381.22039794921875 244.69134521484375 348.5904846191406 202.26605224609375 C 361.1904296875 220.3672332763672 381.04254150390625 214.82266235351562 373.7369079589844 216.2458038330078 C 331.8462219238281 215.12367248535156 327.3216857910156 139.0880126953125 387.46429443359375 139.51644897460938 C 408.35516357421875 147.643798828125 394.854736328125 138.17855834960938 414.7164306640625 155.6746368408203" fill="rgb(66, 65, 65)" opacity="1.0" stroke-width="2.0"/>
  </g>
</svg>
