<?xml version="1.0" ?>
<svg height="512" version="1.1" width="512" xmlns="http://www.w3.org/2000/svg">
  <defs/>
  <g>
    <path d="M 55.952728271484375 53.04440689086914 C 59.77248001098633 50.867034912109375 54.16450881958008 53.244022369384766 53.77732467651367 55.583499908447266 C 36.9278678894043 68.81461334228516 26.290512084960938 74.15219116210938 32.25670623779297 75.58041381835938 C 32.23645782470703 68.77003479003906 24.899030685424805 72.56755828857422 39.974857330322266 70.6676254272461 C 30.74074363708496 70.73934936523438 21.292688369750977 81.40188598632812 55.952728271484375 53.04440689086914" fill="rgb(252, 55, 117)" opacity="1.0" stroke-width="2.0"/>
    <path d="M 156.57118225097656 458.3940734863281 C 151.5951385498047 490.91119384765625 125.38494110107422 475.6199035644531 100.04985046386719 467.4867858886719 C 96.20812225341797 471.7705383300781 87.7239990234375 470.49853515625 84.32042694091797 472.8723449707031 C 65.39350128173828 480.6890869140625 73.30897521972656 479.25311279296875 80.05864715576172 474.01678466796875 C 66.87095642089844 485.349853515625 74.45580291748047 467.0313720703125 156.57118225097656 458.3940734863281" fill="rgb(73, 198, 50)" opacity="1.0" stroke-width="2.0"/>
    <path d="M 221.87210083007812 320.533447265625 C 219.9461669921875 257.93743896484375 230.68283081054688 267.7043151855469 233.979248046875 256.9762878417969 C 241.769287109375 255.18060302734375 240.27186584472656 248.80198669433594 311.2200012207031 247.431640625 C 318.4735107421875 323.1957092285156 308.3589782714844 333.1009216308594 301.6863708496094 342.3291320800781 C 232.92698669433594 334.01605224609375 223.33355712890625 338.7741394042969 221.87210083007812 320.533447265625" fill="rgb(253, 221, 130)" opacity="1.0" stroke-width="2.0"/>
    <path d="M 434.12408447265625 197.6827392578125 C 404.0775146484375 211.532470703125 397.70587158203125 226.23614501953125 354.5911560058594 219.61619567871094 C 361.5630798339844 239.43089294433594 367.67608642578125 229.85482788085938 361.96966552734375 229.23611450195312 C 346.9768981933594 219.8641815185547 339.2028503417969 191.96786499023438 342.4765625 177.65953063964844 C 403.61578369140625 194.38194274902344 413.6509094238281 170.88375854492188 434.12408447265625 197.6827392578125" fill="rgb(98, 83, 69)" opacity="1.0" stroke-width="2.0"/>
  </g>
</svg>
