<?xml version="1.0" ?>
<svg height="512" version="1.1" width="512" xmlns="http://www.w3.org/2000/svg">
  <defs/>
  <g>
    <path d="M 55.63956832885742 54.79153060913086 C 56.982635498046875 54.18445587158203 55.78885269165039 54.415672302246094 54.33354187011719 55.70235061645508 C 37.645511627197266 69.3727798461914 31.623584747314453 75.02867889404297 35.0234489440918 72.4249496459961 C 34.633888244628906 73.3403549194336 30.53059959411621 75.33867645263672 37.6231689453125 71.89624786376953 C 35.80411148071289 72.29629516601562 23.871458053588867 80.82212829589844 55.63956832885742 54.79153060913086" fill="rgb(255, 84, 149)" opacity="1.0" stroke-width="2.0"/>
    <path d="M 450.60418701171875 415.2400207519531 C 400.6528625488281 503.531005859375 251.08187866210938 539.2213745117188 152.09811401367188 490.17095947265625 C 24.354970932006836 434.699951171875 16.42935562133789 307.0774841308594 36.6070671081543 425.1092529296875 C 45.68442916870117 474.7170104980469 44.710636138916016 470.05181884765625 27.98552703857422 377.79962158203125 C -46.29472351074219 174.671630859375 -33.49958801269531 217.65927124023438 450.60418701171875 415.2400207519531" fill="rgb(6, 5, 4)" opacity="1.0" stroke-width="2.0"/>
    <path d="M 41.126312255859375 361.69879150390625 C 0.9415651559829712 175.74874877929688 -39.0007438659668 257.5727233886719 50.915374755859375 98.83460998535156 C 141.257568359375 -11.67090129852295 317.0314025878906 -48.5352783203125 447.5794677734375 83.57686614990234 C 565.6051025390625 226.6002197265625 501.61859130859375 394.608642578125 422.7276916503906 442.78936767578125 C 245.27525329589844 531.1919555664062 130.27801513671875 495.88299560546875 41.126312255859375 361.69879150390625" fill="rgb(222, 193, 97)" opacity="1.0" stroke-width="2.0"/>
    <path d="M 414.3750305175781 155.3279266357422 C 444.1530456542969 202.12518310546875 382.2664794921875 245.51104736328125 348.4541015625 202.28570556640625 C 361.5560302734375 219.87820434570312 379.81964111328125 214.96063232421875 374.17608642578125 216.03028869628906 C 330.1313781738281 214.78697204589844 328.4156799316406 137.48968505859375 388.4554138183594 139.71084594726562 C 406.6742248535156 147.07891845703125 396.4430847167969 139.26551818847656 414.3750305175781 155.3279266357422" fill="rgb(66, 65, 65)" opacity="1.0" stroke-width="2.0"/>
  </g>
</svg>
