<?xml version="1.0" ?>
<svg height="512" version="1.1" width="512" xmlns="http://www.w3.org/2000/svg">
  <defs/>
  <g>
    <path d="M 55.626041412353516 54.820152282714844 C 56.532352447509766 54.58742904663086 55.60746765136719 54.7138671875 54.392486572265625 55.79871368408203 C 38.01361846923828 69.71497344970703 31.893911361694336 75.05815887451172 36.24970245361328 73.15814971923828 C 36.06220245361328 72.69512939453125 32.33518600463867 74.95574188232422 37.97942352294922 71.91349792480469 C 37.32318878173828 72.22847747802734 24.223737716674805 80.6360092163086 55.626041412353516 54.820152282714844" fill="rgb(255, 88, 154)" opacity="1.0" stroke-width="2.0"/>
    <path d="M 471.70947265625 395.0277099609375 C 399.17425537109375 505.44482421875 263.3938903808594 540.1795654296875 151.1029815673828 490.2934875488281 C 19.32792854309082 431.4783020019531 10.051624298095703 294.09832763671875 33.059146881103516 412.4355773925781 C 47.20197677612305 473.0025329589844 45.15635681152344 469.4148864746094 24.014738082885742 369.83050537109375 C -49.854766845703125 141.98292541503906 -42.57417297363281 199.67909240722656 471.70947265625 395.0277099609375" fill="rgb(5, 2, 3)" opacity="1.0" stroke-width="2.0"/>
    <path d="M 33.05107116699219 337.694091796875 C 7.279104232788086 158.41603088378906 -26.997478485107422 237.37249755859375 47.99177932739258 104.00393676757812 C 135.71742248535156 -14.1830472946167 323.8638916015625 -47.4050407409668 446.32403564453125 84.05548095703125 C 562.7432861328125 213.16241455078125 504.50738525390625 404.7238464355469 429.422119140625 416.3924865722656 C 304.80841064453125 545.2515258789062 101.66954803466797 503.4687194824219 33.05107116699219 337.694091796875" fill="rgb(224, 195, 98)" opacity="1.0" stroke-width="2.0"/>
    <path d="M 414.1942138671875 155.1887664794922 C 443.9841003417969 200.7118682861328 383.54150390625 246.1186065673828 347.992919921875 202.18038940429688 C 361.6612243652344 219.27029418945312 379.6398620605469 215.34933471679688 374.8473205566406 215.91343688964844 C 328.88519287109375 214.13034057617188 329.71533203125 136.14537048339844 388.900634765625 139.7840576171875 C 405.23193359375 146.39190673828125 397.8260803222656 140.22332763671875 414.1942138671875 155.1887664794922" fill="rgb(66, 65, 65)" opacity="1.0" stroke-width="2.0"/>
  </g>
</svg>
