<?xml version="1.0" ?>
<svg height="512" version="1.1" width="512" xmlns="http://www.w3.org/2000/svg">
  <defs/>
  <g>
    <path d="M 56.07358932495117 54.3346061706543 C 58.40099334716797 52.6245231628418 56.20137405395508 54.257049560546875 54.42561721801758 55.609153747558594 C 37.030670166015625 68.83050537109375 30.188749313354492 74.50773620605469 31.77358055114746 73.33443450927734 C 35.76681137084961 72.49967956542969 29.371912002563477 74.08460998535156 36.3396110534668 71.08033752441406 C 32.68526840209961 72.21187591552734 22.29340362548828 80.47100067138672 56.07358932495117 54.3346061706543" fill="rgb(255, 70, 133)" opacity="1.0" stroke-width="2.0"/>
    <path d="M 350.3307800292969 396.0654602050781 C 353.9664611816406 564.3461303710938 274.4548645019531 532.8209838867188 139.4220428466797 486.37530517578125 C 24.580568313598633 415.8356628417969 45.918907165527344 366.617431640625 54.13546371459961 444.29876708984375 C 59.28702926635742 474.16595458984375 56.58380126953125 464.3999328613281 49.62770080566406 413.70562744140625 C -19.85053062438965 275.8827819824219 -48.39397430419922 283.16522216796875 350.3307800292969 396.0654602050781" fill="rgb(13, 12, 11)" opacity="1.0" stroke-width="2.0"/>
    <path d="M 48.16954040527344 367.82061767578125 C -24.51384925842285 255.51425170898438 -31.26670265197754 233.392822265625 49.85741424560547 98.46281433105469 C 152.1256866455078 8.117347717285156 114.69515228271484 -21.995861053466797 511.7148742675781 27.781360626220703 C 529.6400146484375 365.49078369140625 498.9737243652344 381.66326904296875 382.19317626953125 487.63861083984375 C 183.20086669921875 503.071044921875 121.05455017089844 479.4159240722656 48.16954040527344 367.82061767578125" fill="rgb(220, 193, 104)" opacity="1.0" stroke-width="2.0"/>
    <path d="M 417.3342590332031 159.03839111328125 C 439.67913818359375 208.71441650390625 378.7924499511719 241.77142333984375 349.2148132324219 202.84457397460938 C 362.5818786621094 224.40011596679688 381.210205078125 217.9486846923828 371.5140380859375 219.27391052246094 C 336.67864990234375 212.5224609375 323.82318115234375 145.62440490722656 384.3874816894531 138.82521057128906 C 412.81146240234375 149.6783447265625 392.8006286621094 134.45663452148438 417.3342590332031 159.03839111328125" fill="rgb(66, 65, 65)" opacity="1.0" stroke-width="2.0"/>
  </g>
</svg>
