<?xml version="1.0" ?>
<svg height="512" version="1.1" width="512" xmlns="http://www.w3.org/2000/svg">
  <defs/>
  <g>
    <path d="M 56.13544464111328 54.18700408935547 C 59.24294662475586 52.33108901977539 56.05732345581055 53.929466247558594 54.438411712646484 55.632659912109375 C 37.434200286865234 69.17674255371094 29.928977966308594 74.12389373779297 30.581771850585938 73.01786041259766 C 34.10066604614258 73.9161148071289 27.04761505126953 73.7387924194336 36.740745544433594 70.36302947998047 C 29.5827579498291 72.31830596923828 21.833078384399414 81.36115264892578 56.13544464111328 54.18700408935547" fill="rgb(255, 64, 126)" opacity="1.0" stroke-width="2.0"/>
    <path d="M 236.47230529785156 413.5885009765625 C 252.14865112304688 551.6557006835938 203.77078247070312 520.230224609375 93.9841537475586 458.83642578125 C 50.23074722290039 403.89105224609375 42.908573150634766 422.97760009765625 68.7346420288086 454.08709716796875 C 75.81034851074219 470.5133361816406 73.61409759521484 467.5365905761719 70.07058715820312 457.3110656738281 C 47.49436569213867 418.0676574707031 -0.26387107372283936 383.72259521484375 236.47230529785156 413.5885009765625" fill="rgb(158, 136, 70)" opacity="1.0" stroke-width="2.0"/>
    <path d="M 124.0497055053711 425.5424499511719 C 117.65411376953125 196.8961944580078 125.59166717529297 197.51446533203125 129.696533203125 164.8807373046875 C 144.7906951904297 150.7190704345703 152.80299377441406 143.66192626953125 404.4033203125 150.623046875 C 416.83154296875 400.63250732421875 406.775390625 411.4501953125 401.6408386230469 443.9430236816406 C 157.96554565429688 435.8812255859375 150.89370727539062 438.5818176269531 124.0497055053711 425.5424499511719" fill="rgb(242, 213, 107)" opacity="1.0" stroke-width="2.0"/>
    <path d="M 421.7323303222656 171.2598114013672 C 428.37493896484375 207.81564331054688 389.15789794921875 235.31063842773438 356.2935791015625 210.8195343017578 C 373.7413330078125 227.2761993408203 375.6501770019531 234.2075958251953 367.9391784667969 223.02613830566406 C 341.787109375 194.27056884765625 322.70281982421875 183.04754638671875 373.2582702636719 124.02164459228516 C 430.2943420410156 151.98167419433594 410.5884704589844 123.9056167602539 421.7323303222656 171.2598114013672" fill="rgb(93, 84, 73)" opacity="1.0" stroke-width="2.0"/>
  </g>
</svg>
