<?xml version="1.0" ?>
<svg height="512" version="1.1" width="512" xmlns="http://www.w3.org/2000/svg">
  <defs/>
  <g>
    <path d="M 55.63569259643555 54.496910095214844 C 57.04703903198242 53.62812042236328 55.30226516723633 54.3250732421875 54.29426574707031 55.756526947021484 C 37.65512466430664 69.4034423828125 31.190750122070312 75.0284423828125 34.85907745361328 73.50078582763672 C 36.42917251586914 73.38725280761719 31.0362548828125 75.03877258300781 37.79161834716797 71.5846939086914 C 36.17125701904297 72.63011169433594 23.918485641479492 80.91747283935547 55.63569259643555 54.496910095214844" fill="rgb(255, 82, 146)" opacity="1.0" stroke-width="2.0"/>
    <path d="M 430.2609558105469 417.5079345703125 C 407.6998291015625 511.3300476074219 237.5845947265625 534.1624145507812 153.50624084472656 490.90130615234375 C 24.356061935424805 434.64154052734375 22.60969352722168 315.9028015136719 38.165714263916016 430.50543212890625 C 44.5694580078125 475.12371826171875 43.99156188964844 470.3580322265625 32.301353454589844 388.8890686035156 C -40.4886474609375 195.9087677001953 -24.61000633239746 228.86959838867188 430.2609558105469 417.5079345703125" fill="rgb(5, 4, 3)" opacity="1.0" stroke-width="2.0"/>
    <path d="M 44.52397537231445 366.9796447753906 C -4.110076427459717 189.441650390625 -38.52975845336914 268.44024658203125 51.5040397644043 94.63675689697266 C 152.64114379882812 -9.252421379089355 286.8389892578125 -45.65162658691406 456.4992980957031 78.8204116821289 C 561.0134887695312 254.7923583984375 503.4443664550781 388.4398193359375 410.4163818359375 460.5586242675781 C 223.1385498046875 520.7980346679688 131.06906127929688 491.2381286621094 44.52397537231445 366.9796447753906" fill="rgb(221, 192, 97)" opacity="1.0" stroke-width="2.0"/>
    <path d="M 414.57470703125 155.47384643554688 C 444.0298156738281 202.8082275390625 381.646484375 245.1861114501953 348.72894287109375 202.3131866455078 C 361.1203918457031 220.3983612060547 380.182373046875 215.05746459960938 373.90472412109375 216.09658813476562 C 331.19647216796875 214.8959197998047 327.68023681640625 138.2270050048828 387.92010498046875 139.60379028320312 C 407.6603088378906 147.39266967773438 395.5572204589844 138.57981872558594 414.57470703125 155.47384643554688" fill="rgb(66, 65, 65)" opacity="1.0" stroke-width="2.0"/>
  </g>
</svg>
