<?xml version="1.0" ?>
<svg height="512" version="1.1" width="512" xmlns="http://www.w3.org/2000/svg">
  <defs/>
  <g>
    <path d="M 55.757633209228516 54.31381607055664 C 57.58245086669922 53.359771728515625 55.20470428466797 54.35789108276367 54.060306549072266 55.56382369995117 C 37.502593994140625 69.21033477783203 30.96339988708496 74.74288177490234 34.28705596923828 73.16695404052734 C 34.463035583496094 73.3616943359375 29.899433135986328 74.54025268554688 37.922359466552734 71.38704681396484 C 35.122806549072266 71.98052215576172 23.507848739624023 80.86148071289062 55.757633209228516 54.31381607055664" fill="rgb(255, 79, 143)" opacity="1.0" stroke-width="2.0"/>
    <path d="M 409.95965576171875 411.0752258300781 C 401.0502624511719 522.0344848632812 240.48573303222656 529.3848266601562 153.77178955078125 491.86126708984375 C 23.37015724182129 430.67578125 29.481348037719727 328.91888427734375 41.48027420043945 435.13995361328125 C 47.039756774902344 474.9848327636719 46.02322769165039 469.28485107421875 36.323455810546875 395.57366943359375 C -37.51393508911133 213.50367736816406 -33.06220245361328 240.69900512695312 409.95965576171875 411.0752258300781" fill="rgb(4, 4, 3)" opacity="1.0" stroke-width="2.0"/>
    <path d="M 46.52934646606445 368.3658447265625 C -8.613602638244629 201.7742462158203 -35.2520866394043 272.7605895996094 50.715999603271484 91.3374252319336 C 169.49563598632812 -8.43277645111084 246.31988525390625 -42.86992645263672 466.82037353515625 73.24446105957031 C 555.31494140625 294.49810791015625 507.3678283691406 385.8693542480469 393.63262939453125 474.38690185546875 C 207.7959747314453 511.9250183105469 127.18553161621094 486.72357177734375 46.52934646606445 368.3658447265625" fill="rgb(220, 192, 98)" opacity="1.0" stroke-width="2.0"/>
    <path d="M 414.90032958984375 155.7335205078125 C 443.6828918457031 203.96435546875 380.86566162109375 244.620849609375 348.8138122558594 202.35995483398438 C 361.28216552734375 220.7344970703125 380.4669189453125 214.778076171875 373.5724792480469 216.16769409179688 C 332.10040283203125 215.2343292236328 327.1161804199219 139.4156036376953 387.2192687988281 139.4200439453125 C 408.8249816894531 147.7380828857422 394.5321350097656 137.9630584716797 414.90032958984375 155.7335205078125" fill="rgb(66, 65, 65)" opacity="1.0" stroke-width="2.0"/>
  </g>
</svg>
