<?xml version="1.0" ?>
<svg height="512" version="1.1" width="512" xmlns="http://www.w3.org/2000/svg">
  <defs/>
  <g>
    <path d="M 56.24462890625 54.30842971801758 C 59.23191452026367 52.393592834472656 56.131290435791016 53.98945999145508 54.45623779296875 55.65277862548828 C 37.26737976074219 69.01385498046875 29.95745277404785 74.123779296875 30.69389533996582 72.99048614501953 C 33.84282302856445 73.47001647949219 27.070009231567383 73.62598419189453 36.65227127075195 70.22854614257812 C 29.40176010131836 72.18023681640625 21.784069061279297 81.24488830566406 56.24462890625 54.30842971801758" fill="rgb(255, 64, 126)" opacity="1.0" stroke-width="2.0"/>
    <path d="M 250.72715759277344 409.49578857421875 C 265.8538818359375 556.7941284179688 214.56593322753906 523.9458618164062 96.6343994140625 461.1000671386719 C 42.65631103515625 398.7266540527344 42.0214958190918 414.13140869140625 71.47244262695312 450.1307678222656 C 73.01558685302734 470.6011657714844 74.9189682006836 467.1866149902344 69.53297424316406 448.21990966796875 C 40.11972427368164 402.1128234863281 -11.760021209716797 372.10577392578125 250.72715759277344 409.49578857421875" fill="rgb(137, 114, 63)" opacity="1.0" stroke-width="2.0"/>
    <path d="M 109.69293975830078 439.4395751953125 C 102.26934814453125 191.92373657226562 109.2969741821289 189.55841064453125 113.85967254638672 151.15440368652344 C 134.53305053710938 135.3218536376953 143.70321655273438 127.96906280517578 417.3638610839844 136.4708709716797 C 431.8219299316406 404.46392822265625 422.8547668457031 420.09027099609375 421.1601257324219 460.40887451171875 C 149.38302612304688 450.62481689453125 144.34837341308594 451.9447326660156 109.69293975830078 439.4395751953125" fill="rgb(241, 211, 105)" opacity="1.0" stroke-width="2.0"/>
    <path d="M 421.1474914550781 171.88912963867188 C 430.50689697265625 206.57083129882812 386.38970947265625 235.5757598876953 356.9941711425781 211.3008575439453 C 372.6487731933594 228.19296264648438 375.0484619140625 234.51019287109375 367.8574523925781 223.8478546142578 C 341.4473571777344 193.3306427001953 322.1466064453125 180.64407348632812 374.5503234863281 127.63685607910156 C 426.1427917480469 153.6389617919922 406.1924133300781 124.95072174072266 421.1474914550781 171.88912963867188" fill="rgb(81, 80, 69)" opacity="1.0" stroke-width="2.0"/>
  </g>
</svg>
