<?xml version="1.0" ?>
<svg height="512" version="1.1" width="512" xmlns="http://www.w3.org/2000/svg">
  <defs/>
  <g>
    <path d="M 55.933807373046875 53.83631134033203 C 59.24644470214844 51.68986511230469 55.42580795288086 53.561241149902344 54.190799713134766 55.495399475097656 C 37.37724304199219 69.13179779052734 29.532176971435547 74.26905822753906 29.78643035888672 73.3553466796875 C 32.76973342895508 72.83316802978516 25.957799911499023 74.17742919921875 38.527713775634766 71.6868896484375 C 30.10235595703125 71.6017837524414 21.4874324798584 81.4681625366211 55.933807373046875 53.83631134033203" fill="rgb(255, 61, 123)" opacity="1.0" stroke-width="2.0"/>
    <path d="M 174.34906005859375 443.1312255859375 C 179.01998901367188 514.3230590820312 144.13780212402344 494.6417236328125 100.6670150756836 459.391845703125 C 79.90835571289062 455.7379150390625 80.81309509277344 464.10186767578125 75.86351776123047 466.9595642089844 C 68.07061767578125 479.74615478515625 75.06990814208984 473.8310546875 77.79654693603516 472.1003723144531 C 69.38209533691406 481.84332275390625 59.171546936035156 447.289306640625 174.34906005859375 443.1312255859375" fill="rgb(85, 126, 38)" opacity="1.0" stroke-width="2.0"/>
    <path d="M 196.18780517578125 347.3050231933594 C 192.54612731933594 237.093017578125 203.10057067871094 246.06698608398438 207.39495849609375 234.95472717285156 C 216.45669555664062 228.33592224121094 216.56138610839844 221.3888397216797 337.80712890625 220.80813598632812 C 344.6019592285156 346.9510498046875 334.2527770996094 356.8216552734375 326.8732604980469 369.1060485839844 C 209.9969940185547 360.7823791503906 200.5936737060547 365.1165466308594 196.18780517578125 347.3050231933594" fill="rgb(253, 222, 102)" opacity="1.0" stroke-width="2.0"/>
    <path d="M 432.13226318359375 180.1532440185547 C 402.47076416015625 213.6379852294922 411.1680908203125 234.1814727783203 353.68609619140625 212.32351684570312 C 363.73175048828125 234.9575958251953 370.447265625 227.60324096679688 363.45361328125 227.9880828857422 C 347.743896484375 212.58636474609375 335.4382019042969 178.67776489257812 345.6231384277344 153.7677001953125 C 411.17620849609375 188.0313262939453 418.7859802246094 151.4255828857422 432.13226318359375 180.1532440185547" fill="rgb(82, 84, 65)" opacity="1.0" stroke-width="2.0"/>
  </g>
</svg>
