<?xml version="1.0" ?>
<svg height="512" version="1.1" width="512" xmlns="http://www.w3.org/2000/svg">
  <defs/>
  <g>
    <path d="M 56.0419807434082 54.323974609375 C 58.57758712768555 52.38194274902344 56.11420822143555 54.02702713012695 54.55152130126953 55.669795989990234 C 36.972511291503906 68.7484130859375 30.059839248657227 74.31340026855469 32.296424865722656 73.08905029296875 C 34.70024871826172 72.9106674194336 27.977588653564453 74.15512084960938 36.062416076660156 70.96987915039062 C 30.395936965942383 72.47935485839844 21.87670135498047 80.91655731201172 56.0419807434082 54.323974609375" fill="rgb(255, 68, 130)" opacity="1.0" stroke-width="2.0"/>
    <path d="M 340.2335205078125 400.46795654296875 C 349.06158447265625 575.9855346679688 278.9449157714844 536.1975708007812 132.7493438720703 482.9417724609375 C 24.81620216369629 410.8541259765625 49.327213287353516 375.7330322265625 56.55299377441406 444.038818359375 C 62.226646423339844 473.73272705078125 59.16498565673828 463.2558898925781 53.27531051635742 419.9977722167969 C -13.381824493408203 288.0079040527344 -51.329200744628906 291.98956298828125 340.2335205078125 400.46795654296875" fill="rgb(18, 16, 13)" opacity="1.0" stroke-width="2.0"/>
    <path d="M 51.39921569824219 372.2498474121094 C -25.778989791870117 289.6801452636719 -22.233787536621094 243.64918518066406 40.328853607177734 84.34087371826172 C 90.22203063964844 13.930285453796387 73.07246398925781 -5.179952144622803 515.077392578125 20.78803253173828 C 533.4252319335938 369.1528625488281 498.8996276855469 367.22357177734375 389.2481384277344 490.42529296875 C 155.96035766601562 498.0836181640625 132.62078857421875 478.9594421386719 51.39921569824219 372.2498474121094" fill="rgb(221, 195, 107)" opacity="1.0" stroke-width="2.0"/>
    <path d="M 418.5276794433594 161.3758087158203 C 436.97454833984375 209.89913940429688 379.606689453125 240.44862365722656 349.5349426269531 203.4266357421875 C 364.10626220703125 226.70352172851562 379.60980224609375 221.12379455566406 370.3850402832031 221.8379364013672 C 338.4112548828125 210.16995239257812 322.8005676269531 148.34193420410156 383.52923583984375 138.41943359375 C 413.9266357421875 150.64476013183594 392.73199462890625 132.96299743652344 418.5276794433594 161.3758087158203" fill="rgb(66, 65, 65)" opacity="1.0" stroke-width="2.0"/>
  </g>
</svg>
