<?xml version="1.0" ?>
<svg height="512" version="1.1" width="512" xmlns="http://www.w3.org/2000/svg">
  <defs/>
  <g>
    <path d="M 55.91996765136719 54.21772766113281 C 58.21977615356445 52.54715347290039 55.99546432495117 54.11714553833008 54.318912506103516 55.48297882080078 C 37.16566467285156 68.9842529296875 30.192584991455078 74.51150512695312 32.33623123168945 72.95518493652344 C 35.1873779296875 71.71463775634766 29.653316497802734 74.37492370605469 36.10845184326172 70.85945129394531 C 33.34123992919922 71.95154571533203 22.604177474975586 80.54682159423828 55.91996765136719 54.21772766113281" fill="rgb(255, 72, 135)" opacity="1.0" stroke-width="2.0"/>
    <path d="M 362.8368225097656 392.8773498535156 C 361.7409973144531 550.5932006835938 266.9458923339844 530.928466796875 145.21762084960938 488.90667724609375 C 24.511863708496094 421.24298095703125 41.91081619262695 356.1008605957031 50.379844665527344 443.32672119140625 C 54.774723052978516 474.5888977050781 53.32572937011719 465.9275207519531 45.913997650146484 408.4684143066406 C -25.510520935058594 259.1949157714844 -46.101707458496094 271.8630065917969 362.8368225097656 392.8773498535156" fill="rgb(9, 8, 8)" opacity="1.0" stroke-width="2.0"/>
    <path d="M 47.493350982666016 366.3452453613281 C -20.6826114654541 237.99053955078125 -30.5258731842041 249.87704467773438 50.45709228515625 95.11641693115234 C 169.4237823486328 -0.5007125735282898 136.68948364257812 -29.448354721069336 503.0600280761719 47.13683319091797 C 531.996826171875 356.7861633300781 500.51202392578125 388.7476501464844 379.9923400878906 485.6543273925781 C 201.33177185058594 507.4967346191406 116.30691528320312 480.0826110839844 47.493350982666016 366.3452453613281" fill="rgb(220, 193, 102)" opacity="1.0" stroke-width="2.0"/>
    <path d="M 416.31561279296875 157.75262451171875 C 441.3817138671875 207.37181091308594 379.3198547363281 242.89892578125 348.9036865234375 202.57078552246094 C 362.3072509765625 222.20872497558594 380.9925537109375 215.24205017089844 372.4813537597656 217.22706604003906 C 334.92901611328125 214.38156127929688 325.12823486328125 143.32212829589844 384.9971923828125 139.07208251953125 C 411.8962097167969 148.9577178955078 393.1192932128906 135.82183837890625 416.31561279296875 157.75262451171875" fill="rgb(66, 65, 65)" opacity="1.0" stroke-width="2.0"/>
  </g>
</svg>
