<?xml version="1.0" ?>
<svg height="512" version="1.1" width="512" xmlns="http://www.w3.org/2000/svg">
  <defs/>
  <g>
    <path d="M 55.951683044433594 54.275360107421875 C 58.60459518432617 52.38042449951172 56.167423248291016 54.04754638671875 54.649600982666016 55.77406692504883 C 36.8492431640625 68.6324691772461 29.52981948852539 73.87864685058594 31.65260887145996 73.01844787597656 C 34.35198211669922 72.97914123535156 28.56330680847168 74.57263946533203 35.390323638916016 70.03744506835938 C 28.805404663085938 71.33805084228516 21.991683959960938 81.29013061523438 55.951683044433594 54.275360107421875" fill="rgb(255, 68, 130)" opacity="1.0" stroke-width="2.0"/>
    <path d="M 334.315673828125 401.4093933105469 C 345.4310607910156 577.9581298828125 278.4571838378906 535.5445556640625 130.31948852539062 481.9359436035156 C 25.584579467773438 407.72186279296875 49.613807678222656 381.6484680175781 58.12330627441406 444.4182434082031 C 65.17567443847656 473.09124755859375 61.46183395385742 461.8587951660156 53.539432525634766 419.6457214355469 C -10.642891883850098 291.8929443359375 -55.58087921142578 295.7074890136719 334.315673828125 401.4093933105469" fill="rgb(18, 16, 14)" opacity="1.0" stroke-width="2.0"/>
    <path d="M 50.89639663696289 375.768310546875 C -24.310291290283203 298.1482849121094 -22.202781677246094 232.08323669433594 26.287094116210938 74.97740936279297 C 76.98858642578125 23.818408966064453 71.5078125 9.092201232910156 515.4738159179688 26.511367797851562 C 533.6968383789062 368.5136413574219 498.632568359375 364.8708190917969 393.7041015625 489.7268371582031 C 144.48184204101562 498.46337890625 142.93136596679688 478.8553161621094 50.89639663696289 375.768310546875" fill="rgb(222, 196, 107)" opacity="1.0" stroke-width="2.0"/>
    <path d="M 419.0203857421875 162.28164672851562 C 435.9010009765625 210.15745544433594 380.4539489746094 239.99661254882812 349.5442199707031 203.7407684326172 C 364.7538757324219 227.52891540527344 379.13140869140625 222.60130310058594 369.9781188964844 222.6690216064453 C 338.996337890625 208.9353790283203 322.388916015625 149.22763061523438 383.0996398925781 138.4105682373047 C 414.5064697265625 150.8818359375 393.133056640625 132.14659118652344 419.0203857421875 162.28164672851562" fill="rgb(67, 66, 65)" opacity="1.0" stroke-width="2.0"/>
  </g>
</svg>
