<?xml version="1.0" ?>
<svg height="512" version="1.1" width="512" xmlns="http://www.w3.org/2000/svg">
  <defs/>
  <g>
    <path d="M 56.00310516357422 54.250160217285156 C 58.42336654663086 52.496036529541016 56.07137680053711 54.14171600341797 54.37428665161133 55.55025100708008 C 37.09526443481445 68.88243865966797 30.11325454711914 74.39915466308594 31.81875228881836 73.17900848388672 C 35.78352355957031 72.49543762207031 29.29959487915039 74.16474914550781 36.45058059692383 71.23921966552734 C 32.412479400634766 72.50289154052734 22.21333122253418 80.57982635498047 56.00310516357422 54.250160217285156" fill="rgb(255, 70, 133)" opacity="1.0" stroke-width="2.0"/>
    <path d="M 347.5097351074219 397.95330810546875 C 352.7529296875 568.9954223632812 276.6409912109375 534.602783203125 137.54269409179688 485.4244689941406 C 24.24513816833496 414.4388427734375 47.377506256103516 369.8040466308594 55.02153015136719 444.2844543457031 C 60.08079147338867 474.1259460449219 58.249794006347656 463.7269592285156 51.08916091918945 415.70550537109375 C -18.060829162597656 280.9435119628906 -48.921485900878906 286.58123779296875 347.5097351074219 397.95330810546875" fill="rgb(15, 14, 13)" opacity="1.0" stroke-width="2.0"/>
    <path d="M 48.8924446105957 369.1910095214844 C -24.766420364379883 262.7557678222656 -28.303808212280273 236.08395385742188 51.0428466796875 97.02599334716797 C 132.68064880371094 6.627658843994141 99.52340698242188 -20.866933822631836 512.5393676757812 21.50303840637207 C 529.87353515625 366.3129577636719 498.3360900878906 377.418701171875 384.60174560546875 489.3126525878906 C 175.742431640625 500.4784240722656 122.52545166015625 478.86346435546875 48.8924446105957 369.1910095214844" fill="rgb(221, 194, 105)" opacity="1.0" stroke-width="2.0"/>
    <path d="M 417.5873107910156 159.64967346191406 C 438.8725280761719 209.22682189941406 378.9054260253906 241.2577667236328 349.2595520019531 203.0124969482422 C 363.1510009765625 225.17977905273438 380.7333068847656 219.34620666503906 371.18560791015625 220.014892578125 C 337.2745361328125 211.84585571289062 323.4771423339844 146.42153930664062 384.209228515625 138.6436309814453 C 413.0851135253906 149.94534301757812 392.5908203125 134.0363311767578 417.5873107910156 159.64967346191406" fill="rgb(66, 65, 65)" opacity="1.0" stroke-width="2.0"/>
  </g>
</svg>
