<?xml version="1.0" ?>
<svg height="512" version="1.1" width="512" xmlns="http://www.w3.org/2000/svg">
  <defs/>
  <g>
    <path d="M 55.74242401123047 54.23081588745117 C 57.812477111816406 53.33180618286133 55.43687438964844 54.3872184753418 54.210208892822266 55.617488861083984 C 37.644248962402344 69.35755920410156 30.833253860473633 74.81713104248047 34.488372802734375 73.444580078125 C 34.68349838256836 72.27095794677734 30.09185028076172 74.68698120117188 37.733280181884766 71.55548858642578 C 34.507999420166016 72.00213623046875 23.188440322875977 80.7678451538086 55.74242401123047 54.23081588745117" fill="rgb(255, 77, 141)" opacity="1.0" stroke-width="2.0"/>
    <path d="M 400.5811462402344 404.9326477050781 C 393.94085693359375 527.0284423828125 247.18421936035156 528.9443359375 152.95953369140625 491.6720886230469 C 23.96758460998535 429.33978271484375 31.05613899230957 333.0521240234375 42.668460845947266 437.0556640625 C 47.61053466796875 475.13372802734375 46.517669677734375 469.08935546875 37.58207702636719 397.8047790527344 C -35.0650520324707 219.74253845214844 -34.94575881958008 244.9725341796875 400.5811462402344 404.9326477050781" fill="rgb(5, 4, 4)" opacity="1.0" stroke-width="2.0"/>
    <path d="M 46.70550537109375 368.67523193359375 C -10.116259574890137 205.52899169921875 -34.334686279296875 271.3442077636719 50.64216995239258 91.22063446044922 C 174.70216369628906 -9.283014297485352 231.4123992919922 -42.61619567871094 470.33819580078125 70.7566909790039 C 552.831787109375 307.8462829589844 507.4202880859375 383.21142578125 389.4796142578125 478.1410217285156 C 206.31869506835938 510.6695556640625 125.34466552734375 485.24078369140625 46.70550537109375 368.67523193359375" fill="rgb(221, 192, 98)" opacity="1.0" stroke-width="2.0"/>
    <path d="M 414.9606628417969 155.84927368164062 C 443.4311828613281 204.42471313476562 380.51910400390625 244.3978271484375 348.91357421875 202.30625915527344 C 361.6793518066406 220.6373291015625 380.6235656738281 214.46328735351562 373.4384765625 216.22084045410156 C 332.3023681640625 215.36170959472656 326.8682556152344 139.7738037109375 386.9339904785156 139.48452758789062 C 409.3677978515625 147.77566528320312 394.1602783203125 137.7490997314453 414.9606628417969 155.84927368164062" fill="rgb(66, 65, 65)" opacity="1.0" stroke-width="2.0"/>
  </g>
</svg>
