<?xml version="1.0" ?>
<svg height="512" version="1.1" width="512" xmlns="http://www.w3.org/2000/svg">
  <defs/>
  <g>
    <path d="M 56.438167572021484 52.34560775756836 C 61.896697998046875 51.702762603759766 54.8952522277832 54.27227783203125 52.612125396728516 55.08989715576172 C 37.45215606689453 69.07596588134766 25.65494155883789 73.91079711914062 31.74271583557129 75.42341613769531 C 28.058399200439453 70.22421264648438 24.291982650756836 74.05792999267578 40.286617279052734 70.5224838256836 C 31.191394805908203 69.28385162353516 21.520450592041016 81.41716766357422 56.438167572021484 52.34560775756836" fill="rgb(245, 49, 110)" opacity="1.0" stroke-width="2.0"/>
    <path d="M 145.44976806640625 466.9988098144531 C 139.36903381347656 480.7021484375 115.03556060791016 473.135498046875 95.41131591796875 471.4058837890625 C 97.54373168945312 473.228271484375 91.3295669555664 473.0161437988281 86.04370880126953 475.6490173339844 C 64.32633209228516 478.8990478515625 72.10093688964844 480.7055358886719 79.221923828125 475.9914855957031 C 66.23092651367188 484.34521484375 75.19900512695312 471.0581359863281 145.44976806640625 466.9988098144531" fill="rgb(74, 227, 45)" opacity="1.0" stroke-width="2.0"/>
    <path d="M 233.30319213867188 309.14837646484375 C 232.075439453125 267.9901428222656 242.88340759277344 277.58123779296875 245.56781005859375 266.91534423828125 C 252.40452575683594 266.78179931640625 250.6757049560547 260.91943359375 299.35888671875 259.13739013671875 C 306.68670654296875 312.05474853515625 296.6025390625 321.7505798339844 290.9917297363281 330.2737731933594 C 244.10345458984375 322.0158386230469 234.5089874267578 326.9396057128906 233.30319213867188 309.14837646484375" fill="rgb(253, 224, 159)" opacity="1.0" stroke-width="2.0"/>
    <path d="M 427.2179260253906 207.4755859375 C 405.53448486328125 212.77859497070312 392.0045471191406 222.6721649169922 362.47198486328125 221.15048217773438 C 365.1329345703125 239.19888305664062 368.3951110839844 229.08306884765625 362.9945373535156 229.13485717773438 C 352.3041687011719 220.17835998535156 348.76104736328125 198.85984802246094 353.1702575683594 186.9978485107422 C 395.919677734375 192.91807556152344 405.6774597167969 179.90257263183594 427.2179260253906 207.4755859375" fill="rgb(123, 63, 93)" opacity="1.0" stroke-width="2.0"/>
  </g>
</svg>
