<?xml version="1.0" ?>
<svg height="512" version="1.1" width="512" xmlns="http://www.w3.org/2000/svg">
  <defs/>
  <g>
    <path d="M 55.943363189697266 54.19761657714844 C 58.558197021484375 52.44916915893555 56.32181167602539 54.226165771484375 54.354522705078125 55.50160217285156 C 37.18571090698242 68.97137451171875 30.01814842224121 74.29292297363281 31.853586196899414 72.83511352539062 C 35.8215446472168 73.08345031738281 29.125194549560547 74.40542602539062 36.415748596191406 71.38789367675781 C 31.450387954711914 72.73991394042969 21.932514190673828 80.67078399658203 55.943363189697266 54.19761657714844" fill="rgb(255, 69, 132)" opacity="1.0" stroke-width="2.0"/>
    <path d="M 344.64996337890625 399.6182861328125 C 351.5519714355469 573.16259765625 278.4073181152344 536.0760498046875 135.33657836914062 484.11968994140625 C 24.040559768676758 413.2534484863281 48.86869430541992 372.1310119628906 56.036983489990234 443.915771484375 C 59.74460983276367 474.1950988769531 58.55068588256836 463.6069030761719 52.4947509765625 417.7978515625 C -16.233549118041992 284.9521789550781 -49.85271453857422 289.42657470703125 344.64996337890625 399.6182861328125" fill="rgb(17, 16, 13)" opacity="1.0" stroke-width="2.0"/>
    <path d="M 49.75849533081055 371.22418212890625 C -24.450023651123047 275.2355041503906 -21.675724029541016 247.83700561523438 52.21241760253906 93.68785858154297 C 109.94287872314453 6.373190879821777 83.345703125 -17.477977752685547 513.973876953125 17.681663513183594 C 531.8123168945312 367.6451721191406 498.42779541015625 371.2525329589844 386.4859619140625 490.25335693359375 C 167.11978149414062 498.3226623535156 125.47152709960938 478.4764709472656 49.75849533081055 371.22418212890625" fill="rgb(221, 194, 106)" opacity="1.0" stroke-width="2.0"/>
    <path d="M 418.04364013671875 160.3242950439453 C 437.8304138183594 209.7161102294922 379.2225036621094 240.84390258789062 349.2504577636719 203.27426147460938 C 363.5408020019531 225.8346405029297 380.2513122558594 219.8618621826172 370.829833984375 221.0194854736328 C 337.865966796875 211.00474548339844 323.1419677734375 147.37867736816406 383.8900146484375 138.5553741455078 C 413.3814697265625 150.37356567382812 392.5920104980469 133.5767822265625 418.04364013671875 160.3242950439453" fill="rgb(66, 65, 65)" opacity="1.0" stroke-width="2.0"/>
  </g>
</svg>
