<?xml version="1.0" ?>
<svg height="512" version="1.1" width="512" xmlns="http://www.w3.org/2000/svg">
  <defs/>
  <g>
    <path d="M 56.1652717590332 54.21501159667969 C 59.31430435180664 52.369384765625 56.25559997558594 54.04564666748047 54.32656478881836 55.505802154541016 C 37.34992980957031 69.09147644042969 29.878297805786133 74.1156234741211 30.618587493896484 73.201171875 C 34.10311508178711 74.3252182006836 26.700593948364258 73.79450988769531 36.62449264526367 70.3216781616211 C 29.624494552612305 72.21344757080078 22.07552719116211 81.68513488769531 56.1652717590332 54.21501159667969" fill="rgb(255, 64, 126)" opacity="1.0" stroke-width="2.0"/>
    <path d="M 220.40426635742188 420.43243408203125 C 237.96783447265625 545.9181518554688 193.0719451904297 515.423828125 91.94963073730469 457.0875549316406 C 58.97663116455078 410.6748046875 46.446937561035156 432.2934875488281 67.3830795288086 456.7083435058594 C 76.05194854736328 472.0792541503906 76.77870178222656 465.6091003417969 71.1297836303711 464.03143310546875 C 54.939449310302734 433.5627136230469 11.368654251098633 396.2763671875 220.40426635742188 420.43243408203125" fill="rgb(167, 132, 73)" opacity="1.0" stroke-width="2.0"/>
    <path d="M 138.550048828125 411.0536193847656 C 132.54336547851562 203.0208282470703 141.534423828125 206.06019592285156 145.45452880859375 178.83590698242188 C 156.2689666748047 166.49720764160156 163.20103454589844 159.66603088378906 391.8254699707031 164.6059112548828 C 402.0408020019531 392.9990539550781 391.5816955566406 402.0683898925781 385.36407470703125 428.54119873046875 C 166.74183654785156 420.8661193847656 158.44204711914062 424.648193359375 138.550048828125 411.0536193847656" fill="rgb(242, 214, 107)" opacity="1.0" stroke-width="2.0"/>
    <path d="M 423.0671081542969 170.0799102783203 C 423.85687255859375 210.63482666015625 395.3460998535156 235.4354705810547 354.0798645019531 209.837646484375 C 371.90252685546875 229.22320556640625 376.9495849609375 232.87698364257812 367.4256591796875 224.08401489257812 C 342.7615661621094 197.15481567382812 323.7898864746094 182.1415252685547 371.53759765625 121.74201965332031 C 432.70782470703125 151.4488067626953 413.91632080078125 123.59799194335938 423.0671081542969 170.0799102783203" fill="rgb(101, 90, 71)" opacity="1.0" stroke-width="2.0"/>
  </g>
</svg>
