<?xml version="1.0" ?>
<svg height="512" version="1.1" width="512" xmlns="http://www.w3.org/2000/svg">
  <defs/>
  <g>
    <path d="M 55.62042999267578 54.80850601196289 C 56.98245620727539 54.33220291137695 55.95061111450195 54.56145477294922 54.625732421875 56.00898742675781 C 37.767578125 69.48706817626953 31.802555084228516 75.16661071777344 34.67692565917969 72.38007354736328 C 35.46293640136719 72.98674011230469 31.108083724975586 75.00761413574219 37.51214599609375 71.56178283691406 C 35.85378646850586 72.03509521484375 23.92519187927246 80.77299499511719 55.62042999267578 54.80850601196289" fill="rgb(255, 85, 150)" opacity="1.0" stroke-width="2.0"/>
    <path d="M 459.68768310546875 411.2468566894531 C 393.7048645019531 501.3662109375 260.7673034667969 541.8002319335938 151.07130432128906 489.50384521484375 C 23.89920425415039 434.927734375 15.081781387329102 303.2929992675781 35.737728118896484 422.5563659667969 C 45.88156509399414 474.552978515625 44.988433837890625 469.81097412109375 27.010068893432617 375.6686706542969 C -47.3177375793457 167.3935089111328 -36.48684310913086 213.8770751953125 459.68768310546875 411.2468566894531" fill="rgb(5, 4, 4)" opacity="1.0" stroke-width="2.0"/>
    <path d="M 39.516265869140625 359.46734619140625 C 3.0629191398620605 170.29415893554688 -37.85366439819336 253.1802520751953 50.614227294921875 100.12377166748047 C 138.1962890625 -12.359025001525879 321.2110595703125 -48.60523986816406 446.76226806640625 84.13932800292969 C 565.7281494140625 221.12171936035156 504.1516418457031 404.9544982910156 416.9278259277344 434.0896911621094 C 262.90924072265625 538.2183227539062 128.91900634765625 496.9044189453125 39.516265869140625 359.46734619140625" fill="rgb(223, 194, 98)" opacity="1.0" stroke-width="2.0"/>
    <path d="M 414.2169494628906 155.28419494628906 C 444.0823059082031 202.04541015625 382.76611328125 245.54086303710938 348.3763732910156 202.29168701171875 C 361.1969299316406 220.0472869873047 379.3705139160156 215.0999755859375 374.358642578125 215.9727020263672 C 329.94464111328125 214.60997009277344 328.7485656738281 137.12255859375 388.53662109375 139.70999145507812 C 406.3104248046875 146.99838256835938 396.78155517578125 139.4635772705078 414.2169494628906 155.28419494628906" fill="rgb(66, 65, 65)" opacity="1.0" stroke-width="2.0"/>
  </g>
</svg>
