<?xml version="1.0" ?>
<svg height="512" version="1.1" width="512" xmlns="http://www.w3.org/2000/svg">
  <defs/>
  <g>
    <path d="M 55.82602310180664 54.17764663696289 C 58.218685150146484 52.84550476074219 55.86534881591797 54.07752990722656 54.488460540771484 55.65851974487305 C 37.45699691772461 69.26346588134766 30.57756996154785 74.85386657714844 32.49384689331055 72.77503204345703 C 34.74742126464844 70.8786849975586 30.41465950012207 74.7304458618164 35.10685729980469 70.21186828613281 C 33.49821853637695 71.8082504272461 22.941917419433594 80.77301788330078 55.82602310180664 54.17764663696289" fill="rgb(255, 73, 137)" opacity="1.0" stroke-width="2.0"/>
    <path d="M 385.5965270996094 396.966552734375 C 380.90838623046875 534.2576293945312 255.6737823486328 529.1486206054688 151.05006408691406 491.4245910644531 C 24.264734268188477 427.2078857421875 34.69919967651367 340.99053955078125 45.195430755615234 440.07415771484375 C 50.5916862487793 474.8457336425781 49.31034851074219 467.7381591796875 40.26824951171875 400.8407287597656 C -32.37431716918945 232.9915313720703 -40.52994155883789 254.15138244628906 385.5965270996094 396.966552734375" fill="rgb(5, 5, 4)" opacity="1.0" stroke-width="2.0"/>
    <path d="M 47.582061767578125 368.4924621582031 C -13.21485424041748 213.39869689941406 -32.93497848510742 265.9994201660156 50.38482666015625 91.78671264648438 C 179.98370361328125 -9.565306663513184 200.6212615966797 -40.83684158325195 478.51885986328125 64.80583953857422 C 546.9029541015625 333.52398681640625 507.37774658203125 382.0491027832031 383.6630554199219 483.09735107421875 C 207.12547302246094 509.205322265625 119.91001892089844 482.39422607421875 47.582061767578125 368.4924621582031" fill="rgb(220, 192, 99)" opacity="1.0" stroke-width="2.0"/>
    <path d="M 415.3251647949219 156.17588806152344 C 442.9300537109375 205.4322052001953 380.03778076171875 243.95362854003906 348.9319763183594 202.3837890625 C 361.7648010253906 220.84527587890625 381.05670166015625 214.2133331298828 373.32415771484375 216.2454376220703 C 332.89434814453125 215.314208984375 326.4300537109375 140.81832885742188 386.3607177734375 139.3240966796875 C 410.2537841796875 148.09121704101562 393.662109375 137.27821350097656 415.3251647949219 156.17588806152344" fill="rgb(66, 65, 65)" opacity="1.0" stroke-width="2.0"/>
  </g>
</svg>
