<?xml version="1.0" ?>
<svg height="512" version="1.1" width="512" xmlns="http://www.w3.org/2000/svg">
  <defs/>
  <g>
    <path d="M 55.73424530029297 54.9377555847168 C 56.794795989990234 54.74848556518555 55.683345794677734 54.755332946777344 54.54042053222656 55.96342086791992 C 37.939598083496094 69.65362548828125 31.752593994140625 75.13017272949219 35.12710189819336 73.09107971191406 C 35.49776077270508 72.64137268066406 32.00664138793945 74.8343734741211 37.63738250732422 71.38723754882812 C 36.51885223388672 71.81320190429688 24.112506866455078 80.67068481445312 55.73424530029297 54.9377555847168" fill="rgb(255, 87, 152)" opacity="1.0" stroke-width="2.0"/>
    <path d="M 467.172607421875 402.3807373046875 C 394.0822448730469 503.939208984375 267.57537841796875 540.6163940429688 150.73062133789062 490.1844482421875 C 21.781545639038086 431.5532531738281 12.150080680847168 299.7515869140625 34.873043060302734 417.68658447265625 C 48.50967788696289 473.481201171875 45.90095138549805 468.9618835449219 24.64887046813965 371.0033874511719 C -47.96070098876953 152.60494995117188 -41.60837936401367 205.99061584472656 467.172607421875 402.3807373046875" fill="rgb(8, 5, 4)" opacity="1.0" stroke-width="2.0"/>
    <path d="M 39.725616455078125 351.9548034667969 C 5.0692644119262695 164.2613983154297 -34.397193908691406 246.2218017578125 49.3736457824707 102.47543334960938 C 135.80862426757812 -13.342403411865234 323.8168029785156 -48.10960006713867 446.423583984375 84.29631805419922 C 563.9132080078125 213.93997192382812 505.03717041015625 411.0871276855469 420.5107116699219 425.2459411621094 C 296.7025146484375 542.3694458007812 106.43739318847656 497.3617248535156 39.725616455078125 351.9548034667969" fill="rgb(224, 194, 98)" opacity="1.0" stroke-width="2.0"/>
    <path d="M 414.2611999511719 155.17881774902344 C 443.9947814941406 201.36093139648438 383.1754455566406 245.76878356933594 348.1786193847656 202.13760375976562 C 361.7408447265625 219.33554077148438 379.94921875 214.99029541015625 374.60284423828125 215.92459106445312 C 329.22808837890625 214.39349365234375 329.19012451171875 136.80056762695312 388.7682189941406 139.74960327148438 C 405.74951171875 146.70057678222656 397.1938781738281 139.91909790039062 414.2611999511719 155.17881774902344" fill="rgb(66, 65, 65)" opacity="1.0" stroke-width="2.0"/>
  </g>
</svg>
