<?xml version="1.0" ?>
<svg height="512" version="1.1" width="512" xmlns="http://www.w3.org/2000/svg">
  <defs/>
  <g>
    <path d="M 56.191226959228516 54.270694732666016 C 59.282005310058594 52.52378463745117 56.39305114746094 54.168949127197266 54.5914421081543 55.79363250732422 C 37.364139556884766 69.1104736328125 30.010725021362305 74.14132690429688 30.779918670654297 72.89811706542969 C 33.623966217041016 73.38878631591797 27.267362594604492 73.75394439697266 36.85193634033203 70.39100646972656 C 29.441837310791016 72.22405242919922 21.68692970275879 81.10903930664062 56.191226959228516 54.270694732666016" fill="rgb(255, 65, 127)" opacity="1.0" stroke-width="2.0"/>
    <path d="M 263.3841552734375 407.1620788574219 C 279.3157043457031 563.0968017578125 226.0507049560547 528.6534423828125 101.01395416259766 463.73016357421875 C 34.254241943359375 396.1687316894531 46.69535827636719 405.0922546386719 74.13204956054688 444.4596862792969 C 71.93204498291016 470.2857971191406 79.11516571044922 464.4261779785156 70.13871002197266 437.6297912597656 C 33.63576126098633 385.1926574707031 -23.384672164916992 360.5711669921875 263.3841552734375 407.1620788574219" fill="rgb(107, 89, 48)" opacity="1.0" stroke-width="2.0"/>
    <path d="M 96.15908813476562 444.8455810546875 C 86.15792846679688 188.79232788085938 92.58171081542969 182.25137329101562 97.79931640625 138.09048461914062 C 125.10623931884766 122.3128662109375 136.7617645263672 114.44024658203125 433.2884216308594 121.23597717285156 C 447.8619384765625 402.82537841796875 440.7003479003906 427.2801208496094 438.1369934082031 477.9543762207031 C 138.5069122314453 467.040283203125 139.39781188964844 466.0977478027344 96.15908813476562 444.8455810546875" fill="rgb(240, 210, 105)" opacity="1.0" stroke-width="2.0"/>
    <path d="M 421.8201904296875 171.1752166748047 C 428.7778015136719 207.20140075683594 387.9363098144531 235.47727966308594 355.66827392578125 210.29000854492188 C 370.44720458984375 230.20648193359375 375.7572021484375 233.6590576171875 367.51654052734375 225.47792053222656 C 341.62103271484375 193.06158447265625 321.54669189453125 174.03152465820312 374.88580322265625 133.93386840820312 C 418.58636474609375 157.3120574951172 399.6745300292969 127.38687133789062 421.8201904296875 171.1752166748047" fill="rgb(74, 69, 66)" opacity="1.0" stroke-width="2.0"/>
  </g>
</svg>
