<?xml version="1.0" ?>
<svg height="512" version="1.1" width="512" xmlns="http://www.w3.org/2000/svg">
  <defs/>
  <g>
    <path d="M 55.5798225402832 54.33561706542969 C 57.18168640136719 53.49171829223633 55.413490295410156 54.54131317138672 54.199066162109375 55.75575256347656 C 37.42556381225586 69.14134979248047 31.5877742767334 75.2443618774414 34.53535842895508 73.06407165527344 C 35.52342987060547 72.4947509765625 30.89994239807129 74.90266418457031 37.91038513183594 71.70176696777344 C 35.311641693115234 72.12693786621094 23.696258544921875 80.86670684814453 55.5798225402832 54.33561706542969" fill="rgb(255, 81, 145)" opacity="1.0" stroke-width="2.0"/>
    <path d="M 426.3842468261719 419.17071533203125 C 408.7320861816406 512.5330200195312 232.47109985351562 533.0520629882812 154.4292449951172 491.2069091796875 C 23.418840408325195 433.9143981933594 25.57109832763672 319.8905029296875 39.21393585205078 431.6945495605469 C 45.27299880981445 475.0413818359375 44.52096939086914 470.0707092285156 33.878013610839844 391.26287841796875 C -39.38240051269531 201.53958129882812 -27.45736312866211 232.65769958496094 426.3842468261719 419.17071533203125" fill="rgb(5, 4, 4)" opacity="1.0" stroke-width="2.0"/>
    <path d="M 45.086570739746094 367.8395080566406 C -5.621157646179199 193.77838134765625 -37.330650329589844 271.4667053222656 51.384281158447266 93.07247924804688 C 157.7326202392578 -8.63615608215332 275.5010681152344 -44.66975021362305 459.9819641113281 76.90228271484375 C 559.4194946289062 268.2275085449219 505.7076721191406 388.99163818359375 403.4806213378906 465.336181640625 C 217.21493530273438 517.8905029296875 130.84046936035156 489.72747802734375 45.086570739746094 367.8395080566406" fill="rgb(221, 192, 98)" opacity="1.0" stroke-width="2.0"/>
    <path d="M 414.66387939453125 155.61264038085938 C 443.89776611328125 203.1314697265625 381.5445861816406 245.04962158203125 348.7055969238281 202.33880615234375 C 360.9189147949219 220.50021362304688 380.4998474121094 214.82034301757812 373.8202819824219 216.22557067871094 C 331.4676208496094 215.1001434326172 327.54571533203125 138.625244140625 387.6676940917969 139.5177459716797 C 407.9493408203125 147.5320587158203 395.11810302734375 138.4230499267578 414.66387939453125 155.61264038085938" fill="rgb(66, 65, 65)" opacity="1.0" stroke-width="2.0"/>
  </g>
</svg>
