<?xml version="1.0" ?>
<svg height="512" version="1.1" width="512" xmlns="http://www.w3.org/2000/svg">
  <defs/>
  <g>
    <path d="M 56.15385437011719 54.3712043762207 C 58.91294860839844 52.353206634521484 56.517066955566406 54.17809295654297 54.376644134521484 55.48367691040039 C 37.262054443359375 69.04691314697266 29.830543518066406 74.12218475341797 31.59668731689453 73.02468872070312 C 33.750118255615234 72.750244140625 27.44088363647461 73.87014770507812 36.241085052490234 70.4056625366211 C 29.994754791259766 72.6236801147461 21.856428146362305 81.1990966796875 56.15385437011719 54.3712043762207" fill="rgb(255, 67, 129)" opacity="1.0" stroke-width="2.0"/>
    <path d="M 308.93841552734375 408.4847106933594 C 325.6269836425781 578.5884399414062 266.54046630859375 534.451904296875 120.64691162109375 476.8846435546875 C 25.57573890686035 399.26617431640625 50.33415603637695 396.05120849609375 65.35247039794922 443.1483459472656 C 81.3497543334961 466.7544860839844 70.93121337890625 455.848388671875 57.690277099609375 423.8598327636719 C 8.752315521240234 327.3296203613281 -55.24822235107422 323.4882507324219 308.93841552734375 408.4847106933594" fill="rgb(11, 7, 11)" opacity="1.0" stroke-width="2.0"/>
    <path d="M 56.02107238769531 396.6397705078125 C 21.04180145263672 232.82708740234375 20.358762741088867 171.34825134277344 24.80632781982422 74.16041564941406 C 80.33146667480469 64.2938232421875 94.84862518310547 56.82693099975586 505.7637634277344 57.00373458862305 C 519.4368286132812 398.554443359375 497.7457580566406 408.3511047363281 430.7365417480469 497.6584167480469 C 130.43862915039062 498.0590515136719 164.1356201171875 474.6975402832031 56.02107238769531 396.6397705078125" fill="rgb(228, 200, 108)" opacity="1.0" stroke-width="2.0"/>
    <path d="M 420.72412109375 166.10086059570312 C 431.8118896484375 209.52723693847656 383.9670104980469 238.79861450195312 350.9624328613281 205.9060516357422 C 366.804443359375 230.1858367919922 377.3647766113281 228.76377868652344 368.2758483886719 225.89527893066406 C 340.8950500488281 204.05284118652344 321.6358642578125 153.96047973632812 381.2235107421875 137.91944885253906 C 415.7807922363281 152.12774658203125 394.2761535644531 129.39501953125 420.72412109375 166.10086059570312" fill="rgb(67, 66, 65)" opacity="1.0" stroke-width="2.0"/>
  </g>
</svg>
