<?xml version="1.0" ?>
<svg height="512" version="1.1" width="512" xmlns="http://www.w3.org/2000/svg">
  <defs/>
  <g>
    <path d="M 56.005706787109375 54.3095588684082 C 58.62916946411133 52.322288513183594 56.129634857177734 54.007022857666016 54.579158782958984 55.70515441894531 C 36.895198822021484 68.67870330810547 29.564983367919922 73.90803527832031 31.653072357177734 73.02179718017578 C 34.299808502197266 72.95928955078125 28.465911865234375 74.51164245605469 35.46352005004883 70.0689697265625 C 28.90268898010254 71.44490051269531 21.975669860839844 81.27749633789062 56.005706787109375 54.3095588684082" fill="rgb(255, 68, 130)" opacity="1.0" stroke-width="2.0"/>
    <path d="M 326.2643127441406 403.1427001953125 C 339.7112121582031 578.728759765625 275.60675048828125 535.3173217773438 127.63555908203125 481.03387451171875 C 25.389114379882812 404.96807861328125 49.86398696899414 387.955810546875 60.42407989501953 444.4012145996094 C 69.41031646728516 471.8617248535156 65.01802825927734 459.51080322265625 54.2314453125 419.8525390625 C -6.056575775146484 300.7640075683594 -58.087642669677734 302.9500427246094 326.2643127441406 403.1427001953125" fill="rgb(15, 14, 13)" opacity="1.0" stroke-width="2.0"/>
    <path d="M 50.80320739746094 380.50238037109375 C -13.89863395690918 284.10943603515625 -14.748730659484863 211.999755859375 16.826419830322266 68.70793151855469 C 71.21026611328125 35.29228973388672 75.18333435058594 24.74404525756836 514.5132446289062 35.16175079345703 C 530.9109497070312 360.6204833984375 494.6868591308594 360.07794189453125 398.1768798828125 489.7292175292969 C 134.55323791503906 499.2004699707031 152.48626708984375 478.4722900390625 50.80320739746094 380.50238037109375" fill="rgb(224, 197, 107)" opacity="1.0" stroke-width="2.0"/>
    <path d="M 419.5162658691406 163.57308959960938 C 434.6580810546875 210.0714569091797 381.18310546875 239.81231689453125 349.86688232421875 204.38206481933594 C 364.8606872558594 228.62997436523438 378.5343933105469 223.7234344482422 369.44976806640625 223.77757263183594 C 339.6039123535156 207.94102478027344 322.2115783691406 150.649658203125 382.566650390625 138.20919799804688 C 414.8536682128906 151.3145751953125 393.2327575683594 131.42831420898438 419.5162658691406 163.57308959960938" fill="rgb(66, 66, 65)" opacity="1.0" stroke-width="2.0"/>
  </g>
</svg>
