<?xml version="1.0" ?>
<svg height="512" version="1.1" width="512" xmlns="http://www.w3.org/2000/svg">
  <defs/>
  <g>
    <path d="M 56.14314270019531 54.28005599975586 C 59.18067169189453 52.465702056884766 56.601287841796875 54.25667190551758 54.45642852783203 55.593692779541016 C 37.30738067626953 69.07765197753906 30.134004592895508 74.32026672363281 31.3516902923584 73.1159896850586 C 34.361671447753906 73.59208679199219 27.947952270507812 73.85086822509766 36.569923400878906 70.13755798339844 C 29.519119262695312 72.42813873291016 21.770065307617188 81.20099639892578 56.14314270019531 54.28005599975586" fill="rgb(255, 66, 128)" opacity="1.0" stroke-width="2.0"/>
    <path d="M 288.74169921875 408.3935241699219 C 306.0268249511719 574.48779296875 249.5977020263672 535.2409057617188 111.92806243896484 470.4326477050781 C 25.063199996948242 397.23663330078125 52.564208984375 397.7504577636719 70.549072265625 440.4775390625 C 84.01600646972656 465.3353271484375 78.09355163574219 453.7164001464844 64.36325073242188 427.2058410644531 C 17.671972274780273 354.50457763671875 -45.76316833496094 341.2660827636719 288.74169921875 408.3935241699219" fill="rgb(30, 34, 17)" opacity="1.0" stroke-width="2.0"/>
    <path d="M 75.29752349853516 412.5133056640625 C 53.83930206298828 198.79347229003906 59.599815368652344 171.7766571044922 65.38583374023438 109.49714660644531 C 105.17465209960938 95.92770385742188 120.1902084350586 86.74575805664062 470.06585693359375 86.04619598388672 C 481.8851623535156 392.0765686035156 472.3144226074219 429.93701171875 444.3551330566406 504.5596008300781 C 130.45553588867188 499.38360595703125 170.60354614257812 474.0488586425781 75.29752349853516 412.5133056640625" fill="rgb(236, 207, 107)" opacity="1.0" stroke-width="2.0"/>
    <path d="M 421.46319580078125 168.25035095214844 C 428.6903381347656 209.4019317626953 388.6395263671875 236.40065002441406 351.9732971191406 208.24169921875 C 366.680419921875 232.77308654785156 375.0049743652344 233.42263793945312 366.7716979980469 228.38955688476562 C 342.09246826171875 200.4280242919922 322.0965270996094 160.2037353515625 378.30364990234375 136.61119079589844 C 416.00689697265625 154.62794494628906 396.2161865234375 127.82209777832031 421.46319580078125 168.25035095214844" fill="rgb(65, 68, 66)" opacity="1.0" stroke-width="2.0"/>
  </g>
</svg>
