<?xml version="1.0" ?>
<svg height="512" version="1.1" width="512" xmlns="http://www.w3.org/2000/svg">
  <defs/>
  <g>
    <path d="M 55.61848831176758 54.58820343017578 C 57.19205856323242 54.16105270385742 55.70810317993164 54.52424621582031 54.163795471191406 55.54800796508789 C 37.94948959350586 69.67052459716797 31.38319206237793 74.91452026367188 35.450157165527344 72.98133087158203 C 36.04902267456055 72.40171813964844 31.464937210083008 75.23599243164062 37.92182922363281 72.04693603515625 C 35.78757095336914 72.72039794921875 23.719877243041992 80.83605194091797 55.61848831176758 54.58820343017578" fill="rgb(255, 83, 147)" opacity="1.0" stroke-width="2.0"/>
    <path d="M 435.5219421386719 416.4206848144531 C 406.1809387207031 509.2864074707031 242.010986328125 535.6688232421875 153.11734008789062 490.60211181640625 C 24.470211029052734 434.74334716796875 20.79680824279785 313.3005065917969 38.08224105834961 428.9652404785156 C 44.972381591796875 474.96807861328125 44.92381286621094 469.80377197265625 30.8465633392334 383.5342102050781 C -44.58926010131836 188.9419403076172 -27.765138626098633 224.97454833984375 435.5219421386719 416.4206848144531" fill="rgb(6, 4, 4)" opacity="1.0" stroke-width="2.0"/>
    <path d="M 43.60298156738281 365.594482421875 C -3.085923194885254 186.427001953125 -39.59304428100586 265.56121826171875 51.38887023925781 96.20306396484375 C 147.93026733398438 -9.775071144104004 297.5577392578125 -46.485862731933594 453.18731689453125 80.62943267822266 C 562.5369873046875 243.822998046875 502.2578430175781 389.7208251953125 415.97796630859375 454.9883117675781 C 229.24020385742188 523.8165283203125 131.38427734375 492.75994873046875 43.60298156738281 365.594482421875" fill="rgb(221, 192, 97)" opacity="1.0" stroke-width="2.0"/>
    <path d="M 414.5137634277344 155.3001251220703 C 444.0360107421875 202.5033416748047 381.81951904296875 245.17515563964844 348.6553649902344 202.2210235595703 C 361.3445739746094 220.15943908691406 380.1552429199219 215.09317016601562 374.0091857910156 216.12034606933594 C 330.92388916015625 214.7924346923828 327.89776611328125 137.9027557373047 388.1503601074219 139.6098175048828 C 407.24609375 147.3219757080078 395.8133544921875 138.85220336914062 414.5137634277344 155.3001251220703" fill="rgb(66, 65, 65)" opacity="1.0" stroke-width="2.0"/>
  </g>
</svg>
