<?xml version="1.0" ?>
<svg height="512" version="1.1" width="512" xmlns="http://www.w3.org/2000/svg">
  <defs/>
  <g>
    <path d="M 55.34303665161133 54.677337646484375 C 56.06878662109375 54.50563049316406 55.568695068359375 54.64881134033203 54.233036041259766 55.602867126464844 C 37.54448318481445 69.30023193359375 31.867773056030273 75.0561752319336 35.82282638549805 73.12506103515625 C 35.81324768066406 72.88951110839844 33.35100555419922 75.08045196533203 37.48811721801758 72.0765609741211 C 37.43387222290039 72.41039276123047 23.83392333984375 80.22189331054688 55.34303665161133 54.677337646484375" fill="rgb(255, 90, 156)" opacity="1.0" stroke-width="2.0"/>
    <path d="M 478.8581848144531 383.45269775390625 C 404.7951965332031 507.9427490234375 261.5935974121094 539.7869262695312 151.24610900878906 490.3050842285156 C 16.75104522705078 430.5824890136719 7.913605213165283 286.936279296875 30.31190299987793 406.3406982421875 C 44.70650863647461 473.3885192871094 43.8458251953125 470.5442199707031 22.361053466796875 367.4566345214844 C -50.160072326660156 126.31713104248047 -40.452884674072266 189.6123809814453 478.8581848144531 383.45269775390625" fill="rgb(3, 2, 2)" opacity="1.0" stroke-width="2.0"/>
    <path d="M 27.453815460205078 320.0147399902344 C 12.819881439208984 148.5033416748047 -19.864206314086914 222.62841796875 46.62857437133789 107.31402587890625 C 134.3369598388672 -16.05238151550293 323.9059753417969 -46.465919494628906 446.1567687988281 83.83794403076172 C 560.9915161132812 211.1348876953125 504.7016296386719 397.50506591796875 441.1395568847656 402.3443603515625 C 321.7972106933594 549.4000244140625 89.80711364746094 511.4207763671875 27.453815460205078 320.0147399902344" fill="rgb(225, 196, 98)" opacity="1.0" stroke-width="2.0"/>
    <path d="M 414.1368103027344 155.12844848632812 C 444.33929443359375 200.28805541992188 384.1539001464844 246.29441833496094 347.90545654296875 202.0675048828125 C 361.7738037109375 218.9860076904297 379.7225646972656 215.29261779785156 375.18170166015625 215.87054443359375 C 327.90472412109375 213.93455505371094 330.42974853515625 135.88514709472656 389.01361083984375 139.9945526123047 C 404.4367370605469 145.91773986816406 398.6630554199219 140.7704315185547 414.1368103027344 155.12844848632812" fill="rgb(66, 65, 65)" opacity="1.0" stroke-width="2.0"/>
  </g>
</svg>
