<?xml version="1.0" ?>
<svg height="512" version="1.1" width="512" xmlns="http://www.w3.org/2000/svg">
  <defs/>
  <g>
    <path d="M 57.5175895690918 52.004154205322266 C 63.124977111816406 48.485408782958984 52.31446075439453 52.48990249633789 51.8036994934082 55.477264404296875 C 40.21754837036133 71.51580047607422 27.204496383666992 74.07674407958984 28.312955856323242 72.35244750976562 C 21.718914031982422 73.92485046386719 23.13047981262207 75.83299255371094 39.37181091308594 70.56137084960938 C 31.506221771240234 72.93524932861328 20.011056900024414 79.7813491821289 57.5175895690918 52.004154205322266" fill="rgb(232, 37, 98)" opacity="1.0" stroke-width="2.0"/>
    <path d="M 137.0806121826172 472.599609375 C 129.2439727783203 473.0015563964844 111.21429443359375 474.20526123046875 95.38825225830078 472.0080871582031 C 98.3366928100586 474.14471435546875 95.26725769042969 475.5781555175781 85.41728210449219 475.6770935058594 C 63.01879119873047 474.8407897949219 70.52385711669922 483.3283996582031 77.74845123291016 480.70782470703125 C 66.32962799072266 484.3985595703125 74.31778717041016 471.859375 137.0806121826172 472.599609375" fill="rgb(62, 232, 33)" opacity="1.0" stroke-width="2.0"/>
    <path d="M 243.67752075195312 299.51171875 C 242.65721130371094 276.7640380859375 253.49490356445312 286.2640380859375 255.8504638671875 276.92230224609375 C 262.4848937988281 277.52020263671875 260.60247802734375 271.8254089355469 288.808349609375 269.83404541015625 C 296.0471496582031 301.8193054199219 285.8699035644531 311.2617492675781 281.7980041503906 319.398193359375 C 254.6215362548828 311.2971496582031 244.90921020507812 316.3043212890625 243.67752075195312 299.51171875" fill="rgb(255, 220, 187)" opacity="1.0" stroke-width="2.0"/>
    <path d="M 417.3518371582031 217.68370056152344 C 404.0381774902344 217.5467071533203 387.53729248046875 219.2938995361328 369.4482421875 220.65773010253906 C 365.156494140625 237.22744750976562 366.4164733886719 227.46018981933594 367.6997985839844 226.0796661376953 C 360.77081298828125 215.47532653808594 359.138916015625 201.9091339111328 363.8585205078125 192.5381622314453 C 387.5741882324219 193.67172241210938 396.1088562011719 188.57179260253906 417.3518371582031 217.68370056152344" fill="rgb(150, 43, 120)" opacity="1.0" stroke-width="2.0"/>
  </g>
</svg>
