<?xml version="1.0" ?>
<svg height="512" version="1.1" width="512" xmlns="http://www.w3.org/2000/svg">
  <defs/>
  <g>
    <path d="M 55.55556106567383 54.65346145629883 C 56.99641799926758 54.043434143066406 55.66362380981445 54.32590103149414 54.42245864868164 55.768131256103516 C 37.74567413330078 69.47127532958984 31.50340461730957 74.94641876220703 35.38570022583008 72.7356948852539 C 34.790618896484375 72.83537292480469 30.692970275878906 75.31598663330078 37.77552795410156 72.06201171875 C 35.7900505065918 72.49118041992188 23.86996078491211 80.90486907958984 55.55556106567383 54.65346145629883" fill="rgb(255, 83, 148)" opacity="1.0" stroke-width="2.0"/>
    <path d="M 442.6463317871094 416.15814208984375 C 404.218505859375 506.32568359375 245.5804901123047 537.3734741210938 152.73165893554688 490.6217956542969 C 24.28099250793457 434.64605712890625 18.640117645263672 311.1656188964844 37.74501037597656 427.44830322265625 C 47.028350830078125 474.4547119140625 45.2291145324707 469.6356506347656 29.27962303161621 379.56683349609375 C -44.9356575012207 181.63282775878906 -30.663833618164062 221.27354431152344 442.6463317871094 416.15814208984375" fill="rgb(6, 5, 4)" opacity="1.0" stroke-width="2.0"/>
    <path d="M 42.35486602783203 364.0841064453125 C -1.1255426406860352 181.18545532226562 -39.66415023803711 261.6123352050781 51.18315124511719 97.54975128173828 C 144.0795440673828 -10.809762001037598 307.7066650390625 -47.59891128540039 450.0470886230469 82.24801635742188 C 564.1140747070312 234.37643432617188 501.2200012207031 390.6578369140625 421.06219482421875 449.63873291015625 C 236.33636474609375 526.8887939453125 130.7967071533203 494.14892578125 42.35486602783203 364.0841064453125" fill="rgb(221, 193, 97)" opacity="1.0" stroke-width="2.0"/>
    <path d="M 414.37322998046875 155.32504272460938 C 444.19451904296875 202.48345947265625 382.248291015625 245.3480224609375 348.48590087890625 202.29873657226562 C 361.4178771972656 220.1239776611328 380.01373291015625 215.2504119873047 374.1988220214844 215.9435577392578 C 330.5487365722656 214.64907836914062 328.1368103027344 137.75257873535156 388.35772705078125 139.66372680664062 C 406.9139099121094 147.2218475341797 396.0993957519531 139.0919647216797 414.37322998046875 155.32504272460938" fill="rgb(66, 65, 65)" opacity="1.0" stroke-width="2.0"/>
  </g>
</svg>
