<?xml version="1.0" ?>
<svg height="512" version="1.1" width="512" xmlns="http://www.w3.org/2000/svg">
  <defs/>
  <g>
    <path d="M 55.78453063964844 53.37063217163086 C 59.665828704833984 51.77085494995117 55.759849548339844 54.030094146728516 53.82715606689453 55.343475341796875 C 36.89023208618164 68.71682739257812 28.334753036499023 74.21283721923828 30.94696617126465 74.19696044921875 C 32.7491340637207 70.55403137207031 25.7298641204834 73.47665405273438 39.307411193847656 71.41569519042969 C 30.22088623046875 71.11295318603516 21.445253372192383 81.55999755859375 55.78453063964844 53.37063217163086" fill="rgb(255, 59, 121)" opacity="1.0" stroke-width="2.0"/>
    <path d="M 165.0924835205078 449.7159118652344 C 164.39190673828125 503.1415710449219 132.63238525390625 486.2392883300781 104.13641357421875 462.3487854003906 C 88.03890228271484 464.9515075683594 83.30182647705078 466.8117370605469 81.51026916503906 470.3766174316406 C 65.76679229736328 480.6969909667969 73.96382904052734 478.0975341796875 79.76053619384766 472.8198547363281 C 68.8249740600586 485.3208923339844 69.1083755493164 458.3722229003906 165.0924835205078 449.7159118652344" fill="rgb(65, 162, 42)" opacity="1.0" stroke-width="2.0"/>
    <path d="M 209.36074829101562 333.43572998046875 C 206.6964569091797 247.509765625 217.33517456054688 257.11871337890625 221.23434448242188 246.4752197265625 C 229.66404724121094 242.1856231689453 228.73092651367188 235.44456481933594 324.2206115722656 234.45541381835938 C 331.2044982910156 334.83251953125 320.9617004394531 344.9328918457031 313.88812255859375 355.35418701171875 C 221.40655517578125 347.0331115722656 211.87379455566406 351.6009521484375 209.36074829101562 333.43572998046875" fill="rgb(253, 222, 105)" opacity="1.0" stroke-width="2.0"/>
    <path d="M 435.73577880859375 188.35462951660156 C 401.592529296875 210.94126892089844 405.1363220214844 229.13339233398438 351.96185302734375 214.81304931640625 C 363.2696533203125 234.85092163085938 369.6595153808594 227.3714599609375 362.78802490234375 228.64614868164062 C 347.4037780761719 215.26626586914062 336.2389221191406 182.4003143310547 340.4164123535156 165.5864715576172 C 409.3637390136719 193.2413787841797 418.289794921875 161.34970092773438 435.73577880859375 188.35462951660156" fill="rgb(84, 88, 58)" opacity="1.0" stroke-width="2.0"/>
  </g>
</svg>
