<?xml version="1.0" ?>
<svg height="512" version="1.1" width="512" xmlns="http://www.w3.org/2000/svg">
  <defs/>
  <g>
    <path d="M 55.209022521972656 54.72185134887695 C 55.143680572509766 54.648826599121094 54.98982620239258 54.467281341552734 54.119850158691406 55.48374938964844 C 37.480403900146484 69.25819396972656 31.74371337890625 74.86634826660156 36.18760681152344 73.35100555419922 C 36.71599578857422 73.13404083251953 33.07172393798828 74.26749420166016 37.84038543701172 72.49842834472656 C 37.759788513183594 72.42588806152344 24.050447463989258 80.2950439453125 55.209022521972656 54.72185134887695" fill="rgb(255, 92, 158)" opacity="1.0" stroke-width="2.0"/>
    <path d="M 484.87744140625 372.6322326660156 C 410.5369873046875 509.9002990722656 259.97149658203125 539.3015747070312 151.46304321289062 490.2522277832031 C 14.189265251159668 429.45806884765625 6.484950065612793 281.3888854980469 27.976125717163086 400.95111083984375 C 42.37557601928711 473.82086181640625 42.33757781982422 471.7886962890625 21.154821395874023 365.44549560546875 C -51.027099609375 113.90652465820312 -34.41147994995117 180.5419921875 484.87744140625 372.6322326660156" fill="rgb(3, 2, 3)" opacity="1.0" stroke-width="2.0"/>
    <path d="M 24.191740036010742 306.91595458984375 C 18.623638153076172 141.3028564453125 -16.12311553955078 214.74993896484375 44.52888870239258 110.59920501708984 C 132.79751586914062 -17.740345001220703 326.2535095214844 -45.46983337402344 446.0366516113281 83.52777862548828 C 559.3993530273438 208.3616485595703 504.7100830078125 390.4194030761719 451.73388671875 388.1316223144531 C 336.1600036621094 553.8975830078125 80.55810546875 517.2750854492188 24.191740036010742 306.91595458984375" fill="rgb(226, 196, 99)" opacity="1.0" stroke-width="2.0"/>
    <path d="M 414.07208251953125 155.02499389648438 C 444.2374572753906 200.0332489013672 384.19049072265625 246.50811767578125 347.9484558105469 202.03445434570312 C 361.8457336425781 218.74029541015625 379.80963134765625 215.22914123535156 375.3713073730469 216.03793334960938 C 327.11566162109375 213.9231414794922 331.1389465332031 135.50828552246094 389.0880432128906 139.943359375 C 403.4934997558594 145.55055236816406 399.3641357421875 141.33294677734375 414.07208251953125 155.02499389648438" fill="rgb(66, 65, 65)" opacity="1.0" stroke-width="2.0"/>
  </g>
</svg>
