<?xml version="1.0" ?>
<svg height="512" version="1.1" width="512" xmlns="http://www.w3.org/2000/svg">
  <defs/>
  <g>
    <path d="M 55.64483642578125 54.85514831542969 C 56.597755432128906 54.57521438598633 55.54438781738281 54.66915512084961 54.5415153503418 55.954856872558594 C 37.890262603759766 69.58705139160156 31.86907386779785 75.01590728759766 35.738311767578125 72.83776092529297 C 35.93778991699219 72.87200164794922 32.488765716552734 75.05564880371094 37.81812286376953 71.75397491455078 C 36.649349212646484 71.9913330078125 24.21293067932129 80.77257537841797 55.64483642578125 54.85514831542969" fill="rgb(255, 88, 153)" opacity="1.0" stroke-width="2.0"/>
    <path d="M 469.0952453613281 398.7705078125 C 397.4028015136719 504.6293640136719 264.16400146484375 540.3470458984375 151.22760009765625 490.3025817871094 C 20.197629928588867 431.341552734375 11.236759185791016 297.0497131347656 34.123374938964844 414.73870849609375 C 46.96107482910156 473.55377197265625 45.92214584350586 468.80535888671875 24.152523040771484 370.0865173339844 C -49.868492126464844 146.79296875 -42.89087677001953 202.56993103027344 469.0952453613281 398.7705078125" fill="rgb(2, 3, 3)" opacity="1.0" stroke-width="2.0"/>
    <path d="M 35.66242218017578 344.451416015625 C 4.697470664978027 163.5378875732422 -31.45543098449707 242.72911071777344 48.65790939331055 103.37518310546875 C 135.66932678222656 -13.631070137023926 323.2989501953125 -47.61540603637695 446.51806640625 84.12342071533203 C 563.0513916015625 213.12637329101562 504.6466369628906 408.7386779785156 425.14886474609375 420.8459167480469 C 299.6153259277344 543.997802734375 105.21160888671875 500.6572265625 35.66242218017578 344.451416015625" fill="rgb(224, 195, 98)" opacity="1.0" stroke-width="2.0"/>
    <path d="M 414.1663513183594 155.17860412597656 C 444.0253601074219 201.17514038085938 383.6363220214844 245.9480438232422 348.0846252441406 202.24183654785156 C 361.2453308105469 219.66317749023438 379.384033203125 215.186767578125 374.5673828125 215.93405151367188 C 328.9825134277344 214.5965576171875 329.57977294921875 136.26089477539062 388.751953125 139.78302001953125 C 405.5946960449219 146.50267028808594 397.6856994628906 139.95077514648438 414.1663513183594 155.17860412597656" fill="rgb(66, 65, 65)" opacity="1.0" stroke-width="2.0"/>
  </g>
</svg>
