<?xml version="1.0" ?>
<svg height="512" version="1.1" width="512" xmlns="http://www.w3.org/2000/svg">
  <defs/>
  <g>
    <path d="M 56.14915084838867 54.39988708496094 C 58.693660736083984 52.172080993652344 56.043968200683594 53.91012954711914 54.38692855834961 55.517364501953125 C 37.0230712890625 68.8073501586914 29.662839889526367 73.98980712890625 31.654369354248047 73.0311279296875 C 34.154457092285156 72.90399169921875 28.19472885131836 74.34187316894531 35.66724395751953 70.15668487548828 C 29.173486709594727 71.74229431152344 21.93108558654785 81.24231719970703 56.14915084838867 54.39988708496094" fill="rgb(255, 67, 130)" opacity="1.0" stroke-width="2.0"/>
    <path d="M 317.5146179199219 406.4351806640625 C 333.0260009765625 578.9058227539062 271.76123046875 534.5613403320312 124.41317749023438 479.1243591308594 C 25.36833953857422 402.017822265625 51.16236877441406 392.3298645019531 63.32609558105469 443.6955871582031 C 74.36874389648438 470.0672912597656 68.23115539550781 457.21478271484375 55.752628326416016 421.4988708496094 C 1.0382916927337646 314.1959533691406 -58.507568359375 313.73443603515625 317.5146179199219 406.4351806640625" fill="rgb(13, 10, 10)" opacity="1.0" stroke-width="2.0"/>
    <path d="M 52.69892883300781 387.0893859863281 C 3.4444026947021484 257.6106872558594 0.4688413143157959 187.61746215820312 15.071432113647461 67.48055267333984 C 72.70796203613281 48.657405853271484 83.35693359375 40.688995361328125 512.9400634765625 45.22129821777344 C 529.56396484375 383.9862365722656 500.5157470703125 384.6527099609375 415.65570068359375 491.35430908203125 C 127.45977783203125 497.61749267578125 157.40419006347656 477.93060302734375 52.69892883300781 387.0893859863281" fill="rgb(226, 199, 109)" opacity="1.0" stroke-width="2.0"/>
    <path d="M 420.197265625 164.54971313476562 C 432.929443359375 210.07357788085938 382.9971923828125 239.21917724609375 350.0382080078125 205.08140563964844 C 364.97662353515625 229.8937530517578 377.9422607421875 225.37303161621094 368.83331298828125 224.9708709716797 C 340.2165222167969 206.69305419921875 322.0433654785156 151.90048217773438 381.8103942871094 138.10328674316406 C 415.2323303222656 151.82481384277344 393.79718017578125 130.46365356445312 420.197265625 164.54971313476562" fill="rgb(66, 66, 65)" opacity="1.0" stroke-width="2.0"/>
  </g>
</svg>
