<?xml version="1.0" ?>
<svg height="512" version="1.1" width="512" xmlns="http://www.w3.org/2000/svg">
  <defs/>
  <g>
    <path d="M 55.97747039794922 53.99205017089844 C 59.31306457519531 52.07719039916992 56.12085723876953 53.932796478271484 54.19770050048828 55.40906524658203 C 37.033748626708984 68.79383087158203 30.061716079711914 74.47586822509766 30.26627540588379 73.51295471191406 C 33.320133209228516 74.18843078613281 25.927528381347656 74.00313568115234 37.673728942871094 71.1321792602539 C 29.63913345336914 71.8115463256836 21.728281021118164 81.52790832519531 55.97747039794922 53.99205017089844" fill="rgb(255, 62, 124)" opacity="1.0" stroke-width="2.0"/>
    <path d="M 182.49159240722656 438.3286437988281 C 194.22628784179688 523.8267822265625 158.67697143554688 498.7208557128906 95.17330932617188 457.1226501464844 C 75.67505645751953 444.8739318847656 72.93034362792969 459.37274169921875 69.11921691894531 463.37005615234375 C 72.4532470703125 477.7274169921875 77.48262023925781 468.79534912109375 74.99473571777344 471.8301696777344 C 68.54068756103516 474.0857238769531 47.3115234375 435.0642395019531 182.49159240722656 438.3286437988281" fill="rgb(119, 97, 56)" opacity="1.0" stroke-width="2.0"/>
    <path d="M 182.54437255859375 362.1748352050781 C 178.01409912109375 227.15721130371094 188.29153442382812 235.232421875 193.08531188964844 222.4084930419922 C 202.12574768066406 213.37673950195312 203.46400451660156 206.39395141601562 351.9211730957031 206.4046173095703 C 358.59130859375 359.0796203613281 348.04046630859375 368.5744934082031 340.3446044921875 383.41815185546875 C 198.7340850830078 375.1689147949219 189.49188232421875 379.26031494140625 182.54437255859375 362.1748352050781" fill="rgb(251, 221, 111)" opacity="1.0" stroke-width="2.0"/>
    <path d="M 428.4419250488281 174.0028533935547 C 408.7025146484375 215.7677764892578 413.2751159667969 234.82884216308594 350.6128234863281 211.1167449951172 C 362.4663391113281 236.49952697753906 372.2772521972656 228.2611083984375 363.50250244140625 227.4859161376953 C 345.3553771972656 212.12918090820312 331.93682861328125 182.76649475097656 353.7365417480469 140.69009399414062 C 414.5517272949219 175.9868927001953 417.24847412109375 140.55213928222656 428.4419250488281 174.0028533935547" fill="rgb(89, 92, 80)" opacity="1.0" stroke-width="2.0"/>
  </g>
</svg>
