<?xml version="1.0" ?>
<svg height="512" version="1.1" width="512" xmlns="http://www.w3.org/2000/svg">
  <defs/>
  <g>
    <path d="M 55.6936149597168 54.01044845581055 C 57.735965728759766 52.61620330810547 55.428890228271484 53.76811218261719 54.203311920166016 55.159446716308594 C 38.413330078125 69.89432525634766 32.86017990112305 75.30827331542969 35.62360763549805 73.76960754394531 C 38.331138610839844 70.21605682373047 32.90340042114258 76.67926788330078 39.89434814453125 70.41866302490234 C 37.07887268066406 73.3056640625 24.352853775024414 82.59659576416016 55.6936149597168 54.01044845581055" fill="rgb(255, 72, 135)" opacity="1.0" stroke-width="2.0"/>
    <path d="M 379.03240966796875 394.29443359375 C 368.6327209472656 545.216064453125 260.07537841796875 530.0294189453125 144.38931274414062 488.4740905761719 C 23.399797439575195 419.8193054199219 42.48954772949219 357.7265625 54.96635055541992 445.2156066894531 C 61.979305267333984 479.005859375 59.723731994628906 470.1482849121094 48.48659896850586 409.9414978027344 C -29.22010040283203 274.93170166015625 -17.363643646240234 276.5798645019531 379.03240966796875 394.29443359375" fill="rgb(8, 8, 7)" opacity="1.0" stroke-width="2.0"/>
    <path d="M 46.67125701904297 367.23907470703125 C -22.75619888305664 205.74461364746094 9.083745956420898 105.09173583984375 135.63938903808594 36.410404205322266 C 314.9632568359375 108.18768310546875 225.0291748046875 125.87797546386719 525.7875366210938 140.85150146484375 C 514.6951293945312 375.4822082519531 476.43731689453125 409.1004333496094 385.45782470703125 479.95941162109375 C 201.90493774414062 509.2457275390625 121.80017852783203 482.620849609375 46.67125701904297 367.23907470703125" fill="rgb(237, 206, 104)" opacity="1.0" stroke-width="2.0"/>
    <path d="M 422.09686279296875 178.4158172607422 C 423.2438659667969 213.09042358398438 381.5735778808594 234.6114501953125 353.5018615722656 207.72503662109375 C 355.524169921875 214.54666137695312 366.3350830078125 229.62403869628906 361.60296630859375 222.93887329101562 C 349.8175354003906 206.30172729492188 340.14215087890625 175.99111938476562 375.6435852050781 199.30662536621094 C 414.0742492675781 206.29954528808594 394.8861389160156 152.56507873535156 422.09686279296875 178.4158172607422" fill="rgb(2, 1, 2)" opacity="1.0" stroke-width="2.0"/>
    <path d="M 194.2598876953125 141.20558166503906 C 121.94625854492188 209.17486572265625 254.8308563232422 263.8256530761719 253.8471221923828 169.1111297607422 C 231.25750732421875 132.11782836914062 208.35025024414062 139.08856201171875 360.08599853515625 151.6992950439453 C 371.6988220214844 168.92811584472656 357.8094177246094 155.34584045410156 324.7203369140625 123.88833618164062 C 186.7706298828125 83.05391693115234 190.14056396484375 93.79688262939453 194.2598876953125 141.20558166503906" fill="rgb(69, 68, 66)" opacity="1.0" stroke-width="2.0"/>
    <path d="M 410.67620849609375 151.4582061767578 C 431.91864013671875 176.367919921875 417.4485168457031 192.40328979492188 413.32086181640625 199.1912384033203 C 398.3912658691406 178.98733520507812 405.824951171875 140.65432739257812 348.86407470703125 171.56407165527344 C 335.28143310546875 161.692626953125 374.6883850097656 119.80184173583984 410.67620849609375 151.4582061767578" fill="rgb(1, 0, 1)" opacity="1.0" stroke-width="2.0"/>
    <path d="M 250.7776336669922 -10.615220069885254 C 148.3929443359375 13.829981803894043 106.2203140258789 109.68447875976562 127.56507873535156 117.21260070800781 C 331.70782470703125 105.72700500488281 289.9048156738281 83.91944122314453 307.17413330078125 104.78571319580078 C 269.7668762207031 119.25965881347656 258.2850341796875 116.75318908691406 336.12799072265625 126.02338409423828 C 402.14056396484375 163.49647521972656 322.20611572265625 161.58639526367188 101.8475112915039 121.56623077392578 C 323.370849609375 98.89820098876953 357.5621337890625 109.91293334960938 250.7776336669922 -10.615220069885254" fill="rgb(250, 221, 108)" opacity="1.0" stroke-width="2.0"/>
    <path d="M 44.339439392089844 148.96397399902344 C 20.023324966430664 216.76263427734375 12.230324745178223 242.7292938232422 33.19859313964844 126.61260986328125 C 42.94265365600586 118.51451873779297 -30.197961807250977 208.80270385742188 13.37905502319336 339.724609375 C 41.698265075683594 372.41571044921875 -8.013763427734375 156.32229614257812 55.30705642700195 97.46559143066406 C 98.91228485107422 31.653650283813477 232.66273498535156 -28.10118293762207 278.6002502441406 16.951297760009766 C 104.05564880371094 20.37973976135254 59.318817138671875 131.01625061035156 44.339439392089844 148.96397399902344" fill="rgb(3, 3, 2)" opacity="1.0" stroke-width="2.0"/>
    <path d="M 352.7936096191406 191.3701171875 C 371.9787292480469 180.03274536132812 349.8542785644531 181.15106201171875 386.10858154296875 214.14212036132812 C 363.2027893066406 230.9314422607422 322.8968200683594 188.24952697753906 352.66558837890625 152.75906372070312 C 419.966796875 153.0991973876953 354.9613037109375 154.02684020996094 362.6748046875 184.3157196044922 C 414.41748046875 149.7854461669922 397.1070556640625 161.52354431152344 404.5357666015625 209.07093811035156 C 423.215087890625 140.96604919433594 400.6094970703125 158.48666381835938 352.7936096191406 191.3701171875" fill="rgb(1, 0, 1)" opacity="1.0" stroke-width="2.0"/>
    <path d="M 467.5290832519531 101.20610046386719 C 307.0926208496094 -46.656795501708984 271.8872375488281 -19.402667999267578 368.5896911621094 15.025944709777832 C 321.2405700683594 16.849327087402344 243.67617797851562 -33.12891387939453 239.05807495117188 143.6909637451172 C 386.93450927734375 77.1891860961914 527.3322143554688 222.43246459960938 467.5290832519531 101.20610046386719" fill="rgb(207, 184, 94)" opacity="1.0" stroke-width="2.0"/>
  </g>
</svg>
