<?xml version="1.0" ?>
<svg height="512" version="1.1" width="512" xmlns="http://www.w3.org/2000/svg">
  <defs/>
  <g>
    <path d="M 55.49924850463867 53.974430084228516 C 57.38541030883789 53.071964263916016 55.45085525512695 54.069889068603516 54.122413635253906 55.12377166748047 C 38.07617950439453 69.68386840820312 32.5068359375 75.44281005859375 35.522186279296875 74.05886840820312 C 38.48440170288086 71.96332550048828 31.519479751586914 76.61447143554688 39.794761657714844 71.32347869873047 C 36.90262985229492 73.08919525146484 24.094179153442383 82.28092956542969 55.49924850463867 53.974430084228516" fill="rgb(255, 77, 141)" opacity="1.0" stroke-width="2.0"/>
    <path d="M 455.1314392089844 416.0695495605469 C 388.87286376953125 507.25921630859375 248.68878173828125 539.5810546875 148.39674377441406 488.3785705566406 C 33.699405670166016 434.9881896972656 38.71367645263672 348.6050720214844 52.50507736206055 450.99639892578125 C 56.3919677734375 478.47528076171875 56.002113342285156 472.2149963378906 45.052146911621094 403.4298400878906 C -35.04256057739258 266.6436767578125 -6.094051361083984 266.79742431640625 455.1314392089844 416.0695495605469" fill="rgb(2, 4, 1)" opacity="1.0" stroke-width="2.0"/>
    <path d="M 50.398292541503906 376.2095947265625 C -22.682950973510742 207.86724853515625 9.280769348144531 103.4920654296875 140.7703094482422 26.134807586669922 C 415.60064697265625 16.54875946044922 380.3489685058594 33.13383483886719 524.8817138671875 167.87986755371094 C 515.2692260742188 350.2061462402344 477.74237060546875 423.01959228515625 393.7474060058594 447.30035400390625 C 263.6247863769531 535.412109375 122.58509063720703 484.7311096191406 50.398292541503906 376.2095947265625" fill="rgb(241, 209, 106)" opacity="1.0" stroke-width="2.0"/>
    <path d="M 422.2455749511719 178.26724243164062 C 423.18951416015625 213.68173217773438 380.8946533203125 234.52882385253906 353.4325866699219 207.70680236816406 C 355.52740478515625 214.5912628173828 364.91656494140625 229.6847686767578 360.9874572753906 223.1064910888672 C 350.6288757324219 205.36087036132812 340.109130859375 176.96214294433594 375.6761474609375 199.1759796142578 C 413.5628662109375 206.22035217285156 396.03082275390625 152.16639709472656 422.2455749511719 178.26724243164062" fill="rgb(2, 2, 3)" opacity="1.0" stroke-width="2.0"/>
    <path d="M 199.66131591796875 138.58383178710938 C 120.34596252441406 196.72744750976562 238.75885009765625 265.2877502441406 254.12095642089844 180.18666076660156 C 248.628662109375 119.63560485839844 154.9517364501953 148.7030792236328 358.123291015625 148.4399871826172 C 372.3211669921875 162.67202758789062 358.8146057128906 150.21266174316406 324.96771240234375 124.35750579833984 C 186.76669311523438 83.31800079345703 190.94139099121094 93.79243469238281 199.66131591796875 138.58383178710938" fill="rgb(67, 66, 66)" opacity="1.0" stroke-width="2.0"/>
    <path d="M 410.2449645996094 151.4276123046875 C 431.7444763183594 175.08787536621094 417.7539367675781 194.4290313720703 412.8345642089844 200.06137084960938 C 399.5476989746094 179.6002197265625 405.07342529296875 140.39678955078125 349.9112854003906 171.45457458496094 C 335.3665771484375 160.41067504882812 375.3831787109375 120.38040924072266 410.2449645996094 151.4276123046875" fill="rgb(1, 0, 2)" opacity="1.0" stroke-width="2.0"/>
    <path d="M 276.2109375 -15.595601081848145 C 146.81976318359375 16.243690490722656 102.60269165039062 98.26065826416016 122.9631118774414 121.69392395019531 C 325.12738037109375 101.88864135742188 288.0120544433594 73.49031066894531 309.5765380859375 91.37123107910156 C 269.9072570800781 109.41897583007812 258.7300109863281 92.21441650390625 348.3213195800781 92.76481628417969 C 412.77142333984375 175.4065704345703 330.2929992675781 153.22845458984375 99.04928588867188 125.7581558227539 C 346.4579162597656 98.23865509033203 400.1688232421875 62.81647491455078 276.2109375 -15.595601081848145" fill="rgb(251, 222, 111)" opacity="1.0" stroke-width="2.0"/>
    <path d="M 36.218101501464844 169.32846069335938 C 23.2884578704834 214.79383850097656 12.41318130493164 250.63241577148438 31.65383529663086 130.65243530273438 C 42.93729782104492 116.75148010253906 -30.65399932861328 211.65481567382812 13.838488578796387 341.0541687011719 C 40.497657775878906 377.8160705566406 -6.8212666511535645 145.7304229736328 55.31760787963867 98.69927215576172 C 102.80072021484375 21.593217849731445 255.7753448486328 -27.57465171813965 272.1366882324219 18.503280639648438 C 109.12638854980469 19.011306762695312 52.26573944091797 131.69400024414062 36.218101501464844 169.32846069335938" fill="rgb(3, 2, 2)" opacity="1.0" stroke-width="2.0"/>
    <path d="M 353.2556457519531 190.86593627929688 C 372.9438171386719 179.13592529296875 348.0672302246094 183.67123413085938 388.1389465332031 211.2410125732422 C 362.77044677734375 232.98529052734375 323.7129211425781 187.85635375976562 352.3327941894531 153.20860290527344 C 420.56573486328125 156.40829467773438 355.4173583984375 151.6739044189453 362.68060302734375 184.5951690673828 C 414.9697570800781 149.36717224121094 398.0612487792969 161.21902465820312 403.430419921875 209.06251525878906 C 422.5960998535156 140.88865661621094 400.88165283203125 158.83721923828125 353.2556457519531 190.86593627929688" fill="rgb(1, 1, 2)" opacity="1.0" stroke-width="2.0"/>
    <path d="M 471.55157470703125 107.8021240234375 C 321.1987609863281 -35.995506286621094 269.4785461425781 -43.242496490478516 385.5558166503906 26.620824813842773 C 330.3637390136719 25.033782958984375 282.0436706542969 -15.227279663085938 321.0628662109375 26.491050720214844 C 437.8081970214844 43.05268096923828 551.9728393554688 302.7841796875 471.55157470703125 107.8021240234375" fill="rgb(23, 27, 32)" opacity="1.0" stroke-width="2.0"/>
  </g>
</svg>
