<?xml version="1.0" ?>
<svg height="512" version="1.1" width="512" xmlns="http://www.w3.org/2000/svg">
  <defs/>
  <g>
    <path d="M 55.55685043334961 53.99675750732422 C 57.49161148071289 52.98058319091797 55.40461349487305 54.005699157714844 54.22678756713867 55.2480354309082 C 38.15742111206055 69.73345947265625 32.51090621948242 75.36510467529297 35.64241409301758 74.11378479003906 C 38.97223663330078 71.74931335449219 31.809715270996094 76.78057861328125 40.02348709106445 71.32050323486328 C 36.69684600830078 73.2248764038086 24.209732055664062 82.52201843261719 55.55685043334961 53.99675750732422" fill="rgb(255, 75, 139)" opacity="1.0" stroke-width="2.0"/>
    <path d="M 426.99658203125 420.96661376953125 C 400.403564453125 517.0335693359375 229.5701446533203 531.1709594726562 151.38253784179688 490.3984375 C 26.61306381225586 429.3159484863281 41.67647171020508 351.5523986816406 53.3381233215332 446.3514709472656 C 58.926918029785156 478.5413513183594 57.405941009521484 471.47998046875 46.949745178222656 406.6579284667969 C -33.48393249511719 270.16632080078125 -9.347970008850098 270.2896728515625 426.99658203125 420.96661376953125" fill="rgb(4, 2, 3)" opacity="1.0" stroke-width="2.0"/>
    <path d="M 48.52041244506836 371.0099792480469 C -22.26357650756836 212.5023193359375 10.435094833374023 102.14859008789062 134.36293029785156 31.37838363647461 C 343.4859313964844 76.98749542236328 303.7528076171875 81.14254760742188 528.0308227539062 157.09613037109375 C 517.348876953125 352.2789611816406 474.1124572753906 415.4079895019531 399.95013427734375 466.7057800292969 C 216.0240478515625 517.4407958984375 127.9345932006836 487.1493835449219 48.52041244506836 371.0099792480469" fill="rgb(239, 207, 105)" opacity="1.0" stroke-width="2.0"/>
    <path d="M 421.9716796875 178.1776123046875 C 423.12298583984375 213.70425415039062 381.4969787597656 234.39569091796875 353.7847900390625 207.9878387451172 C 355.3517761230469 214.9342498779297 365.7210998535156 229.46629333496094 361.5480651855469 222.64845275878906 C 350.0740966796875 205.6199951171875 339.779052734375 176.4902801513672 375.50689697265625 199.35333251953125 C 413.61798095703125 206.15835571289062 395.70404052734375 152.2848358154297 421.9716796875 178.1776123046875" fill="rgb(2, 1, 3)" opacity="1.0" stroke-width="2.0"/>
    <path d="M 198.90000915527344 138.45298767089844 C 118.4079360961914 202.2212371826172 248.11988830566406 265.8522644042969 254.01589965820312 174.52359008789062 C 242.25387573242188 123.33110046386719 162.04563903808594 145.41722106933594 358.7208251953125 149.2227325439453 C 372.0859069824219 165.12380981445312 358.479736328125 151.99085998535156 324.9178161621094 124.1657485961914 C 186.8050537109375 83.16290283203125 190.89639282226562 93.76870727539062 198.90000915527344 138.45298767089844" fill="rgb(68, 67, 66)" opacity="1.0" stroke-width="2.0"/>
    <path d="M 410.5364990234375 151.41070556640625 C 431.93280029296875 175.6259307861328 417.9053039550781 193.79359436035156 413.1309509277344 199.743408203125 C 399.010498046875 179.28956604003906 405.373779296875 140.42694091796875 349.5152587890625 171.50840759277344 C 335.2053527832031 161.01516723632812 375.3343505859375 120.38053131103516 410.5364990234375 151.41070556640625" fill="rgb(1, 0, 2)" opacity="1.0" stroke-width="2.0"/>
    <path d="M 261.642578125 -8.298985481262207 C 147.17478942871094 15.60971736907959 103.55921936035156 100.9803237915039 124.4753646850586 119.82585906982422 C 329.24932861328125 104.2068099975586 289.1615905761719 79.53082275390625 307.7838134765625 100.26602172851562 C 269.84210205078125 112.88213348388672 258.5010986328125 95.3876724243164 343.70672607421875 102.71522521972656 C 409.17822265625 171.99453735351562 327.4998779296875 155.76336669921875 99.63855743408203 124.34969329833984 C 326.9032897949219 98.84379577636719 368.2764587402344 95.6633071899414 261.642578125 -8.298985481262207" fill="rgb(251, 222, 109)" opacity="1.0" stroke-width="2.0"/>
    <path d="M 38.12319564819336 163.39614868164062 C 22.174428939819336 215.43206787109375 12.868087768554688 249.0813751220703 31.926441192626953 130.6580810546875 C 42.655235290527344 117.00044250488281 -30.544002532958984 210.61695861816406 13.657177925109863 340.5575866699219 C 40.74961853027344 376.0162658691406 -7.0020904541015625 147.6095428466797 55.56262969970703 98.32283782958984 C 101.05982971191406 25.580890655517578 245.24490356445312 -27.310335159301758 274.4821472167969 17.700031280517578 C 107.03445434570312 19.419044494628906 54.618064880371094 131.13790893554688 38.12319564819336 163.39614868164062" fill="rgb(3, 2, 2)" opacity="1.0" stroke-width="2.0"/>
    <path d="M 353.0908508300781 191.0375213623047 C 372.5342712402344 179.39205932617188 348.88641357421875 182.50808715820312 387.70330810546875 212.07040405273438 C 362.623779296875 232.2925262451172 323.2680358886719 188.18580627441406 352.40924072265625 152.98971557617188 C 420.465087890625 155.46116638183594 354.9798583984375 152.56761169433594 362.641357421875 184.46954345703125 C 414.9745178222656 149.53250122070312 397.8654479980469 161.2429962158203 403.5798645019531 209.07379150390625 C 422.7929382324219 140.9390869140625 400.7174072265625 158.67506408691406 353.0908508300781 191.0375213623047" fill="rgb(1, 0, 1)" opacity="1.0" stroke-width="2.0"/>
    <path d="M 469.1549072265625 106.72167205810547 C 321.4789733886719 -43.7987060546875 271.17181396484375 -33.81105422973633 386.33233642578125 23.56068229675293 C 329.0071716308594 31.636795043945312 299.21087646484375 -41.64298629760742 291.3021240234375 83.0750503540039 C 404.4975280761719 70.66917419433594 546.2615356445312 254.97621154785156 469.1549072265625 106.72167205810547" fill="rgb(166, 151, 79)" opacity="1.0" stroke-width="2.0"/>
  </g>
</svg>
