<?xml version="1.0" ?>
<svg height="512" version="1.1" width="512" xmlns="http://www.w3.org/2000/svg">
  <defs/>
  <g>
    <path d="M 58.828407287597656 47.40708923339844 C 70.15811157226562 53.27190017700195 58.253971099853516 58.21290588378906 49.9691047668457 56.48917007446289 C 37.615013122558594 68.9489517211914 25.21967124938965 72.74562072753906 24.81686782836914 71.81258392333984 C 14.34887981414795 75.28270721435547 21.20221710205078 75.35713195800781 32.93266677856445 68.9520034790039 C 35.223609924316406 79.50843811035156 24.17436981201172 83.99079132080078 58.828407287597656 47.40708923339844" fill="rgb(212, 18, 79)" opacity="1.0" stroke-width="2.0"/>
    <path d="M 128.41700744628906 476.96044921875 C 125.38129425048828 477.75347900390625 113.06907653808594 479.9382629394531 100.41564178466797 470.8194885253906 C 99.90333557128906 467.67913818359375 90.29810333251953 469.9200134277344 81.70326232910156 471.3879089355469 C 70.59904479980469 480.6029052734375 77.53575134277344 492.2837219238281 70.34817504882812 487.2998962402344 C 58.5614013671875 482.02703857421875 66.4056625366211 473.3257141113281 128.41700744628906 476.96044921875" fill="rgb(41, 215, 13)" opacity="1.0" stroke-width="2.0"/>
    <path d="M 252.8802490234375 297.44384765625 C 252.07009887695312 285.7907409667969 263.169189453125 295.26739501953125 265.5870666503906 286.8154296875 C 271.57373046875 287.3133544921875 269.978759765625 281.5581970214844 279.06768798828125 279.4099426269531 C 285.9554748535156 292.5828857421875 275.7934875488281 301.3475646972656 272.6331481933594 309.4692687988281 C 264.4079284667969 301.5586853027344 254.39344787597656 306.66900634765625 252.8802490234375 297.44384765625" fill="rgb(243, 245, 213)" opacity="1.0" stroke-width="2.0"/>
    <path d="M 407.3031921386719 227.69595336914062 C 396.3019104003906 225.0177001953125 384.71795654296875 219.54345703125 372.89666748046875 219.71385192871094 C 362.33917236328125 232.7762908935547 367.3065185546875 228.01976013183594 376.85284423828125 216.9986114501953 C 370.6435852050781 206.06761169433594 368.7591857910156 196.45489501953125 368.0762023925781 201.68374633789062 C 378.0252685546875 201.69659423828125 386.18011474609375 198.1446533203125 407.3031921386719 227.69595336914062" fill="rgb(176, 47, 146)" opacity="1.0" stroke-width="2.0"/>
    <path d="M 272.5892333984375 254.79461669921875 C 279.6022644042969 256.0612487792969 275.34466552734375 246.6571502685547 278.51611328125 257.50018310546875 C 289.2572326660156 246.59317016601562 284.795166015625 235.677490234375 289.2647399902344 239.00364685058594 C 295.872314453125 230.12957763671875 288.6285400390625 228.455322265625 294.6849060058594 219.03775024414062 C 300.9656677246094 216.00274658203125 310.546142578125 227.78179931640625 272.5892333984375 254.79461669921875" fill="rgb(110, 177, 213)" opacity="1.0" stroke-width="2.0"/>
    <path d="M 392.3429260253906 141.35372924804688 C 389.78350830078125 145.0035858154297 390.4434509277344 148.1755828857422 384.6637268066406 142.9957733154297 C 391.3072814941406 142.38165283203125 389.4411926269531 150.94573974609375 380.5973815917969 150.7032470703125 C 377.5396728515625 137.9547882080078 377.03570556640625 130.8202667236328 392.3429260253906 141.35372924804688" fill="rgb(44, 157, 37)" opacity="1.0" stroke-width="2.0"/>
    <path d="M 308.4520263671875 106.47245788574219 C 308.9307556152344 117.34443664550781 305.8633117675781 121.77860260009766 310.6913146972656 127.58000946044922 C 315.7488098144531 133.56619262695312 305.5752868652344 128.26889038085938 313.0982360839844 117.10841369628906 C 303.8838806152344 129.45030212402344 306.13470458984375 141.75843811035156 312.6249694824219 152.47100830078125 C 307.4721374511719 157.22398376464844 303.1376647949219 168.64126586914062 299.8503112792969 162.8137969970703 C 307.8966979980469 157.1571502685547 308.76861572265625 159.76861572265625 308.4520263671875 106.47245788574219" fill="rgb(84, 70, 191)" opacity="1.0" stroke-width="2.0"/>
    <path d="M 62.23932647705078 124.57857513427734 C 58.95069122314453 136.04376220703125 56.25835037231445 138.27792358398438 44.589942932128906 130.8143310546875 C 33.757232666015625 126.02800750732422 30.055389404296875 138.4752197265625 40.48841857910156 147.2982635498047 C 54.194705963134766 141.18853759765625 53.820777893066406 143.21795654296875 47.932037353515625 130.5574951171875 C 58.44606018066406 118.22367095947266 62.61199951171875 128.115478515625 55.692710876464844 126.9413070678711 C 60.4169921875 131.45086669921875 73.00518035888672 141.1361083984375 62.23932647705078 124.57857513427734" fill="rgb(132, 211, 173)" opacity="1.0" stroke-width="2.0"/>
    <path d="M 352.9712219238281 200.29641723632812 C 361.6459045410156 190.796630859375 374.4446105957031 194.4790802001953 377.26129150390625 203.30126953125 C 365.5081787109375 192.2594451904297 362.1573486328125 200.9765167236328 359.8112487792969 189.3173065185547 C 364.6644287109375 184.558349609375 367.8288269042969 176.83477783203125 379.0871276855469 177.3800811767578 C 385.9752197265625 179.67787170410156 398.1922607421875 167.64146423339844 406.0277404785156 176.0412139892578 C 402.1497497558594 169.96279907226562 401.79229736328125 176.4916229248047 352.9712219238281 200.29641723632812" fill="rgb(10, 190, 153)" opacity="1.0" stroke-width="2.0"/>
    <path d="M 326.39984130859375 109.38616943359375 C 320.5954895019531 122.19406127929688 323.6702575683594 128.05972290039062 321.8741455078125 118.66980743408203 C 332.2635803222656 120.63517761230469 320.7237243652344 131.2117919921875 321.8882141113281 133.71676635742188 C 318.6070251464844 133.02162170410156 325.7296142578125 126.2203369140625 326.39984130859375 109.38616943359375" fill="rgb(253, 33, 150)" opacity="1.0" stroke-width="2.0"/>
  </g>
</svg>
