<?xml version="1.0" ?>
<svg height="512" version="1.1" width="512" xmlns="http://www.w3.org/2000/svg">
  <defs/>
  <g>
    <path d="M 55.36065673828125 54.28279113769531 C 55.6558952331543 53.22468948364258 55.7649040222168 53.75572967529297 54.63158416748047 55.090110778808594 C 37.984947204589844 69.58378601074219 33.20677947998047 75.5188217163086 36.02231216430664 73.65912628173828 C 37.622886657714844 73.04264831542969 31.17830467224121 76.03126525878906 39.995243072509766 72.32537841796875 C 37.80875015258789 73.11175537109375 24.23207664489746 81.95555877685547 55.36065673828125 54.28279113769531" fill="rgb(255, 87, 152)" opacity="1.0" stroke-width="2.0"/>
    <path d="M 498.2389221191406 343.669677734375 C 423.4498291015625 522.1121826171875 245.62591552734375 537.0488891601562 147.53594970703125 488.3512878417969 C 35.84830856323242 434.9326171875 35.0238037109375 347.5719299316406 53.943485260009766 450.2079162597656 C 59.87898254394531 476.1979675292969 58.06021499633789 470.2313537597656 44.20515060424805 401.4414978027344 C -38.48456573486328 265.0494689941406 5.803552627563477 260.5899963378906 498.2389221191406 343.669677734375" fill="rgb(3, 2, 2)" opacity="1.0" stroke-width="2.0"/>
    <path d="M 48.03880310058594 368.0896301269531 C -23.159379959106445 213.14295959472656 8.892800331115723 96.39602661132812 148.30076599121094 22.601633071899414 C 427.5680847167969 -9.185221672058105 360.0690612792969 30.30061149597168 508.9560546875 201.56277465820312 C 523.1343383789062 368.5139465332031 481.15484619140625 328.219970703125 422.3283996582031 425.6290283203125 C 287.81689453125 543.7578735351562 116.62189483642578 491.97857666015625 48.03880310058594 368.0896301269531" fill="rgb(247, 214, 107)" opacity="1.0" stroke-width="2.0"/>
    <path d="M 422.064208984375 177.8270263671875 C 423.3528137207031 214.13931274414062 380.70849609375 233.67283630371094 354.322998046875 208.36044311523438 C 356.1258544921875 213.94601440429688 364.699462890625 229.0197296142578 361.269775390625 222.53237915039062 C 351.12841796875 204.53260803222656 339.1903076171875 179.0760955810547 376.16162109375 199.25860595703125 C 413.3856506347656 206.19102478027344 396.6233825683594 151.7162628173828 422.064208984375 177.8270263671875" fill="rgb(2, 1, 3)" opacity="1.0" stroke-width="2.0"/>
    <path d="M 202.06700134277344 139.33216857910156 C 127.10598754882812 180.13015747070312 214.57717895507812 263.42022705078125 251.76133728027344 193.23977661132812 C 268.12274169921875 114.49370574951172 130.90347290039062 150.0571746826172 355.1598815917969 142.08180236816406 C 372.96392822265625 155.21188354492188 359.8512268066406 144.1963653564453 325.21051025390625 125.06353759765625 C 186.60879516601562 84.00050354003906 191.1118621826172 93.90101623535156 202.06700134277344 139.33216857910156" fill="rgb(66, 66, 65)" opacity="1.0" stroke-width="2.0"/>
    <path d="M 410.1571350097656 151.02780151367188 C 431.4537048339844 174.27622985839844 418.8077392578125 197.0107879638672 410.8076171875 201.09219360351562 C 401.0308837890625 180.32167053222656 405.06982421875 140.3168487548828 350.6320495605469 171.01995849609375 C 335.3023986816406 159.1552734375 376.1711730957031 120.89102172851562 410.1571350097656 151.02780151367188" fill="rgb(1, 0, 1)" opacity="1.0" stroke-width="2.0"/>
    <path d="M 253.2913360595703 -2.8122098445892334 C 145.71893310546875 8.618308067321777 101.0368423461914 93.28192901611328 120.71834564208984 125.06085205078125 C 329.4935302734375 103.37506103515625 292.06732177734375 79.68885040283203 310.8153076171875 88.33287048339844 C 270.2617492675781 108.86617279052734 259.350341796875 93.5169677734375 358.8376159667969 73.94831085205078 C 421.0789489746094 173.25779724121094 335.31292724609375 148.22079467773438 96.6969223022461 130.30955505371094 C 353.6222229003906 95.88209533691406 402.8992919921875 74.44342803955078 253.2913360595703 -2.8122098445892334" fill="rgb(252, 222, 108)" opacity="1.0" stroke-width="2.0"/>
    <path d="M 31.36119842529297 183.51141357421875 C 24.848005294799805 214.30482482910156 12.606204986572266 248.30126953125 32.023075103759766 130.35699462890625 C 42.93605422973633 116.38164520263672 -31.12532615661621 211.88197326660156 14.428037643432617 342.6679992675781 C 37.66959762573242 382.7081298828125 -4.362266540527344 141.42042541503906 54.48744583129883 99.86402130126953 C 115.4736099243164 3.394462823867798 288.35028076171875 -22.979026794433594 263.694580078125 19.329618453979492 C 112.19959259033203 20.077796936035156 47.02418899536133 131.5087432861328 31.36119842529297 183.51141357421875" fill="rgb(2, 1, 1)" opacity="1.0" stroke-width="2.0"/>
    <path d="M 353.645751953125 190.39382934570312 C 374.3248291015625 177.91123962402344 346.4281311035156 186.42245483398438 389.05218505859375 208.3011016845703 C 362.4035339355469 234.9654541015625 323.99676513671875 187.56065368652344 351.5674743652344 153.70997619628906 C 420.7443542480469 159.68826293945312 355.8846740722656 149.8910369873047 362.6820373535156 184.5458221435547 C 415.3741455078125 149.34674072265625 398.1064758300781 160.93980407714844 403.3102722167969 209.04217529296875 C 421.5947265625 140.63258361816406 400.8290710449219 158.94635009765625 353.645751953125 190.39382934570312" fill="rgb(1, 1, 2)" opacity="1.0" stroke-width="2.0"/>
    <path d="M 494.2860107421875 144.70167541503906 C 340.836669921875 -44.00444412231445 315.8548278808594 -77.5898666381836 428.427001953125 63.97550582885742 C 361.6481018066406 10.784611701965332 291.26495361328125 -6.836344242095947 317.96087646484375 30.4940242767334 C 487.00872802734375 40.103431701660156 549.1598510742188 437.4026794433594 494.2860107421875 144.70167541503906" fill="rgb(33, 31, 24)" opacity="1.0" stroke-width="2.0"/>
  </g>
</svg>
