<?xml version="1.0" ?>
<svg height="512" version="1.1" width="512" xmlns="http://www.w3.org/2000/svg">
  <defs/>
  <g>
    <path d="M 56.51606369018555 52.23177719116211 C 61.8560905456543 51.4985237121582 54.85030746459961 54.18466567993164 52.610050201416016 55.07421875 C 37.41461944580078 69.00130462646484 25.58726692199707 73.7326889038086 31.405057907104492 75.12969970703125 C 27.149959564208984 69.57208251953125 24.290449142456055 74.02104949951172 39.94559097290039 70.12581634521484 C 31.38015365600586 68.4083023071289 21.68301773071289 81.39094543457031 56.51606369018555 52.23177719116211" fill="rgb(244, 48, 110)" opacity="1.0" stroke-width="2.0"/>
    <path d="M 145.17230224609375 466.808349609375 C 139.76788330078125 480.6551513671875 115.61260986328125 473.0954895019531 95.71114349365234 471.60455322265625 C 98.81643676757812 473.5271301269531 92.10751342773438 473.1913757324219 85.4106216430664 476.44189453125 C 64.03777313232422 478.4660949707031 72.04044342041016 479.5557556152344 79.3980484008789 476.0536193847656 C 66.54562377929688 483.7071838378906 75.15235900878906 471.8251953125 145.17230224609375 466.808349609375" fill="rgb(74, 226, 46)" opacity="1.0" stroke-width="2.0"/>
    <path d="M 233.33673095703125 309.1270751953125 C 231.94163513183594 267.54095458984375 243.08091735839844 277.4290466308594 245.67559814453125 266.8550720214844 C 252.4403533935547 266.78515625 250.6755828857422 260.99774169921875 299.418212890625 259.1293029785156 C 306.6481018066406 312.0089111328125 296.4432067871094 321.6017761230469 288.4691467285156 330.4394836425781 C 243.8486328125 322.46124267578125 234.39480590820312 327.0268249511719 233.33673095703125 309.1270751953125" fill="rgb(253, 224, 159)" opacity="1.0" stroke-width="2.0"/>
    <path d="M 427.2313232421875 207.40573120117188 C 402.5261535644531 214.64483642578125 390.00189208984375 223.7998046875 366.914306640625 219.59031677246094 C 356.5148620605469 230.13592529296875 367.3653259277344 230.12481689453125 363.599853515625 228.67031860351562 C 354.4107666015625 219.78073120117188 352.04541015625 209.12228393554688 362.6656188964844 200.5949249267578 C 396.92547607421875 191.8407440185547 405.839111328125 179.41461181640625 427.2313232421875 207.40573120117188" fill="rgb(124, 65, 94)" opacity="1.0" stroke-width="2.0"/>
    <path d="M 264.3967590332031 247.52304077148438 C 268.1725158691406 242.60638427734375 273.21270751953125 230.8912811279297 276.8534851074219 259.8082275390625 C 297.1310729980469 254.9666748046875 292.3213806152344 247.6551971435547 298.6199951171875 250.85110473632812 C 305.3649597167969 232.3213348388672 295.2486572265625 226.65419006347656 296.6193542480469 207.1696319580078 C 296.6356506347656 208.42449951171875 304.3330078125 222.1143798828125 264.3967590332031 247.52304077148438" fill="rgb(157, 220, 166)" opacity="1.0" stroke-width="2.0"/>
    <path d="M 411.8240661621094 146.0282440185547 C 410.4385070800781 165.25172424316406 404.1669616699219 159.5430908203125 404.7193298339844 159.4617462158203 C 409.15869140625 161.9724884033203 408.4746398925781 166.97218322753906 359.78302001953125 165.6580810546875 C 357.2509765625 142.27333068847656 358.6512145996094 131.80735778808594 411.8240661621094 146.0282440185547" fill="rgb(14, 104, 9)" opacity="1.0" stroke-width="2.0"/>
    <path d="M 305.9739990234375 98.25559997558594 C 304.71923828125 113.8441162109375 304.8642578125 121.99356079101562 311.388671875 131.60800170898438 C 314.3717346191406 145.1170654296875 304.306396484375 129.32298278808594 315.24267578125 114.3980712890625 C 307.2836608886719 135.69593811035156 304.3562927246094 147.97010803222656 308.6439514160156 158.5345916748047 C 308.6247863769531 156.37838745117188 305.7095947265625 167.56863403320312 302.5328369140625 163.9813995361328 C 310.6155700683594 156.908447265625 309.4531555175781 161.53439331054688 305.9739990234375 98.25559997558594" fill="rgb(125, 111, 151)" opacity="1.0" stroke-width="2.0"/>
    <path d="M 72.02885437011719 111.00838470458984 C 67.99656677246094 149.62893676757812 58.81803894042969 144.11167907714844 42.7368049621582 119.92347717285156 C 24.59208869934082 116.5263900756836 14.190971374511719 155.76329040527344 20.62013053894043 168.09600830078125 C 72.19197082519531 161.42718505859375 64.10073852539062 144.7227020263672 35.92053985595703 111.80508422851562 C 46.12163543701172 97.49593353271484 82.79756927490234 108.04686737060547 71.25428009033203 110.56954193115234 C 63.19749069213867 139.4966278076172 84.13532257080078 148.9301300048828 72.02885437011719 111.00838470458984" fill="rgb(84, 157, 119)" opacity="1.0" stroke-width="2.0"/>
    <path d="M 337.68133544921875 194.6112060546875 C 358.126708984375 184.77992248535156 381.8613586425781 186.16102600097656 364.9891052246094 213.76878356933594 C 347.2439880371094 209.9601287841797 342.24053955078125 219.40670776367188 340.4261779785156 175.19174194335938 C 374.61273193359375 179.45257568359375 376.9761657714844 184.3122100830078 378.5349426269531 179.64138793945312 C 380.8614196777344 177.1820831298828 385.4137878417969 173.1365509033203 423.3393249511719 185.65672302246094 C 414.19158935546875 158.25770568847656 400.9341125488281 171.49679565429688 337.68133544921875 194.6112060546875" fill="rgb(36, 152, 126)" opacity="1.0" stroke-width="2.0"/>
    <path d="M 326.152587890625 101.16714477539062 C 322.2763366699219 126.67750549316406 322.5649719238281 132.78433227539062 322.7564697265625 107.8287124633789 C 331.555419921875 115.72120666503906 315.90716552734375 126.67648315429688 323.3147888183594 133.34170532226562 C 323.6082763671875 146.92713928222656 328.95098876953125 133.86276245117188 326.152587890625 101.16714477539062" fill="rgb(255, 84, 103)" opacity="1.0" stroke-width="2.0"/>
  </g>
</svg>
