<?xml version="1.0" ?>
<svg height="512" version="1.1" width="512" xmlns="http://www.w3.org/2000/svg">
  <defs/>
  <g>
    <path d="M 55.697635650634766 53.98691940307617 C 57.95004653930664 52.59282302856445 55.47910690307617 53.85309982299805 54.31184005737305 55.29362869262695 C 38.185909271240234 69.64605712890625 32.61237335205078 74.92073822021484 34.26508331298828 72.99755096435547 C 36.80587387084961 69.00931549072266 31.615467071533203 76.27104949951172 37.44312286376953 69.42118072509766 C 34.62480163574219 72.82454681396484 23.86330223083496 82.55320739746094 55.697635650634766 53.98691940307617" fill="rgb(255, 70, 133)" opacity="1.0" stroke-width="2.0"/>
    <path d="M 356.9998474121094 394.12127685546875 C 356.02984619140625 565.732421875 272.547119140625 534.4423828125 136.0968017578125 484.51507568359375 C 22.700159072875977 413.3143310546875 44.693824768066406 364.31744384765625 56.61538314819336 444.97998046875 C 63.36200714111328 479.1058044433594 61.37944793701172 469.3644714355469 51.01765441894531 414.6412048339844 C -24.980636596679688 277.8577575683594 -29.06052589416504 282.40350341796875 356.9998474121094 394.12127685546875" fill="rgb(14, 13, 12)" opacity="1.0" stroke-width="2.0"/>
    <path d="M 43.918357849121094 363.96380615234375 C -19.517492294311523 195.09063720703125 10.577768325805664 106.02043151855469 131.67276000976562 41.9018669128418 C 309.60357666015625 122.06033325195312 212.60177612304688 146.93141174316406 524.2516479492188 125.51678466796875 C 515.5877685546875 392.0167236328125 475.9459228515625 396.6801452636719 386.59954833984375 485.1943664550781 C 177.35324096679688 502.930419921875 127.3265380859375 482.2267150878906 43.918357849121094 363.96380615234375" fill="rgb(236, 205, 104)" opacity="1.0" stroke-width="2.0"/>
    <path d="M 421.9576416015625 178.76918029785156 C 423.2048645019531 212.74761962890625 381.68927001953125 235.16427612304688 353.2976989746094 207.39218139648438 C 354.8620300292969 214.7316131591797 366.62225341796875 229.8695526123047 361.6568298339844 223.05764770507812 C 349.7245788574219 206.9095458984375 340.68487548828125 175.1572265625 374.83740234375 199.29379272460938 C 414.472900390625 206.4385986328125 394.1941833496094 152.85084533691406 421.9576416015625 178.76918029785156" fill="rgb(2, 1, 3)" opacity="1.0" stroke-width="2.0"/>
    <path d="M 188.5338897705078 140.34262084960938 C 132.00965881347656 227.78712463378906 254.91546630859375 246.92835998535156 252.78994750976562 177.37545776367188 C 248.7014617919922 136.54779052734375 239.32351684570312 138.9368133544922 360.3296813964844 153.3158721923828 C 371.33038330078125 172.3530731201172 357.0843811035156 158.781494140625 324.1016540527344 124.21894836425781 C 186.62908935546875 83.04261016845703 188.70361328125 93.80170440673828 188.5338897705078 140.34262084960938" fill="rgb(74, 72, 67)" opacity="1.0" stroke-width="2.0"/>
    <path d="M 410.79376220703125 151.6934356689453 C 431.9847717285156 177.17881774902344 417.5203857421875 191.28811645507812 412.87158203125 198.84298706054688 C 398.3101806640625 178.92489624023438 406.5599670410156 140.99826049804688 347.9715576171875 171.3076171875 C 335.81298828125 162.66714477539062 373.95562744140625 119.18215942382812 410.79376220703125 151.6934356689453" fill="rgb(1, 0, 2)" opacity="1.0" stroke-width="2.0"/>
    <path d="M 243.2926025390625 -20.946575164794922 C 149.0537567138672 7.278448104858398 109.91328430175781 118.91775512695312 130.8953094482422 115.49015045166016 C 332.2398986816406 105.91445922851562 290.0912780761719 85.38642120361328 307.18927001953125 105.07381439208984 C 269.7668762207031 119.26033782958984 258.28350830078125 116.82308959960938 334.6824035644531 131.14073181152344 C 401.42755126953125 158.58206176757812 319.9244384765625 167.04246520996094 104.3359375 119.0479507446289 C 322.8493957519531 100.1052017211914 355.3055725097656 113.50112915039062 243.2926025390625 -20.946575164794922" fill="rgb(249, 220, 108)" opacity="1.0" stroke-width="2.0"/>
    <path d="M 51.208126068115234 133.4493865966797 C 18.279281616210938 219.79151916503906 11.596014976501465 238.63375854492188 35.54667282104492 119.8651123046875 C 43.89621353149414 119.96435546875 -30.084720611572266 204.59536743164062 12.963958740234375 338.7914123535156 C 44.18474578857422 367.36700439453125 -9.508450508117676 166.30224609375 54.542266845703125 97.6900863647461 C 97.66199493408203 35.42019271850586 219.5076904296875 -25.405330657958984 279.45947265625 13.89098072052002 C 90.61492919921875 29.019906997680664 69.3008804321289 127.78784942626953 51.208126068115234 133.4493865966797" fill="rgb(4, 3, 3)" opacity="1.0" stroke-width="2.0"/>
    <path d="M 352.5132751464844 191.706787109375 C 371.2249450683594 180.4710235595703 350.91278076171875 180.02978515625 385.3210754394531 215.49424743652344 C 363.7327880859375 229.33071899414062 322.46832275390625 188.96534729003906 353.020751953125 152.3879852294922 C 419.3551025390625 151.259033203125 354.1036682128906 155.51588439941406 362.6875305175781 184.34246826171875 C 413.4548034667969 150.4476318359375 395.4549255371094 161.74014282226562 406.75091552734375 209.12767028808594 C 423.7688293457031 141.30914306640625 400.22021484375 158.2251434326172 352.5132751464844 191.706787109375" fill="rgb(1, 0, 1)" opacity="1.0" stroke-width="2.0"/>
    <path d="M 465.7678527832031 95.70706176757812 C 293.7416687011719 -45.312255859375 279.001953125 -16.79496192932129 360.3068542480469 12.392877578735352 C 318.0126953125 14.194565773010254 214.36033630371094 -24.166852951049805 248.44239807128906 165.86260986328125 C 379.6182861328125 76.5273666381836 513.7388305664062 206.7367401123047 465.7678527832031 95.70706176757812" fill="rgb(212, 188, 96)" opacity="1.0" stroke-width="2.0"/>
  </g>
</svg>
