<?xml version="1.0" ?>
<svg height="512" version="1.1" width="512" xmlns="http://www.w3.org/2000/svg">
  <defs/>
  <g>
    <path d="M 55.44955825805664 53.56824493408203 C 58.45549774169922 51.55122756958008 55.5361442565918 53.24656295776367 54.00089645385742 54.79386520385742 C 36.924598693847656 68.58683776855469 30.108665466308594 73.66551971435547 30.524547576904297 72.81591033935547 C 38.21234130859375 68.00469207763672 27.549158096313477 73.80643463134766 36.26377868652344 69.14663696289062 C 30.329933166503906 71.94590759277344 21.436023712158203 81.25421905517578 55.44955825805664 53.56824493408203" fill="rgb(255, 63, 124)" opacity="1.0" stroke-width="2.0"/>
    <path d="M 222.22998046875 418.6976013183594 C 239.45738220214844 546.9827880859375 193.2273406982422 516.7420654296875 88.59843444824219 454.7096252441406 C 58.77739334106445 409.2771911621094 46.452049255371094 433.02203369140625 68.64277648925781 458.5209045410156 C 77.6810073852539 476.91015625 75.82568359375 471.34197998046875 72.29914093017578 466.22088623046875 C 54.16168212890625 431.4883728027344 10.438297271728516 398.3694763183594 222.22998046875 418.6976013183594" fill="rgb(169, 135, 74)" opacity="1.0" stroke-width="2.0"/>
    <path d="M 138.54220581054688 411.0727844238281 C 132.00680541992188 194.99867248535156 142.2692413330078 197.18936157226562 158.48220825195312 186.17111206054688 C 208.1267852783203 199.145263671875 216.18893432617188 212.33010864257812 394.2822265625 211.40103149414062 C 400.16326904296875 394.86920166015625 389.9386901855469 402.1548156738281 383.39306640625 427.9765319824219 C 168.03219604492188 420.9066467285156 159.07177734375 424.6874694824219 138.54220581054688 411.0727844238281" fill="rgb(253, 223, 109)" opacity="1.0" stroke-width="2.0"/>
    <path d="M 422.33636474609375 182.40931701660156 C 420.064697265625 210.3455352783203 387.8132019042969 234.22044372558594 354.0542907714844 209.5398406982422 C 353.97607421875 216.74046325683594 368.7751770019531 232.0290985107422 364.40692138671875 227.46363830566406 C 353.24957275390625 214.44839477539062 347.2261657714844 188.389892578125 380.8925476074219 200.13882446289062 C 406.6352844238281 200.70021057128906 407.32708740234375 155.4893798828125 422.33636474609375 182.40931701660156" fill="rgb(8, 3, 2)" opacity="1.0" stroke-width="2.0"/>
    <path d="M 161.527099609375 170.4658203125 C 180.5760498046875 263.8826904296875 230.48118591308594 231.99879455566406 254.3594207763672 231.7325439453125 C 295.09912109375 225.8833770751953 295.626708984375 218.75885009765625 360.93115234375 226.57345581054688 C 371.3034362792969 176.77639770507812 355.35198974609375 166.01571655273438 329.7753601074219 135.94351196289062 C 208.91920471191406 108.46625518798828 209.13612365722656 120.55313873291016 161.527099609375 170.4658203125" fill="rgb(189, 159, 89)" opacity="1.0" stroke-width="2.0"/>
    <path d="M 412.7269592285156 153.07545471191406 C 430.7702941894531 180.05718994140625 417.77093505859375 184.0790252685547 420.5872802734375 195.60398864746094 C 412.74444580078125 181.65426635742188 409.27581787109375 146.74371337890625 340.3055725097656 165.6156768798828 C 342.6625061035156 165.31268310546875 372.1770935058594 116.51028442382812 412.7269592285156 153.07545471191406" fill="rgb(3, 2, 2)" opacity="1.0" stroke-width="2.0"/>
    <path d="M 295.14788818359375 -3.7023658752441406 C 225.64332580566406 44.118934631347656 229.8433837890625 117.17219543457031 275.1025695800781 132.3216552734375 C 307.7818603515625 151.00125122070312 289.54052734375 108.13717651367188 307.3183898925781 106.47454833984375 C 270.4960632324219 119.04312133789062 259.02117919921875 117.78465270996094 286.9424133300781 161.2269287109375 C 321.3286437988281 173.8802947998047 301.78009033203125 203.03143310546875 226.19302368164062 115.12903594970703 C 304.29547119140625 99.26773071289062 337.7474060058594 112.50411224365234 295.14788818359375 -3.7023658752441406" fill="rgb(253, 226, 115)" opacity="1.0" stroke-width="2.0"/>
    <path d="M 69.9251480102539 110.09432220458984 C 28.813772201538086 173.27865600585938 37.748748779296875 174.49185180664062 49.19508743286133 103.63976287841797 C 36.13660430908203 124.55184936523438 3.9891610145568848 165.04042053222656 -0.1080038845539093 245.41354370117188 C 37.566978454589844 234.31495666503906 37.407371520996094 142.20455932617188 52.13688659667969 97.41679382324219 C 108.3930892944336 43.17987823486328 121.74885559082031 24.426002502441406 165.35812377929688 31.205726623535156 C 44.2052001953125 117.67323303222656 80.4693832397461 109.09110260009766 69.9251480102539 110.09432220458984" fill="rgb(7, 9, 4)" opacity="1.0" stroke-width="2.0"/>
    <path d="M 349.6547546386719 192.2783966064453 C 368.9066162109375 181.58168029785156 358.2431945800781 181.4468994140625 382.3027648925781 220.51417541503906 C 358.63287353515625 211.35162353515625 336.9277648925781 214.55657958984375 345.0419006347656 152.4240264892578 C 402.9508972167969 146.0315399169922 347.83453369140625 175.27426147460938 365.45513916015625 183.63214111328125 C 412.8517150878906 150.0188446044922 391.75567626953125 168.620361328125 411.75262451171875 205.98423767089844 C 422.10589599609375 136.43267822265625 406.9544982910156 159.66207885742188 349.6547546386719 192.2783966064453" fill="rgb(0, 1, 0)" opacity="1.0" stroke-width="2.0"/>
    <path d="M 400.92999267578125 3.883439540863037 C 255.4910125732422 41.65773010253906 283.36322021484375 59.04841613769531 315.3964538574219 16.35188865661621 C 322.6487731933594 49.40839385986328 248.09072875976562 61.93913650512695 253.17166137695312 179.3979034423828 C 352.39263916015625 176.86892700195312 394.4219055175781 155.7923583984375 400.92999267578125 3.883439540863037" fill="rgb(234, 204, 109)" opacity="1.0" stroke-width="2.0"/>
  </g>
</svg>
