<?xml version="1.0" ?>
<svg height="512" version="1.1" width="512" xmlns="http://www.w3.org/2000/svg">
  <defs/>
  <g>
    <path d="M 55.500370025634766 53.94670867919922 C 57.487281799316406 52.762237548828125 55.501502990722656 53.95833969116211 54.22450256347656 55.22606658935547 C 38.257537841796875 69.81185150146484 32.64115524291992 75.52549743652344 35.33601379394531 74.15168762207031 C 39.9149055480957 71.88452911376953 32.19542694091797 76.71430206298828 39.967498779296875 70.92242431640625 C 36.86625671386719 73.39924621582031 24.050949096679688 82.38895416259766 55.500370025634766 53.94670867919922" fill="rgb(255, 74, 137)" opacity="1.0" stroke-width="2.0"/>
    <path d="M 404.8096923828125 406.3863830566406 C 387.5172424316406 530.1942749023438 245.6081085205078 528.7151489257812 149.2303466796875 490.4284362792969 C 24.819812774658203 424.68890380859375 41.915740966796875 354.6173095703125 54.212684631347656 445.48577880859375 C 60.52617263793945 478.5986022949219 58.85417938232422 470.6788024902344 47.67409896850586 407.72161865234375 C -31.756216049194336 271.9344787597656 -12.217428207397461 272.6177062988281 404.8096923828125 406.3863830566406" fill="rgb(6, 5, 4)" opacity="1.0" stroke-width="2.0"/>
    <path d="M 47.66748046875 369.4186706542969 C -22.834692001342773 208.71859741210938 9.280733108520508 103.17036437988281 135.44207763671875 33.63802719116211 C 324.78753662109375 93.9593505859375 259.3653869628906 103.1554946899414 527.3438110351562 150.27813720703125 C 515.9448852539062 360.6926574707031 475.34637451171875 414.3299560546875 390.9201354980469 474.21380615234375 C 209.40272521972656 513.1140747070312 124.88262176513672 485.0557556152344 47.66748046875 369.4186706542969" fill="rgb(238, 206, 104)" opacity="1.0" stroke-width="2.0"/>
    <path d="M 422.1311950683594 178.35055541992188 C 423.41546630859375 213.3961639404297 381.477294921875 234.34585571289062 353.679931640625 207.8944091796875 C 355.6050720214844 214.6426239013672 366.1929626464844 229.41163635253906 361.68170166015625 222.69703674316406 C 349.9989929199219 205.80035400390625 339.9493103027344 176.10604858398438 375.2597351074219 199.1231231689453 C 413.90362548828125 206.06068420410156 395.507080078125 152.40550231933594 422.1311950683594 178.35055541992188" fill="rgb(2, 1, 2)" opacity="1.0" stroke-width="2.0"/>
    <path d="M 197.81817626953125 138.8746795654297 C 118.2710952758789 204.89234924316406 252.4466094970703 266.0393981933594 253.8135986328125 171.11102294921875 C 234.84437561035156 124.25215148925781 173.67803955078125 141.7427520751953 359.1553649902344 150.32196044921875 C 371.8978271484375 166.98519897460938 358.160888671875 153.59539794921875 324.8136901855469 124.04393768310547 C 186.81776428222656 83.0737533569336 190.7925262451172 93.76235961914062 197.81817626953125 138.8746795654297" fill="rgb(68, 67, 66)" opacity="1.0" stroke-width="2.0"/>
    <path d="M 410.43341064453125 151.46493530273438 C 431.82977294921875 175.8166046142578 417.4629211425781 193.2649688720703 413.1471862792969 199.57159423828125 C 398.5745544433594 179.1997528076172 405.3719177246094 140.49462890625 349.1859436035156 171.50885009765625 C 335.0533447265625 161.11590576171875 375.1076965332031 119.9781265258789 410.43341064453125 151.46493530273438" fill="rgb(1, 0, 1)" opacity="1.0" stroke-width="2.0"/>
    <path d="M 255.77847290039062 -5.502996444702148 C 147.70721435546875 15.967711448669434 104.4627914428711 104.136474609375 125.67281341552734 118.70994567871094 C 331.254150390625 105.4609146118164 289.8171691894531 83.05516052246094 307.17864990234375 104.50933837890625 C 269.77716064453125 117.05958557128906 258.375244140625 105.3816146850586 340.1932678222656 112.2367172241211 C 406.0189514160156 169.0320587158203 325.3276062011719 157.7853546142578 100.46064758300781 123.26033782958984 C 324.1064453125 98.68865203857422 360.3170471191406 106.08291625976562 255.77847290039062 -5.502996444702148" fill="rgb(251, 222, 108)" opacity="1.0" stroke-width="2.0"/>
    <path d="M 40.155433654785156 158.56825256347656 C 21.43402862548828 216.14608764648438 12.887072563171387 247.24896240234375 32.489173889160156 129.16860961914062 C 42.83646774291992 117.56600189208984 -30.441679000854492 210.97039794921875 13.48379898071289 340.1072082519531 C 40.520198822021484 374.79461669921875 -6.892366409301758 149.2321014404297 55.45353698730469 97.8598861694336 C 100.3560562133789 27.999046325683594 240.41001892089844 -27.976192474365234 276.9842224121094 17.592073440551758 C 106.54469299316406 18.955156326293945 56.01818084716797 131.32920837402344 40.155433654785156 158.56825256347656" fill="rgb(3, 2, 2)" opacity="1.0" stroke-width="2.0"/>
    <path d="M 352.9351501464844 191.0982666015625 C 372.278076171875 179.41864013671875 349.15216064453125 181.96519470214844 386.9795837402344 213.26329040527344 C 363.2489318847656 231.746826171875 323.4181213378906 187.86358642578125 352.5071105957031 152.8919677734375 C 420.37322998046875 154.76695251464844 354.72808837890625 153.25563049316406 362.7181091308594 184.3469696044922 C 414.781005859375 149.57774353027344 397.5792541503906 161.33201599121094 403.7286376953125 209.06918334960938 C 422.9494934082031 140.94322204589844 400.69677734375 158.61839294433594 352.9351501464844 191.0982666015625" fill="rgb(1, 1, 2)" opacity="1.0" stroke-width="2.0"/>
    <path d="M 468.9862365722656 105.19886016845703 C 315.62200927734375 -45.338985443115234 268.8179016113281 -25.694284439086914 377.0289001464844 20.296449661254883 C 322.9625549316406 23.23668098449707 274.5626220703125 -40.14631271362305 263.2633361816406 113.69953918457031 C 394.7061767578125 75.40419006347656 538.7672729492188 238.680908203125 468.9862365722656 105.19886016845703" fill="rgb(192, 171, 88)" opacity="1.0" stroke-width="2.0"/>
  </g>
</svg>
