<?xml version="1.0" ?>
<svg height="512" version="1.1" width="512" xmlns="http://www.w3.org/2000/svg">
  <defs/>
  <g>
    <path d="M 55.54777145385742 54.22438430786133 C 56.26371765136719 53.21629333496094 55.52710723876953 54.10628128051758 54.377960205078125 55.142051696777344 C 38.19561767578125 69.80811309814453 32.90183639526367 75.43994903564453 36.4254035949707 73.71146392822266 C 37.83342742919922 72.7132568359375 31.290212631225586 76.71609497070312 39.748722076416016 72.21727752685547 C 37.78920364379883 72.83995819091797 24.567121505737305 82.2640380859375 55.54777145385742 54.22438430786133" fill="rgb(255, 85, 150)" opacity="1.0" stroke-width="2.0"/>
    <path d="M 493.66705322265625 355.05743408203125 C 415.83441162109375 520.7717895507812 247.0663604736328 536.8123779296875 147.69956970214844 488.7045593261719 C 34.9366340637207 434.3446350097656 35.291969299316406 347.83355712890625 53.8028678894043 449.8313903808594 C 59.38447570800781 476.5267333984375 57.96921920776367 470.2801208496094 44.31031036376953 401.72283935546875 C -38.087669372558594 265.8008117675781 4.589161396026611 261.7889099121094 493.66705322265625 355.05743408203125" fill="rgb(3, 2, 2)" opacity="1.0" stroke-width="2.0"/>
    <path d="M 48.60956954956055 369.3313903808594 C -23.493520736694336 213.81817626953125 8.706368446350098 96.20258331298828 148.30393981933594 22.762393951416016 C 428.7629089355469 -8.828804969787598 355.5981140136719 30.726346969604492 511.3323059082031 199.45053100585938 C 520.6226196289062 384.9100341796875 474.4363098144531 338.4692077636719 416.5394287109375 430.9273681640625 C 283.1958923339844 541.1907958984375 116.77360534667969 491.00335693359375 48.60956954956055 369.3313903808594" fill="rgb(246, 213, 107)" opacity="1.0" stroke-width="2.0"/>
    <path d="M 422.30255126953125 177.78990173339844 C 423.2558288574219 214.26976013183594 380.9408874511719 233.8003692626953 354.0457763671875 208.41629028320312 C 356.2798767089844 213.7548065185547 364.9540710449219 228.88426208496094 361.2272033691406 222.61602783203125 C 350.98876953125 204.70123291015625 339.2987976074219 178.6385955810547 375.7853088378906 199.23785400390625 C 413.0627136230469 206.1429443359375 396.3568420410156 151.74203491210938 422.30255126953125 177.78990173339844" fill="rgb(2, 1, 3)" opacity="1.0" stroke-width="2.0"/>
    <path d="M 201.5642852783203 139.34689331054688 C 126.078125 182.69151306152344 218.04995727539062 263.9795837402344 252.42950439453125 191.36007690429688 C 265.0002136230469 115.24382781982422 134.79342651367188 150.278564453125 355.7615966796875 143.1341094970703 C 372.9404602050781 155.72776794433594 359.8442077636719 144.3418731689453 325.2530212402344 124.87406921386719 C 186.6372833251953 83.87071990966797 191.07203674316406 93.88276672363281 201.5642852783203 139.34689331054688" fill="rgb(66, 66, 65)" opacity="1.0" stroke-width="2.0"/>
    <path d="M 410.093017578125 151.1778106689453 C 431.54510498046875 174.45480346679688 418.7437438964844 196.59921264648438 411.2889099121094 200.9240264892578 C 400.7275695800781 180.1906280517578 405.0478515625 140.33018493652344 350.4663391113281 171.10336303710938 C 335.19940185546875 159.42835998535156 376.22979736328125 120.85274505615234 410.093017578125 151.1778106689453" fill="rgb(1, 0, 1)" opacity="1.0" stroke-width="2.0"/>
    <path d="M 252.7498016357422 -2.6554112434387207 C 145.7014617919922 8.148755073547363 101.1672134399414 93.25881958007812 120.98626708984375 124.39417266845703 C 329.0776062011719 103.2509994506836 291.69366455078125 79.13639068603516 310.5787658691406 88.37264251708984 C 270.10919189453125 107.62745666503906 259.15753173828125 90.99292755126953 357.1442565917969 75.75020599365234 C 419.64093017578125 174.5182647705078 334.5432434082031 149.04576110839844 97.18482208251953 129.30958557128906 C 353.6719665527344 96.34651184082031 403.2295227050781 73.24700164794922 252.7498016357422 -2.6554112434387207" fill="rgb(252, 222, 109)" opacity="1.0" stroke-width="2.0"/>
    <path d="M 31.99934196472168 180.94139099121094 C 24.543323516845703 213.5905303955078 12.357813835144043 249.09005737304688 32.10395431518555 130.4333953857422 C 42.910064697265625 116.6436996459961 -31.136943817138672 211.6705322265625 14.302291870117188 342.41571044921875 C 38.72738265991211 381.7852783203125 -5.35811710357666 142.0352325439453 54.820045471191406 99.73091888427734 C 112.28327178955078 7.50177001953125 282.48406982421875 -24.275346755981445 265.18878173828125 19.245237350463867 C 111.53425598144531 19.727659225463867 47.58938217163086 131.48435974121094 31.99934196472168 180.94139099121094" fill="rgb(2, 1, 1)" opacity="1.0" stroke-width="2.0"/>
    <path d="M 353.60498046875 190.48306274414062 C 374.0741882324219 178.07247924804688 346.5697937011719 186.13079833984375 388.76922607421875 209.00592041015625 C 362.46600341796875 234.51600646972656 323.85174560546875 187.52015686035156 351.8681335449219 153.85415649414062 C 420.6825866699219 158.81983947753906 356.16595458984375 149.97207641601562 362.6235046386719 184.59999084472656 C 415.18701171875 149.24838256835938 398.0247497558594 160.93588256835938 403.2637023925781 209.03793334960938 C 421.7955017089844 140.6792449951172 400.8563232421875 158.93716430664062 353.60498046875 190.48306274414062" fill="rgb(1, 1, 2)" opacity="1.0" stroke-width="2.0"/>
    <path d="M 490.0343017578125 136.76101684570312 C 337.1830139160156 -40.96016311645508 310.1988830566406 -74.99341583251953 423.4010925292969 58.86810302734375 C 359.65435791015625 11.920891761779785 293.4565734863281 -6.632462024688721 316.8883972167969 29.982559204101562 C 476.022216796875 35.99296951293945 554.7828979492188 418.77630615234375 490.0343017578125 136.76101684570312" fill="rgb(33, 31, 23)" opacity="1.0" stroke-width="2.0"/>
  </g>
</svg>
