<?xml version="1.0" ?>
<svg height="512" version="1.1" width="512" xmlns="http://www.w3.org/2000/svg">
  <defs/>
  <g>
    <path d="M 55.452064514160156 53.7364501953125 C 58.26779556274414 52.12080383300781 55.617042541503906 53.584938049316406 54.069793701171875 54.9118766784668 C 36.559715270996094 68.16365051269531 30.13334846496582 73.23851013183594 31.565532684326172 72.31705474853516 C 37.134910583496094 69.29524993896484 28.283443450927734 74.56268310546875 36.5828857421875 69.01487731933594 C 31.712486267089844 72.54998016357422 20.74712371826172 80.11369323730469 55.452064514160156 53.7364501953125" fill="rgb(255, 66, 128)" opacity="1.0" stroke-width="2.0"/>
    <path d="M 313.453369140625 406.4638366699219 C 327.6051330566406 580.4561767578125 266.22308349609375 535.6384887695312 117.1314697265625 474.7021484375 C 24.972471237182617 396.4341735839844 49.47714614868164 396.4019775390625 67.44366455078125 446.00250244140625 C 84.10110473632812 472.0459289550781 74.2042465209961 460.162109375 56.08929443359375 421.055419921875 C 3.527750015258789 320.0947265625 -53.927886962890625 321.81719970703125 313.453369140625 406.4638366699219" fill="rgb(14, 7, 11)" opacity="1.0" stroke-width="2.0"/>
    <path d="M 51.09774398803711 391.9747009277344 C 21.26433753967285 130.88502502441406 32.4955940246582 98.31597900390625 97.81694030761719 75.0891342163086 C 279.0018005371094 151.61892700195312 231.17648315429688 179.3460693359375 507.4601745605469 135.93157958984375 C 510.2021484375 440.4854431152344 480.2623596191406 412.2152404785156 420.8330383300781 495.7223205566406 C 132.6353302001953 497.3730773925781 166.1146697998047 478.26922607421875 51.09774398803711 391.9747009277344" fill="rgb(236, 206, 107)" opacity="1.0" stroke-width="2.0"/>
    <path d="M 422.0778503417969 180.187744140625 C 422.4469299316406 211.48468017578125 383.7219543457031 234.94703674316406 353.6502685546875 208.257080078125 C 354.1162414550781 214.76910400390625 367.51568603515625 230.79759216308594 362.1535339355469 223.3960418701172 C 350.0177001953125 209.31515502929688 341.52752685546875 179.94094848632812 376.15301513671875 199.36544799804688 C 411.4606018066406 206.53736877441406 397.5204772949219 153.43898010253906 422.0778503417969 180.187744140625" fill="rgb(3, 1, 2)" opacity="1.0" stroke-width="2.0"/>
    <path d="M 158.77101135253906 135.0718231201172 C 182.876220703125 259.5902099609375 233.1814422607422 224.22291564941406 255.4264678955078 190.35386657714844 C 250.91073608398438 162.78636169433594 292.05316162109375 158.8643035888672 360.68634033203125 164.03085327148438 C 370.3879089355469 179.68887329101562 355.11602783203125 167.30746459960938 322.21453857421875 125.16787719726562 C 185.71873474121094 82.87931823730469 182.42562866210938 92.2352066040039 158.77101135253906 135.0718231201172" fill="rgb(112, 99, 75)" opacity="1.0" stroke-width="2.0"/>
    <path d="M 411.8132629394531 152.44244384765625 C 431.0511169433594 179.0182647705078 417.3271484375 189.66802978515625 414.91455078125 196.87490844726562 C 404.2381591796875 180.2906951904297 407.02825927734375 142.71746826171875 346.6754455566406 168.98733520507812 C 340.5999755859375 164.64756774902344 370.9636535644531 116.97108459472656 411.8132629394531 152.44244384765625" fill="rgb(2, 1, 2)" opacity="1.0" stroke-width="2.0"/>
    <path d="M 239.67279052734375 -44.60483932495117 C 150.4408721923828 -14.894755363464355 129.7071990966797 115.91875457763672 158.62313842773438 102.96910858154297 C 331.42498779296875 103.85177612304688 290.4102783203125 96.97207641601562 307.23345947265625 106.72488403320312 C 269.76739501953125 119.2602310180664 258.28289794921875 116.85365295410156 340.0964050292969 129.57977294921875 C 400.1128845214844 170.41932678222656 315.4533996582031 195.38648986816406 128.04885864257812 101.43383026123047 C 320.9305725097656 110.2551040649414 359.4878845214844 98.61871337890625 239.67279052734375 -44.60483932495117" fill="rgb(237, 209, 107)" opacity="1.0" stroke-width="2.0"/>
    <path d="M 61.812835693359375 115.89777374267578 C 24.261159896850586 198.05889892578125 19.541183471679688 210.18838500976562 42.795005798339844 108.65727233886719 C 43.02630615234375 122.97630310058594 -18.299341201782227 182.3424835205078 5.084090232849121 311.2987365722656 C 39.902183532714844 323.7587585449219 8.703644752502441 147.90802001953125 53.9544677734375 98.2621841430664 C 96.76509857177734 39.05668258666992 196.27151489257812 -12.985248565673828 249.17076110839844 8.852147102355957 C 45.14820861816406 74.68762969970703 93.55337524414062 114.70954132080078 61.812835693359375 115.89777374267578" fill="rgb(12, 9, 6)" opacity="1.0" stroke-width="2.0"/>
    <path d="M 351.9455871582031 191.97312927246094 C 370.4700622558594 180.74044799804688 350.8963623046875 178.6813507080078 387.5679016113281 220.1057891845703 C 363.5686950683594 215.59567260742188 322.85345458984375 199.08706665039062 352.19464111328125 151.77186584472656 C 417.1132507324219 148.6611328125 351.96551513671875 159.8719482421875 363.09112548828125 184.07955932617188 C 410.88861083984375 150.60208129882812 393.1224670410156 163.54501342773438 410.86474609375 208.31838989257812 C 424.1852722167969 140.38595581054688 400.8913879394531 158.0338134765625 351.9455871582031 191.97312927246094" fill="rgb(2, 2, 3)" opacity="1.0" stroke-width="2.0"/>
    <path d="M 459.2954406738281 62.511627197265625 C 254.91342163085938 -19.07269859313965 269.2959289550781 -0.9577256441116333 342.0589599609375 14.080202102661133 C 307.13037109375 14.008576393127441 191.8418731689453 -24.198490142822266 255.36141967773438 182.84786987304688 C 359.6062316894531 108.10332489013672 477.9343566894531 179.53860473632812 459.2954406738281 62.511627197265625" fill="rgb(223, 198, 103)" opacity="1.0" stroke-width="2.0"/>
  </g>
</svg>
