<?xml version="1.0" ?>
<svg height="512" version="1.1" width="512" xmlns="http://www.w3.org/2000/svg">
  <defs/>
  <g>
    <path d="M 55.36139678955078 53.57160186767578 C 58.3886604309082 51.91758728027344 55.76738739013672 53.492393493652344 54.051361083984375 54.82583999633789 C 36.750732421875 68.37487030029297 29.843629837036133 73.15909576416016 31.125505447387695 72.42140197753906 C 37.501502990722656 68.68888854980469 27.785045623779297 74.08876037597656 35.98457336425781 68.756103515625 C 30.78292465209961 72.13900756835938 21.120384216308594 80.70513916015625 55.36139678955078 53.57160186767578" fill="rgb(255, 64, 126)" opacity="1.0" stroke-width="2.0"/>
    <path d="M 267.48876953125 406.9902038574219 C 282.10675048828125 565.8309936523438 227.2239990234375 530.9410400390625 97.3053970336914 461.3512268066406 C 34.218807220458984 394.68231201171875 47.32423400878906 406.0572509765625 75.3853530883789 447.1022033691406 C 76.3050308227539 476.1575012207031 81.7529067993164 466.9237060546875 70.20222473144531 438.9774169921875 C 32.57097244262695 382.0805969238281 -22.833026885986328 362.3238220214844 267.48876953125 406.9902038574219" fill="rgb(107, 91, 50)" opacity="1.0" stroke-width="2.0"/>
    <path d="M 95.54884338378906 443.47601318359375 C 84.97899627685547 161.02752685546875 94.17642211914062 154.9884490966797 122.67833709716797 146.85589599609375 C 220.44630432128906 184.7352294921875 223.30685424804688 190.58287048339844 438.5314636230469 190.267578125 C 444.781982421875 423.5545654296875 437.406982421875 431.0321044921875 435.8603820800781 475.0314025878906 C 142.42129516601562 466.4453430175781 141.37155151367188 466.1888732910156 95.54884338378906 443.47601318359375" fill="rgb(247, 216, 107)" opacity="1.0" stroke-width="2.0"/>
    <path d="M 422.2390441894531 181.30007934570312 C 422.18011474609375 210.30650329589844 384.94964599609375 234.12005615234375 355.9995422363281 209.9308624267578 C 354.9734802246094 214.69027709960938 367.51055908203125 231.82321166992188 363.03436279296875 224.54039001464844 C 352.4082336425781 210.3264923095703 344.18194580078125 184.62962341308594 377.9149169921875 199.579833984375 C 407.7293701171875 205.1604766845703 401.64141845703125 153.96060180664062 422.2390441894531 181.30007934570312" fill="rgb(3, 2, 2)" opacity="1.0" stroke-width="2.0"/>
    <path d="M 143.76121520996094 147.3884735107422 C 192.97657775878906 252.56845092773438 242.59866333007812 221.7314910888672 249.32046508789062 196.11036682128906 C 270.8065490722656 181.7421417236328 294.4668884277344 185.07077026367188 358.6391296386719 191.65704345703125 C 371.8571472167969 173.7932891845703 356.5683288574219 164.14633178710938 324.4161071777344 126.90264892578125 C 189.74981689453125 87.83821868896484 186.9595947265625 97.59660339355469 143.76121520996094 147.3884735107422" fill="rgb(145, 128, 83)" opacity="1.0" stroke-width="2.0"/>
    <path d="M 412.2828063964844 152.7660369873047 C 431.19683837890625 178.82913208007812 417.0964660644531 187.0832977294922 419.75067138671875 196.60037231445312 C 409.248046875 181.7035675048828 407.549560546875 145.22720336914062 345.1776123046875 167.0650177001953 C 344.32623291015625 167.8051300048828 372.1763916015625 116.10792541503906 412.2828063964844 152.7660369873047" fill="rgb(3, 2, 1)" opacity="1.0" stroke-width="2.0"/>
    <path d="M 253.59725952148438 -40.68909454345703 C 176.08114624023438 -9.817051887512207 177.1713104248047 72.65694427490234 227.36923217773438 94.13536071777344 C 309.8840637207031 142.62490844726562 289.39019775390625 107.54988098144531 307.2082824707031 106.9461669921875 C 269.8022766113281 119.2498550415039 258.3182067871094 116.8980484008789 295.2131652832031 173.3418731689453 C 337.9815673828125 205.16864013671875 293.1296691894531 223.68980407714844 185.73167419433594 92.61920166015625 C 310.8433837890625 102.16158294677734 351.8975524902344 93.05191040039062 253.59725952148438 -40.68909454345703" fill="rgb(217, 191, 97)" opacity="1.0" stroke-width="2.0"/>
    <path d="M 65.13548278808594 115.60104370117188 C 25.883413314819336 185.94189453125 27.877836227416992 192.20574951171875 47.536373138427734 104.46771240234375 C 38.953495025634766 123.77794647216797 -5.2289934158325195 171.45339965820312 0.32584333419799805 273.98944091796875 C 34.634586334228516 273.7535705566406 25.76565170288086 142.1521453857422 53.66893005371094 96.77972412109375 C 104.42395782470703 39.952056884765625 165.66876220703125 1.5459551811218262 212.0094757080078 13.32670783996582 C 38.63994216918945 101.61341857910156 89.47589874267578 109.63591003417969 65.13548278808594 115.60104370117188" fill="rgb(12, 8, 6)" opacity="1.0" stroke-width="2.0"/>
    <path d="M 350.7737121582031 192.18307495117188 C 367.8393249511719 182.11094665527344 354.66448974609375 179.8826446533203 387.8163757324219 219.26516723632812 C 360.27154541015625 211.4376983642578 330.2013244628906 209.70501708984375 348.708251953125 153.5279083251953 C 411.21173095703125 145.21568298339844 351.82330322265625 165.009765625 362.74359130859375 184.51925659179688 C 413.2072448730469 149.4107666015625 392.45086669921875 166.1539306640625 410.4249267578125 208.3660888671875 C 422.5152282714844 137.1716766357422 403.9092712402344 158.12147521972656 350.7737121582031 192.18307495117188" fill="rgb(2, 1, 2)" opacity="1.0" stroke-width="2.0"/>
    <path d="M 435.9638671875 25.353471755981445 C 240.51576232910156 19.8797607421875 266.5469970703125 18.220821380615234 338.142333984375 7.529187202453613 C 323.3586730957031 33.031246185302734 216.31298828125 27.022899627685547 258.2233581542969 204.4469451904297 C 347.9854431152344 149.7391815185547 432.49713134765625 143.98333740234375 435.9638671875 25.353471755981445" fill="rgb(227, 204, 107)" opacity="1.0" stroke-width="2.0"/>
  </g>
</svg>
