<?xml version="1.0" ?>
<svg height="512" version="1.1" width="512" xmlns="http://www.w3.org/2000/svg">
  <defs/>
  <g>
    <path d="M 55.77265548706055 54.30595397949219 C 57.13758850097656 53.48677062988281 55.859981536865234 54.33950424194336 54.28570556640625 55.16730499267578 C 38.133201599121094 69.79734802246094 32.432796478271484 75.38876342773438 35.66781997680664 73.98283386230469 C 38.06356430053711 72.42357635498047 31.05345916748047 76.32678985595703 40.064483642578125 71.82167053222656 C 36.899192810058594 73.06895446777344 23.970951080322266 82.13001251220703 55.77265548706055 54.30595397949219" fill="rgb(255, 79, 144)" opacity="1.0" stroke-width="2.0"/>
    <path d="M 475.968505859375 389.0090637207031 C 396.15179443359375 513.9388427734375 253.648681640625 537.9505615234375 147.62054443359375 488.8066711425781 C 34.0280876159668 433.5001525878906 36.19684982299805 348.2024841308594 53.252105712890625 449.918212890625 C 58.23667907714844 477.3077392578125 57.14691925048828 470.9393310546875 44.261924743652344 401.97698974609375 C -36.479339599609375 265.7493591308594 -0.00773988664150238 264.0177001953125 475.968505859375 389.0090637207031" fill="rgb(1, 0, 1)" opacity="1.0" stroke-width="2.0"/>
    <path d="M 50.2747688293457 372.16815185546875 C -24.730520248413086 216.12832641601562 8.366089820861816 98.1297378540039 146.3068389892578 23.944156646728516 C 429.6202392578125 -3.054108142852783 354.9372253417969 31.75094223022461 515.8012084960938 191.13673400878906 C 518.5771484375 379.6313171386719 475.10711669921875 370.5091247558594 406.8983154296875 437.2564697265625 C 280.13671875 539.4099731445312 116.32622528076172 488.180419921875 50.2747688293457 372.16815185546875" fill="rgb(245, 212, 107)" opacity="1.0" stroke-width="2.0"/>
    <path d="M 422.0951843261719 177.91696166992188 C 423.13897705078125 214.1108856201172 380.7909240722656 234.1796112060547 353.65716552734375 207.94252014160156 C 355.60345458984375 214.4174346923828 364.5279235839844 229.55767822265625 360.80633544921875 223.14488220214844 C 350.8823547363281 204.94749450683594 339.7633972167969 177.64193725585938 375.7933349609375 199.1578826904297 C 413.2469177246094 206.18748474121094 396.1544494628906 151.94009399414062 422.0951843261719 177.91696166992188" fill="rgb(2, 1, 3)" opacity="1.0" stroke-width="2.0"/>
    <path d="M 200.46897888183594 139.21994018554688 C 123.59854888916016 189.2002410888672 227.37838745117188 264.5255432128906 253.50308227539062 186.68309020996094 C 257.8404541015625 117.4194107055664 144.93809509277344 150.12985229492188 357.24493408203125 145.0647430419922 C 372.83447265625 157.04647827148438 359.6419677734375 145.59536743164062 325.3544006347656 124.42268371582031 C 186.70492553710938 83.57415771484375 190.99163818359375 93.83728790283203 200.46897888183594 139.21994018554688" fill="rgb(67, 66, 65)" opacity="1.0" stroke-width="2.0"/>
    <path d="M 410.2312927246094 151.20120239257812 C 431.8375549316406 174.56480407714844 418.2959899902344 195.42715454101562 411.98101806640625 200.55630493164062 C 400.0104064941406 179.8578643798828 405.0129089355469 140.2726287841797 350.2179260253906 171.26951599121094 C 335.2236633300781 160.07884216308594 376.2242431640625 120.76658630371094 410.2312927246094 151.20120239257812" fill="rgb(1, 1, 2)" opacity="1.0" stroke-width="2.0"/>
    <path d="M 263.39154052734375 -1.7736337184906006 C 146.19635009765625 13.059111595153809 101.66899871826172 94.87422180175781 121.77161407470703 123.0787582397461 C 328.0869445800781 102.93311309814453 290.82696533203125 77.72444152832031 310.3312072753906 88.60768127441406 C 269.804931640625 105.28262329101562 258.8458251953125 88.07750701904297 353.0610656738281 81.78477478027344 C 416.2966003417969 176.49923706054688 332.70758056640625 151.13230895996094 98.12173461914062 127.56817626953125 C 352.7153625488281 97.16390991210938 403.5793762207031 69.32654571533203 263.39154052734375 -1.7736337184906006" fill="rgb(252, 222, 109)" opacity="1.0" stroke-width="2.0"/>
    <path d="M 33.691993713378906 175.77774047851562 C 23.828062057495117 213.63584899902344 12.275825500488281 250.74095153808594 31.797428131103516 130.61541748046875 C 42.84649658203125 116.56396484375 -30.78661346435547 211.62008666992188 14.086997032165527 341.6570129394531 C 39.6711311340332 379.957763671875 -5.706245422363281 142.5171356201172 55.02874755859375 99.29940032958984 C 106.09391021728516 14.939668655395508 270.5533447265625 -26.700777053833008 268.5262756347656 18.883115768432617 C 109.4996337890625 19.76568603515625 50.458805084228516 131.30677795410156 33.691993713378906 175.77774047851562" fill="rgb(3, 2, 2)" opacity="1.0" stroke-width="2.0"/>
    <path d="M 353.33245849609375 190.5675048828125 C 373.5210266113281 178.4464111328125 347.6632995605469 184.81800842285156 388.7426452636719 210.12283325195312 C 362.6268310546875 233.69737243652344 323.75018310546875 187.66835021972656 351.96240234375 153.51885986328125 C 420.71392822265625 157.72720336914062 355.8058166503906 150.91116333007812 362.6109313964844 184.5187530517578 C 415.1540832519531 149.41079711914062 398.203125 161.2423553466797 403.3347473144531 209.034423828125 C 422.09307861328125 140.64634704589844 400.7577209472656 158.75381469726562 353.33245849609375 190.5675048828125" fill="rgb(1, 1, 2)" opacity="1.0" stroke-width="2.0"/>
    <path d="M 480.6490783691406 120.08979797363281 C 328.561279296875 -34.170230865478516 293.8909912109375 -66.90814208984375 404.4766845703125 42.97597885131836 C 351.82318115234375 17.993024826049805 296.5378723144531 -8.350946426391602 316.5491027832031 29.318143844604492 C 457.63323974609375 37.750282287597656 560.9696044921875 370.9376220703125 480.6490783691406 120.08979797363281" fill="rgb(33, 31, 25)" opacity="1.0" stroke-width="2.0"/>
  </g>
</svg>
