<?xml version="1.0" ?>
<svg height="512" version="1.1" width="512" xmlns="http://www.w3.org/2000/svg">
  <defs/>
  <g>
    <path d="M 55.45431900024414 53.34227752685547 C 58.60894775390625 51.42216110229492 55.5260124206543 53.525733947753906 53.797603607177734 54.83049011230469 C 36.90837097167969 68.62802124023438 29.703750610351562 73.9876937866211 30.21609115600586 73.09962463378906 C 40.1056022644043 68.67428588867188 27.29685401916504 73.56986999511719 36.993194580078125 69.44843292236328 C 30.44963836669922 71.5816421508789 21.577543258666992 81.49303436279297 55.45431900024414 53.34227752685547" fill="rgb(255, 61, 123)" opacity="1.0" stroke-width="2.0"/>
    <path d="M 180.71434020996094 436.8874816894531 C 194.9125518798828 523.6234741210938 158.2272186279297 498.99462890625 93.47428894042969 455.5574645996094 C 74.60628509521484 445.5707702636719 70.60614013671875 458.98828125 67.82398986816406 464.8126525878906 C 74.46351623535156 479.61749267578125 76.34780883789062 470.24749755859375 75.20858764648438 474.1754150390625 C 67.23979949951172 471.9012756347656 45.80247116088867 436.2864990234375 180.71434020996094 436.8874816894531" fill="rgb(120, 96, 55)" opacity="1.0" stroke-width="2.0"/>
    <path d="M 182.53810119628906 362.31536865234375 C 177.91796875 225.97830200195312 188.74781799316406 233.8442840576172 196.22647094726562 223.41726684570312 C 211.6488494873047 220.35028076171875 218.80746459960938 221.72901916503906 351.7233581542969 229.07528686523438 C 358.11956787109375 359.58843994140625 347.7435302734375 368.56414794921875 338.5144348144531 383.2047424316406 C 198.7945556640625 375.45635986328125 189.2230224609375 379.3605651855469 182.53810119628906 362.31536865234375" fill="rgb(253, 222, 110)" opacity="1.0" stroke-width="2.0"/>
    <path d="M 421.8358154296875 186.79281616210938 C 414.8417053222656 210.142578125 397.3842468261719 230.42825317382812 356.8284912109375 213.7234344482422 C 353.82452392578125 219.88389587402344 367.8116149902344 232.10476684570312 363.3270568847656 229.07757568359375 C 353.71875 217.75933837890625 350.11199951171875 204.29678344726562 378.127685546875 200.91436767578125 C 410.2982177734375 194.83131408691406 412.5736389160156 159.776123046875 421.8358154296875 186.79281616210938" fill="rgb(37, 7, 18)" opacity="1.0" stroke-width="2.0"/>
    <path d="M 209.37979125976562 195.9433135986328 C 217.49794006347656 254.89877319335938 236.44737243652344 251.2334747314453 257.9158020019531 262.5549011230469 C 302.8083801269531 253.25587463378906 298.4092712402344 250.07139587402344 344.2718200683594 253.82537841796875 C 354.44146728515625 186.6391143798828 342.527099609375 175.96243286132812 333.8312072753906 156.48687744140625 C 252.977783203125 153.41921997070312 252.71377563476562 166.9665069580078 209.37979125976562 195.9433135986328" fill="rgb(248, 197, 103)" opacity="1.0" stroke-width="2.0"/>
    <path d="M 413.0255126953125 152.7917022705078 C 429.1938171386719 183.8092041015625 423.1938171386719 178.7646942138672 419.2779846191406 183.82339477539062 C 418.34735107421875 178.26100158691406 415.2219543457031 151.4976806640625 339.85943603515625 166.81394958496094 C 344.5398864746094 164.56887817382812 367.0689392089844 117.27664184570312 413.0255126953125 152.7917022705078" fill="rgb(14, 21, 2)" opacity="1.0" stroke-width="2.0"/>
    <path d="M 312.6804504394531 48.19997787475586 C 274.7742004394531 97.59278106689453 279.7137756347656 134.15162658691406 311.8840637207031 124.12577056884766 C 309.7998352050781 151.646240234375 293.4124450683594 113.01956176757812 311.755859375 103.26166534423828 C 286.765625 127.07489776611328 275.5329284667969 136.57949829101562 296.0325927734375 164.45745849609375 C 320.1373291015625 170.06275939941406 311.79083251953125 191.04946899414062 270.2197570800781 156.14137268066406 C 309.296630859375 133.4322967529297 321.4393310546875 148.44500732421875 312.6804504394531 48.19997787475586" fill="rgb(249, 229, 111)" opacity="1.0" stroke-width="2.0"/>
    <path d="M 74.25444793701172 107.57461547851562 C 43.139060974121094 144.05714416503906 54.615928649902344 145.43896484375 50.59510803222656 102.92208099365234 C 34.5458869934082 122.57614135742188 9.534360885620117 166.20294189453125 3.1162302494049072 213.43548583984375 C 69.1697998046875 204.00677490234375 50.269012451171875 153.6544189453125 50.651554107666016 107.82722473144531 C 72.44905853271484 56.34348678588867 104.69468688964844 60.01298141479492 115.12890625 65.54159545898438 C 47.64143753051758 123.32621765136719 85.3701171875 139.21653747558594 74.25444793701172 107.57461547851562" fill="rgb(60, 58, 28)" opacity="1.0" stroke-width="2.0"/>
    <path d="M 340.8916931152344 192.60714721679688 C 358.6647033691406 180.64500427246094 372.05670166015625 184.3321990966797 376.849609375 212.98558044433594 C 354.3251647949219 208.3687286376953 340.3827209472656 217.54652404785156 340.857666015625 153.1747589111328 C 388.8922119140625 155.75106811523438 348.5001220703125 186.9819793701172 369.4248046875 179.2648162841797 C 412.7176818847656 155.68922424316406 386.8481140136719 167.65357971191406 416.6015319824219 202.64805603027344 C 425.1143798828125 138.77032470703125 408.98858642578125 162.30531311035156 340.8916931152344 192.60714721679688" fill="rgb(46, 46, 26)" opacity="1.0" stroke-width="2.0"/>
    <path d="M 359.36627197265625 51.88397216796875 C 294.881103515625 94.03951263427734 302.025634765625 105.68126678466797 315.8414001464844 63.95028305053711 C 336.4662780761719 86.92829132080078 282.0859069824219 94.11996459960938 288.0230712890625 176.06524658203125 C 357.0140686035156 188.38075256347656 364.3927307128906 166.9934539794922 359.36627197265625 51.88397216796875" fill="rgb(250, 223, 106)" opacity="1.0" stroke-width="2.0"/>
  </g>
</svg>
