<?xml version="1.0" ?>
<svg height="512" version="1.1" width="512" xmlns="http://www.w3.org/2000/svg">
  <defs/>
  <g>
    <path d="M 55.42613983154297 53.89509582519531 C 57.40056610107422 52.99160385131836 55.224571228027344 53.92753982543945 54.07971954345703 55.10776901245117 C 38.038246154785156 69.62926483154297 32.61848068237305 75.503662109375 35.706451416015625 74.19328308105469 C 39.226749420166016 72.19265747070312 31.677600860595703 76.64846801757812 39.87312316894531 71.2953109741211 C 36.974220275878906 73.3027572631836 23.941282272338867 82.1793212890625 55.42613983154297 53.89509582519531" fill="rgb(255, 76, 140)" opacity="1.0" stroke-width="2.0"/>
    <path d="M 444.3782958984375 421.4795227050781 C 397.058837890625 509.1614074707031 235.77203369140625 536.3265991210938 150.0356903076172 489.2607727050781 C 31.1889591217041 433.5138244628906 39.38961410522461 348.7926330566406 52.59587478637695 449.19427490234375 C 57.29649353027344 478.4573059082031 55.943267822265625 472.2691955566406 45.694671630859375 404.90753173828125 C -34.33076477050781 267.7277526855469 -6.857120037078857 267.8535461425781 444.3782958984375 421.4795227050781" fill="rgb(8, 6, 5)" opacity="1.0" stroke-width="2.0"/>
    <path d="M 49.298851013183594 373.4270324707031 C -22.488555908203125 209.4336395263672 9.67019271850586 102.62996673583984 137.64613342285156 28.824766159057617 C 390.81317138671875 39.329097747802734 362.2214050292969 48.13666534423828 526.6077880859375 163.16453552246094 C 515.7529907226562 348.2744140625 476.7789611816406 426.7019348144531 393.4925231933594 450.1142883300781 C 240.1767578125 530.7943115234375 131.6358642578125 488.19085693359375 49.298851013183594 373.4270324707031" fill="rgb(241, 209, 106)" opacity="1.0" stroke-width="2.0"/>
    <path d="M 422.09429931640625 178.20611572265625 C 423.20916748046875 213.47613525390625 380.74090576171875 234.29788208007812 353.47869873046875 207.90113830566406 C 355.5047607421875 214.691650390625 365.1868591308594 229.6322784423828 361.1613464355469 222.97117614746094 C 350.40057373046875 205.49363708496094 339.8963928222656 177.18206787109375 375.63616943359375 199.23829650878906 C 413.3816833496094 206.19888305664062 395.8565368652344 152.1732635498047 422.09429931640625 178.20611572265625" fill="rgb(2, 1, 3)" opacity="1.0" stroke-width="2.0"/>
    <path d="M 199.44671630859375 138.47450256347656 C 119.4725570678711 198.72665405273438 242.15000915527344 265.306884765625 254.09796142578125 178.40626525878906 C 247.1017303466797 120.64830017089844 157.34954833984375 148.7386016845703 358.26495361328125 148.81427001953125 C 372.2603759765625 163.3203887939453 358.7321472167969 150.66229248046875 324.9436340332031 124.34171295166016 C 186.76858520507812 83.29525756835938 190.92922973632812 93.78881072998047 199.44671630859375 138.47450256347656" fill="rgb(67, 67, 66)" opacity="1.0" stroke-width="2.0"/>
    <path d="M 410.48455810546875 151.36529541015625 C 431.90301513671875 175.209716796875 417.915283203125 194.21163940429688 412.93084716796875 199.94276428222656 C 399.3878479003906 179.42559814453125 405.2611083984375 140.35435485839844 349.7912292480469 171.4659423828125 C 335.3099670410156 160.68060302734375 375.3829345703125 120.48816680908203 410.48455810546875 151.36529541015625" fill="rgb(1, 1, 2)" opacity="1.0" stroke-width="2.0"/>
    <path d="M 271.21368408203125 -14.092209815979004 C 146.8624267578125 15.734272956848145 102.86915588378906 98.8725357055664 123.45165252685547 121.18864440917969 C 326.67559814453125 102.76336669921875 288.3964538574219 75.34600067138672 308.9122619628906 92.81420135498047 C 269.89752197265625 110.30421447753906 258.6766357421875 93.63722229003906 346.9979553222656 96.10379791259766 C 411.833984375 174.34751892089844 329.517333984375 153.87001037597656 99.09972381591797 125.36148071289062 C 336.65362548828125 98.75813293457031 386.5973205566406 75.61510467529297 271.21368408203125 -14.092209815979004" fill="rgb(251, 222, 110)" opacity="1.0" stroke-width="2.0"/>
    <path d="M 36.80125427246094 167.45578002929688 C 22.67729949951172 215.13941955566406 12.477273941040039 250.4456329345703 31.74849510192871 130.37826538085938 C 42.829307556152344 116.75052642822266 -30.65153694152832 211.36660766601562 13.763875961303711 340.8719787597656 C 40.48331832885742 377.2472229003906 -6.8295488357543945 146.60247802734375 55.46480941772461 98.62164306640625 C 102.28189086914062 23.052507400512695 251.94100952148438 -27.585765838623047 272.6805419921875 18.456621170043945 C 108.53697204589844 19.09929084777832 52.99570846557617 131.5581512451172 36.80125427246094 167.45578002929688" fill="rgb(3, 2, 2)" opacity="1.0" stroke-width="2.0"/>
    <path d="M 353.2692565917969 190.945556640625 C 373.1915588378906 179.13673400878906 348.4157409667969 183.35887145996094 387.9000244140625 211.60154724121094 C 362.7655334472656 232.6104736328125 323.5237731933594 187.89840698242188 352.3927307128906 153.14999389648438 C 420.4527893066406 156.00222778320312 355.1943054199219 151.73550415039062 362.6796569824219 184.67208862304688 C 415.07647705078125 149.544189453125 397.8472595214844 161.2677459716797 403.3424987792969 209.07716369628906 C 422.6482849121094 140.90570068359375 400.7846374511719 158.75180053710938 353.2692565917969 190.945556640625" fill="rgb(1, 0, 1)" opacity="1.0" stroke-width="2.0"/>
    <path d="M 468.9400939941406 107.66244506835938 C 326.73236083984375 -42.04707717895508 273.2597961425781 -41.06640625 388.010498046875 23.33110809326172 C 323.1601257324219 32.19633865356445 293.103271484375 -26.759607315063477 324.93939208984375 35.300636291503906 C 429.8172912597656 51.34463119506836 553.7973022460938 280.2027893066406 468.9400939941406 107.66244506835938" fill="rgb(69, 86, 37)" opacity="1.0" stroke-width="2.0"/>
  </g>
</svg>
