<?xml version="1.0" ?>
<svg height="512" version="1.1" width="512" xmlns="http://www.w3.org/2000/svg">
  <defs/>
  <g>
    <path d="M 55.54844665527344 53.73686981201172 C 58.44723129272461 51.76383590698242 55.52678680419922 53.209228515625 53.9800910949707 54.715858459472656 C 36.75001525878906 68.39493560791016 29.754667282104492 73.1670913696289 31.062734603881836 72.6008071899414 C 37.46668243408203 68.27588653564453 27.971221923828125 74.12411499023438 36.33675003051758 69.126708984375 C 30.672046661376953 72.12342071533203 21.383358001708984 81.0748062133789 55.54844665527344 53.73686981201172" fill="rgb(255, 63, 125)" opacity="1.0" stroke-width="2.0"/>
    <path d="M 253.8121337890625 408.71588134765625 C 268.1681823730469 559.0159301757812 215.4526824951172 526.0192260742188 93.1513900756836 458.8872375488281 C 42.65403747558594 397.0648193359375 41.82682418823242 415.2778015136719 72.25619506835938 452.3238830566406 C 75.59591674804688 476.7489318847656 77.69168090820312 470.3428649902344 69.95360565185547 449.9352111816406 C 38.54105758666992 399.1866455078125 -12.020002365112305 373.763671875 253.8121337890625 408.71588134765625" fill="rgb(140, 114, 64)" opacity="1.0" stroke-width="2.0"/>
    <path d="M 109.21614074707031 439.2834167480469 C 101.16289520263672 172.7120819091797 110.49742889404297 169.61228942871094 133.6735076904297 162.03147888183594 C 213.4597930908203 191.55995178222656 219.51271057128906 199.87197875976562 423.3384094238281 197.5748291015625 C 429.2137145996094 414.74188232421875 419.801513671875 421.483642578125 418.2310485839844 458.6311950683594 C 151.9536895751953 450.3502502441406 145.71092224121094 452.0073547363281 109.21614074707031 439.2834167480469" fill="rgb(251, 220, 108)" opacity="1.0" stroke-width="2.0"/>
    <path d="M 421.8585510253906 181.65199279785156 C 421.906494140625 210.45021057128906 385.7454528808594 234.16940307617188 355.4654235839844 209.65455627441406 C 356.15887451171875 213.43605041503906 368.36431884765625 231.90248107910156 363.77911376953125 225.32691955566406 C 352.9779968261719 211.2832489013672 345.5354309082031 183.59275817871094 378.25531005859375 200.17889404296875 C 407.7582702636719 204.00086975097656 403.71563720703125 154.4310302734375 421.8585510253906 181.65199279785156" fill="rgb(4, 3, 2)" opacity="1.0" stroke-width="2.0"/>
    <path d="M 146.03924560546875 152.50527954101562 C 187.4457550048828 252.49044799804688 242.0095977783203 219.94541931152344 243.50851440429688 202.90884399414062 C 277.59649658203125 193.7203369140625 289.01141357421875 195.23936462402344 357.27655029296875 204.33441162109375 C 371.8139953613281 173.25900268554688 356.4983215332031 164.37002563476562 325.2726135253906 128.7671356201172 C 193.1775360107422 91.79205322265625 191.13519287109375 102.02619934082031 146.03924560546875 152.50527954101562" fill="rgb(152, 141, 86)" opacity="1.0" stroke-width="2.0"/>
    <path d="M 412.3598937988281 152.86605834960938 C 430.8780212402344 178.94288635253906 417.1168518066406 185.92868041992188 421.1816101074219 196.85716247558594 C 410.920654296875 181.07583618164062 409.472412109375 145.88461303710938 344.1208190917969 166.9852294921875 C 344.0240478515625 167.25326538085938 372.0296936035156 116.03756713867188 412.3598937988281 152.86605834960938" fill="rgb(4, 2, 1)" opacity="1.0" stroke-width="2.0"/>
    <path d="M 268.6897888183594 -29.990840911865234 C 192.94882202148438 6.9773478507995605 195.87115478515625 82.79607391357422 246.17849731445312 107.60224914550781 C 307.72796630859375 150.7989044189453 289.3609924316406 107.90958404541016 307.21746826171875 106.90612030029297 C 269.8643493652344 119.23139190673828 258.381103515625 116.97721099853516 288.6896057128906 171.19163513183594 C 325.5950012207031 193.00033569335938 285.3929443359375 222.4283447265625 197.22547912597656 103.12593078613281 C 307.5780334472656 97.53137969970703 348.00506591796875 93.55609893798828 268.6897888183594 -29.990840911865234" fill="rgb(222, 197, 100)" opacity="1.0" stroke-width="2.0"/>
    <path d="M 66.18756103515625 114.53593444824219 C 26.467063903808594 183.35623168945312 30.822954177856445 187.63526916503906 48.28932571411133 103.9368896484375 C 37.992671966552734 124.2600326538086 -1.9330508708953857 168.6960906982422 -0.24245843291282654 264.5931701660156 C 34.80332565307617 260.8110656738281 29.44891357421875 140.93624877929688 53.34823989868164 96.83768463134766 C 106.33605194091797 40.12523651123047 151.67047119140625 9.155142784118652 197.40260314941406 18.17810821533203 C 39.73202896118164 107.05000305175781 86.8011703491211 109.60067749023438 66.18756103515625 114.53593444824219" fill="rgb(8, 5, 5)" opacity="1.0" stroke-width="2.0"/>
    <path d="M 350.42095947265625 192.29811096191406 C 367.3156433105469 182.62498474121094 355.8468933105469 180.4696502685547 387.55352783203125 219.0097198486328 C 359.6275939941406 211.2156524658203 332.1016540527344 211.45449829101562 347.9679870605469 153.22364807128906 C 408.9593811035156 144.56834411621094 350.9167785644531 166.9853515625 363.3337707519531 184.51132202148438 C 414.3388977050781 149.4507293701172 391.90325927734375 166.82652282714844 409.9748840332031 207.5989990234375 C 422.2330017089844 136.7220458984375 404.9677734375 158.56004333496094 350.42095947265625 192.29811096191406" fill="rgb(2, 0, 2)" opacity="1.0" stroke-width="2.0"/>
    <path d="M 426.814697265625 14.518942832946777 C 242.4066619873047 25.426721572875977 271.414306640625 31.2618408203125 330.6281433105469 5.828996658325195 C 324.0514831542969 34.427337646484375 227.3178253173828 40.48186492919922 256.7374267578125 193.57667541503906 C 348.9273986816406 160.25430297851562 420.412353515625 146.38990783691406 426.814697265625 14.518942832946777" fill="rgb(229, 202, 109)" opacity="1.0" stroke-width="2.0"/>
  </g>
</svg>
