<?xml version="1.0" ?>
<svg height="512" version="1.1" width="512" xmlns="http://www.w3.org/2000/svg">
  <defs/>
  <g>
    <path d="M 55.5911750793457 54.167747497558594 C 56.764862060546875 53.21826171875 55.30351638793945 54.06379318237305 54.37259292602539 55.24435806274414 C 38.06045913696289 69.69454193115234 32.64171600341797 75.43348693847656 36.08945846557617 74.03053283691406 C 38.0179328918457 72.37824249267578 31.034528732299805 76.3027114868164 39.882991790771484 71.6376953125 C 37.156227111816406 73.06403350830078 24.074377059936523 82.1162338256836 55.5911750793457 54.167747497558594" fill="rgb(255, 81, 146)" opacity="1.0" stroke-width="2.0"/>
    <path d="M 482.0474853515625 378.57940673828125 C 401.1477355957031 516.5352172851562 252.7435760498047 537.203369140625 147.70843505859375 488.7929382324219 C 34.35307312011719 433.1888122558594 35.71834182739258 348.3934631347656 53.383182525634766 449.93975830078125 C 58.449119567871094 477.10601806640625 57.43843078613281 470.6774597167969 44.16405487060547 401.77178955078125 C -36.88737487792969 265.8995361328125 1.4877697229385376 263.4530029296875 482.0474853515625 378.57940673828125" fill="rgb(2, 1, 1)" opacity="1.0" stroke-width="2.0"/>
    <path d="M 49.80195999145508 371.0058898925781 C -24.920568466186523 216.60826110839844 8.073760986328125 96.88691711425781 147.9451446533203 22.569995880126953 C 431.0301513671875 -9.711078643798828 354.2777404785156 30.153112411499023 514.2246704101562 194.39620971679688 C 519.2967529296875 387.6501770019531 472.19219970703125 358.6059875488281 409.0194091796875 436.462890625 C 280.07086181640625 539.1487426757812 116.22818756103516 489.2449951171875 49.80195999145508 371.0058898925781" fill="rgb(245, 212, 107)" opacity="1.0" stroke-width="2.0"/>
    <path d="M 422.0725402832031 178.04469299316406 C 423.5481262207031 214.14926147460938 380.7117614746094 234.01402282714844 353.87274169921875 207.99908447265625 C 355.9216613769531 214.09666442871094 364.72686767578125 229.3150634765625 361.03253173828125 222.8875732421875 C 350.90472412109375 204.89842224121094 339.701171875 177.71859741210938 375.49786376953125 199.28829956054688 C 413.31524658203125 206.04873657226562 396.3153991699219 151.9038848876953 422.0725402832031 178.04469299316406" fill="rgb(2, 1, 3)" opacity="1.0" stroke-width="2.0"/>
    <path d="M 200.69833374023438 139.2687530517578 C 124.06861114501953 187.40060424804688 224.6455535888672 264.33465576171875 253.17201232910156 188.064208984375 C 259.8625183105469 116.97814178466797 142.35324096679688 150.20037841796875 356.85009765625 144.5028533935547 C 372.8662109375 156.65968322753906 359.70550537109375 145.20901489257812 325.3359680175781 124.53573608398438 C 186.6862030029297 83.65254974365234 191.01034545898438 93.84974670410156 200.69833374023438 139.2687530517578" fill="rgb(67, 66, 65)" opacity="1.0" stroke-width="2.0"/>
    <path d="M 410.119140625 151.1763153076172 C 431.5275573730469 174.73382568359375 418.3226623535156 195.8488006591797 411.7110900878906 200.67926025390625 C 400.0986022949219 179.84519958496094 405.11053466796875 140.20228576660156 350.3697509765625 171.25289916992188 C 335.2297668457031 159.7825927734375 376.0308532714844 120.72415924072266 410.119140625 151.1763153076172" fill="rgb(1, 0, 2)" opacity="1.0" stroke-width="2.0"/>
    <path d="M 258.877197265625 0.05794262886047363 C 145.99591064453125 11.204377174377441 101.50740051269531 94.18710327148438 121.53376770019531 123.3680419921875 C 328.2105407714844 102.90625 291.0661315917969 78.02995300292969 310.22735595703125 88.01314544677734 C 269.8249816894531 105.15855407714844 258.87982177734375 87.62847900390625 354.16778564453125 79.66519165039062 C 417.2251281738281 176.29425048828125 333.2309265136719 150.63726806640625 97.89484405517578 127.95684051513672 C 353.31207275390625 96.95780944824219 403.9368591308594 69.70075988769531 258.877197265625 0.05794262886047363" fill="rgb(252, 222, 109)" opacity="1.0" stroke-width="2.0"/>
    <path d="M 33.28694534301758 177.18328857421875 C 24.215473175048828 213.90176391601562 12.263360977172852 250.71910095214844 31.781352996826172 130.65438842773438 C 42.816078186035156 116.62351989746094 -30.983110427856445 211.61837768554688 14.097061157226562 341.8077087402344 C 39.29426574707031 380.45257568359375 -5.701300621032715 142.1732635498047 55.02127456665039 99.46359252929688 C 107.42505645751953 13.120002746582031 273.689453125 -26.154199600219727 267.2206115722656 18.935781478881836 C 110.19090270996094 20.31778907775879 49.767601013183594 131.49880981445312 33.28694534301758 177.18328857421875" fill="rgb(2, 1, 2)" opacity="1.0" stroke-width="2.0"/>
    <path d="M 353.3832702636719 190.53094482421875 C 373.54229736328125 178.1991729736328 347.37774658203125 185.1886749267578 388.6366882324219 209.96682739257812 C 362.47528076171875 234.11683654785156 323.7864074707031 187.74899291992188 351.9539489746094 153.6210174560547 C 420.7215576171875 158.06564331054688 355.8193664550781 150.70648193359375 362.6376647949219 184.5006866455078 C 415.10418701171875 149.2462158203125 398.0738220214844 160.96031188964844 403.2126770019531 209.02745056152344 C 422.0593566894531 140.69810485839844 400.7615966796875 158.7954864501953 353.3832702636719 190.53094482421875" fill="rgb(1, 1, 2)" opacity="1.0" stroke-width="2.0"/>
    <path d="M 482.35699462890625 123.7444076538086 C 330.83917236328125 -35.90373992919922 300.9344177246094 -70.63874053955078 409.2799072265625 46.870018005371094 C 354.2101745605469 15.763647079467773 294.52252197265625 -7.9183735847473145 317.336669921875 29.492652893066406 C 461.42755126953125 36.90052032470703 561.3160400390625 385.0893859863281 482.35699462890625 123.7444076538086" fill="rgb(31, 29, 24)" opacity="1.0" stroke-width="2.0"/>
  </g>
</svg>
