<?xml version="1.0" ?>
<svg height="512" version="1.1" width="512" xmlns="http://www.w3.org/2000/svg">
  <defs/>
  <g>
    <path d="M 55.53639221191406 52.920127868652344 C 59.413002014160156 51.382476806640625 55.38554382324219 53.87175750732422 53.45817565917969 54.9673957824707 C 36.74895477294922 68.58169555664062 28.466920852661133 74.41114807128906 30.408428192138672 74.01251220703125 C 35.7624626159668 66.4677505493164 26.124353408813477 73.21307373046875 38.090614318847656 69.46070861816406 C 30.657859802246094 70.63615417480469 21.560672760009766 81.42792510986328 55.53639221191406 52.920127868652344" fill="rgb(255, 59, 120)" opacity="1.0" stroke-width="2.0"/>
    <path d="M 163.89053344726562 449.1329345703125 C 165.0130615234375 502.68463134765625 133.17161560058594 485.6396789550781 102.96760559082031 461.90155029296875 C 89.08837127685547 465.28369140625 83.28106689453125 466.2332458496094 80.25923156738281 471.1745300292969 C 66.41204071044922 481.5882873535156 74.2551498413086 478.5117492675781 80.3902816772461 473.79559326171875 C 68.2818832397461 483.87890625 68.3084487915039 459.5689392089844 163.89053344726562 449.1329345703125" fill="rgb(67, 162, 43)" opacity="1.0" stroke-width="2.0"/>
    <path d="M 209.32992553710938 333.4026184082031 C 206.6260528564453 247.20957946777344 217.71649169921875 256.7438659667969 222.15402221679688 246.36830139160156 C 230.5354461669922 242.80926513671875 230.98631286621094 237.959716796875 324.2037048339844 240.8929443359375 C 330.96002197265625 335.1482849121094 320.81072998046875 344.8724670410156 311.6640930175781 355.4376525878906 C 221.1862335205078 347.4845275878906 211.71180725097656 351.63629150390625 209.32992553710938 333.4026184082031" fill="rgb(253, 222, 105)" opacity="1.0" stroke-width="2.0"/>
    <path d="M 432.5467834472656 191.99806213378906 C 397.56988525390625 211.60997009277344 402.1356201171875 232.7626953125 356.4027404785156 212.58828735351562 C 349.24151611328125 219.35707092285156 367.830322265625 230.3230438232422 363.031982421875 229.18948364257812 C 354.29656982421875 220.6339569091797 351.96185302734375 211.2760467529297 371.40655517578125 202.4298553466797 C 411.80975341796875 191.56764221191406 416.3514404296875 165.79420471191406 432.5467834472656 191.99806213378906" fill="rgb(75, 36, 47)" opacity="1.0" stroke-width="2.0"/>
    <path d="M 240.74249267578125 225.43685913085938 C 245.91038513183594 235.59776306152344 251.793212890625 236.804443359375 263.5423583984375 264.1862487792969 C 303.45648193359375 257.568359375 298.3520202636719 253.25021362304688 319.5727844238281 258.1026306152344 C 327.5028381347656 212.11119079589844 315.8669738769531 202.37667846679688 311.7449035644531 183.44281005859375 C 280.1973876953125 184.0198211669922 281.72772216796875 197.76547241210938 240.74249267578125 225.43685913085938" fill="rgb(223, 223, 105)" opacity="1.0" stroke-width="2.0"/>
    <path d="M 416.8095703125 150.74530029296875 C 426.8853454589844 181.86444091796875 422.54034423828125 175.48631286621094 418.3944091796875 176.9926300048828 C 419.48101806640625 173.85533142089844 417.10186767578125 157.72386169433594 343.0267028808594 166.30421447753906 C 346.1712646484375 158.54933166503906 360.5154724121094 121.43751525878906 416.8095703125 150.74530029296875" fill="rgb(57, 53, 40)" opacity="1.0" stroke-width="2.0"/>
    <path d="M 309.630859375 79.57527160644531 C 301.2267150878906 117.63433074951172 303.4565124511719 120.63345336914062 317.78790283203125 121.60359191894531 C 315.0440979003906 149.8050537109375 303.47442626953125 126.87773895263672 318.98077392578125 110.2525634765625 C 306.27825927734375 138.96290588378906 298.9864501953125 147.5602569580078 308.5530090332031 158.47071838378906 C 311.75555419921875 159.30015563964844 308.28424072265625 171.4449462890625 296.2262268066406 164.00692749023438 C 310.787353515625 154.89259338378906 311.0897216796875 161.02488708496094 309.630859375 79.57527160644531" fill="rgb(177, 162, 109)" opacity="1.0" stroke-width="2.0"/>
    <path d="M 70.65430450439453 108.09963989257812 C 63.33945083618164 152.92373657226562 59.779022216796875 145.0802001953125 44.177242279052734 111.3099365234375 C 33.66341781616211 121.94558715820312 12.62026309967041 167.62120056152344 7.650473117828369 190.6778564453125 C 82.2195053100586 184.2855682373047 61.74257278442383 152.24644470214844 42.17300796508789 105.2762680053711 C 62.96612548828125 76.28826141357422 102.30200958251953 84.46311950683594 89.60205078125 87.71531677246094 C 62.11578369140625 140.18557739257812 83.66189575195312 149.9267120361328 70.65430450439453 108.09963989257812" fill="rgb(82, 101, 64)" opacity="1.0" stroke-width="2.0"/>
    <path d="M 337.7590026855469 193.72280883789062 C 358.8540954589844 181.71852111816406 382.5255432128906 183.62355041503906 368.6536865234375 212.69532775878906 C 349.0679016113281 211.20314025878906 342.98468017578125 220.69522094726562 341.6264953613281 156.27911376953125 C 378.832763671875 162.4306640625 363.0880432128906 186.7945556640625 375.84674072265625 178.39871215820312 C 390.5567321777344 165.4511260986328 382.9064636230469 173.77017211914062 429.1327209472656 197.1230926513672 C 428.7203369140625 142.70704650878906 410.6801452636719 166.04803466796875 337.7590026855469 193.72280883789062" fill="rgb(77, 94, 69)" opacity="1.0" stroke-width="2.0"/>
    <path d="M 332.84051513671875 83.56687927246094 C 318.8699951171875 122.54288482666016 319.9583740234375 129.96463012695312 323.4796142578125 91.45474243164062 C 333.6981506347656 106.72188568115234 305.0748291015625 119.4093017578125 309.4416809082031 154.04071044921875 C 336.27252197265625 167.47305297851562 338.5139465332031 149.68655395507812 332.84051513671875 83.56687927246094" fill="rgb(255, 147, 111)" opacity="1.0" stroke-width="2.0"/>
  </g>
</svg>
