<?xml version="1.0" ?>
<svg height="512" version="1.1" width="512" xmlns="http://www.w3.org/2000/svg">
  <defs/>
  <g>
    <path d="M 55.902408599853516 52.80805587768555 C 59.687557220458984 50.672420501708984 54.040802001953125 53.180694580078125 53.58034896850586 55.37901306152344 C 36.91275405883789 68.80098724365234 26.259260177612305 74.13923645019531 32.45589828491211 75.24735260009766 C 32.79341506958008 67.91571807861328 24.86345863342285 73.04608154296875 39.07920455932617 69.70414733886719 C 31.418935775756836 70.33824920654297 21.536602020263672 81.38226318359375 55.902408599853516 52.80805587768555" fill="rgb(252, 55, 116)" opacity="1.0" stroke-width="2.0"/>
    <path d="M 155.69927978515625 457.53924560546875 C 152.02569580078125 490.46002197265625 125.7547378540039 475.0032958984375 99.63471984863281 468.0167541503906 C 97.18048858642578 472.1001281738281 88.2608642578125 470.5614318847656 83.57778930664062 473.8638916015625 C 64.74179077148438 479.6717529296875 73.00990295410156 478.05731201171875 80.95109558105469 475.04815673828125 C 67.10197448730469 484.3600158691406 73.6624755859375 467.6497802734375 155.69927978515625 457.53924560546875" fill="rgb(74, 197, 51)" opacity="1.0" stroke-width="2.0"/>
    <path d="M 221.92828369140625 320.4009094238281 C 219.85792541503906 257.63824462890625 231.0133514404297 267.55963134765625 234.4804229736328 256.9564208984375 C 241.8519744873047 255.24920654296875 240.61212158203125 249.422607421875 311.231689453125 248.82171630859375 C 318.3107604980469 323.4605712890625 308.2428283691406 333.1739196777344 299.61163330078125 342.5350341796875 C 232.69053649902344 334.51239013671875 223.2893829345703 338.80072021484375 221.92828369140625 320.4009094238281" fill="rgb(253, 221, 130)" opacity="1.0" stroke-width="2.0"/>
    <path d="M 433.1803283691406 198.02664184570312 C 398.624267578125 212.63768005371094 395.7829895019531 228.2455596923828 361.4516906738281 215.54354858398438 C 349.83599853515625 225.73419189453125 365.82183837890625 231.63624572753906 362.8207092285156 229.1978302001953 C 353.2648010253906 220.31932067871094 350.51666259765625 210.11102294921875 367.00048828125 203.50535583496094 C 405.60205078125 189.9852294921875 413.33843994140625 170.3057403564453 433.1803283691406 198.02664184570312" fill="rgb(98, 61, 68)" opacity="1.0" stroke-width="2.0"/>
    <path d="M 253.8716583251953 238.155517578125 C 258.5509948730469 233.07859802246094 264.08489990234375 227.3092041015625 271.0366516113281 264.6377868652344 C 303.137939453125 260.570068359375 297.5350646972656 254.4186248779297 308.85064697265625 258.28521728515625 C 315.1372375488281 224.8494873046875 303.478759765625 215.68765258789062 301.03631591796875 196.85577392578125 C 291.884033203125 197.6905059814453 294.5818786621094 211.21514892578125 253.8716583251953 238.155517578125" fill="rgb(189, 226, 135)" opacity="1.0" stroke-width="2.0"/>
    <path d="M 418.5557861328125 149.33892822265625 C 421.8695373535156 175.65481567382812 415.6376647949219 169.60203552246094 413.9613037109375 170.87513732910156 C 416.5068359375 171.90560913085938 414.42633056640625 165.07371520996094 349.5324401855469 166.658935546875 C 349.17877197265625 148.04270935058594 355.5408630371094 126.81670379638672 418.5557861328125 149.33892822265625" fill="rgb(36, 75, 32)" opacity="1.0" stroke-width="2.0"/>
    <path d="M 306.5328369140625 90.83077239990234 C 304.17584228515625 114.47175598144531 305.2071228027344 119.94708251953125 313.7824401855469 126.894775390625 C 315.4289855957031 145.9972381591797 304.66607666015625 128.1290283203125 317.2495422363281 113.52406311035156 C 307.99871826171875 137.56927490234375 303.7921142578125 148.11961364746094 309.78973388671875 157.9484100341797 C 309.35528564453125 156.78216552734375 306.204833984375 167.6047821044922 300.9246520996094 164.06005859375 C 310.864501953125 157.491943359375 309.54742431640625 162.7103729248047 306.5328369140625 90.83077239990234" fill="rgb(148, 133, 130)" opacity="1.0" stroke-width="2.0"/>
    <path d="M 70.79150390625 107.76732635498047 C 68.00584411621094 153.4145965576172 59.2546272277832 145.55055236816406 44.65087127685547 117.49889373779297 C 32.297203063964844 122.24950408935547 14.56725025177002 166.2682647705078 12.260066986083984 179.2257537841797 C 80.21394348144531 172.6971893310547 64.84172821044922 148.41806030273438 37.435150146484375 106.70594024658203 C 54.880706787109375 86.84973907470703 93.91788482666016 96.34635925292969 79.45753479003906 98.84337615966797 C 62.5561408996582 139.91175842285156 84.81098937988281 148.23851013183594 70.79150390625 107.76732635498047" fill="rgb(79, 129, 91)" opacity="1.0" stroke-width="2.0"/>
    <path d="M 337.7064208984375 194.08404541015625 C 361.19976806640625 181.85549926757812 385.9260559082031 181.17262268066406 365.3069152832031 211.54342651367188 C 346.56109619140625 211.64801025390625 341.1202697753906 221.29885864257812 339.6077575683594 163.5455322265625 C 383.6973571777344 168.34295654296875 374.043701171875 183.79501342773438 376.3677673339844 178.27078247070312 C 381.17669677734375 172.5928192138672 377.9833068847656 178.5469512939453 429.7510070800781 194.63829040527344 C 424.37969970703125 147.41839599609375 406.552978515625 167.33843994140625 337.7064208984375 194.08404541015625" fill="rgb(53, 122, 96)" opacity="1.0" stroke-width="2.0"/>
    <path d="M 326.1511535644531 94.57000732421875 C 323.4337158203125 127.3084716796875 322.7520751953125 132.9223175048828 322.6269836425781 100.6049575805664 C 332.3738098144531 112.82140350341797 313.59881591796875 125.89189910888672 320.3916931152344 141.58937072753906 C 326.4806213378906 155.4812774658203 329.0603332519531 140.10125732421875 326.1511535644531 94.57000732421875" fill="rgb(255, 112, 94)" opacity="1.0" stroke-width="2.0"/>
  </g>
</svg>
