<?xml version="1.0" ?>
<svg height="512" version="1.1" width="512" xmlns="http://www.w3.org/2000/svg">
  <defs/>
  <g>
    <path d="M 55.455013275146484 53.9307975769043 C 57.36310958862305 52.87643814086914 55.051021575927734 53.80738067626953 54.07646560668945 55.11919021606445 C 38.09785079956055 69.68225860595703 32.55720901489258 75.4213638305664 35.54711151123047 73.87513732910156 C 39.57052993774414 72.50983428955078 31.866758346557617 76.8263168334961 40.03253173828125 71.3852310180664 C 36.844722747802734 73.30780792236328 23.96385383605957 82.25658416748047 55.455013275146484 53.9307975769043" fill="rgb(255, 76, 140)" opacity="1.0" stroke-width="2.0"/>
    <path d="M 434.1043701171875 422.37274169921875 C 400.77392578125 513.069580078125 229.7556915283203 533.642822265625 150.90870666503906 489.723388671875 C 28.571250915527344 432.10797119140625 41.016117095947266 349.0233459472656 52.84041976928711 447.27191162109375 C 58.10383224487305 478.5107116699219 56.307334899902344 472.0759582519531 46.48379898071289 406.19464111328125 C -34.007774353027344 268.8673400878906 -8.004735946655273 268.97088623046875 434.1043701171875 422.37274169921875" fill="rgb(6, 4, 4)" opacity="1.0" stroke-width="2.0"/>
    <path d="M 48.83023452758789 371.92108154296875 C -22.530170440673828 212.4627685546875 10.182295799255371 102.46833038330078 135.31369018554688 30.568269729614258 C 363.0887145996094 62.01133728027344 332.2659912109375 66.38772583007812 527.6782836914062 160.23696899414062 C 516.8958740234375 348.4062194824219 474.4599304199219 419.5093688964844 401.1319580078125 458.8324279785156 C 223.13674926757812 522.4681396484375 130.39224243164062 488.4616394042969 48.83023452758789 371.92108154296875" fill="rgb(240, 208, 105)" opacity="1.0" stroke-width="2.0"/>
    <path d="M 421.96710205078125 178.30751037597656 C 423.4322814941406 213.54904174804688 380.96392822265625 234.21060180664062 353.94073486328125 207.87057495117188 C 355.5700988769531 214.7039031982422 365.56280517578125 229.4259796142578 361.2693786621094 222.89295959472656 C 350.24737548828125 205.54396057128906 339.7936706542969 177.00828552246094 375.5709533691406 199.1400604248047 C 413.60186767578125 206.10606384277344 395.8580322265625 152.243896484375 421.96710205078125 178.30751037597656" fill="rgb(2, 1, 3)" opacity="1.0" stroke-width="2.0"/>
    <path d="M 199.2073516845703 138.58120727539062 C 118.72057342529297 200.51397705078125 245.50901794433594 265.53021240234375 253.99806213378906 176.41815185546875 C 245.1235809326172 122.31122589111328 158.89390563964844 147.2247772216797 358.4936218261719 149.00112915039062 C 372.1930847167969 164.023681640625 358.643798828125 151.1334686279297 324.9435119628906 124.27490234375 C 186.78237915039062 83.24778747558594 190.918212890625 93.78162384033203 199.2073516845703 138.58120727539062" fill="rgb(68, 67, 66)" opacity="1.0" stroke-width="2.0"/>
    <path d="M 410.2434997558594 151.40512084960938 C 431.8605651855469 175.62945556640625 418.04864501953125 194.03970336914062 412.8715515136719 199.92539978027344 C 398.97528076171875 179.39373779296875 405.2482604980469 140.39178466796875 349.63800048828125 171.4793243408203 C 335.1735534667969 160.5283660888672 375.25799560546875 120.06228637695312 410.2434997558594 151.40512084960938" fill="rgb(1, 1, 2)" opacity="1.0" stroke-width="2.0"/>
    <path d="M 266.86651611328125 -11.918898582458496 C 146.9960174560547 15.641876220703125 103.18750762939453 99.81365966796875 123.93163299560547 120.44786071777344 C 328.11572265625 103.53643798828125 288.81536865234375 77.48725891113281 308.28009033203125 95.70030975341797 C 269.8800354003906 111.4334716796875 258.6012268066406 94.6832046508789 345.5104675292969 99.67781829833984 C 410.74212646484375 173.6493377685547 328.6433410644531 154.8367462158203 99.34040832519531 124.90969848632812 C 330.27392578125 98.93086242675781 376.2453308105469 85.86054229736328 266.86651611328125 -11.918898582458496" fill="rgb(251, 222, 109)" opacity="1.0" stroke-width="2.0"/>
    <path d="M 37.23965072631836 165.41163635253906 C 22.56391143798828 215.21238708496094 12.77264404296875 249.79649353027344 31.905780792236328 130.74977111816406 C 42.826717376708984 116.84648132324219 -30.366724014282227 210.96119689941406 13.714577674865723 340.7677307128906 C 40.659278869628906 376.6391906738281 -6.912937641143799 146.68568420410156 55.34673309326172 98.34562683105469 C 101.88381958007812 24.371353149414062 248.20960998535156 -27.752426147460938 273.2587585449219 18.299226760864258 C 107.46243286132812 19.096729278564453 54.16084289550781 131.2648162841797 37.23965072631836 165.41163635253906" fill="rgb(3, 2, 2)" opacity="1.0" stroke-width="2.0"/>
    <path d="M 353.2014465332031 191.0295867919922 C 372.56390380859375 179.4022216796875 348.3548583984375 183.0936737060547 387.62054443359375 212.04409790039062 C 362.6938781738281 232.5790252685547 323.4162292480469 188.05429077148438 352.47943115234375 153.1041259765625 C 420.4684143066406 155.7346954345703 355.1368408203125 152.15013122558594 362.6576232910156 184.5197296142578 C 414.9931640625 149.53042602539062 397.7397155761719 161.23599243164062 403.43695068359375 209.08338928222656 C 422.7430419921875 140.9498748779297 400.766845703125 158.735107421875 353.2014465332031 191.0295867919922" fill="rgb(1, 0, 1)" opacity="1.0" stroke-width="2.0"/>
    <path d="M 469.0549621582031 107.38385772705078 C 324.91827392578125 -43.4483528137207 273.1092834472656 -37.867340087890625 387.9575500488281 24.58458137512207 C 332.52880859375 33.073638916015625 309.0685729980469 -36.334659576416016 309.91748046875 62.883426666259766 C 414.3179931640625 64.1717758178711 550.6741333007812 265.2769470214844 469.0549621582031 107.38385772705078" fill="rgb(135, 128, 65)" opacity="1.0" stroke-width="2.0"/>
  </g>
</svg>
