<?xml version="1.0" ?>
<svg height="512" version="1.1" width="512" xmlns="http://www.w3.org/2000/svg">
  <defs/>
  <g>
    <path d="M 55.1578254699707 54.31884002685547 C 55.189937591552734 53.40810012817383 55.98125457763672 53.74185562133789 54.395225524902344 54.722923278808594 C 38.139259338378906 69.70894622802734 33.35760498046875 75.03181457519531 36.56170654296875 73.27509307861328 C 36.903079986572266 72.7369384765625 32.230716705322266 76.32726287841797 40.222652435302734 72.77740478515625 C 38.021446228027344 73.02423858642578 24.27861976623535 81.8504409790039 55.1578254699707 54.31884002685547" fill="rgb(255, 88, 154)" opacity="1.0" stroke-width="2.0"/>
    <path d="M 504.0361022949219 327.5715026855469 C 434.6235046386719 522.8563232421875 244.5416259765625 537.9078369140625 147.0890655517578 488.0328063964844 C 36.960147857666016 435.77850341796875 34.316078186035156 347.6308898925781 54.53664016723633 450.629638671875 C 60.33617401123047 475.8311462402344 58.447330474853516 469.8905029296875 44.20431137084961 401.51727294921875 C -39.238590240478516 263.9697570800781 7.218048572540283 258.8380432128906 504.0361022949219 327.5715026855469" fill="rgb(3, 2, 2)" opacity="1.0" stroke-width="2.0"/>
    <path d="M 47.213565826416016 366.5521545410156 C -22.40901756286621 211.87002563476562 9.268957138061523 96.31073760986328 148.4231414794922 22.697185516357422 C 425.3433532714844 -9.064664840698242 364.2096252441406 30.39396095275879 507.60028076171875 203.16127014160156 C 525.6151733398438 338.7095642089844 488.9492492675781 312.9430236816406 430.52679443359375 417.1960754394531 C 295.71923828125 547.1427612304688 115.21443176269531 493.5754699707031 47.213565826416016 366.5521545410156" fill="rgb(248, 215, 108)" opacity="1.0" stroke-width="2.0"/>
    <path d="M 422.1844482421875 177.80023193359375 C 423.42181396484375 214.30648803710938 381.1180419921875 233.82337951660156 354.11907958984375 208.44834899902344 C 356.15411376953125 213.8143768310547 364.7145690917969 228.78875732421875 361.192626953125 222.496337890625 C 351.5585021972656 204.0868377685547 339.1188659667969 180.10874938964844 376.2984619140625 199.27871704101562 C 413.1205139160156 205.89334106445312 396.5789489746094 151.50851440429688 422.1844482421875 177.80023193359375" fill="rgb(3, 2, 3)" opacity="1.0" stroke-width="2.0"/>
    <path d="M 202.73843383789062 139.4254913330078 C 128.39083862304688 176.9872283935547 210.029296875 262.5270080566406 251.11346435546875 195.3350372314453 C 271.5118103027344 114.28649139404297 126.9400863647461 150.10235595703125 354.324462890625 141.31146240234375 C 373.0030212402344 153.3170623779297 359.8887023925781 143.5178680419922 325.07000732421875 125.5827407836914 C 186.5270538330078 84.35038757324219 191.20394897460938 93.95000457763672 202.73843383789062 139.4254913330078" fill="rgb(66, 66, 65)" opacity="1.0" stroke-width="2.0"/>
    <path d="M 410.02008056640625 151.081298828125 C 431.68499755859375 173.87921142578125 419.3219299316406 197.54644775390625 410.3051452636719 201.37037658691406 C 401.3683166503906 180.70455932617188 404.87823486328125 140.47401428222656 350.68359375 170.95877075195312 C 335.421630859375 159.1573944091797 376.68463134765625 121.02217102050781 410.02008056640625 151.081298828125" fill="rgb(1, 0, 1)" opacity="1.0" stroke-width="2.0"/>
    <path d="M 253.5801239013672 -3.237738609313965 C 145.67428588867188 8.714314460754395 100.84906768798828 93.0406723022461 120.42813110351562 126.00225067138672 C 329.8677673339844 103.34532928466797 292.7325744628906 80.36541748046875 311.1821594238281 88.65119934082031 C 270.3599853515625 109.54386138916016 259.5410461425781 95.90034484863281 360.9789123535156 72.10354614257812 C 423.1937255859375 171.71658325195312 336.62255859375 146.5619354248047 96.13875579833984 131.5790557861328 C 353.7640380859375 95.62325286865234 402.3626708984375 76.44547271728516 253.5801239013672 -3.237738609313965" fill="rgb(252, 222, 109)" opacity="1.0" stroke-width="2.0"/>
    <path d="M 30.262531280517578 187.14559936523438 C 24.908157348632812 214.68576049804688 12.749176025390625 245.81394958496094 32.09090042114258 130.1180419921875 C 42.992218017578125 116.20164489746094 -31.379608154296875 212.2729949951172 14.35267162322998 342.7330322265625 C 37.10670471191406 383.45330810546875 -3.078627586364746 141.06642150878906 53.71561813354492 100.91124725341797 C 120.22498321533203 -2.5094828605651855 297.87994384765625 -20.550058364868164 261.4765930175781 19.391551971435547 C 112.27643585205078 21.144245147705078 46.44392395019531 130.8851776123047 30.262531280517578 187.14559936523438" fill="rgb(1, 1, 1)" opacity="1.0" stroke-width="2.0"/>
    <path d="M 353.7196044921875 190.37860107421875 C 374.5008239746094 177.5031280517578 346.5362548828125 187.05116271972656 389.2580871582031 207.86581420898438 C 362.4244689941406 235.3922576904297 324.1634216308594 187.42721557617188 351.66131591796875 153.98526000976562 C 420.7079772949219 160.705078125 356.4608154296875 149.19049072265625 362.5201416015625 184.48443603515625 C 415.3511657714844 149.33534240722656 397.8710632324219 160.86805725097656 403.3433532714844 209.1238250732422 C 421.5256652832031 140.76773071289062 400.94696044921875 159.13470458984375 353.7196044921875 190.37860107421875" fill="rgb(1, 1, 2)" opacity="1.0" stroke-width="2.0"/>
    <path d="M 498.8342590332031 154.5160675048828 C 346.9853210449219 -49.034332275390625 324.2458190917969 -81.81285095214844 436.2359619140625 71.05044555664062 C 364.01739501953125 9.173480033874512 286.9938049316406 -8.035737037658691 320.13232421875 33.189876556396484 C 502.7812805175781 46.11328125 538.1422119140625 459.8692932128906 498.8342590332031 154.5160675048828" fill="rgb(34, 32, 24)" opacity="1.0" stroke-width="2.0"/>
  </g>
</svg>
