<?xml version="1.0" ?>
<svg height="512" version="1.1" width="512" xmlns="http://www.w3.org/2000/svg">
  <defs/>
  <g>
    <path d="M 55.44123077392578 54.02045822143555 C 56.62425994873047 53.274147033691406 55.12189865112305 54.0970344543457 54.39038848876953 55.28122329711914 C 38.265098571777344 69.8786392211914 32.81400680541992 75.53829193115234 36.251548767089844 73.86566162109375 C 37.99152755737305 72.39756774902344 31.406068801879883 76.68476867675781 39.775875091552734 71.88134765625 C 37.58605194091797 72.816162109375 24.440221786499023 82.22533416748047 55.44123077392578 54.02045822143555" fill="rgb(255, 83, 147)" opacity="1.0" stroke-width="2.0"/>
    <path d="M 487.27349853515625 369.0154724121094 C 406.79864501953125 518.5953979492188 250.5014190673828 537.0310668945312 147.79812622070312 488.8515930175781 C 34.4338493347168 433.4768981933594 35.78655242919922 348.31103515625 53.654571533203125 449.78607177734375 C 59.33676528930664 476.67633056640625 57.67829513549805 470.475341796875 44.16749954223633 401.5626220703125 C -37.262611389160156 265.87030029296875 2.6890528202056885 262.84259033203125 487.27349853515625 369.0154724121094" fill="rgb(2, 1, 2)" opacity="1.0" stroke-width="2.0"/>
    <path d="M 49.40831756591797 370.2779846191406 C -24.238536834716797 216.37962341308594 8.739033699035645 96.9732894897461 148.59457397460938 22.407344818115234 C 430.91473388671875 -10.245908737182617 354.55316162109375 30.046245574951172 512.5335693359375 196.39617919921875 C 519.06591796875 391.0223083496094 471.19036865234375 350.7113037109375 411.3950500488281 435.1527404785156 C 280.059326171875 539.3810424804688 116.63463592529297 490.0443420410156 49.40831756591797 370.2779846191406" fill="rgb(246, 213, 107)" opacity="1.0" stroke-width="2.0"/>
    <path d="M 422.156494140625 177.8509521484375 C 423.2491760253906 214.2445831298828 380.7781677246094 234.0603485107422 353.9603271484375 208.0780029296875 C 356.03350830078125 213.9676055908203 364.7296142578125 229.23020935058594 361.3443603515625 222.564453125 C 351.0572509765625 204.7110137939453 339.74810791015625 177.56182861328125 375.7146911621094 199.3184814453125 C 413.2328186035156 206.1713409423828 396.25323486328125 151.8539276123047 422.156494140625 177.8509521484375" fill="rgb(2, 1, 3)" opacity="1.0" stroke-width="2.0"/>
    <path d="M 200.89212036132812 139.25270080566406 C 124.8843994140625 185.65968322753906 222.34573364257812 264.3402404785156 252.8665313720703 189.13748168945312 C 261.72052001953125 116.55303192138672 139.79090881347656 150.36288452148438 356.45306396484375 144.0592498779297 C 372.8919677734375 156.34095764160156 359.75579833984375 144.89822387695312 325.2808837890625 124.71755981445312 C 186.65365600585938 83.76437377929688 191.02597045898438 93.86772155761719 200.89212036132812 139.25270080566406" fill="rgb(67, 66, 65)" opacity="1.0" stroke-width="2.0"/>
    <path d="M 410.31146240234375 151.08897399902344 C 431.5924987792969 174.5808868408203 418.53076171875 196.12290954589844 411.7406005859375 200.7437286376953 C 400.3771667480469 179.9756317138672 404.98028564453125 140.21170043945312 350.44049072265625 171.1956024169922 C 335.3739318847656 159.82052612304688 376.1259765625 120.89501953125 410.31146240234375 151.08897399902344" fill="rgb(1, 0, 1)" opacity="1.0" stroke-width="2.0"/>
    <path d="M 254.63572692871094 -1.2273287773132324 C 145.82577514648438 9.21367073059082 101.37016296386719 93.68206787109375 121.32357025146484 123.62850189208984 C 328.6334228515625 103.05775451660156 291.3880920410156 78.63276672363281 310.33148193359375 88.22653198242188 C 269.9073181152344 105.84806060791016 258.955322265625 88.31877899169922 355.21533203125 78.09930419921875 C 418.0877990722656 175.86813354492188 333.7016296386719 150.13792419433594 97.65512084960938 128.4152374267578 C 353.44610595703125 96.66529083251953 403.71942138671875 70.92228698730469 254.63572692871094 -1.2273287773132324" fill="rgb(252, 222, 108)" opacity="1.0" stroke-width="2.0"/>
    <path d="M 32.684452056884766 178.58407592773438 C 24.342897415161133 214.0184326171875 12.370113372802734 250.59637451171875 32.0350227355957 130.35935974121094 C 42.93775939941406 116.62890625 -30.95766830444336 211.89109802246094 14.13778305053711 341.9712219238281 C 38.9790153503418 380.916748046875 -5.642426013946533 142.15382385253906 55.03748321533203 99.60356903076172 C 108.74662017822266 11.173627853393555 277.2978515625 -25.52353858947754 267.173095703125 18.899307250976562 C 110.28427124023438 20.03495216369629 49.33707809448242 131.3849334716797 32.684452056884766 178.58407592773438" fill="rgb(2, 1, 2)" opacity="1.0" stroke-width="2.0"/>
    <path d="M 353.5286560058594 190.57406616210938 C 373.8887634277344 178.18362426757812 347.2712707519531 185.3857879638672 388.7991027832031 209.65565490722656 C 362.5246276855469 234.39425659179688 323.9175720214844 187.624267578125 351.7998352050781 153.565185546875 C 420.68194580078125 158.3362274169922 355.97308349609375 150.3222198486328 362.6578063964844 184.36758422851562 C 415.11712646484375 149.22499084472656 398.14544677734375 160.966552734375 403.2335510253906 209.0181884765625 C 421.9389953613281 140.64544677734375 400.78076171875 158.82032775878906 353.5286560058594 190.57406616210938" fill="rgb(1, 1, 2)" opacity="1.0" stroke-width="2.0"/>
    <path d="M 484.9668273925781 127.30076599121094 C 332.6599426269531 -37.33704376220703 302.56610107421875 -71.47389221191406 414.47259521484375 51.763797760009766 C 356.00018310546875 14.344313621520996 294.6177062988281 -7.703444480895996 317.0346984863281 29.412137985229492 C 465.5074462890625 35.66305160522461 558.8679809570312 397.6431884765625 484.9668273925781 127.30076599121094" fill="rgb(34, 31, 25)" opacity="1.0" stroke-width="2.0"/>
  </g>
</svg>
