<?xml version="1.0" ?>
<svg height="512" version="1.1" width="512" xmlns="http://www.w3.org/2000/svg">
  <defs/>
  <g>
    <path d="M 55.42689895629883 53.568328857421875 C 58.54684829711914 51.72991943359375 55.865474700927734 53.419715881347656 54.02362823486328 54.78731918334961 C 36.89064407348633 68.55652618408203 30.283647537231445 73.76821899414062 30.562349319458008 72.72645568847656 C 37.4661865234375 67.73087310791016 28.05557632446289 74.07775115966797 36.13226318359375 68.98577117919922 C 30.19066047668457 71.75402069091797 21.405033111572266 81.16119384765625 55.42689895629883 53.568328857421875" fill="rgb(255, 63, 125)" opacity="1.0" stroke-width="2.0"/>
    <path d="M 238.38658142089844 412.78314208984375 C 253.74929809570312 553.1126708984375 204.14822387695312 521.65576171875 90.35838317871094 456.42132568359375 C 50.131507873535156 402.2595520019531 43.187034606933594 423.9034118652344 69.99170684814453 455.9745788574219 C 77.4215087890625 476.3946838378906 75.65031433105469 471.38665771484375 71.30545043945312 459.0055847167969 C 46.0957145690918 415.67718505859375 -1.0715651512145996 385.8763122558594 238.38658142089844 412.78314208984375" fill="rgb(156, 136, 70)" opacity="1.0" stroke-width="2.0"/>
    <path d="M 124.02880859375 425.38525390625 C 116.94795227050781 183.8139190673828 126.4887466430664 183.39505004882812 145.42677307128906 174.9705352783203 C 209.45272827148438 196.8988037109375 216.37631225585938 210.9633331298828 408.67529296875 208.6018829345703 C 414.6640319824219 405.341552734375 404.569091796875 412.1354675292969 399.71142578125 442.9031982421875 C 159.86627197265625 435.65728759765625 151.91629028320312 438.5028991699219 124.02880859375 425.38525390625" fill="rgb(253, 222, 108)" opacity="1.0" stroke-width="2.0"/>
    <path d="M 422.1528625488281 181.87034606933594 C 420.9480895996094 210.61814880371094 387.3874206542969 234.17373657226562 354.7281188964844 209.35926818847656 C 356.4295959472656 213.8713836669922 367.7582092285156 233.26889038085938 364.5939636230469 226.10986328125 C 352.4724426269531 213.96713256835938 346.5058288574219 183.79750061035156 380.2120666503906 200.03338623046875 C 406.1506042480469 202.18418884277344 405.20513916015625 154.71165466308594 422.1528625488281 181.87034606933594" fill="rgb(5, 2, 2)" opacity="1.0" stroke-width="2.0"/>
    <path d="M 151.35333251953125 158.91085815429688 C 182.66168212890625 246.9575653076172 234.80162048339844 212.0961151123047 248.10501098632812 211.4033660888672 C 286.29437255859375 206.6441192626953 292.2012634277344 199.7644500732422 358.57586669921875 208.73582458496094 C 371.9173583984375 174.02940368652344 356.28448486328125 164.8740692138672 326.9122619628906 131.6105194091797 C 198.88491821289062 98.17405700683594 197.68484497070312 108.98274993896484 151.35333251953125 158.91085815429688" fill="rgb(168, 148, 90)" opacity="1.0" stroke-width="2.0"/>
    <path d="M 412.5104064941406 152.92483520507812 C 430.6527404785156 179.62213134765625 417.5458679199219 185.11244201660156 420.9713134765625 196.66859436035156 C 411.9500732421875 181.22201538085938 409.7995300292969 146.38916015625 342.1642761230469 166.37020874023438 C 343.2442321777344 166.47171020507812 372.3373718261719 116.4786148071289 412.5104064941406 152.92483520507812" fill="rgb(5, 2, 1)" opacity="1.0" stroke-width="2.0"/>
    <path d="M 284.34759521484375 -15.884241104125977 C 209.76458740234375 26.3365535736084 213.38768005371094 99.075927734375 262.2737731933594 120.52092742919922 C 307.71343994140625 150.97950744628906 289.4089660644531 107.9721450805664 307.24456787109375 106.79022979736328 C 270.0340270996094 119.18084716796875 258.55303955078125 117.19393920898438 286.89703369140625 163.19403076171875 C 321.21868896484375 179.11572265625 291.27178955078125 212.1125030517578 211.146484375 110.07637023925781 C 305.2250061035156 97.12549591064453 343.0039978027344 102.20352172851562 284.34759521484375 -15.884241104125977" fill="rgb(249, 220, 113)" opacity="1.0" stroke-width="2.0"/>
    <path d="M 67.5587387084961 113.0681381225586 C 26.196313858032227 178.78759765625 35.57324981689453 182.7737274169922 48.8216667175293 103.77324676513672 C 37.00779342651367 124.60054779052734 1.0470867156982422 166.36557006835938 -0.44639697670936584 255.20822143554688 C 36.43220138549805 247.64675903320312 33.766937255859375 141.34535217285156 53.131134033203125 96.52894592285156 C 107.85509490966797 41.259090423583984 137.46047973632812 17.01072120666504 181.8197479248047 24.095130920410156 C 41.945621490478516 112.42167663574219 84.54389953613281 109.94147491455078 67.5587387084961 113.0681381225586" fill="rgb(14, 3, 3)" opacity="1.0" stroke-width="2.0"/>
    <path d="M 350.20587158203125 192.28338623046875 C 367.30352783203125 181.64613342285156 356.7643127441406 180.54310607910156 385.7324523925781 219.91696166992188 C 359.7406921386719 211.19415283203125 334.4007568359375 212.43601989746094 346.1209716796875 152.67674255371094 C 406.631591796875 144.95997619628906 349.90594482421875 171.08596801757812 364.047607421875 184.32931518554688 C 414.1178283691406 149.47177124023438 391.44354248046875 167.61016845703125 410.3338928222656 206.7762908935547 C 422.0158996582031 136.39633178710938 406.0168151855469 159.0562744140625 350.20587158203125 192.28338623046875" fill="rgb(0, 0, 1)" opacity="1.0" stroke-width="2.0"/>
    <path d="M 415.1454772949219 5.299237251281738 C 246.34326171875 28.963096618652344 275.65472412109375 40.39987564086914 320.7696533203125 5.361560344696045 C 325.4000549316406 45.02006149291992 237.67698669433594 53.00574493408203 250.79226684570312 185.49513244628906 C 351.5736389160156 170.8404998779297 408.0627746582031 152.62335205078125 415.1454772949219 5.299237251281738" fill="rgb(230, 209, 110)" opacity="1.0" stroke-width="2.0"/>
  </g>
</svg>
