<?xml version="1.0" ?>
<svg height="512" version="1.1" width="512" xmlns="http://www.w3.org/2000/svg">
  <defs/>
  <g>
    <path d="M 55.528045654296875 53.761592864990234 C 58.220401763916016 52.20661163330078 55.39495849609375 53.542476654052734 54.07802963256836 54.951316833496094 C 36.79499435424805 68.39707946777344 30.531328201293945 73.55944061279297 32.29133605957031 72.49732971191406 C 35.71869659423828 68.79182434082031 28.075712203979492 74.95907592773438 36.4727783203125 68.84196472167969 C 32.867454528808594 71.99952697753906 21.67608642578125 80.65401458740234 55.528045654296875 53.761592864990234" fill="rgb(255, 67, 130)" opacity="1.0" stroke-width="2.0"/>
    <path d="M 330.8934631347656 402.1563720703125 C 341.583251953125 580.5764770507812 274.9186096191406 536.4442138671875 124.305419921875 479.3949279785156 C 24.75311851501465 401.0686340332031 47.1230354309082 389.1483154296875 62.645267486572266 446.5430908203125 C 74.28311157226562 476.5101318359375 69.87104797363281 463.7958068847656 51.97577667236328 416.9875183105469 C -9.071220397949219 294.3663635253906 -54.1575813293457 302.05322265625 330.8934631347656 402.1563720703125" fill="rgb(18, 17, 15)" opacity="1.0" stroke-width="2.0"/>
    <path d="M 42.36674499511719 373.044677734375 C -0.9434584379196167 155.16827392578125 18.925769805908203 103.50748443603516 119.45311737060547 53.77989959716797 C 301.6302795410156 135.24656677246094 208.39346313476562 156.74940490722656 524.208251953125 104.70005798339844 C 523.6458740234375 404.9174499511719 473.21728515625 369.8836669921875 392.45654296875 488.38604736328125 C 135.48973083496094 497.918701171875 155.38430786132812 481.2778625488281 42.36674499511719 373.044677734375" fill="rgb(236, 205, 105)" opacity="1.0" stroke-width="2.0"/>
    <path d="M 422.0263671875 179.74343872070312 C 422.9531555175781 212.0141143798828 382.1880187988281 235.5426025390625 352.90264892578125 207.50352478027344 C 354.2265625 214.79177856445312 367.28985595703125 230.63430786132812 361.8866882324219 223.2588653564453 C 349.3054504394531 208.65423583984375 340.834716796875 177.27210998535156 375.5685729980469 199.30177307128906 C 412.5893859863281 206.55784606933594 396.0161437988281 153.23609924316406 422.0263671875 179.74343872070312" fill="rgb(2, 1, 2)" opacity="1.0" stroke-width="2.0"/>
    <path d="M 174.90638732910156 138.11029052734375 C 158.80006408691406 255.94064331054688 245.03549194335938 220.8076629638672 254.15115356445312 191.83282470703125 C 245.21888732910156 148.18692016601562 274.9352111816406 145.34567260742188 360.3337707519531 157.39674377441406 C 370.34521484375 180.6407928466797 354.86260986328125 168.39366149902344 321.920654296875 125.28227996826172 C 186.19642639160156 82.97367858886719 185.08200073242188 93.29426574707031 174.90638732910156 138.11029052734375" fill="rgb(90, 83, 71)" opacity="1.0" stroke-width="2.0"/>
    <path d="M 411.832275390625 152.37681579589844 C 431.4659118652344 178.0644073486328 416.8956298828125 189.84527587890625 413.5865173339844 197.8319091796875 C 401.4914855957031 180.33236694335938 405.96771240234375 142.14808654785156 346.924072265625 169.59475708007812 C 338.780517578125 163.9672393798828 371.004638671875 118.21973419189453 411.832275390625 152.37681579589844" fill="rgb(1, 1, 2)" opacity="1.0" stroke-width="2.0"/>
    <path d="M 236.68667602539062 -38.602821350097656 C 145.58050537109375 -11.95934009552002 115.40547180175781 113.47071838378906 139.19850158691406 107.52708435058594 C 332.8846435546875 104.4083023071289 290.524658203125 93.5343017578125 307.2371826171875 106.41149139404297 C 269.7668762207031 119.26038360595703 258.2823791503906 116.85298156738281 334.36572265625 128.59730529785156 C 397.0995788574219 158.73622131347656 315.6999816894531 182.54281616210938 114.00342559814453 108.4894027709961 C 320.52392578125 103.14901733398438 355.1645812988281 108.30000305175781 236.68667602539062 -38.602821350097656" fill="rgb(244, 216, 110)" opacity="1.0" stroke-width="2.0"/>
    <path d="M 60.280269622802734 119.45259857177734 C 20.171926498413086 202.76783752441406 16.03760528564453 218.36434936523438 38.914974212646484 110.41002655029297 C 44.929595947265625 123.32070922851562 -25.24599266052246 189.01034545898438 9.193202018737793 328.4813537597656 C 42.69344711303711 347.3689270019531 -1.5796325206756592 153.38027954101562 53.980525970458984 98.82592010498047 C 96.14505004882812 37.909454345703125 203.50802612304688 -17.04631996154785 265.7777404785156 8.327260971069336 C 54.18668746948242 59.69637680053711 88.9824447631836 118.21763610839844 60.280269622802734 119.45259857177734" fill="rgb(9, 7, 5)" opacity="1.0" stroke-width="2.0"/>
    <path d="M 352.13348388671875 191.9420623779297 C 370.82977294921875 180.7025146484375 350.94287109375 178.6956329345703 386.4183349609375 218.98251342773438 C 364.2159423828125 221.83180236816406 321.5653381347656 194.25204467773438 353.6267395019531 150.993896484375 C 417.97003173828125 148.5553436279297 353.3529357910156 157.9609832763672 362.7679138183594 184.14002990722656 C 411.1300354003906 151.02780151367188 393.3114318847656 162.583251953125 410.7099609375 208.58502197265625 C 424.1910095214844 141.1677703857422 399.93560791015625 157.80401611328125 352.13348388671875 191.9420623779297" fill="rgb(2, 2, 3)" opacity="1.0" stroke-width="2.0"/>
    <path d="M 463.6800231933594 83.9502182006836 C 274.1439208984375 -35.9389762878418 285.05267333984375 -15.981661796569824 343.1558532714844 9.811480522155762 C 312.2110595703125 14.25357437133789 195.69679260253906 -15.659384727478027 251.2759552001953 169.3505401611328 C 371.2915344238281 89.34609985351562 496.9313659667969 201.2667999267578 463.6800231933594 83.9502182006836" fill="rgb(217, 192, 98)" opacity="1.0" stroke-width="2.0"/>
  </g>
</svg>
