<?xml version="1.0" ?>
<svg height="512" version="1.1" width="512" xmlns="http://www.w3.org/2000/svg">
  <defs/>
  <g>
    <path d="M 55.5009651184082 53.93389892578125 C 57.47153854370117 52.55284118652344 55.28300476074219 53.74351501464844 54.24119567871094 55.22751235961914 C 38.091651916503906 69.64891052246094 32.72698211669922 75.4393310546875 35.372676849365234 73.82401275634766 C 39.203712463378906 71.1050796508789 32.01918029785156 76.5149917602539 39.774879455566406 70.5831298828125 C 37.02619171142578 73.50909423828125 24.07492446899414 82.417724609375 55.5009651184082 53.93389892578125" fill="rgb(255, 73, 136)" opacity="1.0" stroke-width="2.0"/>
    <path d="M 395.0986328125 400.837646484375 C 380.4629211425781 535.582275390625 251.7566375732422 528.7147827148438 147.6805419921875 489.9811096191406 C 24.29224395751953 423.0007019042969 41.98903274536133 355.41168212890625 54.498878479003906 445.2711486816406 C 60.92610168457031 478.73968505859375 58.82828140258789 470.6619567871094 47.86879348754883 408.40667724609375 C -31.072343826293945 272.93609619140625 -13.814105987548828 273.8776550292969 395.0986328125 400.837646484375" fill="rgb(7, 6, 6)" opacity="1.0" stroke-width="2.0"/>
    <path d="M 47.4548454284668 368.7032775878906 C -22.992694854736328 206.5144500732422 8.843988418579102 104.09675598144531 136.0979461669922 34.819610595703125 C 320.2338562011719 99.6631088256836 244.2966766357422 111.66946411132812 526.9747314453125 146.57855224609375 C 515.5858154296875 365.64190673828125 475.79022216796875 412.7120666503906 388.6625671386719 476.6351318359375 C 207.14112854003906 511.3498229980469 123.09584045410156 484.018310546875 47.4548454284668 368.7032775878906" fill="rgb(238, 206, 104)" opacity="1.0" stroke-width="2.0"/>
    <path d="M 422.04962158203125 178.28945922851562 C 423.2041320800781 213.37998962402344 381.6748962402344 234.54183959960938 353.5015563964844 207.91940307617188 C 355.5117492675781 214.67115783691406 366.2689514160156 229.44488525390625 361.64361572265625 222.81639099121094 C 350.02313232421875 205.84767150878906 340.02081298828125 176.0850830078125 375.8463439941406 199.16262817382812 C 413.8739318847656 206.434326171875 395.1857604980469 152.46078491210938 422.04962158203125 178.28945922851562" fill="rgb(2, 1, 2)" opacity="1.0" stroke-width="2.0"/>
    <path d="M 196.8714141845703 139.65159606933594 C 118.80032348632812 206.07095336914062 254.10435485839844 266.0862731933594 253.68246459960938 169.5165252685547 C 232.1710968017578 125.5760726928711 182.065673828125 140.3823699951172 359.38409423828125 150.80226135253906 C 371.7496337890625 168.4329071044922 357.88470458984375 154.96971130371094 324.6490173339844 124.06851959228516 C 186.81422424316406 83.05792999267578 190.66656494140625 93.7698745727539 196.8714141845703 139.65159606933594" fill="rgb(68, 67, 66)" opacity="1.0" stroke-width="2.0"/>
    <path d="M 410.5815734863281 151.46014404296875 C 431.79327392578125 175.9642791748047 417.3267822265625 192.99269104003906 413.3536682128906 199.3982696533203 C 398.6119079589844 179.11415100097656 405.46026611328125 140.51913452148438 349.169189453125 171.55555725097656 C 335.34210205078125 161.44686889648438 374.9974060058594 119.95279693603516 410.5815734863281 151.46014404296875" fill="rgb(1, 0, 1)" opacity="1.0" stroke-width="2.0"/>
    <path d="M 254.27005004882812 -6.5820770263671875 C 147.96900939941406 15.710577964782715 104.98591613769531 105.91262817382812 126.2720947265625 118.1391830444336 C 331.471435546875 105.57952880859375 289.8699035644531 83.4598159790039 307.178466796875 104.76448059082031 C 269.7724914550781 119.0143814086914 258.3399353027344 113.01396942138672 338.554931640625 117.57779693603516 C 404.2939147949219 166.5413818359375 324.07879638671875 158.87632751464844 100.89349365234375 122.70516204833984 C 323.6998596191406 98.69347381591797 359.019287109375 107.80343627929688 254.27005004882812 -6.5820770263671875" fill="rgb(251, 221, 108)" opacity="1.0" stroke-width="2.0"/>
    <path d="M 41.56006622314453 155.75611877441406 C 20.924673080444336 216.44244384765625 13.157333374023438 246.20155334472656 32.6556510925293 128.89173889160156 C 42.48928451538086 117.30721282958984 -30.06070327758789 210.0889129638672 13.406892776489258 340.0032958984375 C 40.40580368041992 374.1330261230469 -6.655655860900879 150.78062438964844 55.4858512878418 97.68135833740234 C 99.90660858154297 29.245153427124023 237.7740936279297 -28.069318771362305 277.41741943359375 17.486547470092773 C 106.1282958984375 19.160327911376953 56.70550537109375 131.3165283203125 41.56006622314453 155.75611877441406" fill="rgb(3, 2, 2)" opacity="1.0" stroke-width="2.0"/>
    <path d="M 352.7833557128906 191.10147094726562 C 371.8599853515625 179.857666015625 349.2318115234375 181.76283264160156 386.9476013183594 213.25253295898438 C 363.2123107910156 231.2924041748047 323.1811828613281 188.03627014160156 352.6415710449219 152.92604064941406 C 420.2123718261719 154.25949096679688 354.63861083984375 153.3580780029297 362.87939453125 184.3280487060547 C 414.6946716308594 149.6681671142578 397.5414123535156 161.47891235351562 403.99310302734375 209.0553436279297 C 422.9701843261719 140.87574768066406 400.6194152832031 158.5110626220703 352.7833557128906 191.10147094726562" fill="rgb(1, 1, 2)" opacity="1.0" stroke-width="2.0"/>
    <path d="M 468.52606201171875 104.10600280761719 C 312.3749084472656 -45.720523834228516 269.35968017578125 -23.13722801208496 374.5379638671875 17.705429077148438 C 322.00994873046875 20.82999038696289 263.80322265625 -37.318599700927734 252.7520751953125 125.24288940429688 C 391.775634765625 75.81465911865234 535.041015625 232.07286071777344 468.52606201171875 104.10600280761719" fill="rgb(199, 177, 90)" opacity="1.0" stroke-width="2.0"/>
  </g>
</svg>
