<?xml version="1.0" ?>
<svg height="512" version="1.1" width="512" xmlns="http://www.w3.org/2000/svg">
  <defs/>
  <g>
    <path d="M 55.38426208496094 53.63856887817383 C 58.15778732299805 51.80413055419922 55.47355651855469 53.39263153076172 54.07489013671875 54.88762664794922 C 36.635032653808594 68.2499771118164 29.984434127807617 73.14606475830078 31.04795265197754 72.08456420898438 C 36.45462417602539 68.18514251708984 28.06612777709961 74.3549575805664 35.86323547363281 68.5062484741211 C 30.746707916259766 71.96636962890625 20.638648986816406 80.0872802734375 55.38426208496094 53.63856887817383" fill="rgb(255, 65, 127)" opacity="1.0" stroke-width="2.0"/>
    <path d="M 293.3957824707031 407.5890197753906 C 308.52960205078125 576.9838256835938 249.6648406982422 537.605224609375 108.34616088867188 467.80810546875 C 25.300018310546875 395.2199401855469 52.99732971191406 398.69744873046875 72.7978286743164 444.1745300292969 C 88.5029296875 470.1975402832031 79.84098815917969 457.1972351074219 62.607906341552734 425.88482666015625 C 15.010995864868164 348.9598693847656 -45.045169830322266 341.5153503417969 293.3957824707031 407.5890197753906" fill="rgb(29, 35, 17)" opacity="1.0" stroke-width="2.0"/>
    <path d="M 73.08887481689453 410.63763427734375 C 52.2065544128418 140.97596740722656 61.68670654296875 124.21977996826172 102.48359680175781 112.88121795654297 C 241.51654052734375 171.10641479492188 229.3723907470703 182.7880401611328 470.2265625 174.1431884765625 C 477.09521484375 435.5157165527344 465.84246826171875 437.02581787109375 438.5177917480469 502.65936279296875 C 133.28927612304688 498.81915283203125 172.09339904785156 477.1153259277344 73.08887481689453 410.63763427734375" fill="rgb(243, 212, 110)" opacity="1.0" stroke-width="2.0"/>
    <path d="M 422.1390380859375 180.56507873535156 C 421.65423583984375 211.1100311279297 385.321044921875 234.4208221435547 354.38031005859375 209.16395568847656 C 354.9779357910156 214.11370849609375 367.80474853515625 230.96029663085938 362.38128662109375 224.040771484375 C 351.4617614746094 209.64736938476562 342.9369201660156 182.92160034179688 376.81005859375 199.291015625 C 410.0267028808594 206.0777587890625 399.4697570800781 153.67771911621094 422.1390380859375 180.56507873535156" fill="rgb(3, 1, 2)" opacity="1.0" stroke-width="2.0"/>
    <path d="M 146.84475708007812 138.6547088623047 C 194.36476135253906 257.4010314941406 231.4285430908203 224.04200744628906 254.66806030273438 191.17140197753906 C 263.5754699707031 175.20823669433594 300.2728271484375 176.03585815429688 359.6325988769531 177.5200958251953 C 370.3152770996094 175.45127868652344 355.9377136230469 163.52610778808594 323.4039001464844 125.304443359375 C 186.12815856933594 83.93342590332031 182.32504272460938 92.79739379882812 146.84475708007812 138.6547088623047" fill="rgb(136, 120, 81)" opacity="1.0" stroke-width="2.0"/>
    <path d="M 412.36676025390625 152.58877563476562 C 431.4231872558594 178.9191131591797 417.4192810058594 188.90899658203125 416.2162780761719 196.21063232421875 C 406.7276916503906 181.28927612304688 406.84661865234375 144.0279541015625 346.1907043457031 168.1277313232422 C 343.0741882324219 166.9349365234375 371.99615478515625 116.54488372802734 412.36676025390625 152.58877563476562" fill="rgb(2, 2, 1)" opacity="1.0" stroke-width="2.0"/>
    <path d="M 241.66880798339844 -46.40663528442383 C 157.92005920410156 -18.214923858642578 149.3218536376953 96.70420837402344 189.8354034423828 98.29630279541016 C 327.198974609375 103.14289855957031 290.1556701660156 98.39289855957031 307.22454833984375 106.85327911376953 C 269.7714538574219 119.2590103149414 258.2869873046875 116.85879516601562 316.0180358886719 144.00575256347656 C 367.4955749511719 187.9290771484375 302.3374938964844 213.58966064453125 156.1099090576172 90.73088073730469 C 317.18798828125 116.70646667480469 357.6798095703125 101.9428939819336 241.66880798339844 -46.40663528442383" fill="rgb(227, 202, 103)" opacity="1.0" stroke-width="2.0"/>
    <path d="M 63.742408752441406 116.89431762695312 C 25.323123931884766 191.12203979492188 22.829547882080078 200.76942443847656 45.607913970947266 106.8797836303711 C 40.573631286621094 122.72294616699219 -11.58933162689209 176.44032287597656 2.060948133468628 292.8357238769531 C 35.26191711425781 298.92132568359375 17.32546043395996 145.43258666992188 54.244781494140625 97.31635284423828 C 98.19558715820312 39.850624084472656 186.76254272460938 -7.404070854187012 232.99334716796875 9.847189903259277 C 38.862632751464844 87.59774780273438 95.42223358154297 111.90531921386719 63.742408752441406 116.89431762695312" fill="rgb(10, 9, 5)" opacity="1.0" stroke-width="2.0"/>
    <path d="M 351.6287841796875 191.92752075195312 C 370.349609375 180.9805145263672 351.8124084472656 178.99740600585938 386.647216796875 219.53997802734375 C 361.63623046875 212.8245849609375 326.94989013671875 205.88455200195312 350.317626953125 152.18008422851562 C 414.8348083496094 147.1279296875 351.58612060546875 161.92782592773438 362.860107421875 184.2677459716797 C 412.12640380859375 150.16598510742188 392.6029357910156 164.6963348388672 410.7218322753906 209.11537170410156 C 423.5619812011719 138.9083709716797 402.0229797363281 157.93154907226562 351.6287841796875 191.92752075195312" fill="rgb(1, 2, 2)" opacity="1.0" stroke-width="2.0"/>
    <path d="M 449.23968505859375 41.997188568115234 C 241.63868713378906 1.6918857097625732 261.4117126464844 7.423221588134766 342.6928405761719 11.484234809875488 C 313.63641357421875 25.826610565185547 197.36257934570312 -3.796433925628662 259.9635009765625 200.8280792236328 C 350.7119445800781 129.5230712890625 455.1788635253906 154.24942016601562 449.23968505859375 41.997188568115234" fill="rgb(226, 202, 106)" opacity="1.0" stroke-width="2.0"/>
  </g>
</svg>
