<?xml version="1.0" ?>
<svg height="512" version="1.1" width="512" xmlns="http://www.w3.org/2000/svg">
  <defs/>
  <g>
    <path d="M 57.63862991333008 51.97418975830078 C 63.10497283935547 48.447784423828125 52.36362838745117 52.53759765625 51.836524963378906 55.524932861328125 C 40.197105407714844 71.45962524414062 27.117816925048828 73.84928131103516 28.35377311706543 72.21336364746094 C 21.66793441772461 73.22215270996094 23.03526496887207 75.57869720458984 39.18728256225586 70.27363586425781 C 31.488426208496094 72.99217987060547 20.039958953857422 79.82624816894531 57.63862991333008 51.97418975830078" fill="rgb(232, 37, 98)" opacity="1.0" stroke-width="2.0"/>
    <path d="M 136.98098754882812 472.52252197265625 C 129.48193359375 473.2315979003906 111.5840072631836 474.37060546875 95.62834167480469 471.970703125 C 98.8510971069336 474.29644775390625 95.64875030517578 475.67645263671875 85.1188735961914 475.78448486328125 C 63.138153076171875 474.7125549316406 70.69771575927734 483.169921875 77.83025360107422 480.8385009765625 C 66.3412857055664 483.5633850097656 74.31729125976562 472.65924072265625 136.98098754882812 472.52252197265625" fill="rgb(62, 232, 33)" opacity="1.0" stroke-width="2.0"/>
    <path d="M 243.73629760742188 299.713134765625 C 242.60157775878906 277.0667419433594 253.70567321777344 286.85693359375 255.96307373046875 276.94415283203125 C 262.48553466796875 277.5315246582031 260.58123779296875 271.8575744628906 288.79559326171875 269.80230712890625 C 296.0270080566406 301.7936706542969 285.8100280761719 311.1191101074219 279.7575378417969 319.46319580078125 C 254.5042724609375 311.50787353515625 244.9192352294922 316.3092041015625 243.73629760742188 299.713134765625" fill="rgb(255, 220, 187)" opacity="1.0" stroke-width="2.0"/>
    <path d="M 417.3656005859375 217.64842224121094 C 402.607421875 218.7144317626953 386.09832763671875 219.8624267578125 372.3675231933594 220.68942260742188 C 361.80743408203125 233.33642578125 368.0809326171875 229.2108917236328 367.6921691894531 225.87879943847656 C 360.8495178222656 215.49356079101562 359.34405517578125 204.32244873046875 365.69842529296875 196.2669219970703 C 387.6595458984375 193.7496337890625 396.1343994140625 188.5133514404297 417.3656005859375 217.64842224121094" fill="rgb(150, 46, 120)" opacity="1.0" stroke-width="2.0"/>
    <path d="M 270.8854064941406 252.59214782714844 C 274.49688720703125 250.6203155517578 274.71429443359375 238.8780975341797 275.6453552246094 253.3328399658203 C 290.3003234863281 246.80299377441406 287.6353759765625 241.08657836914062 293.4668273925781 244.49020385742188 C 301.3974304199219 230.3921661376953 293.9499206542969 232.46975708007812 300.0589599609375 214.77684020996094 C 297.900390625 213.13522338867188 308.30279541015625 227.58251953125 270.8854064941406 252.59214782714844" fill="rgb(131, 198, 192)" opacity="1.0" stroke-width="2.0"/>
    <path d="M 401.97509765625 143.75302124023438 C 399.5404052734375 154.78909301757812 396.2137451171875 150.5253143310547 394.55181884765625 149.72084045410156 C 399.5399169921875 152.13314819335938 399.3943176269531 161.13197326660156 370.6485900878906 160.87008666992188 C 367.573486328125 142.4024200439453 367.491943359375 133.26751708984375 401.97509765625 143.75302124023438" fill="rgb(27, 132, 11)" opacity="1.0" stroke-width="2.0"/>
    <path d="M 306.51165771484375 103.650634765625 C 307.06329345703125 115.57610321044922 305.4939270019531 122.49010467529297 309.67919921875 132.656982421875 C 315.90435791015625 140.8062744140625 305.6266784667969 128.4417724609375 313.9192810058594 114.49214172363281 C 306.64532470703125 133.17227172851562 305.5538024902344 147.1265411376953 307.9673156738281 156.60867309570312 C 306.53289794921875 155.1514892578125 303.5304260253906 166.7037811279297 302.2707214355469 164.04190063476562 C 310.43316650390625 158.31016540527344 309.20928955078125 161.8903045654297 306.51165771484375 103.650634765625" fill="rgb(105, 91, 170)" opacity="1.0" stroke-width="2.0"/>
    <path d="M 68.79235076904297 116.8437728881836 C 63.10004806518555 144.77259826660156 56.4482536315918 143.20094299316406 44.584468841552734 122.32081604003906 C 24.742385864257812 117.04251098632812 20.290176391601562 145.44656372070312 30.40896224975586 157.3304901123047 C 63.81718063354492 150.88247680664062 61.235137939453125 142.1819610595703 40.83488464355469 120.94188690185547 C 48.96541976928711 108.30052185058594 72.28546905517578 118.96217346191406 63.69615936279297 121.05657196044922 C 63.79718017578125 134.02944946289062 80.40864562988281 144.65126037597656 68.79235076904297 116.8437728881836" fill="rgb(107, 185, 147)" opacity="1.0" stroke-width="2.0"/>
    <path d="M 345.4115905761719 198.48416137695312 C 353.7989196777344 182.2697296142578 374.2295227050781 187.8280792236328 370.39312744140625 210.370849609375 C 355.8297119140625 201.95408630371094 352.0422668457031 211.05174255371094 350.1826477050781 185.38279724121094 C 369.2027587890625 187.01170349121094 374.9709777832031 183.09019470214844 382.752685546875 181.93515014648438 C 385.9458923339844 181.5192108154297 394.2335510253906 171.62362670898438 413.19427490234375 179.50279235839844 C 404.72088623046875 164.65750122070312 398.88482666015625 173.07766723632812 345.4115905761719 198.48416137695312" fill="rgb(29, 180, 152)" opacity="1.0" stroke-width="2.0"/>
    <path d="M 325.8389587402344 106.2784652709961 C 321.02679443359375 125.1258773803711 322.5050354003906 130.88259887695312 322.17877197265625 112.19052124023438 C 330.3089294433594 115.59587097167969 317.0698547363281 126.19507598876953 323.7383728027344 131.0966796875 C 322.240966796875 140.12254333496094 328.1234436035156 130.24725341796875 325.8389587402344 106.2784652709961" fill="rgb(255, 57, 126)" opacity="1.0" stroke-width="2.0"/>
  </g>
</svg>
