<?xml version="1.0" ?>
<svg height="512" version="1.1" width="512" xmlns="http://www.w3.org/2000/svg">
  <defs/>
  <g>
    <path d="M 55.17930221557617 54.32698440551758 C 55.12697982788086 53.417808532714844 55.78299331665039 53.655548095703125 54.60948944091797 54.909889221191406 C 38.07192611694336 69.60941314697266 33.73198699951172 75.11360168457031 36.74674987792969 73.07379150390625 C 36.436073303222656 72.96930694580078 31.866409301757812 76.26899719238281 40.37092208862305 73.08920288085938 C 38.552772521972656 73.25359344482422 24.477741241455078 81.86519622802734 55.17930221557617 54.32698440551758" fill="rgb(255, 89, 155)" opacity="1.0" stroke-width="2.0"/>
    <path d="M 505.6476135253906 321.89483642578125 C 438.7105407714844 523.005126953125 244.4861602783203 538.3651733398438 146.93789672851562 487.9510192871094 C 37.378421783447266 436.0268859863281 34.18299102783203 347.544189453125 54.70286560058594 450.7394714355469 C 60.36556625366211 475.7995300292969 58.75712203979492 469.6370849609375 44.314918518066406 401.7054138183594 C -39.6064338684082 263.82147216796875 7.794815540313721 258.2976989746094 505.6476135253906 321.89483642578125" fill="rgb(3, 2, 2)" opacity="1.0" stroke-width="2.0"/>
    <path d="M 46.89622497558594 365.8652038574219 C -22.05017852783203 211.40602111816406 9.48323917388916 96.2646713256836 148.16751098632812 22.635408401489258 C 425.4554138183594 -9.01099967956543 368.3076171875 29.879547119140625 507.5585632324219 202.81790161132812 C 526.1397705078125 329.5243835449219 491.31951904296875 308.7950744628906 432.9909362792969 414.36773681640625 C 298.4066162109375 548.2086791992188 115.09790802001953 494.0888671875 46.89622497558594 365.8652038574219" fill="rgb(249, 215, 108)" opacity="1.0" stroke-width="2.0"/>
    <path d="M 422.0243225097656 177.6603546142578 C 423.21209716796875 214.186767578125 381.29547119140625 233.5545196533203 354.2142639160156 208.3296661376953 C 356.2663269042969 213.6730499267578 364.43011474609375 228.9215545654297 361.13226318359375 222.5011444091797 C 351.5082702636719 204.17727661132812 339.0260009765625 180.52902221679688 376.29949951171875 199.26309204101562 C 413.1355895996094 205.62046813964844 396.6592102050781 151.45091247558594 422.0243225097656 177.6603546142578" fill="rgb(3, 1, 3)" opacity="1.0" stroke-width="2.0"/>
    <path d="M 202.87701416015625 139.45021057128906 C 128.85443115234375 176.11993408203125 209.0321502685547 262.4788513183594 251.0164794921875 195.85142517089844 C 272.63812255859375 114.27146911621094 126.23861694335938 149.92733764648438 354.23858642578125 141.09506225585938 C 373.02825927734375 152.70875549316406 359.8787536621094 143.483154296875 325.02911376953125 125.71940612792969 C 186.50283813476562 84.44082641601562 191.22293090820312 93.96267700195312 202.87701416015625 139.45021057128906" fill="rgb(66, 66, 65)" opacity="1.0" stroke-width="2.0"/>
    <path d="M 410.15185546875 150.9855194091797 C 431.5470886230469 173.65646362304688 419.07586669921875 197.75445556640625 409.9664306640625 201.4860076904297 C 401.4544677734375 180.8765106201172 404.8948974609375 140.64280700683594 350.6520080566406 170.98843383789062 C 335.30706787109375 159.18626403808594 376.7704772949219 121.2748794555664 410.15185546875 150.9855194091797" fill="rgb(1, 0, 2)" opacity="1.0" stroke-width="2.0"/>
    <path d="M 253.5633087158203 -3.225548028945923 C 145.6702117919922 8.742605209350586 100.80701446533203 93.02635955810547 120.38542175292969 126.40130615234375 C 329.9416809082031 103.37527465820312 292.85479736328125 80.44710540771484 311.2646179199219 88.62235260009766 C 270.3747253417969 109.62377166748047 259.59075927734375 96.52762603759766 361.576171875 71.54518127441406 C 423.773681640625 171.2277069091797 336.9634704589844 146.1316375732422 95.98867797851562 131.93580627441406 C 353.88604736328125 95.61941528320312 402.2280578613281 77.08622741699219 253.5633087158203 -3.225548028945923" fill="rgb(252, 223, 109)" opacity="1.0" stroke-width="2.0"/>
    <path d="M 29.9375 188.1367950439453 C 24.87897491455078 215.09890747070312 13.007264137268066 245.11868286132812 31.998435974121094 130.36761474609375 C 43.0577278137207 116.09810638427734 -31.25294303894043 212.310791015625 14.430649757385254 342.7785339355469 C 36.9656982421875 383.6330871582031 -2.877002716064453 141.57054138183594 53.40464401245117 101.35765075683594 C 121.78289031982422 -4.313722610473633 300.0300598144531 -19.648113250732422 260.81072998046875 19.459304809570312 C 112.51254272460938 21.289175033569336 45.95634460449219 130.7073516845703 29.9375 188.1367950439453" fill="rgb(1, 1, 1)" opacity="1.0" stroke-width="2.0"/>
    <path d="M 353.7754211425781 190.4599609375 C 374.1708068847656 177.62841796875 346.395751953125 187.1080780029297 389.3083801269531 207.6818084716797 C 362.3688659667969 235.6154327392578 324.23211669921875 187.5074005126953 351.7911376953125 154.13070678710938 C 420.6025085449219 161.00465393066406 356.2734680175781 148.81407165527344 362.2920837402344 184.2734832763672 C 415.2943420410156 149.25437927246094 397.7419738769531 160.70741271972656 403.4319152832031 209.1515350341797 C 421.53826904296875 140.8695831298828 400.9967346191406 159.22434997558594 353.7754211425781 190.4599609375" fill="rgb(1, 1, 2)" opacity="1.0" stroke-width="2.0"/>
    <path d="M 500.6762390136719 158.7539520263672 C 349.1524658203125 -50.72419357299805 327.03118896484375 -83.21369934082031 439.0032653808594 73.66834259033203 C 365.09649658203125 8.046428680419922 283.6503601074219 -8.685221672058105 322.1838684082031 34.518985748291016 C 508.1134033203125 47.18445587158203 532.8052978515625 467.01824951171875 500.6762390136719 158.7539520263672" fill="rgb(35, 33, 24)" opacity="1.0" stroke-width="2.0"/>
  </g>
</svg>
