<?xml version="1.0" ?>
<svg height="512" version="1.1" width="512" xmlns="http://www.w3.org/2000/svg">
  <defs/>
  <g>
    <path d="M 55.602752685546875 53.815120697021484 C 58.31157302856445 52.39020538330078 55.7198600769043 53.79463195800781 54.25925064086914 55.14435958862305 C 37.331417083740234 68.91828155517578 31.09252166748047 74.01913452148438 32.64104461669922 72.41868591308594 C 36.99801254272461 70.03201293945312 29.636499404907227 75.82173919677734 36.76262664794922 69.15475463867188 C 33.403053283691406 72.06242370605469 22.161745071411133 81.04666900634766 55.602752685546875 53.815120697021484" fill="rgb(255, 68, 130)" opacity="1.0" stroke-width="2.0"/>
    <path d="M 338.72808837890625 400.0959777832031 C 346.953369140625 579.5918579101562 277.5263671875 536.1890869140625 126.45942687988281 480.4081726074219 C 24.826387405395508 403.6572570800781 45.344871520996094 382.9516296386719 60.264896392822266 446.4742126464844 C 71.20951080322266 477.2209777832031 66.24522399902344 466.2643737792969 51.44331359863281 417.02606201171875 C -13.522627830505371 285.6816711425781 -49.37022018432617 294.3725891113281 338.72808837890625 400.0959777832031" fill="rgb(17, 16, 13)" opacity="1.0" stroke-width="2.0"/>
    <path d="M 41.97307205200195 368.21826171875 C -7.09554386138916 164.44363403320312 15.834548950195312 105.67678833007812 125.60047912597656 49.06252670288086 C 305.93804931640625 132.46241760253906 208.72219848632812 156.26690673828125 525.2914428710938 106.87670135498047 C 523.4904174804688 407.1011657714844 476.21875 379.6047058105469 394.6080322265625 489.74212646484375 C 143.31475830078125 498.0851135253906 148.5291290283203 481.3358154296875 41.97307205200195 368.21826171875" fill="rgb(236, 205, 106)" opacity="1.0" stroke-width="2.0"/>
    <path d="M 421.974609375 179.42904663085938 C 423.00640869140625 212.2564697265625 382.05914306640625 235.40711975097656 353.115234375 207.28948974609375 C 354.4761962890625 214.8238525390625 367.2547607421875 230.45799255371094 361.7807312011719 223.3777313232422 C 349.3631286621094 208.0738983154297 340.8721618652344 176.01449584960938 375.5538024902344 199.1803436279297 C 413.0461730957031 206.64149475097656 395.29705810546875 153.13436889648438 421.974609375 179.42904663085938" fill="rgb(2, 1, 2)" opacity="1.0" stroke-width="2.0"/>
    <path d="M 181.34765625 140.604248046875 C 147.1852264404297 252.44052124023438 253.73941040039062 222.76344299316406 251.73805236816406 190.54750061035156 C 254.75762939453125 143.07757568359375 267.597900390625 142.31179809570312 360.1448059082031 156.69761657714844 C 370.6455078125 178.22427368164062 355.601806640625 165.29026794433594 322.724609375 124.90177154541016 C 186.33737182617188 83.00685119628906 186.0452117919922 93.55355072021484 181.34765625 140.604248046875" fill="rgb(82, 78, 69)" opacity="1.0" stroke-width="2.0"/>
    <path d="M 411.06475830078125 151.93304443359375 C 431.71240234375 178.58282470703125 417.8172607421875 190.13092041015625 412.744384765625 198.27227783203125 C 399.8081970214844 179.6803741455078 406.4305419921875 141.59423828125 346.66668701171875 169.87538146972656 C 337.1146240234375 163.8222198486328 373.008056640625 118.40258026123047 411.06475830078125 151.93304443359375" fill="rgb(1, 1, 2)" opacity="1.0" stroke-width="2.0"/>
    <path d="M 236.67904663085938 -35.36336135864258 C 145.2482452392578 -9.286975860595703 112.44898223876953 112.52629852294922 135.45143127441406 110.3067398071289 C 332.5996398925781 104.75816345214844 290.3860168457031 89.8144760131836 307.2228698730469 105.88497924804688 C 269.7668762207031 119.26038360595703 258.2823791503906 116.8529052734375 333.8277282714844 131.79750061035156 C 398.369140625 157.05029296875 316.461669921875 178.46627807617188 110.3005599975586 111.78719329833984 C 320.79534912109375 101.99270629882812 354.0185852050781 112.74501037597656 236.67904663085938 -35.36336135864258" fill="rgb(247, 218, 110)" opacity="1.0" stroke-width="2.0"/>
    <path d="M 59.679779052734375 120.17767333984375 C 19.566041946411133 208.53277587890625 12.817926406860352 223.11050415039062 37.94172668457031 111.93041229248047 C 45.265804290771484 123.00995635986328 -27.78691291809082 193.84649658203125 11.128713607788086 334.1891784667969 C 43.73849868774414 356.18206787109375 -5.899121284484863 158.4824676513672 53.83331298828125 98.64556884765625 C 96.70380401611328 37.56010818481445 206.6622314453125 -19.565261840820312 273.4002990722656 9.02346134185791 C 59.84689712524414 51.35347366333008 87.88043975830078 120.07965850830078 59.679779052734375 120.17767333984375" fill="rgb(7, 5, 4)" opacity="1.0" stroke-width="2.0"/>
    <path d="M 352.199951171875 191.8627471923828 C 371.1534729003906 180.52127075195312 351.2763977050781 178.583984375 385.9977722167969 219.215576171875 C 364.3631591796875 224.6879425048828 321.4476013183594 192.0858917236328 353.54052734375 151.60513305664062 C 418.4375 149.1368865966797 353.77490234375 157.53765869140625 362.858642578125 184.37347412109375 C 411.98712158203125 151.13204956054688 393.541259765625 161.7860870361328 410.2794189453125 208.69866943359375 C 424.01971435546875 141.3129425048828 399.510986328125 157.6024627685547 352.199951171875 191.8627471923828" fill="rgb(1, 1, 2)" opacity="1.0" stroke-width="2.0"/>
    <path d="M 461.10906982421875 88.97108459472656 C 283.6982727050781 -42.04492950439453 289.7934265136719 -20.25169563293457 346.8251037597656 8.297968864440918 C 314.6765441894531 15.937385559082031 199.0481719970703 -12.406591415405273 250.51222229003906 168.3456573486328 C 373.4232482910156 83.6487808227539 500.33544921875 203.33334350585938 461.10906982421875 88.97108459472656" fill="rgb(216, 191, 97)" opacity="1.0" stroke-width="2.0"/>
  </g>
</svg>
