<?xml version="1.0" ?>
<svg height="512" version="1.1" width="512" xmlns="http://www.w3.org/2000/svg">
  <defs/>
  <g>
    <path d="M 55.690006256103516 53.98823928833008 C 57.85726547241211 52.6629753112793 55.7100830078125 53.93944549560547 54.33943176269531 55.289859771728516 C 38.30623245239258 69.76446533203125 33.074031829833984 75.22332000732422 35.44481658935547 73.51844787597656 C 37.779441833496094 69.52667236328125 32.909515380859375 76.55597686767578 39.66058349609375 70.40011596679688 C 36.5343017578125 73.51261138916016 24.277355194091797 82.72142791748047 55.690006256103516 53.98823928833008" fill="rgb(255, 71, 134)" opacity="1.0" stroke-width="2.0"/>
    <path d="M 372.7384338378906 393.440673828125 C 364.7272644042969 551.0894165039062 264.32501220703125 530.8533325195312 142.3591766357422 487.5892333984375 C 23.411455154418945 418.14227294921875 43.23447036743164 358.71392822265625 55.24958801269531 445.1844787597656 C 62.08517837524414 479.1025390625 60.21843719482422 469.9062194824219 49.0202522277832 410.4775085449219 C -28.54509925842285 275.4684753417969 -20.01988410949707 277.7705993652344 372.7384338378906 393.440673828125" fill="rgb(11, 9, 9)" opacity="1.0" stroke-width="2.0"/>
    <path d="M 46.2898063659668 366.5967712402344 C -22.204065322875977 203.44235229492188 9.2882719039917 105.2629623413086 134.8935089111328 37.48634338378906 C 313.313232421875 111.42578887939453 220.1171417236328 130.89315795898438 525.2154541015625 137.41773986816406 C 514.4943237304688 380.3540344238281 476.6561279296875 406.8863220214844 384.7007751464844 481.5205078125 C 198.3234100341797 507.9979248046875 121.66825103759766 482.0591735839844 46.2898063659668 366.5967712402344" fill="rgb(237, 205, 104)" opacity="1.0" stroke-width="2.0"/>
    <path d="M 422.1101379394531 178.53871154785156 C 423.287841796875 213.03370666503906 381.5351867675781 234.84922790527344 353.5770568847656 207.6252899169922 C 355.24688720703125 214.7113494873047 366.4502258300781 229.59945678710938 361.72637939453125 222.89027404785156 C 349.94683837890625 206.2054901123047 340.2423095703125 175.9443359375 375.2879638671875 199.27796936035156 C 414.1370544433594 206.2070770263672 394.7144775390625 152.6122283935547 422.1101379394531 178.53871154785156" fill="rgb(2, 1, 3)" opacity="1.0" stroke-width="2.0"/>
    <path d="M 192.95787048339844 141.6050262451172 C 124.19933319091797 212.17694091796875 254.20248413085938 261.1232604980469 253.7862548828125 170.71470642089844 C 233.7812957763672 134.96939086914062 221.96328735351562 138.91705322265625 360.3379821777344 152.001708984375 C 371.63153076171875 169.5653839111328 357.67584228515625 155.98951721191406 324.60406494140625 123.95230865478516 C 186.74403381347656 83.05315399169922 189.78822326660156 93.809326171875 192.95787048339844 141.6050262451172" fill="rgb(69, 68, 66)" opacity="1.0" stroke-width="2.0"/>
    <path d="M 410.579345703125 151.62046813964844 C 432.029296875 176.44786071777344 417.4591369628906 192.0863037109375 413.27239990234375 199.08087158203125 C 398.2940673828125 178.86399841308594 405.9269714355469 140.59182739257812 348.7209777832031 171.49801635742188 C 335.5007019042969 162.0225067138672 374.5958557128906 119.67738342285156 410.579345703125 151.62046813964844" fill="rgb(1, 0, 2)" opacity="1.0" stroke-width="2.0"/>
    <path d="M 250.14976501464844 -14.067790985107422 C 148.60159301757812 12.537752151489258 106.98664855957031 111.8634033203125 128.28184509277344 116.76038360595703 C 331.71978759765625 105.68350982666016 289.9130859375 84.02559661865234 307.1737060546875 104.79473876953125 C 269.7668762207031 119.26033020019531 258.2835388183594 116.81983184814453 335.4758605957031 128.23985290527344 C 401.7496643066406 162.90867614746094 321.657470703125 162.87391662597656 102.42218017578125 120.90989685058594 C 323.4305419921875 99.16493225097656 357.6422424316406 109.80857849121094 250.14976501464844 -14.067790985107422" fill="rgb(250, 221, 108)" opacity="1.0" stroke-width="2.0"/>
    <path d="M 46.05502700805664 145.2439727783203 C 19.592546463012695 217.2911376953125 12.403166770935059 241.63845825195312 33.74480438232422 124.91105651855469 C 42.848533630371094 118.4278564453125 -30.05137062072754 207.70571899414062 13.20700740814209 339.61932373046875 C 42.81770324707031 371.27227783203125 -8.470836639404297 159.0588836669922 55.109771728515625 97.51124572753906 C 98.51737976074219 32.748348236083984 229.7809600830078 -27.91193199157715 278.9539794921875 16.611848831176758 C 102.4090576171875 21.309534072875977 60.6850700378418 130.60215759277344 46.05502700805664 145.2439727783203" fill="rgb(4, 3, 2)" opacity="1.0" stroke-width="2.0"/>
    <path d="M 352.59686279296875 191.34593200683594 C 371.478759765625 179.8282928466797 350.0525207519531 180.71987915039062 385.7917175292969 214.33462524414062 C 363.2161865234375 230.60191345214844 322.8137512207031 188.46578979492188 352.6351623535156 152.57284545898438 C 419.81671142578125 152.65382385253906 354.66552734375 154.32705688476562 362.6107177734375 184.26927185058594 C 414.2373962402344 149.91317749023438 396.7613525390625 161.62527465820312 404.8411560058594 209.09849548339844 C 423.3446960449219 141.0286102294922 400.552734375 158.44081115722656 352.59686279296875 191.34593200683594" fill="rgb(1, 0, 1)" opacity="1.0" stroke-width="2.0"/>
    <path d="M 468.21099853515625 100.05397033691406 C 302.57635498046875 -45.989654541015625 272.4153747558594 -17.38196563720703 365.3865661621094 15.14898681640625 C 321.0138244628906 16.325496673583984 234.54595947265625 -29.51320457458496 239.05746459960938 148.42599487304688 C 385.0568542480469 78.55452728271484 524.5517578125 218.1898956298828 468.21099853515625 100.05397033691406" fill="rgb(209, 185, 94)" opacity="1.0" stroke-width="2.0"/>
  </g>
</svg>
