<?xml version="1.0" ?>
<svg height="512" version="1.1" width="512" xmlns="http://www.w3.org/2000/svg">
  <defs/>
  <g>
    <path d="M 55.646095275878906 54.140682220458984 C 57.195621490478516 53.35017013549805 55.497337341308594 54.1409912109375 54.34501647949219 55.257633209228516 C 38.2921142578125 69.922607421875 32.39768981933594 75.28240203857422 35.8028678894043 74.04208374023438 C 38.19925308227539 73.06845092773438 31.012880325317383 76.54777526855469 39.79130935668945 71.54841613769531 C 37.02365493774414 73.20123291015625 24.230770111083984 82.42051696777344 55.646095275878906 54.140682220458984" fill="rgb(255, 78, 142)" opacity="1.0" stroke-width="2.0"/>
    <path d="M 465.5867919921875 404.95098876953125 C 385.709716796875 510.102294921875 260.8238830566406 538.794921875 146.6829071044922 488.5359802246094 C 35.70218276977539 433.3438415527344 36.1965446472168 349.6196594238281 52.79377746582031 451.97027587890625 C 59.07256317138672 477.3363037109375 55.468589782714844 472.3505554199219 43.92738342285156 401.4963073730469 C -35.977474212646484 265.2528076171875 -3.7766237258911133 265.0330810546875 465.5867919921875 404.95098876953125" fill="rgb(1, 1, 1)" opacity="1.0" stroke-width="2.0"/>
    <path d="M 51.585872650146484 372.9367980957031 C -28.195432662963867 223.80101013183594 6.653478145599365 101.46581268310547 143.3043975830078 24.959638595581055 C 427.1438293457031 3.801222562789917 363.6338195800781 31.579315185546875 520.0236206054688 181.87838745117188 C 517.2098999023438 362.25726318359375 478.4277648925781 397.0368347167969 401.4851989746094 441.0355224609375 C 279.02044677734375 537.9603271484375 112.3115234375 486.2545471191406 51.585872650146484 372.9367980957031" fill="rgb(243, 211, 106)" opacity="1.0" stroke-width="2.0"/>
    <path d="M 422.1712951660156 178.12428283691406 C 423.24957275390625 213.8731689453125 380.7512512207031 234.23980712890625 353.5894775390625 207.7742462158203 C 355.867919921875 214.21974182128906 364.6260070800781 229.63351440429688 360.86016845703125 223.1429901123047 C 350.8159484863281 205.15855407714844 339.976806640625 177.46908569335938 375.8219909667969 199.30062866210938 C 413.32464599609375 206.45213317871094 396.02484130859375 152.05288696289062 422.1712951660156 178.12428283691406" fill="rgb(2, 1, 3)" opacity="1.0" stroke-width="2.0"/>
    <path d="M 199.98443603515625 139.05335998535156 C 121.81005096435547 192.7165985107422 233.40997314453125 265.2565612792969 253.85647583007812 183.49337768554688 C 254.02276611328125 118.6654052734375 149.36521911621094 149.32411193847656 357.6528015136719 146.58279418945312 C 372.76214599609375 157.84832763671875 359.52044677734375 146.2747344970703 325.3505859375 124.27725219726562 C 186.72393798828125 83.45891571044922 190.95335388183594 93.81787109375 199.98443603515625 139.05335998535156" fill="rgb(67, 66, 66)" opacity="1.0" stroke-width="2.0"/>
    <path d="M 410.18304443359375 151.3236846923828 C 431.6710510253906 175.12908935546875 418.1361999511719 194.99119567871094 412.1772155761719 200.40577697753906 C 399.56915283203125 179.7711639404297 405.1426696777344 140.42640686035156 349.98809814453125 171.3986053466797 C 335.0072021484375 160.1358642578125 375.74688720703125 120.66011810302734 410.18304443359375 151.3236846923828" fill="rgb(1, 0, 2)" opacity="1.0" stroke-width="2.0"/>
    <path d="M 272.6353454589844 -4.012409210205078 C 146.7768096923828 17.311267852783203 102.15277099609375 97.19564819335938 122.36963653564453 122.50577545166016 C 326.84521484375 102.571044921875 289.56396484375 75.77144622802734 310.5234680175781 90.58655548095703 C 269.91265869140625 107.8325424194336 258.854248046875 91.00284576416016 350.63092041015625 87.00653839111328 C 414.2268981933594 176.55831909179688 331.4775390625 152.1994171142578 98.57837677001953 126.5245590209961 C 351.0745544433594 97.48151397705078 403.31634521484375 66.2844467163086 272.6353454589844 -4.012409210205078" fill="rgb(252, 222, 110)" opacity="1.0" stroke-width="2.0"/>
    <path d="M 34.72992706298828 172.54176330566406 C 23.746444702148438 213.64305114746094 12.489673614501953 250.54110717773438 31.81147003173828 130.7488250732422 C 42.91286087036133 116.65055847167969 -30.73064422607422 211.7636260986328 13.911108016967773 341.3583679199219 C 39.82472610473633 378.9913330078125 -6.193387985229492 144.23826599121094 55.22822570800781 99.09165954589844 C 104.34391784667969 18.62485694885254 263.4604187011719 -27.32436180114746 270.51806640625 18.404767990112305 C 109.43716430664062 19.385990142822266 51.17144012451172 131.5263671875 34.72992706298828 172.54176330566406" fill="rgb(2, 2, 2)" opacity="1.0" stroke-width="2.0"/>
    <path d="M 353.3909912109375 190.805908203125 C 373.1822814941406 178.72547912597656 347.9647521972656 184.16163635253906 388.5017395019531 210.7997589111328 C 362.57257080078125 233.54881286621094 323.56439208984375 187.7587127685547 352.1017150878906 153.4844970703125 C 420.73394775390625 157.2568359375 355.4060974121094 151.53713989257812 362.6493225097656 184.4184112548828 C 415.0687255859375 149.37594604492188 398.091796875 161.2188262939453 403.3221740722656 209.05429077148438 C 422.3742980957031 140.80145263671875 400.8876647949219 158.86056518554688 353.3909912109375 190.805908203125" fill="rgb(1, 0, 2)" opacity="1.0" stroke-width="2.0"/>
    <path d="M 475.0472412109375 110.33016967773438 C 322.87255859375 -30.919082641601562 289.2601013183594 -62.5285530090332 393.6709899902344 35.49734878540039 C 347.1007080078125 22.05803680419922 298.15863037109375 -9.655623435974121 316.24029541015625 28.99232292175293 C 450.37017822265625 36.7138557434082 553.1375122070312 340.7826843261719 475.0472412109375 110.33016967773438" fill="rgb(27, 32, 26)" opacity="1.0" stroke-width="2.0"/>
  </g>
</svg>
