<?xml version="1.0" ?>
<svg height="512" version="1.1" width="512" xmlns="http://www.w3.org/2000/svg">
  <defs/>
  <g>
    <path d="M 55.68533706665039 54.020198822021484 C 57.74519348144531 52.69367980957031 55.68572998046875 53.93328857421875 54.11037826538086 55.081298828125 C 38.324031829833984 69.84915924072266 32.734806060791016 75.43675231933594 35.64517593383789 74.03158569335938 C 38.716278076171875 70.83853912353516 32.51588821411133 76.68070220947266 39.76073455810547 70.36671447753906 C 37.34413528442383 73.36791229248047 24.44632911682129 82.63863372802734 55.68533706665039 54.020198822021484" fill="rgb(255, 72, 135)" opacity="1.0" stroke-width="2.0"/>
    <path d="M 386.53521728515625 396.827392578125 C 374.0175476074219 540.3377685546875 256.12384033203125 529.5845947265625 146.17257690429688 489.23291015625 C 23.826141357421875 421.48712158203125 42.57756042480469 356.28851318359375 54.747501373291016 445.166015625 C 61.78358459472656 478.8369140625 59.273128509521484 470.3959045410156 48.18577194213867 409.0643615722656 C -30.502946853637695 274.142333984375 -15.57036304473877 275.3002624511719 386.53521728515625 396.827392578125" fill="rgb(8, 6, 6)" opacity="1.0" stroke-width="2.0"/>
    <path d="M 47.08961486816406 367.94781494140625 C -22.933313369750977 206.23312377929688 8.92387866973877 104.61958312988281 135.9545440673828 35.574859619140625 C 317.1314392089844 104.3537826538086 232.9658203125 119.37964630126953 526.40234375 143.64910888671875 C 515.0152587890625 370.28460693359375 476.0235595703125 410.9651184082031 386.95184326171875 478.4627685546875 C 204.953125 510.37237548828125 122.41458892822266 483.1771545410156 47.08961486816406 367.94781494140625" fill="rgb(237, 206, 104)" opacity="1.0" stroke-width="2.0"/>
    <path d="M 422.1062316894531 178.35475158691406 C 423.2988586425781 213.3157196044922 381.7637023925781 234.5858154296875 353.5070495605469 207.82054138183594 C 355.5592041015625 214.58660888671875 366.14300537109375 229.69285583496094 361.7310485839844 222.72357177734375 C 349.88775634765625 206.13026428222656 340.0047912597656 176.32574462890625 375.1935729980469 199.23081970214844 C 413.9952392578125 206.10891723632812 395.094970703125 152.50186157226562 422.1062316894531 178.35475158691406" fill="rgb(2, 1, 2)" opacity="1.0" stroke-width="2.0"/>
    <path d="M 195.66949462890625 140.60105895996094 C 120.0604248046875 207.35377502441406 255.23117065429688 265.4197998046875 253.5920867919922 168.80393981933594 C 230.46487426757812 128.3160400390625 193.47349548339844 139.45651245117188 359.7109375 151.1884002685547 C 371.71533203125 168.77041625976562 357.83544921875 155.21929931640625 324.6844482421875 123.97541046142578 C 186.79664611816406 83.05603790283203 190.4450225830078 93.7830581665039 195.66949462890625 140.60105895996094" fill="rgb(69, 68, 66)" opacity="1.0" stroke-width="2.0"/>
    <path d="M 410.5630798339844 151.48829650878906 C 431.8359069824219 176.3245849609375 417.5368347167969 192.75733947753906 413.4676513671875 199.23922729492188 C 398.6092529296875 178.93975830078125 405.74932861328125 140.50819396972656 349.0769348144531 171.55599975585938 C 335.3941955566406 161.53697204589844 374.7932434082031 119.79570007324219 410.5630798339844 151.48829650878906" fill="rgb(1, 0, 2)" opacity="1.0" stroke-width="2.0"/>
    <path d="M 252.49066162109375 -8.621484756469727 C 148.14010620117188 14.737235069274902 105.5362319946289 107.54177856445312 126.90798950195312 117.77293395996094 C 331.5613098144531 105.70750427246094 289.8447570800781 83.54348754882812 307.16900634765625 104.70362854003906 C 269.7685241699219 119.20305633544922 258.303955078125 115.67276763916016 337.18597412109375 122.33477020263672 C 403.00811767578125 164.525390625 323.08203125 159.91497802734375 101.36795043945312 121.96009826660156 C 323.509033203125 98.73176574707031 358.1893310546875 109.07002258300781 252.49066162109375 -8.621484756469727" fill="rgb(251, 221, 108)" opacity="1.0" stroke-width="2.0"/>
    <path d="M 42.81547927856445 152.5702667236328 C 20.79063606262207 216.75775146484375 13.051244735717773 244.70533752441406 32.78802490234375 128.23915100097656 C 42.649227142333984 117.80657196044922 -29.907333374023438 209.34303283691406 13.267118453979492 339.9138488769531 C 40.908687591552734 373.36553955078125 -6.884557247161865 152.91281127929688 55.371089935302734 97.47776794433594 C 99.59889221191406 30.50347328186035 235.17494201660156 -28.310653686523438 277.8890686035156 17.56159210205078 C 105.09268951416016 19.294099807739258 58.38236999511719 131.28744506835938 42.81547927856445 152.5702667236328" fill="rgb(4, 2, 2)" opacity="1.0" stroke-width="2.0"/>
    <path d="M 352.7462463378906 191.205078125 C 371.7126770019531 179.86428833007812 349.63848876953125 181.38616943359375 386.54443359375 213.80796813964844 C 363.1314697265625 231.32086181640625 323.16497802734375 188.3326416015625 352.6506652832031 152.71714782714844 C 420.1297302246094 153.72898864746094 354.72637939453125 153.79852294921875 362.61181640625 184.34884643554688 C 414.4810485839844 149.66165161132812 397.316650390625 161.47805786132812 404.3023986816406 209.05938720703125 C 423.1096496582031 140.9241180419922 400.63800048828125 158.5150909423828 352.7462463378906 191.205078125" fill="rgb(1, 0, 1)" opacity="1.0" stroke-width="2.0"/>
    <path d="M 467.5677185058594 102.71965026855469 C 310.42236328125 -46.650611877441406 270.55413818359375 -20.969655990600586 370.8973388671875 16.84269905090332 C 321.4560852050781 18.691518783569336 253.49147033691406 -35.33216857910156 244.27236938476562 135.47967529296875 C 389.14898681640625 76.38358306884766 530.90380859375 227.04551696777344 467.5677185058594 102.71965026855469" fill="rgb(204, 181, 92)" opacity="1.0" stroke-width="2.0"/>
  </g>
</svg>
