<?xml version="1.0" ?>
<svg height="512" version="1.1" width="512" xmlns="http://www.w3.org/2000/svg">
  <defs/>
  <g>
    <path d="M 55.758975982666016 53.99958801269531 C 58.195369720458984 52.487876892089844 55.72859191894531 53.898311614990234 54.306121826171875 55.227210998535156 C 37.37689971923828 68.93434143066406 31.494001388549805 74.23129272460938 33.61629104614258 72.62738037109375 C 36.893123626708984 69.74283599853516 29.8354434967041 75.92234802246094 36.78877639770508 69.14192962646484 C 34.118568420410156 72.46501922607422 22.799699783325195 81.6454086303711 55.758975982666016 53.99958801269531" fill="rgb(255, 69, 131)" opacity="1.0" stroke-width="2.0"/>
    <path d="M 344.12567138671875 398.2473449707031 C 349.9978332519531 577.236328125 277.4160461425781 536.5828857421875 128.58026123046875 480.95428466796875 C 24.241886138916016 406.7168884277344 45.454898834228516 375.0366516113281 58.4163932800293 445.63037109375 C 68.33650207519531 477.8702087402344 63.6695556640625 468.06884765625 52.24027633666992 418.0023193359375 C -18.372100830078125 282.0478515625 -43.17327117919922 289.7811279296875 344.12567138671875 398.2473449707031" fill="rgb(18, 15, 14)" opacity="1.0" stroke-width="2.0"/>
    <path d="M 42.484046936035156 366.1449279785156 C -11.07674789428711 172.14202880859375 14.042853355407715 106.59500122070312 128.70669555664062 46.485225677490234 C 308.00274658203125 131.2957305908203 211.32977294921875 158.04257202148438 525.1068115234375 112.00041961669922 C 520.9559936523438 401.1795959472656 474.91436767578125 382.4111328125 392.0050354003906 488.6368103027344 C 150.95257568359375 497.5312805175781 139.8204345703125 481.98248291015625 42.484046936035156 366.1449279785156" fill="rgb(236, 205, 105)" opacity="1.0" stroke-width="2.0"/>
    <path d="M 421.9109802246094 179.2054901123047 C 423.1039733886719 212.54998779296875 382.29205322265625 235.10540771484375 352.9008483886719 207.26123046875 C 354.37261962890625 215.09988403320312 366.9960632324219 230.3848876953125 361.8887634277344 223.1292266845703 C 349.4950866699219 207.53089904785156 340.85589599609375 175.30172729492188 375.27386474609375 199.1825408935547 C 413.6263732910156 206.7004852294922 394.7168273925781 153.06072998046875 421.9109802246094 179.2054901123047" fill="rgb(2, 1, 2)" opacity="1.0" stroke-width="2.0"/>
    <path d="M 185.01983642578125 142.1278533935547 C 138.12295532226562 246.35357666015625 260.0932312011719 226.6055908203125 252.04966735839844 188.2681427001953 C 254.11863708496094 139.4577178955078 256.93804931640625 140.5460968017578 360.1401672363281 155.63372802734375 C 370.9552307128906 175.63531494140625 356.3135070800781 162.230712890625 323.4266357421875 124.55791473388672 C 186.4346923828125 83.02268981933594 186.87521362304688 93.68541717529297 185.01983642578125 142.1278533935547" fill="rgb(77, 75, 69)" opacity="1.0" stroke-width="2.0"/>
    <path d="M 411.0536804199219 151.86524963378906 C 431.8700866699219 177.93101501464844 417.4969482421875 190.3070068359375 411.6777648925781 198.57444763183594 C 398.53387451171875 179.05152893066406 407.42108154296875 141.42337036132812 347.2179260253906 170.69776916503906 C 336.5838317871094 163.61380004882812 373.3562316894531 118.82853698730469 411.0536804199219 151.86524963378906" fill="rgb(2, 1, 2)" opacity="1.0" stroke-width="2.0"/>
    <path d="M 238.4547576904297 -32.573734283447266 C 146.0400390625 -5.339123725891113 111.29656982421875 114.11203002929688 133.6009979248047 112.23880767822266 C 332.5020446777344 105.24177551269531 290.2989807128906 87.92200469970703 307.2129821777344 105.57460021972656 C 269.7668762207031 119.26038360595703 258.2823791503906 116.8529052734375 334.2301330566406 134.92120361328125 C 400.3369445800781 157.00839233398438 317.8753356933594 174.3176727294922 107.98829650878906 114.31340026855469 C 321.43701171875 101.192626953125 354.4670715332031 112.9522933959961 238.4547576904297 -32.573734283447266" fill="rgb(249, 220, 110)" opacity="1.0" stroke-width="2.0"/>
    <path d="M 57.584651947021484 122.00072479248047 C 18.61577606201172 213.7563934326172 11.802314758300781 229.15342712402344 37.73374938964844 113.88092041015625 C 44.69903564453125 121.70576477050781 -29.108104705810547 198.51278686523438 11.938875198364258 336.5566711425781 C 43.936798095703125 360.9795837402344 -7.452993869781494 162.8528289794922 54.00300216674805 98.33549499511719 C 96.95784759521484 37.14585494995117 210.13967895507812 -21.727510452270508 277.9306945800781 10.979732513427734 C 66.42511749267578 43.90631103515625 85.30511474609375 121.7782211303711 57.584651947021484 122.00072479248047" fill="rgb(7, 5, 4)" opacity="1.0" stroke-width="2.0"/>
    <path d="M 352.48193359375 192.04122924804688 C 371.1275634765625 180.78395080566406 351.18072509765625 178.98085021972656 385.532470703125 218.0204315185547 C 364.1786804199219 226.84579467773438 321.95623779296875 191.08741760253906 353.3742370605469 151.72523498535156 C 418.76531982421875 149.7763671875 353.90618896484375 156.86927795410156 362.808837890625 184.1629180908203 C 412.5954895019531 150.9365997314453 393.62921142578125 161.16796875 409.2614440917969 208.79611206054688 C 423.9696960449219 141.46556091308594 399.5063781738281 157.70310974121094 352.48193359375 192.04122924804688" fill="rgb(1, 1, 2)" opacity="1.0" stroke-width="2.0"/>
    <path d="M 461.2098083496094 90.88240051269531 C 287.98626708984375 -44.304595947265625 287.9417419433594 -19.792484283447266 352.3410949707031 7.813230514526367 C 316.01318359375 16.532840728759766 202.47000122070312 -13.513394355773926 250.33721923828125 168.3563995361328 C 374.814208984375 78.61373138427734 503.24237060546875 203.01864624023438 461.2098083496094 90.88240051269531" fill="rgb(215, 190, 97)" opacity="1.0" stroke-width="2.0"/>
  </g>
</svg>
