<?xml version="1.0" ?>
<svg height="512" version="1.1" width="512" xmlns="http://www.w3.org/2000/svg">
  <defs/>
  <g>
    <path d="M 55.63498306274414 54.15156173706055 C 57.02836990356445 53.24200439453125 55.3797607421875 54.0400276184082 54.52539825439453 55.395355224609375 C 38.356178283691406 69.96989440917969 32.67280960083008 75.47884368896484 36.25135040283203 74.3233642578125 C 38.10487747192383 72.76496124267578 31.079591751098633 76.52545928955078 39.980010986328125 71.77223205566406 C 36.91925811767578 73.14225006103516 24.112201690673828 82.3073501586914 55.63498306274414 54.15156173706055" fill="rgb(255, 79, 143)" opacity="1.0" stroke-width="2.0"/>
    <path d="M 469.7619323730469 398.326171875 C 391.1978759765625 511.5596008300781 255.837890625 538.406982421875 147.4011993408203 488.71563720703125 C 34.43217086791992 433.4339904785156 36.158023834228516 348.4394226074219 53.05817413330078 450.4667663574219 C 58.83788299560547 477.2236022949219 56.49273681640625 471.4882507324219 44.25560760498047 402.2209777832031 C -35.780216217041016 265.5872497558594 -1.4390864372253418 264.5809631347656 469.7619323730469 398.326171875" fill="rgb(2, 1, 1)" opacity="1.0" stroke-width="2.0"/>
    <path d="M 51.03001403808594 372.8952941894531 C -25.59644317626953 218.74891662597656 8.277739524841309 100.03389739990234 143.85211181640625 23.92970848083496 C 428.1396179199219 1.8587836027145386 356.79254150390625 32.659637451171875 517.5675659179688 187.6306915283203 C 517.9341430664062 370.93548583984375 477.67266845703125 383.85791015625 404.51104736328125 438.6455078125 C 280.0913391113281 539.1284790039062 114.76243591308594 487.1584167480469 51.03001403808594 372.8952941894531" fill="rgb(244, 211, 106)" opacity="1.0" stroke-width="2.0"/>
    <path d="M 422.14459228515625 178.07772827148438 C 423.26251220703125 214.12557983398438 381.09527587890625 234.14414978027344 353.6065673828125 207.79888916015625 C 355.7042541503906 214.3564910888672 364.3437194824219 229.78164672851562 360.91290283203125 223.05026245117188 C 350.7950439453125 205.11932373046875 339.81195068359375 177.738037109375 375.594482421875 199.1071319580078 C 413.4225769042969 206.20436096191406 396.14312744140625 152.0123291015625 422.14459228515625 178.07772827148438" fill="rgb(2, 1, 3)" opacity="1.0" stroke-width="2.0"/>
    <path d="M 200.18499755859375 139.0808563232422 C 122.85978698730469 191.05067443847656 230.1549072265625 265.01611328125 253.67453002929688 184.98899841308594 C 255.8670196533203 118.17491912841797 147.04281616210938 149.801025390625 357.5234069824219 145.64112854003906 C 372.8084716796875 157.34254455566406 359.5963439941406 145.8574676513672 325.359619140625 124.35256958007812 C 186.71058654785156 83.52271270751953 190.96893310546875 93.82896423339844 200.18499755859375 139.0808563232422" fill="rgb(67, 66, 66)" opacity="1.0" stroke-width="2.0"/>
    <path d="M 410.2428283691406 151.24591064453125 C 431.76837158203125 174.60560607910156 417.9761962890625 195.13986206054688 411.93353271484375 200.5105743408203 C 399.7283935546875 179.85154724121094 405.0245666503906 140.36233520507812 350.0402526855469 171.29415893554688 C 334.9979248046875 160.09425354003906 376.09246826171875 120.7326889038086 410.2428283691406 151.24591064453125" fill="rgb(1, 1, 2)" opacity="1.0" stroke-width="2.0"/>
    <path d="M 267.6312561035156 -1.4402599334716797 C 146.4823760986328 15.368234634399414 101.8887939453125 95.9348373413086 122.0205078125 122.52942657470703 C 328.0600891113281 102.93183135986328 290.6333923339844 77.625 310.5712890625 89.91954803466797 C 269.85662841796875 106.47795104980469 258.858642578125 89.76717376708984 351.8868103027344 84.47756958007812 C 415.30133056640625 176.52828979492188 332.1867980957031 151.3939971923828 98.37995910644531 127.16276550292969 C 351.65374755859375 97.26271057128906 402.8149108886719 69.18733978271484 267.6312561035156 -1.4402599334716797" fill="rgb(252, 222, 109)" opacity="1.0" stroke-width="2.0"/>
    <path d="M 34.241878509521484 174.15756225585938 C 23.994075775146484 213.7685546875 12.24030590057373 250.6670379638672 31.809293746948242 130.66281127929688 C 42.88140106201172 116.6667709350586 -30.859050750732422 211.70860290527344 13.991959571838379 341.46588134765625 C 39.61701202392578 379.48785400390625 -5.950113773345947 142.8390350341797 55.064353942871094 99.2313232421875 C 105.20926666259766 16.815927505493164 267.0929260253906 -27.077945709228516 269.70819091796875 18.464982986450195 C 109.47091674804688 19.594318389892578 50.69609832763672 131.3763427734375 34.241878509521484 174.15756225585938" fill="rgb(2, 2, 2)" opacity="1.0" stroke-width="2.0"/>
    <path d="M 353.3148193359375 190.6399688720703 C 373.134765625 178.5802764892578 347.5815124511719 184.6129608154297 388.43450927734375 210.53900146484375 C 362.5347900390625 233.74119567871094 323.801025390625 187.92398071289062 351.9837341308594 153.32176208496094 C 420.66326904296875 157.4469757080078 355.4193115234375 151.07260131835938 362.66241455078125 184.4185791015625 C 415.0960693359375 149.42518615722656 398.09600830078125 161.28921508789062 403.36273193359375 209.05052185058594 C 422.2123718261719 140.7051239013672 400.795654296875 158.7797393798828 353.3148193359375 190.6399688720703" fill="rgb(1, 1, 2)" opacity="1.0" stroke-width="2.0"/>
    <path d="M 478.24981689453125 115.383544921875 C 325.208984375 -31.809207916259766 290.68133544921875 -64.82660675048828 398.8250427246094 39.40317916870117 C 351.86895751953125 18.803794860839844 299.34796142578125 -8.434575080871582 314.49859619140625 28.39282989501953 C 454.21331787109375 37.01700210571289 557.1600952148438 356.1457214355469 478.24981689453125 115.383544921875" fill="rgb(34, 36, 24)" opacity="1.0" stroke-width="2.0"/>
  </g>
</svg>
