<?xml version="1.0" ?>
<svg height="512" version="1.1" width="512" xmlns="http://www.w3.org/2000/svg">
  <defs/>
  <g>
    <path d="M 55.135318756103516 54.2226448059082 C 55.23450469970703 53.27433776855469 55.883296966552734 53.670955657958984 54.59550094604492 54.94157409667969 C 38.04624938964844 69.63609313964844 33.25196075439453 75.19453430175781 36.41877746582031 73.81959533691406 C 36.66889953613281 73.51438903808594 31.47357749938965 76.32868194580078 40.00664520263672 72.4197006225586 C 38.19985580444336 73.03358459472656 24.28133773803711 81.79523468017578 55.135318756103516 54.2226448059082" fill="rgb(255, 88, 153)" opacity="1.0" stroke-width="2.0"/>
    <path d="M 502.01544189453125 333.2525939941406 C 430.6932067871094 522.6961059570312 244.84397888183594 537.5330810546875 147.11172485351562 488.2543640136719 C 36.58015823364258 435.5151672363281 34.46013259887695 347.6372985839844 54.29816436767578 450.5328369140625 C 60.29056167602539 475.879150390625 58.21356964111328 470.08807373046875 44.119998931884766 401.6314697265625 C -39.11781311035156 264.29473876953125 6.686657905578613 259.40380859375 502.01544189453125 333.2525939941406" fill="rgb(3, 2, 2)" opacity="1.0" stroke-width="2.0"/>
    <path d="M 47.563575744628906 366.93695068359375 C -22.88271141052246 212.92599487304688 9.101943016052246 96.38438415527344 148.4086151123047 22.559860229492188 C 425.98089599609375 -9.273019790649414 362.6688232421875 30.34937858581543 507.8758239746094 202.81997680664062 C 525.4967041015625 348.24395751953125 486.4554138183594 317.17034912109375 427.89276123046875 420.0405578613281 C 292.9532775878906 545.976806640625 115.4888687133789 493.0821838378906 47.563575744628906 366.93695068359375" fill="rgb(248, 215, 108)" opacity="1.0" stroke-width="2.0"/>
    <path d="M 422.08099365234375 177.89573669433594 C 423.52325439453125 214.1996307373047 380.91265869140625 233.75364685058594 354.2592468261719 208.28982543945312 C 356.34844970703125 213.67236328125 364.9490966796875 228.71987915039062 361.1357116699219 222.60047912597656 C 351.34100341796875 204.32191467285156 339.1196594238281 179.84906005859375 376.0652770996094 199.2518768310547 C 413.1611633300781 205.94773864746094 396.54742431640625 151.56617736816406 422.08099365234375 177.89573669433594" fill="rgb(2, 2, 3)" opacity="1.0" stroke-width="2.0"/>
    <path d="M 202.56298828125 139.33409118652344 C 128.06845092773438 177.9434051513672 211.53057861328125 262.6995544433594 251.2350311279297 194.87176513671875 C 270.4299621582031 114.3480453491211 127.9323501586914 150.48873901367188 354.4449768066406 141.8041229248047 C 372.9316711425781 154.63780212402344 359.8329162597656 144.00132751464844 325.1018981933594 125.40727996826172 C 186.56321716308594 84.21981811523438 191.17930603027344 93.93132019042969 202.56298828125 139.33409118652344" fill="rgb(66, 66, 65)" opacity="1.0" stroke-width="2.0"/>
    <path d="M 410.1643371582031 151.17791748046875 C 431.5425720214844 173.94956970214844 419.0202331542969 197.39923095703125 410.7796936035156 201.23121643066406 C 401.457275390625 180.64492797851562 404.7037048339844 140.3784637451172 350.5901794433594 170.84408569335938 C 335.343505859375 159.20606994628906 376.2598876953125 121.24700164794922 410.1643371582031 151.17791748046875" fill="rgb(1, 1, 2)" opacity="1.0" stroke-width="2.0"/>
    <path d="M 253.5443572998047 -3.189394235610962 C 145.6744384765625 8.658458709716797 100.89083099365234 93.03868865966797 120.50283813476562 125.73168182373047 C 329.65350341796875 103.32197570800781 292.4295349121094 80.00147247314453 311.0478820800781 88.39599609375 C 270.33721923828125 109.39303588867188 259.4873046875 95.22893524169922 360.33514404296875 72.72238159179688 C 422.5772399902344 172.1359405517578 336.2640380859375 146.9517364501953 96.30750274658203 131.1641082763672 C 353.79638671875 95.73796844482422 402.5845031738281 75.85731506347656 253.5443572998047 -3.189394235610962" fill="rgb(252, 222, 109)" opacity="1.0" stroke-width="2.0"/>
    <path d="M 30.469295501708984 185.8685302734375 C 24.716190338134766 214.51263427734375 12.527647018432617 246.7317657470703 32.33942413330078 130.26002502441406 C 42.93965530395508 116.1773910522461 -31.252714157104492 212.13597106933594 14.336185455322266 342.72247314453125 C 36.95319366455078 383.3079528808594 -3.3099799156188965 140.49620056152344 54.03386306762695 100.541259765625 C 118.65272521972656 -0.573168933391571 294.8275146484375 -21.287382125854492 262.1529541015625 19.22770118713379 C 112.15389251708984 20.8055362701416 46.48745346069336 130.98239135742188 30.469295501708984 185.8685302734375" fill="rgb(1, 1, 1)" opacity="1.0" stroke-width="2.0"/>
    <path d="M 353.73236083984375 190.41065979003906 C 374.3699035644531 177.56361389160156 346.4931335449219 186.85316467285156 389.3140869140625 207.85533142089844 C 362.4673156738281 235.05763244628906 324.0953369140625 187.46759033203125 351.5993347167969 153.81671142578125 C 420.66278076171875 160.337890625 356.0899963378906 149.2817840576172 362.4320068359375 184.3988037109375 C 415.3267822265625 149.3235321044922 397.9078063964844 160.9041290283203 403.276611328125 209.08131408691406 C 421.5125427246094 140.67630004882812 400.904052734375 159.0574951171875 353.73236083984375 190.41065979003906" fill="rgb(1, 1, 2)" opacity="1.0" stroke-width="2.0"/>
    <path d="M 497.3249206542969 151.2562713623047 C 344.935546875 -47.386985778808594 322.07012939453125 -80.73268127441406 433.4557800292969 68.5785903930664 C 363.2138977050781 9.89786148071289 289.2442932128906 -7.475370407104492 318.8988037109375 31.79340171813965 C 497.6399841308594 44.76021957397461 543.4649658203125 452.6944885253906 497.3249206542969 151.2562713623047" fill="rgb(33, 31, 24)" opacity="1.0" stroke-width="2.0"/>
  </g>
</svg>
