<?xml version="1.0" ?>
<svg height="512" version="1.1" width="512" xmlns="http://www.w3.org/2000/svg">
  <defs/>
  <g>
    <path d="M 55.50712585449219 53.78029251098633 C 58.252967834472656 52.20496368408203 55.51019287109375 53.575958251953125 53.952125549316406 54.802791595458984 C 36.70553207397461 68.30280303955078 30.37198829650879 73.40823364257812 31.574623107910156 72.2100830078125 C 36.47877502441406 68.76892852783203 28.483016967773438 74.69088745117188 36.89289474487305 69.15625762939453 C 32.04371643066406 72.29109954833984 20.861066818237305 80.0654525756836 55.50712585449219 53.78029251098633" fill="rgb(255, 67, 129)" opacity="1.0" stroke-width="2.0"/>
    <path d="M 322.1115417480469 404.594970703125 C 334.8851013183594 580.7807006835938 270.9271545410156 536.3535766601562 121.23194122314453 477.20166015625 C 24.749454498291016 398.60052490234375 48.92990493774414 393.20660400390625 65.34246063232422 446.0463562011719 C 78.02114868164062 475.1916809082031 72.7459716796875 461.63897705078125 53.85254669189453 418.85052490234375 C -2.8115670680999756 307.02978515625 -55.15373229980469 312.0361022949219 322.1115417480469 404.594970703125" fill="rgb(16, 12, 13)" opacity="1.0" stroke-width="2.0"/>
    <path d="M 46.417415618896484 380.5846862792969 C 8.863370895385742 138.59909057617188 23.415292739868164 96.11485290527344 107.2876968383789 61.43769454956055 C 293.2741394042969 141.3993377685547 216.64137268066406 164.7878875732422 520.2514038085938 113.94100189208984 C 522.1954345703125 426.2420349121094 479.87158203125 389.2091979980469 406.38323974609375 490.8602294921875 C 129.91409301757812 497.6614074707031 159.8680419921875 481.31390380859375 46.417415618896484 380.5846862792969" fill="rgb(235, 205, 106)" opacity="1.0" stroke-width="2.0"/>
    <path d="M 422.1896057128906 179.86708068847656 C 422.3885803222656 211.7346954345703 382.9642639160156 235.4342498779297 353.1336669921875 207.61717224121094 C 353.84222412109375 214.8833465576172 367.6263732910156 230.41700744628906 362.01861572265625 223.24346923828125 C 349.5111083984375 208.89585876464844 340.9488525390625 178.48794555664062 376.06121826171875 199.01327514648438 C 412.0108947753906 206.58338928222656 396.69671630859375 153.32785034179688 422.1896057128906 179.86708068847656" fill="rgb(2, 1, 2)" opacity="1.0" stroke-width="2.0"/>
    <path d="M 166.95263671875 136.1091766357422 C 171.54769897460938 258.4571533203125 237.8499755859375 222.16090393066406 253.90052795410156 191.75888061523438 C 244.91549682617188 156.27586364746094 285.8243103027344 151.56948852539062 360.5509338378906 160.417236328125 C 370.3660583496094 180.31207275390625 354.9561462402344 167.9971923828125 322.0232849121094 125.23426818847656 C 185.98724365234375 82.92308807373047 183.85653686523438 92.84831237792969 166.95263671875 136.1091766357422" fill="rgb(99, 91, 73)" opacity="1.0" stroke-width="2.0"/>
    <path d="M 411.5411682128906 152.2745361328125 C 431.4758605957031 178.9278564453125 417.9118957519531 189.85365295410156 414.4795837402344 197.3919677734375 C 402.8014221191406 180.30299377441406 406.27716064453125 142.26353454589844 346.9039001464844 169.2634735107422 C 340.24688720703125 164.76683044433594 371.6419677734375 117.25603485107422 411.5411682128906 152.2745361328125" fill="rgb(1, 1, 2)" opacity="1.0" stroke-width="2.0"/>
    <path d="M 237.81182861328125 -41.72580337524414 C 147.4080047607422 -13.522582054138184 121.15062713623047 116.191650390625 146.45436096191406 105.53234100341797 C 332.4445495605469 103.29660034179688 290.5125732421875 94.53943634033203 307.2385559082031 106.58684539794922 C 269.7669982910156 119.26034545898438 258.2825012207031 116.85316467285156 337.85369873046875 127.99714660644531 C 399.1513977050781 164.72152709960938 315.4493103027344 190.03057861328125 119.47842407226562 104.64558410644531 C 320.8177795410156 105.54095458984375 357.1890563964844 103.74715423583984 237.81182861328125 -41.72580337524414" fill="rgb(240, 213, 108)" opacity="1.0" stroke-width="2.0"/>
    <path d="M 61.08830642700195 118.35872650146484 C 21.912689208984375 200.62051391601562 18.090360641479492 214.92994689941406 41.16484451293945 109.828369140625 C 44.13820266723633 123.3533706665039 -21.925682067871094 185.06959533691406 7.227413177490234 320.06396484375 C 41.20357894897461 335.7959289550781 3.985093832015991 149.30252075195312 53.93284225463867 98.63690948486328 C 96.3326644897461 38.36244583129883 199.7782745361328 -15.014531135559082 257.334228515625 8.58397102355957 C 49.24195098876953 67.3647689819336 90.72748565673828 116.25211334228516 61.08830642700195 118.35872650146484" fill="rgb(10, 9, 5)" opacity="1.0" stroke-width="2.0"/>
    <path d="M 351.8894958496094 191.78236389160156 C 370.98846435546875 180.74429321289062 350.95098876953125 178.66336059570312 386.610595703125 219.4976806640625 C 363.4189147949219 219.3083038330078 322.3632507324219 197.58045959472656 353.1790466308594 150.1865997314453 C 417.6811828613281 148.5110626220703 352.9018249511719 159.0093231201172 363.1371765136719 184.32406616210938 C 411.3631896972656 150.99627685546875 393.0389709472656 162.9071807861328 410.506103515625 208.38670349121094 C 424.1333312988281 140.7801513671875 400.157470703125 157.7442626953125 351.8894958496094 191.78236389160156" fill="rgb(2, 2, 3)" opacity="1.0" stroke-width="2.0"/>
    <path d="M 463.8341369628906 73.42771911621094 C 264.9504089355469 -28.649635314941406 276.768310546875 -8.362006187438965 343.0192565917969 11.44665813446045 C 308.96282958984375 13.99736213684082 192.99270629882812 -20.853269577026367 252.4670867919922 172.17144775390625 C 366.4538269042969 98.2904281616211 489.2825927734375 194.91952514648438 463.8341369628906 73.42771911621094" fill="rgb(219, 195, 101)" opacity="1.0" stroke-width="2.0"/>
  </g>
</svg>
