<?xml version="1.0" ?>
<svg height="512" version="1.1" width="512" xmlns="http://www.w3.org/2000/svg">
  <defs/>
  <g>
    <path d="M 55.68817901611328 53.97964859008789 C 57.95024490356445 52.677364349365234 55.600189208984375 53.90409851074219 54.32489776611328 55.29446029663086 C 38.46908950805664 69.90203857421875 32.66489028930664 74.9626235961914 34.42435073852539 73.059814453125 C 37.6558723449707 69.55802917480469 31.927228927612305 76.36666107177734 37.45869827270508 69.38248443603516 C 35.131683349609375 72.95829010009766 24.036197662353516 82.63957214355469 55.68817901611328 53.97964859008789" fill="rgb(255, 71, 134)" opacity="1.0" stroke-width="2.0"/>
    <path d="M 361.6502380371094 393.35107421875 C 358.3503723144531 561.1217041015625 270.13458251953125 533.2943115234375 138.3428192138672 485.59136962890625 C 22.795207977294922 414.8153381347656 43.93416976928711 362.58428955078125 56.0931282043457 445.1523132324219 C 63.832000732421875 478.9449462890625 61.136070251464844 469.46942138671875 50.182613372802734 412.857177734375 C -26.01015853881836 276.9206237792969 -25.52145004272461 280.66705322265625 361.6502380371094 393.35107421875" fill="rgb(13, 11, 11)" opacity="1.0" stroke-width="2.0"/>
    <path d="M 44.83919143676758 364.646240234375 C -20.96857261657715 199.6844024658203 9.962791442871094 105.92656707763672 132.8582000732422 40.34486389160156 C 310.5364685058594 118.53397369384766 213.8332977294922 141.66073608398438 524.46875 129.62100219726562 C 515.0735473632812 389.13079833984375 476.49798583984375 400.5267639160156 385.1028747558594 484.0435791015625 C 185.84622192382812 504.83636474609375 124.34896087646484 481.9795837402344 44.83919143676758 364.646240234375" fill="rgb(237, 205, 104)" opacity="1.0" stroke-width="2.0"/>
    <path d="M 422.0777282714844 178.72930908203125 C 423.3207702636719 212.79776000976562 381.57977294921875 235.0823974609375 353.56866455078125 207.3472900390625 C 355.2320861816406 214.51451110839844 366.6019592285156 229.7559356689453 361.7573547363281 222.91470336914062 C 349.8284912109375 206.65696716308594 340.64215087890625 175.13951110839844 375.27520751953125 199.04734802246094 C 414.5263977050781 206.24546813964844 394.3555908203125 152.77879333496094 422.0777282714844 178.72930908203125" fill="rgb(2, 1, 3)" opacity="1.0" stroke-width="2.0"/>
    <path d="M 190.2760467529297 141.37911987304688 C 128.937255859375 221.8760223388672 254.04319763183594 251.81301879882812 253.6082000732422 175.25465393066406 C 240.7831268310547 136.5866241455078 235.9149932861328 138.82801818847656 360.3760070800781 153.05477905273438 C 371.4786376953125 170.99197387695312 357.3789978027344 157.40126037597656 324.3538513183594 124.0860824584961 C 186.6743621826172 83.04804229736328 189.05117797851562 93.81388854980469 190.2760467529297 141.37911987304688" fill="rgb(73, 70, 67)" opacity="1.0" stroke-width="2.0"/>
    <path d="M 410.7680969238281 151.68199157714844 C 431.7636413574219 177.0778350830078 417.3626403808594 191.6705322265625 413.0613098144531 198.97825622558594 C 398.2194519042969 178.99560546875 406.11090087890625 140.86410522460938 348.2010803222656 171.35577392578125 C 335.7174377441406 162.45840454101562 373.9786071777344 119.46834564208984 410.7680969238281 151.68199157714844" fill="rgb(1, 0, 1)" opacity="1.0" stroke-width="2.0"/>
    <path d="M 246.31626892089844 -19.06632423400879 C 149.0910186767578 9.539656639099121 108.95088958740234 117.09988403320312 129.9835968017578 115.84454345703125 C 332.2888488769531 105.98887634277344 290.1000061035156 85.36880493164062 307.1910400390625 105.08116149902344 C 269.7668762207031 119.26033782958984 258.28350830078125 116.82169342041016 334.9318542480469 130.8919219970703 C 401.6949462890625 160.5775146484375 320.675048828125 165.3578643798828 103.66432189941406 119.89036560058594 C 323.1980285644531 99.8196029663086 356.5957336425781 111.2365951538086 246.31626892089844 -19.06632423400879" fill="rgb(249, 220, 108)" opacity="1.0" stroke-width="2.0"/>
    <path d="M 49.374996185302734 138.2081298828125 C 18.312183380126953 218.83197021484375 12.464436531066895 240.03536987304688 34.66083526611328 121.96440887451172 C 43.59892272949219 119.64281463623047 -29.95841407775879 205.35818481445312 12.91109561920166 339.1665954589844 C 44.04713821411133 368.7301940917969 -9.126520156860352 163.53138732910156 54.66477584838867 97.69694519042969 C 98.25390625 34.553348541259766 222.26251220703125 -26.656753540039062 278.927734375 15.181821823120117 C 95.68663787841797 25.388572692871094 65.82836151123047 129.05328369140625 49.374996185302734 138.2081298828125" fill="rgb(4, 3, 2)" opacity="1.0" stroke-width="2.0"/>
    <path d="M 352.523681640625 191.57781982421875 C 371.31524658203125 180.32472229003906 350.6812438964844 180.30819702148438 385.402099609375 215.04940795898438 C 363.5374755859375 229.8450164794922 322.5916748046875 188.70448303222656 352.90179443359375 152.4376983642578 C 419.4951171875 151.7256622314453 354.19293212890625 155.03981018066406 362.82012939453125 184.3123779296875 C 413.89556884765625 150.32154846191406 396.0914001464844 161.72503662109375 406.0068664550781 209.13865661621094 C 423.6103210449219 141.21014404296875 400.3167724609375 158.2845916748047 352.523681640625 191.57781982421875" fill="rgb(1, 0, 1)" opacity="1.0" stroke-width="2.0"/>
    <path d="M 466.5362243652344 97.1596450805664 C 296.9061584472656 -45.837440490722656 276.74798583984375 -16.62124252319336 361.8815002441406 12.83518123626709 C 318.90179443359375 14.990084648132324 219.38783264160156 -25.5555477142334 245.50335693359375 159.92544555664062 C 381.2381896972656 77.38839721679688 517.1385498046875 210.2346649169922 466.5362243652344 97.1596450805664" fill="rgb(211, 187, 95)" opacity="1.0" stroke-width="2.0"/>
  </g>
</svg>
