<?xml version="1.0" ?>
<svg height="512" version="1.1" width="512" xmlns="http://www.w3.org/2000/svg">
  <defs/>
  <g>
    <path d="M 55.54366683959961 53.98431396484375 C 57.45608901977539 52.8240852355957 55.48739242553711 53.970584869384766 54.3809814453125 55.3587532043457 C 38.28818893432617 69.83541870117188 32.68077850341797 75.49187469482422 35.757667541503906 74.30343627929688 C 39.444583892822266 71.79585266113281 31.965578079223633 76.66844177246094 40.01389694213867 71.15541076660156 C 36.851234436035156 73.52349853515625 24.29849624633789 82.6547622680664 55.54366683959961 53.98431396484375" fill="rgb(255, 75, 138)" opacity="1.0" stroke-width="2.0"/>
    <path d="M 415.92974853515625 413.7833251953125 C 394.8927001953125 523.7119140625 237.54066467285156 528.894287109375 150.66683959960938 490.5156555175781 C 25.729780197143555 426.37921142578125 41.4073371887207 353.5985107421875 53.783416748046875 445.90234375 C 59.89641571044922 478.494873046875 58.18827819824219 471.04144287109375 47.42362976074219 407.5167541503906 C -32.437191009521484 271.1087341308594 -10.522043228149414 271.4569396972656 415.92974853515625 413.7833251953125" fill="rgb(4, 3, 2)" opacity="1.0" stroke-width="2.0"/>
    <path d="M 48.2393913269043 370.1493225097656 C -22.20721435546875 210.40457153320312 10.12231731414795 102.1993179321289 134.4875030517578 32.285438537597656 C 331.8697509765625 86.75895690917969 279.0657653808594 93.22981262207031 527.761474609375 153.98809814453125 C 516.68310546875 356.1666564941406 474.6605224609375 414.83172607421875 394.9022216796875 471.2925109863281 C 212.44857788085938 514.9151611328125 126.51824188232422 485.88665771484375 48.2393913269043 370.1493225097656" fill="rgb(238, 207, 104)" opacity="1.0" stroke-width="2.0"/>
    <path d="M 422.1177673339844 178.24305725097656 C 423.2550048828125 213.4833984375 381.55914306640625 234.23362731933594 353.83453369140625 207.88751220703125 C 355.7711486816406 214.5552215576172 366.146484375 229.32003784179688 361.5539245605469 222.72467041015625 C 349.857177734375 205.90243530273438 339.87060546875 176.02932739257812 375.5322570800781 199.3128204345703 C 413.7507629394531 206.15591430664062 395.6024169921875 152.3443145751953 422.1177673339844 178.24305725097656" fill="rgb(2, 1, 2)" opacity="1.0" stroke-width="2.0"/>
    <path d="M 198.48545837402344 138.6693115234375 C 117.9548110961914 203.8007049560547 250.37684631347656 265.8867492675781 253.7662353515625 172.9308319091797 C 238.6403350830078 123.60884094238281 167.21456909179688 143.44381713867188 358.954345703125 149.8140869140625 C 372.0379943847656 165.60009765625 358.4109802246094 152.33749389648438 324.94537353515625 124.04524993896484 C 186.81503295898438 83.10124206542969 190.85476684570312 93.76105499267578 198.48545837402344 138.6693115234375" fill="rgb(68, 67, 66)" opacity="1.0" stroke-width="2.0"/>
    <path d="M 410.3898620605469 151.44789123535156 C 431.90667724609375 175.6642303466797 417.64373779296875 193.49868774414062 413.009765625 199.66305541992188 C 398.746826171875 179.17190551757812 405.4624938964844 140.4009246826172 349.3446044921875 171.48452758789062 C 335.09808349609375 161.01181030273438 375.2821350097656 120.07124328613281 410.3898620605469 151.44789123535156" fill="rgb(1, 0, 2)" opacity="1.0" stroke-width="2.0"/>
    <path d="M 258.0780029296875 -6.076239585876465 C 147.41607666015625 15.78939151763916 103.98077392578125 102.40836334228516 125.0452651977539 119.10939025878906 C 330.521728515625 104.90269470214844 289.642333984375 81.9707260131836 307.3607177734375 104.10444641113281 C 269.8032531738281 114.62171173095703 258.4187316894531 97.93890380859375 342.0613708496094 107.36115264892578 C 407.9698791503906 171.23092651367188 326.71490478515625 156.4581298828125 100.09288024902344 123.81764221191406 C 325.1009826660156 98.86151123046875 363.199951171875 102.17596435546875 258.0780029296875 -6.076239585876465" fill="rgb(251, 221, 108)" opacity="1.0" stroke-width="2.0"/>
    <path d="M 39.09627914428711 161.14193725585938 C 21.82919692993164 215.8045654296875 12.759222984313965 248.1879119873047 32.307804107666016 129.5836639404297 C 42.76983642578125 117.15494537353516 -30.39628791809082 211.04473876953125 13.521408081054688 340.36700439453125 C 40.69586181640625 375.3840026855469 -7.259668827056885 147.8599853515625 55.3950080871582 98.04204559326172 C 100.61713409423828 26.718833923339844 242.74087524414062 -27.602970123291016 275.913818359375 17.43393325805664 C 106.66658020019531 19.00446319580078 55.255615234375 131.11776733398438 39.09627914428711 161.14193725585938" fill="rgb(3, 2, 2)" opacity="1.0" stroke-width="2.0"/>
    <path d="M 352.98834228515625 191.05126953125 C 372.39935302734375 179.58709716796875 348.8597717285156 182.41209411621094 387.33544921875 212.5726776123047 C 362.9414978027344 231.86756896972656 323.33258056640625 188.0782928466797 352.5640869140625 153.0135955810547 C 420.39984130859375 155.0784454345703 354.81964111328125 152.8678741455078 362.60479736328125 184.4272918701172 C 414.92816162109375 149.5714111328125 397.7428283691406 161.2579803466797 403.6279602050781 209.06784057617188 C 422.8479919433594 140.93016052246094 400.6589050292969 158.60733032226562 352.98834228515625 191.05126953125" fill="rgb(1, 0, 1)" opacity="1.0" stroke-width="2.0"/>
    <path d="M 468.81231689453125 106.10733032226562 C 318.8126525878906 -44.70826721191406 269.3477478027344 -29.274446487426758 381.6715393066406 21.716320037841797 C 324.7530822753906 27.312454223632812 285.8974304199219 -41.62388229370117 275.80352783203125 99.63349914550781 C 398.50994873046875 73.95772552490234 542.1240234375 246.626953125 468.81231689453125 106.10733032226562" fill="rgb(183, 164, 84)" opacity="1.0" stroke-width="2.0"/>
  </g>
</svg>
