<?xml version="1.0" ?>
<svg height="512" version="1.1" width="512" xmlns="http://www.w3.org/2000/svg">
  <defs/>
  <g>
    <path d="M 55.56953811645508 54.053741455078125 C 57.15184783935547 52.90377426147461 55.07327651977539 53.83409881591797 54.3073616027832 55.26007843017578 C 38.224246978759766 69.8297119140625 32.62757110595703 75.45806884765625 35.68681335449219 73.92138671875 C 38.23301315307617 72.5157470703125 31.54388999938965 76.74264526367188 39.868446350097656 71.54901885986328 C 36.80478286743164 73.18360900878906 24.08599853515625 82.33770751953125 55.56953811645508 54.053741455078125" fill="rgb(255, 78, 142)" opacity="1.0" stroke-width="2.0"/>
    <path d="M 461.83551025390625 410.09844970703125 C 383.42315673828125 508.79095458984375 261.1379089355469 539.1826171875 146.48472595214844 488.3317565917969 C 36.265464782714844 433.74591064453125 36.494056701660156 348.9034729003906 52.319732666015625 452.3304138183594 C 56.789981842041016 478.15777587890625 55.252899169921875 472.58270263671875 44.25971221923828 402.664794921875 C -35.02048110961914 265.4225769042969 -4.917130470275879 265.69525146484375 461.83551025390625 410.09844970703125" fill="rgb(3, 0, 2)" opacity="1.0" stroke-width="2.0"/>
    <path d="M 51.88079833984375 374.3131103515625 C -26.840818405151367 219.02198791503906 7.196890830993652 103.16221618652344 141.80780029296875 24.998720169067383 C 424.65740966796875 6.999560832977295 374.60076904296875 30.22551918029785 522.7391967773438 175.07272338867188 C 516.568115234375 355.4542236328125 478.4176330566406 410.60516357421875 396.9746398925781 444.15313720703125 C 276.1046142578125 537.1907348632812 113.94547271728516 484.9288024902344 51.88079833984375 374.3131103515625" fill="rgb(242, 210, 106)" opacity="1.0" stroke-width="2.0"/>
    <path d="M 422.00762939453125 178.27545166015625 C 423.4154052734375 213.7923583984375 380.7555847167969 234.35345458984375 353.3686828613281 207.78744506835938 C 355.5816345214844 214.5012664794922 364.67706298828125 229.71981811523438 360.9440612792969 223.11007690429688 C 350.811767578125 205.19667053222656 340.06024169921875 177.38352966308594 375.7409362792969 199.28717041015625 C 413.5107116699219 206.42742919921875 396.0348205566406 152.12619018554688 422.00762939453125 178.27545166015625" fill="rgb(2, 1, 3)" opacity="1.0" stroke-width="2.0"/>
    <path d="M 199.79953002929688 138.77752685546875 C 121.14957427978516 194.5947265625 235.9952392578125 265.4368591308594 253.89215087890625 181.69924926757812 C 251.15843200683594 119.26800537109375 151.7519073486328 148.75088500976562 358.0126037597656 147.4501495361328 C 372.53936767578125 160.30953979492188 359.16583251953125 148.27169799804688 325.16717529296875 124.30152130126953 C 186.75027465820312 83.3782958984375 190.9492950439453 93.8033676147461 199.79953002929688 138.77752685546875" fill="rgb(67, 66, 66)" opacity="1.0" stroke-width="2.0"/>
    <path d="M 410.2545471191406 151.3530731201172 C 431.8695068359375 175.25816345214844 418.33843994140625 194.72091674804688 412.5772705078125 200.2173614501953 C 399.5227966308594 179.59471130371094 405.1785583496094 140.332763671875 350.0238342285156 171.4524383544922 C 335.29693603515625 160.3678436279297 375.64056396484375 120.54141235351562 410.2545471191406 151.3530731201172" fill="rgb(1, 0, 2)" opacity="1.0" stroke-width="2.0"/>
    <path d="M 276.18890380859375 -11.425182342529297 C 146.85897827148438 17.179468154907227 102.3868408203125 97.92355346679688 122.64331817626953 122.26396942138672 C 325.14410400390625 101.8732681274414 288.33099365234375 73.54407501220703 310.1512756347656 90.77416229248047 C 269.9110107421875 108.61819458007812 258.78594970703125 91.26657104492188 349.38262939453125 89.3920669555664 C 413.2803039550781 175.93092346191406 330.81170654296875 152.62542724609375 98.84190368652344 125.9842758178711 C 350.36297607421875 97.86688232421875 404.20013427734375 61.47438430786133 276.18890380859375 -11.425182342529297" fill="rgb(251, 222, 111)" opacity="1.0" stroke-width="2.0"/>
    <path d="M 35.2817497253418 170.9208221435547 C 23.519935607910156 214.1782989501953 12.407620429992676 250.62835693359375 31.719085693359375 130.80535888671875 C 42.78696060180664 116.47382354736328 -30.66798210144043 211.64944458007812 13.79115104675293 341.26226806640625 C 40.128108978271484 378.4013977050781 -6.757572174072266 145.13470458984375 55.28254318237305 98.95933532714844 C 103.56058502197266 20.108095169067383 259.7203063964844 -27.73763656616211 271.4542236328125 18.47139549255371 C 109.18705749511719 19.069246292114258 51.76994323730469 131.56922912597656 35.2817497253418 170.9208221435547" fill="rgb(3, 2, 2)" opacity="1.0" stroke-width="2.0"/>
    <path d="M 353.3211364746094 190.84327697753906 C 372.9236755371094 179.07618713378906 347.8149719238281 184.05001831054688 388.1484375 211.28524780273438 C 362.7354431152344 233.54298400878906 323.7140808105469 187.66372680664062 352.0841979980469 153.2645263671875 C 420.6169128417969 156.8480987548828 355.1763610839844 151.54251098632812 362.5748291015625 184.46881103515625 C 415.0089416503906 149.38333129882812 397.99505615234375 161.23545837402344 403.3226318359375 209.0620574951172 C 422.4850158691406 140.84458923339844 400.88568115234375 158.84934997558594 353.3211364746094 190.84327697753906" fill="rgb(1, 1, 2)" opacity="1.0" stroke-width="2.0"/>
    <path d="M 472.2350158691406 108.89268493652344 C 322.4306945800781 -33.237632751464844 276.55902099609375 -51.99671173095703 387.1242980957031 29.56073570251465 C 342.6685791015625 21.895166397094727 292.0763854980469 -6.827812671661377 320.191650390625 29.977489471435547 C 445.2782287597656 38.40901184082031 551.73046875 323.09735107421875 472.2350158691406 108.89268493652344" fill="rgb(42, 15, 26)" opacity="1.0" stroke-width="2.0"/>
  </g>
</svg>
