<?xml version="1.0" ?>
<svg height="512" version="1.1" width="512" xmlns="http://www.w3.org/2000/svg">
  <defs/>
  <g>
    <path d="M 55.43213653564453 53.494380950927734 C 58.52716064453125 51.625083923339844 55.751094818115234 53.470638275146484 53.93724822998047 54.77684020996094 C 36.99370193481445 68.65589904785156 29.735807418823242 73.4276123046875 30.752225875854492 73.01558685302734 C 38.33756637573242 67.84564971923828 27.453948974609375 73.92491912841797 36.70659637451172 69.58984375 C 30.36794662475586 71.88075256347656 21.43820571899414 81.28805541992188 55.43213653564453 53.494380950927734" fill="rgb(255, 62, 124)" opacity="1.0" stroke-width="2.0"/>
    <path d="M 206.0485076904297 425.31500244140625 C 224.61288452148438 540.4332885742188 181.54977416992188 511.9629211425781 88.87154388427734 453.3667297363281 C 67.65786743164062 418.9374084472656 52.0805549621582 442.6415710449219 67.97440338134766 460.4754638671875 C 76.38143920898438 478.5048522949219 76.41895294189453 470.9150390625 73.29341125488281 470.8151550292969 C 60.73318862915039 446.607666015625 22.323436737060547 410.9761962890625 206.0485076904297 425.31500244140625" fill="rgb(153, 111, 68)" opacity="1.0" stroke-width="2.0"/>
    <path d="M 153.3481903076172 394.3983459472656 C 147.35951232910156 205.94894409179688 158.18353271484375 210.4932403564453 171.4781494140625 198.59808349609375 C 206.91957092285156 203.4344482421875 216.22256469726562 213.71519470214844 380.16778564453125 215.9684600830078 C 386.16107177734375 383.54937744140625 375.6864013671875 391.2501220703125 367.6448669433594 412.9555358886719 C 177.73817443847656 405.5550537109375 168.4818878173828 409.2936706542969 153.3481903076172 394.3983459472656" fill="rgb(253, 223, 108)" opacity="1.0" stroke-width="2.0"/>
    <path d="M 422.09686279296875 183.55880737304688 C 420.9304504394531 209.83230590820312 387.59613037109375 233.40782165527344 354.5735168457031 210.13623046875 C 353.8459167480469 217.6485595703125 368.5950927734375 232.03030395507812 364.35577392578125 227.75302124023438 C 353.4532470703125 215.09121704101562 348.4308166503906 186.5036163330078 384.0159606933594 200.49371337890625 C 403.6983642578125 198.46722412109375 407.7905578613281 155.7602996826172 422.09686279296875 183.55880737304688" fill="rgb(14, 4, 5)" opacity="1.0" stroke-width="2.0"/>
    <path d="M 179.04806518554688 186.4186248779297 C 187.08934020996094 270.100341796875 229.1659393310547 246.72413635253906 256.63946533203125 248.6092071533203 C 299.7877197265625 241.26043701171875 297.2174987792969 235.91627502441406 361.55548095703125 242.6835174560547 C 369.717041015625 179.12142944335938 353.8009033203125 167.41989135742188 334.093994140625 142.0809783935547 C 224.90530395507812 123.63893127441406 226.710693359375 137.8404083251953 179.04806518554688 186.4186248779297" fill="rgb(204, 183, 104)" opacity="1.0" stroke-width="2.0"/>
    <path d="M 412.957275390625 153.10621643066406 C 430.6734313964844 180.734619140625 418.0927734375 182.66073608398438 420.33856201171875 192.98599243164062 C 414.73248291015625 180.4534149169922 411.2195739746094 147.60012817382812 339.7980041503906 166.05308532714844 C 343.067626953125 165.05245971679688 371.3037109375 116.39037322998047 412.957275390625 153.10621643066406" fill="rgb(2, 5, 5)" opacity="1.0" stroke-width="2.0"/>
    <path d="M 301.4574890136719 12.507320404052734 C 241.888671875 62.46005630493164 246.23162841796875 132.18734741210938 287.7514953613281 135.9815216064453 C 307.9673767089844 151.06033325195312 289.8967590332031 108.58499145507812 307.5183410644531 105.61920166015625 C 271.74737548828125 118.66986846923828 260.2887878417969 119.38607788085938 287.4547119140625 161.7845001220703 C 321.4779357910156 172.77772521972656 307.9409484863281 198.30191040039062 240.9795684814453 126.21851348876953 C 304.6470642089844 107.41332244873047 331.26971435546875 126.41081237792969 301.4574890136719 12.507320404052734" fill="rgb(255, 219, 108)" opacity="1.0" stroke-width="2.0"/>
    <path d="M 73.27415466308594 105.86144256591797 C 34.83191680908203 163.2657470703125 40.06806564331055 162.07325744628906 49.85717010498047 103.15816497802734 C 35.29467010498047 124.09712982177734 6.235982894897461 164.5113067626953 0.5589748620986938 235.1923828125 C 41.873600006103516 221.8900909423828 38.8763542175293 143.95472717285156 51.13829803466797 100.06272888183594 C 102.01144409179688 45.91797637939453 111.05531311035156 34.314476013183594 148.75228881835938 41.389137268066406 C 44.962772369384766 119.81401824951172 79.70686340332031 111.74626922607422 73.27415466308594 105.86144256591797" fill="rgb(11, 24, 10)" opacity="1.0" stroke-width="2.0"/>
    <path d="M 348.1305236816406 193.0873260498047 C 366.4517822265625 181.5115966796875 361.02911376953125 182.9971923828125 380.74102783203125 217.53553771972656 C 356.9517517089844 210.46981811523438 338.48699951171875 216.4370880126953 343.4091796875 152.53199768066406 C 399.9349060058594 149.09852600097656 345.044189453125 181.3592529296875 365.8991394042969 183.0914306640625 C 416.2394714355469 150.79595947265625 390.1290283203125 168.1172332763672 410.83062744140625 205.3758087158203 C 422.4686279296875 136.84332275390625 407.58123779296875 160.35842895507812 348.1305236816406 193.0873260498047" fill="rgb(0, 9, 2)" opacity="1.0" stroke-width="2.0"/>
    <path d="M 386.11627197265625 15.819015502929688 C 268.6064147949219 58.72357940673828 289.9331359863281 76.53875732421875 315.76025390625 32.4835090637207 C 330.0151062011719 61.41075134277344 259.5906982421875 71.62004852294922 265.9530334472656 176.27169799804688 C 353.5191650390625 181.74844360351562 381.7430114746094 158.99949645996094 386.11627197265625 15.819015502929688" fill="rgb(237, 211, 104)" opacity="1.0" stroke-width="2.0"/>
  </g>
</svg>
