<?xml version="1.0" ?>
<svg height="512" version="1.1" width="512" xmlns="http://www.w3.org/2000/svg">
  <defs/>
  <g>
    <path d="M 55.470985412597656 53.47495651245117 C 58.505767822265625 51.50091552734375 55.60036849975586 53.45062255859375 53.92081832885742 54.833072662353516 C 37.039676666259766 68.71588134765625 29.675783157348633 73.60091400146484 30.58745765686035 73.10303497314453 C 39.156803131103516 68.26499938964844 27.675912857055664 74.01341247558594 36.73474884033203 69.47847747802734 C 30.243915557861328 71.49073791503906 21.604299545288086 81.51203918457031 55.470985412597656 53.47495651245117" fill="rgb(255, 62, 124)" opacity="1.0" stroke-width="2.0"/>
    <path d="M 192.11773681640625 431.3984069824219 C 209.63087463378906 533.1603393554688 169.8330535888672 506.55560302734375 90.83599853515625 453.39105224609375 C 70.41283416748047 432.6410217285156 60.53101348876953 452.111083984375 67.0333251953125 462.6824645996094 C 76.11911010742188 479.37554931640625 76.85140991210938 470.6508483886719 73.51443481445312 472.54351806640625 C 64.20378112792969 460.1768493652344 33.536468505859375 423.7009582519531 192.11773681640625 431.3984069824219" fill="rgb(143, 90, 63)" opacity="1.0" stroke-width="2.0"/>
    <path d="M 168.35365295410156 378.0260314941406 C 163.02212524414062 215.98150634765625 173.7568359375 222.43280029296875 183.66184997558594 211.45921325683594 C 207.10345458984375 210.80209350585938 216.6671905517578 216.74339294433594 365.8526611328125 223.4400177001953 C 372.01654052734375 371.66400146484375 361.5561218261719 379.99249267578125 352.63336181640625 397.8633728027344 C 188.03857421875 390.31829833984375 178.58169555664062 394.1126708984375 168.35365295410156 378.0260314941406" fill="rgb(253, 223, 109)" opacity="1.0" stroke-width="2.0"/>
    <path d="M 422.2364807128906 185.12452697753906 C 418.9577331542969 209.4548797607422 388.3684387207031 233.77671813964844 357.71551513671875 212.0915069580078 C 353.9393005371094 219.56268310546875 368.3521728515625 231.90447998046875 364.0543518066406 228.5323944091797 C 353.794677734375 216.0564422607422 349.31671142578125 194.05279541015625 384.0310974121094 200.14193725585938 C 406.3446044921875 197.68292236328125 409.6802978515625 157.35552978515625 422.2364807128906 185.12452697753906" fill="rgb(24, 6, 10)" opacity="1.0" stroke-width="2.0"/>
    <path d="M 194.7366485595703 190.4175262451172 C 201.06626892089844 265.0213928222656 231.4707794189453 252.59825134277344 257.27496337890625 259.03924560546875 C 302.0447692871094 250.09132385253906 298.0881652832031 246.4301300048828 355.18975830078125 251.30787658691406 C 364.2744140625 181.1780548095703 350.2319641113281 169.85391235351562 336.3095703125 148.68191528320312 C 239.19786071777344 138.5573272705078 239.41893005371094 152.17703247070312 194.7366485595703 190.4175262451172" fill="rgb(220, 193, 100)" opacity="1.0" stroke-width="2.0"/>
    <path d="M 413.457275390625 152.68153381347656 C 429.4293518066406 182.9346466064453 420.2698059082031 181.3224334716797 420.54791259765625 188.94027709960938 C 417.1490478515625 178.37481689453125 414.12225341796875 148.6625213623047 339.5843200683594 166.44187927246094 C 343.3442687988281 164.53981018066406 369.1402587890625 117.04460906982422 413.457275390625 152.68153381347656" fill="rgb(3, 11, 3)" opacity="1.0" stroke-width="2.0"/>
    <path d="M 307.14056396484375 30.574254989624023 C 258.57574462890625 80.37759399414062 263.4753112792969 135.19674682617188 301.66802978515625 129.1336212158203 C 308.46673583984375 151.2197265625 290.8551940917969 109.79216003417969 308.6568603515625 104.13945770263672 C 276.29339599609375 120.06266784667969 264.70306396484375 125.53734588623047 289.4775695800781 163.90756225585938 C 321.1912841796875 171.8152313232422 310.8913269042969 194.9477996826172 255.6982421875 141.37936401367188 C 306.6231994628906 120.48021697998047 325.778564453125 139.30654907226562 307.14056396484375 30.574254989624023" fill="rgb(255, 230, 106)" opacity="1.0" stroke-width="2.0"/>
    <path d="M 75.39801788330078 103.32710266113281 C 41.64303207397461 152.8487091064453 46.65658187866211 151.69569396972656 50.47645950317383 102.49656677246094 C 34.743507385253906 123.17279815673828 8.312118530273438 165.29537963867188 1.4980812072753906 224.5369110107422 C 54.98918914794922 212.33779907226562 43.98403549194336 149.38552856445312 50.43488311767578 103.53953552246094 C 87.54195404052734 50.205360412597656 110.00953674316406 47.324066162109375 132.04931640625 53.993568420410156 C 43.896461486816406 118.17992401123047 83.3324203491211 124.5775146484375 75.39801788330078 103.32710266113281" fill="rgb(34, 41, 19)" opacity="1.0" stroke-width="2.0"/>
    <path d="M 345.0048522949219 193.56626892089844 C 361.13909912109375 180.40756225585938 365.524658203125 183.81320190429688 379.26348876953125 215.88819885253906 C 355.92816162109375 210.2392578125 340.32611083984375 217.41256713867188 342.10015869140625 152.76646423339844 C 396.66015625 153.0347442626953 344.6910400390625 186.59442138671875 367.12249755859375 181.29026794433594 C 420.1173400878906 151.6735382080078 386.6898498535156 166.4344940185547 410.0926513671875 204.38206481933594 C 423.1120300292969 137.51760864257812 407.7303466796875 160.92259216308594 345.0048522949219 193.56626892089844" fill="rgb(17, 24, 10)" opacity="1.0" stroke-width="2.0"/>
    <path d="M 372.50152587890625 34.316139221191406 C 282.1029052734375 77.08541870117188 295.6831359863281 91.94437408447266 316.5251770019531 48.71078109741211 C 336.0232238769531 75.18215942382812 271.7380676269531 83.23035430908203 275.64202880859375 174.32994079589844 C 351.7173156738281 181.79544067382812 370.2730407714844 158.47622680664062 372.50152587890625 34.316139221191406" fill="rgb(250, 231, 107)" opacity="1.0" stroke-width="2.0"/>
  </g>
</svg>
