<?xml version="1.0" ?>
<svg height="512" version="1.1" width="512" xmlns="http://www.w3.org/2000/svg">
  <defs/>
  <g>
    <path d="M 55.43000411987305 53.66987609863281 C 58.23362731933594 51.841156005859375 55.646156311035156 53.47106170654297 53.92043685913086 54.702239990234375 C 36.547218322753906 68.16874694824219 30.000638961791992 73.23838806152344 30.864425659179688 72.05352020263672 C 37.14945602416992 68.50580596923828 27.780231475830078 74.15840148925781 35.839813232421875 68.54609680175781 C 30.87018394470215 72.16851806640625 20.915624618530273 80.438720703125 55.43000411987305 53.66987609863281" fill="rgb(255, 65, 127)" opacity="1.0" stroke-width="2.0"/>
    <path d="M 280.1978454589844 407.2269287109375 C 295.53082275390625 572.1307983398438 238.53561401367188 535.4532470703125 102.90431213378906 464.2143859863281 C 28.0653018951416 395.11883544921875 53.30583190917969 400.4498291015625 75.27472686767578 444.0027770996094 C 81.52635192871094 473.86285400390625 83.98140716552734 460.4710998535156 67.77703857421875 429.31781005859375 C 20.245296478271484 365.6706237792969 -36.76288604736328 352.20306396484375 280.1978454589844 407.2269287109375" fill="rgb(70, 65, 32)" opacity="1.0" stroke-width="2.0"/>
    <path d="M 86.032470703125 424.882568359375 C 68.49040222167969 149.73532104492188 77.73633575439453 139.73497009277344 111.9768295288086 130.55006408691406 C 229.49671936035156 177.75001525878906 226.75157165527344 184.3231964111328 454.18939208984375 183.43394470214844 C 461.091064453125 430.4267272949219 453.5205383300781 436.9901428222656 442.22674560546875 490.8224182128906 C 133.90414428710938 484.419189453125 154.7218780517578 474.836669921875 86.032470703125 424.882568359375" fill="rgb(245, 214, 109)" opacity="1.0" stroke-width="2.0"/>
    <path d="M 422.355712890625 180.7824249267578 C 421.569091796875 210.78536987304688 385.701904296875 234.20809936523438 355.0594787597656 209.39442443847656 C 354.86907958984375 214.36221313476562 367.7640686035156 231.2075653076172 362.6749267578125 224.144287109375 C 351.92205810546875 209.92730712890625 343.3138732910156 184.98406982421875 377.9593811035156 199.39453125 C 409.0052795410156 206.1104736328125 400.292236328125 153.79071044921875 422.355712890625 180.7824249267578" fill="rgb(3, 1, 2)" opacity="1.0" stroke-width="2.0"/>
    <path d="M 144.0388641357422 143.01425170898438 C 193.67532348632812 254.1475372314453 234.36648559570312 221.33502197265625 254.41232299804688 192.30523681640625 C 266.2005310058594 177.54953002929688 297.839599609375 180.35751342773438 358.8331298828125 183.94557189941406 C 370.49029541015625 175.15948486328125 355.9872131347656 163.85533142089844 323.7479553222656 125.81991577148438 C 187.49330139160156 85.3162841796875 184.15878295898438 94.62448120117188 144.0388641357422 143.01425170898438" fill="rgb(141, 130, 83)" opacity="1.0" stroke-width="2.0"/>
    <path d="M 412.14825439453125 152.6726531982422 C 431.5479431152344 179.09649658203125 417.6499328613281 188.1975555419922 417.3860168457031 196.14205932617188 C 407.8332824707031 181.66859436035156 406.6535949707031 144.44964599609375 345.7864074707031 167.38116455078125 C 344.07269287109375 167.80465698242188 372.4609375 116.23758697509766 412.14825439453125 152.6726531982422" fill="rgb(2, 2, 1)" opacity="1.0" stroke-width="2.0"/>
    <path d="M 244.7693634033203 -45.21554183959961 C 164.23558044433594 -17.465471267700195 161.1890869140625 80.67424011230469 208.1145477294922 92.68325805664062 C 318.7984924316406 120.96875762939453 289.7356872558594 104.09037017822266 307.2135314941406 106.92314147949219 C 269.7796630859375 119.25657653808594 258.2952575683594 116.8692398071289 304.45281982421875 159.05625915527344 C 351.2674865722656 199.7776641845703 298.2490539550781 219.5716094970703 171.16390991210938 89.35279083251953 C 314.1993713378906 110.01900482177734 354.89495849609375 98.59007263183594 244.7693634033203 -45.21554183959961" fill="rgb(222, 197, 101)" opacity="1.0" stroke-width="2.0"/>
    <path d="M 63.757240295410156 116.94027709960938 C 25.311534881591797 187.93792724609375 26.45686912536621 197.19805908203125 46.90347671508789 105.60785675048828 C 39.81436538696289 123.10151672363281 -8.184076309204102 174.13348388671875 0.9525406956672668 283.2243957519531 C 35.957393646240234 286.462646484375 21.761760711669922 143.92086791992188 54.16941452026367 96.91985321044922 C 100.2726058959961 39.861236572265625 178.53338623046875 -3.5552148818969727 223.85232543945312 10.962041854858398 C 38.005821228027344 94.50716400146484 93.3336410522461 110.70562744140625 63.757240295410156 116.94027709960938" fill="rgb(11, 10, 5)" opacity="1.0" stroke-width="2.0"/>
    <path d="M 351.2986755371094 191.96954345703125 C 369.36627197265625 180.95709228515625 353.07763671875 179.18031311035156 386.5430603027344 220.21372985839844 C 361.06866455078125 212.29934692382812 329.0469665527344 208.11492919921875 349.54864501953125 153.33338928222656 C 413.3363037109375 146.36587524414062 351.9213562011719 163.40550231933594 363.2830505371094 184.2805938720703 C 412.1601867675781 149.59860229492188 392.4845886230469 165.57354736328125 410.7146911621094 209.16107177734375 C 423.056396484375 137.9866943359375 403.01934814453125 158.0205535888672 351.2986755371094 191.96954345703125" fill="rgb(2, 1, 2)" opacity="1.0" stroke-width="2.0"/>
    <path d="M 443.20880126953125 33.9193229675293 C 239.3025360107422 11.661086082458496 262.369873046875 10.794390678405762 341.4415588378906 10.80159854888916 C 318.5942077636719 28.54863929748535 205.00802612304688 10.303498268127441 259.740966796875 205.7459259033203 C 348.37005615234375 139.19920349121094 443.96673583984375 146.06015014648438 443.20880126953125 33.9193229675293" fill="rgb(227, 201, 107)" opacity="1.0" stroke-width="2.0"/>
  </g>
</svg>
