<?xml version="1.0" ?>
<svg height="512" version="1.1" width="512" xmlns="http://www.w3.org/2000/svg">
  <defs/>
  <g>
    <path d="M 55.50221633911133 54.06480407714844 C 56.64020919799805 53.41087341308594 55.45640182495117 54.32386779785156 54.304405212402344 55.19020462036133 C 38.1496696472168 69.79534912109375 32.59344482421875 75.3965072631836 36.09933853149414 73.94526672363281 C 38.13690185546875 72.97686004638672 31.180191040039062 76.63044738769531 39.70119094848633 71.9070816040039 C 38.148155212402344 72.82588958740234 24.734540939331055 82.31053161621094 55.50221633911133 54.06480407714844" fill="rgb(255, 84, 149)" opacity="1.0" stroke-width="2.0"/>
    <path d="M 490.7300109863281 361.1502685546875 C 411.8363342285156 519.7955932617188 248.21107482910156 536.7061157226562 147.920654296875 488.64984130859375 C 34.52149963378906 433.9237060546875 35.55500793457031 348.0741882324219 53.851898193359375 449.6294860839844 C 59.60966873168945 476.48004150390625 57.753028869628906 470.4232177734375 44.31780242919922 401.7730407714844 C -37.30813980102539 265.8036193847656 3.917790412902832 262.29296875 490.7300109863281 361.1502685546875" fill="rgb(2, 2, 2)" opacity="1.0" stroke-width="2.0"/>
    <path d="M 48.889068603515625 369.724853515625 C -23.730241775512695 215.1024932861328 8.835911750793457 96.42797088623047 148.69296264648438 22.37025260925293 C 430.0347900390625 -10.706644058227539 355.1905822753906 30.054628372192383 511.6147766113281 198.0085906982422 C 519.659912109375 390.8974304199219 472.7486877441406 345.00213623046875 413.794189453125 433.1261901855469 C 280.84161376953125 540.3048095703125 117.3908462524414 490.6686706542969 48.889068603515625 369.724853515625" fill="rgb(246, 213, 107)" opacity="1.0" stroke-width="2.0"/>
    <path d="M 422.1030578613281 177.86373901367188 C 423.2921447753906 214.1811065673828 380.702880859375 233.82534790039062 353.9326477050781 208.3359832763672 C 356.1827087402344 213.83682250976562 364.8672180175781 229.01071166992188 361.291015625 222.57421875 C 351.0372009277344 204.67819213867188 339.5023193359375 178.1210479736328 375.9481506347656 199.3573455810547 C 413.4941711425781 206.31265258789062 396.4810485839844 151.8700714111328 422.1030578613281 177.86373901367188" fill="rgb(2, 1, 3)" opacity="1.0" stroke-width="2.0"/>
    <path d="M 201.14273071289062 139.44613647460938 C 125.4085464477539 183.9247589111328 220.3518524169922 264.3385925292969 252.7465362548828 190.25584411621094 C 263.59136962890625 116.02606964111328 136.84811401367188 150.12750244140625 356.05999755859375 143.405517578125 C 372.9214782714844 155.96620178222656 359.81671142578125 144.51577758789062 325.2696533203125 124.80632019042969 C 186.6456756591797 83.82719421386719 191.0531768798828 93.87704467773438 201.14273071289062 139.44613647460938" fill="rgb(67, 66, 65)" opacity="1.0" stroke-width="2.0"/>
    <path d="M 410.1764221191406 151.2272186279297 C 431.51220703125 174.36239624023438 418.43865966796875 196.37916564941406 411.3409423828125 200.89747619628906 C 400.39935302734375 180.1072235107422 404.9447937011719 140.25936889648438 350.500732421875 171.17596435546875 C 335.3934020996094 159.6281280517578 376.08160400390625 120.8428726196289 410.1764221191406 151.2272186279297" fill="rgb(1, 0, 2)" opacity="1.0" stroke-width="2.0"/>
    <path d="M 253.6021728515625 -2.954882860183716 C 145.73690795898438 8.418797492980957 101.25273132324219 93.37220764160156 121.1225357055664 123.98027801513672 C 328.6203308105469 103.01803588867188 291.4272766113281 78.6158676147461 310.4317932128906 88.18292236328125 C 270.00811767578125 106.72982788085938 259.0533447265625 89.58441925048828 356.2063293457031 76.88945770263672 C 418.8760986328125 175.36578369140625 334.1270446777344 149.65773010253906 97.44042205810547 128.85821533203125 C 353.6914367675781 96.58798217773438 403.5895690917969 71.97471618652344 253.6021728515625 -2.954882860183716" fill="rgb(252, 222, 108)" opacity="1.0" stroke-width="2.0"/>
    <path d="M 32.11978530883789 179.88287353515625 C 24.515239715576172 213.70526123046875 12.210559844970703 249.72312927246094 31.9575138092041 130.51133728027344 C 42.86586380004883 116.61426544189453 -31.147605895996094 211.76104736328125 14.072399139404297 342.1950988769531 C 39.0245475769043 381.3570861816406 -5.391075611114502 141.21217346191406 54.880455017089844 99.60831451416016 C 110.58992767333984 9.234855651855469 279.5443420410156 -24.927160263061523 266.2778015136719 19.134235382080078 C 110.75299072265625 19.596242904663086 48.953365325927734 131.52784729003906 32.11978530883789 179.88287353515625" fill="rgb(2, 1, 2)" opacity="1.0" stroke-width="2.0"/>
    <path d="M 353.5255126953125 190.5102081298828 C 373.72076416015625 178.2606658935547 346.83349609375 185.61993408203125 388.8989562988281 209.13360595703125 C 362.4608459472656 234.6691131591797 324.0510559082031 187.681640625 351.7779846191406 153.55526733398438 C 420.7350158691406 158.66802978515625 356.0421447753906 150.2891845703125 362.48687744140625 184.43472290039062 C 415.01824951171875 149.15927124023438 398.0586242675781 160.99819946289062 403.27288818359375 209.02886962890625 C 421.89630126953125 140.66383361816406 400.8768615722656 158.91957092285156 353.5255126953125 190.5102081298828" fill="rgb(1, 1, 1)" opacity="1.0" stroke-width="2.0"/>
    <path d="M 487.586181640625 132.06979370117188 C 334.8849182128906 -39.11124038696289 307.0350646972656 -73.54688262939453 419.3052978515625 55.745418548583984 C 358.1954040527344 12.868525505065918 294.8085021972656 -7.1890058517456055 316.8633728027344 29.60559844970703 C 470.43817138671875 35.35234069824219 557.1498413085938 408.86651611328125 487.586181640625 132.06979370117188" fill="rgb(32, 32, 23)" opacity="1.0" stroke-width="2.0"/>
  </g>
</svg>
