<?xml version="1.0" ?>
<svg height="512" version="1.1" width="512" xmlns="http://www.w3.org/2000/svg">
  <defs/>
  <g>
    <path d="M 55.362823486328125 54.36658477783203 C 55.388641357421875 53.2550163269043 55.86911392211914 53.69774627685547 54.529075622558594 54.91547775268555 C 37.88165283203125 69.49466705322266 33.13627624511719 75.41405487060547 35.911956787109375 74.0125503540039 C 37.07121658325195 73.29053497314453 31.312410354614258 76.12406158447266 40.0452880859375 72.2096939086914 C 38.07762145996094 72.62873077392578 24.314483642578125 81.77197265625 55.362823486328125 54.36658477783203" fill="rgb(255, 87, 153)" opacity="1.0" stroke-width="2.0"/>
    <path d="M 500.0732727050781 338.6932067871094 C 427.00689697265625 522.4508056640625 245.0410614013672 537.4074096679688 147.2790069580078 488.3573303222656 C 36.11499786376953 435.3464660644531 34.72443389892578 347.4549560546875 54.13457489013672 450.2512512207031 C 59.90772247314453 476.10919189453125 58.06623840332031 470.2220764160156 44.167015075683594 401.6962890625 C -38.89406967163086 264.6014099121094 6.175660610198975 259.95501708984375 500.0732727050781 338.6932067871094" fill="rgb(3, 2, 2)" opacity="1.0" stroke-width="2.0"/>
    <path d="M 47.82204055786133 367.668212890625 C -22.765756607055664 212.6945037841797 9.148876190185547 96.32858276367188 148.21058654785156 22.573453903198242 C 426.8822937011719 -8.730758666992188 362.0351867675781 30.310211181640625 508.05120849609375 202.45127868652344 C 524.9249877929688 358.6752014160156 484.0498046875 322.3741455078125 425.0313720703125 422.91412353515625 C 290.746337890625 544.822509765625 115.89407348632812 492.3505859375 47.82204055786133 367.668212890625" fill="rgb(247, 214, 108)" opacity="1.0" stroke-width="2.0"/>
    <path d="M 422.24285888671875 177.83624267578125 C 423.40313720703125 214.3613739013672 381.1067199707031 233.80419921875 354.17193603515625 208.3528594970703 C 356.2260437011719 213.82308959960938 364.6764831542969 229.00625610351562 361.3148498535156 222.46278381347656 C 351.2410583496094 204.43727111816406 339.1734924316406 179.46961975097656 375.9997253417969 199.20059204101562 C 413.1247863769531 206.0148162841797 396.4828186035156 151.60882568359375 422.24285888671875 177.83624267578125" fill="rgb(2, 1, 3)" opacity="1.0" stroke-width="2.0"/>
    <path d="M 202.26988220214844 139.4097137451172 C 127.36054992675781 178.8770751953125 213.1278533935547 263.0708312988281 251.40777587890625 194.08982849121094 C 269.5158386230469 114.59332275390625 128.92880249023438 150.19419860839844 354.62921142578125 141.9061737060547 C 372.9586181640625 154.7698211669922 359.921875 143.60130310058594 325.2181091308594 125.18130493164062 C 186.59071350097656 84.10569763183594 191.1501007080078 93.91535949707031 202.26988220214844 139.4097137451172" fill="rgb(66, 66, 65)" opacity="1.0" stroke-width="2.0"/>
    <path d="M 410.16839599609375 151.11190795898438 C 431.6518859863281 174.01564025878906 419.0335693359375 197.16915893554688 410.9034729003906 201.09512329101562 C 401.416015625 180.4391632080078 405.0070495605469 140.35353088378906 350.6073303222656 170.94107055664062 C 335.3556823730469 159.23568725585938 376.3179016113281 121.05377960205078 410.16839599609375 151.11190795898438" fill="rgb(1, 1, 2)" opacity="1.0" stroke-width="2.0"/>
    <path d="M 253.37619018554688 -2.8846499919891357 C 145.6858673095703 8.629389762878418 100.94852447509766 93.09640502929688 120.60911560058594 125.46028137207031 C 329.5780944824219 103.37393188476562 292.2241516113281 79.8187026977539 310.92169189453125 88.26830291748047 C 270.30548095703125 109.17411804199219 259.4257507324219 94.46528625488281 359.61572265625 73.3016128540039 C 421.841064453125 172.68026733398438 335.8033447265625 147.5295867919922 96.47953033447266 130.6291046142578 C 353.66632080078125 95.73859405517578 402.74041748046875 75.138427734375 253.37619018554688 -2.8846499919891357" fill="rgb(252, 222, 109)" opacity="1.0" stroke-width="2.0"/>
    <path d="M 30.8942928314209 184.73760986328125 C 24.802785873413086 214.05178833007812 12.89332389831543 247.4550323486328 32.239234924316406 130.36766052246094 C 42.900630950927734 116.26718139648438 -31.321664810180664 212.07131958007812 14.382866859436035 342.63226318359375 C 37.04081344604492 383.0746154785156 -3.7349741458892822 140.35317993164062 54.260887145996094 100.16085052490234 C 117.18367767333984 1.5173097848892212 291.7135009765625 -22.078279495239258 263.0072021484375 19.361188888549805 C 112.1299057006836 20.52088737487793 46.766048431396484 131.21722412109375 30.8942928314209 184.73760986328125" fill="rgb(2, 1, 1)" opacity="1.0" stroke-width="2.0"/>
    <path d="M 353.70452880859375 190.4076690673828 C 374.5445251464844 177.809326171875 346.4620361328125 186.69093322753906 389.0502014160156 208.20156860351562 C 362.25604248046875 235.1212615966797 323.93524169921875 187.72483825683594 351.6951599121094 153.90509033203125 C 420.7645568847656 160.06846618652344 356.10162353515625 149.7355499267578 362.5455627441406 184.46249389648438 C 415.2413024902344 149.25291442871094 397.8686218261719 160.8936004638672 403.2029113769531 209.0696258544922 C 421.6044006347656 140.6965789794922 400.91839599609375 159.051025390625 353.70452880859375 190.4076690673828" fill="rgb(1, 1, 2)" opacity="1.0" stroke-width="2.0"/>
    <path d="M 495.8276062011719 148.13360595703125 C 342.9552307128906 -45.76367950439453 318.2195129394531 -78.7437973022461 430.8423767089844 66.27146911621094 C 362.4605712890625 10.421438217163086 290.7087707519531 -6.9309773445129395 317.98760986328125 30.9149169921875 C 492.5467529296875 42.73003005981445 546.7656860351562 445.3655090332031 495.8276062011719 148.13360595703125" fill="rgb(33, 32, 24)" opacity="1.0" stroke-width="2.0"/>
  </g>
</svg>
