<?xml version="1.0" ?>
<svg height="512" version="1.1" width="512" xmlns="http://www.w3.org/2000/svg">
  <defs/>
  <g>
    <path d="M 55.44771957397461 54.24569320678711 C 56.1009521484375 53.38871765136719 55.977787017822266 54.100341796875 54.426246643066406 55.03057098388672 C 38.30121994018555 69.91390228271484 32.89493179321289 75.4662094116211 35.98168182373047 73.62628936767578 C 37.38664627075195 72.44841003417969 31.19802474975586 76.48059844970703 39.900390625 72.30716705322266 C 37.81166458129883 72.74986267089844 24.35498046875 82.01678466796875 55.44771957397461 54.24569320678711" fill="rgb(255, 86, 151)" opacity="1.0" stroke-width="2.0"/>
    <path d="M 496.2154846191406 349.0133972167969 C 419.6792907714844 521.6195068359375 246.52488708496094 536.8131103515625 147.54766845703125 488.54425048828125 C 35.30399703979492 434.7152099609375 34.93040466308594 347.9656066894531 53.81187438964844 450.1666564941406 C 59.441444396972656 476.46929931640625 58.001651763916016 470.273193359375 44.19767761230469 401.5325927734375 C -38.14417266845703 265.28857421875 5.186017990112305 261.1370849609375 496.2154846191406 349.0133972167969" fill="rgb(3, 2, 2)" opacity="1.0" stroke-width="2.0"/>
    <path d="M 48.438262939453125 368.5882568359375 C -23.331283569335938 214.04000854492188 9.045328140258789 96.86226654052734 148.56887817382812 22.66644287109375 C 427.62744140625 -8.981034278869629 356.0748291015625 30.884065628051758 510.5320739746094 200.650634765625 C 521.8058471679688 376.8871154785156 477.4398193359375 333.036865234375 419.5366516113281 428.36627197265625 C 285.20440673828125 542.4112548828125 116.6749496459961 491.5648498535156 48.438262939453125 368.5882568359375" fill="rgb(247, 214, 107)" opacity="1.0" stroke-width="2.0"/>
    <path d="M 422.20733642578125 177.80178833007812 C 423.3375549316406 214.25796508789062 380.90789794921875 233.7338104248047 354.1651611328125 208.37368774414062 C 356.1405944824219 213.91456604003906 364.8368225097656 228.92958068847656 361.2674255371094 222.56143188476562 C 351.1508483886719 204.51119995117188 339.2755126953125 178.82061767578125 375.9490966796875 199.35708618164062 C 413.094970703125 206.1925811767578 396.4272766113281 151.70713806152344 422.20733642578125 177.80178833007812" fill="rgb(2, 2, 3)" opacity="1.0" stroke-width="2.0"/>
    <path d="M 201.8263397216797 139.28140258789062 C 126.44120788574219 181.27120971679688 216.24472045898438 263.5312805175781 252.1590576171875 192.46910095214844 C 266.57818603515625 114.8551254272461 132.9323272705078 150.68724060058594 355.4952392578125 142.90887451171875 C 372.9577331542969 155.47866821289062 359.8402099609375 144.34234619140625 325.2225646972656 124.96759796142578 C 186.6251220703125 83.92745208740234 191.09109497070312 93.89060974121094 201.8263397216797 139.28140258789062" fill="rgb(66, 66, 65)" opacity="1.0" stroke-width="2.0"/>
    <path d="M 410.2436218261719 151.0473175048828 C 431.5776672363281 174.41307067871094 418.9787902832031 196.852294921875 410.9916687011719 201.01629638671875 C 400.83782958984375 180.20814514160156 405.1990661621094 140.3316192626953 350.61151123046875 171.1378631591797 C 335.3619384765625 159.50106811523438 376.4142150878906 120.99517059326172 410.2436218261719 151.0473175048828" fill="rgb(1, 0, 2)" opacity="1.0" stroke-width="2.0"/>
    <path d="M 252.66456604003906 -2.0389351844787598 C 145.7144012451172 8.413398742675781 101.10108947753906 93.28791809082031 120.84375 124.73906707763672 C 329.2524108886719 103.3075180053711 291.8381652832031 79.34708404541016 310.6907043457031 88.31141662597656 C 270.19580078125 108.34934997558594 259.259521484375 92.34281921386719 358.0179748535156 74.72982025146484 C 420.3664245605469 173.6659698486328 334.9391784667969 148.4545440673828 96.93610382080078 129.77182006835938 C 353.6382141113281 96.1037368774414 402.9505615234375 74.19261932373047 252.66456604003906 -2.0389351844787598" fill="rgb(252, 222, 109)" opacity="1.0" stroke-width="2.0"/>
    <path d="M 31.67409324645996 182.3106231689453 C 24.515588760375977 214.04238891601562 12.556700706481934 248.94216918945312 32.09279251098633 130.4210968017578 C 42.92328643798828 116.56471252441406 -31.181659698486328 211.73623657226562 14.326489448547363 342.6253356933594 C 38.459190368652344 382.22003173828125 -5.064517498016357 142.37884521484375 54.67625045776367 99.7847900390625 C 113.82903289794922 5.41358757019043 285.6357421875 -23.729660034179688 264.81427001953125 19.354951858520508 C 112.0065689086914 19.713871002197266 47.45384979248047 131.66358947753906 31.67409324645996 182.3106231689453" fill="rgb(2, 1, 1)" opacity="1.0" stroke-width="2.0"/>
    <path d="M 353.7099304199219 190.50904846191406 C 374.2615966796875 177.796142578125 346.6699523925781 186.04922485351562 389.0199890136719 208.53001403808594 C 362.39166259765625 234.81765747070312 324.0148620605469 187.6654510498047 351.6325988769531 153.6221466064453 C 420.7453308105469 159.33494567871094 355.8805847167969 150.05079650878906 362.58428955078125 184.46820068359375 C 415.20574951171875 149.1906280517578 398.1247253417969 160.8861541748047 403.2829895019531 209.04261779785156 C 421.7620849609375 140.7154083251953 400.95465087890625 159.04685974121094 353.7099304199219 190.50904846191406" fill="rgb(1, 1, 2)" opacity="1.0" stroke-width="2.0"/>
    <path d="M 492.1554870605469 140.94569396972656 C 338.9606628417969 -42.43756866455078 313.8847351074219 -76.71005249023438 426.0435791015625 61.582645416259766 C 360.56939697265625 11.317670822143555 292.1974182128906 -6.898776531219482 317.61248779296875 30.043701171875 C 480.8916015625 38.08228302001953 551.4899291992188 428.6695556640625 492.1554870605469 140.94569396972656" fill="rgb(33, 30, 24)" opacity="1.0" stroke-width="2.0"/>
  </g>
</svg>
