<?xml version="1.0" ?>
<svg height="512" version="1.1" width="512" xmlns="http://www.w3.org/2000/svg">
  <defs/>
  <g>
    <path d="M 55.60655975341797 53.88606643676758 C 58.040794372558594 52.52040100097656 55.50185775756836 53.84804916381836 54.335289001464844 55.288455963134766 C 37.70610427856445 69.21895599365234 32.13927459716797 74.62593078613281 33.8636360168457 72.69755554199219 C 37.2696418762207 69.31265258789062 31.294126510620117 76.24932861328125 37.38053894042969 69.43595886230469 C 34.75197982788086 72.88719177246094 22.961347579956055 81.77994537353516 55.60655975341797 53.88606643676758" fill="rgb(255, 69, 132)" opacity="1.0" stroke-width="2.0"/>
    <path d="M 348.8118896484375 396.7513732910156 C 352.3282165527344 574.1559448242188 276.1337585449219 537.1570434570312 131.16976928710938 482.1111755371094 C 23.124677658081055 409.8229064941406 45.57377243041992 369.2790832519531 57.72646713256836 444.8882141113281 C 64.15692901611328 478.95635986328125 61.94355773925781 469.0342712402344 52.48686599731445 418.1249084472656 C -21.390405654907227 280.20849609375 -37.2902717590332 286.68609619140625 348.8118896484375 396.7513732910156" fill="rgb(17, 15, 14)" opacity="1.0" stroke-width="2.0"/>
    <path d="M 42.52870178222656 364.9404602050781 C -14.473785400390625 180.0038604736328 12.515040397644043 106.22867584228516 129.8014678955078 44.7613410949707 C 308.6982116699219 128.59266662597656 212.01609802246094 155.50164794921875 524.2640991210938 116.13784790039062 C 517.5938720703125 395.92620849609375 474.4601135253906 387.79498291015625 390.7039489746094 487.78240966796875 C 159.67666625976562 498.91455078125 134.54054260253906 482.2252197265625 42.52870178222656 364.9404602050781" fill="rgb(236, 205, 105)" opacity="1.0" stroke-width="2.0"/>
    <path d="M 422.15093994140625 178.93328857421875 C 422.8014831542969 212.72125244140625 382.2465515136719 235.26126098632812 353.33978271484375 207.24745178222656 C 354.6755676269531 214.88247680664062 366.6907043457031 230.31594848632812 361.6162414550781 223.19264221191406 C 349.34619140625 207.57376098632812 340.801025390625 174.89324951171875 375.0091857910156 199.1813507080078 C 414.0702819824219 206.580322265625 394.4577941894531 152.99522399902344 422.15093994140625 178.93328857421875" fill="rgb(2, 1, 2)" opacity="1.0" stroke-width="2.0"/>
    <path d="M 186.87562561035156 141.96414184570312 C 133.7708282470703 240.6648406982422 259.3876647949219 232.83193969726562 252.25814819335938 184.57106018066406 C 256.5458068847656 137.64698791503906 248.94204711914062 139.61708068847656 360.2281799316406 154.35279846191406 C 371.0801696777344 174.58067321777344 356.57708740234375 161.0889892578125 323.6629333496094 124.44332885742188 C 186.5194854736328 83.03185272216797 187.6673583984375 93.75212097167969 186.87562561035156 141.96414184570312" fill="rgb(75, 74, 68)" opacity="1.0" stroke-width="2.0"/>
    <path d="M 411.01763916015625 151.82785034179688 C 431.92962646484375 177.4998779296875 417.3330078125 190.59776306152344 411.6313781738281 198.71864318847656 C 398.0969543457031 178.7798614501953 407.5503845214844 141.22201538085938 347.55908203125 171.04071044921875 C 336.0891418457031 163.0340576171875 373.3032531738281 118.96654510498047 411.01763916015625 151.82785034179688" fill="rgb(1, 1, 2)" opacity="1.0" stroke-width="2.0"/>
    <path d="M 240.8214569091797 -29.507434844970703 C 147.280517578125 -0.7407458424568176 110.88693237304688 116.70556640625 132.5296173095703 113.51754760742188 C 332.1851501464844 105.27781677246094 290.1769104003906 86.28274536132812 307.2000732421875 105.29292297363281 C 269.7668762207031 119.26033782958984 258.2829284667969 116.83795166015625 334.5167541503906 134.02789306640625 C 401.2017822265625 156.8641357421875 318.77734375 170.99508666992188 106.3943862915039 116.40606689453125 C 322.2554626464844 100.81903076171875 355.4193420410156 112.18597412109375 240.8214569091797 -29.507434844970703" fill="rgb(250, 221, 110)" opacity="1.0" stroke-width="2.0"/>
    <path d="M 55.2181282043457 124.87663269042969 C 18.77139663696289 217.79080200195312 11.357930183410645 233.746337890625 37.27635955810547 115.66011047363281 C 44.247161865234375 120.58026123046875 -29.675386428833008 201.78268432617188 12.346870422363281 337.6894226074219 C 43.670249938964844 363.8267822265625 -8.653244018554688 165.9622344970703 54.28733444213867 98.17154693603516 C 97.34574127197266 36.63540267944336 213.42233276367188 -23.852802276611328 279.6945495605469 12.229347229003906 C 74.69271850585938 37.7078857421875 81.43997192382812 124.25716400146484 55.2181282043457 124.87663269042969" fill="rgb(5, 4, 4)" opacity="1.0" stroke-width="2.0"/>
    <path d="M 352.3843688964844 191.85951232910156 C 370.6950378417969 180.65292358398438 351.0946044921875 179.2993621826172 385.5472717285156 216.71173095703125 C 364.0689697265625 227.91497802734375 322.1780700683594 190.13934326171875 353.21856689453125 151.94410705566406 C 418.94439697265625 150.2149200439453 354.0587463378906 156.2559051513672 362.7626647949219 184.19537353515625 C 412.99591064453125 150.7498321533203 394.29962158203125 161.1629180908203 408.41943359375 208.92381286621094 C 423.9143371582031 141.4726104736328 399.650146484375 157.83291625976562 352.3843688964844 191.85951232910156" fill="rgb(1, 1, 2)" opacity="1.0" stroke-width="2.0"/>
    <path d="M 463.5408020019531 92.55648803710938 C 289.3746032714844 -44.680519104003906 283.9815673828125 -17.819721221923828 354.2722473144531 10.292232513427734 C 316.6317138671875 14.84352970123291 205.96983337402344 -17.87643051147461 250.33572387695312 169.48289489746094 C 376.45098876953125 76.77721405029297 507.00836181640625 203.06690979003906 463.5408020019531 92.55648803710938" fill="rgb(214, 189, 96)" opacity="1.0" stroke-width="2.0"/>
  </g>
</svg>
