<?xml version="1.0" ?>
<svg height="512" version="1.1" width="512" xmlns="http://www.w3.org/2000/svg">
  <defs/>
  <g>
    <path d="M 55.79263687133789 54.071712493896484 C 57.840946197509766 52.5618782043457 55.50032424926758 53.80636215209961 54.27054977416992 55.23634719848633 C 38.383113861083984 69.83292388916016 32.76926803588867 75.02799224853516 35.165714263916016 73.40745544433594 C 37.98661422729492 69.71775817871094 32.2314453125 76.42860412597656 37.960323333740234 69.58815002441406 C 35.65929412841797 73.017822265625 24.150949478149414 82.65081024169922 55.79263687133789 54.071712493896484" fill="rgb(255, 71, 134)" opacity="1.0" stroke-width="2.0"/>
    <path d="M 366.9476318359375 393.1763610839844 C 361.3030090332031 556.379638671875 267.4681701660156 532.305419921875 140.52346801757812 486.53912353515625 C 23.17095184326172 416.4446105957031 43.38370132446289 360.50250244140625 55.655216217041016 445.19140625 C 62.55583190917969 479.0970764160156 60.360477447509766 469.8329162597656 49.49541473388672 411.6733703613281 C -27.315412521362305 276.18218994140625 -22.563331604003906 279.1551208496094 366.9476318359375 393.1763610839844" fill="rgb(12, 10, 10)" opacity="1.0" stroke-width="2.0"/>
    <path d="M 45.56483459472656 365.9144287109375 C -21.63506507873535 201.54629516601562 9.59281063079834 105.64128875732422 133.9878692626953 38.84636306762695 C 311.8381042480469 114.78414154052734 216.55796813964844 136.01319885253906 524.7275390625 133.74850463867188 C 514.5530395507812 385.0234375 476.6944885253906 404.0872497558594 384.47857666015625 482.7766418457031 C 193.119384765625 506.52655029296875 122.2706298828125 481.8523864746094 45.56483459472656 365.9144287109375" fill="rgb(237, 205, 104)" opacity="1.0" stroke-width="2.0"/>
    <path d="M 422.0833740234375 178.73020935058594 C 423.5078430175781 212.92942810058594 381.3872985839844 235.03208923339844 353.6878967285156 207.55039978027344 C 355.364990234375 214.52455139160156 366.552978515625 229.66317749023438 361.76800537109375 222.87295532226562 C 349.8755187988281 206.42105102539062 340.4586181640625 175.4326171875 375.1792907714844 199.2356719970703 C 414.21551513671875 206.12110900878906 394.4801940917969 152.66636657714844 422.0833740234375 178.73020935058594" fill="rgb(2, 1, 3)" opacity="1.0" stroke-width="2.0"/>
    <path d="M 191.61944580078125 141.8098907470703 C 126.20343780517578 216.33787536621094 254.00845336914062 256.67449951171875 253.33905029296875 173.16416931152344 C 237.4568328857422 136.334716796875 231.72000122070312 138.78250122070312 360.4613037109375 152.03265380859375 C 371.5153503417969 170.6539764404297 357.43682861328125 157.129638671875 324.39007568359375 124.06962585449219 C 186.71432495117188 83.05186462402344 189.4071502685547 93.81715393066406 191.61944580078125 141.8098907470703" fill="rgb(71, 69, 67)" opacity="1.0" stroke-width="2.0"/>
    <path d="M 410.6678466796875 151.7373809814453 C 431.8608703613281 176.72140502929688 417.3113708496094 191.86480712890625 413.2383117675781 198.9609832763672 C 398.4029541015625 178.8345184326172 406.1808776855469 140.69662475585938 348.5299377441406 171.4441375732422 C 335.62091064453125 162.13626098632812 374.0436096191406 119.6166000366211 410.6678466796875 151.7373809814453" fill="rgb(1, 0, 2)" opacity="1.0" stroke-width="2.0"/>
    <path d="M 246.79747009277344 -15.290614128112793 C 148.80496215820312 10.969670295715332 107.88153839111328 114.2543716430664 129.11631774902344 116.62403869628906 C 331.958740234375 105.94380187988281 289.9538879394531 84.42091369628906 307.17572021484375 104.84735107421875 C 269.7668762207031 119.26033782958984 258.28350830078125 116.82119750976562 334.8161926269531 128.87815856933594 C 401.14013671875 161.4397430419922 320.871337890625 164.36888122558594 102.95990753173828 120.20703887939453 C 323.2335205078125 99.29679870605469 356.5398864746094 111.62837219238281 246.79747009277344 -15.290614128112793" fill="rgb(250, 221, 108)" opacity="1.0" stroke-width="2.0"/>
    <path d="M 47.51853942871094 141.73741149902344 C 19.100143432617188 218.42877197265625 12.262622833251953 240.9126434326172 34.37255096435547 123.91484832763672 C 43.322410583496094 119.28153228759766 -29.89066505432129 206.23277282714844 13.179859161376953 339.400146484375 C 43.19266128540039 370.062255859375 -8.642958641052246 161.3582000732422 54.96112060546875 97.63911437988281 C 98.30032348632812 33.70127487182617 225.9870147705078 -27.217506408691406 278.8507385253906 15.929829597473145 C 99.70063781738281 22.87281608581543 62.826332092285156 129.98121643066406 47.51853942871094 141.73741149902344" fill="rgb(4, 3, 2)" opacity="1.0" stroke-width="2.0"/>
    <path d="M 352.4635009765625 191.40347290039062 C 371.3506164550781 180.36170959472656 350.3849792480469 180.614501953125 385.64794921875 214.7066192626953 C 363.3890075683594 230.30885314941406 322.7767028808594 188.5742645263672 352.72796630859375 152.4141387939453 C 419.6908264160156 152.21759033203125 354.43560791015625 154.7621307373047 362.7245788574219 184.2485809326172 C 414.0971984863281 150.08070373535156 396.4898681640625 161.65647888183594 405.33526611328125 209.1244354248047 C 423.4814758300781 141.1215362548828 400.4285888671875 158.355712890625 352.4635009765625 191.40347290039062" fill="rgb(1, 0, 1)" opacity="1.0" stroke-width="2.0"/>
    <path d="M 467.08868408203125 98.65901947021484 C 299.9739685058594 -46.133541107177734 274.6083984375 -16.83795928955078 363.29443359375 13.760639190673828 C 320.1720886230469 15.394674301147461 226.28738403320312 -27.310810089111328 241.81858825683594 153.05465698242188 C 382.9444274902344 78.87152099609375 520.6198120117188 214.5634307861328 467.08868408203125 98.65901947021484" fill="rgb(210, 186, 95)" opacity="1.0" stroke-width="2.0"/>
  </g>
</svg>
