<?xml version="1.0" ?>
<svg height="512" version="1.1" width="512" xmlns="http://www.w3.org/2000/svg">
  <defs/>
  <g>
    <path d="M 55.458534240722656 53.72847366333008 C 58.25398254394531 52.02002716064453 55.67463684082031 53.580039978027344 54.00312423706055 54.82682418823242 C 36.47623825073242 68.08270263671875 29.962247848510742 73.09453582763672 31.445924758911133 72.2829360961914 C 36.735042572021484 68.73117065429688 28.114648818969727 74.43505096435547 36.39207077026367 68.87865447998047 C 31.349855422973633 72.3759765625 20.715421676635742 80.12759399414062 55.458534240722656 53.72847366333008" fill="rgb(255, 66, 128)" opacity="1.0" stroke-width="2.0"/>
    <path d="M 304.48504638671875 407.4048156738281 C 319.2358703613281 579.5477294921875 259.3144836425781 536.671875 112.84724426269531 471.7532958984375 C 25.22157859802246 395.0190734863281 49.42509078979492 398.7746276855469 69.07730102539062 445.8910827636719 C 89.0118179321289 469.61322021484375 75.5312728881836 459.5567626953125 58.15986251831055 424.3533020019531 C 10.58400821685791 333.6954650878906 -49.23371124267578 331.21875 304.48504638671875 407.4048156738281" fill="rgb(17, 14, 13)" opacity="1.0" stroke-width="2.0"/>
    <path d="M 57.015995025634766 407.1619567871094 C 35.94637680053711 133.02915954589844 45.64882278442383 107.97801208496094 94.79061889648438 93.59471893310547 C 258.9148864746094 162.88424682617188 232.25221252441406 183.92623901367188 486.7252197265625 158.8421173095703 C 492.2669677734375 437.9940185546875 473.883544921875 428.4986877441406 432.22210693359375 500.9146728515625 C 138.71243286132812 496.96942138671875 169.62966918945312 475.288818359375 57.015995025634766 407.1619567871094" fill="rgb(241, 210, 109)" opacity="1.0" stroke-width="2.0"/>
    <path d="M 422.0362243652344 180.51339721679688 C 422.4219665527344 211.2078857421875 384.2814025878906 234.56825256347656 354.4037780761719 208.59031677246094 C 354.5348205566406 214.45579528808594 367.6195373535156 230.91790771484375 362.3406677246094 223.72103881835938 C 350.9652404785156 209.27316284179688 342.4638366699219 180.88290405273438 376.6186218261719 199.33633422851562 C 410.23687744140625 206.26646423339844 398.2656555175781 153.4674072265625 422.0362243652344 180.51339721679688" fill="rgb(3, 1, 2)" opacity="1.0" stroke-width="2.0"/>
    <path d="M 151.6501922607422 135.77902221679688 C 190.22508239746094 259.5892028808594 230.55050659179688 225.1248321533203 255.18539428710938 190.6884307861328 C 260.21429443359375 171.87013244628906 300.2907409667969 169.6226348876953 360.65277099609375 170.3123016357422 C 370.4488830566406 177.9576873779297 355.5596008300781 165.393310546875 322.78802490234375 125.02320861816406 C 185.64210510253906 83.0210952758789 181.6731414794922 91.96578979492188 151.6501922607422 135.77902221679688" fill="rgb(126, 111, 78)" opacity="1.0" stroke-width="2.0"/>
    <path d="M 412.3576354980469 152.4926300048828 C 431.38763427734375 178.2676239013672 416.7220764160156 189.15513610839844 415.2030944824219 196.64736938476562 C 405.1901550292969 181.0869903564453 406.3924560546875 143.3818817138672 346.2198486328125 168.30577087402344 C 341.109130859375 164.28536987304688 370.264892578125 116.10597229003906 412.3576354980469 152.4926300048828" fill="rgb(2, 1, 1)" opacity="1.0" stroke-width="2.0"/>
    <path d="M 240.85118103027344 -46.283939361572266 C 153.9434051513672 -16.735414505004883 139.52101135253906 108.64063262939453 174.13845825195312 99.49535369873047 C 329.8013610839844 108.1831283569336 290.267578125 103.22908782958984 307.226806640625 106.96810150146484 C 269.7684631347656 119.2599105834961 258.2839660644531 116.85501861572266 330.67626953125 136.02003479003906 C 387.75970458984375 178.34292602539062 309.4892272949219 204.97044372558594 140.89784240722656 97.3401870727539 C 319.42681884765625 112.74894714355469 359.7914733886719 94.08201599121094 240.85118103027344 -46.283939361572266" fill="rgb(232, 205, 105)" opacity="1.0" stroke-width="2.0"/>
    <path d="M 62.89888000488281 115.99493408203125 C 24.499448776245117 194.2478485107422 20.75649642944336 205.28721618652344 44.245113372802734 107.53504180908203 C 41.78862762451172 122.48749542236328 -14.430744171142578 179.7106170654297 3.2201268672943115 301.92333984375 C 37.62955856323242 311.26043701171875 13.143016815185547 146.71397399902344 53.992488861083984 97.79825592041016 C 97.66104888916016 39.72246551513672 191.9765625 -10.621964454650879 241.04112243652344 9.066789627075195 C 41.447505950927734 80.87098693847656 95.88298034667969 113.67986297607422 62.89888000488281 115.99493408203125" fill="rgb(12, 8, 5)" opacity="1.0" stroke-width="2.0"/>
    <path d="M 351.79302978515625 191.94754028320312 C 370.73089599609375 181.26454162597656 351.2677307128906 178.97059631347656 387.3034362792969 219.58482360839844 C 361.7171630859375 213.89659118652344 324.20074462890625 203.36375427246094 352.524169921875 151.6342010498047 C 416.2063293457031 147.81756591796875 351.9641418457031 161.08926391601562 363.1374206542969 184.33351135253906 C 411.4102478027344 150.8633575439453 393.13580322265625 164.46609497070312 411.064208984375 208.50816345214844 C 423.862548828125 139.6496124267578 401.2286682128906 157.8483123779297 351.79302978515625 191.94754028320312" fill="rgb(2, 2, 2)" opacity="1.0" stroke-width="2.0"/>
    <path d="M 455.01629638671875 50.59931182861328 C 248.8228302001953 -11.260873794555664 264.7607727050781 4.047205924987793 342.06341552734375 14.446934700012207 C 309.2131652832031 17.73830795288086 193.248291015625 -17.537858963012695 258.2168273925781 192.20249938964844 C 354.5733642578125 119.12580108642578 466.73309326171875 165.9140167236328 455.01629638671875 50.59931182861328" fill="rgb(224, 199, 105)" opacity="1.0" stroke-width="2.0"/>
  </g>
</svg>
