<?xml version="1.0" ?>
<svg height="512" version="1.1" width="512" xmlns="http://www.w3.org/2000/svg">
  <defs/>
  <g>
    <path d="M 55.66720199584961 53.950347900390625 C 57.972877502441406 52.57173538208008 55.46475601196289 53.874366760253906 54.15888595581055 55.15107727050781 C 37.762393951416016 69.2612533569336 32.568904876708984 74.90525817871094 34.64409255981445 73.1320571899414 C 37.444305419921875 69.4100341796875 31.543155670166016 76.26616668701172 37.6864013671875 69.6079330444336 C 34.89397430419922 73.02130126953125 23.464567184448242 82.22409057617188 55.66720199584961 53.950347900390625" fill="rgb(255, 70, 133)" opacity="1.0" stroke-width="2.0"/>
    <path d="M 352.980712890625 395.33685302734375 C 354.2266845703125 570.211181640625 274.614013671875 535.93505859375 133.6823272705078 483.2835693359375 C 22.838253021240234 411.8297424316406 45.18153762817383 366.1343078613281 56.99617004394531 444.8656921386719 C 62.78493118286133 479.28009033203125 61.455936431884766 469.3223571777344 51.88480758666992 416.7247009277344 C -23.392227172851562 278.8533020019531 -32.71548843383789 284.29559326171875 352.980712890625 395.33685302734375" fill="rgb(16, 15, 13)" opacity="1.0" stroke-width="2.0"/>
    <path d="M 43.00692367553711 364.111328125 C -17.28595542907715 188.41964721679688 11.517892837524414 106.3282241821289 130.73153686523438 43.456634521484375 C 308.9916687011719 125.416748046875 212.1753692626953 151.64862060546875 524.3411865234375 121.2939224243164 C 516.8036499023438 394.80615234375 475.3953857421875 392.1425476074219 388.18798828125 486.472412109375 C 168.4531707763672 501.0462341308594 130.8602294921875 482.3871765136719 43.00692367553711 364.111328125" fill="rgb(236, 205, 104)" opacity="1.0" stroke-width="2.0"/>
    <path d="M 422.26031494140625 178.8590545654297 C 423.1636657714844 212.71286010742188 382.0160217285156 235.05776977539062 353.3052978515625 207.32472229003906 C 354.5908508300781 214.97854614257812 366.45867919921875 230.2099609375 361.6451416015625 223.0652618408203 C 349.5098876953125 207.2142333984375 340.7537841796875 174.80825805664062 375.08062744140625 198.99293518066406 C 414.2135925292969 206.5595245361328 394.1417236328125 152.9073486328125 422.26031494140625 178.8590545654297" fill="rgb(2, 1, 3)" opacity="1.0" stroke-width="2.0"/>
    <path d="M 187.7867889404297 140.68568420410156 C 133.42819213867188 234.51792907714844 256.248291015625 240.27992248535156 252.77850341796875 180.3613739013672 C 256.20245361328125 136.8694305419922 243.52645874023438 139.19419860839844 360.2507019042969 153.91888427734375 C 371.1900329589844 173.6182098388672 356.8014221191406 160.08384704589844 323.85791015625 124.34551239013672 C 186.58311462402344 83.03759002685547 188.30337524414062 93.78414154052734 187.7867889404297 140.68568420410156" fill="rgb(75, 73, 68)" opacity="1.0" stroke-width="2.0"/>
    <path d="M 410.9179382324219 151.70162963867188 C 432.0503845214844 177.37034606933594 417.5726623535156 190.93368530273438 412.4873046875 198.7368927001953 C 398.3804016113281 178.8992156982422 407.0592956542969 141.17852783203125 347.72296142578125 171.18458557128906 C 335.88616943359375 162.87115478515625 373.7959899902344 119.06460571289062 410.9179382324219 151.70162963867188" fill="rgb(1, 0, 2)" opacity="1.0" stroke-width="2.0"/>
    <path d="M 242.6041717529297 -25.721576690673828 C 148.38931274414062 3.6332039833068848 110.53662872314453 118.64930725097656 131.73031616210938 114.83506774902344 C 332.17279052734375 105.70538330078125 290.1026611328125 85.54176330566406 307.1907958984375 105.11631774902344 C 269.7668762207031 119.26033782958984 258.2833557128906 116.8270034790039 334.8291931152344 132.9237060546875 C 401.7298278808594 158.08717346191406 319.5452880859375 168.86273193359375 105.24397277832031 117.63072967529297 C 322.692138671875 100.25514221191406 355.7763977050781 112.16429901123047 242.6041717529297 -25.721576690673828" fill="rgb(249, 221, 109)" opacity="1.0" stroke-width="2.0"/>
    <path d="M 53.54365539550781 128.96807861328125 C 18.07575225830078 219.87518310546875 10.685103416442871 236.7694854736328 36.59972381591797 117.71685028076172 C 44.05611038208008 120.0439224243164 -29.943845748901367 203.72061157226562 12.695115089416504 338.4114990234375 C 44.87875747680664 365.7284240722656 -9.717000961303711 166.822509765625 54.43232727050781 98.03636932373047 C 97.29204559326172 36.04032897949219 216.56680297851562 -24.585878372192383 279.9571228027344 13.303657531738281 C 83.19225311279297 32.979026794433594 74.91351318359375 125.97615814208984 53.54365539550781 128.96807861328125" fill="rgb(5, 4, 3)" opacity="1.0" stroke-width="2.0"/>
    <path d="M 352.3779296875 191.74114990234375 C 370.7413330078125 180.70700073242188 350.9690856933594 179.6974334716797 385.4649658203125 216.18502807617188 C 364.0612487792969 228.80242919921875 322.43365478515625 189.3117218017578 353.0561218261719 152.15554809570312 C 419.0994873046875 150.67501831054688 354.0747985839844 155.72012329101562 362.8077392578125 184.32627868652344 C 413.2408752441406 150.63165283203125 394.9432067871094 161.52513122558594 407.58856201171875 209.039306640625 C 423.830322265625 141.36680603027344 399.92034912109375 158.00555419921875 352.3779296875 191.74114990234375" fill="rgb(1, 0, 1)" opacity="1.0" stroke-width="2.0"/>
    <path d="M 464.9460754394531 94.39323425292969 C 290.6106872558594 -44.65060806274414 280.7310791015625 -16.62618637084961 356.8611145019531 12.180419921875 C 317.0439453125 13.343778610229492 209.71080017089844 -22.565698623657227 249.92396545410156 168.0862579345703 C 378.074462890625 76.21353912353516 510.5280456542969 204.2205810546875 464.9460754394531 94.39323425292969" fill="rgb(213, 189, 96)" opacity="1.0" stroke-width="2.0"/>
  </g>
</svg>
