<?xml version="1.0" ?>
<svg height="512" version="1.1" width="512" xmlns="http://www.w3.org/2000/svg">
  <defs/>
  <g>
    <path d="M 55.60175704956055 53.30923843383789 C 58.6483154296875 51.03211975097656 54.67817306518555 53.16719436645508 53.733036041259766 54.96549987792969 C 36.745277404785156 68.492919921875 29.107799530029297 73.93803405761719 29.920900344848633 73.11813354492188 C 39.40620040893555 68.11585998535156 27.157947540283203 73.5599365234375 37.56391525268555 69.59756469726562 C 30.524520874023438 71.23673248291016 21.483291625976562 81.37525177001953 55.60175704956055 53.30923843383789" fill="rgb(255, 60, 122)" opacity="1.0" stroke-width="2.0"/>
    <path d="M 172.9449005126953 442.6033935546875 C 179.68630981445312 514.0206909179688 143.84054565429688 494.5952453613281 99.42713928222656 458.19195556640625 C 80.0899429321289 455.9368591308594 79.95796966552734 463.39849853515625 74.0985107421875 468.128173828125 C 69.3936996459961 481.1684265136719 74.54844665527344 472.9678649902344 78.56526184082031 474.0587158203125 C 68.6681137084961 480.2219543457031 58.00580978393555 448.5999450683594 172.9449005126953 442.6033935546875" fill="rgb(86, 125, 38)" opacity="1.0" stroke-width="2.0"/>
    <path d="M 196.18545532226562 347.2363586425781 C 192.47195434570312 236.51007080078125 203.5178680419922 245.42349243164062 209.34231567382812 235.37057495117188 C 220.03744506835938 230.85894775390625 223.4423370361328 228.27056884765625 337.8885498046875 234.42672729492188 C 344.486083984375 347.3150329589844 334.1493225097656 356.7290344238281 324.7040100097656 369.08831787109375 C 209.924072265625 361.162841796875 200.4532470703125 365.1151428222656 196.18545532226562 347.2363586425781" fill="rgb(253, 222, 101)" opacity="1.0" stroke-width="2.0"/>
    <path d="M 428.0016174316406 188.16770935058594 C 405.35107421875 210.2836456298828 403.83551025390625 231.19004821777344 356.75726318359375 213.6397247314453 C 353.11151123046875 219.8082733154297 365.1557922363281 234.53070068359375 363.06817626953125 228.46644592285156 C 353.723876953125 219.91746520996094 351.1755676269531 211.03395080566406 374.7169494628906 200.8704071044922 C 412.8270568847656 192.83119201660156 415.5670471191406 162.57948303222656 428.0016174316406 188.16770935058594" fill="rgb(54, 13, 30)" opacity="1.0" stroke-width="2.0"/>
    <path d="M 225.7392578125 210.97093200683594 C 232.18824768066406 245.64056396484375 242.33580017089844 246.3284149169922 259.55645751953125 263.27978515625 C 303.05914306640625 254.71542358398438 298.4258728027344 251.25167846679688 331.53759765625 255.75277709960938 C 340.9126281738281 198.73672485351562 329.423828125 188.50668334960938 323.876708984375 168.38739013671875 C 266.8819885253906 168.7318115234375 267.9095458984375 182.9900360107422 225.7392578125 210.97093200683594" fill="rgb(254, 220, 103)" opacity="1.0" stroke-width="2.0"/>
    <path d="M 411.7397155761719 151.3233642578125 C 427.3865661621094 184.56932067871094 424.709716796875 177.8325958251953 419.7073669433594 180.78738403320312 C 419.5321960449219 176.1999969482422 416.70831298828125 153.83450317382812 341.0194091796875 166.27520751953125 C 346.5611877441406 164.806884765625 366.4096374511719 116.34391021728516 411.7397155761719 151.3233642578125" fill="rgb(39, 35, 18)" opacity="1.0" stroke-width="2.0"/>
    <path d="M 313.03997802734375 64.95947265625 C 290.20880126953125 112.73558807373047 294.322509765625 129.0899658203125 317.7130432128906 121.46527099609375 C 313.042724609375 152.5391845703125 299.65057373046875 121.0644760131836 315.35052490234375 102.49119567871094 C 297.2774963378906 130.6678466796875 288.49212646484375 141.12368774414062 304.49774169921875 159.81961059570312 C 317.2867736816406 165.62257385253906 311.837158203125 182.6261749267578 285.1921081542969 164.37843322753906 C 311.0235900878906 146.1369171142578 315.88330078125 156.23052978515625 313.03997802734375 64.95947265625" fill="rgb(213, 197, 100)" opacity="1.0" stroke-width="2.0"/>
    <path d="M 69.84972381591797 109.71385192871094 C 53.17433166503906 150.62460327148438 58.436126708984375 145.6474151611328 48.001953125 106.50717163085938 C 34.57678985595703 122.59663391113281 10.786491394042969 166.94627380371094 5.747035980224609 202.19189453125 C 78.69512939453125 194.68141174316406 56.73349380493164 154.1051025390625 48.62415313720703 106.98727416992188 C 64.74977111816406 65.72932434082031 104.62003326416016 72.68710327148438 100.42989349365234 77.0269546508789 C 56.01809310913086 133.57545471191406 83.66061401367188 148.422607421875 69.84972381591797 109.71385192871094" fill="rgb(80, 77, 42)" opacity="1.0" stroke-width="2.0"/>
    <path d="M 338.2698974609375 192.30389404296875 C 357.00628662109375 180.8395538330078 376.83837890625 184.73016357421875 372.4271545410156 211.99737548828125 C 351.9748229980469 208.70263671875 342.1953430175781 218.8065643310547 341.37469482421875 153.91896057128906 C 379.1828918457031 159.05032348632812 353.4913024902344 186.93177795410156 372.29833984375 177.93368530273438 C 402.8544616699219 162.57492065429688 388.8114013671875 170.41744995117188 423.94635009765625 200.43017578125 C 426.8787841796875 140.3585662841797 409.7881164550781 163.87619018554688 338.2698974609375 192.30389404296875" fill="rgb(73, 70, 46)" opacity="1.0" stroke-width="2.0"/>
    <path d="M 345.08380126953125 68.62348175048828 C 307.34832763671875 109.42808532714844 311.5805358886719 118.1536865234375 319.7374267578125 78.68507385253906 C 337.0290832519531 98.90630340576172 294.57989501953125 107.88406372070312 299.0455017089844 168.6044464111328 C 350.5057678222656 182.28543090820312 352.6684875488281 164.0309295654297 345.08380126953125 68.62348175048828" fill="rgb(253, 186, 108)" opacity="1.0" stroke-width="2.0"/>
  </g>
</svg>
