<?xml version="1.0" ?>
<svg height="512" version="1.1" width="512" xmlns="http://www.w3.org/2000/svg">
  <defs/>
  <g>
    <path d="M 55.27668762207031 54.424949645996094 C 55.1195182800293 53.45793914794922 55.859703063964844 53.732662200927734 54.68028259277344 54.96334457397461 C 38.01316833496094 69.55379486083984 33.70543670654297 75.05950927734375 36.48270797729492 72.89431762695312 C 36.629451751708984 72.50979614257812 32.26664352416992 76.16809844970703 40.4546012878418 73.18370819091797 C 38.84988784790039 73.35989379882812 24.5581111907959 81.82878112792969 55.27668762207031 54.424949645996094" fill="rgb(255, 90, 156)" opacity="1.0" stroke-width="2.0"/>
    <path d="M 507.10552978515625 317.01092529296875 C 442.52337646484375 522.8302612304688 244.0701446533203 538.8178100585938 146.75762939453125 487.9927978515625 C 37.55263900756836 436.3013916015625 33.90769577026367 347.6295471191406 54.934696197509766 450.74725341796875 C 60.7082405090332 475.60504150390625 58.910804748535156 469.5106201171875 44.322566986083984 401.8148498535156 C -39.92361068725586 263.7217102050781 8.308710098266602 257.8306884765625 507.10552978515625 317.01092529296875" fill="rgb(3, 2, 2)" opacity="1.0" stroke-width="2.0"/>
    <path d="M 46.58799362182617 365.1897277832031 C -21.944503784179688 211.73255920410156 9.733297348022461 96.56381225585938 148.22264099121094 22.932477951049805 C 425.0035095214844 -9.128873825073242 370.0176696777344 29.7802791595459 507.1667785644531 203.00213623046875 C 526.7328491210938 321.52325439453125 493.0791931152344 304.78631591796875 435.077880859375 411.9384460449219 C 300.8291015625 549.2120971679688 114.72270202636719 494.8640441894531 46.58799362182617 365.1897277832031" fill="rgb(249, 216, 108)" opacity="1.0" stroke-width="2.0"/>
    <path d="M 422.2168273925781 177.7382354736328 C 423.4270935058594 214.109619140625 380.94744873046875 233.57594299316406 354.2920837402344 208.43116760253906 C 356.2972106933594 213.6211395263672 364.45989990234375 228.85215759277344 361.0785827636719 222.54693603515625 C 351.6264953613281 204.06382751464844 338.99627685546875 180.90911865234375 376.67144775390625 199.36135864257812 C 413.0982360839844 205.7623291015625 396.5567321777344 151.40859985351562 422.2168273925781 177.7382354736328" fill="rgb(2, 1, 3)" opacity="1.0" stroke-width="2.0"/>
    <path d="M 202.9507293701172 139.58509826660156 C 128.8517608642578 175.45237731933594 208.16249084472656 262.2581481933594 250.6676025390625 196.321044921875 C 273.2622985839844 114.21587371826172 125.63005828857422 149.94903564453125 354.1999206542969 141.080322265625 C 373.0289306640625 152.56610107421875 359.8185729980469 143.8141326904297 324.9794616699219 125.82239532470703 C 186.48690795898438 84.4945068359375 191.23175048828125 93.97029113769531 202.9507293701172 139.58509826660156" fill="rgb(66, 65, 65)" opacity="1.0" stroke-width="2.0"/>
    <path d="M 410.0440673828125 150.95582580566406 C 431.55029296875 173.76669311523438 419.3001708984375 197.91676330566406 410.2189025878906 201.36288452148438 C 401.95086669921875 180.76202392578125 404.937255859375 140.42141723632812 350.6721496582031 170.72042846679688 C 335.3843994140625 158.98489379882812 376.5602111816406 121.22021484375 410.0440673828125 150.95582580566406" fill="rgb(1, 1, 2)" opacity="1.0" stroke-width="2.0"/>
    <path d="M 253.22402954101562 -2.6414973735809326 C 145.65689086914062 8.750481605529785 100.75946044921875 92.95907592773438 120.31708526611328 126.61119079589844 C 330.1875305175781 103.44571685791016 293.1453857421875 80.8358383178711 311.3733215332031 88.84162902832031 C 270.3868103027344 109.6905517578125 259.63201904296875 97.0538330078125 362.0716857910156 71.06818389892578 C 424.2611999511719 170.66793823242188 337.26446533203125 145.6372528076172 95.8438949584961 132.23814392089844 C 353.7491760253906 95.45030975341797 401.9500427246094 77.6241683959961 253.22402954101562 -2.6414973735809326" fill="rgb(252, 222, 109)" opacity="1.0" stroke-width="2.0"/>
    <path d="M 29.658971786499023 189.13787841796875 C 24.968677520751953 216.5577392578125 13.049365997314453 245.1074981689453 32.19841766357422 130.38418579101562 C 42.958351135253906 116.0474624633789 -31.332992553710938 211.9841766357422 14.3902587890625 342.8325500488281 C 36.62049102783203 383.82373046875 -2.728541851043701 142.2213897705078 52.900001525878906 101.4708251953125 C 123.095703125 -5.96593713760376 301.331298828125 -19.045129776000977 260.6400146484375 19.494470596313477 C 112.85111999511719 21.355152130126953 45.63864517211914 130.665771484375 29.658971786499023 189.13787841796875" fill="rgb(1, 0, 1)" opacity="1.0" stroke-width="2.0"/>
    <path d="M 353.69134521484375 190.3504638671875 C 374.43865966796875 177.3775634765625 346.7401123046875 187.2600860595703 389.4378356933594 207.78521728515625 C 362.4612731933594 235.41749572753906 324.20977783203125 187.39894104003906 351.71710205078125 154.08438110351562 C 420.599609375 161.20643615722656 356.6206970214844 148.68270874023438 362.488037109375 184.30731201171875 C 415.3290710449219 149.2729949951172 397.6746520996094 160.58404541015625 403.4920654296875 209.11778259277344 C 421.3243408203125 140.73977661132812 400.80828857421875 159.06597900390625 353.69134521484375 190.3504638671875" fill="rgb(2, 1, 3)" opacity="1.0" stroke-width="2.0"/>
    <path d="M 502.5470886230469 163.10191345214844 C 351.1875915527344 -52.27236557006836 330.3541564941406 -84.87956237792969 441.07373046875 76.31112670898438 C 366.56756591796875 6.835729598999023 281.05963134765625 -8.536948204040527 323.4955139160156 35.44269943237305 C 512.3154296875 49.02680969238281 528.8076782226562 473.7850036621094 502.5470886230469 163.10191345214844" fill="rgb(35, 33, 25)" opacity="1.0" stroke-width="2.0"/>
  </g>
</svg>
